  0
SECTION
  2
HEADER
  9
$ACADVER
  1
AC1009
  9
$FILLMODE
 70
1
  9
$EXTMIN
 10
0.0246
 20
0.0246
 30
0.0000
  9
$EXTMAX
 10
91.5750
 20
44.4753
 30
0.0000
  0
ENDSEC
  0
SECTION
  2
TABLES
  0
TABLE
  2
LTYPE
 70
1
  0
LTYPE
  2
CONTINUOUS
 70
64
  3
Solid line
 72
65
 73
0
 40
0
  0
ENDTAB
  0
TABLE
  2
LAYER
 70
255
  0
LAYER
  2
1
 70
64
 62
12
  6
CONTINUOUS
  0
LAYER
  2
16
 70
64
 62
132
  6
CONTINUOUS
  0
LAYER
  2
17
 70
64
 62
110
  6
CONTINUOUS
  0
LAYER
  2
18
 70
64
 62
110
  6
CONTINUOUS
  0
LAYER
  2
19
 70
64
 62
53
  6
CONTINUOUS
  0
LAYER
  2
20
 70
64
 62
31
  6
CONTINUOUS
  0
LAYER
  2
21
 70
64
 62
7
  6
CONTINUOUS
  0
LAYER
  2
22
 70
64
 62
7
  6
CONTINUOUS
  0
LAYER
  2
23
 70
64
 62
53
  6
CONTINUOUS
  0
LAYER
  2
24
 70
64
 62
53
  6
CONTINUOUS
  0
LAYER
  2
25
 70
64
 62
7
  6
CONTINUOUS
  0
LAYER
  2
26
 70
64
 62
7
  6
CONTINUOUS
  0
LAYER
  2
27
 70
64
 62
7
  6
CONTINUOUS
  0
LAYER
  2
28
 70
64
 62
7
  6
CONTINUOUS
  0
LAYER
  2
39
 70
64
 62
12
  6
CONTINUOUS
  0
LAYER
  2
40
 70
64
 62
132
  6
CONTINUOUS
  0
LAYER
  2
41
 70
64
 62
12
  6
CONTINUOUS
  0
LAYER
  2
42
 70
64
 62
132
  6
CONTINUOUS
  0
LAYER
  2
43
 70
64
 62
110
  6
CONTINUOUS
  0
LAYER
  2
48
 70
64
 62
7
  6
CONTINUOUS
  0
LAYER
  2
49
 70
64
 62
7
  6
CONTINUOUS
  0
LAYER
  2
50
 70
64
 62
1
  6
CONTINUOUS
  0
LAYER
  2
51
 70
64
 62
7
  6
CONTINUOUS
  0
LAYER
  2
52
 70
64
 62
7
  6
CONTINUOUS
  0
LAYER
  2
108
 70
64
 62
7
  6
CONTINUOUS
  0
LAYER
  2
109
 70
64
 62
7
  6
CONTINUOUS
  0
LAYER
  2
110
 70
64
 62
7
  6
CONTINUOUS
  0
LAYER
  2
111
 70
64
 62
7
  6
CONTINUOUS
  0
LAYER
  2
118
 70
64
 62
12
  6
CONTINUOUS
  0
LAYER
  2
120
 70
64
 62
7
  6
CONTINUOUS
  0
LAYER
  2
123
 70
64
 62
7
  6
CONTINUOUS
  0
LAYER
  2
124
 70
64
 62
7
  6
CONTINUOUS
  0
LAYER
  2
125
 70
64
 62
7
  6
CONTINUOUS
  0
LAYER
  2
126
 70
64
 62
7
  6
CONTINUOUS
  0
LAYER
  2
127
 70
64
 62
7
  6
CONTINUOUS
  0
LAYER
  2
128
 70
64
 62
7
  6
CONTINUOUS
  0
LAYER
  2
129
 70
64
 62
7
  6
CONTINUOUS
  0
LAYER
  2
130
 70
64
 62
7
  6
CONTINUOUS
  0
LAYER
  2
131
 70
64
 62
7
  6
CONTINUOUS
  0
LAYER
  2
132
 70
64
 62
7
  6
CONTINUOUS
  0
LAYER
  2
150
 70
64
 62
7
  6
CONTINUOUS
  0
LAYER
  2
152
 70
64
 62
7
  6
CONTINUOUS
  0
LAYER
  2
156
 70
64
 62
190
  6
CONTINUOUS
  0
LAYER
  2
157
 70
64
 62
155
  6
CONTINUOUS
  0
LAYER
  2
158
 70
64
 62
7
  6
CONTINUOUS
  0
LAYER
  2
159
 70
64
 62
53
  6
CONTINUOUS
  0
LAYER
  2
199
 70
64
 62
7
  6
CONTINUOUS
  0
LAYER
  2
225
 70
64
 62
7
  6
CONTINUOUS
  0
LAYER
  2
226
 70
64
 62
7
  6
CONTINUOUS
  0
LAYER
  2
227
 70
64
 62
7
  6
CONTINUOUS
  0
LAYER
  2
228
 70
64
 62
7
  6
CONTINUOUS
  0
LAYER
  2
229
 70
64
 62
7
  6
CONTINUOUS
  0
LAYER
  2
230
 70
64
 62
7
  6
CONTINUOUS
  0
LAYER
  2
248
 70
64
 62
7
  6
CONTINUOUS
  0
LAYER
  2
249
 70
64
 62
7
  6
CONTINUOUS
  0
LAYER
  2
255
 70
64
 62
7
  6
CONTINUOUS
  0
ENDTAB
  0
ENDSEC
  0
SECTION
  2
BLOCKS
  0
BLOCK
  8
0
  2
RECT
 70
64
 10
0.0000
 20
0.0000
 30
0.0000
  3
RECT
  0
SOLID
  8
0
 10
-0.5000
 20
-0.5000
 30
0.0000
 11
0.5000
 21
-0.5000
 31
0.0000
 12
-0.5000
 22
0.5000
 32
0.0000
 13
0.5000
 23
0.5000
 33
0.0000
  0
ENDBLK
  8
0
  0
BLOCK
  8
0
  2
PIE
 70
64
 10
0.0000
 20
0.0000
 30
0.0000
  3
PIE
  0
POLYLINE
  8
0
 66
1
 10
0.0000
 20
0.0000
 30
0.0000
 40
0.5000
 41
0.5000
 70
0
  0
VERTEX
  8
0
 10
0.0000
 20
-0.2500
 30
0.0000
 42
1.0000
  0
VERTEX
  8
0
 10
0.0000
 20
0.2500
 30
0.0000
 42
1.0000
  0
VERTEX
  8
0
 10
0.0000
 20
-0.2500
 30
0.0000
  0
SEQEND
  8
0
  0
ENDBLK
  8
0
  0
BLOCK
  8
0
  2
OCTAGONP
 70
64
 10
0.0000
 20
0.0000
 30
0.0000
  3
OCTAGONP
  0
POLYLINE
  8
0
 66
1
 10
0.0000
 20
0.0000
 30
0.0000
 40
0.5000
 41
0.5000
 70
0
  0
VERTEX
  8
0
 10
-0.2500
 20
-0.1036
 30
0.0000
  0
VERTEX
  8
0
 10
-0.2500
 20
0.1036
 30
0.0000
  0
VERTEX
  8
0
 10
-0.1036
 20
0.2500
 30
0.0000
  0
VERTEX
  8
0
 10
0.1036
 20
0.2500
 30
0.0000
  0
VERTEX
  8
0
 10
0.2500
 20
0.1036
 30
0.0000
  0
VERTEX
  8
0
 10
0.2500
 20
-0.1036
 30
0.0000
  0
VERTEX
  8
0
 10
0.1036
 20
-0.2500
 30
0.0000
  0
VERTEX
  8
0
 10
-0.1036
 20
-0.2500
 30
0.0000
  0
VERTEX
  8
0
 10
-0.2500
 20
-0.1036
 30
0.0000
  0
VERTEX
  8
0
 10
-0.2500
 20
0.1036
 30
0.0000
  0
SEQEND
  8
0
  0
ENDBLK
  8
0
  0
BLOCK
  8
0
  2
SQUAREP
 70
64
 10
0.0000
 20
0.0000
 30
0.0000
  3
SQUAREP
  0
SOLID
  8
0
 10
-0.5000
 20
-0.5000
 30
0.0000
 11
0.5000
 21
-0.5000
 31
0.0000
 12
-0.5000
 22
0.5000
 32
0.0000
 13
0.5000
 23
0.5000
 33
0.0000
  0
ENDBLK
  8
0
  0
BLOCK
  8
0
  2
ROUNDP
 70
64
 10
0.0000
 20
0.0000
 30
0.0000
  3
ROUNDP
  0
POLYLINE
  8
0
 66
1
 10
0.0000
 20
0.0000
 30
0.0000
 40
0.5000
 41
0.5000
 70
0
  0
VERTEX
  8
0
 10
0.0000
 20
-0.2500
 30
0.0000
 42
1.0000
  0
VERTEX
  8
0
 10
0.0000
 20
0.2500
 30
0.0000
 42
1.0000
  0
VERTEX
  8
0
 10
0.0000
 20
-0.2500
 30
0.0000
  0
SEQEND
  8
0
  0
ENDBLK
  8
0
  0
BLOCK
  8
0
  2
ANNULUSP
 70
64
 10
0.0000
 20
0.0000
 30
0.0000
  3
ANNULUSP
  0
POLYLINE
  8
0
 66
1
 10
0.0000
 20
0.0000
 30
0.0000
 40
0.5000
 41
0.5000
 70
0
  0
VERTEX
  8
0
 10
0.0000
 20
-0.2500
 30
0.0000
 42
1.0000
  0
VERTEX
  8
0
 10
0.0000
 20
0.2500
 30
0.0000
 42
1.0000
  0
VERTEX
  8
0
 10
0.0000
 20
-0.2500
 30
0.0000
  0
SEQEND
  8
0
  0
ENDBLK
  8
0
  0
BLOCK
  8
0
  2
THERMALP
 70
64
 10
0.0000
 20
0.0000
 30
0.0000
  3
THERMALP
  0
POLYLINE
  8
0
 66
1
 10
0.0000
 20
0.0000
 30
0.0000
 40
0.1000
 41
0.1000
 70
0
  0
VERTEX
  8
0
 10
-0.2379
 20
0.4500
 30
0.0000
  0
VERTEX
  8
0
 10
0.2379
 20
0.4500
 30
0.0000
  0
SEQEND
  8
0
  0
POLYLINE
  8
0
 66
1
 10
0.0000
 20
0.0000
 30
0.0000
 40
0.0500
 41
0.0500
 70
0
  0
VERTEX
  8
0
 10
0.2379
 20
0.4250
 30
0.0000
 42
1.0000
  0
VERTEX
  8
0
 10
0.2379
 20
0.4750
 30
0.0000
  0
SEQEND
  8
0
  0
POLYLINE
  8
0
 66
1
 10
0.0000
 20
0.0000
 30
0.0000
 40
0.0500
 41
0.0500
 70
0
  0
VERTEX
  8
0
 10
-0.2379
 20
0.4750
 30
0.0000
 42
1.0000
  0
VERTEX
  8
0
 10
-0.2379
 20
0.4250
 30
0.0000
  0
SEQEND
  8
0
  0
POLYLINE
  8
0
 66
1
 10
0.0000
 20
0.0000
 30
0.0000
 40
0.1000
 41
0.1000
 70
0
  0
VERTEX
  8
0
 10
0.4500
 20
0.2379
 30
0.0000
  0
VERTEX
  8
0
 10
0.4500
 20
-0.2379
 30
0.0000
  0
SEQEND
  8
0
  0
POLYLINE
  8
0
 66
1
 10
0.0000
 20
0.0000
 30
0.0000
 40
0.0500
 41
0.0500
 70
0
  0
VERTEX
  8
0
 10
0.4250
 20
-0.2379
 30
0.0000
 42
1.0000
  0
VERTEX
  8
0
 10
0.4750
 20
-0.2379
 30
0.0000
  0
SEQEND
  8
0
  0
POLYLINE
  8
0
 66
1
 10
0.0000
 20
0.0000
 30
0.0000
 40
0.0500
 41
0.0500
 70
0
  0
VERTEX
  8
0
 10
0.4750
 20
0.2379
 30
0.0000
 42
1.0000
  0
VERTEX
  8
0
 10
0.4250
 20
0.2379
 30
0.0000
  0
SEQEND
  8
0
  0
POLYLINE
  8
0
 66
1
 10
0.0000
 20
0.0000
 30
0.0000
 40
0.1000
 41
0.1000
 70
0
  0
VERTEX
  8
0
 10
0.2379
 20
-0.4500
 30
0.0000
  0
VERTEX
  8
0
 10
-0.2379
 20
-0.4500
 30
0.0000
  0
SEQEND
  8
0
  0
POLYLINE
  8
0
 66
1
 10
0.0000
 20
0.0000
 30
0.0000
 40
0.0500
 41
0.0500
 70
0
  0
VERTEX
  8
0
 10
-0.2379
 20
-0.4250
 30
0.0000
 42
1.0000
  0
VERTEX
  8
0
 10
-0.2379
 20
-0.4750
 30
0.0000
  0
SEQEND
  8
0
  0
POLYLINE
  8
0
 66
1
 10
0.0000
 20
0.0000
 30
0.0000
 40
0.0500
 41
0.0500
 70
0
  0
VERTEX
  8
0
 10
0.2379
 20
-0.4750
 30
0.0000
 42
1.0000
  0
VERTEX
  8
0
 10
0.2379
 20
-0.4250
 30
0.0000
  0
SEQEND
  8
0
  0
POLYLINE
  8
0
 66
1
 10
0.0000
 20
0.0000
 30
0.0000
 40
0.1000
 41
0.1000
 70
0
  0
VERTEX
  8
0
 10
-0.4500
 20
-0.2379
 30
0.0000
  0
VERTEX
  8
0
 10
-0.4500
 20
0.2379
 30
0.0000
  0
SEQEND
  8
0
  0
POLYLINE
  8
0
 66
1
 10
0.0000
 20
0.0000
 30
0.0000
 40
0.0500
 41
0.0500
 70
0
  0
VERTEX
  8
0
 10
-0.4250
 20
0.2379
 30
0.0000
 42
1.0000
  0
VERTEX
  8
0
 10
-0.4750
 20
0.2379
 30
0.0000
  0
SEQEND
  8
0
  0
POLYLINE
  8
0
 66
1
 10
0.0000
 20
0.0000
 30
0.0000
 40
0.0500
 41
0.0500
 70
0
  0
VERTEX
  8
0
 10
-0.4750
 20
-0.2379
 30
0.0000
 42
1.0000
  0
VERTEX
  8
0
 10
-0.4250
 20
-0.2379
 30
0.0000
  0
SEQEND
  8
0
  0
ENDBLK
  8
0
  0
BLOCK
  8
0
  2
OCTAGONV
 70
64
 10
0.0000
 20
0.0000
 30
0.0000
  3
OCTAGONV
  0
POLYLINE
  8
0
 66
1
 10
0.0000
 20
0.0000
 30
0.0000
 40
0.5000
 41
0.5000
 70
0
  0
VERTEX
  8
0
 10
-0.2500
 20
-0.1036
 30
0.0000
  0
VERTEX
  8
0
 10
-0.2500
 20
0.1036
 30
0.0000
  0
VERTEX
  8
0
 10
-0.1036
 20
0.2500
 30
0.0000
  0
VERTEX
  8
0
 10
0.1036
 20
0.2500
 30
0.0000
  0
VERTEX
  8
0
 10
0.2500
 20
0.1036
 30
0.0000
  0
VERTEX
  8
0
 10
0.2500
 20
-0.1036
 30
0.0000
  0
VERTEX
  8
0
 10
0.1036
 20
-0.2500
 30
0.0000
  0
VERTEX
  8
0
 10
-0.1036
 20
-0.2500
 30
0.0000
  0
VERTEX
  8
0
 10
-0.2500
 20
-0.1036
 30
0.0000
  0
VERTEX
  8
0
 10
-0.2500
 20
0.1036
 30
0.0000
  0
SEQEND
  8
0
  0
ENDBLK
  8
0
  0
BLOCK
  8
0
  2
SQUAREV
 70
64
 10
0.0000
 20
0.0000
 30
0.0000
  3
SQUAREV
  0
SOLID
  8
0
 10
-0.5000
 20
-0.5000
 30
0.0000
 11
0.5000
 21
-0.5000
 31
0.0000
 12
-0.5000
 22
0.5000
 32
0.0000
 13
0.5000
 23
0.5000
 33
0.0000
  0
ENDBLK
  8
0
  0
BLOCK
  8
0
  2
ROUNDV
 70
64
 10
0.0000
 20
0.0000
 30
0.0000
  3
ROUNDV
  0
POLYLINE
  8
0
 66
1
 10
0.0000
 20
0.0000
 30
0.0000
 40
0.5000
 41
0.5000
 70
0
  0
VERTEX
  8
0
 10
0.0000
 20
-0.2500
 30
0.0000
 42
1.0000
  0
VERTEX
  8
0
 10
0.0000
 20
0.2500
 30
0.0000
 42
1.0000
  0
VERTEX
  8
0
 10
0.0000
 20
-0.2500
 30
0.0000
  0
SEQEND
  8
0
  0
ENDBLK
  8
0
  0
BLOCK
  8
0
  2
ANNULUSV
 70
64
 10
0.0000
 20
0.0000
 30
0.0000
  3
ANNULUSV
  0
POLYLINE
  8
0
 66
1
 10
0.0000
 20
0.0000
 30
0.0000
 40
0.5000
 41
0.5000
 70
0
  0
VERTEX
  8
0
 10
0.0000
 20
-0.2500
 30
0.0000
 42
1.0000
  0
VERTEX
  8
0
 10
0.0000
 20
0.2500
 30
0.0000
 42
1.0000
  0
VERTEX
  8
0
 10
0.0000
 20
-0.2500
 30
0.0000
  0
SEQEND
  8
0
  0
ENDBLK
  8
0
  0
BLOCK
  8
0
  2
THERMALV
 70
64
 10
0.0000
 20
0.0000
 30
0.0000
  3
THERMALV
  0
POLYLINE
  8
0
 66
1
 10
0.0000
 20
0.0000
 30
0.0000
 40
0.1000
 41
0.1000
 70
0
  0
VERTEX
  8
0
 10
-0.2379
 20
0.4500
 30
0.0000
  0
VERTEX
  8
0
 10
0.2379
 20
0.4500
 30
0.0000
  0
SEQEND
  8
0
  0
POLYLINE
  8
0
 66
1
 10
0.0000
 20
0.0000
 30
0.0000
 40
0.0500
 41
0.0500
 70
0
  0
VERTEX
  8
0
 10
0.2379
 20
0.4250
 30
0.0000
 42
1.0000
  0
VERTEX
  8
0
 10
0.2379
 20
0.4750
 30
0.0000
  0
SEQEND
  8
0
  0
POLYLINE
  8
0
 66
1
 10
0.0000
 20
0.0000
 30
0.0000
 40
0.0500
 41
0.0500
 70
0
  0
VERTEX
  8
0
 10
-0.2379
 20
0.4750
 30
0.0000
 42
1.0000
  0
VERTEX
  8
0
 10
-0.2379
 20
0.4250
 30
0.0000
  0
SEQEND
  8
0
  0
POLYLINE
  8
0
 66
1
 10
0.0000
 20
0.0000
 30
0.0000
 40
0.1000
 41
0.1000
 70
0
  0
VERTEX
  8
0
 10
0.4500
 20
0.2379
 30
0.0000
  0
VERTEX
  8
0
 10
0.4500
 20
-0.2379
 30
0.0000
  0
SEQEND
  8
0
  0
POLYLINE
  8
0
 66
1
 10
0.0000
 20
0.0000
 30
0.0000
 40
0.0500
 41
0.0500
 70
0
  0
VERTEX
  8
0
 10
0.4250
 20
-0.2379
 30
0.0000
 42
1.0000
  0
VERTEX
  8
0
 10
0.4750
 20
-0.2379
 30
0.0000
  0
SEQEND
  8
0
  0
POLYLINE
  8
0
 66
1
 10
0.0000
 20
0.0000
 30
0.0000
 40
0.0500
 41
0.0500
 70
0
  0
VERTEX
  8
0
 10
0.4750
 20
0.2379
 30
0.0000
 42
1.0000
  0
VERTEX
  8
0
 10
0.4250
 20
0.2379
 30
0.0000
  0
SEQEND
  8
0
  0
POLYLINE
  8
0
 66
1
 10
0.0000
 20
0.0000
 30
0.0000
 40
0.1000
 41
0.1000
 70
0
  0
VERTEX
  8
0
 10
0.2379
 20
-0.4500
 30
0.0000
  0
VERTEX
  8
0
 10
-0.2379
 20
-0.4500
 30
0.0000
  0
SEQEND
  8
0
  0
POLYLINE
  8
0
 66
1
 10
0.0000
 20
0.0000
 30
0.0000
 40
0.0500
 41
0.0500
 70
0
  0
VERTEX
  8
0
 10
-0.2379
 20
-0.4250
 30
0.0000
 42
1.0000
  0
VERTEX
  8
0
 10
-0.2379
 20
-0.4750
 30
0.0000
  0
SEQEND
  8
0
  0
POLYLINE
  8
0
 66
1
 10
0.0000
 20
0.0000
 30
0.0000
 40
0.0500
 41
0.0500
 70
0
  0
VERTEX
  8
0
 10
0.2379
 20
-0.4750
 30
0.0000
 42
1.0000
  0
VERTEX
  8
0
 10
0.2379
 20
-0.4250
 30
0.0000
  0
SEQEND
  8
0
  0
POLYLINE
  8
0
 66
1
 10
0.0000
 20
0.0000
 30
0.0000
 40
0.1000
 41
0.1000
 70
0
  0
VERTEX
  8
0
 10
-0.4500
 20
-0.2379
 30
0.0000
  0
VERTEX
  8
0
 10
-0.4500
 20
0.2379
 30
0.0000
  0
SEQEND
  8
0
  0
POLYLINE
  8
0
 66
1
 10
0.0000
 20
0.0000
 30
0.0000
 40
0.0500
 41
0.0500
 70
0
  0
VERTEX
  8
0
 10
-0.4250
 20
0.2379
 30
0.0000
 42
1.0000
  0
VERTEX
  8
0
 10
-0.4750
 20
0.2379
 30
0.0000
  0
SEQEND
  8
0
  0
POLYLINE
  8
0
 66
1
 10
0.0000
 20
0.0000
 30
0.0000
 40
0.0500
 41
0.0500
 70
0
  0
VERTEX
  8
0
 10
-0.4750
 20
-0.2379
 30
0.0000
 42
1.0000
  0
VERTEX
  8
0
 10
-0.4250
 20
-0.2379
 30
0.0000
  0
SEQEND
  8
0
  0
ENDBLK
  8
0
  0
ENDSEC
  0
SECTION
  2
ENTITIES
  0
POLYLINE
  8
20
 66
1
 10
0.0000
 20
0.0000
 30
0.0000
 40
0.1500
 41
0.1500
 70
0
  0
VERTEX
  8
20
 10
91.5000
 20
40.9000
 30
0.0000
 42
0.4142
  0
VERTEX
  8
20
 10
87.9000
 20
44.4000
 30
0.0000
  0
SEQEND
  8
0
  0
POLYLINE
  8
20
 66
1
 10
0.0000
 20
0.0000
 30
0.0000
 40
0.0750
 41
0.0750
 70
0
  0
VERTEX
  8
20
 10
91.4625
 20
40.8995
 30
0.0000
 42
1.0000
  0
VERTEX
  8
20
 10
91.5375
 20
40.9005
 30
0.0000
  0
SEQEND
  8
0
  0
POLYLINE
  8
20
 66
1
 10
0.0000
 20
0.0000
 30
0.0000
 40
0.0750
 41
0.0750
 70
0
  0
VERTEX
  8
20
 10
87.8995
 20
44.4375
 30
0.0000
 42
1.0000
  0
VERTEX
  8
20
 10
87.9005
 20
44.3625
 30
0.0000
  0
SEQEND
  8
0
  0
POLYLINE
  8
20
 66
1
 10
0.0000
 20
0.0000
 30
0.0000
 40
0.1500
 41
0.1500
 70
0
  0
VERTEX
  8
20
 10
87.9000
 20
0.1000
 30
0.0000
 42
0.4142
  0
VERTEX
  8
20
 10
91.5000
 20
3.7000
 30
0.0000
  0
SEQEND
  8
0
  0
POLYLINE
  8
20
 66
1
 10
0.0000
 20
0.0000
 30
0.0000
 40
0.0750
 41
0.0750
 70
0
  0
VERTEX
  8
20
 10
87.9000
 20
0.1375
 30
0.0000
 42
1.0000
  0
VERTEX
  8
20
 10
87.9000
 20
0.0625
 30
0.0000
  0
SEQEND
  8
0
  0
POLYLINE
  8
20
 66
1
 10
0.0000
 20
0.0000
 30
0.0000
 40
0.0750
 41
0.0750
 70
0
  0
VERTEX
  8
20
 10
91.5375
 20
3.7000
 30
0.0000
 42
1.0000
  0
VERTEX
  8
20
 10
91.4625
 20
3.7000
 30
0.0000
  0
SEQEND
  8
0
  0
POLYLINE
  8
20
 66
1
 10
0.0000
 20
0.0000
 30
0.0000
 40
0.1500
 41
0.1500
 70
0
  0
VERTEX
  8
20
 10
91.5000
 20
3.7000
 30
0.0000
  0
VERTEX
  8
20
 10
91.5000
 20
40.9000
 30
0.0000
  0
SEQEND
  8
0
  0
POLYLINE
  8
20
 66
1
 10
0.0000
 20
0.0000
 30
0.0000
 40
0.0750
 41
0.0750
 70
0
  0
VERTEX
  8
20
 10
91.5375
 20
40.9000
 30
0.0000
 42
1.0000
  0
VERTEX
  8
20
 10
91.4625
 20
40.9000
 30
0.0000
  0
SEQEND
  8
0
  0
POLYLINE
  8
20
 66
1
 10
0.0000
 20
0.0000
 30
0.0000
 40
0.0750
 41
0.0750
 70
0
  0
VERTEX
  8
20
 10
91.4625
 20
3.7000
 30
0.0000
 42
1.0000
  0
VERTEX
  8
20
 10
91.5375
 20
3.7000
 30
0.0000
  0
SEQEND
  8
0
  0
POLYLINE
  8
20
 66
1
 10
0.0000
 20
0.0000
 30
0.0000
 40
0.1500
 41
0.1500
 70
0
  0
VERTEX
  8
20
 10
87.9000
 20
44.4000
 30
0.0000
  0
VERTEX
  8
20
 10
3.6000
 20
44.4000
 30
0.0000
  0
SEQEND
  8
0
  0
POLYLINE
  8
20
 66
1
 10
0.0000
 20
0.0000
 30
0.0000
 40
0.0750
 41
0.0750
 70
0
  0
VERTEX
  8
20
 10
3.6000
 20
44.4375
 30
0.0000
 42
1.0000
  0
VERTEX
  8
20
 10
3.6000
 20
44.3625
 30
0.0000
  0
SEQEND
  8
0
  0
POLYLINE
  8
20
 66
1
 10
0.0000
 20
0.0000
 30
0.0000
 40
0.0750
 41
0.0750
 70
0
  0
VERTEX
  8
20
 10
87.9000
 20
44.3625
 30
0.0000
 42
1.0000
  0
VERTEX
  8
20
 10
87.9000
 20
44.4375
 30
0.0000
  0
SEQEND
  8
0
  0
POLYLINE
  8
20
 66
1
 10
0.0000
 20
0.0000
 30
0.0000
 40
0.1500
 41
0.1500
 70
0
  0
VERTEX
  8
20
 10
87.9000
 20
0.1000
 30
0.0000
  0
VERTEX
  8
20
 10
3.7000
 20
0.1000
 30
0.0000
  0
SEQEND
  8
0
  0
POLYLINE
  8
20
 66
1
 10
0.0000
 20
0.0000
 30
0.0000
 40
0.0750
 41
0.0750
 70
0
  0
VERTEX
  8
20
 10
3.7000
 20
0.1375
 30
0.0000
 42
1.0000
  0
VERTEX
  8
20
 10
3.7000
 20
0.0625
 30
0.0000
  0
SEQEND
  8
0
  0
POLYLINE
  8
20
 66
1
 10
0.0000
 20
0.0000
 30
0.0000
 40
0.0750
 41
0.0750
 70
0
  0
VERTEX
  8
20
 10
87.9000
 20
0.0625
 30
0.0000
 42
1.0000
  0
VERTEX
  8
20
 10
87.9000
 20
0.1375
 30
0.0000
  0
SEQEND
  8
0
  0
POLYLINE
  8
20
 66
1
 10
0.0000
 20
0.0000
 30
0.0000
 40
0.1500
 41
0.1500
 70
0
  0
VERTEX
  8
20
 10
3.6000
 20
44.4000
 30
0.0000
 42
0.4142
  0
VERTEX
  8
20
 10
0.1000
 20
40.8000
 30
0.0000
  0
SEQEND
  8
0
  0
POLYLINE
  8
20
 66
1
 10
0.0000
 20
0.0000
 30
0.0000
 40
0.0750
 41
0.0750
 70
0
  0
VERTEX
  8
20
 10
3.6005
 20
44.3625
 30
0.0000
 42
1.0000
  0
VERTEX
  8
20
 10
3.5995
 20
44.4375
 30
0.0000
  0
SEQEND
  8
0
  0
POLYLINE
  8
20
 66
1
 10
0.0000
 20
0.0000
 30
0.0000
 40
0.0750
 41
0.0750
 70
0
  0
VERTEX
  8
20
 10
0.0625
 20
40.7995
 30
0.0000
 42
1.0000
  0
VERTEX
  8
20
 10
0.1375
 20
40.8005
 30
0.0000
  0
SEQEND
  8
0
  0
POLYLINE
  8
20
 66
1
 10
0.0000
 20
0.0000
 30
0.0000
 40
0.1500
 41
0.1500
 70
0
  0
VERTEX
  8
20
 10
0.1000
 20
3.6000
 30
0.0000
 42
0.4142
  0
VERTEX
  8
20
 10
3.7000
 20
0.1000
 30
0.0000
  0
SEQEND
  8
0
  0
POLYLINE
  8
20
 66
1
 10
0.0000
 20
0.0000
 30
0.0000
 40
0.0750
 41
0.0750
 70
0
  0
VERTEX
  8
20
 10
0.1375
 20
3.6005
 30
0.0000
 42
1.0000
  0
VERTEX
  8
20
 10
0.0625
 20
3.5995
 30
0.0000
  0
SEQEND
  8
0
  0
POLYLINE
  8
20
 66
1
 10
0.0000
 20
0.0000
 30
0.0000
 40
0.0750
 41
0.0750
 70
0
  0
VERTEX
  8
20
 10
3.7005
 20
0.0625
 30
0.0000
 42
1.0000
  0
VERTEX
  8
20
 10
3.6995
 20
0.1375
 30
0.0000
  0
SEQEND
  8
0
  0
POLYLINE
  8
20
 66
1
 10
0.0000
 20
0.0000
 30
0.0000
 40
0.1500
 41
0.1500
 70
0
  0
VERTEX
  8
20
 10
0.1000
 20
3.6000
 30
0.0000
  0
VERTEX
  8
20
 10
0.1000
 20
40.8000
 30
0.0000
  0
SEQEND
  8
0
  0
POLYLINE
  8
20
 66
1
 10
0.0000
 20
0.0000
 30
0.0000
 40
0.0750
 41
0.0750
 70
0
  0
VERTEX
  8
20
 10
0.1375
 20
40.8000
 30
0.0000
 42
1.0000
  0
VERTEX
  8
20
 10
0.0625
 20
40.8000
 30
0.0000
  0
SEQEND
  8
0
  0
POLYLINE
  8
20
 66
1
 10
0.0000
 20
0.0000
 30
0.0000
 40
0.0750
 41
0.0750
 70
0
  0
VERTEX
  8
20
 10
0.0625
 20
3.6000
 30
0.0000
 42
1.0000
  0
VERTEX
  8
20
 10
0.1375
 20
3.6000
 30
0.0000
  0
SEQEND
  8
0
  0
POLYLINE
  8
158
 66
1
 10
0.0000
 20
0.0000
 30
0.0000
 40
0.2286
 41
0.2286
 70
0
  0
VERTEX
  8
158
 10
35.1460
 20
4.9143
 30
0.0000
  0
VERTEX
  8
158
 10
33.9143
 20
4.9143
 30
0.0000
  0
SEQEND
  8
0
  0
POLYLINE
  8
158
 66
1
 10
0.0000
 20
0.0000
 30
0.0000
 40
0.1143
 41
0.1143
 70
0
  0
VERTEX
  8
158
 10
33.9143
 20
4.9714
 30
0.0000
 42
1.0000
  0
VERTEX
  8
158
 10
33.9143
 20
4.8571
 30
0.0000
  0
SEQEND
  8
0
  0
POLYLINE
  8
158
 66
1
 10
0.0000
 20
0.0000
 30
0.0000
 40
0.1143
 41
0.1143
 70
0
  0
VERTEX
  8
158
 10
35.1460
 20
4.8571
 30
0.0000
 42
1.0000
  0
VERTEX
  8
158
 10
35.1460
 20
4.9714
 30
0.0000
  0
SEQEND
  8
0
  0
POLYLINE
  8
158
 66
1
 10
0.0000
 20
0.0000
 30
0.0000
 40
0.2286
 41
0.2286
 70
0
  0
VERTEX
  8
158
 10
33.9143
 20
4.9143
 30
0.0000
  0
VERTEX
  8
158
 10
33.9143
 20
7.6857
 30
0.0000
  0
SEQEND
  8
0
  0
POLYLINE
  8
158
 66
1
 10
0.0000
 20
0.0000
 30
0.0000
 40
0.1143
 41
0.1143
 70
0
  0
VERTEX
  8
158
 10
33.9715
 20
7.6857
 30
0.0000
 42
1.0000
  0
VERTEX
  8
158
 10
33.8572
 20
7.6857
 30
0.0000
  0
SEQEND
  8
0
  0
POLYLINE
  8
158
 66
1
 10
0.0000
 20
0.0000
 30
0.0000
 40
0.1143
 41
0.1143
 70
0
  0
VERTEX
  8
158
 10
33.8572
 20
4.9143
 30
0.0000
 42
1.0000
  0
VERTEX
  8
158
 10
33.9715
 20
4.9143
 30
0.0000
  0
SEQEND
  8
0
  0
POLYLINE
  8
158
 66
1
 10
0.0000
 20
0.0000
 30
0.0000
 40
0.2286
 41
0.2286
 70
0
  0
VERTEX
  8
158
 10
33.9143
 20
7.6857
 30
0.0000
  0
VERTEX
  8
158
 10
35.1460
 20
7.6857
 30
0.0000
  0
SEQEND
  8
0
  0
POLYLINE
  8
158
 66
1
 10
0.0000
 20
0.0000
 30
0.0000
 40
0.1143
 41
0.1143
 70
0
  0
VERTEX
  8
158
 10
35.1460
 20
7.6286
 30
0.0000
 42
1.0000
  0
VERTEX
  8
158
 10
35.1460
 20
7.7429
 30
0.0000
  0
SEQEND
  8
0
  0
POLYLINE
  8
158
 66
1
 10
0.0000
 20
0.0000
 30
0.0000
 40
0.1143
 41
0.1143
 70
0
  0
VERTEX
  8
158
 10
33.9143
 20
7.7429
 30
0.0000
 42
1.0000
  0
VERTEX
  8
158
 10
33.9143
 20
7.6286
 30
0.0000
  0
SEQEND
  8
0
  0
POLYLINE
  8
158
 66
1
 10
0.0000
 20
0.0000
 30
0.0000
 40
0.2286
 41
0.2286
 70
0
  0
VERTEX
  8
158
 10
33.9143
 20
6.4540
 30
0.0000
  0
VERTEX
  8
158
 10
34.8381
 20
6.4540
 30
0.0000
  0
SEQEND
  8
0
  0
POLYLINE
  8
158
 66
1
 10
0.0000
 20
0.0000
 30
0.0000
 40
0.1143
 41
0.1143
 70
0
  0
VERTEX
  8
158
 10
34.8381
 20
6.3968
 30
0.0000
 42
1.0000
  0
VERTEX
  8
158
 10
34.8381
 20
6.5111
 30
0.0000
  0
SEQEND
  8
0
  0
POLYLINE
  8
158
 66
1
 10
0.0000
 20
0.0000
 30
0.0000
 40
0.1143
 41
0.1143
 70
0
  0
VERTEX
  8
158
 10
33.9143
 20
6.5111
 30
0.0000
 42
1.0000
  0
VERTEX
  8
158
 10
33.9143
 20
6.3968
 30
0.0000
  0
SEQEND
  8
0
  0
POLYLINE
  8
158
 66
1
 10
0.0000
 20
0.0000
 30
0.0000
 40
0.2286
 41
0.2286
 70
0
  0
VERTEX
  8
158
 10
35.9572
 20
4.9143
 30
0.0000
  0
VERTEX
  8
158
 10
35.9572
 20
6.7619
 30
0.0000
  0
SEQEND
  8
0
  0
POLYLINE
  8
158
 66
1
 10
0.0000
 20
0.0000
 30
0.0000
 40
0.1143
 41
0.1143
 70
0
  0
VERTEX
  8
158
 10
36.0144
 20
6.7619
 30
0.0000
 42
1.0000
  0
VERTEX
  8
158
 10
35.9001
 20
6.7619
 30
0.0000
  0
SEQEND
  8
0
  0
POLYLINE
  8
158
 66
1
 10
0.0000
 20
0.0000
 30
0.0000
 40
0.1143
 41
0.1143
 70
0
  0
VERTEX
  8
158
 10
35.9001
 20
4.9143
 30
0.0000
 42
1.0000
  0
VERTEX
  8
158
 10
36.0144
 20
4.9143
 30
0.0000
  0
SEQEND
  8
0
  0
POLYLINE
  8
158
 66
1
 10
0.0000
 20
0.0000
 30
0.0000
 40
0.2286
 41
0.2286
 70
0
  0
VERTEX
  8
158
 10
35.9572
 20
6.7619
 30
0.0000
  0
VERTEX
  8
158
 10
36.7271
 20
6.7619
 30
0.0000
  0
SEQEND
  8
0
  0
POLYLINE
  8
158
 66
1
 10
0.0000
 20
0.0000
 30
0.0000
 40
0.1143
 41
0.1143
 70
0
  0
VERTEX
  8
158
 10
36.7271
 20
6.7048
 30
0.0000
 42
1.0000
  0
VERTEX
  8
158
 10
36.7271
 20
6.8191
 30
0.0000
  0
SEQEND
  8
0
  0
POLYLINE
  8
158
 66
1
 10
0.0000
 20
0.0000
 30
0.0000
 40
0.1143
 41
0.1143
 70
0
  0
VERTEX
  8
158
 10
35.9572
 20
6.8191
 30
0.0000
 42
1.0000
  0
VERTEX
  8
158
 10
35.9572
 20
6.7048
 30
0.0000
  0
SEQEND
  8
0
  0
POLYLINE
  8
158
 66
1
 10
0.0000
 20
0.0000
 30
0.0000
 40
0.2286
 41
0.2286
 70
0
  0
VERTEX
  8
158
 10
37.1890
 20
6.3000
 30
0.0000
 42
0.4142
  0
VERTEX
  8
158
 10
36.7271
 20
6.7619
 30
0.0000
  0
SEQEND
  8
0
  0
POLYLINE
  8
158
 66
1
 10
0.0000
 20
0.0000
 30
0.0000
 40
0.1143
 41
0.1143
 70
0
  0
VERTEX
  8
158
 10
37.1318
 20
6.3000
 30
0.0000
 42
1.0000
  0
VERTEX
  8
158
 10
37.2461
 20
6.3000
 30
0.0000
  0
SEQEND
  8
0
  0
POLYLINE
  8
158
 66
1
 10
0.0000
 20
0.0000
 30
0.0000
 40
0.1143
 41
0.1143
 70
0
  0
VERTEX
  8
158
 10
36.7271
 20
6.8191
 30
0.0000
 42
1.0000
  0
VERTEX
  8
158
 10
36.7271
 20
6.7048
 30
0.0000
  0
SEQEND
  8
0
  0
POLYLINE
  8
158
 66
1
 10
0.0000
 20
0.0000
 30
0.0000
 40
0.2286
 41
0.2286
 70
0
  0
VERTEX
  8
158
 10
37.1890
 20
6.3000
 30
0.0000
  0
VERTEX
  8
158
 10
37.1890
 20
4.9143
 30
0.0000
  0
SEQEND
  8
0
  0
POLYLINE
  8
158
 66
1
 10
0.0000
 20
0.0000
 30
0.0000
 40
0.1143
 41
0.1143
 70
0
  0
VERTEX
  8
158
 10
37.1318
 20
4.9143
 30
0.0000
 42
1.0000
  0
VERTEX
  8
158
 10
37.2461
 20
4.9143
 30
0.0000
  0
SEQEND
  8
0
  0
POLYLINE
  8
158
 66
1
 10
0.0000
 20
0.0000
 30
0.0000
 40
0.1143
 41
0.1143
 70
0
  0
VERTEX
  8
158
 10
37.2461
 20
6.3000
 30
0.0000
 42
1.0000
  0
VERTEX
  8
158
 10
37.1318
 20
6.3000
 30
0.0000
  0
SEQEND
  8
0
  0
POLYLINE
  8
158
 66
1
 10
0.0000
 20
0.0000
 30
0.0000
 40
0.2286
 41
0.2286
 70
0
  0
VERTEX
  8
158
 10
39.3152
 20
4.9143
 30
0.0000
  0
VERTEX
  8
158
 10
38.5454
 20
4.9143
 30
0.0000
  0
SEQEND
  8
0
  0
POLYLINE
  8
158
 66
1
 10
0.0000
 20
0.0000
 30
0.0000
 40
0.1143
 41
0.1143
 70
0
  0
VERTEX
  8
158
 10
38.5454
 20
4.9714
 30
0.0000
 42
1.0000
  0
VERTEX
  8
158
 10
38.5454
 20
4.8571
 30
0.0000
  0
SEQEND
  8
0
  0
POLYLINE
  8
158
 66
1
 10
0.0000
 20
0.0000
 30
0.0000
 40
0.1143
 41
0.1143
 70
0
  0
VERTEX
  8
158
 10
39.3152
 20
4.8571
 30
0.0000
 42
1.0000
  0
VERTEX
  8
158
 10
39.3152
 20
4.9714
 30
0.0000
  0
SEQEND
  8
0
  0
POLYLINE
  8
158
 66
1
 10
0.0000
 20
0.0000
 30
0.0000
 40
0.2286
 41
0.2286
 70
0
  0
VERTEX
  8
158
 10
38.0835
 20
5.3762
 30
0.0000
 42
0.4142
  0
VERTEX
  8
158
 10
38.5454
 20
4.9143
 30
0.0000
  0
SEQEND
  8
0
  0
POLYLINE
  8
158
 66
1
 10
0.0000
 20
0.0000
 30
0.0000
 40
0.1143
 41
0.1143
 70
0
  0
VERTEX
  8
158
 10
38.1406
 20
5.3762
 30
0.0000
 42
1.0000
  0
VERTEX
  8
158
 10
38.0263
 20
5.3762
 30
0.0000
  0
SEQEND
  8
0
  0
POLYLINE
  8
158
 66
1
 10
0.0000
 20
0.0000
 30
0.0000
 40
0.1143
 41
0.1143
 70
0
  0
VERTEX
  8
158
 10
38.5454
 20
4.8571
 30
0.0000
 42
1.0000
  0
VERTEX
  8
158
 10
38.5454
 20
4.9714
 30
0.0000
  0
SEQEND
  8
0
  0
POLYLINE
  8
158
 66
1
 10
0.0000
 20
0.0000
 30
0.0000
 40
0.2286
 41
0.2286
 70
0
  0
VERTEX
  8
158
 10
38.0835
 20
5.3762
 30
0.0000
  0
VERTEX
  8
158
 10
38.0835
 20
6.1460
 30
0.0000
  0
SEQEND
  8
0
  0
POLYLINE
  8
158
 66
1
 10
0.0000
 20
0.0000
 30
0.0000
 40
0.1143
 41
0.1143
 70
0
  0
VERTEX
  8
158
 10
38.1406
 20
6.1460
 30
0.0000
 42
1.0000
  0
VERTEX
  8
158
 10
38.0263
 20
6.1460
 30
0.0000
  0
SEQEND
  8
0
  0
POLYLINE
  8
158
 66
1
 10
0.0000
 20
0.0000
 30
0.0000
 40
0.1143
 41
0.1143
 70
0
  0
VERTEX
  8
158
 10
38.0263
 20
5.3762
 30
0.0000
 42
1.0000
  0
VERTEX
  8
158
 10
38.1406
 20
5.3762
 30
0.0000
  0
SEQEND
  8
0
  0
POLYLINE
  8
158
 66
1
 10
0.0000
 20
0.0000
 30
0.0000
 40
0.2286
 41
0.2286
 70
0
  0
VERTEX
  8
158
 10
39.3152
 20
6.1460
 30
0.0000
 42
1.0000
  0
VERTEX
  8
158
 10
38.0835
 20
6.1460
 30
0.0000
  0
SEQEND
  8
0
  0
POLYLINE
  8
158
 66
1
 10
0.0000
 20
0.0000
 30
0.0000
 40
0.1143
 41
0.1143
 70
0
  0
VERTEX
  8
158
 10
39.2581
 20
6.1460
 30
0.0000
 42
1.0000
  0
VERTEX
  8
158
 10
39.3724
 20
6.1460
 30
0.0000
  0
SEQEND
  8
0
  0
POLYLINE
  8
158
 66
1
 10
0.0000
 20
0.0000
 30
0.0000
 40
0.1143
 41
0.1143
 70
0
  0
VERTEX
  8
158
 10
38.0263
 20
6.1460
 30
0.0000
 42
1.0000
  0
VERTEX
  8
158
 10
38.1406
 20
6.1460
 30
0.0000
  0
SEQEND
  8
0
  0
POLYLINE
  8
158
 66
1
 10
0.0000
 20
0.0000
 30
0.0000
 40
0.2286
 41
0.2286
 70
0
  0
VERTEX
  8
158
 10
39.3152
 20
6.1460
 30
0.0000
  0
VERTEX
  8
158
 10
39.3152
 20
5.8381
 30
0.0000
  0
SEQEND
  8
0
  0
POLYLINE
  8
158
 66
1
 10
0.0000
 20
0.0000
 30
0.0000
 40
0.1143
 41
0.1143
 70
0
  0
VERTEX
  8
158
 10
39.2581
 20
5.8381
 30
0.0000
 42
1.0000
  0
VERTEX
  8
158
 10
39.3724
 20
5.8381
 30
0.0000
  0
SEQEND
  8
0
  0
POLYLINE
  8
158
 66
1
 10
0.0000
 20
0.0000
 30
0.0000
 40
0.1143
 41
0.1143
 70
0
  0
VERTEX
  8
158
 10
39.3724
 20
6.1460
 30
0.0000
 42
1.0000
  0
VERTEX
  8
158
 10
39.2581
 20
6.1460
 30
0.0000
  0
SEQEND
  8
0
  0
POLYLINE
  8
158
 66
1
 10
0.0000
 20
0.0000
 30
0.0000
 40
0.2286
 41
0.2286
 70
0
  0
VERTEX
  8
158
 10
39.3152
 20
5.8381
 30
0.0000
  0
VERTEX
  8
158
 10
38.0835
 20
5.8381
 30
0.0000
  0
SEQEND
  8
0
  0
POLYLINE
  8
158
 66
1
 10
0.0000
 20
0.0000
 30
0.0000
 40
0.1143
 41
0.1143
 70
0
  0
VERTEX
  8
158
 10
38.0835
 20
5.8952
 30
0.0000
 42
1.0000
  0
VERTEX
  8
158
 10
38.0835
 20
5.7809
 30
0.0000
  0
SEQEND
  8
0
  0
POLYLINE
  8
158
 66
1
 10
0.0000
 20
0.0000
 30
0.0000
 40
0.1143
 41
0.1143
 70
0
  0
VERTEX
  8
158
 10
39.3152
 20
5.7809
 30
0.0000
 42
1.0000
  0
VERTEX
  8
158
 10
39.3152
 20
5.8952
 30
0.0000
  0
SEQEND
  8
0
  0
POLYLINE
  8
158
 66
1
 10
0.0000
 20
0.0000
 30
0.0000
 40
0.2286
 41
0.2286
 70
0
  0
VERTEX
  8
158
 10
40.2123
 20
4.9143
 30
0.0000
  0
VERTEX
  8
158
 10
40.2123
 20
6.7619
 30
0.0000
  0
SEQEND
  8
0
  0
POLYLINE
  8
158
 66
1
 10
0.0000
 20
0.0000
 30
0.0000
 40
0.1143
 41
0.1143
 70
0
  0
VERTEX
  8
158
 10
40.2695
 20
6.7619
 30
0.0000
 42
1.0000
  0
VERTEX
  8
158
 10
40.1552
 20
6.7619
 30
0.0000
  0
SEQEND
  8
0
  0
POLYLINE
  8
158
 66
1
 10
0.0000
 20
0.0000
 30
0.0000
 40
0.1143
 41
0.1143
 70
0
  0
VERTEX
  8
158
 10
40.1552
 20
4.9143
 30
0.0000
 42
1.0000
  0
VERTEX
  8
158
 10
40.2695
 20
4.9143
 30
0.0000
  0
SEQEND
  8
0
  0
POLYLINE
  8
158
 66
1
 10
0.0000
 20
0.0000
 30
0.0000
 40
0.2286
 41
0.2286
 70
0
  0
VERTEX
  8
158
 10
40.2123
 20
6.7619
 30
0.0000
  0
VERTEX
  8
158
 10
41.1361
 20
6.7619
 30
0.0000
  0
SEQEND
  8
0
  0
POLYLINE
  8
158
 66
1
 10
0.0000
 20
0.0000
 30
0.0000
 40
0.1143
 41
0.1143
 70
0
  0
VERTEX
  8
158
 10
41.1361
 20
6.7048
 30
0.0000
 42
1.0000
  0
VERTEX
  8
158
 10
41.1361
 20
6.8191
 30
0.0000
  0
SEQEND
  8
0
  0
POLYLINE
  8
158
 66
1
 10
0.0000
 20
0.0000
 30
0.0000
 40
0.1143
 41
0.1143
 70
0
  0
VERTEX
  8
158
 10
40.2123
 20
6.8191
 30
0.0000
 42
1.0000
  0
VERTEX
  8
158
 10
40.2123
 20
6.7048
 30
0.0000
  0
SEQEND
  8
0
  0
POLYLINE
  8
158
 66
1
 10
0.0000
 20
0.0000
 30
0.0000
 40
0.2286
 41
0.2286
 70
0
  0
VERTEX
  8
158
 10
41.1361
 20
6.7619
 30
0.0000
  0
VERTEX
  8
158
 10
41.1361
 20
6.4540
 30
0.0000
  0
SEQEND
  8
0
  0
POLYLINE
  8
158
 66
1
 10
0.0000
 20
0.0000
 30
0.0000
 40
0.1143
 41
0.1143
 70
0
  0
VERTEX
  8
158
 10
41.0790
 20
6.4540
 30
0.0000
 42
1.0000
  0
VERTEX
  8
158
 10
41.1933
 20
6.4540
 30
0.0000
  0
SEQEND
  8
0
  0
POLYLINE
  8
158
 66
1
 10
0.0000
 20
0.0000
 30
0.0000
 40
0.1143
 41
0.1143
 70
0
  0
VERTEX
  8
158
 10
41.1933
 20
6.7619
 30
0.0000
 42
1.0000
  0
VERTEX
  8
158
 10
41.0790
 20
6.7619
 30
0.0000
  0
SEQEND
  8
0
  0
POLYLINE
  8
158
 66
1
 10
0.0000
 20
0.0000
 30
0.0000
 40
0.2286
 41
0.2286
 70
0
  0
VERTEX
  8
158
 10
43.0145
 20
4.9143
 30
0.0000
  0
VERTEX
  8
158
 10
42.2446
 20
4.9143
 30
0.0000
  0
SEQEND
  8
0
  0
POLYLINE
  8
158
 66
1
 10
0.0000
 20
0.0000
 30
0.0000
 40
0.1143
 41
0.1143
 70
0
  0
VERTEX
  8
158
 10
42.2446
 20
4.9714
 30
0.0000
 42
1.0000
  0
VERTEX
  8
158
 10
42.2446
 20
4.8571
 30
0.0000
  0
SEQEND
  8
0
  0
POLYLINE
  8
158
 66
1
 10
0.0000
 20
0.0000
 30
0.0000
 40
0.1143
 41
0.1143
 70
0
  0
VERTEX
  8
158
 10
43.0145
 20
4.8571
 30
0.0000
 42
1.0000
  0
VERTEX
  8
158
 10
43.0145
 20
4.9714
 30
0.0000
  0
SEQEND
  8
0
  0
POLYLINE
  8
158
 66
1
 10
0.0000
 20
0.0000
 30
0.0000
 40
0.2286
 41
0.2286
 70
0
  0
VERTEX
  8
158
 10
41.7827
 20
5.3762
 30
0.0000
 42
0.4142
  0
VERTEX
  8
158
 10
42.2446
 20
4.9143
 30
0.0000
  0
SEQEND
  8
0
  0
POLYLINE
  8
158
 66
1
 10
0.0000
 20
0.0000
 30
0.0000
 40
0.1143
 41
0.1143
 70
0
  0
VERTEX
  8
158
 10
41.8399
 20
5.3762
 30
0.0000
 42
1.0000
  0
VERTEX
  8
158
 10
41.7256
 20
5.3762
 30
0.0000
  0
SEQEND
  8
0
  0
POLYLINE
  8
158
 66
1
 10
0.0000
 20
0.0000
 30
0.0000
 40
0.1143
 41
0.1143
 70
0
  0
VERTEX
  8
158
 10
42.2446
 20
4.8571
 30
0.0000
 42
1.0000
  0
VERTEX
  8
158
 10
42.2446
 20
4.9714
 30
0.0000
  0
SEQEND
  8
0
  0
POLYLINE
  8
158
 66
1
 10
0.0000
 20
0.0000
 30
0.0000
 40
0.2286
 41
0.2286
 70
0
  0
VERTEX
  8
158
 10
41.7827
 20
5.3762
 30
0.0000
  0
VERTEX
  8
158
 10
41.7827
 20
6.3000
 30
0.0000
  0
SEQEND
  8
0
  0
POLYLINE
  8
158
 66
1
 10
0.0000
 20
0.0000
 30
0.0000
 40
0.1143
 41
0.1143
 70
0
  0
VERTEX
  8
158
 10
41.8399
 20
6.3000
 30
0.0000
 42
1.0000
  0
VERTEX
  8
158
 10
41.7256
 20
6.3000
 30
0.0000
  0
SEQEND
  8
0
  0
POLYLINE
  8
158
 66
1
 10
0.0000
 20
0.0000
 30
0.0000
 40
0.1143
 41
0.1143
 70
0
  0
VERTEX
  8
158
 10
41.7256
 20
5.3762
 30
0.0000
 42
1.0000
  0
VERTEX
  8
158
 10
41.8399
 20
5.3762
 30
0.0000
  0
SEQEND
  8
0
  0
POLYLINE
  8
158
 66
1
 10
0.0000
 20
0.0000
 30
0.0000
 40
0.2286
 41
0.2286
 70
0
  0
VERTEX
  8
158
 10
42.2446
 20
6.7619
 30
0.0000
 42
0.4142
  0
VERTEX
  8
158
 10
41.7827
 20
6.3000
 30
0.0000
  0
SEQEND
  8
0
  0
POLYLINE
  8
158
 66
1
 10
0.0000
 20
0.0000
 30
0.0000
 40
0.1143
 41
0.1143
 70
0
  0
VERTEX
  8
158
 10
42.2446
 20
6.7048
 30
0.0000
 42
1.0000
  0
VERTEX
  8
158
 10
42.2446
 20
6.8191
 30
0.0000
  0
SEQEND
  8
0
  0
POLYLINE
  8
158
 66
1
 10
0.0000
 20
0.0000
 30
0.0000
 40
0.1143
 41
0.1143
 70
0
  0
VERTEX
  8
158
 10
41.7256
 20
6.3000
 30
0.0000
 42
1.0000
  0
VERTEX
  8
158
 10
41.8399
 20
6.3000
 30
0.0000
  0
SEQEND
  8
0
  0
POLYLINE
  8
158
 66
1
 10
0.0000
 20
0.0000
 30
0.0000
 40
0.2286
 41
0.2286
 70
0
  0
VERTEX
  8
158
 10
42.2446
 20
6.7619
 30
0.0000
  0
VERTEX
  8
158
 10
43.0145
 20
6.7619
 30
0.0000
  0
SEQEND
  8
0
  0
POLYLINE
  8
158
 66
1
 10
0.0000
 20
0.0000
 30
0.0000
 40
0.1143
 41
0.1143
 70
0
  0
VERTEX
  8
158
 10
43.0145
 20
6.7048
 30
0.0000
 42
1.0000
  0
VERTEX
  8
158
 10
43.0145
 20
6.8191
 30
0.0000
  0
SEQEND
  8
0
  0
POLYLINE
  8
158
 66
1
 10
0.0000
 20
0.0000
 30
0.0000
 40
0.1143
 41
0.1143
 70
0
  0
VERTEX
  8
158
 10
42.2446
 20
6.8191
 30
0.0000
 42
1.0000
  0
VERTEX
  8
158
 10
42.2446
 20
6.7048
 30
0.0000
  0
SEQEND
  8
0
  0
POLYLINE
  8
158
 66
1
 10
0.0000
 20
0.0000
 30
0.0000
 40
0.2286
 41
0.2286
 70
0
  0
VERTEX
  8
158
 10
43.0145
 20
6.7619
 30
0.0000
  0
VERTEX
  8
158
 10
43.0145
 20
4.4524
 30
0.0000
  0
SEQEND
  8
0
  0
POLYLINE
  8
158
 66
1
 10
0.0000
 20
0.0000
 30
0.0000
 40
0.1143
 41
0.1143
 70
0
  0
VERTEX
  8
158
 10
42.9573
 20
4.4524
 30
0.0000
 42
1.0000
  0
VERTEX
  8
158
 10
43.0716
 20
4.4524
 30
0.0000
  0
SEQEND
  8
0
  0
POLYLINE
  8
158
 66
1
 10
0.0000
 20
0.0000
 30
0.0000
 40
0.1143
 41
0.1143
 70
0
  0
VERTEX
  8
158
 10
43.0716
 20
6.7619
 30
0.0000
 42
1.0000
  0
VERTEX
  8
158
 10
42.9573
 20
6.7619
 30
0.0000
  0
SEQEND
  8
0
  0
POLYLINE
  8
158
 66
1
 10
0.0000
 20
0.0000
 30
0.0000
 40
0.2286
 41
0.2286
 70
0
  0
VERTEX
  8
158
 10
42.5526
 20
3.9905
 30
0.0000
 42
0.4142
  0
VERTEX
  8
158
 10
43.0145
 20
4.4524
 30
0.0000
  0
SEQEND
  8
0
  0
POLYLINE
  8
158
 66
1
 10
0.0000
 20
0.0000
 30
0.0000
 40
0.1143
 41
0.1143
 70
0
  0
VERTEX
  8
158
 10
42.5526
 20
4.0476
 30
0.0000
 42
1.0000
  0
VERTEX
  8
158
 10
42.5526
 20
3.9334
 30
0.0000
  0
SEQEND
  8
0
  0
POLYLINE
  8
158
 66
1
 10
0.0000
 20
0.0000
 30
0.0000
 40
0.1143
 41
0.1143
 70
0
  0
VERTEX
  8
158
 10
43.0716
 20
4.4524
 30
0.0000
 42
1.0000
  0
VERTEX
  8
158
 10
42.9573
 20
4.4524
 30
0.0000
  0
SEQEND
  8
0
  0
POLYLINE
  8
158
 66
1
 10
0.0000
 20
0.0000
 30
0.0000
 40
0.2286
 41
0.2286
 70
0
  0
VERTEX
  8
158
 10
42.5526
 20
3.9905
 30
0.0000
  0
VERTEX
  8
158
 10
41.9367
 20
3.9905
 30
0.0000
  0
SEQEND
  8
0
  0
POLYLINE
  8
158
 66
1
 10
0.0000
 20
0.0000
 30
0.0000
 40
0.1143
 41
0.1143
 70
0
  0
VERTEX
  8
158
 10
41.9367
 20
4.0476
 30
0.0000
 42
1.0000
  0
VERTEX
  8
158
 10
41.9367
 20
3.9334
 30
0.0000
  0
SEQEND
  8
0
  0
POLYLINE
  8
158
 66
1
 10
0.0000
 20
0.0000
 30
0.0000
 40
0.1143
 41
0.1143
 70
0
  0
VERTEX
  8
158
 10
42.5526
 20
3.9334
 30
0.0000
 42
1.0000
  0
VERTEX
  8
158
 10
42.5526
 20
4.0476
 30
0.0000
  0
SEQEND
  8
0
  0
POLYLINE
  8
158
 66
1
 10
0.0000
 20
0.0000
 30
0.0000
 40
0.2286
 41
0.2286
 70
0
  0
VERTEX
  8
158
 10
43.8322
 20
3.9905
 30
0.0000
  0
VERTEX
  8
158
 10
44.1401
 20
3.9905
 30
0.0000
  0
SEQEND
  8
0
  0
POLYLINE
  8
158
 66
1
 10
0.0000
 20
0.0000
 30
0.0000
 40
0.1143
 41
0.1143
 70
0
  0
VERTEX
  8
158
 10
44.1401
 20
3.9334
 30
0.0000
 42
1.0000
  0
VERTEX
  8
158
 10
44.1401
 20
4.0476
 30
0.0000
  0
SEQEND
  8
0
  0
POLYLINE
  8
158
 66
1
 10
0.0000
 20
0.0000
 30
0.0000
 40
0.1143
 41
0.1143
 70
0
  0
VERTEX
  8
158
 10
43.8322
 20
4.0476
 30
0.0000
 42
1.0000
  0
VERTEX
  8
158
 10
43.8322
 20
3.9334
 30
0.0000
  0
SEQEND
  8
0
  0
POLYLINE
  8
158
 66
1
 10
0.0000
 20
0.0000
 30
0.0000
 40
0.2286
 41
0.2286
 70
0
  0
VERTEX
  8
158
 10
44.1401
 20
3.9905
 30
0.0000
  0
VERTEX
  8
158
 10
45.0639
 20
6.7619
 30
0.0000
  0
SEQEND
  8
0
  0
POLYLINE
  8
158
 66
1
 10
0.0000
 20
0.0000
 30
0.0000
 40
0.1143
 41
0.1143
 70
0
  0
VERTEX
  8
158
 10
45.1182
 20
6.7438
 30
0.0000
 42
1.0000
  0
VERTEX
  8
158
 10
45.0097
 20
6.7800
 30
0.0000
  0
SEQEND
  8
0
  0
POLYLINE
  8
158
 66
1
 10
0.0000
 20
0.0000
 30
0.0000
 40
0.1143
 41
0.1143
 70
0
  0
VERTEX
  8
158
 10
44.0859
 20
4.0086
 30
0.0000
 42
1.0000
  0
VERTEX
  8
158
 10
44.1944
 20
3.9724
 30
0.0000
  0
SEQEND
  8
0
  0
POLYLINE
  8
158
 66
1
 10
0.0000
 20
0.0000
 30
0.0000
 40
0.2286
 41
0.2286
 70
0
  0
VERTEX
  8
158
 10
43.8322
 20
6.7619
 30
0.0000
  0
VERTEX
  8
158
 10
44.4481
 20
4.9143
 30
0.0000
  0
SEQEND
  8
0
  0
POLYLINE
  8
158
 66
1
 10
0.0000
 20
0.0000
 30
0.0000
 40
0.1143
 41
0.1143
 70
0
  0
VERTEX
  8
158
 10
44.3939
 20
4.8962
 30
0.0000
 42
1.0000
  0
VERTEX
  8
158
 10
44.5023
 20
4.9324
 30
0.0000
  0
SEQEND
  8
0
  0
POLYLINE
  8
158
 66
1
 10
0.0000
 20
0.0000
 30
0.0000
 40
0.1143
 41
0.1143
 70
0
  0
VERTEX
  8
158
 10
43.8864
 20
6.7800
 30
0.0000
 42
1.0000
  0
VERTEX
  8
158
 10
43.7780
 20
6.7438
 30
0.0000
  0
SEQEND
  8
0
  0
POLYLINE
  8
158
 66
1
 10
0.0000
 20
0.0000
 30
0.0000
 40
0.2286
 41
0.2286
 70
0
  0
VERTEX
  8
158
 10
45.8868
 20
4.9143
 30
0.0000
  0
VERTEX
  8
158
 10
45.8868
 20
7.6857
 30
0.0000
  0
SEQEND
  8
0
  0
POLYLINE
  8
158
 66
1
 10
0.0000
 20
0.0000
 30
0.0000
 40
0.1143
 41
0.1143
 70
0
  0
VERTEX
  8
158
 10
45.9439
 20
7.6857
 30
0.0000
 42
1.0000
  0
VERTEX
  8
158
 10
45.8296
 20
7.6857
 30
0.0000
  0
SEQEND
  8
0
  0
POLYLINE
  8
158
 66
1
 10
0.0000
 20
0.0000
 30
0.0000
 40
0.1143
 41
0.1143
 70
0
  0
VERTEX
  8
158
 10
45.8296
 20
4.9143
 30
0.0000
 42
1.0000
  0
VERTEX
  8
158
 10
45.9439
 20
4.9143
 30
0.0000
  0
SEQEND
  8
0
  0
POLYLINE
  8
158
 66
1
 10
0.0000
 20
0.0000
 30
0.0000
 40
0.2286
 41
0.2286
 70
0
  0
VERTEX
  8
158
 10
45.8868
 20
7.6857
 30
0.0000
  0
VERTEX
  8
158
 10
46.8106
 20
6.1460
 30
0.0000
  0
SEQEND
  8
0
  0
POLYLINE
  8
158
 66
1
 10
0.0000
 20
0.0000
 30
0.0000
 40
0.1143
 41
0.1143
 70
0
  0
VERTEX
  8
158
 10
46.7616
 20
6.1166
 30
0.0000
 42
1.0000
  0
VERTEX
  8
158
 10
46.8596
 20
6.1754
 30
0.0000
  0
SEQEND
  8
0
  0
POLYLINE
  8
158
 66
1
 10
0.0000
 20
0.0000
 30
0.0000
 40
0.1143
 41
0.1143
 70
0
  0
VERTEX
  8
158
 10
45.9358
 20
7.7151
 30
0.0000
 42
1.0000
  0
VERTEX
  8
158
 10
45.8378
 20
7.6563
 30
0.0000
  0
SEQEND
  8
0
  0
POLYLINE
  8
158
 66
1
 10
0.0000
 20
0.0000
 30
0.0000
 40
0.2286
 41
0.2286
 70
0
  0
VERTEX
  8
158
 10
46.8106
 20
6.1460
 30
0.0000
  0
VERTEX
  8
158
 10
47.7344
 20
7.6857
 30
0.0000
  0
SEQEND
  8
0
  0
POLYLINE
  8
158
 66
1
 10
0.0000
 20
0.0000
 30
0.0000
 40
0.1143
 41
0.1143
 70
0
  0
VERTEX
  8
158
 10
47.7834
 20
7.6563
 30
0.0000
 42
1.0000
  0
VERTEX
  8
158
 10
47.6854
 20
7.7151
 30
0.0000
  0
SEQEND
  8
0
  0
POLYLINE
  8
158
 66
1
 10
0.0000
 20
0.0000
 30
0.0000
 40
0.1143
 41
0.1143
 70
0
  0
VERTEX
  8
158
 10
46.7616
 20
6.1754
 30
0.0000
 42
1.0000
  0
VERTEX
  8
158
 10
46.8596
 20
6.1166
 30
0.0000
  0
SEQEND
  8
0
  0
POLYLINE
  8
158
 66
1
 10
0.0000
 20
0.0000
 30
0.0000
 40
0.2286
 41
0.2286
 70
0
  0
VERTEX
  8
158
 10
47.7344
 20
7.6857
 30
0.0000
  0
VERTEX
  8
158
 10
47.7344
 20
4.9143
 30
0.0000
  0
SEQEND
  8
0
  0
POLYLINE
  8
158
 66
1
 10
0.0000
 20
0.0000
 30
0.0000
 40
0.1143
 41
0.1143
 70
0
  0
VERTEX
  8
158
 10
47.6772
 20
4.9143
 30
0.0000
 42
1.0000
  0
VERTEX
  8
158
 10
47.7915
 20
4.9143
 30
0.0000
  0
SEQEND
  8
0
  0
POLYLINE
  8
158
 66
1
 10
0.0000
 20
0.0000
 30
0.0000
 40
0.1143
 41
0.1143
 70
0
  0
VERTEX
  8
158
 10
47.7915
 20
7.6857
 30
0.0000
 42
1.0000
  0
VERTEX
  8
158
 10
47.6772
 20
7.6857
 30
0.0000
  0
SEQEND
  8
0
  0
POLYLINE
  8
158
 66
1
 10
0.0000
 20
0.0000
 30
0.0000
 40
0.2286
 41
0.2286
 70
0
  0
VERTEX
  8
158
 10
48.6359
 20
5.5302
 30
0.0000
  0
VERTEX
  8
158
 10
48.6359
 20
6.1460
 30
0.0000
  0
SEQEND
  8
0
  0
POLYLINE
  8
158
 66
1
 10
0.0000
 20
0.0000
 30
0.0000
 40
0.1143
 41
0.1143
 70
0
  0
VERTEX
  8
158
 10
48.6931
 20
6.1460
 30
0.0000
 42
1.0000
  0
VERTEX
  8
158
 10
48.5788
 20
6.1460
 30
0.0000
  0
SEQEND
  8
0
  0
POLYLINE
  8
158
 66
1
 10
0.0000
 20
0.0000
 30
0.0000
 40
0.1143
 41
0.1143
 70
0
  0
VERTEX
  8
158
 10
48.5788
 20
5.5302
 30
0.0000
 42
1.0000
  0
VERTEX
  8
158
 10
48.6931
 20
5.5302
 30
0.0000
  0
SEQEND
  8
0
  0
POLYLINE
  8
158
 66
1
 10
0.0000
 20
0.0000
 30
0.0000
 40
0.2286
 41
0.2286
 70
0
  0
VERTEX
  8
158
 10
49.8677
 20
6.1460
 30
0.0000
 42
1.0000
  0
VERTEX
  8
158
 10
48.6359
 20
6.1460
 30
0.0000
  0
SEQEND
  8
0
  0
POLYLINE
  8
158
 66
1
 10
0.0000
 20
0.0000
 30
0.0000
 40
0.1143
 41
0.1143
 70
0
  0
VERTEX
  8
158
 10
49.8105
 20
6.1460
 30
0.0000
 42
1.0000
  0
VERTEX
  8
158
 10
49.9248
 20
6.1460
 30
0.0000
  0
SEQEND
  8
0
  0
POLYLINE
  8
158
 66
1
 10
0.0000
 20
0.0000
 30
0.0000
 40
0.1143
 41
0.1143
 70
0
  0
VERTEX
  8
158
 10
48.5788
 20
6.1460
 30
0.0000
 42
1.0000
  0
VERTEX
  8
158
 10
48.6931
 20
6.1460
 30
0.0000
  0
SEQEND
  8
0
  0
POLYLINE
  8
158
 66
1
 10
0.0000
 20
0.0000
 30
0.0000
 40
0.2286
 41
0.2286
 70
0
  0
VERTEX
  8
158
 10
49.8677
 20
6.1460
 30
0.0000
  0
VERTEX
  8
158
 10
49.8677
 20
5.5302
 30
0.0000
  0
SEQEND
  8
0
  0
POLYLINE
  8
158
 66
1
 10
0.0000
 20
0.0000
 30
0.0000
 40
0.1143
 41
0.1143
 70
0
  0
VERTEX
  8
158
 10
49.8105
 20
5.5302
 30
0.0000
 42
1.0000
  0
VERTEX
  8
158
 10
49.9248
 20
5.5302
 30
0.0000
  0
SEQEND
  8
0
  0
POLYLINE
  8
158
 66
1
 10
0.0000
 20
0.0000
 30
0.0000
 40
0.1143
 41
0.1143
 70
0
  0
VERTEX
  8
158
 10
49.9248
 20
6.1460
 30
0.0000
 42
1.0000
  0
VERTEX
  8
158
 10
49.8105
 20
6.1460
 30
0.0000
  0
SEQEND
  8
0
  0
POLYLINE
  8
158
 66
1
 10
0.0000
 20
0.0000
 30
0.0000
 40
0.2286
 41
0.2286
 70
0
  0
VERTEX
  8
158
 10
48.6359
 20
5.5302
 30
0.0000
 42
1.0000
  0
VERTEX
  8
158
 10
49.8677
 20
5.5302
 30
0.0000
  0
SEQEND
  8
0
  0
POLYLINE
  8
158
 66
1
 10
0.0000
 20
0.0000
 30
0.0000
 40
0.1143
 41
0.1143
 70
0
  0
VERTEX
  8
158
 10
48.6931
 20
5.5302
 30
0.0000
 42
1.0000
  0
VERTEX
  8
158
 10
48.5788
 20
5.5302
 30
0.0000
  0
SEQEND
  8
0
  0
POLYLINE
  8
158
 66
1
 10
0.0000
 20
0.0000
 30
0.0000
 40
0.1143
 41
0.1143
 70
0
  0
VERTEX
  8
158
 10
49.9248
 20
5.5302
 30
0.0000
 42
1.0000
  0
VERTEX
  8
158
 10
49.8105
 20
5.5302
 30
0.0000
  0
SEQEND
  8
0
  0
POLYLINE
  8
158
 66
1
 10
0.0000
 20
0.0000
 30
0.0000
 40
0.2286
 41
0.2286
 70
0
  0
VERTEX
  8
158
 10
50.7622
 20
4.9143
 30
0.0000
  0
VERTEX
  8
158
 10
50.7622
 20
6.7619
 30
0.0000
  0
SEQEND
  8
0
  0
POLYLINE
  8
158
 66
1
 10
0.0000
 20
0.0000
 30
0.0000
 40
0.1143
 41
0.1143
 70
0
  0
VERTEX
  8
158
 10
50.8193
 20
6.7619
 30
0.0000
 42
1.0000
  0
VERTEX
  8
158
 10
50.7050
 20
6.7619
 30
0.0000
  0
SEQEND
  8
0
  0
POLYLINE
  8
158
 66
1
 10
0.0000
 20
0.0000
 30
0.0000
 40
0.1143
 41
0.1143
 70
0
  0
VERTEX
  8
158
 10
50.7050
 20
4.9143
 30
0.0000
 42
1.0000
  0
VERTEX
  8
158
 10
50.8193
 20
4.9143
 30
0.0000
  0
SEQEND
  8
0
  0
POLYLINE
  8
158
 66
1
 10
0.0000
 20
0.0000
 30
0.0000
 40
0.2286
 41
0.2286
 70
0
  0
VERTEX
  8
158
 10
50.7622
 20
6.7619
 30
0.0000
  0
VERTEX
  8
158
 10
51.5320
 20
6.7619
 30
0.0000
  0
SEQEND
  8
0
  0
POLYLINE
  8
158
 66
1
 10
0.0000
 20
0.0000
 30
0.0000
 40
0.1143
 41
0.1143
 70
0
  0
VERTEX
  8
158
 10
51.5320
 20
6.7048
 30
0.0000
 42
1.0000
  0
VERTEX
  8
158
 10
51.5320
 20
6.8191
 30
0.0000
  0
SEQEND
  8
0
  0
POLYLINE
  8
158
 66
1
 10
0.0000
 20
0.0000
 30
0.0000
 40
0.1143
 41
0.1143
 70
0
  0
VERTEX
  8
158
 10
50.7622
 20
6.8191
 30
0.0000
 42
1.0000
  0
VERTEX
  8
158
 10
50.7622
 20
6.7048
 30
0.0000
  0
SEQEND
  8
0
  0
POLYLINE
  8
158
 66
1
 10
0.0000
 20
0.0000
 30
0.0000
 40
0.2286
 41
0.2286
 70
0
  0
VERTEX
  8
158
 10
51.9939
 20
6.3000
 30
0.0000
 42
0.4142
  0
VERTEX
  8
158
 10
51.5320
 20
6.7619
 30
0.0000
  0
SEQEND
  8
0
  0
POLYLINE
  8
158
 66
1
 10
0.0000
 20
0.0000
 30
0.0000
 40
0.1143
 41
0.1143
 70
0
  0
VERTEX
  8
158
 10
51.9368
 20
6.3000
 30
0.0000
 42
1.0000
  0
VERTEX
  8
158
 10
52.0511
 20
6.3000
 30
0.0000
  0
SEQEND
  8
0
  0
POLYLINE
  8
158
 66
1
 10
0.0000
 20
0.0000
 30
0.0000
 40
0.1143
 41
0.1143
 70
0
  0
VERTEX
  8
158
 10
51.5320
 20
6.8191
 30
0.0000
 42
1.0000
  0
VERTEX
  8
158
 10
51.5320
 20
6.7048
 30
0.0000
  0
SEQEND
  8
0
  0
POLYLINE
  8
158
 66
1
 10
0.0000
 20
0.0000
 30
0.0000
 40
0.2286
 41
0.2286
 70
0
  0
VERTEX
  8
158
 10
51.9939
 20
6.3000
 30
0.0000
  0
VERTEX
  8
158
 10
51.9939
 20
4.9143
 30
0.0000
  0
SEQEND
  8
0
  0
POLYLINE
  8
158
 66
1
 10
0.0000
 20
0.0000
 30
0.0000
 40
0.1143
 41
0.1143
 70
0
  0
VERTEX
  8
158
 10
51.9368
 20
4.9143
 30
0.0000
 42
1.0000
  0
VERTEX
  8
158
 10
52.0511
 20
4.9143
 30
0.0000
  0
SEQEND
  8
0
  0
POLYLINE
  8
158
 66
1
 10
0.0000
 20
0.0000
 30
0.0000
 40
0.1143
 41
0.1143
 70
0
  0
VERTEX
  8
158
 10
52.0511
 20
6.3000
 30
0.0000
 42
1.0000
  0
VERTEX
  8
158
 10
51.9368
 20
6.3000
 30
0.0000
  0
SEQEND
  8
0
  0
POLYLINE
  8
158
 66
1
 10
0.0000
 20
0.0000
 30
0.0000
 40
0.2286
 41
0.2286
 70
0
  0
VERTEX
  8
158
 10
52.9530
 20
4.9143
 30
0.0000
  0
VERTEX
  8
158
 10
52.9530
 20
6.7619
 30
0.0000
  0
SEQEND
  8
0
  0
POLYLINE
  8
158
 66
1
 10
0.0000
 20
0.0000
 30
0.0000
 40
0.1143
 41
0.1143
 70
0
  0
VERTEX
  8
158
 10
53.0102
 20
6.7619
 30
0.0000
 42
1.0000
  0
VERTEX
  8
158
 10
52.8959
 20
6.7619
 30
0.0000
  0
SEQEND
  8
0
  0
POLYLINE
  8
158
 66
1
 10
0.0000
 20
0.0000
 30
0.0000
 40
0.1143
 41
0.1143
 70
0
  0
VERTEX
  8
158
 10
52.8959
 20
4.9143
 30
0.0000
 42
1.0000
  0
VERTEX
  8
158
 10
53.0102
 20
4.9143
 30
0.0000
  0
SEQEND
  8
0
  0
POLYLINE
  8
158
 66
1
 10
0.0000
 20
0.0000
 30
0.0000
 40
0.2286
 41
0.2286
 70
0
  0
VERTEX
  8
158
 10
52.8761
 20
7.5317
 30
0.0000
  0
VERTEX
  8
158
 10
52.8761
 20
7.6857
 30
0.0000
  0
SEQEND
  8
0
  0
POLYLINE
  8
158
 66
1
 10
0.0000
 20
0.0000
 30
0.0000
 40
0.1143
 41
0.1143
 70
0
  0
VERTEX
  8
158
 10
52.9332
 20
7.6857
 30
0.0000
 42
1.0000
  0
VERTEX
  8
158
 10
52.8189
 20
7.6857
 30
0.0000
  0
SEQEND
  8
0
  0
POLYLINE
  8
158
 66
1
 10
0.0000
 20
0.0000
 30
0.0000
 40
0.1143
 41
0.1143
 70
0
  0
VERTEX
  8
158
 10
52.8189
 20
7.5317
 30
0.0000
 42
1.0000
  0
VERTEX
  8
158
 10
52.9332
 20
7.5317
 30
0.0000
  0
SEQEND
  8
0
  0
POLYLINE
  8
158
 66
1
 10
0.0000
 20
0.0000
 30
0.0000
 40
0.2286
 41
0.2286
 70
0
  0
VERTEX
  8
158
 10
52.8761
 20
7.6857
 30
0.0000
  0
VERTEX
  8
158
 10
53.0300
 20
7.6857
 30
0.0000
  0
SEQEND
  8
0
  0
POLYLINE
  8
158
 66
1
 10
0.0000
 20
0.0000
 30
0.0000
 40
0.1143
 41
0.1143
 70
0
  0
VERTEX
  8
158
 10
53.0300
 20
7.6286
 30
0.0000
 42
1.0000
  0
VERTEX
  8
158
 10
53.0300
 20
7.7429
 30
0.0000
  0
SEQEND
  8
0
  0
POLYLINE
  8
158
 66
1
 10
0.0000
 20
0.0000
 30
0.0000
 40
0.1143
 41
0.1143
 70
0
  0
VERTEX
  8
158
 10
52.8761
 20
7.7429
 30
0.0000
 42
1.0000
  0
VERTEX
  8
158
 10
52.8761
 20
7.6286
 30
0.0000
  0
SEQEND
  8
0
  0
POLYLINE
  8
158
 66
1
 10
0.0000
 20
0.0000
 30
0.0000
 40
0.2286
 41
0.2286
 70
0
  0
VERTEX
  8
158
 10
53.0300
 20
7.6857
 30
0.0000
  0
VERTEX
  8
158
 10
53.0300
 20
7.5317
 30
0.0000
  0
SEQEND
  8
0
  0
POLYLINE
  8
158
 66
1
 10
0.0000
 20
0.0000
 30
0.0000
 40
0.1143
 41
0.1143
 70
0
  0
VERTEX
  8
158
 10
52.9729
 20
7.5317
 30
0.0000
 42
1.0000
  0
VERTEX
  8
158
 10
53.0872
 20
7.5317
 30
0.0000
  0
SEQEND
  8
0
  0
POLYLINE
  8
158
 66
1
 10
0.0000
 20
0.0000
 30
0.0000
 40
0.1143
 41
0.1143
 70
0
  0
VERTEX
  8
158
 10
53.0872
 20
7.6857
 30
0.0000
 42
1.0000
  0
VERTEX
  8
158
 10
52.9729
 20
7.6857
 30
0.0000
  0
SEQEND
  8
0
  0
POLYLINE
  8
158
 66
1
 10
0.0000
 20
0.0000
 30
0.0000
 40
0.2286
 41
0.2286
 70
0
  0
VERTEX
  8
158
 10
53.0300
 20
7.5317
 30
0.0000
  0
VERTEX
  8
158
 10
52.8761
 20
7.5317
 30
0.0000
  0
SEQEND
  8
0
  0
POLYLINE
  8
158
 66
1
 10
0.0000
 20
0.0000
 30
0.0000
 40
0.1143
 41
0.1143
 70
0
  0
VERTEX
  8
158
 10
52.8761
 20
7.5889
 30
0.0000
 42
1.0000
  0
VERTEX
  8
158
 10
52.8761
 20
7.4746
 30
0.0000
  0
SEQEND
  8
0
  0
POLYLINE
  8
158
 66
1
 10
0.0000
 20
0.0000
 30
0.0000
 40
0.1143
 41
0.1143
 70
0
  0
VERTEX
  8
158
 10
53.0300
 20
7.4746
 30
0.0000
 42
1.0000
  0
VERTEX
  8
158
 10
53.0300
 20
7.5889
 30
0.0000
  0
SEQEND
  8
0
  0
POLYLINE
  8
158
 66
1
 10
0.0000
 20
0.0000
 30
0.0000
 40
0.2286
 41
0.2286
 70
0
  0
VERTEX
  8
158
 10
53.6691
 20
6.7619
 30
0.0000
  0
VERTEX
  8
158
 10
54.5929
 20
6.7619
 30
0.0000
  0
SEQEND
  8
0
  0
POLYLINE
  8
158
 66
1
 10
0.0000
 20
0.0000
 30
0.0000
 40
0.1143
 41
0.1143
 70
0
  0
VERTEX
  8
158
 10
54.5929
 20
6.7048
 30
0.0000
 42
1.0000
  0
VERTEX
  8
158
 10
54.5929
 20
6.8191
 30
0.0000
  0
SEQEND
  8
0
  0
POLYLINE
  8
158
 66
1
 10
0.0000
 20
0.0000
 30
0.0000
 40
0.1143
 41
0.1143
 70
0
  0
VERTEX
  8
158
 10
53.6691
 20
6.8191
 30
0.0000
 42
1.0000
  0
VERTEX
  8
158
 10
53.6691
 20
6.7048
 30
0.0000
  0
SEQEND
  8
0
  0
POLYLINE
  8
158
 66
1
 10
0.0000
 20
0.0000
 30
0.0000
 40
0.2286
 41
0.2286
 70
0
  0
VERTEX
  8
158
 10
53.9770
 20
7.6857
 30
0.0000
  0
VERTEX
  8
158
 10
53.9770
 20
5.3762
 30
0.0000
  0
SEQEND
  8
0
  0
POLYLINE
  8
158
 66
1
 10
0.0000
 20
0.0000
 30
0.0000
 40
0.1143
 41
0.1143
 70
0
  0
VERTEX
  8
158
 10
53.9198
 20
5.3762
 30
0.0000
 42
1.0000
  0
VERTEX
  8
158
 10
54.0341
 20
5.3762
 30
0.0000
  0
SEQEND
  8
0
  0
POLYLINE
  8
158
 66
1
 10
0.0000
 20
0.0000
 30
0.0000
 40
0.1143
 41
0.1143
 70
0
  0
VERTEX
  8
158
 10
54.0341
 20
7.6857
 30
0.0000
 42
1.0000
  0
VERTEX
  8
158
 10
53.9198
 20
7.6857
 30
0.0000
  0
SEQEND
  8
0
  0
POLYLINE
  8
158
 66
1
 10
0.0000
 20
0.0000
 30
0.0000
 40
0.2286
 41
0.2286
 70
0
  0
VERTEX
  8
158
 10
53.9770
 20
5.3762
 30
0.0000
 42
0.4142
  0
VERTEX
  8
158
 10
54.4389
 20
4.9143
 30
0.0000
  0
SEQEND
  8
0
  0
POLYLINE
  8
158
 66
1
 10
0.0000
 20
0.0000
 30
0.0000
 40
0.1143
 41
0.1143
 70
0
  0
VERTEX
  8
158
 10
54.0341
 20
5.3762
 30
0.0000
 42
1.0000
  0
VERTEX
  8
158
 10
53.9198
 20
5.3762
 30
0.0000
  0
SEQEND
  8
0
  0
POLYLINE
  8
158
 66
1
 10
0.0000
 20
0.0000
 30
0.0000
 40
0.1143
 41
0.1143
 70
0
  0
VERTEX
  8
158
 10
54.4389
 20
4.8571
 30
0.0000
 42
1.0000
  0
VERTEX
  8
158
 10
54.4389
 20
4.9714
 30
0.0000
  0
SEQEND
  8
0
  0
POLYLINE
  8
158
 66
1
 10
0.0000
 20
0.0000
 30
0.0000
 40
0.2286
 41
0.2286
 70
0
  0
VERTEX
  8
158
 10
54.4389
 20
4.9143
 30
0.0000
  0
VERTEX
  8
158
 10
54.5929
 20
4.9143
 30
0.0000
  0
SEQEND
  8
0
  0
POLYLINE
  8
158
 66
1
 10
0.0000
 20
0.0000
 30
0.0000
 40
0.1143
 41
0.1143
 70
0
  0
VERTEX
  8
158
 10
54.5929
 20
4.8571
 30
0.0000
 42
1.0000
  0
VERTEX
  8
158
 10
54.5929
 20
4.9714
 30
0.0000
  0
SEQEND
  8
0
  0
POLYLINE
  8
158
 66
1
 10
0.0000
 20
0.0000
 30
0.0000
 40
0.1143
 41
0.1143
 70
0
  0
VERTEX
  8
158
 10
54.4389
 20
4.9714
 30
0.0000
 42
1.0000
  0
VERTEX
  8
158
 10
54.4389
 20
4.8571
 30
0.0000
  0
SEQEND
  8
0
  0
POLYLINE
  8
158
 66
1
 10
0.0000
 20
0.0000
 30
0.0000
 40
0.2286
 41
0.2286
 70
0
  0
VERTEX
  8
158
 10
55.3297
 20
5.5302
 30
0.0000
  0
VERTEX
  8
158
 10
55.3297
 20
6.1460
 30
0.0000
  0
SEQEND
  8
0
  0
POLYLINE
  8
158
 66
1
 10
0.0000
 20
0.0000
 30
0.0000
 40
0.1143
 41
0.1143
 70
0
  0
VERTEX
  8
158
 10
55.3868
 20
6.1460
 30
0.0000
 42
1.0000
  0
VERTEX
  8
158
 10
55.2725
 20
6.1460
 30
0.0000
  0
SEQEND
  8
0
  0
POLYLINE
  8
158
 66
1
 10
0.0000
 20
0.0000
 30
0.0000
 40
0.1143
 41
0.1143
 70
0
  0
VERTEX
  8
158
 10
55.2725
 20
5.5302
 30
0.0000
 42
1.0000
  0
VERTEX
  8
158
 10
55.3868
 20
5.5302
 30
0.0000
  0
SEQEND
  8
0
  0
POLYLINE
  8
158
 66
1
 10
0.0000
 20
0.0000
 30
0.0000
 40
0.2286
 41
0.2286
 70
0
  0
VERTEX
  8
158
 10
56.5614
 20
6.1460
 30
0.0000
 42
1.0000
  0
VERTEX
  8
158
 10
55.3297
 20
6.1460
 30
0.0000
  0
SEQEND
  8
0
  0
POLYLINE
  8
158
 66
1
 10
0.0000
 20
0.0000
 30
0.0000
 40
0.1143
 41
0.1143
 70
0
  0
VERTEX
  8
158
 10
56.5042
 20
6.1460
 30
0.0000
 42
1.0000
  0
VERTEX
  8
158
 10
56.6185
 20
6.1460
 30
0.0000
  0
SEQEND
  8
0
  0
POLYLINE
  8
158
 66
1
 10
0.0000
 20
0.0000
 30
0.0000
 40
0.1143
 41
0.1143
 70
0
  0
VERTEX
  8
158
 10
55.2725
 20
6.1460
 30
0.0000
 42
1.0000
  0
VERTEX
  8
158
 10
55.3868
 20
6.1460
 30
0.0000
  0
SEQEND
  8
0
  0
POLYLINE
  8
158
 66
1
 10
0.0000
 20
0.0000
 30
0.0000
 40
0.2286
 41
0.2286
 70
0
  0
VERTEX
  8
158
 10
56.5614
 20
6.1460
 30
0.0000
  0
VERTEX
  8
158
 10
56.5614
 20
5.5302
 30
0.0000
  0
SEQEND
  8
0
  0
POLYLINE
  8
158
 66
1
 10
0.0000
 20
0.0000
 30
0.0000
 40
0.1143
 41
0.1143
 70
0
  0
VERTEX
  8
158
 10
56.5042
 20
5.5302
 30
0.0000
 42
1.0000
  0
VERTEX
  8
158
 10
56.6185
 20
5.5302
 30
0.0000
  0
SEQEND
  8
0
  0
POLYLINE
  8
158
 66
1
 10
0.0000
 20
0.0000
 30
0.0000
 40
0.1143
 41
0.1143
 70
0
  0
VERTEX
  8
158
 10
56.6185
 20
6.1460
 30
0.0000
 42
1.0000
  0
VERTEX
  8
158
 10
56.5042
 20
6.1460
 30
0.0000
  0
SEQEND
  8
0
  0
POLYLINE
  8
158
 66
1
 10
0.0000
 20
0.0000
 30
0.0000
 40
0.2286
 41
0.2286
 70
0
  0
VERTEX
  8
158
 10
55.3297
 20
5.5302
 30
0.0000
 42
1.0000
  0
VERTEX
  8
158
 10
56.5614
 20
5.5302
 30
0.0000
  0
SEQEND
  8
0
  0
POLYLINE
  8
158
 66
1
 10
0.0000
 20
0.0000
 30
0.0000
 40
0.1143
 41
0.1143
 70
0
  0
VERTEX
  8
158
 10
55.3868
 20
5.5302
 30
0.0000
 42
1.0000
  0
VERTEX
  8
158
 10
55.2725
 20
5.5302
 30
0.0000
  0
SEQEND
  8
0
  0
POLYLINE
  8
158
 66
1
 10
0.0000
 20
0.0000
 30
0.0000
 40
0.1143
 41
0.1143
 70
0
  0
VERTEX
  8
158
 10
56.6185
 20
5.5302
 30
0.0000
 42
1.0000
  0
VERTEX
  8
158
 10
56.5042
 20
5.5302
 30
0.0000
  0
SEQEND
  8
0
  0
POLYLINE
  8
158
 66
1
 10
0.0000
 20
0.0000
 30
0.0000
 40
0.2286
 41
0.2286
 70
0
  0
VERTEX
  8
158
 10
57.4585
 20
4.9143
 30
0.0000
  0
VERTEX
  8
158
 10
57.4585
 20
6.7619
 30
0.0000
  0
SEQEND
  8
0
  0
POLYLINE
  8
158
 66
1
 10
0.0000
 20
0.0000
 30
0.0000
 40
0.1143
 41
0.1143
 70
0
  0
VERTEX
  8
158
 10
57.5156
 20
6.7619
 30
0.0000
 42
1.0000
  0
VERTEX
  8
158
 10
57.4013
 20
6.7619
 30
0.0000
  0
SEQEND
  8
0
  0
POLYLINE
  8
158
 66
1
 10
0.0000
 20
0.0000
 30
0.0000
 40
0.1143
 41
0.1143
 70
0
  0
VERTEX
  8
158
 10
57.4013
 20
4.9143
 30
0.0000
 42
1.0000
  0
VERTEX
  8
158
 10
57.5156
 20
4.9143
 30
0.0000
  0
SEQEND
  8
0
  0
POLYLINE
  8
158
 66
1
 10
0.0000
 20
0.0000
 30
0.0000
 40
0.2286
 41
0.2286
 70
0
  0
VERTEX
  8
158
 10
57.4585
 20
6.7619
 30
0.0000
  0
VERTEX
  8
158
 10
58.3823
 20
6.7619
 30
0.0000
  0
SEQEND
  8
0
  0
POLYLINE
  8
158
 66
1
 10
0.0000
 20
0.0000
 30
0.0000
 40
0.1143
 41
0.1143
 70
0
  0
VERTEX
  8
158
 10
58.3823
 20
6.7048
 30
0.0000
 42
1.0000
  0
VERTEX
  8
158
 10
58.3823
 20
6.8191
 30
0.0000
  0
SEQEND
  8
0
  0
POLYLINE
  8
158
 66
1
 10
0.0000
 20
0.0000
 30
0.0000
 40
0.1143
 41
0.1143
 70
0
  0
VERTEX
  8
158
 10
57.4585
 20
6.8191
 30
0.0000
 42
1.0000
  0
VERTEX
  8
158
 10
57.4585
 20
6.7048
 30
0.0000
  0
SEQEND
  8
0
  0
POLYLINE
  8
158
 66
1
 10
0.0000
 20
0.0000
 30
0.0000
 40
0.2286
 41
0.2286
 70
0
  0
VERTEX
  8
158
 10
58.3823
 20
6.7619
 30
0.0000
  0
VERTEX
  8
158
 10
58.3823
 20
6.4540
 30
0.0000
  0
SEQEND
  8
0
  0
POLYLINE
  8
158
 66
1
 10
0.0000
 20
0.0000
 30
0.0000
 40
0.1143
 41
0.1143
 70
0
  0
VERTEX
  8
158
 10
58.3251
 20
6.4540
 30
0.0000
 42
1.0000
  0
VERTEX
  8
158
 10
58.4394
 20
6.4540
 30
0.0000
  0
SEQEND
  8
0
  0
POLYLINE
  8
158
 66
1
 10
0.0000
 20
0.0000
 30
0.0000
 40
0.1143
 41
0.1143
 70
0
  0
VERTEX
  8
158
 10
58.4394
 20
6.7619
 30
0.0000
 42
1.0000
  0
VERTEX
  8
158
 10
58.3251
 20
6.7619
 30
0.0000
  0
SEQEND
  8
0
  0
POLYLINE
  8
20
 66
1
 10
0.0000
 20
0.0000
 30
0.0000
 40
0.2286
 41
0.2286
 70
0
  0
VERTEX
  8
20
 10
23.4143
 20
5.6841
 30
0.0000
  0
VERTEX
  8
20
 10
23.4143
 20
6.9159
 30
0.0000
  0
SEQEND
  8
0
  0
POLYLINE
  8
20
 66
1
 10
0.0000
 20
0.0000
 30
0.0000
 40
0.1143
 41
0.1143
 70
0
  0
VERTEX
  8
20
 10
23.4715
 20
6.9159
 30
0.0000
 42
1.0000
  0
VERTEX
  8
20
 10
23.3572
 20
6.9159
 30
0.0000
  0
SEQEND
  8
0
  0
POLYLINE
  8
20
 66
1
 10
0.0000
 20
0.0000
 30
0.0000
 40
0.1143
 41
0.1143
 70
0
  0
VERTEX
  8
20
 10
23.3572
 20
5.6841
 30
0.0000
 42
1.0000
  0
VERTEX
  8
20
 10
23.4715
 20
5.6841
 30
0.0000
  0
SEQEND
  8
0
  0
POLYLINE
  8
20
 66
1
 10
0.0000
 20
0.0000
 30
0.0000
 40
0.2286
 41
0.2286
 70
0
  0
VERTEX
  8
20
 10
24.9540
 20
6.9159
 30
0.0000
 42
1.0000
  0
VERTEX
  8
20
 10
23.4143
 20
6.9159
 30
0.0000
  0
SEQEND
  8
0
  0
POLYLINE
  8
20
 66
1
 10
0.0000
 20
0.0000
 30
0.0000
 40
0.1143
 41
0.1143
 70
0
  0
VERTEX
  8
20
 10
24.8968
 20
6.9159
 30
0.0000
 42
1.0000
  0
VERTEX
  8
20
 10
25.0111
 20
6.9159
 30
0.0000
  0
SEQEND
  8
0
  0
POLYLINE
  8
20
 66
1
 10
0.0000
 20
0.0000
 30
0.0000
 40
0.1143
 41
0.1143
 70
0
  0
VERTEX
  8
20
 10
23.3572
 20
6.9159
 30
0.0000
 42
1.0000
  0
VERTEX
  8
20
 10
23.4715
 20
6.9159
 30
0.0000
  0
SEQEND
  8
0
  0
POLYLINE
  8
20
 66
1
 10
0.0000
 20
0.0000
 30
0.0000
 40
0.2286
 41
0.2286
 70
0
  0
VERTEX
  8
20
 10
24.9540
 20
6.9159
 30
0.0000
  0
VERTEX
  8
20
 10
24.9540
 20
5.6841
 30
0.0000
  0
SEQEND
  8
0
  0
POLYLINE
  8
20
 66
1
 10
0.0000
 20
0.0000
 30
0.0000
 40
0.1143
 41
0.1143
 70
0
  0
VERTEX
  8
20
 10
24.8968
 20
5.6841
 30
0.0000
 42
1.0000
  0
VERTEX
  8
20
 10
25.0111
 20
5.6841
 30
0.0000
  0
SEQEND
  8
0
  0
POLYLINE
  8
20
 66
1
 10
0.0000
 20
0.0000
 30
0.0000
 40
0.1143
 41
0.1143
 70
0
  0
VERTEX
  8
20
 10
25.0111
 20
6.9159
 30
0.0000
 42
1.0000
  0
VERTEX
  8
20
 10
24.8968
 20
6.9159
 30
0.0000
  0
SEQEND
  8
0
  0
POLYLINE
  8
20
 66
1
 10
0.0000
 20
0.0000
 30
0.0000
 40
0.2286
 41
0.2286
 70
0
  0
VERTEX
  8
20
 10
23.4143
 20
5.6841
 30
0.0000
 42
1.0000
  0
VERTEX
  8
20
 10
24.9540
 20
5.6841
 30
0.0000
  0
SEQEND
  8
0
  0
POLYLINE
  8
20
 66
1
 10
0.0000
 20
0.0000
 30
0.0000
 40
0.1143
 41
0.1143
 70
0
  0
VERTEX
  8
20
 10
23.4714
 20
5.6841
 30
0.0000
 42
1.0000
  0
VERTEX
  8
20
 10
23.3571
 20
5.6841
 30
0.0000
  0
SEQEND
  8
0
  0
POLYLINE
  8
20
 66
1
 10
0.0000
 20
0.0000
 30
0.0000
 40
0.1143
 41
0.1143
 70
0
  0
VERTEX
  8
20
 10
25.0111
 20
5.6841
 30
0.0000
 42
1.0000
  0
VERTEX
  8
20
 10
24.8968
 20
5.6841
 30
0.0000
  0
SEQEND
  8
0
  0
POLYLINE
  8
20
 66
1
 10
0.0000
 20
0.0000
 30
0.0000
 40
0.2286
 41
0.2286
 70
0
  0
VERTEX
  8
20
 10
25.8540
 20
3.9905
 30
0.0000
  0
VERTEX
  8
20
 10
25.8540
 20
6.7619
 30
0.0000
  0
SEQEND
  8
0
  0
POLYLINE
  8
20
 66
1
 10
0.0000
 20
0.0000
 30
0.0000
 40
0.1143
 41
0.1143
 70
0
  0
VERTEX
  8
20
 10
25.9111
 20
6.7619
 30
0.0000
 42
1.0000
  0
VERTEX
  8
20
 10
25.7968
 20
6.7619
 30
0.0000
  0
SEQEND
  8
0
  0
POLYLINE
  8
20
 66
1
 10
0.0000
 20
0.0000
 30
0.0000
 40
0.1143
 41
0.1143
 70
0
  0
VERTEX
  8
20
 10
25.7968
 20
3.9905
 30
0.0000
 42
1.0000
  0
VERTEX
  8
20
 10
25.9111
 20
3.9905
 30
0.0000
  0
SEQEND
  8
0
  0
POLYLINE
  8
20
 66
1
 10
0.0000
 20
0.0000
 30
0.0000
 40
0.2286
 41
0.2286
 70
0
  0
VERTEX
  8
20
 10
25.8540
 20
6.7619
 30
0.0000
  0
VERTEX
  8
20
 10
26.6238
 20
6.7619
 30
0.0000
  0
SEQEND
  8
0
  0
POLYLINE
  8
20
 66
1
 10
0.0000
 20
0.0000
 30
0.0000
 40
0.1143
 41
0.1143
 70
0
  0
VERTEX
  8
20
 10
26.6238
 20
6.7048
 30
0.0000
 42
1.0000
  0
VERTEX
  8
20
 10
26.6238
 20
6.8191
 30
0.0000
  0
SEQEND
  8
0
  0
POLYLINE
  8
20
 66
1
 10
0.0000
 20
0.0000
 30
0.0000
 40
0.1143
 41
0.1143
 70
0
  0
VERTEX
  8
20
 10
25.8540
 20
6.8191
 30
0.0000
 42
1.0000
  0
VERTEX
  8
20
 10
25.8540
 20
6.7048
 30
0.0000
  0
SEQEND
  8
0
  0
POLYLINE
  8
20
 66
1
 10
0.0000
 20
0.0000
 30
0.0000
 40
0.2286
 41
0.2286
 70
0
  0
VERTEX
  8
20
 10
27.0857
 20
6.3000
 30
0.0000
 42
0.4142
  0
VERTEX
  8
20
 10
26.6238
 20
6.7619
 30
0.0000
  0
SEQEND
  8
0
  0
POLYLINE
  8
20
 66
1
 10
0.0000
 20
0.0000
 30
0.0000
 40
0.1143
 41
0.1143
 70
0
  0
VERTEX
  8
20
 10
27.0286
 20
6.3000
 30
0.0000
 42
1.0000
  0
VERTEX
  8
20
 10
27.1429
 20
6.3000
 30
0.0000
  0
SEQEND
  8
0
  0
POLYLINE
  8
20
 66
1
 10
0.0000
 20
0.0000
 30
0.0000
 40
0.1143
 41
0.1143
 70
0
  0
VERTEX
  8
20
 10
26.6238
 20
6.8191
 30
0.0000
 42
1.0000
  0
VERTEX
  8
20
 10
26.6238
 20
6.7048
 30
0.0000
  0
SEQEND
  8
0
  0
POLYLINE
  8
20
 66
1
 10
0.0000
 20
0.0000
 30
0.0000
 40
0.2286
 41
0.2286
 70
0
  0
VERTEX
  8
20
 10
27.0857
 20
6.3000
 30
0.0000
  0
VERTEX
  8
20
 10
27.0857
 20
5.3762
 30
0.0000
  0
SEQEND
  8
0
  0
POLYLINE
  8
20
 66
1
 10
0.0000
 20
0.0000
 30
0.0000
 40
0.1143
 41
0.1143
 70
0
  0
VERTEX
  8
20
 10
27.0286
 20
5.3762
 30
0.0000
 42
1.0000
  0
VERTEX
  8
20
 10
27.1429
 20
5.3762
 30
0.0000
  0
SEQEND
  8
0
  0
POLYLINE
  8
20
 66
1
 10
0.0000
 20
0.0000
 30
0.0000
 40
0.1143
 41
0.1143
 70
0
  0
VERTEX
  8
20
 10
27.1429
 20
6.3000
 30
0.0000
 42
1.0000
  0
VERTEX
  8
20
 10
27.0286
 20
6.3000
 30
0.0000
  0
SEQEND
  8
0
  0
POLYLINE
  8
20
 66
1
 10
0.0000
 20
0.0000
 30
0.0000
 40
0.2286
 41
0.2286
 70
0
  0
VERTEX
  8
20
 10
26.6238
 20
4.9143
 30
0.0000
 42
0.4142
  0
VERTEX
  8
20
 10
27.0857
 20
5.3762
 30
0.0000
  0
SEQEND
  8
0
  0
POLYLINE
  8
20
 66
1
 10
0.0000
 20
0.0000
 30
0.0000
 40
0.1143
 41
0.1143
 70
0
  0
VERTEX
  8
20
 10
26.6238
 20
4.9714
 30
0.0000
 42
1.0000
  0
VERTEX
  8
20
 10
26.6238
 20
4.8571
 30
0.0000
  0
SEQEND
  8
0
  0
POLYLINE
  8
20
 66
1
 10
0.0000
 20
0.0000
 30
0.0000
 40
0.1143
 41
0.1143
 70
0
  0
VERTEX
  8
20
 10
27.1429
 20
5.3762
 30
0.0000
 42
1.0000
  0
VERTEX
  8
20
 10
27.0286
 20
5.3762
 30
0.0000
  0
SEQEND
  8
0
  0
POLYLINE
  8
20
 66
1
 10
0.0000
 20
0.0000
 30
0.0000
 40
0.2286
 41
0.2286
 70
0
  0
VERTEX
  8
20
 10
26.6238
 20
4.9143
 30
0.0000
  0
VERTEX
  8
20
 10
25.8540
 20
4.9143
 30
0.0000
  0
SEQEND
  8
0
  0
POLYLINE
  8
20
 66
1
 10
0.0000
 20
0.0000
 30
0.0000
 40
0.1143
 41
0.1143
 70
0
  0
VERTEX
  8
20
 10
25.8540
 20
4.9714
 30
0.0000
 42
1.0000
  0
VERTEX
  8
20
 10
25.8540
 20
4.8571
 30
0.0000
  0
SEQEND
  8
0
  0
POLYLINE
  8
20
 66
1
 10
0.0000
 20
0.0000
 30
0.0000
 40
0.1143
 41
0.1143
 70
0
  0
VERTEX
  8
20
 10
26.6238
 20
4.8571
 30
0.0000
 42
1.0000
  0
VERTEX
  8
20
 10
26.6238
 20
4.9714
 30
0.0000
  0
SEQEND
  8
0
  0
POLYLINE
  8
20
 66
1
 10
0.0000
 20
0.0000
 30
0.0000
 40
0.2286
 41
0.2286
 70
0
  0
VERTEX
  8
20
 10
29.1312
 20
4.9143
 30
0.0000
  0
VERTEX
  8
20
 10
28.3614
 20
4.9143
 30
0.0000
  0
SEQEND
  8
0
  0
POLYLINE
  8
20
 66
1
 10
0.0000
 20
0.0000
 30
0.0000
 40
0.1143
 41
0.1143
 70
0
  0
VERTEX
  8
20
 10
28.3614
 20
4.9714
 30
0.0000
 42
1.0000
  0
VERTEX
  8
20
 10
28.3614
 20
4.8571
 30
0.0000
  0
SEQEND
  8
0
  0
POLYLINE
  8
20
 66
1
 10
0.0000
 20
0.0000
 30
0.0000
 40
0.1143
 41
0.1143
 70
0
  0
VERTEX
  8
20
 10
29.1312
 20
4.8571
 30
0.0000
 42
1.0000
  0
VERTEX
  8
20
 10
29.1312
 20
4.9714
 30
0.0000
  0
SEQEND
  8
0
  0
POLYLINE
  8
20
 66
1
 10
0.0000
 20
0.0000
 30
0.0000
 40
0.2286
 41
0.2286
 70
0
  0
VERTEX
  8
20
 10
27.8995
 20
5.3762
 30
0.0000
 42
0.4142
  0
VERTEX
  8
20
 10
28.3614
 20
4.9143
 30
0.0000
  0
SEQEND
  8
0
  0
POLYLINE
  8
20
 66
1
 10
0.0000
 20
0.0000
 30
0.0000
 40
0.1143
 41
0.1143
 70
0
  0
VERTEX
  8
20
 10
27.9567
 20
5.3762
 30
0.0000
 42
1.0000
  0
VERTEX
  8
20
 10
27.8424
 20
5.3762
 30
0.0000
  0
SEQEND
  8
0
  0
POLYLINE
  8
20
 66
1
 10
0.0000
 20
0.0000
 30
0.0000
 40
0.1143
 41
0.1143
 70
0
  0
VERTEX
  8
20
 10
28.3614
 20
4.8571
 30
0.0000
 42
1.0000
  0
VERTEX
  8
20
 10
28.3614
 20
4.9714
 30
0.0000
  0
SEQEND
  8
0
  0
POLYLINE
  8
20
 66
1
 10
0.0000
 20
0.0000
 30
0.0000
 40
0.2286
 41
0.2286
 70
0
  0
VERTEX
  8
20
 10
27.8995
 20
5.3762
 30
0.0000
  0
VERTEX
  8
20
 10
27.8995
 20
6.1460
 30
0.0000
  0
SEQEND
  8
0
  0
POLYLINE
  8
20
 66
1
 10
0.0000
 20
0.0000
 30
0.0000
 40
0.1143
 41
0.1143
 70
0
  0
VERTEX
  8
20
 10
27.9567
 20
6.1460
 30
0.0000
 42
1.0000
  0
VERTEX
  8
20
 10
27.8424
 20
6.1460
 30
0.0000
  0
SEQEND
  8
0
  0
POLYLINE
  8
20
 66
1
 10
0.0000
 20
0.0000
 30
0.0000
 40
0.1143
 41
0.1143
 70
0
  0
VERTEX
  8
20
 10
27.8424
 20
5.3762
 30
0.0000
 42
1.0000
  0
VERTEX
  8
20
 10
27.9567
 20
5.3762
 30
0.0000
  0
SEQEND
  8
0
  0
POLYLINE
  8
20
 66
1
 10
0.0000
 20
0.0000
 30
0.0000
 40
0.2286
 41
0.2286
 70
0
  0
VERTEX
  8
20
 10
29.1312
 20
6.1460
 30
0.0000
 42
1.0000
  0
VERTEX
  8
20
 10
27.8995
 20
6.1460
 30
0.0000
  0
SEQEND
  8
0
  0
POLYLINE
  8
20
 66
1
 10
0.0000
 20
0.0000
 30
0.0000
 40
0.1143
 41
0.1143
 70
0
  0
VERTEX
  8
20
 10
29.0741
 20
6.1460
 30
0.0000
 42
1.0000
  0
VERTEX
  8
20
 10
29.1884
 20
6.1460
 30
0.0000
  0
SEQEND
  8
0
  0
POLYLINE
  8
20
 66
1
 10
0.0000
 20
0.0000
 30
0.0000
 40
0.1143
 41
0.1143
 70
0
  0
VERTEX
  8
20
 10
27.8424
 20
6.1460
 30
0.0000
 42
1.0000
  0
VERTEX
  8
20
 10
27.9567
 20
6.1460
 30
0.0000
  0
SEQEND
  8
0
  0
POLYLINE
  8
20
 66
1
 10
0.0000
 20
0.0000
 30
0.0000
 40
0.2286
 41
0.2286
 70
0
  0
VERTEX
  8
20
 10
29.1312
 20
6.1460
 30
0.0000
  0
VERTEX
  8
20
 10
29.1312
 20
5.8381
 30
0.0000
  0
SEQEND
  8
0
  0
POLYLINE
  8
20
 66
1
 10
0.0000
 20
0.0000
 30
0.0000
 40
0.1143
 41
0.1143
 70
0
  0
VERTEX
  8
20
 10
29.0741
 20
5.8381
 30
0.0000
 42
1.0000
  0
VERTEX
  8
20
 10
29.1884
 20
5.8381
 30
0.0000
  0
SEQEND
  8
0
  0
POLYLINE
  8
20
 66
1
 10
0.0000
 20
0.0000
 30
0.0000
 40
0.1143
 41
0.1143
 70
0
  0
VERTEX
  8
20
 10
29.1884
 20
6.1460
 30
0.0000
 42
1.0000
  0
VERTEX
  8
20
 10
29.0741
 20
6.1460
 30
0.0000
  0
SEQEND
  8
0
  0
POLYLINE
  8
20
 66
1
 10
0.0000
 20
0.0000
 30
0.0000
 40
0.2286
 41
0.2286
 70
0
  0
VERTEX
  8
20
 10
29.1312
 20
5.8381
 30
0.0000
  0
VERTEX
  8
20
 10
27.8995
 20
5.8381
 30
0.0000
  0
SEQEND
  8
0
  0
POLYLINE
  8
20
 66
1
 10
0.0000
 20
0.0000
 30
0.0000
 40
0.1143
 41
0.1143
 70
0
  0
VERTEX
  8
20
 10
27.8995
 20
5.8952
 30
0.0000
 42
1.0000
  0
VERTEX
  8
20
 10
27.8995
 20
5.7809
 30
0.0000
  0
SEQEND
  8
0
  0
POLYLINE
  8
20
 66
1
 10
0.0000
 20
0.0000
 30
0.0000
 40
0.1143
 41
0.1143
 70
0
  0
VERTEX
  8
20
 10
29.1312
 20
5.7809
 30
0.0000
 42
1.0000
  0
VERTEX
  8
20
 10
29.1312
 20
5.8952
 30
0.0000
  0
SEQEND
  8
0
  0
POLYLINE
  8
20
 66
1
 10
0.0000
 20
0.0000
 30
0.0000
 40
0.2286
 41
0.2286
 70
0
  0
VERTEX
  8
20
 10
30.0258
 20
4.9143
 30
0.0000
  0
VERTEX
  8
20
 10
30.0258
 20
6.7619
 30
0.0000
  0
SEQEND
  8
0
  0
POLYLINE
  8
20
 66
1
 10
0.0000
 20
0.0000
 30
0.0000
 40
0.1143
 41
0.1143
 70
0
  0
VERTEX
  8
20
 10
30.0829
 20
6.7619
 30
0.0000
 42
1.0000
  0
VERTEX
  8
20
 10
29.9686
 20
6.7619
 30
0.0000
  0
SEQEND
  8
0
  0
POLYLINE
  8
20
 66
1
 10
0.0000
 20
0.0000
 30
0.0000
 40
0.1143
 41
0.1143
 70
0
  0
VERTEX
  8
20
 10
29.9686
 20
4.9143
 30
0.0000
 42
1.0000
  0
VERTEX
  8
20
 10
30.0829
 20
4.9143
 30
0.0000
  0
SEQEND
  8
0
  0
POLYLINE
  8
20
 66
1
 10
0.0000
 20
0.0000
 30
0.0000
 40
0.2286
 41
0.2286
 70
0
  0
VERTEX
  8
20
 10
30.0258
 20
6.7619
 30
0.0000
  0
VERTEX
  8
20
 10
30.7956
 20
6.7619
 30
0.0000
  0
SEQEND
  8
0
  0
POLYLINE
  8
20
 66
1
 10
0.0000
 20
0.0000
 30
0.0000
 40
0.1143
 41
0.1143
 70
0
  0
VERTEX
  8
20
 10
30.7956
 20
6.7048
 30
0.0000
 42
1.0000
  0
VERTEX
  8
20
 10
30.7956
 20
6.8191
 30
0.0000
  0
SEQEND
  8
0
  0
POLYLINE
  8
20
 66
1
 10
0.0000
 20
0.0000
 30
0.0000
 40
0.1143
 41
0.1143
 70
0
  0
VERTEX
  8
20
 10
30.0258
 20
6.8191
 30
0.0000
 42
1.0000
  0
VERTEX
  8
20
 10
30.0258
 20
6.7048
 30
0.0000
  0
SEQEND
  8
0
  0
POLYLINE
  8
20
 66
1
 10
0.0000
 20
0.0000
 30
0.0000
 40
0.2286
 41
0.2286
 70
0
  0
VERTEX
  8
20
 10
31.2575
 20
6.3000
 30
0.0000
 42
0.4142
  0
VERTEX
  8
20
 10
30.7956
 20
6.7619
 30
0.0000
  0
SEQEND
  8
0
  0
POLYLINE
  8
20
 66
1
 10
0.0000
 20
0.0000
 30
0.0000
 40
0.1143
 41
0.1143
 70
0
  0
VERTEX
  8
20
 10
31.2003
 20
6.3000
 30
0.0000
 42
1.0000
  0
VERTEX
  8
20
 10
31.3146
 20
6.3000
 30
0.0000
  0
SEQEND
  8
0
  0
POLYLINE
  8
20
 66
1
 10
0.0000
 20
0.0000
 30
0.0000
 40
0.1143
 41
0.1143
 70
0
  0
VERTEX
  8
20
 10
30.7956
 20
6.8191
 30
0.0000
 42
1.0000
  0
VERTEX
  8
20
 10
30.7956
 20
6.7048
 30
0.0000
  0
SEQEND
  8
0
  0
POLYLINE
  8
20
 66
1
 10
0.0000
 20
0.0000
 30
0.0000
 40
0.2286
 41
0.2286
 70
0
  0
VERTEX
  8
20
 10
31.2575
 20
6.3000
 30
0.0000
  0
VERTEX
  8
20
 10
31.2575
 20
4.9143
 30
0.0000
  0
SEQEND
  8
0
  0
POLYLINE
  8
20
 66
1
 10
0.0000
 20
0.0000
 30
0.0000
 40
0.1143
 41
0.1143
 70
0
  0
VERTEX
  8
20
 10
31.2003
 20
4.9143
 30
0.0000
 42
1.0000
  0
VERTEX
  8
20
 10
31.3146
 20
4.9143
 30
0.0000
  0
SEQEND
  8
0
  0
POLYLINE
  8
20
 66
1
 10
0.0000
 20
0.0000
 30
0.0000
 40
0.1143
 41
0.1143
 70
0
  0
VERTEX
  8
20
 10
31.3146
 20
6.3000
 30
0.0000
 42
1.0000
  0
VERTEX
  8
20
 10
31.2003
 20
6.3000
 30
0.0000
  0
SEQEND
  8
0
  0
POLYLINE
  8
20
 66
1
 10
0.0000
 20
0.0000
 30
0.0000
 40
0.2286
 41
0.2286
 70
0
  0
VERTEX
  8
20
 10
61.4143
 20
4.9143
 30
0.0000
  0
VERTEX
  8
20
 10
61.4143
 20
5.0683
 30
0.0000
  0
SEQEND
  8
0
  0
POLYLINE
  8
20
 66
1
 10
0.0000
 20
0.0000
 30
0.0000
 40
0.1143
 41
0.1143
 70
0
  0
VERTEX
  8
20
 10
61.4715
 20
5.0683
 30
0.0000
 42
1.0000
  0
VERTEX
  8
20
 10
61.3572
 20
5.0683
 30
0.0000
  0
SEQEND
  8
0
  0
POLYLINE
  8
20
 66
1
 10
0.0000
 20
0.0000
 30
0.0000
 40
0.1143
 41
0.1143
 70
0
  0
VERTEX
  8
20
 10
61.3572
 20
4.9143
 30
0.0000
 42
1.0000
  0
VERTEX
  8
20
 10
61.4715
 20
4.9143
 30
0.0000
  0
SEQEND
  8
0
  0
POLYLINE
  8
20
 66
1
 10
0.0000
 20
0.0000
 30
0.0000
 40
0.2286
 41
0.2286
 70
0
  0
VERTEX
  8
20
 10
61.4143
 20
5.0683
 30
0.0000
  0
VERTEX
  8
20
 10
61.5683
 20
5.0683
 30
0.0000
  0
SEQEND
  8
0
  0
POLYLINE
  8
20
 66
1
 10
0.0000
 20
0.0000
 30
0.0000
 40
0.1143
 41
0.1143
 70
0
  0
VERTEX
  8
20
 10
61.5683
 20
5.0111
 30
0.0000
 42
1.0000
  0
VERTEX
  8
20
 10
61.5683
 20
5.1254
 30
0.0000
  0
SEQEND
  8
0
  0
POLYLINE
  8
20
 66
1
 10
0.0000
 20
0.0000
 30
0.0000
 40
0.1143
 41
0.1143
 70
0
  0
VERTEX
  8
20
 10
61.4143
 20
5.1254
 30
0.0000
 42
1.0000
  0
VERTEX
  8
20
 10
61.4143
 20
5.0111
 30
0.0000
  0
SEQEND
  8
0
  0
POLYLINE
  8
20
 66
1
 10
0.0000
 20
0.0000
 30
0.0000
 40
0.2286
 41
0.2286
 70
0
  0
VERTEX
  8
20
 10
61.5683
 20
5.0683
 30
0.0000
  0
VERTEX
  8
20
 10
61.5683
 20
4.9143
 30
0.0000
  0
SEQEND
  8
0
  0
POLYLINE
  8
20
 66
1
 10
0.0000
 20
0.0000
 30
0.0000
 40
0.1143
 41
0.1143
 70
0
  0
VERTEX
  8
20
 10
61.5111
 20
4.9143
 30
0.0000
 42
1.0000
  0
VERTEX
  8
20
 10
61.6254
 20
4.9143
 30
0.0000
  0
SEQEND
  8
0
  0
POLYLINE
  8
20
 66
1
 10
0.0000
 20
0.0000
 30
0.0000
 40
0.1143
 41
0.1143
 70
0
  0
VERTEX
  8
20
 10
61.6254
 20
5.0683
 30
0.0000
 42
1.0000
  0
VERTEX
  8
20
 10
61.5111
 20
5.0683
 30
0.0000
  0
SEQEND
  8
0
  0
POLYLINE
  8
20
 66
1
 10
0.0000
 20
0.0000
 30
0.0000
 40
0.2286
 41
0.2286
 70
0
  0
VERTEX
  8
20
 10
61.5683
 20
4.9143
 30
0.0000
  0
VERTEX
  8
20
 10
61.4143
 20
4.9143
 30
0.0000
  0
SEQEND
  8
0
  0
POLYLINE
  8
20
 66
1
 10
0.0000
 20
0.0000
 30
0.0000
 40
0.1143
 41
0.1143
 70
0
  0
VERTEX
  8
20
 10
61.4143
 20
4.9714
 30
0.0000
 42
1.0000
  0
VERTEX
  8
20
 10
61.4143
 20
4.8571
 30
0.0000
  0
SEQEND
  8
0
  0
POLYLINE
  8
20
 66
1
 10
0.0000
 20
0.0000
 30
0.0000
 40
0.1143
 41
0.1143
 70
0
  0
VERTEX
  8
20
 10
61.5683
 20
4.8571
 30
0.0000
 42
1.0000
  0
VERTEX
  8
20
 10
61.5683
 20
4.9714
 30
0.0000
  0
SEQEND
  8
0
  0
POLYLINE
  8
20
 66
1
 10
0.0000
 20
0.0000
 30
0.0000
 40
0.2286
 41
0.2286
 70
0
  0
VERTEX
  8
20
 10
62.3717
 20
5.5302
 30
0.0000
  0
VERTEX
  8
20
 10
62.3717
 20
6.1460
 30
0.0000
  0
SEQEND
  8
0
  0
POLYLINE
  8
20
 66
1
 10
0.0000
 20
0.0000
 30
0.0000
 40
0.1143
 41
0.1143
 70
0
  0
VERTEX
  8
20
 10
62.4288
 20
6.1460
 30
0.0000
 42
1.0000
  0
VERTEX
  8
20
 10
62.3145
 20
6.1460
 30
0.0000
  0
SEQEND
  8
0
  0
POLYLINE
  8
20
 66
1
 10
0.0000
 20
0.0000
 30
0.0000
 40
0.1143
 41
0.1143
 70
0
  0
VERTEX
  8
20
 10
62.3145
 20
5.5302
 30
0.0000
 42
1.0000
  0
VERTEX
  8
20
 10
62.4288
 20
5.5302
 30
0.0000
  0
SEQEND
  8
0
  0
POLYLINE
  8
20
 66
1
 10
0.0000
 20
0.0000
 30
0.0000
 40
0.2286
 41
0.2286
 70
0
  0
VERTEX
  8
20
 10
63.6034
 20
6.1460
 30
0.0000
 42
1.0000
  0
VERTEX
  8
20
 10
62.3717
 20
6.1460
 30
0.0000
  0
SEQEND
  8
0
  0
POLYLINE
  8
20
 66
1
 10
0.0000
 20
0.0000
 30
0.0000
 40
0.1143
 41
0.1143
 70
0
  0
VERTEX
  8
20
 10
63.5462
 20
6.1460
 30
0.0000
 42
1.0000
  0
VERTEX
  8
20
 10
63.6605
 20
6.1460
 30
0.0000
  0
SEQEND
  8
0
  0
POLYLINE
  8
20
 66
1
 10
0.0000
 20
0.0000
 30
0.0000
 40
0.1143
 41
0.1143
 70
0
  0
VERTEX
  8
20
 10
62.3145
 20
6.1460
 30
0.0000
 42
1.0000
  0
VERTEX
  8
20
 10
62.4288
 20
6.1460
 30
0.0000
  0
SEQEND
  8
0
  0
POLYLINE
  8
20
 66
1
 10
0.0000
 20
0.0000
 30
0.0000
 40
0.2286
 41
0.2286
 70
0
  0
VERTEX
  8
20
 10
63.6034
 20
6.1460
 30
0.0000
  0
VERTEX
  8
20
 10
63.6034
 20
5.5302
 30
0.0000
  0
SEQEND
  8
0
  0
POLYLINE
  8
20
 66
1
 10
0.0000
 20
0.0000
 30
0.0000
 40
0.1143
 41
0.1143
 70
0
  0
VERTEX
  8
20
 10
63.5462
 20
5.5302
 30
0.0000
 42
1.0000
  0
VERTEX
  8
20
 10
63.6605
 20
5.5302
 30
0.0000
  0
SEQEND
  8
0
  0
POLYLINE
  8
20
 66
1
 10
0.0000
 20
0.0000
 30
0.0000
 40
0.1143
 41
0.1143
 70
0
  0
VERTEX
  8
20
 10
63.6605
 20
6.1460
 30
0.0000
 42
1.0000
  0
VERTEX
  8
20
 10
63.5462
 20
6.1460
 30
0.0000
  0
SEQEND
  8
0
  0
POLYLINE
  8
20
 66
1
 10
0.0000
 20
0.0000
 30
0.0000
 40
0.2286
 41
0.2286
 70
0
  0
VERTEX
  8
20
 10
62.3717
 20
5.5302
 30
0.0000
 42
1.0000
  0
VERTEX
  8
20
 10
63.6034
 20
5.5302
 30
0.0000
  0
SEQEND
  8
0
  0
POLYLINE
  8
20
 66
1
 10
0.0000
 20
0.0000
 30
0.0000
 40
0.1143
 41
0.1143
 70
0
  0
VERTEX
  8
20
 10
62.4288
 20
5.5302
 30
0.0000
 42
1.0000
  0
VERTEX
  8
20
 10
62.3145
 20
5.5302
 30
0.0000
  0
SEQEND
  8
0
  0
POLYLINE
  8
20
 66
1
 10
0.0000
 20
0.0000
 30
0.0000
 40
0.1143
 41
0.1143
 70
0
  0
VERTEX
  8
20
 10
63.6605
 20
5.5302
 30
0.0000
 42
1.0000
  0
VERTEX
  8
20
 10
63.5462
 20
5.5302
 30
0.0000
  0
SEQEND
  8
0
  0
POLYLINE
  8
20
 66
1
 10
0.0000
 20
0.0000
 30
0.0000
 40
0.2286
 41
0.2286
 70
0
  0
VERTEX
  8
20
 10
64.5005
 20
4.9143
 30
0.0000
  0
VERTEX
  8
20
 10
64.5005
 20
6.7619
 30
0.0000
  0
SEQEND
  8
0
  0
POLYLINE
  8
20
 66
1
 10
0.0000
 20
0.0000
 30
0.0000
 40
0.1143
 41
0.1143
 70
0
  0
VERTEX
  8
20
 10
64.5576
 20
6.7619
 30
0.0000
 42
1.0000
  0
VERTEX
  8
20
 10
64.4433
 20
6.7619
 30
0.0000
  0
SEQEND
  8
0
  0
POLYLINE
  8
20
 66
1
 10
0.0000
 20
0.0000
 30
0.0000
 40
0.1143
 41
0.1143
 70
0
  0
VERTEX
  8
20
 10
64.4433
 20
4.9143
 30
0.0000
 42
1.0000
  0
VERTEX
  8
20
 10
64.5576
 20
4.9143
 30
0.0000
  0
SEQEND
  8
0
  0
POLYLINE
  8
20
 66
1
 10
0.0000
 20
0.0000
 30
0.0000
 40
0.2286
 41
0.2286
 70
0
  0
VERTEX
  8
20
 10
64.5005
 20
6.7619
 30
0.0000
  0
VERTEX
  8
20
 10
65.4243
 20
6.7619
 30
0.0000
  0
SEQEND
  8
0
  0
POLYLINE
  8
20
 66
1
 10
0.0000
 20
0.0000
 30
0.0000
 40
0.1143
 41
0.1143
 70
0
  0
VERTEX
  8
20
 10
65.4243
 20
6.7048
 30
0.0000
 42
1.0000
  0
VERTEX
  8
20
 10
65.4243
 20
6.8191
 30
0.0000
  0
SEQEND
  8
0
  0
POLYLINE
  8
20
 66
1
 10
0.0000
 20
0.0000
 30
0.0000
 40
0.1143
 41
0.1143
 70
0
  0
VERTEX
  8
20
 10
64.5005
 20
6.8191
 30
0.0000
 42
1.0000
  0
VERTEX
  8
20
 10
64.5005
 20
6.7048
 30
0.0000
  0
SEQEND
  8
0
  0
POLYLINE
  8
20
 66
1
 10
0.0000
 20
0.0000
 30
0.0000
 40
0.2286
 41
0.2286
 70
0
  0
VERTEX
  8
20
 10
65.4243
 20
6.7619
 30
0.0000
  0
VERTEX
  8
20
 10
65.4243
 20
6.4540
 30
0.0000
  0
SEQEND
  8
0
  0
POLYLINE
  8
20
 66
1
 10
0.0000
 20
0.0000
 30
0.0000
 40
0.1143
 41
0.1143
 70
0
  0
VERTEX
  8
20
 10
65.3671
 20
6.4540
 30
0.0000
 42
1.0000
  0
VERTEX
  8
20
 10
65.4814
 20
6.4540
 30
0.0000
  0
SEQEND
  8
0
  0
POLYLINE
  8
20
 66
1
 10
0.0000
 20
0.0000
 30
0.0000
 40
0.1143
 41
0.1143
 70
0
  0
VERTEX
  8
20
 10
65.4814
 20
6.7619
 30
0.0000
 42
1.0000
  0
VERTEX
  8
20
 10
65.3671
 20
6.7619
 30
0.0000
  0
SEQEND
  8
0
  0
POLYLINE
  8
20
 66
1
 10
0.0000
 20
0.0000
 30
0.0000
 40
0.2286
 41
0.2286
 70
0
  0
VERTEX
  8
20
 10
67.3027
 20
4.9143
 30
0.0000
  0
VERTEX
  8
20
 10
66.5328
 20
4.9143
 30
0.0000
  0
SEQEND
  8
0
  0
POLYLINE
  8
20
 66
1
 10
0.0000
 20
0.0000
 30
0.0000
 40
0.1143
 41
0.1143
 70
0
  0
VERTEX
  8
20
 10
66.5328
 20
4.9714
 30
0.0000
 42
1.0000
  0
VERTEX
  8
20
 10
66.5328
 20
4.8571
 30
0.0000
  0
SEQEND
  8
0
  0
POLYLINE
  8
20
 66
1
 10
0.0000
 20
0.0000
 30
0.0000
 40
0.1143
 41
0.1143
 70
0
  0
VERTEX
  8
20
 10
67.3027
 20
4.8571
 30
0.0000
 42
1.0000
  0
VERTEX
  8
20
 10
67.3027
 20
4.9714
 30
0.0000
  0
SEQEND
  8
0
  0
POLYLINE
  8
20
 66
1
 10
0.0000
 20
0.0000
 30
0.0000
 40
0.2286
 41
0.2286
 70
0
  0
VERTEX
  8
20
 10
66.0709
 20
5.3762
 30
0.0000
 42
0.4142
  0
VERTEX
  8
20
 10
66.5328
 20
4.9143
 30
0.0000
  0
SEQEND
  8
0
  0
POLYLINE
  8
20
 66
1
 10
0.0000
 20
0.0000
 30
0.0000
 40
0.1143
 41
0.1143
 70
0
  0
VERTEX
  8
20
 10
66.1281
 20
5.3762
 30
0.0000
 42
1.0000
  0
VERTEX
  8
20
 10
66.0138
 20
5.3762
 30
0.0000
  0
SEQEND
  8
0
  0
POLYLINE
  8
20
 66
1
 10
0.0000
 20
0.0000
 30
0.0000
 40
0.1143
 41
0.1143
 70
0
  0
VERTEX
  8
20
 10
66.5328
 20
4.8571
 30
0.0000
 42
1.0000
  0
VERTEX
  8
20
 10
66.5328
 20
4.9714
 30
0.0000
  0
SEQEND
  8
0
  0
POLYLINE
  8
20
 66
1
 10
0.0000
 20
0.0000
 30
0.0000
 40
0.2286
 41
0.2286
 70
0
  0
VERTEX
  8
20
 10
66.0709
 20
5.3762
 30
0.0000
  0
VERTEX
  8
20
 10
66.0709
 20
6.3000
 30
0.0000
  0
SEQEND
  8
0
  0
POLYLINE
  8
20
 66
1
 10
0.0000
 20
0.0000
 30
0.0000
 40
0.1143
 41
0.1143
 70
0
  0
VERTEX
  8
20
 10
66.1281
 20
6.3000
 30
0.0000
 42
1.0000
  0
VERTEX
  8
20
 10
66.0138
 20
6.3000
 30
0.0000
  0
SEQEND
  8
0
  0
POLYLINE
  8
20
 66
1
 10
0.0000
 20
0.0000
 30
0.0000
 40
0.1143
 41
0.1143
 70
0
  0
VERTEX
  8
20
 10
66.0138
 20
5.3762
 30
0.0000
 42
1.0000
  0
VERTEX
  8
20
 10
66.1281
 20
5.3762
 30
0.0000
  0
SEQEND
  8
0
  0
POLYLINE
  8
20
 66
1
 10
0.0000
 20
0.0000
 30
0.0000
 40
0.2286
 41
0.2286
 70
0
  0
VERTEX
  8
20
 10
66.5328
 20
6.7619
 30
0.0000
 42
0.4142
  0
VERTEX
  8
20
 10
66.0709
 20
6.3000
 30
0.0000
  0
SEQEND
  8
0
  0
POLYLINE
  8
20
 66
1
 10
0.0000
 20
0.0000
 30
0.0000
 40
0.1143
 41
0.1143
 70
0
  0
VERTEX
  8
20
 10
66.5328
 20
6.7048
 30
0.0000
 42
1.0000
  0
VERTEX
  8
20
 10
66.5328
 20
6.8191
 30
0.0000
  0
SEQEND
  8
0
  0
POLYLINE
  8
20
 66
1
 10
0.0000
 20
0.0000
 30
0.0000
 40
0.1143
 41
0.1143
 70
0
  0
VERTEX
  8
20
 10
66.0138
 20
6.3000
 30
0.0000
 42
1.0000
  0
VERTEX
  8
20
 10
66.1281
 20
6.3000
 30
0.0000
  0
SEQEND
  8
0
  0
POLYLINE
  8
20
 66
1
 10
0.0000
 20
0.0000
 30
0.0000
 40
0.2286
 41
0.2286
 70
0
  0
VERTEX
  8
20
 10
66.5328
 20
6.7619
 30
0.0000
  0
VERTEX
  8
20
 10
67.3027
 20
6.7619
 30
0.0000
  0
SEQEND
  8
0
  0
POLYLINE
  8
20
 66
1
 10
0.0000
 20
0.0000
 30
0.0000
 40
0.1143
 41
0.1143
 70
0
  0
VERTEX
  8
20
 10
67.3027
 20
6.7048
 30
0.0000
 42
1.0000
  0
VERTEX
  8
20
 10
67.3027
 20
6.8191
 30
0.0000
  0
SEQEND
  8
0
  0
POLYLINE
  8
20
 66
1
 10
0.0000
 20
0.0000
 30
0.0000
 40
0.1143
 41
0.1143
 70
0
  0
VERTEX
  8
20
 10
66.5328
 20
6.8191
 30
0.0000
 42
1.0000
  0
VERTEX
  8
20
 10
66.5328
 20
6.7048
 30
0.0000
  0
SEQEND
  8
0
  0
POLYLINE
  8
20
 66
1
 10
0.0000
 20
0.0000
 30
0.0000
 40
0.2286
 41
0.2286
 70
0
  0
VERTEX
  8
20
 10
67.3027
 20
6.7619
 30
0.0000
  0
VERTEX
  8
20
 10
67.3027
 20
4.4524
 30
0.0000
  0
SEQEND
  8
0
  0
POLYLINE
  8
20
 66
1
 10
0.0000
 20
0.0000
 30
0.0000
 40
0.1143
 41
0.1143
 70
0
  0
VERTEX
  8
20
 10
67.2455
 20
4.4524
 30
0.0000
 42
1.0000
  0
VERTEX
  8
20
 10
67.3598
 20
4.4524
 30
0.0000
  0
SEQEND
  8
0
  0
POLYLINE
  8
20
 66
1
 10
0.0000
 20
0.0000
 30
0.0000
 40
0.1143
 41
0.1143
 70
0
  0
VERTEX
  8
20
 10
67.3598
 20
6.7619
 30
0.0000
 42
1.0000
  0
VERTEX
  8
20
 10
67.2455
 20
6.7619
 30
0.0000
  0
SEQEND
  8
0
  0
POLYLINE
  8
20
 66
1
 10
0.0000
 20
0.0000
 30
0.0000
 40
0.2286
 41
0.2286
 70
0
  0
VERTEX
  8
20
 10
66.8408
 20
3.9905
 30
0.0000
 42
0.4142
  0
VERTEX
  8
20
 10
67.3027
 20
4.4524
 30
0.0000
  0
SEQEND
  8
0
  0
POLYLINE
  8
20
 66
1
 10
0.0000
 20
0.0000
 30
0.0000
 40
0.1143
 41
0.1143
 70
0
  0
VERTEX
  8
20
 10
66.8408
 20
4.0476
 30
0.0000
 42
1.0000
  0
VERTEX
  8
20
 10
66.8408
 20
3.9334
 30
0.0000
  0
SEQEND
  8
0
  0
POLYLINE
  8
20
 66
1
 10
0.0000
 20
0.0000
 30
0.0000
 40
0.1143
 41
0.1143
 70
0
  0
VERTEX
  8
20
 10
67.3598
 20
4.4524
 30
0.0000
 42
1.0000
  0
VERTEX
  8
20
 10
67.2455
 20
4.4524
 30
0.0000
  0
SEQEND
  8
0
  0
POLYLINE
  8
20
 66
1
 10
0.0000
 20
0.0000
 30
0.0000
 40
0.2286
 41
0.2286
 70
0
  0
VERTEX
  8
20
 10
66.8408
 20
3.9905
 30
0.0000
  0
VERTEX
  8
20
 10
66.2249
 20
3.9905
 30
0.0000
  0
SEQEND
  8
0
  0
POLYLINE
  8
20
 66
1
 10
0.0000
 20
0.0000
 30
0.0000
 40
0.1143
 41
0.1143
 70
0
  0
VERTEX
  8
20
 10
66.2249
 20
4.0476
 30
0.0000
 42
1.0000
  0
VERTEX
  8
20
 10
66.2249
 20
3.9334
 30
0.0000
  0
SEQEND
  8
0
  0
POLYLINE
  8
20
 66
1
 10
0.0000
 20
0.0000
 30
0.0000
 40
0.1143
 41
0.1143
 70
0
  0
VERTEX
  8
20
 10
66.8408
 20
3.9334
 30
0.0000
 42
1.0000
  0
VERTEX
  8
20
 10
66.8408
 20
4.0476
 30
0.0000
  0
SEQEND
  8
0
  0
POLYLINE
  8
20
 66
1
 10
0.0000
 20
0.0000
 30
0.0000
 40
0.2032
 41
0.2032
 70
0
  0
VERTEX
  8
20
 10
10.8568
 20
36.6316
 30
0.0000
  0
VERTEX
  8
20
 10
10.3375
 20
36.6316
 30
0.0000
  0
SEQEND
  8
0
  0
POLYLINE
  8
20
 66
1
 10
0.0000
 20
0.0000
 30
0.0000
 40
0.1016
 41
0.1016
 70
0
  0
VERTEX
  8
20
 10
10.3375
 20
36.6824
 30
0.0000
 42
1.0000
  0
VERTEX
  8
20
 10
10.3375
 20
36.5808
 30
0.0000
  0
SEQEND
  8
0
  0
POLYLINE
  8
20
 66
1
 10
0.0000
 20
0.0000
 30
0.0000
 40
0.1016
 41
0.1016
 70
0
  0
VERTEX
  8
20
 10
10.8568
 20
36.5808
 30
0.0000
 42
1.0000
  0
VERTEX
  8
20
 10
10.8568
 20
36.6824
 30
0.0000
  0
SEQEND
  8
0
  0
POLYLINE
  8
20
 66
1
 10
0.0000
 20
0.0000
 30
0.0000
 40
0.2032
 41
0.2032
 70
0
  0
VERTEX
  8
20
 10
9.8183
 20
37.1509
 30
0.0000
 42
0.4142
  0
VERTEX
  8
20
 10
10.3375
 20
36.6316
 30
0.0000
  0
SEQEND
  8
0
  0
POLYLINE
  8
20
 66
1
 10
0.0000
 20
0.0000
 30
0.0000
 40
0.1016
 41
0.1016
 70
0
  0
VERTEX
  8
20
 10
9.8691
 20
37.1509
 30
0.0000
 42
1.0000
  0
VERTEX
  8
20
 10
9.7675
 20
37.1509
 30
0.0000
  0
SEQEND
  8
0
  0
POLYLINE
  8
20
 66
1
 10
0.0000
 20
0.0000
 30
0.0000
 40
0.1016
 41
0.1016
 70
0
  0
VERTEX
  8
20
 10
10.3375
 20
36.5808
 30
0.0000
 42
1.0000
  0
VERTEX
  8
20
 10
10.3375
 20
36.6824
 30
0.0000
  0
SEQEND
  8
0
  0
POLYLINE
  8
20
 66
1
 10
0.0000
 20
0.0000
 30
0.0000
 40
0.2032
 41
0.2032
 70
0
  0
VERTEX
  8
20
 10
9.8183
 20
37.1509
 30
0.0000
  0
VERTEX
  8
20
 10
9.8183
 20
38.4491
 30
0.0000
  0
SEQEND
  8
0
  0
POLYLINE
  8
20
 66
1
 10
0.0000
 20
0.0000
 30
0.0000
 40
0.1016
 41
0.1016
 70
0
  0
VERTEX
  8
20
 10
9.8691
 20
38.4491
 30
0.0000
 42
1.0000
  0
VERTEX
  8
20
 10
9.7675
 20
38.4491
 30
0.0000
  0
SEQEND
  8
0
  0
POLYLINE
  8
20
 66
1
 10
0.0000
 20
0.0000
 30
0.0000
 40
0.1016
 41
0.1016
 70
0
  0
VERTEX
  8
20
 10
9.7675
 20
37.1509
 30
0.0000
 42
1.0000
  0
VERTEX
  8
20
 10
9.8691
 20
37.1509
 30
0.0000
  0
SEQEND
  8
0
  0
POLYLINE
  8
20
 66
1
 10
0.0000
 20
0.0000
 30
0.0000
 40
0.2032
 41
0.2032
 70
0
  0
VERTEX
  8
20
 10
10.3375
 20
38.9684
 30
0.0000
 42
0.4142
  0
VERTEX
  8
20
 10
9.8183
 20
38.4491
 30
0.0000
  0
SEQEND
  8
0
  0
POLYLINE
  8
20
 66
1
 10
0.0000
 20
0.0000
 30
0.0000
 40
0.1016
 41
0.1016
 70
0
  0
VERTEX
  8
20
 10
10.3375
 20
38.9176
 30
0.0000
 42
1.0000
  0
VERTEX
  8
20
 10
10.3375
 20
39.0192
 30
0.0000
  0
SEQEND
  8
0
  0
POLYLINE
  8
20
 66
1
 10
0.0000
 20
0.0000
 30
0.0000
 40
0.1016
 41
0.1016
 70
0
  0
VERTEX
  8
20
 10
9.7675
 20
38.4491
 30
0.0000
 42
1.0000
  0
VERTEX
  8
20
 10
9.8691
 20
38.4491
 30
0.0000
  0
SEQEND
  8
0
  0
POLYLINE
  8
20
 66
1
 10
0.0000
 20
0.0000
 30
0.0000
 40
0.2032
 41
0.2032
 70
0
  0
VERTEX
  8
20
 10
10.3375
 20
38.9684
 30
0.0000
  0
VERTEX
  8
20
 10
10.8568
 20
38.9684
 30
0.0000
  0
SEQEND
  8
0
  0
POLYLINE
  8
20
 66
1
 10
0.0000
 20
0.0000
 30
0.0000
 40
0.1016
 41
0.1016
 70
0
  0
VERTEX
  8
20
 10
10.8568
 20
38.9176
 30
0.0000
 42
1.0000
  0
VERTEX
  8
20
 10
10.8568
 20
39.0192
 30
0.0000
  0
SEQEND
  8
0
  0
POLYLINE
  8
20
 66
1
 10
0.0000
 20
0.0000
 30
0.0000
 40
0.1016
 41
0.1016
 70
0
  0
VERTEX
  8
20
 10
10.3375
 20
39.0192
 30
0.0000
 42
1.0000
  0
VERTEX
  8
20
 10
10.3375
 20
38.9176
 30
0.0000
  0
SEQEND
  8
0
  0
POLYLINE
  8
20
 66
1
 10
0.0000
 20
0.0000
 30
0.0000
 40
0.2032
 41
0.2032
 70
0
  0
VERTEX
  8
20
 10
12.0704
 20
36.6316
 30
0.0000
  0
VERTEX
  8
20
 10
12.0704
 20
38.9684
 30
0.0000
  0
SEQEND
  8
0
  0
POLYLINE
  8
20
 66
1
 10
0.0000
 20
0.0000
 30
0.0000
 40
0.1016
 41
0.1016
 70
0
  0
VERTEX
  8
20
 10
12.1212
 20
38.9684
 30
0.0000
 42
1.0000
  0
VERTEX
  8
20
 10
12.0196
 20
38.9684
 30
0.0000
  0
SEQEND
  8
0
  0
POLYLINE
  8
20
 66
1
 10
0.0000
 20
0.0000
 30
0.0000
 40
0.1016
 41
0.1016
 70
0
  0
VERTEX
  8
20
 10
12.0196
 20
36.6316
 30
0.0000
 42
1.0000
  0
VERTEX
  8
20
 10
12.1212
 20
36.6316
 30
0.0000
  0
SEQEND
  8
0
  0
POLYLINE
  8
20
 66
1
 10
0.0000
 20
0.0000
 30
0.0000
 40
0.2032
 41
0.2032
 70
0
  0
VERTEX
  8
20
 10
11.4213
 20
38.9684
 30
0.0000
  0
VERTEX
  8
20
 10
12.7195
 20
38.9684
 30
0.0000
  0
SEQEND
  8
0
  0
POLYLINE
  8
20
 66
1
 10
0.0000
 20
0.0000
 30
0.0000
 40
0.1016
 41
0.1016
 70
0
  0
VERTEX
  8
20
 10
12.7195
 20
38.9176
 30
0.0000
 42
1.0000
  0
VERTEX
  8
20
 10
12.7195
 20
39.0192
 30
0.0000
  0
SEQEND
  8
0
  0
POLYLINE
  8
20
 66
1
 10
0.0000
 20
0.0000
 30
0.0000
 40
0.1016
 41
0.1016
 70
0
  0
VERTEX
  8
20
 10
11.4213
 20
39.0192
 30
0.0000
 42
1.0000
  0
VERTEX
  8
20
 10
11.4213
 20
38.9176
 30
0.0000
  0
SEQEND
  8
0
  0
POLYLINE
  8
20
 66
1
 10
0.0000
 20
0.0000
 30
0.0000
 40
0.2032
 41
0.2032
 70
0
  0
VERTEX
  8
20
 10
14.4835
 20
38.4491
 30
0.0000
  0
VERTEX
  8
20
 10
15.1326
 20
38.9684
 30
0.0000
  0
SEQEND
  8
0
  0
POLYLINE
  8
20
 66
1
 10
0.0000
 20
0.0000
 30
0.0000
 40
0.1016
 41
0.1016
 70
0
  0
VERTEX
  8
20
 10
15.1644
 20
38.9287
 30
0.0000
 42
1.0000
  0
VERTEX
  8
20
 10
15.1009
 20
39.0081
 30
0.0000
  0
SEQEND
  8
0
  0
POLYLINE
  8
20
 66
1
 10
0.0000
 20
0.0000
 30
0.0000
 40
0.1016
 41
0.1016
 70
0
  0
VERTEX
  8
20
 10
14.4518
 20
38.4888
 30
0.0000
 42
1.0000
  0
VERTEX
  8
20
 10
14.5153
 20
38.4094
 30
0.0000
  0
SEQEND
  8
0
  0
POLYLINE
  8
20
 66
1
 10
0.0000
 20
0.0000
 30
0.0000
 40
0.2032
 41
0.2032
 70
0
  0
VERTEX
  8
20
 10
15.1326
 20
38.9684
 30
0.0000
  0
VERTEX
  8
20
 10
15.1326
 20
36.6316
 30
0.0000
  0
SEQEND
  8
0
  0
POLYLINE
  8
20
 66
1
 10
0.0000
 20
0.0000
 30
0.0000
 40
0.1016
 41
0.1016
 70
0
  0
VERTEX
  8
20
 10
15.0818
 20
36.6316
 30
0.0000
 42
1.0000
  0
VERTEX
  8
20
 10
15.1834
 20
36.6316
 30
0.0000
  0
SEQEND
  8
0
  0
POLYLINE
  8
20
 66
1
 10
0.0000
 20
0.0000
 30
0.0000
 40
0.1016
 41
0.1016
 70
0
  0
VERTEX
  8
20
 10
15.1834
 20
38.9684
 30
0.0000
 42
1.0000
  0
VERTEX
  8
20
 10
15.0818
 20
38.9684
 30
0.0000
  0
SEQEND
  8
0
  0
POLYLINE
  8
20
 66
1
 10
0.0000
 20
0.0000
 30
0.0000
 40
0.2032
 41
0.2032
 70
0
  0
VERTEX
  8
20
 10
14.4835
 20
36.6316
 30
0.0000
  0
VERTEX
  8
20
 10
15.7818
 20
36.6316
 30
0.0000
  0
SEQEND
  8
0
  0
POLYLINE
  8
20
 66
1
 10
0.0000
 20
0.0000
 30
0.0000
 40
0.1016
 41
0.1016
 70
0
  0
VERTEX
  8
20
 10
15.7818
 20
36.5808
 30
0.0000
 42
1.0000
  0
VERTEX
  8
20
 10
15.7818
 20
36.6824
 30
0.0000
  0
SEQEND
  8
0
  0
POLYLINE
  8
20
 66
1
 10
0.0000
 20
0.0000
 30
0.0000
 40
0.1016
 41
0.1016
 70
0
  0
VERTEX
  8
20
 10
14.4835
 20
36.6824
 30
0.0000
 42
1.0000
  0
VERTEX
  8
20
 10
14.4835
 20
36.5808
 30
0.0000
  0
SEQEND
  8
0
  0
POLYLINE
  8
20
 66
1
 10
0.0000
 20
0.0000
 30
0.0000
 40
0.2032
 41
0.2032
 70
0
  0
VERTEX
  8
20
 10
23.8568
 20
36.6316
 30
0.0000
  0
VERTEX
  8
20
 10
23.3375
 20
36.6316
 30
0.0000
  0
SEQEND
  8
0
  0
POLYLINE
  8
20
 66
1
 10
0.0000
 20
0.0000
 30
0.0000
 40
0.1016
 41
0.1016
 70
0
  0
VERTEX
  8
20
 10
23.3375
 20
36.6824
 30
0.0000
 42
1.0000
  0
VERTEX
  8
20
 10
23.3375
 20
36.5808
 30
0.0000
  0
SEQEND
  8
0
  0
POLYLINE
  8
20
 66
1
 10
0.0000
 20
0.0000
 30
0.0000
 40
0.1016
 41
0.1016
 70
0
  0
VERTEX
  8
20
 10
23.8568
 20
36.5808
 30
0.0000
 42
1.0000
  0
VERTEX
  8
20
 10
23.8568
 20
36.6824
 30
0.0000
  0
SEQEND
  8
0
  0
POLYLINE
  8
20
 66
1
 10
0.0000
 20
0.0000
 30
0.0000
 40
0.2032
 41
0.2032
 70
0
  0
VERTEX
  8
20
 10
22.8183
 20
37.1509
 30
0.0000
 42
0.4142
  0
VERTEX
  8
20
 10
23.3375
 20
36.6316
 30
0.0000
  0
SEQEND
  8
0
  0
POLYLINE
  8
20
 66
1
 10
0.0000
 20
0.0000
 30
0.0000
 40
0.1016
 41
0.1016
 70
0
  0
VERTEX
  8
20
 10
22.8691
 20
37.1509
 30
0.0000
 42
1.0000
  0
VERTEX
  8
20
 10
22.7675
 20
37.1509
 30
0.0000
  0
SEQEND
  8
0
  0
POLYLINE
  8
20
 66
1
 10
0.0000
 20
0.0000
 30
0.0000
 40
0.1016
 41
0.1016
 70
0
  0
VERTEX
  8
20
 10
23.3375
 20
36.5808
 30
0.0000
 42
1.0000
  0
VERTEX
  8
20
 10
23.3375
 20
36.6824
 30
0.0000
  0
SEQEND
  8
0
  0
POLYLINE
  8
20
 66
1
 10
0.0000
 20
0.0000
 30
0.0000
 40
0.2032
 41
0.2032
 70
0
  0
VERTEX
  8
20
 10
22.8183
 20
37.1509
 30
0.0000
  0
VERTEX
  8
20
 10
22.8183
 20
38.4491
 30
0.0000
  0
SEQEND
  8
0
  0
POLYLINE
  8
20
 66
1
 10
0.0000
 20
0.0000
 30
0.0000
 40
0.1016
 41
0.1016
 70
0
  0
VERTEX
  8
20
 10
22.8691
 20
38.4491
 30
0.0000
 42
1.0000
  0
VERTEX
  8
20
 10
22.7675
 20
38.4491
 30
0.0000
  0
SEQEND
  8
0
  0
POLYLINE
  8
20
 66
1
 10
0.0000
 20
0.0000
 30
0.0000
 40
0.1016
 41
0.1016
 70
0
  0
VERTEX
  8
20
 10
22.7675
 20
37.1509
 30
0.0000
 42
1.0000
  0
VERTEX
  8
20
 10
22.8691
 20
37.1509
 30
0.0000
  0
SEQEND
  8
0
  0
POLYLINE
  8
20
 66
1
 10
0.0000
 20
0.0000
 30
0.0000
 40
0.2032
 41
0.2032
 70
0
  0
VERTEX
  8
20
 10
23.3375
 20
38.9684
 30
0.0000
 42
0.4142
  0
VERTEX
  8
20
 10
22.8183
 20
38.4491
 30
0.0000
  0
SEQEND
  8
0
  0
POLYLINE
  8
20
 66
1
 10
0.0000
 20
0.0000
 30
0.0000
 40
0.1016
 41
0.1016
 70
0
  0
VERTEX
  8
20
 10
23.3375
 20
38.9176
 30
0.0000
 42
1.0000
  0
VERTEX
  8
20
 10
23.3375
 20
39.0192
 30
0.0000
  0
SEQEND
  8
0
  0
POLYLINE
  8
20
 66
1
 10
0.0000
 20
0.0000
 30
0.0000
 40
0.1016
 41
0.1016
 70
0
  0
VERTEX
  8
20
 10
22.7675
 20
38.4491
 30
0.0000
 42
1.0000
  0
VERTEX
  8
20
 10
22.8691
 20
38.4491
 30
0.0000
  0
SEQEND
  8
0
  0
POLYLINE
  8
20
 66
1
 10
0.0000
 20
0.0000
 30
0.0000
 40
0.2032
 41
0.2032
 70
0
  0
VERTEX
  8
20
 10
23.3375
 20
38.9684
 30
0.0000
  0
VERTEX
  8
20
 10
23.8568
 20
38.9684
 30
0.0000
  0
SEQEND
  8
0
  0
POLYLINE
  8
20
 66
1
 10
0.0000
 20
0.0000
 30
0.0000
 40
0.1016
 41
0.1016
 70
0
  0
VERTEX
  8
20
 10
23.8568
 20
38.9176
 30
0.0000
 42
1.0000
  0
VERTEX
  8
20
 10
23.8568
 20
39.0192
 30
0.0000
  0
SEQEND
  8
0
  0
POLYLINE
  8
20
 66
1
 10
0.0000
 20
0.0000
 30
0.0000
 40
0.1016
 41
0.1016
 70
0
  0
VERTEX
  8
20
 10
23.3375
 20
39.0192
 30
0.0000
 42
1.0000
  0
VERTEX
  8
20
 10
23.3375
 20
38.9176
 30
0.0000
  0
SEQEND
  8
0
  0
POLYLINE
  8
20
 66
1
 10
0.0000
 20
0.0000
 30
0.0000
 40
0.2032
 41
0.2032
 70
0
  0
VERTEX
  8
20
 10
25.0704
 20
36.6316
 30
0.0000
  0
VERTEX
  8
20
 10
25.0704
 20
38.9684
 30
0.0000
  0
SEQEND
  8
0
  0
POLYLINE
  8
20
 66
1
 10
0.0000
 20
0.0000
 30
0.0000
 40
0.1016
 41
0.1016
 70
0
  0
VERTEX
  8
20
 10
25.1212
 20
38.9684
 30
0.0000
 42
1.0000
  0
VERTEX
  8
20
 10
25.0196
 20
38.9684
 30
0.0000
  0
SEQEND
  8
0
  0
POLYLINE
  8
20
 66
1
 10
0.0000
 20
0.0000
 30
0.0000
 40
0.1016
 41
0.1016
 70
0
  0
VERTEX
  8
20
 10
25.0196
 20
36.6316
 30
0.0000
 42
1.0000
  0
VERTEX
  8
20
 10
25.1212
 20
36.6316
 30
0.0000
  0
SEQEND
  8
0
  0
POLYLINE
  8
20
 66
1
 10
0.0000
 20
0.0000
 30
0.0000
 40
0.2032
 41
0.2032
 70
0
  0
VERTEX
  8
20
 10
24.4213
 20
38.9684
 30
0.0000
  0
VERTEX
  8
20
 10
25.7195
 20
38.9684
 30
0.0000
  0
SEQEND
  8
0
  0
POLYLINE
  8
20
 66
1
 10
0.0000
 20
0.0000
 30
0.0000
 40
0.1016
 41
0.1016
 70
0
  0
VERTEX
  8
20
 10
25.7195
 20
38.9176
 30
0.0000
 42
1.0000
  0
VERTEX
  8
20
 10
25.7195
 20
39.0192
 30
0.0000
  0
SEQEND
  8
0
  0
POLYLINE
  8
20
 66
1
 10
0.0000
 20
0.0000
 30
0.0000
 40
0.1016
 41
0.1016
 70
0
  0
VERTEX
  8
20
 10
24.4213
 20
39.0192
 30
0.0000
 42
1.0000
  0
VERTEX
  8
20
 10
24.4213
 20
38.9176
 30
0.0000
  0
SEQEND
  8
0
  0
POLYLINE
  8
20
 66
1
 10
0.0000
 20
0.0000
 30
0.0000
 40
0.2032
 41
0.2032
 70
0
  0
VERTEX
  8
20
 10
28.7818
 20
38.3842
 30
0.0000
 42
0.4142
  0
VERTEX
  8
20
 10
28.1976
 20
38.9684
 30
0.0000
  0
SEQEND
  8
0
  0
POLYLINE
  8
20
 66
1
 10
0.0000
 20
0.0000
 30
0.0000
 40
0.1016
 41
0.1016
 70
0
  0
VERTEX
  8
20
 10
28.7310
 20
38.3842
 30
0.0000
 42
1.0000
  0
VERTEX
  8
20
 10
28.8326
 20
38.3842
 30
0.0000
  0
SEQEND
  8
0
  0
POLYLINE
  8
20
 66
1
 10
0.0000
 20
0.0000
 30
0.0000
 40
0.1016
 41
0.1016
 70
0
  0
VERTEX
  8
20
 10
28.1976
 20
39.0192
 30
0.0000
 42
1.0000
  0
VERTEX
  8
20
 10
28.1976
 20
38.9176
 30
0.0000
  0
SEQEND
  8
0
  0
POLYLINE
  8
20
 66
1
 10
0.0000
 20
0.0000
 30
0.0000
 40
0.2032
 41
0.2032
 70
0
  0
VERTEX
  8
20
 10
28.1976
 20
38.9684
 30
0.0000
 42
0.3252
  0
VERTEX
  8
20
 10
27.4835
 20
38.4491
 30
0.0000
  0
SEQEND
  8
0
  0
POLYLINE
  8
20
 66
1
 10
0.0000
 20
0.0000
 30
0.0000
 40
0.1016
 41
0.1016
 70
0
  0
VERTEX
  8
20
 10
28.1976
 20
38.9176
 30
0.0000
 42
1.0000
  0
VERTEX
  8
20
 10
28.1976
 20
39.0192
 30
0.0000
  0
SEQEND
  8
0
  0
POLYLINE
  8
20
 66
1
 10
0.0000
 20
0.0000
 30
0.0000
 40
0.1016
 41
0.1016
 70
0
  0
VERTEX
  8
20
 10
27.4352
 20
38.4648
 30
0.0000
 42
1.0000
  0
VERTEX
  8
20
 10
27.5319
 20
38.4335
 30
0.0000
  0
SEQEND
  8
0
  0
POLYLINE
  8
20
 66
1
 10
0.0000
 20
0.0000
 30
0.0000
 40
0.2032
 41
0.2032
 70
0
  0
VERTEX
  8
20
 10
28.5870
 20
37.9298
 30
0.0000
 42
0.2053
  0
VERTEX
  8
20
 10
28.7818
 20
38.3842
 30
0.0000
  0
SEQEND
  8
0
  0
POLYLINE
  8
20
 66
1
 10
0.0000
 20
0.0000
 30
0.0000
 40
0.1016
 41
0.1016
 70
0
  0
VERTEX
  8
20
 10
28.5520
 20
37.9666
 30
0.0000
 42
1.0000
  0
VERTEX
  8
20
 10
28.6221
 20
37.8930
 30
0.0000
  0
SEQEND
  8
0
  0
POLYLINE
  8
20
 66
1
 10
0.0000
 20
0.0000
 30
0.0000
 40
0.1016
 41
0.1016
 70
0
  0
VERTEX
  8
20
 10
28.8326
 20
38.3842
 30
0.0000
 42
1.0000
  0
VERTEX
  8
20
 10
28.7310
 20
38.3842
 30
0.0000
  0
SEQEND
  8
0
  0
POLYLINE
  8
20
 66
1
 10
0.0000
 20
0.0000
 30
0.0000
 40
0.2032
 41
0.2032
 70
0
  0
VERTEX
  8
20
 10
28.5870
 20
37.9298
 30
0.0000
  0
VERTEX
  8
20
 10
27.4835
 20
36.6316
 30
0.0000
  0
SEQEND
  8
0
  0
POLYLINE
  8
20
 66
1
 10
0.0000
 20
0.0000
 30
0.0000
 40
0.1016
 41
0.1016
 70
0
  0
VERTEX
  8
20
 10
27.4448
 20
36.6645
 30
0.0000
 42
1.0000
  0
VERTEX
  8
20
 10
27.5222
 20
36.5987
 30
0.0000
  0
SEQEND
  8
0
  0
POLYLINE
  8
20
 66
1
 10
0.0000
 20
0.0000
 30
0.0000
 40
0.1016
 41
0.1016
 70
0
  0
VERTEX
  8
20
 10
28.6257
 20
37.8969
 30
0.0000
 42
1.0000
  0
VERTEX
  8
20
 10
28.5483
 20
37.9627
 30
0.0000
  0
SEQEND
  8
0
  0
POLYLINE
  8
20
 66
1
 10
0.0000
 20
0.0000
 30
0.0000
 40
0.2032
 41
0.2032
 70
0
  0
VERTEX
  8
20
 10
27.4835
 20
36.6316
 30
0.0000
  0
VERTEX
  8
20
 10
28.7818
 20
36.6316
 30
0.0000
  0
SEQEND
  8
0
  0
POLYLINE
  8
20
 66
1
 10
0.0000
 20
0.0000
 30
0.0000
 40
0.1016
 41
0.1016
 70
0
  0
VERTEX
  8
20
 10
28.7818
 20
36.5808
 30
0.0000
 42
1.0000
  0
VERTEX
  8
20
 10
28.7818
 20
36.6824
 30
0.0000
  0
SEQEND
  8
0
  0
POLYLINE
  8
20
 66
1
 10
0.0000
 20
0.0000
 30
0.0000
 40
0.1016
 41
0.1016
 70
0
  0
VERTEX
  8
20
 10
27.4835
 20
36.6824
 30
0.0000
 42
1.0000
  0
VERTEX
  8
20
 10
27.4835
 20
36.5808
 30
0.0000
  0
SEQEND
  8
0
  0
POLYLINE
  8
20
 66
1
 10
0.0000
 20
0.0000
 30
0.0000
 40
0.2032
 41
0.2032
 70
0
  0
VERTEX
  8
20
 10
36.8568
 20
36.6316
 30
0.0000
  0
VERTEX
  8
20
 10
36.3375
 20
36.6316
 30
0.0000
  0
SEQEND
  8
0
  0
POLYLINE
  8
20
 66
1
 10
0.0000
 20
0.0000
 30
0.0000
 40
0.1016
 41
0.1016
 70
0
  0
VERTEX
  8
20
 10
36.3375
 20
36.6824
 30
0.0000
 42
1.0000
  0
VERTEX
  8
20
 10
36.3375
 20
36.5808
 30
0.0000
  0
SEQEND
  8
0
  0
POLYLINE
  8
20
 66
1
 10
0.0000
 20
0.0000
 30
0.0000
 40
0.1016
 41
0.1016
 70
0
  0
VERTEX
  8
20
 10
36.8568
 20
36.5808
 30
0.0000
 42
1.0000
  0
VERTEX
  8
20
 10
36.8568
 20
36.6824
 30
0.0000
  0
SEQEND
  8
0
  0
POLYLINE
  8
20
 66
1
 10
0.0000
 20
0.0000
 30
0.0000
 40
0.2032
 41
0.2032
 70
0
  0
VERTEX
  8
20
 10
35.8182
 20
37.1509
 30
0.0000
 42
0.4142
  0
VERTEX
  8
20
 10
36.3375
 20
36.6316
 30
0.0000
  0
SEQEND
  8
0
  0
POLYLINE
  8
20
 66
1
 10
0.0000
 20
0.0000
 30
0.0000
 40
0.1016
 41
0.1016
 70
0
  0
VERTEX
  8
20
 10
35.8691
 20
37.1509
 30
0.0000
 42
1.0000
  0
VERTEX
  8
20
 10
35.7674
 20
37.1509
 30
0.0000
  0
SEQEND
  8
0
  0
POLYLINE
  8
20
 66
1
 10
0.0000
 20
0.0000
 30
0.0000
 40
0.1016
 41
0.1016
 70
0
  0
VERTEX
  8
20
 10
36.3375
 20
36.5808
 30
0.0000
 42
1.0000
  0
VERTEX
  8
20
 10
36.3375
 20
36.6824
 30
0.0000
  0
SEQEND
  8
0
  0
POLYLINE
  8
20
 66
1
 10
0.0000
 20
0.0000
 30
0.0000
 40
0.2032
 41
0.2032
 70
0
  0
VERTEX
  8
20
 10
35.8182
 20
37.1509
 30
0.0000
  0
VERTEX
  8
20
 10
35.8182
 20
38.4491
 30
0.0000
  0
SEQEND
  8
0
  0
POLYLINE
  8
20
 66
1
 10
0.0000
 20
0.0000
 30
0.0000
 40
0.1016
 41
0.1016
 70
0
  0
VERTEX
  8
20
 10
35.8691
 20
38.4491
 30
0.0000
 42
1.0000
  0
VERTEX
  8
20
 10
35.7674
 20
38.4491
 30
0.0000
  0
SEQEND
  8
0
  0
POLYLINE
  8
20
 66
1
 10
0.0000
 20
0.0000
 30
0.0000
 40
0.1016
 41
0.1016
 70
0
  0
VERTEX
  8
20
 10
35.7674
 20
37.1509
 30
0.0000
 42
1.0000
  0
VERTEX
  8
20
 10
35.8691
 20
37.1509
 30
0.0000
  0
SEQEND
  8
0
  0
POLYLINE
  8
20
 66
1
 10
0.0000
 20
0.0000
 30
0.0000
 40
0.2032
 41
0.2032
 70
0
  0
VERTEX
  8
20
 10
36.3375
 20
38.9684
 30
0.0000
 42
0.4142
  0
VERTEX
  8
20
 10
35.8182
 20
38.4491
 30
0.0000
  0
SEQEND
  8
0
  0
POLYLINE
  8
20
 66
1
 10
0.0000
 20
0.0000
 30
0.0000
 40
0.1016
 41
0.1016
 70
0
  0
VERTEX
  8
20
 10
36.3375
 20
38.9176
 30
0.0000
 42
1.0000
  0
VERTEX
  8
20
 10
36.3375
 20
39.0192
 30
0.0000
  0
SEQEND
  8
0
  0
POLYLINE
  8
20
 66
1
 10
0.0000
 20
0.0000
 30
0.0000
 40
0.1016
 41
0.1016
 70
0
  0
VERTEX
  8
20
 10
35.7674
 20
38.4491
 30
0.0000
 42
1.0000
  0
VERTEX
  8
20
 10
35.8691
 20
38.4491
 30
0.0000
  0
SEQEND
  8
0
  0
POLYLINE
  8
20
 66
1
 10
0.0000
 20
0.0000
 30
0.0000
 40
0.2032
 41
0.2032
 70
0
  0
VERTEX
  8
20
 10
36.3375
 20
38.9684
 30
0.0000
  0
VERTEX
  8
20
 10
36.8568
 20
38.9684
 30
0.0000
  0
SEQEND
  8
0
  0
POLYLINE
  8
20
 66
1
 10
0.0000
 20
0.0000
 30
0.0000
 40
0.1016
 41
0.1016
 70
0
  0
VERTEX
  8
20
 10
36.8568
 20
38.9176
 30
0.0000
 42
1.0000
  0
VERTEX
  8
20
 10
36.8568
 20
39.0192
 30
0.0000
  0
SEQEND
  8
0
  0
POLYLINE
  8
20
 66
1
 10
0.0000
 20
0.0000
 30
0.0000
 40
0.1016
 41
0.1016
 70
0
  0
VERTEX
  8
20
 10
36.3375
 20
39.0192
 30
0.0000
 42
1.0000
  0
VERTEX
  8
20
 10
36.3375
 20
38.9176
 30
0.0000
  0
SEQEND
  8
0
  0
POLYLINE
  8
20
 66
1
 10
0.0000
 20
0.0000
 30
0.0000
 40
0.2032
 41
0.2032
 70
0
  0
VERTEX
  8
20
 10
38.0704
 20
36.6316
 30
0.0000
  0
VERTEX
  8
20
 10
38.0704
 20
38.9684
 30
0.0000
  0
SEQEND
  8
0
  0
POLYLINE
  8
20
 66
1
 10
0.0000
 20
0.0000
 30
0.0000
 40
0.1016
 41
0.1016
 70
0
  0
VERTEX
  8
20
 10
38.1212
 20
38.9684
 30
0.0000
 42
1.0000
  0
VERTEX
  8
20
 10
38.0196
 20
38.9684
 30
0.0000
  0
SEQEND
  8
0
  0
POLYLINE
  8
20
 66
1
 10
0.0000
 20
0.0000
 30
0.0000
 40
0.1016
 41
0.1016
 70
0
  0
VERTEX
  8
20
 10
38.0196
 20
36.6316
 30
0.0000
 42
1.0000
  0
VERTEX
  8
20
 10
38.1212
 20
36.6316
 30
0.0000
  0
SEQEND
  8
0
  0
POLYLINE
  8
20
 66
1
 10
0.0000
 20
0.0000
 30
0.0000
 40
0.2032
 41
0.2032
 70
0
  0
VERTEX
  8
20
 10
37.4213
 20
38.9684
 30
0.0000
  0
VERTEX
  8
20
 10
38.7195
 20
38.9684
 30
0.0000
  0
SEQEND
  8
0
  0
POLYLINE
  8
20
 66
1
 10
0.0000
 20
0.0000
 30
0.0000
 40
0.1016
 41
0.1016
 70
0
  0
VERTEX
  8
20
 10
38.7195
 20
38.9176
 30
0.0000
 42
1.0000
  0
VERTEX
  8
20
 10
38.7195
 20
39.0192
 30
0.0000
  0
SEQEND
  8
0
  0
POLYLINE
  8
20
 66
1
 10
0.0000
 20
0.0000
 30
0.0000
 40
0.1016
 41
0.1016
 70
0
  0
VERTEX
  8
20
 10
37.4213
 20
39.0192
 30
0.0000
 42
1.0000
  0
VERTEX
  8
20
 10
37.4213
 20
38.9176
 30
0.0000
  0
SEQEND
  8
0
  0
POLYLINE
  8
20
 66
1
 10
0.0000
 20
0.0000
 30
0.0000
 40
0.2032
 41
0.2032
 70
0
  0
VERTEX
  8
20
 10
40.4835
 20
36.6316
 30
0.0000
  0
VERTEX
  8
20
 10
41.1326
 20
36.6316
 30
0.0000
  0
SEQEND
  8
0
  0
POLYLINE
  8
20
 66
1
 10
0.0000
 20
0.0000
 30
0.0000
 40
0.1016
 41
0.1016
 70
0
  0
VERTEX
  8
20
 10
41.1326
 20
36.5808
 30
0.0000
 42
1.0000
  0
VERTEX
  8
20
 10
41.1326
 20
36.6824
 30
0.0000
  0
SEQEND
  8
0
  0
POLYLINE
  8
20
 66
1
 10
0.0000
 20
0.0000
 30
0.0000
 40
0.1016
 41
0.1016
 70
0
  0
VERTEX
  8
20
 10
40.4835
 20
36.6824
 30
0.0000
 42
1.0000
  0
VERTEX
  8
20
 10
40.4835
 20
36.5808
 30
0.0000
  0
SEQEND
  8
0
  0
POLYLINE
  8
20
 66
1
 10
0.0000
 20
0.0000
 30
0.0000
 40
0.2032
 41
0.2032
 70
0
  0
VERTEX
  8
20
 10
41.1326
 20
36.6316
 30
0.0000
 42
1.0000
  0
VERTEX
  8
20
 10
41.1326
 20
37.9298
 30
0.0000
  0
SEQEND
  8
0
  0
POLYLINE
  8
20
 66
1
 10
0.0000
 20
0.0000
 30
0.0000
 40
0.1016
 41
0.1016
 70
0
  0
VERTEX
  8
20
 10
41.1326
 20
36.6824
 30
0.0000
 42
1.0000
  0
VERTEX
  8
20
 10
41.1326
 20
36.5808
 30
0.0000
  0
SEQEND
  8
0
  0
POLYLINE
  8
20
 66
1
 10
0.0000
 20
0.0000
 30
0.0000
 40
0.1016
 41
0.1016
 70
0
  0
VERTEX
  8
20
 10
41.1326
 20
37.9806
 30
0.0000
 42
1.0000
  0
VERTEX
  8
20
 10
41.1326
 20
37.8790
 30
0.0000
  0
SEQEND
  8
0
  0
POLYLINE
  8
20
 66
1
 10
0.0000
 20
0.0000
 30
0.0000
 40
0.2032
 41
0.2032
 70
0
  0
VERTEX
  8
20
 10
40.4835
 20
38.9684
 30
0.0000
  0
VERTEX
  8
20
 10
41.2625
 20
38.9684
 30
0.0000
  0
SEQEND
  8
0
  0
POLYLINE
  8
20
 66
1
 10
0.0000
 20
0.0000
 30
0.0000
 40
0.1016
 41
0.1016
 70
0
  0
VERTEX
  8
20
 10
41.2625
 20
38.9176
 30
0.0000
 42
1.0000
  0
VERTEX
  8
20
 10
41.2625
 20
39.0192
 30
0.0000
  0
SEQEND
  8
0
  0
POLYLINE
  8
20
 66
1
 10
0.0000
 20
0.0000
 30
0.0000
 40
0.1016
 41
0.1016
 70
0
  0
VERTEX
  8
20
 10
40.4835
 20
39.0192
 30
0.0000
 42
1.0000
  0
VERTEX
  8
20
 10
40.4835
 20
38.9176
 30
0.0000
  0
SEQEND
  8
0
  0
POLYLINE
  8
20
 66
1
 10
0.0000
 20
0.0000
 30
0.0000
 40
0.2032
 41
0.2032
 70
0
  0
VERTEX
  8
20
 10
41.2625
 20
37.9298
 30
0.0000
 42
1.0000
  0
VERTEX
  8
20
 10
41.2625
 20
38.9684
 30
0.0000
  0
SEQEND
  8
0
  0
POLYLINE
  8
20
 66
1
 10
0.0000
 20
0.0000
 30
0.0000
 40
0.1016
 41
0.1016
 70
0
  0
VERTEX
  8
20
 10
41.2625
 20
37.9806
 30
0.0000
 42
1.0000
  0
VERTEX
  8
20
 10
41.2625
 20
37.8790
 30
0.0000
  0
SEQEND
  8
0
  0
POLYLINE
  8
20
 66
1
 10
0.0000
 20
0.0000
 30
0.0000
 40
0.1016
 41
0.1016
 70
0
  0
VERTEX
  8
20
 10
41.2625
 20
39.0192
 30
0.0000
 42
1.0000
  0
VERTEX
  8
20
 10
41.2625
 20
38.9176
 30
0.0000
  0
SEQEND
  8
0
  0
POLYLINE
  8
20
 66
1
 10
0.0000
 20
0.0000
 30
0.0000
 40
0.2032
 41
0.2032
 70
0
  0
VERTEX
  8
20
 10
41.2625
 20
37.9298
 30
0.0000
  0
VERTEX
  8
20
 10
40.7432
 20
37.9298
 30
0.0000
  0
SEQEND
  8
0
  0
POLYLINE
  8
20
 66
1
 10
0.0000
 20
0.0000
 30
0.0000
 40
0.1016
 41
0.1016
 70
0
  0
VERTEX
  8
20
 10
40.7432
 20
37.9806
 30
0.0000
 42
1.0000
  0
VERTEX
  8
20
 10
40.7432
 20
37.8790
 30
0.0000
  0
SEQEND
  8
0
  0
POLYLINE
  8
20
 66
1
 10
0.0000
 20
0.0000
 30
0.0000
 40
0.1016
 41
0.1016
 70
0
  0
VERTEX
  8
20
 10
41.2625
 20
37.8790
 30
0.0000
 42
1.0000
  0
VERTEX
  8
20
 10
41.2625
 20
37.9806
 30
0.0000
  0
SEQEND
  8
0
  0
POLYLINE
  8
20
 66
1
 10
0.0000
 20
0.0000
 30
0.0000
 40
0.2032
 41
0.2032
 70
0
  0
VERTEX
  8
20
 10
50.8568
 20
36.6316
 30
0.0000
  0
VERTEX
  8
20
 10
50.3375
 20
36.6316
 30
0.0000
  0
SEQEND
  8
0
  0
POLYLINE
  8
20
 66
1
 10
0.0000
 20
0.0000
 30
0.0000
 40
0.1016
 41
0.1016
 70
0
  0
VERTEX
  8
20
 10
50.3375
 20
36.6824
 30
0.0000
 42
1.0000
  0
VERTEX
  8
20
 10
50.3375
 20
36.5808
 30
0.0000
  0
SEQEND
  8
0
  0
POLYLINE
  8
20
 66
1
 10
0.0000
 20
0.0000
 30
0.0000
 40
0.1016
 41
0.1016
 70
0
  0
VERTEX
  8
20
 10
50.8568
 20
36.5808
 30
0.0000
 42
1.0000
  0
VERTEX
  8
20
 10
50.8568
 20
36.6824
 30
0.0000
  0
SEQEND
  8
0
  0
POLYLINE
  8
20
 66
1
 10
0.0000
 20
0.0000
 30
0.0000
 40
0.2032
 41
0.2032
 70
0
  0
VERTEX
  8
20
 10
49.8182
 20
37.1509
 30
0.0000
 42
0.4142
  0
VERTEX
  8
20
 10
50.3375
 20
36.6316
 30
0.0000
  0
SEQEND
  8
0
  0
POLYLINE
  8
20
 66
1
 10
0.0000
 20
0.0000
 30
0.0000
 40
0.1016
 41
0.1016
 70
0
  0
VERTEX
  8
20
 10
49.8691
 20
37.1509
 30
0.0000
 42
1.0000
  0
VERTEX
  8
20
 10
49.7674
 20
37.1509
 30
0.0000
  0
SEQEND
  8
0
  0
POLYLINE
  8
20
 66
1
 10
0.0000
 20
0.0000
 30
0.0000
 40
0.1016
 41
0.1016
 70
0
  0
VERTEX
  8
20
 10
50.3375
 20
36.5808
 30
0.0000
 42
1.0000
  0
VERTEX
  8
20
 10
50.3375
 20
36.6824
 30
0.0000
  0
SEQEND
  8
0
  0
POLYLINE
  8
20
 66
1
 10
0.0000
 20
0.0000
 30
0.0000
 40
0.2032
 41
0.2032
 70
0
  0
VERTEX
  8
20
 10
49.8182
 20
37.1509
 30
0.0000
  0
VERTEX
  8
20
 10
49.8182
 20
38.4491
 30
0.0000
  0
SEQEND
  8
0
  0
POLYLINE
  8
20
 66
1
 10
0.0000
 20
0.0000
 30
0.0000
 40
0.1016
 41
0.1016
 70
0
  0
VERTEX
  8
20
 10
49.8691
 20
38.4491
 30
0.0000
 42
1.0000
  0
VERTEX
  8
20
 10
49.7674
 20
38.4491
 30
0.0000
  0
SEQEND
  8
0
  0
POLYLINE
  8
20
 66
1
 10
0.0000
 20
0.0000
 30
0.0000
 40
0.1016
 41
0.1016
 70
0
  0
VERTEX
  8
20
 10
49.7674
 20
37.1509
 30
0.0000
 42
1.0000
  0
VERTEX
  8
20
 10
49.8691
 20
37.1509
 30
0.0000
  0
SEQEND
  8
0
  0
POLYLINE
  8
20
 66
1
 10
0.0000
 20
0.0000
 30
0.0000
 40
0.2032
 41
0.2032
 70
0
  0
VERTEX
  8
20
 10
50.3375
 20
38.9684
 30
0.0000
 42
0.4142
  0
VERTEX
  8
20
 10
49.8182
 20
38.4491
 30
0.0000
  0
SEQEND
  8
0
  0
POLYLINE
  8
20
 66
1
 10
0.0000
 20
0.0000
 30
0.0000
 40
0.1016
 41
0.1016
 70
0
  0
VERTEX
  8
20
 10
50.3375
 20
38.9176
 30
0.0000
 42
1.0000
  0
VERTEX
  8
20
 10
50.3375
 20
39.0192
 30
0.0000
  0
SEQEND
  8
0
  0
POLYLINE
  8
20
 66
1
 10
0.0000
 20
0.0000
 30
0.0000
 40
0.1016
 41
0.1016
 70
0
  0
VERTEX
  8
20
 10
49.7674
 20
38.4491
 30
0.0000
 42
1.0000
  0
VERTEX
  8
20
 10
49.8691
 20
38.4491
 30
0.0000
  0
SEQEND
  8
0
  0
POLYLINE
  8
20
 66
1
 10
0.0000
 20
0.0000
 30
0.0000
 40
0.2032
 41
0.2032
 70
0
  0
VERTEX
  8
20
 10
50.3375
 20
38.9684
 30
0.0000
  0
VERTEX
  8
20
 10
50.8568
 20
38.9684
 30
0.0000
  0
SEQEND
  8
0
  0
POLYLINE
  8
20
 66
1
 10
0.0000
 20
0.0000
 30
0.0000
 40
0.1016
 41
0.1016
 70
0
  0
VERTEX
  8
20
 10
50.8568
 20
38.9176
 30
0.0000
 42
1.0000
  0
VERTEX
  8
20
 10
50.8568
 20
39.0192
 30
0.0000
  0
SEQEND
  8
0
  0
POLYLINE
  8
20
 66
1
 10
0.0000
 20
0.0000
 30
0.0000
 40
0.1016
 41
0.1016
 70
0
  0
VERTEX
  8
20
 10
50.3375
 20
39.0192
 30
0.0000
 42
1.0000
  0
VERTEX
  8
20
 10
50.3375
 20
38.9176
 30
0.0000
  0
SEQEND
  8
0
  0
POLYLINE
  8
20
 66
1
 10
0.0000
 20
0.0000
 30
0.0000
 40
0.2032
 41
0.2032
 70
0
  0
VERTEX
  8
20
 10
52.0704
 20
36.6316
 30
0.0000
  0
VERTEX
  8
20
 10
52.0704
 20
38.9684
 30
0.0000
  0
SEQEND
  8
0
  0
POLYLINE
  8
20
 66
1
 10
0.0000
 20
0.0000
 30
0.0000
 40
0.1016
 41
0.1016
 70
0
  0
VERTEX
  8
20
 10
52.1212
 20
38.9684
 30
0.0000
 42
1.0000
  0
VERTEX
  8
20
 10
52.0196
 20
38.9684
 30
0.0000
  0
SEQEND
  8
0
  0
POLYLINE
  8
20
 66
1
 10
0.0000
 20
0.0000
 30
0.0000
 40
0.1016
 41
0.1016
 70
0
  0
VERTEX
  8
20
 10
52.0196
 20
36.6316
 30
0.0000
 42
1.0000
  0
VERTEX
  8
20
 10
52.1212
 20
36.6316
 30
0.0000
  0
SEQEND
  8
0
  0
POLYLINE
  8
20
 66
1
 10
0.0000
 20
0.0000
 30
0.0000
 40
0.2032
 41
0.2032
 70
0
  0
VERTEX
  8
20
 10
51.4213
 20
38.9684
 30
0.0000
  0
VERTEX
  8
20
 10
52.7195
 20
38.9684
 30
0.0000
  0
SEQEND
  8
0
  0
POLYLINE
  8
20
 66
1
 10
0.0000
 20
0.0000
 30
0.0000
 40
0.1016
 41
0.1016
 70
0
  0
VERTEX
  8
20
 10
52.7195
 20
38.9176
 30
0.0000
 42
1.0000
  0
VERTEX
  8
20
 10
52.7195
 20
39.0192
 30
0.0000
  0
SEQEND
  8
0
  0
POLYLINE
  8
20
 66
1
 10
0.0000
 20
0.0000
 30
0.0000
 40
0.1016
 41
0.1016
 70
0
  0
VERTEX
  8
20
 10
51.4213
 20
39.0192
 30
0.0000
 42
1.0000
  0
VERTEX
  8
20
 10
51.4213
 20
38.9176
 30
0.0000
  0
SEQEND
  8
0
  0
POLYLINE
  8
20
 66
1
 10
0.0000
 20
0.0000
 30
0.0000
 40
0.2032
 41
0.2032
 70
0
  0
VERTEX
  8
20
 10
55.0028
 20
38.9684
 30
0.0000
  0
VERTEX
  8
20
 10
54.4835
 20
37.1509
 30
0.0000
  0
SEQEND
  8
0
  0
POLYLINE
  8
20
 66
1
 10
0.0000
 20
0.0000
 30
0.0000
 40
0.1016
 41
0.1016
 70
0
  0
VERTEX
  8
20
 10
54.4347
 20
37.1648
 30
0.0000
 42
1.0000
  0
VERTEX
  8
20
 10
54.5324
 20
37.1369
 30
0.0000
  0
SEQEND
  8
0
  0
POLYLINE
  8
20
 66
1
 10
0.0000
 20
0.0000
 30
0.0000
 40
0.1016
 41
0.1016
 70
0
  0
VERTEX
  8
20
 10
55.0517
 20
38.9544
 30
0.0000
 42
1.0000
  0
VERTEX
  8
20
 10
54.9540
 20
38.9824
 30
0.0000
  0
SEQEND
  8
0
  0
POLYLINE
  8
20
 66
1
 10
0.0000
 20
0.0000
 30
0.0000
 40
0.2032
 41
0.2032
 70
0
  0
VERTEX
  8
20
 10
54.4835
 20
37.1509
 30
0.0000
  0
VERTEX
  8
20
 10
55.7818
 20
37.1509
 30
0.0000
  0
SEQEND
  8
0
  0
POLYLINE
  8
20
 66
1
 10
0.0000
 20
0.0000
 30
0.0000
 40
0.1016
 41
0.1016
 70
0
  0
VERTEX
  8
20
 10
55.7818
 20
37.1001
 30
0.0000
 42
1.0000
  0
VERTEX
  8
20
 10
55.7818
 20
37.2017
 30
0.0000
  0
SEQEND
  8
0
  0
POLYLINE
  8
20
 66
1
 10
0.0000
 20
0.0000
 30
0.0000
 40
0.1016
 41
0.1016
 70
0
  0
VERTEX
  8
20
 10
54.4835
 20
37.2017
 30
0.0000
 42
1.0000
  0
VERTEX
  8
20
 10
54.4835
 20
37.1001
 30
0.0000
  0
SEQEND
  8
0
  0
POLYLINE
  8
20
 66
1
 10
0.0000
 20
0.0000
 30
0.0000
 40
0.2032
 41
0.2032
 70
0
  0
VERTEX
  8
20
 10
55.3923
 20
37.6702
 30
0.0000
  0
VERTEX
  8
20
 10
55.3923
 20
36.6316
 30
0.0000
  0
SEQEND
  8
0
  0
POLYLINE
  8
20
 66
1
 10
0.0000
 20
0.0000
 30
0.0000
 40
0.1016
 41
0.1016
 70
0
  0
VERTEX
  8
20
 10
55.3415
 20
36.6316
 30
0.0000
 42
1.0000
  0
VERTEX
  8
20
 10
55.4431
 20
36.6316
 30
0.0000
  0
SEQEND
  8
0
  0
POLYLINE
  8
20
 66
1
 10
0.0000
 20
0.0000
 30
0.0000
 40
0.1016
 41
0.1016
 70
0
  0
VERTEX
  8
20
 10
55.4431
 20
37.6702
 30
0.0000
 42
1.0000
  0
VERTEX
  8
20
 10
55.3415
 20
37.6702
 30
0.0000
  0
SEQEND
  8
0
  0
POLYLINE
  8
20
 66
1
 10
0.0000
 20
0.0000
 30
0.0000
 40
0.2032
 41
0.2032
 70
0
  0
VERTEX
  8
20
 10
63.8568
 20
36.6316
 30
0.0000
  0
VERTEX
  8
20
 10
63.3375
 20
36.6316
 30
0.0000
  0
SEQEND
  8
0
  0
POLYLINE
  8
20
 66
1
 10
0.0000
 20
0.0000
 30
0.0000
 40
0.1016
 41
0.1016
 70
0
  0
VERTEX
  8
20
 10
63.3375
 20
36.6824
 30
0.0000
 42
1.0000
  0
VERTEX
  8
20
 10
63.3375
 20
36.5808
 30
0.0000
  0
SEQEND
  8
0
  0
POLYLINE
  8
20
 66
1
 10
0.0000
 20
0.0000
 30
0.0000
 40
0.1016
 41
0.1016
 70
0
  0
VERTEX
  8
20
 10
63.8568
 20
36.5808
 30
0.0000
 42
1.0000
  0
VERTEX
  8
20
 10
63.8568
 20
36.6824
 30
0.0000
  0
SEQEND
  8
0
  0
POLYLINE
  8
20
 66
1
 10
0.0000
 20
0.0000
 30
0.0000
 40
0.2032
 41
0.2032
 70
0
  0
VERTEX
  8
20
 10
62.8183
 20
37.1509
 30
0.0000
 42
0.4142
  0
VERTEX
  8
20
 10
63.3375
 20
36.6316
 30
0.0000
  0
SEQEND
  8
0
  0
POLYLINE
  8
20
 66
1
 10
0.0000
 20
0.0000
 30
0.0000
 40
0.1016
 41
0.1016
 70
0
  0
VERTEX
  8
20
 10
62.8691
 20
37.1509
 30
0.0000
 42
1.0000
  0
VERTEX
  8
20
 10
62.7675
 20
37.1509
 30
0.0000
  0
SEQEND
  8
0
  0
POLYLINE
  8
20
 66
1
 10
0.0000
 20
0.0000
 30
0.0000
 40
0.1016
 41
0.1016
 70
0
  0
VERTEX
  8
20
 10
63.3375
 20
36.5808
 30
0.0000
 42
1.0000
  0
VERTEX
  8
20
 10
63.3375
 20
36.6824
 30
0.0000
  0
SEQEND
  8
0
  0
POLYLINE
  8
20
 66
1
 10
0.0000
 20
0.0000
 30
0.0000
 40
0.2032
 41
0.2032
 70
0
  0
VERTEX
  8
20
 10
62.8183
 20
37.1509
 30
0.0000
  0
VERTEX
  8
20
 10
62.8183
 20
38.4491
 30
0.0000
  0
SEQEND
  8
0
  0
POLYLINE
  8
20
 66
1
 10
0.0000
 20
0.0000
 30
0.0000
 40
0.1016
 41
0.1016
 70
0
  0
VERTEX
  8
20
 10
62.8691
 20
38.4491
 30
0.0000
 42
1.0000
  0
VERTEX
  8
20
 10
62.7675
 20
38.4491
 30
0.0000
  0
SEQEND
  8
0
  0
POLYLINE
  8
20
 66
1
 10
0.0000
 20
0.0000
 30
0.0000
 40
0.1016
 41
0.1016
 70
0
  0
VERTEX
  8
20
 10
62.7675
 20
37.1509
 30
0.0000
 42
1.0000
  0
VERTEX
  8
20
 10
62.8691
 20
37.1509
 30
0.0000
  0
SEQEND
  8
0
  0
POLYLINE
  8
20
 66
1
 10
0.0000
 20
0.0000
 30
0.0000
 40
0.2032
 41
0.2032
 70
0
  0
VERTEX
  8
20
 10
63.3375
 20
38.9684
 30
0.0000
 42
0.4142
  0
VERTEX
  8
20
 10
62.8183
 20
38.4491
 30
0.0000
  0
SEQEND
  8
0
  0
POLYLINE
  8
20
 66
1
 10
0.0000
 20
0.0000
 30
0.0000
 40
0.1016
 41
0.1016
 70
0
  0
VERTEX
  8
20
 10
63.3375
 20
38.9176
 30
0.0000
 42
1.0000
  0
VERTEX
  8
20
 10
63.3375
 20
39.0192
 30
0.0000
  0
SEQEND
  8
0
  0
POLYLINE
  8
20
 66
1
 10
0.0000
 20
0.0000
 30
0.0000
 40
0.1016
 41
0.1016
 70
0
  0
VERTEX
  8
20
 10
62.7675
 20
38.4491
 30
0.0000
 42
1.0000
  0
VERTEX
  8
20
 10
62.8691
 20
38.4491
 30
0.0000
  0
SEQEND
  8
0
  0
POLYLINE
  8
20
 66
1
 10
0.0000
 20
0.0000
 30
0.0000
 40
0.2032
 41
0.2032
 70
0
  0
VERTEX
  8
20
 10
63.3375
 20
38.9684
 30
0.0000
  0
VERTEX
  8
20
 10
63.8568
 20
38.9684
 30
0.0000
  0
SEQEND
  8
0
  0
POLYLINE
  8
20
 66
1
 10
0.0000
 20
0.0000
 30
0.0000
 40
0.1016
 41
0.1016
 70
0
  0
VERTEX
  8
20
 10
63.8568
 20
38.9176
 30
0.0000
 42
1.0000
  0
VERTEX
  8
20
 10
63.8568
 20
39.0192
 30
0.0000
  0
SEQEND
  8
0
  0
POLYLINE
  8
20
 66
1
 10
0.0000
 20
0.0000
 30
0.0000
 40
0.1016
 41
0.1016
 70
0
  0
VERTEX
  8
20
 10
63.3375
 20
39.0192
 30
0.0000
 42
1.0000
  0
VERTEX
  8
20
 10
63.3375
 20
38.9176
 30
0.0000
  0
SEQEND
  8
0
  0
POLYLINE
  8
20
 66
1
 10
0.0000
 20
0.0000
 30
0.0000
 40
0.2032
 41
0.2032
 70
0
  0
VERTEX
  8
20
 10
65.0704
 20
36.6316
 30
0.0000
  0
VERTEX
  8
20
 10
65.0704
 20
38.9684
 30
0.0000
  0
SEQEND
  8
0
  0
POLYLINE
  8
20
 66
1
 10
0.0000
 20
0.0000
 30
0.0000
 40
0.1016
 41
0.1016
 70
0
  0
VERTEX
  8
20
 10
65.1212
 20
38.9684
 30
0.0000
 42
1.0000
  0
VERTEX
  8
20
 10
65.0196
 20
38.9684
 30
0.0000
  0
SEQEND
  8
0
  0
POLYLINE
  8
20
 66
1
 10
0.0000
 20
0.0000
 30
0.0000
 40
0.1016
 41
0.1016
 70
0
  0
VERTEX
  8
20
 10
65.0196
 20
36.6316
 30
0.0000
 42
1.0000
  0
VERTEX
  8
20
 10
65.1212
 20
36.6316
 30
0.0000
  0
SEQEND
  8
0
  0
POLYLINE
  8
20
 66
1
 10
0.0000
 20
0.0000
 30
0.0000
 40
0.2032
 41
0.2032
 70
0
  0
VERTEX
  8
20
 10
64.4213
 20
38.9684
 30
0.0000
  0
VERTEX
  8
20
 10
65.7195
 20
38.9684
 30
0.0000
  0
SEQEND
  8
0
  0
POLYLINE
  8
20
 66
1
 10
0.0000
 20
0.0000
 30
0.0000
 40
0.1016
 41
0.1016
 70
0
  0
VERTEX
  8
20
 10
65.7195
 20
38.9176
 30
0.0000
 42
1.0000
  0
VERTEX
  8
20
 10
65.7195
 20
39.0192
 30
0.0000
  0
SEQEND
  8
0
  0
POLYLINE
  8
20
 66
1
 10
0.0000
 20
0.0000
 30
0.0000
 40
0.1016
 41
0.1016
 70
0
  0
VERTEX
  8
20
 10
64.4213
 20
39.0192
 30
0.0000
 42
1.0000
  0
VERTEX
  8
20
 10
64.4213
 20
38.9176
 30
0.0000
  0
SEQEND
  8
0
  0
POLYLINE
  8
20
 66
1
 10
0.0000
 20
0.0000
 30
0.0000
 40
0.2032
 41
0.2032
 70
0
  0
VERTEX
  8
20
 10
67.4835
 20
36.6316
 30
0.0000
  0
VERTEX
  8
20
 10
68.2625
 20
36.6316
 30
0.0000
  0
SEQEND
  8
0
  0
POLYLINE
  8
20
 66
1
 10
0.0000
 20
0.0000
 30
0.0000
 40
0.1016
 41
0.1016
 70
0
  0
VERTEX
  8
20
 10
68.2625
 20
36.5808
 30
0.0000
 42
1.0000
  0
VERTEX
  8
20
 10
68.2625
 20
36.6824
 30
0.0000
  0
SEQEND
  8
0
  0
POLYLINE
  8
20
 66
1
 10
0.0000
 20
0.0000
 30
0.0000
 40
0.1016
 41
0.1016
 70
0
  0
VERTEX
  8
20
 10
67.4835
 20
36.6824
 30
0.0000
 42
1.0000
  0
VERTEX
  8
20
 10
67.4835
 20
36.5808
 30
0.0000
  0
SEQEND
  8
0
  0
POLYLINE
  8
20
 66
1
 10
0.0000
 20
0.0000
 30
0.0000
 40
0.2032
 41
0.2032
 70
0
  0
VERTEX
  8
20
 10
68.2625
 20
36.6316
 30
0.0000
 42
0.4142
  0
VERTEX
  8
20
 10
68.7818
 20
37.1509
 30
0.0000
  0
SEQEND
  8
0
  0
POLYLINE
  8
20
 66
1
 10
0.0000
 20
0.0000
 30
0.0000
 40
0.1016
 41
0.1016
 70
0
  0
VERTEX
  8
20
 10
68.2625
 20
36.6824
 30
0.0000
 42
1.0000
  0
VERTEX
  8
20
 10
68.2625
 20
36.5808
 30
0.0000
  0
SEQEND
  8
0
  0
POLYLINE
  8
20
 66
1
 10
0.0000
 20
0.0000
 30
0.0000
 40
0.1016
 41
0.1016
 70
0
  0
VERTEX
  8
20
 10
68.8326
 20
37.1509
 30
0.0000
 42
1.0000
  0
VERTEX
  8
20
 10
68.7310
 20
37.1509
 30
0.0000
  0
SEQEND
  8
0
  0
POLYLINE
  8
20
 66
1
 10
0.0000
 20
0.0000
 30
0.0000
 40
0.2032
 41
0.2032
 70
0
  0
VERTEX
  8
20
 10
68.7818
 20
37.1509
 30
0.0000
  0
VERTEX
  8
20
 10
68.7818
 20
37.4105
 30
0.0000
  0
SEQEND
  8
0
  0
POLYLINE
  8
20
 66
1
 10
0.0000
 20
0.0000
 30
0.0000
 40
0.1016
 41
0.1016
 70
0
  0
VERTEX
  8
20
 10
68.8326
 20
37.4105
 30
0.0000
 42
1.0000
  0
VERTEX
  8
20
 10
68.7310
 20
37.4105
 30
0.0000
  0
SEQEND
  8
0
  0
POLYLINE
  8
20
 66
1
 10
0.0000
 20
0.0000
 30
0.0000
 40
0.1016
 41
0.1016
 70
0
  0
VERTEX
  8
20
 10
68.7310
 20
37.1509
 30
0.0000
 42
1.0000
  0
VERTEX
  8
20
 10
68.8326
 20
37.1509
 30
0.0000
  0
SEQEND
  8
0
  0
POLYLINE
  8
20
 66
1
 10
0.0000
 20
0.0000
 30
0.0000
 40
0.2032
 41
0.2032
 70
0
  0
VERTEX
  8
20
 10
68.7818
 20
37.4105
 30
0.0000
 42
0.4142
  0
VERTEX
  8
20
 10
68.2625
 20
37.9298
 30
0.0000
  0
SEQEND
  8
0
  0
POLYLINE
  8
20
 66
1
 10
0.0000
 20
0.0000
 30
0.0000
 40
0.1016
 41
0.1016
 70
0
  0
VERTEX
  8
20
 10
68.7310
 20
37.4105
 30
0.0000
 42
1.0000
  0
VERTEX
  8
20
 10
68.8326
 20
37.4105
 30
0.0000
  0
SEQEND
  8
0
  0
POLYLINE
  8
20
 66
1
 10
0.0000
 20
0.0000
 30
0.0000
 40
0.1016
 41
0.1016
 70
0
  0
VERTEX
  8
20
 10
68.2625
 20
37.9806
 30
0.0000
 42
1.0000
  0
VERTEX
  8
20
 10
68.2625
 20
37.8790
 30
0.0000
  0
SEQEND
  8
0
  0
POLYLINE
  8
20
 66
1
 10
0.0000
 20
0.0000
 30
0.0000
 40
0.2032
 41
0.2032
 70
0
  0
VERTEX
  8
20
 10
68.2625
 20
37.9298
 30
0.0000
  0
VERTEX
  8
20
 10
67.4835
 20
37.9298
 30
0.0000
  0
SEQEND
  8
0
  0
POLYLINE
  8
20
 66
1
 10
0.0000
 20
0.0000
 30
0.0000
 40
0.1016
 41
0.1016
 70
0
  0
VERTEX
  8
20
 10
67.4835
 20
37.9806
 30
0.0000
 42
1.0000
  0
VERTEX
  8
20
 10
67.4835
 20
37.8790
 30
0.0000
  0
SEQEND
  8
0
  0
POLYLINE
  8
20
 66
1
 10
0.0000
 20
0.0000
 30
0.0000
 40
0.1016
 41
0.1016
 70
0
  0
VERTEX
  8
20
 10
68.2625
 20
37.8790
 30
0.0000
 42
1.0000
  0
VERTEX
  8
20
 10
68.2625
 20
37.9806
 30
0.0000
  0
SEQEND
  8
0
  0
POLYLINE
  8
20
 66
1
 10
0.0000
 20
0.0000
 30
0.0000
 40
0.2032
 41
0.2032
 70
0
  0
VERTEX
  8
20
 10
67.4835
 20
37.9298
 30
0.0000
  0
VERTEX
  8
20
 10
67.4835
 20
38.9684
 30
0.0000
  0
SEQEND
  8
0
  0
POLYLINE
  8
20
 66
1
 10
0.0000
 20
0.0000
 30
0.0000
 40
0.1016
 41
0.1016
 70
0
  0
VERTEX
  8
20
 10
67.5343
 20
38.9684
 30
0.0000
 42
1.0000
  0
VERTEX
  8
20
 10
67.4327
 20
38.9684
 30
0.0000
  0
SEQEND
  8
0
  0
POLYLINE
  8
20
 66
1
 10
0.0000
 20
0.0000
 30
0.0000
 40
0.1016
 41
0.1016
 70
0
  0
VERTEX
  8
20
 10
67.4327
 20
37.9298
 30
0.0000
 42
1.0000
  0
VERTEX
  8
20
 10
67.5343
 20
37.9298
 30
0.0000
  0
SEQEND
  8
0
  0
POLYLINE
  8
20
 66
1
 10
0.0000
 20
0.0000
 30
0.0000
 40
0.2032
 41
0.2032
 70
0
  0
VERTEX
  8
20
 10
67.4835
 20
38.9684
 30
0.0000
  0
VERTEX
  8
20
 10
68.7818
 20
38.9684
 30
0.0000
  0
SEQEND
  8
0
  0
POLYLINE
  8
20
 66
1
 10
0.0000
 20
0.0000
 30
0.0000
 40
0.1016
 41
0.1016
 70
0
  0
VERTEX
  8
20
 10
68.7818
 20
38.9176
 30
0.0000
 42
1.0000
  0
VERTEX
  8
20
 10
68.7818
 20
39.0192
 30
0.0000
  0
SEQEND
  8
0
  0
POLYLINE
  8
20
 66
1
 10
0.0000
 20
0.0000
 30
0.0000
 40
0.1016
 41
0.1016
 70
0
  0
VERTEX
  8
20
 10
67.4835
 20
39.0192
 30
0.0000
 42
1.0000
  0
VERTEX
  8
20
 10
67.4835
 20
38.9176
 30
0.0000
  0
SEQEND
  8
0
  0
POLYLINE
  8
20
 66
1
 10
0.0000
 20
0.0000
 30
0.0000
 40
0.2032
 41
0.2032
 70
0
  0
VERTEX
  8
20
 10
76.8568
 20
36.6316
 30
0.0000
  0
VERTEX
  8
20
 10
76.3375
 20
36.6316
 30
0.0000
  0
SEQEND
  8
0
  0
POLYLINE
  8
20
 66
1
 10
0.0000
 20
0.0000
 30
0.0000
 40
0.1016
 41
0.1016
 70
0
  0
VERTEX
  8
20
 10
76.3375
 20
36.6824
 30
0.0000
 42
1.0000
  0
VERTEX
  8
20
 10
76.3375
 20
36.5808
 30
0.0000
  0
SEQEND
  8
0
  0
POLYLINE
  8
20
 66
1
 10
0.0000
 20
0.0000
 30
0.0000
 40
0.1016
 41
0.1016
 70
0
  0
VERTEX
  8
20
 10
76.8568
 20
36.5808
 30
0.0000
 42
1.0000
  0
VERTEX
  8
20
 10
76.8568
 20
36.6824
 30
0.0000
  0
SEQEND
  8
0
  0
POLYLINE
  8
20
 66
1
 10
0.0000
 20
0.0000
 30
0.0000
 40
0.2032
 41
0.2032
 70
0
  0
VERTEX
  8
20
 10
75.8183
 20
37.1509
 30
0.0000
 42
0.4142
  0
VERTEX
  8
20
 10
76.3375
 20
36.6316
 30
0.0000
  0
SEQEND
  8
0
  0
POLYLINE
  8
20
 66
1
 10
0.0000
 20
0.0000
 30
0.0000
 40
0.1016
 41
0.1016
 70
0
  0
VERTEX
  8
20
 10
75.8691
 20
37.1509
 30
0.0000
 42
1.0000
  0
VERTEX
  8
20
 10
75.7675
 20
37.1509
 30
0.0000
  0
SEQEND
  8
0
  0
POLYLINE
  8
20
 66
1
 10
0.0000
 20
0.0000
 30
0.0000
 40
0.1016
 41
0.1016
 70
0
  0
VERTEX
  8
20
 10
76.3375
 20
36.5808
 30
0.0000
 42
1.0000
  0
VERTEX
  8
20
 10
76.3375
 20
36.6824
 30
0.0000
  0
SEQEND
  8
0
  0
POLYLINE
  8
20
 66
1
 10
0.0000
 20
0.0000
 30
0.0000
 40
0.2032
 41
0.2032
 70
0
  0
VERTEX
  8
20
 10
75.8183
 20
37.1509
 30
0.0000
  0
VERTEX
  8
20
 10
75.8183
 20
38.4491
 30
0.0000
  0
SEQEND
  8
0
  0
POLYLINE
  8
20
 66
1
 10
0.0000
 20
0.0000
 30
0.0000
 40
0.1016
 41
0.1016
 70
0
  0
VERTEX
  8
20
 10
75.8691
 20
38.4491
 30
0.0000
 42
1.0000
  0
VERTEX
  8
20
 10
75.7675
 20
38.4491
 30
0.0000
  0
SEQEND
  8
0
  0
POLYLINE
  8
20
 66
1
 10
0.0000
 20
0.0000
 30
0.0000
 40
0.1016
 41
0.1016
 70
0
  0
VERTEX
  8
20
 10
75.7675
 20
37.1509
 30
0.0000
 42
1.0000
  0
VERTEX
  8
20
 10
75.8691
 20
37.1509
 30
0.0000
  0
SEQEND
  8
0
  0
POLYLINE
  8
20
 66
1
 10
0.0000
 20
0.0000
 30
0.0000
 40
0.2032
 41
0.2032
 70
0
  0
VERTEX
  8
20
 10
76.3375
 20
38.9684
 30
0.0000
 42
0.4142
  0
VERTEX
  8
20
 10
75.8183
 20
38.4491
 30
0.0000
  0
SEQEND
  8
0
  0
POLYLINE
  8
20
 66
1
 10
0.0000
 20
0.0000
 30
0.0000
 40
0.1016
 41
0.1016
 70
0
  0
VERTEX
  8
20
 10
76.3375
 20
38.9176
 30
0.0000
 42
1.0000
  0
VERTEX
  8
20
 10
76.3375
 20
39.0192
 30
0.0000
  0
SEQEND
  8
0
  0
POLYLINE
  8
20
 66
1
 10
0.0000
 20
0.0000
 30
0.0000
 40
0.1016
 41
0.1016
 70
0
  0
VERTEX
  8
20
 10
75.7675
 20
38.4491
 30
0.0000
 42
1.0000
  0
VERTEX
  8
20
 10
75.8691
 20
38.4491
 30
0.0000
  0
SEQEND
  8
0
  0
POLYLINE
  8
20
 66
1
 10
0.0000
 20
0.0000
 30
0.0000
 40
0.2032
 41
0.2032
 70
0
  0
VERTEX
  8
20
 10
76.3375
 20
38.9684
 30
0.0000
  0
VERTEX
  8
20
 10
76.8568
 20
38.9684
 30
0.0000
  0
SEQEND
  8
0
  0
POLYLINE
  8
20
 66
1
 10
0.0000
 20
0.0000
 30
0.0000
 40
0.1016
 41
0.1016
 70
0
  0
VERTEX
  8
20
 10
76.8568
 20
38.9176
 30
0.0000
 42
1.0000
  0
VERTEX
  8
20
 10
76.8568
 20
39.0192
 30
0.0000
  0
SEQEND
  8
0
  0
POLYLINE
  8
20
 66
1
 10
0.0000
 20
0.0000
 30
0.0000
 40
0.1016
 41
0.1016
 70
0
  0
VERTEX
  8
20
 10
76.3375
 20
39.0192
 30
0.0000
 42
1.0000
  0
VERTEX
  8
20
 10
76.3375
 20
38.9176
 30
0.0000
  0
SEQEND
  8
0
  0
POLYLINE
  8
20
 66
1
 10
0.0000
 20
0.0000
 30
0.0000
 40
0.2032
 41
0.2032
 70
0
  0
VERTEX
  8
20
 10
78.0704
 20
36.6316
 30
0.0000
  0
VERTEX
  8
20
 10
78.0704
 20
38.9684
 30
0.0000
  0
SEQEND
  8
0
  0
POLYLINE
  8
20
 66
1
 10
0.0000
 20
0.0000
 30
0.0000
 40
0.1016
 41
0.1016
 70
0
  0
VERTEX
  8
20
 10
78.1212
 20
38.9684
 30
0.0000
 42
1.0000
  0
VERTEX
  8
20
 10
78.0196
 20
38.9684
 30
0.0000
  0
SEQEND
  8
0
  0
POLYLINE
  8
20
 66
1
 10
0.0000
 20
0.0000
 30
0.0000
 40
0.1016
 41
0.1016
 70
0
  0
VERTEX
  8
20
 10
78.0196
 20
36.6316
 30
0.0000
 42
1.0000
  0
VERTEX
  8
20
 10
78.1212
 20
36.6316
 30
0.0000
  0
SEQEND
  8
0
  0
POLYLINE
  8
20
 66
1
 10
0.0000
 20
0.0000
 30
0.0000
 40
0.2032
 41
0.2032
 70
0
  0
VERTEX
  8
20
 10
77.4213
 20
38.9684
 30
0.0000
  0
VERTEX
  8
20
 10
78.7195
 20
38.9684
 30
0.0000
  0
SEQEND
  8
0
  0
POLYLINE
  8
20
 66
1
 10
0.0000
 20
0.0000
 30
0.0000
 40
0.1016
 41
0.1016
 70
0
  0
VERTEX
  8
20
 10
78.7195
 20
38.9176
 30
0.0000
 42
1.0000
  0
VERTEX
  8
20
 10
78.7195
 20
39.0192
 30
0.0000
  0
SEQEND
  8
0
  0
POLYLINE
  8
20
 66
1
 10
0.0000
 20
0.0000
 30
0.0000
 40
0.1016
 41
0.1016
 70
0
  0
VERTEX
  8
20
 10
77.4213
 20
39.0192
 30
0.0000
 42
1.0000
  0
VERTEX
  8
20
 10
77.4213
 20
38.9176
 30
0.0000
  0
SEQEND
  8
0
  0
POLYLINE
  8
20
 66
1
 10
0.0000
 20
0.0000
 30
0.0000
 40
0.2032
 41
0.2032
 70
0
  0
VERTEX
  8
20
 10
80.4835
 20
37.9298
 30
0.0000
  0
VERTEX
  8
20
 10
81.2625
 20
37.9298
 30
0.0000
  0
SEQEND
  8
0
  0
POLYLINE
  8
20
 66
1
 10
0.0000
 20
0.0000
 30
0.0000
 40
0.1016
 41
0.1016
 70
0
  0
VERTEX
  8
20
 10
81.2625
 20
37.8790
 30
0.0000
 42
1.0000
  0
VERTEX
  8
20
 10
81.2625
 20
37.9806
 30
0.0000
  0
SEQEND
  8
0
  0
POLYLINE
  8
20
 66
1
 10
0.0000
 20
0.0000
 30
0.0000
 40
0.1016
 41
0.1016
 70
0
  0
VERTEX
  8
20
 10
80.4835
 20
37.9806
 30
0.0000
 42
1.0000
  0
VERTEX
  8
20
 10
80.4835
 20
37.8790
 30
0.0000
  0
SEQEND
  8
0
  0
POLYLINE
  8
20
 66
1
 10
0.0000
 20
0.0000
 30
0.0000
 40
0.2032
 41
0.2032
 70
0
  0
VERTEX
  8
20
 10
81.7818
 20
37.4105
 30
0.0000
 42
0.4142
  0
VERTEX
  8
20
 10
81.2625
 20
37.9298
 30
0.0000
  0
SEQEND
  8
0
  0
POLYLINE
  8
20
 66
1
 10
0.0000
 20
0.0000
 30
0.0000
 40
0.1016
 41
0.1016
 70
0
  0
VERTEX
  8
20
 10
81.7310
 20
37.4105
 30
0.0000
 42
1.0000
  0
VERTEX
  8
20
 10
81.8326
 20
37.4105
 30
0.0000
  0
SEQEND
  8
0
  0
POLYLINE
  8
20
 66
1
 10
0.0000
 20
0.0000
 30
0.0000
 40
0.1016
 41
0.1016
 70
0
  0
VERTEX
  8
20
 10
81.2625
 20
37.9806
 30
0.0000
 42
1.0000
  0
VERTEX
  8
20
 10
81.2625
 20
37.8790
 30
0.0000
  0
SEQEND
  8
0
  0
POLYLINE
  8
20
 66
1
 10
0.0000
 20
0.0000
 30
0.0000
 40
0.2032
 41
0.2032
 70
0
  0
VERTEX
  8
20
 10
81.7818
 20
37.4105
 30
0.0000
  0
VERTEX
  8
20
 10
81.7818
 20
37.2807
 30
0.0000
  0
SEQEND
  8
0
  0
POLYLINE
  8
20
 66
1
 10
0.0000
 20
0.0000
 30
0.0000
 40
0.1016
 41
0.1016
 70
0
  0
VERTEX
  8
20
 10
81.7310
 20
37.2807
 30
0.0000
 42
1.0000
  0
VERTEX
  8
20
 10
81.8326
 20
37.2807
 30
0.0000
  0
SEQEND
  8
0
  0
POLYLINE
  8
20
 66
1
 10
0.0000
 20
0.0000
 30
0.0000
 40
0.1016
 41
0.1016
 70
0
  0
VERTEX
  8
20
 10
81.8326
 20
37.4105
 30
0.0000
 42
1.0000
  0
VERTEX
  8
20
 10
81.7310
 20
37.4105
 30
0.0000
  0
SEQEND
  8
0
  0
POLYLINE
  8
20
 66
1
 10
0.0000
 20
0.0000
 30
0.0000
 40
0.2032
 41
0.2032
 70
0
  0
VERTEX
  8
20
 10
80.4835
 20
37.2807
 30
0.0000
 42
1.0000
  0
VERTEX
  8
20
 10
81.7818
 20
37.2807
 30
0.0000
  0
SEQEND
  8
0
  0
POLYLINE
  8
20
 66
1
 10
0.0000
 20
0.0000
 30
0.0000
 40
0.1016
 41
0.1016
 70
0
  0
VERTEX
  8
20
 10
80.5343
 20
37.2807
 30
0.0000
 42
1.0000
  0
VERTEX
  8
20
 10
80.4327
 20
37.2807
 30
0.0000
  0
SEQEND
  8
0
  0
POLYLINE
  8
20
 66
1
 10
0.0000
 20
0.0000
 30
0.0000
 40
0.1016
 41
0.1016
 70
0
  0
VERTEX
  8
20
 10
81.8326
 20
37.2807
 30
0.0000
 42
1.0000
  0
VERTEX
  8
20
 10
81.7310
 20
37.2807
 30
0.0000
  0
SEQEND
  8
0
  0
POLYLINE
  8
20
 66
1
 10
0.0000
 20
0.0000
 30
0.0000
 40
0.2032
 41
0.2032
 70
0
  0
VERTEX
  8
20
 10
80.4835
 20
37.2807
 30
0.0000
  0
VERTEX
  8
20
 10
80.4835
 20
37.9298
 30
0.0000
  0
SEQEND
  8
0
  0
POLYLINE
  8
20
 66
1
 10
0.0000
 20
0.0000
 30
0.0000
 40
0.1016
 41
0.1016
 70
0
  0
VERTEX
  8
20
 10
80.5343
 20
37.9298
 30
0.0000
 42
1.0000
  0
VERTEX
  8
20
 10
80.4327
 20
37.9298
 30
0.0000
  0
SEQEND
  8
0
  0
POLYLINE
  8
20
 66
1
 10
0.0000
 20
0.0000
 30
0.0000
 40
0.1016
 41
0.1016
 70
0
  0
VERTEX
  8
20
 10
80.4327
 20
37.2807
 30
0.0000
 42
1.0000
  0
VERTEX
  8
20
 10
80.5343
 20
37.2807
 30
0.0000
  0
SEQEND
  8
0
  0
POLYLINE
  8
20
 66
1
 10
0.0000
 20
0.0000
 30
0.0000
 40
0.2032
 41
0.2032
 70
0
  0
VERTEX
  8
20
 10
81.5221
 20
38.9684
 30
0.0000
 42
0.4142
  0
VERTEX
  8
20
 10
80.4835
 20
37.9298
 30
0.0000
  0
SEQEND
  8
0
  0
POLYLINE
  8
20
 66
1
 10
0.0000
 20
0.0000
 30
0.0000
 40
0.1016
 41
0.1016
 70
0
  0
VERTEX
  8
20
 10
81.5221
 20
38.9176
 30
0.0000
 42
1.0000
  0
VERTEX
  8
20
 10
81.5221
 20
39.0192
 30
0.0000
  0
SEQEND
  8
0
  0
POLYLINE
  8
20
 66
1
 10
0.0000
 20
0.0000
 30
0.0000
 40
0.1016
 41
0.1016
 70
0
  0
VERTEX
  8
20
 10
80.4327
 20
37.9298
 30
0.0000
 42
1.0000
  0
VERTEX
  8
20
 10
80.5343
 20
37.9298
 30
0.0000
  0
SEQEND
  8
0
  0
POLYLINE
  8
20
 66
1
 10
0.0000
 20
0.0000
 30
0.0000
 40
0.2032
 41
0.2032
 70
0
  0
VERTEX
  8
20
 10
11.3568
 20
13.1316
 30
0.0000
  0
VERTEX
  8
20
 10
10.8375
 20
13.1316
 30
0.0000
  0
SEQEND
  8
0
  0
POLYLINE
  8
20
 66
1
 10
0.0000
 20
0.0000
 30
0.0000
 40
0.1016
 41
0.1016
 70
0
  0
VERTEX
  8
20
 10
10.8375
 20
13.1824
 30
0.0000
 42
1.0000
  0
VERTEX
  8
20
 10
10.8375
 20
13.0808
 30
0.0000
  0
SEQEND
  8
0
  0
POLYLINE
  8
20
 66
1
 10
0.0000
 20
0.0000
 30
0.0000
 40
0.1016
 41
0.1016
 70
0
  0
VERTEX
  8
20
 10
11.3568
 20
13.0808
 30
0.0000
 42
1.0000
  0
VERTEX
  8
20
 10
11.3568
 20
13.1824
 30
0.0000
  0
SEQEND
  8
0
  0
POLYLINE
  8
20
 66
1
 10
0.0000
 20
0.0000
 30
0.0000
 40
0.2032
 41
0.2032
 70
0
  0
VERTEX
  8
20
 10
10.3183
 20
13.6509
 30
0.0000
 42
0.4142
  0
VERTEX
  8
20
 10
10.8375
 20
13.1316
 30
0.0000
  0
SEQEND
  8
0
  0
POLYLINE
  8
20
 66
1
 10
0.0000
 20
0.0000
 30
0.0000
 40
0.1016
 41
0.1016
 70
0
  0
VERTEX
  8
20
 10
10.3691
 20
13.6509
 30
0.0000
 42
1.0000
  0
VERTEX
  8
20
 10
10.2675
 20
13.6509
 30
0.0000
  0
SEQEND
  8
0
  0
POLYLINE
  8
20
 66
1
 10
0.0000
 20
0.0000
 30
0.0000
 40
0.1016
 41
0.1016
 70
0
  0
VERTEX
  8
20
 10
10.8375
 20
13.0808
 30
0.0000
 42
1.0000
  0
VERTEX
  8
20
 10
10.8375
 20
13.1824
 30
0.0000
  0
SEQEND
  8
0
  0
POLYLINE
  8
20
 66
1
 10
0.0000
 20
0.0000
 30
0.0000
 40
0.2032
 41
0.2032
 70
0
  0
VERTEX
  8
20
 10
10.3183
 20
13.6509
 30
0.0000
  0
VERTEX
  8
20
 10
10.3183
 20
14.9491
 30
0.0000
  0
SEQEND
  8
0
  0
POLYLINE
  8
20
 66
1
 10
0.0000
 20
0.0000
 30
0.0000
 40
0.1016
 41
0.1016
 70
0
  0
VERTEX
  8
20
 10
10.3691
 20
14.9491
 30
0.0000
 42
1.0000
  0
VERTEX
  8
20
 10
10.2675
 20
14.9491
 30
0.0000
  0
SEQEND
  8
0
  0
POLYLINE
  8
20
 66
1
 10
0.0000
 20
0.0000
 30
0.0000
 40
0.1016
 41
0.1016
 70
0
  0
VERTEX
  8
20
 10
10.2675
 20
13.6509
 30
0.0000
 42
1.0000
  0
VERTEX
  8
20
 10
10.3691
 20
13.6509
 30
0.0000
  0
SEQEND
  8
0
  0
POLYLINE
  8
20
 66
1
 10
0.0000
 20
0.0000
 30
0.0000
 40
0.2032
 41
0.2032
 70
0
  0
VERTEX
  8
20
 10
10.8375
 20
15.4684
 30
0.0000
 42
0.4142
  0
VERTEX
  8
20
 10
10.3183
 20
14.9491
 30
0.0000
  0
SEQEND
  8
0
  0
POLYLINE
  8
20
 66
1
 10
0.0000
 20
0.0000
 30
0.0000
 40
0.1016
 41
0.1016
 70
0
  0
VERTEX
  8
20
 10
10.8375
 20
15.4176
 30
0.0000
 42
1.0000
  0
VERTEX
  8
20
 10
10.8375
 20
15.5192
 30
0.0000
  0
SEQEND
  8
0
  0
POLYLINE
  8
20
 66
1
 10
0.0000
 20
0.0000
 30
0.0000
 40
0.1016
 41
0.1016
 70
0
  0
VERTEX
  8
20
 10
10.2675
 20
14.9491
 30
0.0000
 42
1.0000
  0
VERTEX
  8
20
 10
10.3691
 20
14.9491
 30
0.0000
  0
SEQEND
  8
0
  0
POLYLINE
  8
20
 66
1
 10
0.0000
 20
0.0000
 30
0.0000
 40
0.2032
 41
0.2032
 70
0
  0
VERTEX
  8
20
 10
10.8375
 20
15.4684
 30
0.0000
  0
VERTEX
  8
20
 10
11.3568
 20
15.4684
 30
0.0000
  0
SEQEND
  8
0
  0
POLYLINE
  8
20
 66
1
 10
0.0000
 20
0.0000
 30
0.0000
 40
0.1016
 41
0.1016
 70
0
  0
VERTEX
  8
20
 10
11.3568
 20
15.4176
 30
0.0000
 42
1.0000
  0
VERTEX
  8
20
 10
11.3568
 20
15.5192
 30
0.0000
  0
SEQEND
  8
0
  0
POLYLINE
  8
20
 66
1
 10
0.0000
 20
0.0000
 30
0.0000
 40
0.1016
 41
0.1016
 70
0
  0
VERTEX
  8
20
 10
10.8375
 20
15.5192
 30
0.0000
 42
1.0000
  0
VERTEX
  8
20
 10
10.8375
 20
15.4176
 30
0.0000
  0
SEQEND
  8
0
  0
POLYLINE
  8
20
 66
1
 10
0.0000
 20
0.0000
 30
0.0000
 40
0.2032
 41
0.2032
 70
0
  0
VERTEX
  8
20
 10
12.5704
 20
13.1316
 30
0.0000
  0
VERTEX
  8
20
 10
12.5704
 20
15.4684
 30
0.0000
  0
SEQEND
  8
0
  0
POLYLINE
  8
20
 66
1
 10
0.0000
 20
0.0000
 30
0.0000
 40
0.1016
 41
0.1016
 70
0
  0
VERTEX
  8
20
 10
12.6212
 20
15.4684
 30
0.0000
 42
1.0000
  0
VERTEX
  8
20
 10
12.5196
 20
15.4684
 30
0.0000
  0
SEQEND
  8
0
  0
POLYLINE
  8
20
 66
1
 10
0.0000
 20
0.0000
 30
0.0000
 40
0.1016
 41
0.1016
 70
0
  0
VERTEX
  8
20
 10
12.5196
 20
13.1316
 30
0.0000
 42
1.0000
  0
VERTEX
  8
20
 10
12.6212
 20
13.1316
 30
0.0000
  0
SEQEND
  8
0
  0
POLYLINE
  8
20
 66
1
 10
0.0000
 20
0.0000
 30
0.0000
 40
0.2032
 41
0.2032
 70
0
  0
VERTEX
  8
20
 10
11.9213
 20
15.4684
 30
0.0000
  0
VERTEX
  8
20
 10
13.2195
 20
15.4684
 30
0.0000
  0
SEQEND
  8
0
  0
POLYLINE
  8
20
 66
1
 10
0.0000
 20
0.0000
 30
0.0000
 40
0.1016
 41
0.1016
 70
0
  0
VERTEX
  8
20
 10
13.2195
 20
15.4176
 30
0.0000
 42
1.0000
  0
VERTEX
  8
20
 10
13.2195
 20
15.5192
 30
0.0000
  0
SEQEND
  8
0
  0
POLYLINE
  8
20
 66
1
 10
0.0000
 20
0.0000
 30
0.0000
 40
0.1016
 41
0.1016
 70
0
  0
VERTEX
  8
20
 10
11.9213
 20
15.5192
 30
0.0000
 42
1.0000
  0
VERTEX
  8
20
 10
11.9213
 20
15.4176
 30
0.0000
  0
SEQEND
  8
0
  0
POLYLINE
  8
20
 66
1
 10
0.0000
 20
0.0000
 30
0.0000
 40
0.2032
 41
0.2032
 70
0
  0
VERTEX
  8
20
 10
14.9835
 20
15.2088
 30
0.0000
  0
VERTEX
  8
20
 10
14.9835
 20
15.4684
 30
0.0000
  0
SEQEND
  8
0
  0
POLYLINE
  8
20
 66
1
 10
0.0000
 20
0.0000
 30
0.0000
 40
0.1016
 41
0.1016
 70
0
  0
VERTEX
  8
20
 10
15.0343
 20
15.4684
 30
0.0000
 42
1.0000
  0
VERTEX
  8
20
 10
14.9327
 20
15.4684
 30
0.0000
  0
SEQEND
  8
0
  0
POLYLINE
  8
20
 66
1
 10
0.0000
 20
0.0000
 30
0.0000
 40
0.1016
 41
0.1016
 70
0
  0
VERTEX
  8
20
 10
14.9327
 20
15.2088
 30
0.0000
 42
1.0000
  0
VERTEX
  8
20
 10
15.0343
 20
15.2088
 30
0.0000
  0
SEQEND
  8
0
  0
POLYLINE
  8
20
 66
1
 10
0.0000
 20
0.0000
 30
0.0000
 40
0.2032
 41
0.2032
 70
0
  0
VERTEX
  8
20
 10
14.9835
 20
15.4684
 30
0.0000
  0
VERTEX
  8
20
 10
16.2818
 20
15.4684
 30
0.0000
  0
SEQEND
  8
0
  0
POLYLINE
  8
20
 66
1
 10
0.0000
 20
0.0000
 30
0.0000
 40
0.1016
 41
0.1016
 70
0
  0
VERTEX
  8
20
 10
16.2818
 20
15.4176
 30
0.0000
 42
1.0000
  0
VERTEX
  8
20
 10
16.2818
 20
15.5192
 30
0.0000
  0
SEQEND
  8
0
  0
POLYLINE
  8
20
 66
1
 10
0.0000
 20
0.0000
 30
0.0000
 40
0.1016
 41
0.1016
 70
0
  0
VERTEX
  8
20
 10
14.9835
 20
15.5192
 30
0.0000
 42
1.0000
  0
VERTEX
  8
20
 10
14.9835
 20
15.4176
 30
0.0000
  0
SEQEND
  8
0
  0
POLYLINE
  8
20
 66
1
 10
0.0000
 20
0.0000
 30
0.0000
 40
0.2032
 41
0.2032
 70
0
  0
VERTEX
  8
20
 10
16.2818
 20
15.4684
 30
0.0000
  0
VERTEX
  8
20
 10
15.6326
 20
13.1316
 30
0.0000
  0
SEQEND
  8
0
  0
POLYLINE
  8
20
 66
1
 10
0.0000
 20
0.0000
 30
0.0000
 40
0.1016
 41
0.1016
 70
0
  0
VERTEX
  8
20
 10
15.5837
 20
13.1452
 30
0.0000
 42
1.0000
  0
VERTEX
  8
20
 10
15.6816
 20
13.1180
 30
0.0000
  0
SEQEND
  8
0
  0
POLYLINE
  8
20
 66
1
 10
0.0000
 20
0.0000
 30
0.0000
 40
0.1016
 41
0.1016
 70
0
  0
VERTEX
  8
20
 10
16.3307
 20
15.4548
 30
0.0000
 42
1.0000
  0
VERTEX
  8
20
 10
16.2328
 20
15.4820
 30
0.0000
  0
SEQEND
  8
0
  0
POLYLINE
  8
20
 66
1
 10
0.0000
 20
0.0000
 30
0.0000
 40
0.2032
 41
0.2032
 70
0
  0
VERTEX
  8
20
 10
24.3568
 20
13.1316
 30
0.0000
  0
VERTEX
  8
20
 10
23.8375
 20
13.1316
 30
0.0000
  0
SEQEND
  8
0
  0
POLYLINE
  8
20
 66
1
 10
0.0000
 20
0.0000
 30
0.0000
 40
0.1016
 41
0.1016
 70
0
  0
VERTEX
  8
20
 10
23.8375
 20
13.1824
 30
0.0000
 42
1.0000
  0
VERTEX
  8
20
 10
23.8375
 20
13.0808
 30
0.0000
  0
SEQEND
  8
0
  0
POLYLINE
  8
20
 66
1
 10
0.0000
 20
0.0000
 30
0.0000
 40
0.1016
 41
0.1016
 70
0
  0
VERTEX
  8
20
 10
24.3568
 20
13.0808
 30
0.0000
 42
1.0000
  0
VERTEX
  8
20
 10
24.3568
 20
13.1824
 30
0.0000
  0
SEQEND
  8
0
  0
POLYLINE
  8
20
 66
1
 10
0.0000
 20
0.0000
 30
0.0000
 40
0.2032
 41
0.2032
 70
0
  0
VERTEX
  8
20
 10
23.3183
 20
13.6509
 30
0.0000
 42
0.4142
  0
VERTEX
  8
20
 10
23.8375
 20
13.1316
 30
0.0000
  0
SEQEND
  8
0
  0
POLYLINE
  8
20
 66
1
 10
0.0000
 20
0.0000
 30
0.0000
 40
0.1016
 41
0.1016
 70
0
  0
VERTEX
  8
20
 10
23.3691
 20
13.6509
 30
0.0000
 42
1.0000
  0
VERTEX
  8
20
 10
23.2675
 20
13.6509
 30
0.0000
  0
SEQEND
  8
0
  0
POLYLINE
  8
20
 66
1
 10
0.0000
 20
0.0000
 30
0.0000
 40
0.1016
 41
0.1016
 70
0
  0
VERTEX
  8
20
 10
23.8375
 20
13.0808
 30
0.0000
 42
1.0000
  0
VERTEX
  8
20
 10
23.8375
 20
13.1824
 30
0.0000
  0
SEQEND
  8
0
  0
POLYLINE
  8
20
 66
1
 10
0.0000
 20
0.0000
 30
0.0000
 40
0.2032
 41
0.2032
 70
0
  0
VERTEX
  8
20
 10
23.3183
 20
13.6509
 30
0.0000
  0
VERTEX
  8
20
 10
23.3183
 20
14.9491
 30
0.0000
  0
SEQEND
  8
0
  0
POLYLINE
  8
20
 66
1
 10
0.0000
 20
0.0000
 30
0.0000
 40
0.1016
 41
0.1016
 70
0
  0
VERTEX
  8
20
 10
23.3691
 20
14.9491
 30
0.0000
 42
1.0000
  0
VERTEX
  8
20
 10
23.2675
 20
14.9491
 30
0.0000
  0
SEQEND
  8
0
  0
POLYLINE
  8
20
 66
1
 10
0.0000
 20
0.0000
 30
0.0000
 40
0.1016
 41
0.1016
 70
0
  0
VERTEX
  8
20
 10
23.2675
 20
13.6509
 30
0.0000
 42
1.0000
  0
VERTEX
  8
20
 10
23.3691
 20
13.6509
 30
0.0000
  0
SEQEND
  8
0
  0
POLYLINE
  8
20
 66
1
 10
0.0000
 20
0.0000
 30
0.0000
 40
0.2032
 41
0.2032
 70
0
  0
VERTEX
  8
20
 10
23.8375
 20
15.4684
 30
0.0000
 42
0.4142
  0
VERTEX
  8
20
 10
23.3183
 20
14.9491
 30
0.0000
  0
SEQEND
  8
0
  0
POLYLINE
  8
20
 66
1
 10
0.0000
 20
0.0000
 30
0.0000
 40
0.1016
 41
0.1016
 70
0
  0
VERTEX
  8
20
 10
23.8375
 20
15.4176
 30
0.0000
 42
1.0000
  0
VERTEX
  8
20
 10
23.8375
 20
15.5192
 30
0.0000
  0
SEQEND
  8
0
  0
POLYLINE
  8
20
 66
1
 10
0.0000
 20
0.0000
 30
0.0000
 40
0.1016
 41
0.1016
 70
0
  0
VERTEX
  8
20
 10
23.2675
 20
14.9491
 30
0.0000
 42
1.0000
  0
VERTEX
  8
20
 10
23.3691
 20
14.9491
 30
0.0000
  0
SEQEND
  8
0
  0
POLYLINE
  8
20
 66
1
 10
0.0000
 20
0.0000
 30
0.0000
 40
0.2032
 41
0.2032
 70
0
  0
VERTEX
  8
20
 10
23.8375
 20
15.4684
 30
0.0000
  0
VERTEX
  8
20
 10
24.3568
 20
15.4684
 30
0.0000
  0
SEQEND
  8
0
  0
POLYLINE
  8
20
 66
1
 10
0.0000
 20
0.0000
 30
0.0000
 40
0.1016
 41
0.1016
 70
0
  0
VERTEX
  8
20
 10
24.3568
 20
15.4176
 30
0.0000
 42
1.0000
  0
VERTEX
  8
20
 10
24.3568
 20
15.5192
 30
0.0000
  0
SEQEND
  8
0
  0
POLYLINE
  8
20
 66
1
 10
0.0000
 20
0.0000
 30
0.0000
 40
0.1016
 41
0.1016
 70
0
  0
VERTEX
  8
20
 10
23.8375
 20
15.5192
 30
0.0000
 42
1.0000
  0
VERTEX
  8
20
 10
23.8375
 20
15.4176
 30
0.0000
  0
SEQEND
  8
0
  0
POLYLINE
  8
20
 66
1
 10
0.0000
 20
0.0000
 30
0.0000
 40
0.2032
 41
0.2032
 70
0
  0
VERTEX
  8
20
 10
25.5704
 20
13.1316
 30
0.0000
  0
VERTEX
  8
20
 10
25.5704
 20
15.4684
 30
0.0000
  0
SEQEND
  8
0
  0
POLYLINE
  8
20
 66
1
 10
0.0000
 20
0.0000
 30
0.0000
 40
0.1016
 41
0.1016
 70
0
  0
VERTEX
  8
20
 10
25.6212
 20
15.4684
 30
0.0000
 42
1.0000
  0
VERTEX
  8
20
 10
25.5196
 20
15.4684
 30
0.0000
  0
SEQEND
  8
0
  0
POLYLINE
  8
20
 66
1
 10
0.0000
 20
0.0000
 30
0.0000
 40
0.1016
 41
0.1016
 70
0
  0
VERTEX
  8
20
 10
25.5196
 20
13.1316
 30
0.0000
 42
1.0000
  0
VERTEX
  8
20
 10
25.6212
 20
13.1316
 30
0.0000
  0
SEQEND
  8
0
  0
POLYLINE
  8
20
 66
1
 10
0.0000
 20
0.0000
 30
0.0000
 40
0.2032
 41
0.2032
 70
0
  0
VERTEX
  8
20
 10
24.9213
 20
15.4684
 30
0.0000
  0
VERTEX
  8
20
 10
26.2195
 20
15.4684
 30
0.0000
  0
SEQEND
  8
0
  0
POLYLINE
  8
20
 66
1
 10
0.0000
 20
0.0000
 30
0.0000
 40
0.1016
 41
0.1016
 70
0
  0
VERTEX
  8
20
 10
26.2195
 20
15.4176
 30
0.0000
 42
1.0000
  0
VERTEX
  8
20
 10
26.2195
 20
15.5192
 30
0.0000
  0
SEQEND
  8
0
  0
POLYLINE
  8
20
 66
1
 10
0.0000
 20
0.0000
 30
0.0000
 40
0.1016
 41
0.1016
 70
0
  0
VERTEX
  8
20
 10
24.9213
 20
15.5192
 30
0.0000
 42
1.0000
  0
VERTEX
  8
20
 10
24.9213
 20
15.4176
 30
0.0000
  0
SEQEND
  8
0
  0
POLYLINE
  8
20
 66
1
 10
0.0000
 20
0.0000
 30
0.0000
 40
0.2032
 41
0.2032
 70
0
  0
VERTEX
  8
20
 10
29.2818
 20
13.7807
 30
0.0000
 42
1.0000
  0
VERTEX
  8
20
 10
27.9835
 20
13.7807
 30
0.0000
  0
SEQEND
  8
0
  0
POLYLINE
  8
20
 66
1
 10
0.0000
 20
0.0000
 30
0.0000
 40
0.1016
 41
0.1016
 70
0
  0
VERTEX
  8
20
 10
29.2310
 20
13.7807
 30
0.0000
 42
1.0000
  0
VERTEX
  8
20
 10
29.3326
 20
13.7807
 30
0.0000
  0
SEQEND
  8
0
  0
POLYLINE
  8
20
 66
1
 10
0.0000
 20
0.0000
 30
0.0000
 40
0.1016
 41
0.1016
 70
0
  0
VERTEX
  8
20
 10
27.9327
 20
13.7807
 30
0.0000
 42
1.0000
  0
VERTEX
  8
20
 10
28.0343
 20
13.7807
 30
0.0000
  0
SEQEND
  8
0
  0
POLYLINE
  8
20
 66
1
 10
0.0000
 20
0.0000
 30
0.0000
 40
0.2032
 41
0.2032
 70
0
  0
VERTEX
  8
20
 10
27.9835
 20
13.7807
 30
0.0000
 42
1.0000
  0
VERTEX
  8
20
 10
29.2818
 20
13.7807
 30
0.0000
  0
SEQEND
  8
0
  0
POLYLINE
  8
20
 66
1
 10
0.0000
 20
0.0000
 30
0.0000
 40
0.1016
 41
0.1016
 70
0
  0
VERTEX
  8
20
 10
28.0343
 20
13.7807
 30
0.0000
 42
1.0000
  0
VERTEX
  8
20
 10
27.9327
 20
13.7807
 30
0.0000
  0
SEQEND
  8
0
  0
POLYLINE
  8
20
 66
1
 10
0.0000
 20
0.0000
 30
0.0000
 40
0.1016
 41
0.1016
 70
0
  0
VERTEX
  8
20
 10
29.3326
 20
13.7807
 30
0.0000
 42
1.0000
  0
VERTEX
  8
20
 10
29.2310
 20
13.7807
 30
0.0000
  0
SEQEND
  8
0
  0
POLYLINE
  8
20
 66
1
 10
0.0000
 20
0.0000
 30
0.0000
 40
0.2032
 41
0.2032
 70
0
  0
VERTEX
  8
20
 10
29.1519
 20
14.9491
 30
0.0000
 42
1.0000
  0
VERTEX
  8
20
 10
28.1134
 20
14.9491
 30
0.0000
  0
SEQEND
  8
0
  0
POLYLINE
  8
20
 66
1
 10
0.0000
 20
0.0000
 30
0.0000
 40
0.1016
 41
0.1016
 70
0
  0
VERTEX
  8
20
 10
29.1011
 20
14.9491
 30
0.0000
 42
1.0000
  0
VERTEX
  8
20
 10
29.2027
 20
14.9491
 30
0.0000
  0
SEQEND
  8
0
  0
POLYLINE
  8
20
 66
1
 10
0.0000
 20
0.0000
 30
0.0000
 40
0.1016
 41
0.1016
 70
0
  0
VERTEX
  8
20
 10
28.0626
 20
14.9491
 30
0.0000
 42
1.0000
  0
VERTEX
  8
20
 10
28.1642
 20
14.9491
 30
0.0000
  0
SEQEND
  8
0
  0
POLYLINE
  8
20
 66
1
 10
0.0000
 20
0.0000
 30
0.0000
 40
0.2032
 41
0.2032
 70
0
  0
VERTEX
  8
20
 10
28.1134
 20
14.9491
 30
0.0000
 42
1.0000
  0
VERTEX
  8
20
 10
29.1519
 20
14.9491
 30
0.0000
  0
SEQEND
  8
0
  0
POLYLINE
  8
20
 66
1
 10
0.0000
 20
0.0000
 30
0.0000
 40
0.1016
 41
0.1016
 70
0
  0
VERTEX
  8
20
 10
28.1641
 20
14.9491
 30
0.0000
 42
1.0000
  0
VERTEX
  8
20
 10
28.0626
 20
14.9491
 30
0.0000
  0
SEQEND
  8
0
  0
POLYLINE
  8
20
 66
1
 10
0.0000
 20
0.0000
 30
0.0000
 40
0.1016
 41
0.1016
 70
0
  0
VERTEX
  8
20
 10
29.2027
 20
14.9491
 30
0.0000
 42
1.0000
  0
VERTEX
  8
20
 10
29.1011
 20
14.9491
 30
0.0000
  0
SEQEND
  8
0
  0
POLYLINE
  8
20
 66
1
 10
0.0000
 20
0.0000
 30
0.0000
 40
0.2032
 41
0.2032
 70
0
  0
VERTEX
  8
20
 10
37.3568
 20
13.1316
 30
0.0000
  0
VERTEX
  8
20
 10
36.8375
 20
13.1316
 30
0.0000
  0
SEQEND
  8
0
  0
POLYLINE
  8
20
 66
1
 10
0.0000
 20
0.0000
 30
0.0000
 40
0.1016
 41
0.1016
 70
0
  0
VERTEX
  8
20
 10
36.8375
 20
13.1824
 30
0.0000
 42
1.0000
  0
VERTEX
  8
20
 10
36.8375
 20
13.0808
 30
0.0000
  0
SEQEND
  8
0
  0
POLYLINE
  8
20
 66
1
 10
0.0000
 20
0.0000
 30
0.0000
 40
0.1016
 41
0.1016
 70
0
  0
VERTEX
  8
20
 10
37.3568
 20
13.0808
 30
0.0000
 42
1.0000
  0
VERTEX
  8
20
 10
37.3568
 20
13.1824
 30
0.0000
  0
SEQEND
  8
0
  0
POLYLINE
  8
20
 66
1
 10
0.0000
 20
0.0000
 30
0.0000
 40
0.2032
 41
0.2032
 70
0
  0
VERTEX
  8
20
 10
36.3182
 20
13.6509
 30
0.0000
 42
0.4142
  0
VERTEX
  8
20
 10
36.8375
 20
13.1316
 30
0.0000
  0
SEQEND
  8
0
  0
POLYLINE
  8
20
 66
1
 10
0.0000
 20
0.0000
 30
0.0000
 40
0.1016
 41
0.1016
 70
0
  0
VERTEX
  8
20
 10
36.3691
 20
13.6509
 30
0.0000
 42
1.0000
  0
VERTEX
  8
20
 10
36.2674
 20
13.6509
 30
0.0000
  0
SEQEND
  8
0
  0
POLYLINE
  8
20
 66
1
 10
0.0000
 20
0.0000
 30
0.0000
 40
0.1016
 41
0.1016
 70
0
  0
VERTEX
  8
20
 10
36.8375
 20
13.0808
 30
0.0000
 42
1.0000
  0
VERTEX
  8
20
 10
36.8375
 20
13.1824
 30
0.0000
  0
SEQEND
  8
0
  0
POLYLINE
  8
20
 66
1
 10
0.0000
 20
0.0000
 30
0.0000
 40
0.2032
 41
0.2032
 70
0
  0
VERTEX
  8
20
 10
36.3182
 20
13.6509
 30
0.0000
  0
VERTEX
  8
20
 10
36.3182
 20
14.9491
 30
0.0000
  0
SEQEND
  8
0
  0
POLYLINE
  8
20
 66
1
 10
0.0000
 20
0.0000
 30
0.0000
 40
0.1016
 41
0.1016
 70
0
  0
VERTEX
  8
20
 10
36.3691
 20
14.9491
 30
0.0000
 42
1.0000
  0
VERTEX
  8
20
 10
36.2674
 20
14.9491
 30
0.0000
  0
SEQEND
  8
0
  0
POLYLINE
  8
20
 66
1
 10
0.0000
 20
0.0000
 30
0.0000
 40
0.1016
 41
0.1016
 70
0
  0
VERTEX
  8
20
 10
36.2674
 20
13.6509
 30
0.0000
 42
1.0000
  0
VERTEX
  8
20
 10
36.3691
 20
13.6509
 30
0.0000
  0
SEQEND
  8
0
  0
POLYLINE
  8
20
 66
1
 10
0.0000
 20
0.0000
 30
0.0000
 40
0.2032
 41
0.2032
 70
0
  0
VERTEX
  8
20
 10
36.8375
 20
15.4684
 30
0.0000
 42
0.4142
  0
VERTEX
  8
20
 10
36.3182
 20
14.9491
 30
0.0000
  0
SEQEND
  8
0
  0
POLYLINE
  8
20
 66
1
 10
0.0000
 20
0.0000
 30
0.0000
 40
0.1016
 41
0.1016
 70
0
  0
VERTEX
  8
20
 10
36.8375
 20
15.4176
 30
0.0000
 42
1.0000
  0
VERTEX
  8
20
 10
36.8375
 20
15.5192
 30
0.0000
  0
SEQEND
  8
0
  0
POLYLINE
  8
20
 66
1
 10
0.0000
 20
0.0000
 30
0.0000
 40
0.1016
 41
0.1016
 70
0
  0
VERTEX
  8
20
 10
36.2674
 20
14.9491
 30
0.0000
 42
1.0000
  0
VERTEX
  8
20
 10
36.3691
 20
14.9491
 30
0.0000
  0
SEQEND
  8
0
  0
POLYLINE
  8
20
 66
1
 10
0.0000
 20
0.0000
 30
0.0000
 40
0.2032
 41
0.2032
 70
0
  0
VERTEX
  8
20
 10
36.8375
 20
15.4684
 30
0.0000
  0
VERTEX
  8
20
 10
37.3568
 20
15.4684
 30
0.0000
  0
SEQEND
  8
0
  0
POLYLINE
  8
20
 66
1
 10
0.0000
 20
0.0000
 30
0.0000
 40
0.1016
 41
0.1016
 70
0
  0
VERTEX
  8
20
 10
37.3568
 20
15.4176
 30
0.0000
 42
1.0000
  0
VERTEX
  8
20
 10
37.3568
 20
15.5192
 30
0.0000
  0
SEQEND
  8
0
  0
POLYLINE
  8
20
 66
1
 10
0.0000
 20
0.0000
 30
0.0000
 40
0.1016
 41
0.1016
 70
0
  0
VERTEX
  8
20
 10
36.8375
 20
15.5192
 30
0.0000
 42
1.0000
  0
VERTEX
  8
20
 10
36.8375
 20
15.4176
 30
0.0000
  0
SEQEND
  8
0
  0
POLYLINE
  8
20
 66
1
 10
0.0000
 20
0.0000
 30
0.0000
 40
0.2032
 41
0.2032
 70
0
  0
VERTEX
  8
20
 10
38.5704
 20
13.1316
 30
0.0000
  0
VERTEX
  8
20
 10
38.5704
 20
15.4684
 30
0.0000
  0
SEQEND
  8
0
  0
POLYLINE
  8
20
 66
1
 10
0.0000
 20
0.0000
 30
0.0000
 40
0.1016
 41
0.1016
 70
0
  0
VERTEX
  8
20
 10
38.6212
 20
15.4684
 30
0.0000
 42
1.0000
  0
VERTEX
  8
20
 10
38.5196
 20
15.4684
 30
0.0000
  0
SEQEND
  8
0
  0
POLYLINE
  8
20
 66
1
 10
0.0000
 20
0.0000
 30
0.0000
 40
0.1016
 41
0.1016
 70
0
  0
VERTEX
  8
20
 10
38.5196
 20
13.1316
 30
0.0000
 42
1.0000
  0
VERTEX
  8
20
 10
38.6212
 20
13.1316
 30
0.0000
  0
SEQEND
  8
0
  0
POLYLINE
  8
20
 66
1
 10
0.0000
 20
0.0000
 30
0.0000
 40
0.2032
 41
0.2032
 70
0
  0
VERTEX
  8
20
 10
37.9213
 20
15.4684
 30
0.0000
  0
VERTEX
  8
20
 10
39.2195
 20
15.4684
 30
0.0000
  0
SEQEND
  8
0
  0
POLYLINE
  8
20
 66
1
 10
0.0000
 20
0.0000
 30
0.0000
 40
0.1016
 41
0.1016
 70
0
  0
VERTEX
  8
20
 10
39.2195
 20
15.4176
 30
0.0000
 42
1.0000
  0
VERTEX
  8
20
 10
39.2195
 20
15.5192
 30
0.0000
  0
SEQEND
  8
0
  0
POLYLINE
  8
20
 66
1
 10
0.0000
 20
0.0000
 30
0.0000
 40
0.1016
 41
0.1016
 70
0
  0
VERTEX
  8
20
 10
37.9213
 20
15.5192
 30
0.0000
 42
1.0000
  0
VERTEX
  8
20
 10
37.9213
 20
15.4176
 30
0.0000
  0
SEQEND
  8
0
  0
POLYLINE
  8
20
 66
1
 10
0.0000
 20
0.0000
 30
0.0000
 40
0.2032
 41
0.2032
 70
0
  0
VERTEX
  8
20
 10
42.2818
 20
14.1702
 30
0.0000
  0
VERTEX
  8
20
 10
41.5028
 20
14.1702
 30
0.0000
  0
SEQEND
  8
0
  0
POLYLINE
  8
20
 66
1
 10
0.0000
 20
0.0000
 30
0.0000
 40
0.1016
 41
0.1016
 70
0
  0
VERTEX
  8
20
 10
41.5028
 20
14.2210
 30
0.0000
 42
1.0000
  0
VERTEX
  8
20
 10
41.5028
 20
14.1194
 30
0.0000
  0
SEQEND
  8
0
  0
POLYLINE
  8
20
 66
1
 10
0.0000
 20
0.0000
 30
0.0000
 40
0.1016
 41
0.1016
 70
0
  0
VERTEX
  8
20
 10
42.2818
 20
14.1194
 30
0.0000
 42
1.0000
  0
VERTEX
  8
20
 10
42.2818
 20
14.2210
 30
0.0000
  0
SEQEND
  8
0
  0
POLYLINE
  8
20
 66
1
 10
0.0000
 20
0.0000
 30
0.0000
 40
0.2032
 41
0.2032
 70
0
  0
VERTEX
  8
20
 10
40.9835
 20
14.6895
 30
0.0000
 42
0.4142
  0
VERTEX
  8
20
 10
41.5028
 20
14.1702
 30
0.0000
  0
SEQEND
  8
0
  0
POLYLINE
  8
20
 66
1
 10
0.0000
 20
0.0000
 30
0.0000
 40
0.1016
 41
0.1016
 70
0
  0
VERTEX
  8
20
 10
41.0343
 20
14.6895
 30
0.0000
 42
1.0000
  0
VERTEX
  8
20
 10
40.9327
 20
14.6895
 30
0.0000
  0
SEQEND
  8
0
  0
POLYLINE
  8
20
 66
1
 10
0.0000
 20
0.0000
 30
0.0000
 40
0.1016
 41
0.1016
 70
0
  0
VERTEX
  8
20
 10
41.5028
 20
14.1194
 30
0.0000
 42
1.0000
  0
VERTEX
  8
20
 10
41.5028
 20
14.2210
 30
0.0000
  0
SEQEND
  8
0
  0
POLYLINE
  8
20
 66
1
 10
0.0000
 20
0.0000
 30
0.0000
 40
0.2032
 41
0.2032
 70
0
  0
VERTEX
  8
20
 10
40.9835
 20
14.6895
 30
0.0000
  0
VERTEX
  8
20
 10
40.9835
 20
14.8193
 30
0.0000
  0
SEQEND
  8
0
  0
POLYLINE
  8
20
 66
1
 10
0.0000
 20
0.0000
 30
0.0000
 40
0.1016
 41
0.1016
 70
0
  0
VERTEX
  8
20
 10
41.0343
 20
14.8193
 30
0.0000
 42
1.0000
  0
VERTEX
  8
20
 10
40.9327
 20
14.8193
 30
0.0000
  0
SEQEND
  8
0
  0
POLYLINE
  8
20
 66
1
 10
0.0000
 20
0.0000
 30
0.0000
 40
0.1016
 41
0.1016
 70
0
  0
VERTEX
  8
20
 10
40.9327
 20
14.6895
 30
0.0000
 42
1.0000
  0
VERTEX
  8
20
 10
41.0343
 20
14.6895
 30
0.0000
  0
SEQEND
  8
0
  0
POLYLINE
  8
20
 66
1
 10
0.0000
 20
0.0000
 30
0.0000
 40
0.2032
 41
0.2032
 70
0
  0
VERTEX
  8
20
 10
42.2818
 20
14.8193
 30
0.0000
 42
1.0000
  0
VERTEX
  8
20
 10
40.9835
 20
14.8193
 30
0.0000
  0
SEQEND
  8
0
  0
POLYLINE
  8
20
 66
1
 10
0.0000
 20
0.0000
 30
0.0000
 40
0.1016
 41
0.1016
 70
0
  0
VERTEX
  8
20
 10
42.2309
 20
14.8193
 30
0.0000
 42
1.0000
  0
VERTEX
  8
20
 10
42.3326
 20
14.8193
 30
0.0000
  0
SEQEND
  8
0
  0
POLYLINE
  8
20
 66
1
 10
0.0000
 20
0.0000
 30
0.0000
 40
0.1016
 41
0.1016
 70
0
  0
VERTEX
  8
20
 10
40.9327
 20
14.8193
 30
0.0000
 42
1.0000
  0
VERTEX
  8
20
 10
41.0343
 20
14.8193
 30
0.0000
  0
SEQEND
  8
0
  0
POLYLINE
  8
20
 66
1
 10
0.0000
 20
0.0000
 30
0.0000
 40
0.2032
 41
0.2032
 70
0
  0
VERTEX
  8
20
 10
42.2818
 20
14.8193
 30
0.0000
  0
VERTEX
  8
20
 10
42.2818
 20
14.1702
 30
0.0000
  0
SEQEND
  8
0
  0
POLYLINE
  8
20
 66
1
 10
0.0000
 20
0.0000
 30
0.0000
 40
0.1016
 41
0.1016
 70
0
  0
VERTEX
  8
20
 10
42.2310
 20
14.1702
 30
0.0000
 42
1.0000
  0
VERTEX
  8
20
 10
42.3326
 20
14.1702
 30
0.0000
  0
SEQEND
  8
0
  0
POLYLINE
  8
20
 66
1
 10
0.0000
 20
0.0000
 30
0.0000
 40
0.1016
 41
0.1016
 70
0
  0
VERTEX
  8
20
 10
42.3326
 20
14.8193
 30
0.0000
 42
1.0000
  0
VERTEX
  8
20
 10
42.2310
 20
14.8193
 30
0.0000
  0
SEQEND
  8
0
  0
POLYLINE
  8
20
 66
1
 10
0.0000
 20
0.0000
 30
0.0000
 40
0.2032
 41
0.2032
 70
0
  0
VERTEX
  8
20
 10
41.2432
 20
13.1316
 30
0.0000
 42
0.4142
  0
VERTEX
  8
20
 10
42.2818
 20
14.1702
 30
0.0000
  0
SEQEND
  8
0
  0
POLYLINE
  8
20
 66
1
 10
0.0000
 20
0.0000
 30
0.0000
 40
0.1016
 41
0.1016
 70
0
  0
VERTEX
  8
20
 10
41.2432
 20
13.1824
 30
0.0000
 42
1.0000
  0
VERTEX
  8
20
 10
41.2432
 20
13.0808
 30
0.0000
  0
SEQEND
  8
0
  0
POLYLINE
  8
20
 66
1
 10
0.0000
 20
0.0000
 30
0.0000
 40
0.1016
 41
0.1016
 70
0
  0
VERTEX
  8
20
 10
42.3326
 20
14.1702
 30
0.0000
 42
1.0000
  0
VERTEX
  8
20
 10
42.2310
 20
14.1702
 30
0.0000
  0
SEQEND
  8
0
  0
POLYLINE
  8
20
 66
1
 10
0.0000
 20
0.0000
 30
0.0000
 40
0.2032
 41
0.2032
 70
0
  0
VERTEX
  8
20
 10
49.8129
 20
13.1316
 30
0.0000
  0
VERTEX
  8
20
 10
49.2936
 20
13.1316
 30
0.0000
  0
SEQEND
  8
0
  0
POLYLINE
  8
20
 66
1
 10
0.0000
 20
0.0000
 30
0.0000
 40
0.1016
 41
0.1016
 70
0
  0
VERTEX
  8
20
 10
49.2936
 20
13.1824
 30
0.0000
 42
1.0000
  0
VERTEX
  8
20
 10
49.2936
 20
13.0808
 30
0.0000
  0
SEQEND
  8
0
  0
POLYLINE
  8
20
 66
1
 10
0.0000
 20
0.0000
 30
0.0000
 40
0.1016
 41
0.1016
 70
0
  0
VERTEX
  8
20
 10
49.8129
 20
13.0808
 30
0.0000
 42
1.0000
  0
VERTEX
  8
20
 10
49.8129
 20
13.1824
 30
0.0000
  0
SEQEND
  8
0
  0
POLYLINE
  8
20
 66
1
 10
0.0000
 20
0.0000
 30
0.0000
 40
0.2032
 41
0.2032
 70
0
  0
VERTEX
  8
20
 10
48.7743
 20
13.6509
 30
0.0000
 42
0.4142
  0
VERTEX
  8
20
 10
49.2936
 20
13.1316
 30
0.0000
  0
SEQEND
  8
0
  0
POLYLINE
  8
20
 66
1
 10
0.0000
 20
0.0000
 30
0.0000
 40
0.1016
 41
0.1016
 70
0
  0
VERTEX
  8
20
 10
48.8251
 20
13.6509
 30
0.0000
 42
1.0000
  0
VERTEX
  8
20
 10
48.7235
 20
13.6509
 30
0.0000
  0
SEQEND
  8
0
  0
POLYLINE
  8
20
 66
1
 10
0.0000
 20
0.0000
 30
0.0000
 40
0.1016
 41
0.1016
 70
0
  0
VERTEX
  8
20
 10
49.2936
 20
13.0808
 30
0.0000
 42
1.0000
  0
VERTEX
  8
20
 10
49.2936
 20
13.1824
 30
0.0000
  0
SEQEND
  8
0
  0
POLYLINE
  8
20
 66
1
 10
0.0000
 20
0.0000
 30
0.0000
 40
0.2032
 41
0.2032
 70
0
  0
VERTEX
  8
20
 10
48.7743
 20
13.6509
 30
0.0000
  0
VERTEX
  8
20
 10
48.7743
 20
14.9491
 30
0.0000
  0
SEQEND
  8
0
  0
POLYLINE
  8
20
 66
1
 10
0.0000
 20
0.0000
 30
0.0000
 40
0.1016
 41
0.1016
 70
0
  0
VERTEX
  8
20
 10
48.8251
 20
14.9491
 30
0.0000
 42
1.0000
  0
VERTEX
  8
20
 10
48.7235
 20
14.9491
 30
0.0000
  0
SEQEND
  8
0
  0
POLYLINE
  8
20
 66
1
 10
0.0000
 20
0.0000
 30
0.0000
 40
0.1016
 41
0.1016
 70
0
  0
VERTEX
  8
20
 10
48.7235
 20
13.6509
 30
0.0000
 42
1.0000
  0
VERTEX
  8
20
 10
48.8251
 20
13.6509
 30
0.0000
  0
SEQEND
  8
0
  0
POLYLINE
  8
20
 66
1
 10
0.0000
 20
0.0000
 30
0.0000
 40
0.2032
 41
0.2032
 70
0
  0
VERTEX
  8
20
 10
49.2936
 20
15.4684
 30
0.0000
 42
0.4142
  0
VERTEX
  8
20
 10
48.7743
 20
14.9491
 30
0.0000
  0
SEQEND
  8
0
  0
POLYLINE
  8
20
 66
1
 10
0.0000
 20
0.0000
 30
0.0000
 40
0.1016
 41
0.1016
 70
0
  0
VERTEX
  8
20
 10
49.2936
 20
15.4176
 30
0.0000
 42
1.0000
  0
VERTEX
  8
20
 10
49.2936
 20
15.5192
 30
0.0000
  0
SEQEND
  8
0
  0
POLYLINE
  8
20
 66
1
 10
0.0000
 20
0.0000
 30
0.0000
 40
0.1016
 41
0.1016
 70
0
  0
VERTEX
  8
20
 10
48.7235
 20
14.9491
 30
0.0000
 42
1.0000
  0
VERTEX
  8
20
 10
48.8251
 20
14.9491
 30
0.0000
  0
SEQEND
  8
0
  0
POLYLINE
  8
20
 66
1
 10
0.0000
 20
0.0000
 30
0.0000
 40
0.2032
 41
0.2032
 70
0
  0
VERTEX
  8
20
 10
49.2936
 20
15.4684
 30
0.0000
  0
VERTEX
  8
20
 10
49.8129
 20
15.4684
 30
0.0000
  0
SEQEND
  8
0
  0
POLYLINE
  8
20
 66
1
 10
0.0000
 20
0.0000
 30
0.0000
 40
0.1016
 41
0.1016
 70
0
  0
VERTEX
  8
20
 10
49.8129
 20
15.4176
 30
0.0000
 42
1.0000
  0
VERTEX
  8
20
 10
49.8129
 20
15.5192
 30
0.0000
  0
SEQEND
  8
0
  0
POLYLINE
  8
20
 66
1
 10
0.0000
 20
0.0000
 30
0.0000
 40
0.1016
 41
0.1016
 70
0
  0
VERTEX
  8
20
 10
49.2936
 20
15.5192
 30
0.0000
 42
1.0000
  0
VERTEX
  8
20
 10
49.2936
 20
15.4176
 30
0.0000
  0
SEQEND
  8
0
  0
POLYLINE
  8
20
 66
1
 10
0.0000
 20
0.0000
 30
0.0000
 40
0.2032
 41
0.2032
 70
0
  0
VERTEX
  8
20
 10
51.0265
 20
13.1316
 30
0.0000
  0
VERTEX
  8
20
 10
51.0265
 20
15.4684
 30
0.0000
  0
SEQEND
  8
0
  0
POLYLINE
  8
20
 66
1
 10
0.0000
 20
0.0000
 30
0.0000
 40
0.1016
 41
0.1016
 70
0
  0
VERTEX
  8
20
 10
51.0773
 20
15.4684
 30
0.0000
 42
1.0000
  0
VERTEX
  8
20
 10
50.9757
 20
15.4684
 30
0.0000
  0
SEQEND
  8
0
  0
POLYLINE
  8
20
 66
1
 10
0.0000
 20
0.0000
 30
0.0000
 40
0.1016
 41
0.1016
 70
0
  0
VERTEX
  8
20
 10
50.9757
 20
13.1316
 30
0.0000
 42
1.0000
  0
VERTEX
  8
20
 10
51.0773
 20
13.1316
 30
0.0000
  0
SEQEND
  8
0
  0
POLYLINE
  8
20
 66
1
 10
0.0000
 20
0.0000
 30
0.0000
 40
0.2032
 41
0.2032
 70
0
  0
VERTEX
  8
20
 10
50.3774
 20
15.4684
 30
0.0000
  0
VERTEX
  8
20
 10
51.6756
 20
15.4684
 30
0.0000
  0
SEQEND
  8
0
  0
POLYLINE
  8
20
 66
1
 10
0.0000
 20
0.0000
 30
0.0000
 40
0.1016
 41
0.1016
 70
0
  0
VERTEX
  8
20
 10
51.6756
 20
15.4176
 30
0.0000
 42
1.0000
  0
VERTEX
  8
20
 10
51.6756
 20
15.5192
 30
0.0000
  0
SEQEND
  8
0
  0
POLYLINE
  8
20
 66
1
 10
0.0000
 20
0.0000
 30
0.0000
 40
0.1016
 41
0.1016
 70
0
  0
VERTEX
  8
20
 10
50.3774
 20
15.5192
 30
0.0000
 42
1.0000
  0
VERTEX
  8
20
 10
50.3774
 20
15.4176
 30
0.0000
  0
SEQEND
  8
0
  0
POLYLINE
  8
20
 66
1
 10
0.0000
 20
0.0000
 30
0.0000
 40
0.2032
 41
0.2032
 70
0
  0
VERTEX
  8
20
 10
53.4396
 20
14.9491
 30
0.0000
  0
VERTEX
  8
20
 10
54.0887
 20
15.4684
 30
0.0000
  0
SEQEND
  8
0
  0
POLYLINE
  8
20
 66
1
 10
0.0000
 20
0.0000
 30
0.0000
 40
0.1016
 41
0.1016
 70
0
  0
VERTEX
  8
20
 10
54.1204
 20
15.4287
 30
0.0000
 42
1.0000
  0
VERTEX
  8
20
 10
54.0570
 20
15.5081
 30
0.0000
  0
SEQEND
  8
0
  0
POLYLINE
  8
20
 66
1
 10
0.0000
 20
0.0000
 30
0.0000
 40
0.1016
 41
0.1016
 70
0
  0
VERTEX
  8
20
 10
53.4079
 20
14.9888
 30
0.0000
 42
1.0000
  0
VERTEX
  8
20
 10
53.4713
 20
14.9094
 30
0.0000
  0
SEQEND
  8
0
  0
POLYLINE
  8
20
 66
1
 10
0.0000
 20
0.0000
 30
0.0000
 40
0.2032
 41
0.2032
 70
0
  0
VERTEX
  8
20
 10
54.0887
 20
15.4684
 30
0.0000
  0
VERTEX
  8
20
 10
54.0887
 20
13.1316
 30
0.0000
  0
SEQEND
  8
0
  0
POLYLINE
  8
20
 66
1
 10
0.0000
 20
0.0000
 30
0.0000
 40
0.1016
 41
0.1016
 70
0
  0
VERTEX
  8
20
 10
54.0379
 20
13.1316
 30
0.0000
 42
1.0000
  0
VERTEX
  8
20
 10
54.1395
 20
13.1316
 30
0.0000
  0
SEQEND
  8
0
  0
POLYLINE
  8
20
 66
1
 10
0.0000
 20
0.0000
 30
0.0000
 40
0.1016
 41
0.1016
 70
0
  0
VERTEX
  8
20
 10
54.1395
 20
15.4684
 30
0.0000
 42
1.0000
  0
VERTEX
  8
20
 10
54.0379
 20
15.4684
 30
0.0000
  0
SEQEND
  8
0
  0
POLYLINE
  8
20
 66
1
 10
0.0000
 20
0.0000
 30
0.0000
 40
0.2032
 41
0.2032
 70
0
  0
VERTEX
  8
20
 10
53.4396
 20
13.1316
 30
0.0000
  0
VERTEX
  8
20
 10
54.7378
 20
13.1316
 30
0.0000
  0
SEQEND
  8
0
  0
POLYLINE
  8
20
 66
1
 10
0.0000
 20
0.0000
 30
0.0000
 40
0.1016
 41
0.1016
 70
0
  0
VERTEX
  8
20
 10
54.7378
 20
13.0808
 30
0.0000
 42
1.0000
  0
VERTEX
  8
20
 10
54.7378
 20
13.1824
 30
0.0000
  0
SEQEND
  8
0
  0
POLYLINE
  8
20
 66
1
 10
0.0000
 20
0.0000
 30
0.0000
 40
0.1016
 41
0.1016
 70
0
  0
VERTEX
  8
20
 10
53.4396
 20
13.1824
 30
0.0000
 42
1.0000
  0
VERTEX
  8
20
 10
53.4396
 20
13.0808
 30
0.0000
  0
SEQEND
  8
0
  0
POLYLINE
  8
20
 66
1
 10
0.0000
 20
0.0000
 30
0.0000
 40
0.2032
 41
0.2032
 70
0
  0
VERTEX
  8
20
 10
55.7222
 20
15.1438
 30
0.0000
 42
0.1139
  0
VERTEX
  8
20
 10
55.5275
 20
14.3000
 30
0.0000
  0
SEQEND
  8
0
  0
POLYLINE
  8
20
 66
1
 10
0.0000
 20
0.0000
 30
0.0000
 40
0.1016
 41
0.1016
 70
0
  0
VERTEX
  8
20
 10
55.7679
 20
15.1216
 30
0.0000
 42
1.0000
  0
VERTEX
  8
20
 10
55.6765
 20
15.1661
 30
0.0000
  0
SEQEND
  8
0
  0
POLYLINE
  8
20
 66
1
 10
0.0000
 20
0.0000
 30
0.0000
 40
0.1016
 41
0.1016
 70
0
  0
VERTEX
  8
20
 10
55.4767
 20
14.3000
 30
0.0000
 42
1.0000
  0
VERTEX
  8
20
 10
55.5783
 20
14.3000
 30
0.0000
  0
SEQEND
  8
0
  0
POLYLINE
  8
20
 66
1
 10
0.0000
 20
0.0000
 30
0.0000
 40
0.2032
 41
0.2032
 70
0
  0
VERTEX
  8
20
 10
56.1766
 20
15.4684
 30
0.0000
 42
0.3205
  0
VERTEX
  8
20
 10
55.7222
 20
15.1438
 30
0.0000
  0
SEQEND
  8
0
  0
POLYLINE
  8
20
 66
1
 10
0.0000
 20
0.0000
 30
0.0000
 40
0.1016
 41
0.1016
 70
0
  0
VERTEX
  8
20
 10
56.1766
 20
15.4176
 30
0.0000
 42
1.0000
  0
VERTEX
  8
20
 10
56.1766
 20
15.5192
 30
0.0000
  0
SEQEND
  8
0
  0
POLYLINE
  8
20
 66
1
 10
0.0000
 20
0.0000
 30
0.0000
 40
0.1016
 41
0.1016
 70
0
  0
VERTEX
  8
20
 10
55.6741
 20
15.1603
 30
0.0000
 42
1.0000
  0
VERTEX
  8
20
 10
55.7703
 20
15.1274
 30
0.0000
  0
SEQEND
  8
0
  0
POLYLINE
  8
20
 66
1
 10
0.0000
 20
0.0000
 30
0.0000
 40
0.2032
 41
0.2032
 70
0
  0
VERTEX
  8
20
 10
56.6310
 20
15.1438
 30
0.0000
 42
0.3205
  0
VERTEX
  8
20
 10
56.1766
 20
15.4684
 30
0.0000
  0
SEQEND
  8
0
  0
POLYLINE
  8
20
 66
1
 10
0.0000
 20
0.0000
 30
0.0000
 40
0.1016
 41
0.1016
 70
0
  0
VERTEX
  8
20
 10
56.5829
 20
15.1274
 30
0.0000
 42
1.0000
  0
VERTEX
  8
20
 10
56.6790
 20
15.1603
 30
0.0000
  0
SEQEND
  8
0
  0
POLYLINE
  8
20
 66
1
 10
0.0000
 20
0.0000
 30
0.0000
 40
0.1016
 41
0.1016
 70
0
  0
VERTEX
  8
20
 10
56.1766
 20
15.5192
 30
0.0000
 42
1.0000
  0
VERTEX
  8
20
 10
56.1766
 20
15.4176
 30
0.0000
  0
SEQEND
  8
0
  0
POLYLINE
  8
20
 66
1
 10
0.0000
 20
0.0000
 30
0.0000
 40
0.2032
 41
0.2032
 70
0
  0
VERTEX
  8
20
 10
56.8257
 20
14.3000
 30
0.0000
 42
0.1139
  0
VERTEX
  8
20
 10
56.6310
 20
15.1438
 30
0.0000
  0
SEQEND
  8
0
  0
POLYLINE
  8
20
 66
1
 10
0.0000
 20
0.0000
 30
0.0000
 40
0.1016
 41
0.1016
 70
0
  0
VERTEX
  8
20
 10
56.7749
 20
14.3000
 30
0.0000
 42
1.0000
  0
VERTEX
  8
20
 10
56.8765
 20
14.3000
 30
0.0000
  0
SEQEND
  8
0
  0
POLYLINE
  8
20
 66
1
 10
0.0000
 20
0.0000
 30
0.0000
 40
0.1016
 41
0.1016
 70
0
  0
VERTEX
  8
20
 10
56.6766
 20
15.1661
 30
0.0000
 42
1.0000
  0
VERTEX
  8
20
 10
56.5853
 20
15.1216
 30
0.0000
  0
SEQEND
  8
0
  0
POLYLINE
  8
20
 66
1
 10
0.0000
 20
0.0000
 30
0.0000
 40
0.2032
 41
0.2032
 70
0
  0
VERTEX
  8
20
 10
55.5275
 20
14.3000
 30
0.0000
 42
0.1139
  0
VERTEX
  8
20
 10
55.7222
 20
13.4562
 30
0.0000
  0
SEQEND
  8
0
  0
POLYLINE
  8
20
 66
1
 10
0.0000
 20
0.0000
 30
0.0000
 40
0.1016
 41
0.1016
 70
0
  0
VERTEX
  8
20
 10
55.5783
 20
14.3000
 30
0.0000
 42
1.0000
  0
VERTEX
  8
20
 10
55.4767
 20
14.3000
 30
0.0000
  0
SEQEND
  8
0
  0
POLYLINE
  8
20
 66
1
 10
0.0000
 20
0.0000
 30
0.0000
 40
0.1016
 41
0.1016
 70
0
  0
VERTEX
  8
20
 10
55.6765
 20
13.4339
 30
0.0000
 42
1.0000
  0
VERTEX
  8
20
 10
55.7679
 20
13.4784
 30
0.0000
  0
SEQEND
  8
0
  0
POLYLINE
  8
20
 66
1
 10
0.0000
 20
0.0000
 30
0.0000
 40
0.2032
 41
0.2032
 70
0
  0
VERTEX
  8
20
 10
55.7222
 20
13.4562
 30
0.0000
 42
0.3205
  0
VERTEX
  8
20
 10
56.1766
 20
13.1316
 30
0.0000
  0
SEQEND
  8
0
  0
POLYLINE
  8
20
 66
1
 10
0.0000
 20
0.0000
 30
0.0000
 40
0.1016
 41
0.1016
 70
0
  0
VERTEX
  8
20
 10
55.7703
 20
13.4726
 30
0.0000
 42
1.0000
  0
VERTEX
  8
20
 10
55.6741
 20
13.4397
 30
0.0000
  0
SEQEND
  8
0
  0
POLYLINE
  8
20
 66
1
 10
0.0000
 20
0.0000
 30
0.0000
 40
0.1016
 41
0.1016
 70
0
  0
VERTEX
  8
20
 10
56.1766
 20
13.0808
 30
0.0000
 42
1.0000
  0
VERTEX
  8
20
 10
56.1766
 20
13.1824
 30
0.0000
  0
SEQEND
  8
0
  0
POLYLINE
  8
20
 66
1
 10
0.0000
 20
0.0000
 30
0.0000
 40
0.2032
 41
0.2032
 70
0
  0
VERTEX
  8
20
 10
56.6310
 20
13.4562
 30
0.0000
 42
0.1139
  0
VERTEX
  8
20
 10
56.8257
 20
14.3000
 30
0.0000
  0
SEQEND
  8
0
  0
POLYLINE
  8
20
 66
1
 10
0.0000
 20
0.0000
 30
0.0000
 40
0.1016
 41
0.1016
 70
0
  0
VERTEX
  8
20
 10
56.5853
 20
13.4784
 30
0.0000
 42
1.0000
  0
VERTEX
  8
20
 10
56.6766
 20
13.4339
 30
0.0000
  0
SEQEND
  8
0
  0
POLYLINE
  8
20
 66
1
 10
0.0000
 20
0.0000
 30
0.0000
 40
0.1016
 41
0.1016
 70
0
  0
VERTEX
  8
20
 10
56.8765
 20
14.3000
 30
0.0000
 42
1.0000
  0
VERTEX
  8
20
 10
56.7749
 20
14.3000
 30
0.0000
  0
SEQEND
  8
0
  0
POLYLINE
  8
20
 66
1
 10
0.0000
 20
0.0000
 30
0.0000
 40
0.2032
 41
0.2032
 70
0
  0
VERTEX
  8
20
 10
56.1766
 20
13.1316
 30
0.0000
 42
0.3205
  0
VERTEX
  8
20
 10
56.6310
 20
13.4562
 30
0.0000
  0
SEQEND
  8
0
  0
POLYLINE
  8
20
 66
1
 10
0.0000
 20
0.0000
 30
0.0000
 40
0.1016
 41
0.1016
 70
0
  0
VERTEX
  8
20
 10
56.1766
 20
13.1824
 30
0.0000
 42
1.0000
  0
VERTEX
  8
20
 10
56.1766
 20
13.0808
 30
0.0000
  0
SEQEND
  8
0
  0
POLYLINE
  8
20
 66
1
 10
0.0000
 20
0.0000
 30
0.0000
 40
0.1016
 41
0.1016
 70
0
  0
VERTEX
  8
20
 10
56.6790
 20
13.4397
 30
0.0000
 42
1.0000
  0
VERTEX
  8
20
 10
56.5829
 20
13.4726
 30
0.0000
  0
SEQEND
  8
0
  0
POLYLINE
  8
20
 66
1
 10
0.0000
 20
0.0000
 30
0.0000
 40
0.2032
 41
0.2032
 70
0
  0
VERTEX
  8
20
 10
55.6573
 20
13.6509
 30
0.0000
  0
VERTEX
  8
20
 10
56.6959
 20
14.9491
 30
0.0000
  0
SEQEND
  8
0
  0
POLYLINE
  8
20
 66
1
 10
0.0000
 20
0.0000
 30
0.0000
 40
0.1016
 41
0.1016
 70
0
  0
VERTEX
  8
20
 10
56.7355
 20
14.9174
 30
0.0000
 42
1.0000
  0
VERTEX
  8
20
 10
56.6562
 20
14.9808
 30
0.0000
  0
SEQEND
  8
0
  0
POLYLINE
  8
20
 66
1
 10
0.0000
 20
0.0000
 30
0.0000
 40
0.1016
 41
0.1016
 70
0
  0
VERTEX
  8
20
 10
55.6176
 20
13.6826
 30
0.0000
 42
1.0000
  0
VERTEX
  8
20
 10
55.6970
 20
13.6192
 30
0.0000
  0
SEQEND
  8
0
  0
POLYLINE
  8
20
 66
1
 10
0.0000
 20
0.0000
 30
0.0000
 40
0.2032
 41
0.2032
 70
0
  0
VERTEX
  8
20
 10
62.8129
 20
13.1316
 30
0.0000
  0
VERTEX
  8
20
 10
62.2936
 20
13.1316
 30
0.0000
  0
SEQEND
  8
0
  0
POLYLINE
  8
20
 66
1
 10
0.0000
 20
0.0000
 30
0.0000
 40
0.1016
 41
0.1016
 70
0
  0
VERTEX
  8
20
 10
62.2936
 20
13.1824
 30
0.0000
 42
1.0000
  0
VERTEX
  8
20
 10
62.2936
 20
13.0808
 30
0.0000
  0
SEQEND
  8
0
  0
POLYLINE
  8
20
 66
1
 10
0.0000
 20
0.0000
 30
0.0000
 40
0.1016
 41
0.1016
 70
0
  0
VERTEX
  8
20
 10
62.8129
 20
13.0808
 30
0.0000
 42
1.0000
  0
VERTEX
  8
20
 10
62.8129
 20
13.1824
 30
0.0000
  0
SEQEND
  8
0
  0
POLYLINE
  8
20
 66
1
 10
0.0000
 20
0.0000
 30
0.0000
 40
0.2032
 41
0.2032
 70
0
  0
VERTEX
  8
20
 10
61.7743
 20
13.6509
 30
0.0000
 42
0.4142
  0
VERTEX
  8
20
 10
62.2936
 20
13.1316
 30
0.0000
  0
SEQEND
  8
0
  0
POLYLINE
  8
20
 66
1
 10
0.0000
 20
0.0000
 30
0.0000
 40
0.1016
 41
0.1016
 70
0
  0
VERTEX
  8
20
 10
61.8251
 20
13.6509
 30
0.0000
 42
1.0000
  0
VERTEX
  8
20
 10
61.7235
 20
13.6509
 30
0.0000
  0
SEQEND
  8
0
  0
POLYLINE
  8
20
 66
1
 10
0.0000
 20
0.0000
 30
0.0000
 40
0.1016
 41
0.1016
 70
0
  0
VERTEX
  8
20
 10
62.2936
 20
13.0808
 30
0.0000
 42
1.0000
  0
VERTEX
  8
20
 10
62.2936
 20
13.1824
 30
0.0000
  0
SEQEND
  8
0
  0
POLYLINE
  8
20
 66
1
 10
0.0000
 20
0.0000
 30
0.0000
 40
0.2032
 41
0.2032
 70
0
  0
VERTEX
  8
20
 10
61.7743
 20
13.6509
 30
0.0000
  0
VERTEX
  8
20
 10
61.7743
 20
14.9491
 30
0.0000
  0
SEQEND
  8
0
  0
POLYLINE
  8
20
 66
1
 10
0.0000
 20
0.0000
 30
0.0000
 40
0.1016
 41
0.1016
 70
0
  0
VERTEX
  8
20
 10
61.8251
 20
14.9491
 30
0.0000
 42
1.0000
  0
VERTEX
  8
20
 10
61.7235
 20
14.9491
 30
0.0000
  0
SEQEND
  8
0
  0
POLYLINE
  8
20
 66
1
 10
0.0000
 20
0.0000
 30
0.0000
 40
0.1016
 41
0.1016
 70
0
  0
VERTEX
  8
20
 10
61.7235
 20
13.6509
 30
0.0000
 42
1.0000
  0
VERTEX
  8
20
 10
61.8251
 20
13.6509
 30
0.0000
  0
SEQEND
  8
0
  0
POLYLINE
  8
20
 66
1
 10
0.0000
 20
0.0000
 30
0.0000
 40
0.2032
 41
0.2032
 70
0
  0
VERTEX
  8
20
 10
62.2936
 20
15.4684
 30
0.0000
 42
0.4142
  0
VERTEX
  8
20
 10
61.7743
 20
14.9491
 30
0.0000
  0
SEQEND
  8
0
  0
POLYLINE
  8
20
 66
1
 10
0.0000
 20
0.0000
 30
0.0000
 40
0.1016
 41
0.1016
 70
0
  0
VERTEX
  8
20
 10
62.2936
 20
15.4176
 30
0.0000
 42
1.0000
  0
VERTEX
  8
20
 10
62.2936
 20
15.5192
 30
0.0000
  0
SEQEND
  8
0
  0
POLYLINE
  8
20
 66
1
 10
0.0000
 20
0.0000
 30
0.0000
 40
0.1016
 41
0.1016
 70
0
  0
VERTEX
  8
20
 10
61.7235
 20
14.9491
 30
0.0000
 42
1.0000
  0
VERTEX
  8
20
 10
61.8251
 20
14.9491
 30
0.0000
  0
SEQEND
  8
0
  0
POLYLINE
  8
20
 66
1
 10
0.0000
 20
0.0000
 30
0.0000
 40
0.2032
 41
0.2032
 70
0
  0
VERTEX
  8
20
 10
62.2936
 20
15.4684
 30
0.0000
  0
VERTEX
  8
20
 10
62.8129
 20
15.4684
 30
0.0000
  0
SEQEND
  8
0
  0
POLYLINE
  8
20
 66
1
 10
0.0000
 20
0.0000
 30
0.0000
 40
0.1016
 41
0.1016
 70
0
  0
VERTEX
  8
20
 10
62.8129
 20
15.4176
 30
0.0000
 42
1.0000
  0
VERTEX
  8
20
 10
62.8129
 20
15.5192
 30
0.0000
  0
SEQEND
  8
0
  0
POLYLINE
  8
20
 66
1
 10
0.0000
 20
0.0000
 30
0.0000
 40
0.1016
 41
0.1016
 70
0
  0
VERTEX
  8
20
 10
62.2936
 20
15.5192
 30
0.0000
 42
1.0000
  0
VERTEX
  8
20
 10
62.2936
 20
15.4176
 30
0.0000
  0
SEQEND
  8
0
  0
POLYLINE
  8
20
 66
1
 10
0.0000
 20
0.0000
 30
0.0000
 40
0.2032
 41
0.2032
 70
0
  0
VERTEX
  8
20
 10
64.0265
 20
13.1316
 30
0.0000
  0
VERTEX
  8
20
 10
64.0265
 20
15.4684
 30
0.0000
  0
SEQEND
  8
0
  0
POLYLINE
  8
20
 66
1
 10
0.0000
 20
0.0000
 30
0.0000
 40
0.1016
 41
0.1016
 70
0
  0
VERTEX
  8
20
 10
64.0773
 20
15.4684
 30
0.0000
 42
1.0000
  0
VERTEX
  8
20
 10
63.9757
 20
15.4684
 30
0.0000
  0
SEQEND
  8
0
  0
POLYLINE
  8
20
 66
1
 10
0.0000
 20
0.0000
 30
0.0000
 40
0.1016
 41
0.1016
 70
0
  0
VERTEX
  8
20
 10
63.9757
 20
13.1316
 30
0.0000
 42
1.0000
  0
VERTEX
  8
20
 10
64.0773
 20
13.1316
 30
0.0000
  0
SEQEND
  8
0
  0
POLYLINE
  8
20
 66
1
 10
0.0000
 20
0.0000
 30
0.0000
 40
0.2032
 41
0.2032
 70
0
  0
VERTEX
  8
20
 10
63.3774
 20
15.4684
 30
0.0000
  0
VERTEX
  8
20
 10
64.6756
 20
15.4684
 30
0.0000
  0
SEQEND
  8
0
  0
POLYLINE
  8
20
 66
1
 10
0.0000
 20
0.0000
 30
0.0000
 40
0.1016
 41
0.1016
 70
0
  0
VERTEX
  8
20
 10
64.6756
 20
15.4176
 30
0.0000
 42
1.0000
  0
VERTEX
  8
20
 10
64.6756
 20
15.5192
 30
0.0000
  0
SEQEND
  8
0
  0
POLYLINE
  8
20
 66
1
 10
0.0000
 20
0.0000
 30
0.0000
 40
0.1016
 41
0.1016
 70
0
  0
VERTEX
  8
20
 10
63.3774
 20
15.5192
 30
0.0000
 42
1.0000
  0
VERTEX
  8
20
 10
63.3774
 20
15.4176
 30
0.0000
  0
SEQEND
  8
0
  0
POLYLINE
  8
20
 66
1
 10
0.0000
 20
0.0000
 30
0.0000
 40
0.2032
 41
0.2032
 70
0
  0
VERTEX
  8
20
 10
66.4396
 20
14.9491
 30
0.0000
  0
VERTEX
  8
20
 10
67.0887
 20
15.4684
 30
0.0000
  0
SEQEND
  8
0
  0
POLYLINE
  8
20
 66
1
 10
0.0000
 20
0.0000
 30
0.0000
 40
0.1016
 41
0.1016
 70
0
  0
VERTEX
  8
20
 10
67.1204
 20
15.4287
 30
0.0000
 42
1.0000
  0
VERTEX
  8
20
 10
67.0570
 20
15.5081
 30
0.0000
  0
SEQEND
  8
0
  0
POLYLINE
  8
20
 66
1
 10
0.0000
 20
0.0000
 30
0.0000
 40
0.1016
 41
0.1016
 70
0
  0
VERTEX
  8
20
 10
66.4079
 20
14.9888
 30
0.0000
 42
1.0000
  0
VERTEX
  8
20
 10
66.4713
 20
14.9094
 30
0.0000
  0
SEQEND
  8
0
  0
POLYLINE
  8
20
 66
1
 10
0.0000
 20
0.0000
 30
0.0000
 40
0.2032
 41
0.2032
 70
0
  0
VERTEX
  8
20
 10
67.0887
 20
15.4684
 30
0.0000
  0
VERTEX
  8
20
 10
67.0887
 20
13.1316
 30
0.0000
  0
SEQEND
  8
0
  0
POLYLINE
  8
20
 66
1
 10
0.0000
 20
0.0000
 30
0.0000
 40
0.1016
 41
0.1016
 70
0
  0
VERTEX
  8
20
 10
67.0379
 20
13.1316
 30
0.0000
 42
1.0000
  0
VERTEX
  8
20
 10
67.1395
 20
13.1316
 30
0.0000
  0
SEQEND
  8
0
  0
POLYLINE
  8
20
 66
1
 10
0.0000
 20
0.0000
 30
0.0000
 40
0.1016
 41
0.1016
 70
0
  0
VERTEX
  8
20
 10
67.1395
 20
15.4684
 30
0.0000
 42
1.0000
  0
VERTEX
  8
20
 10
67.0379
 20
15.4684
 30
0.0000
  0
SEQEND
  8
0
  0
POLYLINE
  8
20
 66
1
 10
0.0000
 20
0.0000
 30
0.0000
 40
0.2032
 41
0.2032
 70
0
  0
VERTEX
  8
20
 10
66.4396
 20
13.1316
 30
0.0000
  0
VERTEX
  8
20
 10
67.7378
 20
13.1316
 30
0.0000
  0
SEQEND
  8
0
  0
POLYLINE
  8
20
 66
1
 10
0.0000
 20
0.0000
 30
0.0000
 40
0.1016
 41
0.1016
 70
0
  0
VERTEX
  8
20
 10
67.7378
 20
13.0808
 30
0.0000
 42
1.0000
  0
VERTEX
  8
20
 10
67.7378
 20
13.1824
 30
0.0000
  0
SEQEND
  8
0
  0
POLYLINE
  8
20
 66
1
 10
0.0000
 20
0.0000
 30
0.0000
 40
0.1016
 41
0.1016
 70
0
  0
VERTEX
  8
20
 10
66.4396
 20
13.1824
 30
0.0000
 42
1.0000
  0
VERTEX
  8
20
 10
66.4396
 20
13.0808
 30
0.0000
  0
SEQEND
  8
0
  0
POLYLINE
  8
20
 66
1
 10
0.0000
 20
0.0000
 30
0.0000
 40
0.2032
 41
0.2032
 70
0
  0
VERTEX
  8
20
 10
68.5275
 20
14.9491
 30
0.0000
  0
VERTEX
  8
20
 10
69.1766
 20
15.4684
 30
0.0000
  0
SEQEND
  8
0
  0
POLYLINE
  8
20
 66
1
 10
0.0000
 20
0.0000
 30
0.0000
 40
0.1016
 41
0.1016
 70
0
  0
VERTEX
  8
20
 10
69.2083
 20
15.4287
 30
0.0000
 42
1.0000
  0
VERTEX
  8
20
 10
69.1448
 20
15.5081
 30
0.0000
  0
SEQEND
  8
0
  0
POLYLINE
  8
20
 66
1
 10
0.0000
 20
0.0000
 30
0.0000
 40
0.1016
 41
0.1016
 70
0
  0
VERTEX
  8
20
 10
68.4957
 20
14.9888
 30
0.0000
 42
1.0000
  0
VERTEX
  8
20
 10
68.5592
 20
14.9094
 30
0.0000
  0
SEQEND
  8
0
  0
POLYLINE
  8
20
 66
1
 10
0.0000
 20
0.0000
 30
0.0000
 40
0.2032
 41
0.2032
 70
0
  0
VERTEX
  8
20
 10
69.1766
 20
15.4684
 30
0.0000
  0
VERTEX
  8
20
 10
69.1766
 20
13.1316
 30
0.0000
  0
SEQEND
  8
0
  0
POLYLINE
  8
20
 66
1
 10
0.0000
 20
0.0000
 30
0.0000
 40
0.1016
 41
0.1016
 70
0
  0
VERTEX
  8
20
 10
69.1258
 20
13.1316
 30
0.0000
 42
1.0000
  0
VERTEX
  8
20
 10
69.2274
 20
13.1316
 30
0.0000
  0
SEQEND
  8
0
  0
POLYLINE
  8
20
 66
1
 10
0.0000
 20
0.0000
 30
0.0000
 40
0.1016
 41
0.1016
 70
0
  0
VERTEX
  8
20
 10
69.2274
 20
15.4684
 30
0.0000
 42
1.0000
  0
VERTEX
  8
20
 10
69.1258
 20
15.4684
 30
0.0000
  0
SEQEND
  8
0
  0
POLYLINE
  8
20
 66
1
 10
0.0000
 20
0.0000
 30
0.0000
 40
0.2032
 41
0.2032
 70
0
  0
VERTEX
  8
20
 10
68.5275
 20
13.1316
 30
0.0000
  0
VERTEX
  8
20
 10
69.8257
 20
13.1316
 30
0.0000
  0
SEQEND
  8
0
  0
POLYLINE
  8
20
 66
1
 10
0.0000
 20
0.0000
 30
0.0000
 40
0.1016
 41
0.1016
 70
0
  0
VERTEX
  8
20
 10
69.8257
 20
13.0808
 30
0.0000
 42
1.0000
  0
VERTEX
  8
20
 10
69.8257
 20
13.1824
 30
0.0000
  0
SEQEND
  8
0
  0
POLYLINE
  8
20
 66
1
 10
0.0000
 20
0.0000
 30
0.0000
 40
0.1016
 41
0.1016
 70
0
  0
VERTEX
  8
20
 10
68.5275
 20
13.1824
 30
0.0000
 42
1.0000
  0
VERTEX
  8
20
 10
68.5275
 20
13.0808
 30
0.0000
  0
SEQEND
  8
0
  0
POLYLINE
  8
20
 66
1
 10
0.0000
 20
0.0000
 30
0.0000
 40
0.2032
 41
0.2032
 70
0
  0
VERTEX
  8
20
 10
75.8129
 20
13.1316
 30
0.0000
  0
VERTEX
  8
20
 10
75.2936
 20
13.1316
 30
0.0000
  0
SEQEND
  8
0
  0
POLYLINE
  8
20
 66
1
 10
0.0000
 20
0.0000
 30
0.0000
 40
0.1016
 41
0.1016
 70
0
  0
VERTEX
  8
20
 10
75.2936
 20
13.1824
 30
0.0000
 42
1.0000
  0
VERTEX
  8
20
 10
75.2936
 20
13.0808
 30
0.0000
  0
SEQEND
  8
0
  0
POLYLINE
  8
20
 66
1
 10
0.0000
 20
0.0000
 30
0.0000
 40
0.1016
 41
0.1016
 70
0
  0
VERTEX
  8
20
 10
75.8129
 20
13.0808
 30
0.0000
 42
1.0000
  0
VERTEX
  8
20
 10
75.8129
 20
13.1824
 30
0.0000
  0
SEQEND
  8
0
  0
POLYLINE
  8
20
 66
1
 10
0.0000
 20
0.0000
 30
0.0000
 40
0.2032
 41
0.2032
 70
0
  0
VERTEX
  8
20
 10
74.7743
 20
13.6509
 30
0.0000
 42
0.4142
  0
VERTEX
  8
20
 10
75.2936
 20
13.1316
 30
0.0000
  0
SEQEND
  8
0
  0
POLYLINE
  8
20
 66
1
 10
0.0000
 20
0.0000
 30
0.0000
 40
0.1016
 41
0.1016
 70
0
  0
VERTEX
  8
20
 10
74.8251
 20
13.6509
 30
0.0000
 42
1.0000
  0
VERTEX
  8
20
 10
74.7235
 20
13.6509
 30
0.0000
  0
SEQEND
  8
0
  0
POLYLINE
  8
20
 66
1
 10
0.0000
 20
0.0000
 30
0.0000
 40
0.1016
 41
0.1016
 70
0
  0
VERTEX
  8
20
 10
75.2936
 20
13.0808
 30
0.0000
 42
1.0000
  0
VERTEX
  8
20
 10
75.2936
 20
13.1824
 30
0.0000
  0
SEQEND
  8
0
  0
POLYLINE
  8
20
 66
1
 10
0.0000
 20
0.0000
 30
0.0000
 40
0.2032
 41
0.2032
 70
0
  0
VERTEX
  8
20
 10
74.7743
 20
13.6509
 30
0.0000
  0
VERTEX
  8
20
 10
74.7743
 20
14.9491
 30
0.0000
  0
SEQEND
  8
0
  0
POLYLINE
  8
20
 66
1
 10
0.0000
 20
0.0000
 30
0.0000
 40
0.1016
 41
0.1016
 70
0
  0
VERTEX
  8
20
 10
74.8251
 20
14.9491
 30
0.0000
 42
1.0000
  0
VERTEX
  8
20
 10
74.7235
 20
14.9491
 30
0.0000
  0
SEQEND
  8
0
  0
POLYLINE
  8
20
 66
1
 10
0.0000
 20
0.0000
 30
0.0000
 40
0.1016
 41
0.1016
 70
0
  0
VERTEX
  8
20
 10
74.7235
 20
13.6509
 30
0.0000
 42
1.0000
  0
VERTEX
  8
20
 10
74.8251
 20
13.6509
 30
0.0000
  0
SEQEND
  8
0
  0
POLYLINE
  8
20
 66
1
 10
0.0000
 20
0.0000
 30
0.0000
 40
0.2032
 41
0.2032
 70
0
  0
VERTEX
  8
20
 10
75.2936
 20
15.4684
 30
0.0000
 42
0.4142
  0
VERTEX
  8
20
 10
74.7743
 20
14.9491
 30
0.0000
  0
SEQEND
  8
0
  0
POLYLINE
  8
20
 66
1
 10
0.0000
 20
0.0000
 30
0.0000
 40
0.1016
 41
0.1016
 70
0
  0
VERTEX
  8
20
 10
75.2936
 20
15.4176
 30
0.0000
 42
1.0000
  0
VERTEX
  8
20
 10
75.2936
 20
15.5192
 30
0.0000
  0
SEQEND
  8
0
  0
POLYLINE
  8
20
 66
1
 10
0.0000
 20
0.0000
 30
0.0000
 40
0.1016
 41
0.1016
 70
0
  0
VERTEX
  8
20
 10
74.7235
 20
14.9491
 30
0.0000
 42
1.0000
  0
VERTEX
  8
20
 10
74.8251
 20
14.9491
 30
0.0000
  0
SEQEND
  8
0
  0
POLYLINE
  8
20
 66
1
 10
0.0000
 20
0.0000
 30
0.0000
 40
0.2032
 41
0.2032
 70
0
  0
VERTEX
  8
20
 10
75.2936
 20
15.4684
 30
0.0000
  0
VERTEX
  8
20
 10
75.8129
 20
15.4684
 30
0.0000
  0
SEQEND
  8
0
  0
POLYLINE
  8
20
 66
1
 10
0.0000
 20
0.0000
 30
0.0000
 40
0.1016
 41
0.1016
 70
0
  0
VERTEX
  8
20
 10
75.8129
 20
15.4176
 30
0.0000
 42
1.0000
  0
VERTEX
  8
20
 10
75.8129
 20
15.5192
 30
0.0000
  0
SEQEND
  8
0
  0
POLYLINE
  8
20
 66
1
 10
0.0000
 20
0.0000
 30
0.0000
 40
0.1016
 41
0.1016
 70
0
  0
VERTEX
  8
20
 10
75.2936
 20
15.5192
 30
0.0000
 42
1.0000
  0
VERTEX
  8
20
 10
75.2936
 20
15.4176
 30
0.0000
  0
SEQEND
  8
0
  0
POLYLINE
  8
20
 66
1
 10
0.0000
 20
0.0000
 30
0.0000
 40
0.2032
 41
0.2032
 70
0
  0
VERTEX
  8
20
 10
77.0265
 20
13.1316
 30
0.0000
  0
VERTEX
  8
20
 10
77.0265
 20
15.4684
 30
0.0000
  0
SEQEND
  8
0
  0
POLYLINE
  8
20
 66
1
 10
0.0000
 20
0.0000
 30
0.0000
 40
0.1016
 41
0.1016
 70
0
  0
VERTEX
  8
20
 10
77.0773
 20
15.4684
 30
0.0000
 42
1.0000
  0
VERTEX
  8
20
 10
76.9757
 20
15.4684
 30
0.0000
  0
SEQEND
  8
0
  0
POLYLINE
  8
20
 66
1
 10
0.0000
 20
0.0000
 30
0.0000
 40
0.1016
 41
0.1016
 70
0
  0
VERTEX
  8
20
 10
76.9757
 20
13.1316
 30
0.0000
 42
1.0000
  0
VERTEX
  8
20
 10
77.0773
 20
13.1316
 30
0.0000
  0
SEQEND
  8
0
  0
POLYLINE
  8
20
 66
1
 10
0.0000
 20
0.0000
 30
0.0000
 40
0.2032
 41
0.2032
 70
0
  0
VERTEX
  8
20
 10
76.3774
 20
15.4684
 30
0.0000
  0
VERTEX
  8
20
 10
77.6756
 20
15.4684
 30
0.0000
  0
SEQEND
  8
0
  0
POLYLINE
  8
20
 66
1
 10
0.0000
 20
0.0000
 30
0.0000
 40
0.1016
 41
0.1016
 70
0
  0
VERTEX
  8
20
 10
77.6756
 20
15.4176
 30
0.0000
 42
1.0000
  0
VERTEX
  8
20
 10
77.6756
 20
15.5192
 30
0.0000
  0
SEQEND
  8
0
  0
POLYLINE
  8
20
 66
1
 10
0.0000
 20
0.0000
 30
0.0000
 40
0.1016
 41
0.1016
 70
0
  0
VERTEX
  8
20
 10
76.3774
 20
15.5192
 30
0.0000
 42
1.0000
  0
VERTEX
  8
20
 10
76.3774
 20
15.4176
 30
0.0000
  0
SEQEND
  8
0
  0
POLYLINE
  8
20
 66
1
 10
0.0000
 20
0.0000
 30
0.0000
 40
0.2032
 41
0.2032
 70
0
  0
VERTEX
  8
20
 10
79.4396
 20
14.9491
 30
0.0000
  0
VERTEX
  8
20
 10
80.0887
 20
15.4684
 30
0.0000
  0
SEQEND
  8
0
  0
POLYLINE
  8
20
 66
1
 10
0.0000
 20
0.0000
 30
0.0000
 40
0.1016
 41
0.1016
 70
0
  0
VERTEX
  8
20
 10
80.1204
 20
15.4287
 30
0.0000
 42
1.0000
  0
VERTEX
  8
20
 10
80.0570
 20
15.5081
 30
0.0000
  0
SEQEND
  8
0
  0
POLYLINE
  8
20
 66
1
 10
0.0000
 20
0.0000
 30
0.0000
 40
0.1016
 41
0.1016
 70
0
  0
VERTEX
  8
20
 10
79.4079
 20
14.9888
 30
0.0000
 42
1.0000
  0
VERTEX
  8
20
 10
79.4713
 20
14.9094
 30
0.0000
  0
SEQEND
  8
0
  0
POLYLINE
  8
20
 66
1
 10
0.0000
 20
0.0000
 30
0.0000
 40
0.2032
 41
0.2032
 70
0
  0
VERTEX
  8
20
 10
80.0887
 20
15.4684
 30
0.0000
  0
VERTEX
  8
20
 10
80.0887
 20
13.1316
 30
0.0000
  0
SEQEND
  8
0
  0
POLYLINE
  8
20
 66
1
 10
0.0000
 20
0.0000
 30
0.0000
 40
0.1016
 41
0.1016
 70
0
  0
VERTEX
  8
20
 10
80.0379
 20
13.1316
 30
0.0000
 42
1.0000
  0
VERTEX
  8
20
 10
80.1395
 20
13.1316
 30
0.0000
  0
SEQEND
  8
0
  0
POLYLINE
  8
20
 66
1
 10
0.0000
 20
0.0000
 30
0.0000
 40
0.1016
 41
0.1016
 70
0
  0
VERTEX
  8
20
 10
80.1395
 20
15.4684
 30
0.0000
 42
1.0000
  0
VERTEX
  8
20
 10
80.0379
 20
15.4684
 30
0.0000
  0
SEQEND
  8
0
  0
POLYLINE
  8
20
 66
1
 10
0.0000
 20
0.0000
 30
0.0000
 40
0.2032
 41
0.2032
 70
0
  0
VERTEX
  8
20
 10
79.4396
 20
13.1316
 30
0.0000
  0
VERTEX
  8
20
 10
80.7378
 20
13.1316
 30
0.0000
  0
SEQEND
  8
0
  0
POLYLINE
  8
20
 66
1
 10
0.0000
 20
0.0000
 30
0.0000
 40
0.1016
 41
0.1016
 70
0
  0
VERTEX
  8
20
 10
80.7378
 20
13.0808
 30
0.0000
 42
1.0000
  0
VERTEX
  8
20
 10
80.7378
 20
13.1824
 30
0.0000
  0
SEQEND
  8
0
  0
POLYLINE
  8
20
 66
1
 10
0.0000
 20
0.0000
 30
0.0000
 40
0.1016
 41
0.1016
 70
0
  0
VERTEX
  8
20
 10
79.4396
 20
13.1824
 30
0.0000
 42
1.0000
  0
VERTEX
  8
20
 10
79.4396
 20
13.0808
 30
0.0000
  0
SEQEND
  8
0
  0
POLYLINE
  8
20
 66
1
 10
0.0000
 20
0.0000
 30
0.0000
 40
0.2032
 41
0.2032
 70
0
  0
VERTEX
  8
20
 10
82.8257
 20
14.8842
 30
0.0000
 42
0.4142
  0
VERTEX
  8
20
 10
82.2415
 20
15.4684
 30
0.0000
  0
SEQEND
  8
0
  0
POLYLINE
  8
20
 66
1
 10
0.0000
 20
0.0000
 30
0.0000
 40
0.1016
 41
0.1016
 70
0
  0
VERTEX
  8
20
 10
82.7749
 20
14.8842
 30
0.0000
 42
1.0000
  0
VERTEX
  8
20
 10
82.8765
 20
14.8842
 30
0.0000
  0
SEQEND
  8
0
  0
POLYLINE
  8
20
 66
1
 10
0.0000
 20
0.0000
 30
0.0000
 40
0.1016
 41
0.1016
 70
0
  0
VERTEX
  8
20
 10
82.2415
 20
15.5192
 30
0.0000
 42
1.0000
  0
VERTEX
  8
20
 10
82.2415
 20
15.4176
 30
0.0000
  0
SEQEND
  8
0
  0
POLYLINE
  8
20
 66
1
 10
0.0000
 20
0.0000
 30
0.0000
 40
0.2032
 41
0.2032
 70
0
  0
VERTEX
  8
20
 10
82.2415
 20
15.4684
 30
0.0000
 42
0.3252
  0
VERTEX
  8
20
 10
81.5275
 20
14.9491
 30
0.0000
  0
SEQEND
  8
0
  0
POLYLINE
  8
20
 66
1
 10
0.0000
 20
0.0000
 30
0.0000
 40
0.1016
 41
0.1016
 70
0
  0
VERTEX
  8
20
 10
82.2415
 20
15.4176
 30
0.0000
 42
1.0000
  0
VERTEX
  8
20
 10
82.2415
 20
15.5192
 30
0.0000
  0
SEQEND
  8
0
  0
POLYLINE
  8
20
 66
1
 10
0.0000
 20
0.0000
 30
0.0000
 40
0.1016
 41
0.1016
 70
0
  0
VERTEX
  8
20
 10
81.4791
 20
14.9648
 30
0.0000
 42
1.0000
  0
VERTEX
  8
20
 10
81.5758
 20
14.9335
 30
0.0000
  0
SEQEND
  8
0
  0
POLYLINE
  8
20
 66
1
 10
0.0000
 20
0.0000
 30
0.0000
 40
0.2032
 41
0.2032
 70
0
  0
VERTEX
  8
20
 10
82.6310
 20
14.4298
 30
0.0000
 42
0.2053
  0
VERTEX
  8
20
 10
82.8257
 20
14.8842
 30
0.0000
  0
SEQEND
  8
0
  0
POLYLINE
  8
20
 66
1
 10
0.0000
 20
0.0000
 30
0.0000
 40
0.1016
 41
0.1016
 70
0
  0
VERTEX
  8
20
 10
82.5959
 20
14.4666
 30
0.0000
 42
1.0000
  0
VERTEX
  8
20
 10
82.6660
 20
14.3930
 30
0.0000
  0
SEQEND
  8
0
  0
POLYLINE
  8
20
 66
1
 10
0.0000
 20
0.0000
 30
0.0000
 40
0.1016
 41
0.1016
 70
0
  0
VERTEX
  8
20
 10
82.8765
 20
14.8842
 30
0.0000
 42
1.0000
  0
VERTEX
  8
20
 10
82.7749
 20
14.8842
 30
0.0000
  0
SEQEND
  8
0
  0
POLYLINE
  8
20
 66
1
 10
0.0000
 20
0.0000
 30
0.0000
 40
0.2032
 41
0.2032
 70
0
  0
VERTEX
  8
20
 10
82.6310
 20
14.4298
 30
0.0000
  0
VERTEX
  8
20
 10
81.5275
 20
13.1316
 30
0.0000
  0
SEQEND
  8
0
  0
POLYLINE
  8
20
 66
1
 10
0.0000
 20
0.0000
 30
0.0000
 40
0.1016
 41
0.1016
 70
0
  0
VERTEX
  8
20
 10
81.4888
 20
13.1645
 30
0.0000
 42
1.0000
  0
VERTEX
  8
20
 10
81.5662
 20
13.0987
 30
0.0000
  0
SEQEND
  8
0
  0
POLYLINE
  8
20
 66
1
 10
0.0000
 20
0.0000
 30
0.0000
 40
0.1016
 41
0.1016
 70
0
  0
VERTEX
  8
20
 10
82.6697
 20
14.3969
 30
0.0000
 42
1.0000
  0
VERTEX
  8
20
 10
82.5922
 20
14.4627
 30
0.0000
  0
SEQEND
  8
0
  0
POLYLINE
  8
20
 66
1
 10
0.0000
 20
0.0000
 30
0.0000
 40
0.2032
 41
0.2032
 70
0
  0
VERTEX
  8
20
 10
81.5275
 20
13.1316
 30
0.0000
  0
VERTEX
  8
20
 10
82.8257
 20
13.1316
 30
0.0000
  0
SEQEND
  8
0
  0
POLYLINE
  8
20
 66
1
 10
0.0000
 20
0.0000
 30
0.0000
 40
0.1016
 41
0.1016
 70
0
  0
VERTEX
  8
20
 10
82.8257
 20
13.0808
 30
0.0000
 42
1.0000
  0
VERTEX
  8
20
 10
82.8257
 20
13.1824
 30
0.0000
  0
SEQEND
  8
0
  0
POLYLINE
  8
20
 66
1
 10
0.0000
 20
0.0000
 30
0.0000
 40
0.1016
 41
0.1016
 70
0
  0
VERTEX
  8
20
 10
81.5275
 20
13.1824
 30
0.0000
 42
1.0000
  0
VERTEX
  8
20
 10
81.5275
 20
13.0808
 30
0.0000
  0
SEQEND
  8
0
  0
POLYLINE
  8
20
 66
1
 10
0.0000
 20
0.0000
 30
0.0000
 40
0.1500
 41
0.1500
 70
0
  0
VERTEX
  8
20
 10
12.8000
 20
28.7586
 30
0.0000
 42
1.0000
  0
VERTEX
  8
20
 10
12.8000
 20
34.8414
 30
0.0000
 42
1.0000
  0
VERTEX
  8
20
 10
12.8000
 20
28.7586
 30
0.0000
  0
SEQEND
  8
0
  0
POLYLINE
  8
20
 66
1
 10
0.0000
 20
0.0000
 30
0.0000
 40
0.1500
 41
0.1500
 70
0
  0
VERTEX
  8
20
 10
25.8000
 20
28.7586
 30
0.0000
 42
1.0000
  0
VERTEX
  8
20
 10
25.8000
 20
34.8414
 30
0.0000
 42
1.0000
  0
VERTEX
  8
20
 10
25.8000
 20
28.7586
 30
0.0000
  0
SEQEND
  8
0
  0
POLYLINE
  8
20
 66
1
 10
0.0000
 20
0.0000
 30
0.0000
 40
0.1500
 41
0.1500
 70
0
  0
VERTEX
  8
20
 10
38.8000
 20
28.7586
 30
0.0000
 42
1.0000
  0
VERTEX
  8
20
 10
38.8000
 20
34.8414
 30
0.0000
 42
1.0000
  0
VERTEX
  8
20
 10
38.8000
 20
28.7586
 30
0.0000
  0
SEQEND
  8
0
  0
POLYLINE
  8
20
 66
1
 10
0.0000
 20
0.0000
 30
0.0000
 40
0.1500
 41
0.1500
 70
0
  0
VERTEX
  8
20
 10
52.8000
 20
28.7586
 30
0.0000
 42
1.0000
  0
VERTEX
  8
20
 10
52.8000
 20
34.8414
 30
0.0000
 42
1.0000
  0
VERTEX
  8
20
 10
52.8000
 20
28.7586
 30
0.0000
  0
SEQEND
  8
0
  0
POLYLINE
  8
20
 66
1
 10
0.0000
 20
0.0000
 30
0.0000
 40
0.1500
 41
0.1500
 70
0
  0
VERTEX
  8
20
 10
65.8000
 20
28.7586
 30
0.0000
 42
1.0000
  0
VERTEX
  8
20
 10
65.8000
 20
34.8414
 30
0.0000
 42
1.0000
  0
VERTEX
  8
20
 10
65.8000
 20
28.7586
 30
0.0000
  0
SEQEND
  8
0
  0
POLYLINE
  8
20
 66
1
 10
0.0000
 20
0.0000
 30
0.0000
 40
0.1500
 41
0.1500
 70
0
  0
VERTEX
  8
20
 10
78.8000
 20
28.7586
 30
0.0000
 42
1.0000
  0
VERTEX
  8
20
 10
78.8000
 20
34.8414
 30
0.0000
 42
1.0000
  0
VERTEX
  8
20
 10
78.8000
 20
28.7586
 30
0.0000
  0
SEQEND
  8
0
  0
POLYLINE
  8
20
 66
1
 10
0.0000
 20
0.0000
 30
0.0000
 40
0.1500
 41
0.1500
 70
0
  0
VERTEX
  8
20
 10
3.6700
 20
39.1700
 30
0.0000
 42
1.0000
  0
VERTEX
  8
20
 10
3.6700
 20
42.5700
 30
0.0000
 42
1.0000
  0
VERTEX
  8
20
 10
3.6700
 20
39.1700
 30
0.0000
  0
SEQEND
  8
0
  0
POLYLINE
  8
20
 66
1
 10
0.0000
 20
0.0000
 30
0.0000
 40
0.1500
 41
0.1500
 70
0
  0
VERTEX
  8
20
 10
3.6600
 20
1.9500
 30
0.0000
 42
1.0000
  0
VERTEX
  8
20
 10
3.6600
 20
5.3500
 30
0.0000
 42
1.0000
  0
VERTEX
  8
20
 10
3.6600
 20
1.9500
 30
0.0000
  0
SEQEND
  8
0
  0
POLYLINE
  8
20
 66
1
 10
0.0000
 20
0.0000
 30
0.0000
 40
0.1500
 41
0.1500
 70
0
  0
VERTEX
  8
20
 10
87.9900
 20
1.9600
 30
0.0000
 42
1.0000
  0
VERTEX
  8
20
 10
87.9900
 20
5.3600
 30
0.0000
 42
1.0000
  0
VERTEX
  8
20
 10
87.9900
 20
1.9600
 30
0.0000
  0
SEQEND
  8
0
  0
POLYLINE
  8
20
 66
1
 10
0.0000
 20
0.0000
 30
0.0000
 40
0.1500
 41
0.1500
 70
0
  0
VERTEX
  8
20
 10
87.9900
 20
39.1700
 30
0.0000
 42
1.0000
  0
VERTEX
  8
20
 10
87.9900
 20
42.5700
 30
0.0000
 42
1.0000
  0
VERTEX
  8
20
 10
87.9900
 20
39.1700
 30
0.0000
  0
SEQEND
  8
0
  0
POLYLINE
  8
20
 66
1
 10
0.0000
 20
0.0000
 30
0.0000
 40
0.1500
 41
0.1500
 70
0
  0
VERTEX
  8
20
 10
12.8000
 20
17.5586
 30
0.0000
 42
1.0000
  0
VERTEX
  8
20
 10
12.8000
 20
23.6414
 30
0.0000
 42
1.0000
  0
VERTEX
  8
20
 10
12.8000
 20
17.5586
 30
0.0000
  0
SEQEND
  8
0
  0
POLYLINE
  8
20
 66
1
 10
0.0000
 20
0.0000
 30
0.0000
 40
0.1500
 41
0.1500
 70
0
  0
VERTEX
  8
20
 10
25.8000
 20
17.5586
 30
0.0000
 42
1.0000
  0
VERTEX
  8
20
 10
25.8000
 20
23.6414
 30
0.0000
 42
1.0000
  0
VERTEX
  8
20
 10
25.8000
 20
17.5586
 30
0.0000
  0
SEQEND
  8
0
  0
POLYLINE
  8
20
 66
1
 10
0.0000
 20
0.0000
 30
0.0000
 40
0.1500
 41
0.1500
 70
0
  0
VERTEX
  8
20
 10
38.8000
 20
17.5586
 30
0.0000
 42
1.0000
  0
VERTEX
  8
20
 10
38.8000
 20
23.6414
 30
0.0000
 42
1.0000
  0
VERTEX
  8
20
 10
38.8000
 20
17.5586
 30
0.0000
  0
SEQEND
  8
0
  0
POLYLINE
  8
20
 66
1
 10
0.0000
 20
0.0000
 30
0.0000
 40
0.1500
 41
0.1500
 70
0
  0
VERTEX
  8
20
 10
52.8000
 20
17.5586
 30
0.0000
 42
1.0000
  0
VERTEX
  8
20
 10
52.8000
 20
23.6414
 30
0.0000
 42
1.0000
  0
VERTEX
  8
20
 10
52.8000
 20
17.5586
 30
0.0000
  0
SEQEND
  8
0
  0
POLYLINE
  8
20
 66
1
 10
0.0000
 20
0.0000
 30
0.0000
 40
0.1500
 41
0.1500
 70
0
  0
VERTEX
  8
20
 10
65.8000
 20
17.5586
 30
0.0000
 42
1.0000
  0
VERTEX
  8
20
 10
65.8000
 20
23.6414
 30
0.0000
 42
1.0000
  0
VERTEX
  8
20
 10
65.8000
 20
17.5586
 30
0.0000
  0
SEQEND
  8
0
  0
POLYLINE
  8
20
 66
1
 10
0.0000
 20
0.0000
 30
0.0000
 40
0.1500
 41
0.1500
 70
0
  0
VERTEX
  8
20
 10
78.8000
 20
17.5586
 30
0.0000
 42
1.0000
  0
VERTEX
  8
20
 10
78.8000
 20
23.6414
 30
0.0000
 42
1.0000
  0
VERTEX
  8
20
 10
78.8000
 20
17.5586
 30
0.0000
  0
SEQEND
  8
0
  0
ENDSEC
  0
EOF
