M48
;GenerationSoftware,Autodesk,EAGLE,9.6.2*%
;CreationDate,2023-04-05T19:30:20Z*%
FMAT,2
ICI,OFF
METRIC,TZ,000.000
T11C0.600
T10C0.990
T9C1.000
T8C1.016
T7C1.200
T6C1.500
T5C1.600
T4C1.700
T3C2.800
T2C3.200
%
G90
M71
T2
X84500Y67215
X84500Y55785
T3
X31000Y5750
X31000Y80000
X28500Y73000
X28500Y24000
T4
X8500Y75000
X15500Y9000
X8500Y9000
X15500Y22000
X15500Y35000
X8500Y35000
X15500Y49000
X8500Y49000
X15500Y62000
X8500Y62000
X8500Y22000
X15500Y75000
T5
X88040Y4460
X88040Y9540
X82960Y4460
X82960Y9540
T6
X85500Y7000
T7
X87000Y73000
X87000Y21500
X87000Y76500
X87000Y80000
X87000Y25000
X87000Y18000
X87000Y36000
X87000Y32500
X87000Y29000
T8
X33000Y40160
X63750Y34690
X63750Y37230
X63750Y39770
X63750Y42310
X81640Y25270
X79100Y25270
X76560Y25270
X74020Y25270
X71480Y25270
X68940Y25270
X40242Y28557
X66400Y25270
X68932Y19401
X71472Y19401
X74012Y19401
X76552Y19401
X79092Y19401
X81632Y19401
X40242Y33637
X40242Y31097
X63860Y25270
X33000Y19840
X33000Y22380
X33000Y24920
X33000Y27460
X33000Y30000
X33000Y32540
X33000Y35080
X33000Y37620
X53700Y22730
X61320Y25270
X58780Y25270
X56240Y25270
X53700Y25270
X51160Y25270
X81640Y22730
X79100Y22730
X76560Y22730
X74020Y22730
X71480Y22730
X68940Y22730
X66400Y22730
X63860Y22730
X61320Y22730
X58780Y22730
X56240Y22730
X51160Y22730
T9
X75610Y60865
X75610Y58325
X75610Y63405
X88380Y41680
X78150Y64675
X75610Y65945
X78150Y59595
X78150Y57055
X84200Y41680
X84200Y50330
X78150Y62135
X88380Y50330
T10
X76490Y40750
X76490Y36250
X69990Y40750
X69990Y36250
T11
X60000Y50250
X58500Y41500
X57250Y41500
X60000Y48750
X41430Y48046
X43180Y52158
X41500Y37750
X68750Y38000
X65500Y38500
X70750Y30750
X56750Y27500
X59250Y27500
X55626Y20225
X61595Y20225
X59250Y29250
X54750Y27500
X43000Y39750
X45000Y50750
X69500Y31500
X68250Y32250
X53896Y18828
X74000Y30500
X54250Y31250
X60250Y34250
X59750Y41500
X60000Y47250
X84700Y43110
X84700Y48890
X45250Y31250
X69576Y34048
X76250Y46750
X37250Y44500
X46000Y32750
X46750Y44500
X49000Y44500
X49000Y42000
X46750Y42000
X72000Y48750
X49000Y51750
X57250Y50000
X58000Y3000
X49076Y27798
X61826Y32798
X79326Y32798
X79576Y36548
X80000Y49000
X74826Y52548
X72076Y59548
X28826Y50798
X33826Y48048
X27826Y34798
X28076Y20048
X28826Y26548
X23076Y25548
X28826Y12798
X34576Y41798
X31076Y44798
X45882Y55670
X40882Y55670
X55000Y72250
X66394Y78096
X78750Y13250
X7366Y56134
X7366Y42926
X7366Y28956
X7366Y16002
X7366Y3048
X51078Y30794
X53118Y32572
X59000Y61750
X64250Y57500
X64250Y62000
X64250Y66500
X59000Y71000
X59000Y66000
X49030Y64318
X51824Y58984
X80894Y78346
X20828Y7112
X20500Y20000
X21000Y33500
X23250Y39000
X20828Y46736
X23500Y52500
X20828Y59944
X38870Y64572
X36250Y63000
X20828Y73152
X53582Y37914
X36132Y55670
X62894Y72596
X36576Y3048
X77500Y28250
X67250Y66500
X67250Y57500
X83750Y21250
X26500Y15500
X26500Y10500
X25500Y24000
X26500Y69000
X26500Y64000
X26500Y56000
X26500Y51000
X26500Y42500
X26500Y37500
X26500Y29000
X30250Y46750
X38750Y48000
X67250Y62000
X77500Y30500
X44250Y33250
X67250Y51500
X50750Y51750
X44000Y54000
X39250Y53500
X26500Y46750
X64250Y46000
X73500Y39250
X73500Y35250
X68500Y42750
X63500Y30500
X65000Y32000
X42250Y32250
X60076Y17548
X80894Y74346
X76394Y74596
X50750Y72500
X58826Y57048
X61826Y57048
X68826Y54298
X57076Y53048
X77076Y16298
X57076Y12298
X61076Y27548
X48576Y3048
X39576Y22048
X46576Y22048
X33576Y13048
X53576Y13048
X7366Y69088
X85576Y13548
X23076Y12048
X31576Y2548
X23576Y65548
X81076Y82048
X66076Y82048
X15576Y82048
X31076Y55548
X30076Y63048
X49582Y37414
X77251Y13250
X81280Y44188
X81280Y60960
X81250Y47750
M30