G04 EAGLE Gerber RS-274X export*
G75*
%MOMM*%
%FSLAX34Y34*%
%LPD*%
%INBottom Copper*%
%IPPOS*%
%AMOC8*
5,1,8,0,0,1.08239X$1,22.5*%
G01*
%ADD10C,1.879600*%
%ADD11R,1.879600X1.879600*%
%ADD12C,3.060000*%
%ADD13R,2.413000X2.413000*%
%ADD14C,2.413000*%
%ADD15C,1.800000*%
%ADD16C,2.880000*%
%ADD17C,2.700000*%
%ADD18C,1.828800*%
%ADD19C,1.828800*%
%ADD20C,1.782000*%
%ADD21P,1.979475X8X202.500000*%
%ADD22C,0.752400*%
%ADD23C,0.609600*%
%ADD24C,0.406400*%
%ADD25C,0.508000*%
%ADD26C,0.203200*%
%ADD27C,0.304800*%
%ADD28C,0.254000*%

G36*
X895502Y-16996D02*
X895502Y-16996D01*
X895528Y-16998D01*
X895675Y-16976D01*
X895822Y-16959D01*
X895847Y-16951D01*
X895873Y-16947D01*
X896011Y-16892D01*
X896150Y-16842D01*
X896172Y-16828D01*
X896197Y-16818D01*
X896318Y-16733D01*
X896443Y-16653D01*
X896461Y-16634D01*
X896483Y-16619D01*
X896582Y-16509D01*
X896685Y-16402D01*
X896699Y-16380D01*
X896716Y-16360D01*
X896788Y-16230D01*
X896864Y-16103D01*
X896872Y-16078D01*
X896885Y-16055D01*
X896925Y-15912D01*
X896970Y-15771D01*
X896972Y-15745D01*
X896980Y-15720D01*
X896999Y-15476D01*
X896999Y33917D01*
X896996Y33942D01*
X896998Y33968D01*
X896976Y34116D01*
X896959Y34263D01*
X896951Y34287D01*
X896947Y34313D01*
X896892Y34451D01*
X896842Y34591D01*
X896828Y34613D01*
X896819Y34637D01*
X896734Y34759D01*
X896653Y34884D01*
X896634Y34902D01*
X896620Y34923D01*
X896509Y35023D01*
X896402Y35126D01*
X896380Y35140D01*
X896361Y35157D01*
X896231Y35229D01*
X896103Y35305D01*
X896079Y35313D01*
X896056Y35325D01*
X895913Y35366D01*
X895771Y35411D01*
X895746Y35414D01*
X895721Y35421D01*
X895572Y35428D01*
X895424Y35439D01*
X895399Y35436D01*
X895373Y35437D01*
X895227Y35410D01*
X895079Y35388D01*
X895055Y35378D01*
X895030Y35374D01*
X894894Y35314D01*
X894755Y35259D01*
X894734Y35244D01*
X894711Y35234D01*
X894591Y35145D01*
X894469Y35060D01*
X894452Y35041D01*
X894432Y35026D01*
X894268Y34844D01*
X893164Y33406D01*
X891594Y31836D01*
X889832Y30484D01*
X887909Y29374D01*
X885857Y28524D01*
X883712Y27949D01*
X883447Y27914D01*
X883447Y43076D01*
X883444Y43102D01*
X883446Y43128D01*
X883424Y43275D01*
X883407Y43422D01*
X883399Y43447D01*
X883395Y43473D01*
X883340Y43611D01*
X883290Y43750D01*
X883276Y43772D01*
X883266Y43797D01*
X883181Y43918D01*
X883101Y44043D01*
X883082Y44061D01*
X883067Y44083D01*
X882957Y44182D01*
X882850Y44285D01*
X882828Y44299D01*
X882808Y44316D01*
X882678Y44388D01*
X882551Y44464D01*
X882526Y44472D01*
X882503Y44485D01*
X882360Y44525D01*
X882219Y44570D01*
X882193Y44572D01*
X882168Y44579D01*
X881924Y44599D01*
X880399Y44599D01*
X880399Y44601D01*
X881924Y44601D01*
X881950Y44604D01*
X881976Y44602D01*
X882123Y44624D01*
X882270Y44641D01*
X882295Y44650D01*
X882321Y44653D01*
X882459Y44708D01*
X882598Y44758D01*
X882620Y44773D01*
X882645Y44782D01*
X882766Y44867D01*
X882891Y44947D01*
X882909Y44966D01*
X882931Y44981D01*
X883030Y45091D01*
X883133Y45198D01*
X883147Y45220D01*
X883164Y45240D01*
X883236Y45370D01*
X883312Y45497D01*
X883320Y45522D01*
X883333Y45545D01*
X883373Y45688D01*
X883418Y45829D01*
X883420Y45855D01*
X883428Y45880D01*
X883447Y46124D01*
X883447Y61286D01*
X883712Y61251D01*
X885857Y60676D01*
X887909Y59826D01*
X889832Y58716D01*
X891594Y57364D01*
X893164Y55794D01*
X894268Y54356D01*
X894285Y54337D01*
X894299Y54316D01*
X894406Y54212D01*
X894510Y54105D01*
X894531Y54091D01*
X894550Y54074D01*
X894678Y53997D01*
X894803Y53916D01*
X894827Y53908D01*
X894849Y53895D01*
X894991Y53849D01*
X895131Y53799D01*
X895157Y53796D01*
X895181Y53789D01*
X895329Y53777D01*
X895477Y53760D01*
X895503Y53763D01*
X895528Y53761D01*
X895675Y53783D01*
X895824Y53800D01*
X895848Y53808D01*
X895873Y53812D01*
X896011Y53867D01*
X896152Y53918D01*
X896173Y53932D01*
X896197Y53941D01*
X896319Y54026D01*
X896444Y54107D01*
X896462Y54125D01*
X896483Y54140D01*
X896583Y54250D01*
X896686Y54358D01*
X896699Y54380D01*
X896716Y54399D01*
X896789Y54529D01*
X896865Y54657D01*
X896872Y54681D01*
X896885Y54704D01*
X896925Y54847D01*
X896971Y54989D01*
X896973Y55014D01*
X896980Y55039D01*
X896999Y55283D01*
X896999Y84717D01*
X896996Y84742D01*
X896998Y84768D01*
X896976Y84916D01*
X896959Y85063D01*
X896951Y85087D01*
X896947Y85113D01*
X896892Y85251D01*
X896842Y85391D01*
X896828Y85413D01*
X896819Y85437D01*
X896734Y85559D01*
X896653Y85684D01*
X896634Y85702D01*
X896620Y85723D01*
X896509Y85823D01*
X896402Y85926D01*
X896380Y85940D01*
X896361Y85957D01*
X896231Y86029D01*
X896103Y86105D01*
X896079Y86113D01*
X896056Y86125D01*
X895913Y86166D01*
X895771Y86211D01*
X895746Y86214D01*
X895721Y86221D01*
X895572Y86228D01*
X895424Y86239D01*
X895399Y86236D01*
X895373Y86237D01*
X895227Y86210D01*
X895079Y86188D01*
X895055Y86178D01*
X895030Y86174D01*
X894894Y86114D01*
X894755Y86059D01*
X894734Y86044D01*
X894711Y86034D01*
X894591Y85945D01*
X894469Y85860D01*
X894452Y85841D01*
X894432Y85826D01*
X894268Y85644D01*
X893164Y84206D01*
X891594Y82636D01*
X889832Y81284D01*
X887909Y80174D01*
X885857Y79324D01*
X883712Y78749D01*
X883447Y78714D01*
X883447Y93876D01*
X883444Y93902D01*
X883446Y93928D01*
X883424Y94075D01*
X883407Y94222D01*
X883399Y94247D01*
X883395Y94273D01*
X883340Y94411D01*
X883290Y94550D01*
X883276Y94572D01*
X883266Y94597D01*
X883181Y94718D01*
X883101Y94843D01*
X883082Y94861D01*
X883067Y94883D01*
X882957Y94982D01*
X882850Y95085D01*
X882828Y95099D01*
X882808Y95116D01*
X882678Y95188D01*
X882551Y95264D01*
X882526Y95272D01*
X882503Y95285D01*
X882360Y95325D01*
X882219Y95370D01*
X882193Y95372D01*
X882168Y95379D01*
X881924Y95399D01*
X880399Y95399D01*
X880399Y95401D01*
X881924Y95401D01*
X881950Y95404D01*
X881976Y95402D01*
X882123Y95424D01*
X882270Y95441D01*
X882295Y95450D01*
X882321Y95453D01*
X882459Y95508D01*
X882598Y95558D01*
X882620Y95573D01*
X882645Y95582D01*
X882766Y95667D01*
X882891Y95747D01*
X882909Y95766D01*
X882931Y95781D01*
X883030Y95891D01*
X883133Y95998D01*
X883147Y96020D01*
X883164Y96040D01*
X883236Y96170D01*
X883312Y96297D01*
X883320Y96322D01*
X883333Y96345D01*
X883373Y96488D01*
X883418Y96629D01*
X883420Y96655D01*
X883428Y96680D01*
X883447Y96924D01*
X883447Y112086D01*
X883712Y112051D01*
X885857Y111476D01*
X887909Y110626D01*
X889832Y109516D01*
X891594Y108164D01*
X893164Y106594D01*
X894268Y105156D01*
X894285Y105137D01*
X894299Y105116D01*
X894406Y105012D01*
X894510Y104905D01*
X894531Y104891D01*
X894550Y104874D01*
X894678Y104797D01*
X894803Y104716D01*
X894827Y104708D01*
X894849Y104695D01*
X894991Y104649D01*
X895131Y104599D01*
X895157Y104596D01*
X895181Y104589D01*
X895329Y104577D01*
X895477Y104560D01*
X895503Y104563D01*
X895528Y104561D01*
X895675Y104583D01*
X895824Y104600D01*
X895848Y104608D01*
X895873Y104612D01*
X896011Y104667D01*
X896152Y104718D01*
X896173Y104732D01*
X896197Y104741D01*
X896319Y104826D01*
X896444Y104907D01*
X896462Y104925D01*
X896483Y104940D01*
X896583Y105050D01*
X896686Y105158D01*
X896699Y105180D01*
X896716Y105199D01*
X896789Y105329D01*
X896865Y105457D01*
X896872Y105481D01*
X896885Y105504D01*
X896925Y105647D01*
X896971Y105789D01*
X896973Y105814D01*
X896980Y105839D01*
X896999Y106083D01*
X896999Y403997D01*
X896983Y404142D01*
X896971Y404287D01*
X896963Y404314D01*
X896959Y404343D01*
X896910Y404480D01*
X896866Y404619D01*
X896852Y404644D01*
X896842Y404671D01*
X896763Y404794D01*
X896689Y404919D01*
X896669Y404940D01*
X896653Y404964D01*
X896548Y405065D01*
X896447Y405170D01*
X896423Y405186D01*
X896402Y405206D01*
X896277Y405281D01*
X896155Y405360D01*
X896128Y405370D01*
X896103Y405385D01*
X895964Y405430D01*
X895828Y405479D01*
X895799Y405483D01*
X895771Y405491D01*
X895626Y405503D01*
X895482Y405520D01*
X895446Y405518D01*
X895424Y405519D01*
X895375Y405512D01*
X895238Y405502D01*
X893708Y405259D01*
X886299Y405259D01*
X886299Y415824D01*
X886296Y415850D01*
X886298Y415876D01*
X886276Y416023D01*
X886259Y416170D01*
X886251Y416195D01*
X886247Y416221D01*
X886192Y416358D01*
X886142Y416498D01*
X886128Y416520D01*
X886118Y416545D01*
X886033Y416666D01*
X885953Y416791D01*
X885940Y416803D01*
X885985Y416850D01*
X885999Y416873D01*
X886016Y416892D01*
X886088Y417022D01*
X886164Y417149D01*
X886172Y417174D01*
X886185Y417197D01*
X886225Y417340D01*
X886270Y417481D01*
X886272Y417507D01*
X886280Y417532D01*
X886299Y417776D01*
X886299Y428341D01*
X893708Y428341D01*
X895238Y428098D01*
X895383Y428092D01*
X895528Y428081D01*
X895557Y428085D01*
X895586Y428084D01*
X895729Y428111D01*
X895873Y428132D01*
X895900Y428143D01*
X895928Y428148D01*
X896062Y428207D01*
X896197Y428261D01*
X896221Y428278D01*
X896247Y428289D01*
X896364Y428377D01*
X896483Y428460D01*
X896502Y428482D01*
X896526Y428499D01*
X896619Y428611D01*
X896716Y428719D01*
X896730Y428744D01*
X896749Y428766D01*
X896814Y428896D01*
X896885Y429024D01*
X896893Y429052D01*
X896906Y429078D01*
X896940Y429219D01*
X896980Y429359D01*
X896982Y429394D01*
X896988Y429416D01*
X896988Y429465D01*
X896999Y429603D01*
X896999Y490497D01*
X896983Y490642D01*
X896971Y490787D01*
X896963Y490814D01*
X896959Y490843D01*
X896910Y490980D01*
X896866Y491119D01*
X896852Y491144D01*
X896842Y491171D01*
X896763Y491294D01*
X896689Y491419D01*
X896669Y491440D01*
X896653Y491464D01*
X896548Y491565D01*
X896447Y491670D01*
X896423Y491686D01*
X896402Y491706D01*
X896277Y491781D01*
X896155Y491860D01*
X896128Y491870D01*
X896103Y491885D01*
X895964Y491930D01*
X895828Y491979D01*
X895799Y491983D01*
X895771Y491991D01*
X895626Y492003D01*
X895482Y492020D01*
X895446Y492018D01*
X895424Y492019D01*
X895375Y492012D01*
X895238Y492002D01*
X893708Y491759D01*
X886299Y491759D01*
X886299Y502324D01*
X886296Y502350D01*
X886298Y502376D01*
X886276Y502523D01*
X886259Y502670D01*
X886251Y502695D01*
X886247Y502721D01*
X886192Y502858D01*
X886142Y502998D01*
X886128Y503020D01*
X886118Y503045D01*
X886033Y503166D01*
X885953Y503291D01*
X885940Y503303D01*
X885985Y503350D01*
X885999Y503373D01*
X886016Y503392D01*
X886088Y503522D01*
X886164Y503649D01*
X886172Y503674D01*
X886185Y503697D01*
X886225Y503840D01*
X886270Y503981D01*
X886272Y504007D01*
X886280Y504032D01*
X886299Y504276D01*
X886299Y514841D01*
X893708Y514841D01*
X895238Y514598D01*
X895383Y514592D01*
X895528Y514581D01*
X895557Y514585D01*
X895586Y514584D01*
X895729Y514611D01*
X895873Y514632D01*
X895900Y514643D01*
X895928Y514648D01*
X896062Y514707D01*
X896197Y514761D01*
X896221Y514778D01*
X896247Y514789D01*
X896364Y514877D01*
X896483Y514960D01*
X896502Y514982D01*
X896526Y514999D01*
X896619Y515111D01*
X896716Y515219D01*
X896730Y515244D01*
X896749Y515266D01*
X896814Y515396D01*
X896885Y515524D01*
X896893Y515552D01*
X896906Y515578D01*
X896940Y515719D01*
X896980Y515859D01*
X896982Y515894D01*
X896988Y515916D01*
X896988Y515965D01*
X896999Y516103D01*
X896999Y855476D01*
X896996Y855502D01*
X896998Y855528D01*
X896976Y855675D01*
X896959Y855822D01*
X896951Y855847D01*
X896947Y855873D01*
X896892Y856011D01*
X896842Y856150D01*
X896828Y856172D01*
X896818Y856197D01*
X896733Y856318D01*
X896653Y856443D01*
X896634Y856461D01*
X896619Y856483D01*
X896509Y856582D01*
X896402Y856685D01*
X896380Y856699D01*
X896360Y856716D01*
X896230Y856788D01*
X896103Y856864D01*
X896078Y856872D01*
X896055Y856885D01*
X895912Y856925D01*
X895771Y856970D01*
X895745Y856972D01*
X895720Y856980D01*
X895476Y856999D01*
X54524Y856999D01*
X54498Y856996D01*
X54472Y856998D01*
X54325Y856976D01*
X54178Y856959D01*
X54153Y856951D01*
X54127Y856947D01*
X53989Y856892D01*
X53850Y856842D01*
X53828Y856828D01*
X53803Y856818D01*
X53682Y856733D01*
X53557Y856653D01*
X53539Y856634D01*
X53517Y856619D01*
X53418Y856509D01*
X53315Y856402D01*
X53301Y856380D01*
X53284Y856360D01*
X53212Y856230D01*
X53136Y856103D01*
X53128Y856078D01*
X53115Y856055D01*
X53075Y855912D01*
X53030Y855771D01*
X53028Y855745D01*
X53020Y855720D01*
X53001Y855476D01*
X53001Y-15476D01*
X53004Y-15502D01*
X53002Y-15528D01*
X53024Y-15675D01*
X53041Y-15822D01*
X53049Y-15847D01*
X53053Y-15873D01*
X53108Y-16011D01*
X53158Y-16150D01*
X53172Y-16172D01*
X53182Y-16197D01*
X53267Y-16318D01*
X53347Y-16443D01*
X53366Y-16461D01*
X53381Y-16483D01*
X53491Y-16582D01*
X53598Y-16685D01*
X53620Y-16699D01*
X53640Y-16716D01*
X53770Y-16788D01*
X53897Y-16864D01*
X53922Y-16872D01*
X53945Y-16885D01*
X54088Y-16925D01*
X54229Y-16970D01*
X54255Y-16972D01*
X54280Y-16980D01*
X54524Y-16999D01*
X895476Y-16999D01*
X895502Y-16996D01*
G37*
%LPC*%
G36*
X509276Y215615D02*
X509276Y215615D01*
X504981Y217394D01*
X501694Y220681D01*
X499915Y224976D01*
X499915Y229624D01*
X501694Y233919D01*
X504981Y237206D01*
X508329Y238593D01*
X508417Y238641D01*
X508509Y238681D01*
X508569Y238726D01*
X508634Y238762D01*
X508708Y238829D01*
X508789Y238889D01*
X508837Y238946D01*
X508892Y238996D01*
X508949Y239079D01*
X509014Y239155D01*
X509048Y239222D01*
X509090Y239283D01*
X509127Y239376D01*
X509173Y239466D01*
X509191Y239538D01*
X509218Y239607D01*
X509233Y239707D01*
X509257Y239804D01*
X509258Y239878D01*
X509269Y239952D01*
X509261Y240052D01*
X509262Y240152D01*
X509246Y240225D01*
X509240Y240299D01*
X509209Y240395D01*
X509188Y240493D01*
X509156Y240560D01*
X509133Y240631D01*
X509081Y240717D01*
X509038Y240808D01*
X508992Y240866D01*
X508953Y240929D01*
X508883Y241002D01*
X508821Y241080D01*
X508762Y241126D01*
X508710Y241179D01*
X508626Y241234D01*
X508547Y241296D01*
X508458Y241342D01*
X508417Y241368D01*
X508383Y241380D01*
X508329Y241407D01*
X504981Y242794D01*
X501694Y246081D01*
X499915Y250376D01*
X499915Y255024D01*
X501694Y259319D01*
X504981Y262606D01*
X509276Y264385D01*
X513924Y264385D01*
X518219Y262606D01*
X521506Y259319D01*
X522893Y255971D01*
X522941Y255883D01*
X522982Y255791D01*
X523026Y255731D01*
X523062Y255666D01*
X523129Y255592D01*
X523189Y255511D01*
X523246Y255463D01*
X523296Y255408D01*
X523379Y255351D01*
X523455Y255286D01*
X523522Y255252D01*
X523583Y255210D01*
X523676Y255173D01*
X523766Y255127D01*
X523838Y255109D01*
X523907Y255082D01*
X524006Y255067D01*
X524104Y255043D01*
X524178Y255042D01*
X524252Y255031D01*
X524352Y255039D01*
X524452Y255038D01*
X524525Y255054D01*
X524599Y255060D01*
X524695Y255091D01*
X524793Y255112D01*
X524860Y255144D01*
X524931Y255167D01*
X525017Y255219D01*
X525108Y255262D01*
X525166Y255308D01*
X525229Y255347D01*
X525302Y255417D01*
X525380Y255479D01*
X525426Y255538D01*
X525479Y255590D01*
X525534Y255674D01*
X525596Y255753D01*
X525642Y255842D01*
X525668Y255883D01*
X525680Y255917D01*
X525707Y255971D01*
X527094Y259319D01*
X530381Y262606D01*
X534676Y264385D01*
X539324Y264385D01*
X543619Y262606D01*
X546906Y259319D01*
X548293Y255971D01*
X548341Y255883D01*
X548382Y255791D01*
X548426Y255731D01*
X548462Y255666D01*
X548529Y255592D01*
X548589Y255511D01*
X548646Y255463D01*
X548696Y255408D01*
X548779Y255351D01*
X548855Y255286D01*
X548922Y255252D01*
X548983Y255210D01*
X549076Y255173D01*
X549166Y255127D01*
X549238Y255109D01*
X549307Y255082D01*
X549406Y255067D01*
X549504Y255043D01*
X549578Y255042D01*
X549652Y255031D01*
X549752Y255039D01*
X549852Y255038D01*
X549925Y255054D01*
X549999Y255060D01*
X550095Y255091D01*
X550193Y255112D01*
X550260Y255144D01*
X550331Y255167D01*
X550417Y255219D01*
X550508Y255262D01*
X550566Y255308D01*
X550629Y255347D01*
X550702Y255417D01*
X550780Y255479D01*
X550826Y255538D01*
X550879Y255590D01*
X550934Y255674D01*
X550996Y255753D01*
X551042Y255842D01*
X551068Y255883D01*
X551080Y255917D01*
X551107Y255971D01*
X552494Y259319D01*
X555781Y262606D01*
X560076Y264385D01*
X564724Y264385D01*
X569019Y262606D01*
X572306Y259319D01*
X573693Y255971D01*
X573741Y255883D01*
X573782Y255791D01*
X573826Y255731D01*
X573862Y255666D01*
X573929Y255592D01*
X573989Y255511D01*
X574046Y255463D01*
X574096Y255408D01*
X574179Y255351D01*
X574255Y255286D01*
X574322Y255252D01*
X574383Y255210D01*
X574476Y255173D01*
X574566Y255127D01*
X574638Y255109D01*
X574707Y255082D01*
X574806Y255067D01*
X574904Y255043D01*
X574978Y255042D01*
X575052Y255031D01*
X575152Y255039D01*
X575252Y255038D01*
X575325Y255054D01*
X575399Y255060D01*
X575495Y255091D01*
X575593Y255112D01*
X575660Y255144D01*
X575731Y255167D01*
X575817Y255219D01*
X575908Y255262D01*
X575966Y255308D01*
X576029Y255347D01*
X576102Y255417D01*
X576180Y255479D01*
X576226Y255538D01*
X576279Y255590D01*
X576334Y255674D01*
X576396Y255753D01*
X576442Y255842D01*
X576468Y255883D01*
X576480Y255917D01*
X576507Y255971D01*
X577894Y259319D01*
X581181Y262606D01*
X585476Y264385D01*
X590124Y264385D01*
X594419Y262606D01*
X597706Y259319D01*
X599093Y255971D01*
X599141Y255883D01*
X599182Y255791D01*
X599226Y255731D01*
X599262Y255666D01*
X599329Y255592D01*
X599389Y255511D01*
X599446Y255463D01*
X599496Y255408D01*
X599579Y255351D01*
X599655Y255286D01*
X599722Y255252D01*
X599783Y255210D01*
X599876Y255173D01*
X599966Y255127D01*
X600038Y255109D01*
X600107Y255082D01*
X600206Y255067D01*
X600304Y255043D01*
X600378Y255042D01*
X600452Y255031D01*
X600552Y255039D01*
X600652Y255038D01*
X600725Y255054D01*
X600799Y255060D01*
X600895Y255091D01*
X600993Y255112D01*
X601060Y255144D01*
X601131Y255167D01*
X601217Y255219D01*
X601308Y255262D01*
X601366Y255308D01*
X601429Y255347D01*
X601502Y255417D01*
X601580Y255479D01*
X601626Y255538D01*
X601679Y255590D01*
X601734Y255674D01*
X601796Y255753D01*
X601842Y255842D01*
X601868Y255883D01*
X601880Y255917D01*
X601907Y255971D01*
X603294Y259319D01*
X606581Y262606D01*
X610876Y264385D01*
X615524Y264385D01*
X619819Y262606D01*
X623106Y259319D01*
X624493Y255971D01*
X624541Y255883D01*
X624582Y255791D01*
X624626Y255731D01*
X624662Y255666D01*
X624729Y255592D01*
X624789Y255511D01*
X624846Y255463D01*
X624896Y255408D01*
X624979Y255351D01*
X625055Y255286D01*
X625122Y255252D01*
X625183Y255210D01*
X625276Y255173D01*
X625366Y255127D01*
X625438Y255109D01*
X625507Y255082D01*
X625606Y255067D01*
X625704Y255043D01*
X625778Y255042D01*
X625852Y255031D01*
X625952Y255039D01*
X626052Y255038D01*
X626125Y255054D01*
X626199Y255060D01*
X626295Y255091D01*
X626393Y255112D01*
X626460Y255144D01*
X626531Y255167D01*
X626617Y255219D01*
X626708Y255262D01*
X626766Y255308D01*
X626829Y255347D01*
X626902Y255417D01*
X626980Y255479D01*
X627026Y255538D01*
X627079Y255590D01*
X627134Y255674D01*
X627196Y255753D01*
X627242Y255842D01*
X627268Y255883D01*
X627280Y255917D01*
X627307Y255971D01*
X628694Y259319D01*
X631981Y262606D01*
X633849Y263379D01*
X633916Y263417D01*
X633987Y263445D01*
X634068Y263501D01*
X634154Y263549D01*
X634210Y263600D01*
X634273Y263644D01*
X634339Y263717D01*
X634412Y263783D01*
X634455Y263846D01*
X634506Y263903D01*
X634554Y263989D01*
X634610Y264070D01*
X634638Y264141D01*
X634675Y264208D01*
X634702Y264302D01*
X634738Y264394D01*
X634749Y264469D01*
X634752Y264481D01*
X634760Y264507D01*
X634761Y264512D01*
X634770Y264543D01*
X634782Y264692D01*
X634789Y264739D01*
X634787Y264758D01*
X634789Y264787D01*
X634789Y272678D01*
X678022Y315911D01*
X678038Y315931D01*
X678058Y315948D01*
X678146Y316068D01*
X678238Y316184D01*
X678249Y316208D01*
X678265Y316229D01*
X678324Y316365D01*
X678387Y316499D01*
X678393Y316525D01*
X678403Y316549D01*
X678429Y316695D01*
X678461Y316840D01*
X678460Y316866D01*
X678465Y316892D01*
X678457Y317040D01*
X678455Y317188D01*
X678448Y317213D01*
X678447Y317240D01*
X678406Y317382D01*
X678370Y317526D01*
X678357Y317549D01*
X678350Y317575D01*
X678278Y317704D01*
X678210Y317836D01*
X678193Y317856D01*
X678180Y317879D01*
X678022Y318065D01*
X677157Y318930D01*
X676197Y321246D01*
X676197Y323754D01*
X677157Y326070D01*
X678930Y327843D01*
X681246Y328803D01*
X683754Y328803D01*
X686070Y327843D01*
X687843Y326070D01*
X688803Y323754D01*
X688803Y321394D01*
X688814Y321294D01*
X688816Y321193D01*
X688834Y321121D01*
X688843Y321047D01*
X688876Y320953D01*
X688901Y320855D01*
X688935Y320789D01*
X688960Y320719D01*
X689015Y320635D01*
X689061Y320546D01*
X689109Y320489D01*
X689149Y320426D01*
X689222Y320357D01*
X689287Y320280D01*
X689346Y320236D01*
X689400Y320184D01*
X689486Y320133D01*
X689567Y320073D01*
X689635Y320044D01*
X689699Y320005D01*
X689795Y319975D01*
X689887Y319935D01*
X689960Y319922D01*
X690031Y319899D01*
X690131Y319891D01*
X690230Y319873D01*
X690304Y319877D01*
X690378Y319871D01*
X690477Y319886D01*
X690578Y319891D01*
X690649Y319912D01*
X690723Y319923D01*
X690816Y319960D01*
X690913Y319988D01*
X690978Y320024D01*
X691047Y320052D01*
X691129Y320109D01*
X691217Y320158D01*
X691293Y320223D01*
X691333Y320251D01*
X691357Y320277D01*
X691403Y320317D01*
X691430Y320343D01*
X693746Y321303D01*
X696254Y321303D01*
X698570Y320343D01*
X700343Y318570D01*
X701303Y316254D01*
X701303Y313894D01*
X701314Y313794D01*
X701316Y313693D01*
X701334Y313621D01*
X701343Y313547D01*
X701376Y313453D01*
X701401Y313355D01*
X701435Y313289D01*
X701460Y313219D01*
X701515Y313135D01*
X701561Y313046D01*
X701609Y312989D01*
X701649Y312926D01*
X701722Y312857D01*
X701787Y312780D01*
X701846Y312736D01*
X701900Y312684D01*
X701986Y312633D01*
X702067Y312573D01*
X702135Y312544D01*
X702199Y312505D01*
X702295Y312475D01*
X702387Y312435D01*
X702460Y312422D01*
X702531Y312399D01*
X702631Y312391D01*
X702730Y312373D01*
X702804Y312377D01*
X702878Y312371D01*
X702977Y312386D01*
X703078Y312391D01*
X703149Y312412D01*
X703223Y312423D01*
X703316Y312460D01*
X703413Y312488D01*
X703478Y312524D01*
X703547Y312552D01*
X703629Y312609D01*
X703717Y312658D01*
X703793Y312723D01*
X703833Y312751D01*
X703857Y312777D01*
X703903Y312817D01*
X703930Y312843D01*
X706246Y313803D01*
X708754Y313803D01*
X711070Y312843D01*
X712843Y311070D01*
X713803Y308754D01*
X713803Y306246D01*
X712843Y303930D01*
X711070Y302157D01*
X708754Y301197D01*
X707217Y301197D01*
X707092Y301183D01*
X706966Y301176D01*
X706919Y301163D01*
X706871Y301157D01*
X706752Y301115D01*
X706631Y301080D01*
X706589Y301056D01*
X706543Y301040D01*
X706437Y300971D01*
X706327Y300910D01*
X706280Y300870D01*
X706250Y300851D01*
X706217Y300816D01*
X706140Y300751D01*
X693657Y288268D01*
X693578Y288169D01*
X693494Y288075D01*
X693470Y288032D01*
X693440Y287995D01*
X693386Y287880D01*
X693325Y287770D01*
X693312Y287723D01*
X693291Y287680D01*
X693265Y287556D01*
X693230Y287434D01*
X693225Y287374D01*
X693218Y287339D01*
X693219Y287291D01*
X693211Y287191D01*
X693211Y264787D01*
X693213Y264767D01*
X693212Y264750D01*
X693219Y264699D01*
X693218Y264634D01*
X693239Y264538D01*
X693251Y264441D01*
X693276Y264369D01*
X693293Y264294D01*
X693335Y264205D01*
X693368Y264112D01*
X693410Y264048D01*
X693442Y263979D01*
X693504Y263902D01*
X693557Y263820D01*
X693612Y263767D01*
X693660Y263707D01*
X693737Y263646D01*
X693808Y263577D01*
X693873Y263538D01*
X693933Y263491D01*
X694066Y263423D01*
X694107Y263399D01*
X694125Y263393D01*
X694151Y263379D01*
X696019Y262606D01*
X699306Y259319D01*
X700729Y255884D01*
X700807Y255744D01*
X700882Y255603D01*
X700891Y255592D01*
X700898Y255579D01*
X701006Y255460D01*
X701111Y255340D01*
X701123Y255331D01*
X701132Y255321D01*
X701264Y255230D01*
X701394Y255136D01*
X701407Y255131D01*
X701419Y255123D01*
X701567Y255064D01*
X701715Y255002D01*
X701730Y255000D01*
X701743Y254995D01*
X701901Y254972D01*
X702059Y254945D01*
X702074Y254946D01*
X702088Y254944D01*
X702248Y254957D01*
X702407Y254967D01*
X702421Y254972D01*
X702435Y254973D01*
X702588Y255022D01*
X702741Y255068D01*
X702753Y255075D01*
X702767Y255080D01*
X702904Y255163D01*
X703043Y255242D01*
X703053Y255252D01*
X703066Y255260D01*
X703181Y255371D01*
X703297Y255480D01*
X703305Y255492D01*
X703316Y255502D01*
X703402Y255638D01*
X703491Y255770D01*
X703497Y255786D01*
X703504Y255796D01*
X703517Y255832D01*
X703585Y255996D01*
X703971Y257186D01*
X704806Y258824D01*
X705887Y260312D01*
X707188Y261613D01*
X708676Y262694D01*
X710315Y263529D01*
X712064Y264097D01*
X712261Y264128D01*
X712261Y253716D01*
X712264Y253690D01*
X712262Y253664D01*
X712284Y253517D01*
X712301Y253370D01*
X712309Y253345D01*
X712313Y253319D01*
X712368Y253182D01*
X712418Y253042D01*
X712432Y253020D01*
X712442Y252995D01*
X712527Y252874D01*
X712607Y252749D01*
X712626Y252731D01*
X712641Y252709D01*
X712751Y252610D01*
X712858Y252507D01*
X712880Y252493D01*
X712900Y252476D01*
X713030Y252404D01*
X713157Y252328D01*
X713182Y252320D01*
X713205Y252307D01*
X713348Y252267D01*
X713489Y252222D01*
X713515Y252220D01*
X713540Y252213D01*
X713784Y252193D01*
X715816Y252193D01*
X715842Y252196D01*
X715868Y252194D01*
X716015Y252216D01*
X716162Y252233D01*
X716187Y252242D01*
X716213Y252246D01*
X716351Y252300D01*
X716490Y252350D01*
X716512Y252365D01*
X716537Y252374D01*
X716658Y252459D01*
X716783Y252539D01*
X716801Y252558D01*
X716823Y252573D01*
X716922Y252683D01*
X717025Y252790D01*
X717039Y252813D01*
X717056Y252832D01*
X717128Y252962D01*
X717204Y253089D01*
X717212Y253114D01*
X717225Y253137D01*
X717265Y253280D01*
X717310Y253421D01*
X717312Y253447D01*
X717320Y253472D01*
X717339Y253716D01*
X717339Y264128D01*
X717536Y264097D01*
X719285Y263529D01*
X720924Y262694D01*
X722412Y261613D01*
X723713Y260312D01*
X724794Y258824D01*
X725629Y257186D01*
X726015Y255996D01*
X726082Y255851D01*
X726145Y255704D01*
X726154Y255692D01*
X726160Y255679D01*
X726258Y255553D01*
X726353Y255424D01*
X726364Y255415D01*
X726373Y255403D01*
X726498Y255302D01*
X726619Y255199D01*
X726632Y255192D01*
X726643Y255183D01*
X726787Y255113D01*
X726930Y255040D01*
X726944Y255036D01*
X726957Y255030D01*
X727112Y254995D01*
X727268Y254956D01*
X727282Y254956D01*
X727296Y254952D01*
X727456Y254953D01*
X727616Y254951D01*
X727630Y254954D01*
X727645Y254954D01*
X727801Y254991D01*
X727957Y255025D01*
X727970Y255031D01*
X727984Y255035D01*
X728128Y255107D01*
X728271Y255175D01*
X728283Y255184D01*
X728296Y255190D01*
X728420Y255293D01*
X728544Y255392D01*
X728553Y255404D01*
X728564Y255413D01*
X728661Y255540D01*
X728760Y255666D01*
X728768Y255681D01*
X728775Y255690D01*
X728790Y255726D01*
X728871Y255884D01*
X730294Y259319D01*
X733581Y262606D01*
X735449Y263379D01*
X735516Y263417D01*
X735587Y263445D01*
X735668Y263501D01*
X735754Y263549D01*
X735810Y263600D01*
X735873Y263644D01*
X735939Y263717D01*
X736012Y263783D01*
X736055Y263846D01*
X736106Y263903D01*
X736154Y263989D01*
X736210Y264070D01*
X736238Y264141D01*
X736275Y264208D01*
X736302Y264302D01*
X736338Y264394D01*
X736349Y264469D01*
X736352Y264481D01*
X736360Y264507D01*
X736361Y264512D01*
X736370Y264543D01*
X736382Y264692D01*
X736389Y264739D01*
X736387Y264758D01*
X736389Y264787D01*
X736389Y299066D01*
X736375Y299192D01*
X736368Y299318D01*
X736355Y299365D01*
X736349Y299413D01*
X736307Y299532D01*
X736272Y299653D01*
X736248Y299695D01*
X736232Y299741D01*
X736163Y299847D01*
X736102Y299957D01*
X736062Y300003D01*
X736043Y300033D01*
X736008Y300067D01*
X735943Y300143D01*
X734657Y301430D01*
X733697Y303746D01*
X733697Y306254D01*
X734657Y308570D01*
X736430Y310343D01*
X738746Y311303D01*
X741254Y311303D01*
X743570Y310343D01*
X745343Y308570D01*
X746303Y306254D01*
X746303Y303746D01*
X745343Y301430D01*
X744457Y300543D01*
X744378Y300444D01*
X744294Y300351D01*
X744270Y300308D01*
X744240Y300270D01*
X744186Y300156D01*
X744125Y300046D01*
X744112Y299999D01*
X744091Y299955D01*
X744065Y299832D01*
X744030Y299710D01*
X744025Y299649D01*
X744018Y299615D01*
X744019Y299567D01*
X744011Y299466D01*
X744011Y264787D01*
X744013Y264767D01*
X744012Y264750D01*
X744019Y264699D01*
X744018Y264634D01*
X744039Y264538D01*
X744051Y264441D01*
X744076Y264369D01*
X744093Y264294D01*
X744135Y264205D01*
X744168Y264112D01*
X744210Y264048D01*
X744242Y263979D01*
X744304Y263902D01*
X744357Y263820D01*
X744412Y263767D01*
X744460Y263707D01*
X744537Y263646D01*
X744608Y263577D01*
X744673Y263538D01*
X744733Y263491D01*
X744866Y263423D01*
X744907Y263399D01*
X744925Y263393D01*
X744951Y263379D01*
X746819Y262606D01*
X750106Y259319D01*
X751493Y255971D01*
X751541Y255883D01*
X751582Y255791D01*
X751626Y255731D01*
X751662Y255666D01*
X751729Y255592D01*
X751789Y255511D01*
X751846Y255463D01*
X751896Y255408D01*
X751979Y255351D01*
X752055Y255286D01*
X752122Y255252D01*
X752183Y255210D01*
X752276Y255173D01*
X752366Y255127D01*
X752438Y255109D01*
X752507Y255082D01*
X752606Y255067D01*
X752704Y255043D01*
X752778Y255042D01*
X752852Y255031D01*
X752952Y255039D01*
X753052Y255038D01*
X753125Y255054D01*
X753199Y255060D01*
X753295Y255091D01*
X753393Y255112D01*
X753460Y255144D01*
X753531Y255167D01*
X753617Y255219D01*
X753708Y255262D01*
X753766Y255308D01*
X753829Y255347D01*
X753902Y255417D01*
X753980Y255479D01*
X754026Y255538D01*
X754079Y255590D01*
X754134Y255674D01*
X754196Y255753D01*
X754242Y255842D01*
X754268Y255883D01*
X754280Y255917D01*
X754307Y255971D01*
X755694Y259319D01*
X758981Y262606D01*
X763276Y264385D01*
X767924Y264385D01*
X772219Y262606D01*
X775506Y259319D01*
X776893Y255971D01*
X776941Y255883D01*
X776982Y255791D01*
X777026Y255731D01*
X777062Y255666D01*
X777129Y255592D01*
X777189Y255511D01*
X777246Y255463D01*
X777296Y255408D01*
X777379Y255351D01*
X777455Y255286D01*
X777522Y255252D01*
X777583Y255210D01*
X777676Y255173D01*
X777766Y255127D01*
X777838Y255109D01*
X777907Y255082D01*
X778006Y255067D01*
X778104Y255043D01*
X778178Y255042D01*
X778252Y255031D01*
X778352Y255039D01*
X778452Y255038D01*
X778525Y255054D01*
X778599Y255060D01*
X778695Y255091D01*
X778793Y255112D01*
X778860Y255144D01*
X778931Y255167D01*
X779017Y255219D01*
X779108Y255262D01*
X779166Y255308D01*
X779229Y255347D01*
X779302Y255417D01*
X779380Y255479D01*
X779426Y255538D01*
X779479Y255590D01*
X779534Y255674D01*
X779596Y255753D01*
X779642Y255842D01*
X779668Y255883D01*
X779680Y255917D01*
X779707Y255971D01*
X781094Y259319D01*
X784381Y262606D01*
X788676Y264385D01*
X793324Y264385D01*
X797619Y262606D01*
X800906Y259319D01*
X802293Y255971D01*
X802341Y255883D01*
X802382Y255791D01*
X802426Y255731D01*
X802462Y255666D01*
X802529Y255592D01*
X802589Y255511D01*
X802646Y255463D01*
X802696Y255408D01*
X802779Y255351D01*
X802855Y255286D01*
X802922Y255252D01*
X802983Y255210D01*
X803076Y255173D01*
X803166Y255127D01*
X803238Y255109D01*
X803307Y255082D01*
X803406Y255067D01*
X803504Y255043D01*
X803578Y255042D01*
X803652Y255031D01*
X803752Y255039D01*
X803852Y255038D01*
X803925Y255054D01*
X803999Y255060D01*
X804095Y255091D01*
X804193Y255112D01*
X804260Y255144D01*
X804331Y255167D01*
X804417Y255219D01*
X804508Y255262D01*
X804566Y255308D01*
X804629Y255347D01*
X804702Y255417D01*
X804780Y255479D01*
X804826Y255538D01*
X804879Y255590D01*
X804934Y255674D01*
X804996Y255753D01*
X805042Y255842D01*
X805068Y255883D01*
X805080Y255917D01*
X805107Y255971D01*
X806494Y259319D01*
X809781Y262606D01*
X814076Y264385D01*
X818724Y264385D01*
X823019Y262606D01*
X826306Y259319D01*
X828085Y255024D01*
X828085Y250376D01*
X826306Y246081D01*
X823019Y242794D01*
X819671Y241407D01*
X819583Y241359D01*
X819491Y241319D01*
X819431Y241274D01*
X819366Y241238D01*
X819292Y241171D01*
X819211Y241111D01*
X819163Y241054D01*
X819108Y241004D01*
X819051Y240921D01*
X818986Y240845D01*
X818952Y240778D01*
X818910Y240717D01*
X818873Y240624D01*
X818827Y240534D01*
X818809Y240462D01*
X818782Y240393D01*
X818767Y240293D01*
X818743Y240196D01*
X818742Y240122D01*
X818731Y240048D01*
X818739Y239948D01*
X818738Y239848D01*
X818754Y239775D01*
X818760Y239701D01*
X818791Y239605D01*
X818812Y239507D01*
X818844Y239440D01*
X818867Y239369D01*
X818919Y239283D01*
X818962Y239192D01*
X819008Y239134D01*
X819047Y239071D01*
X819117Y238998D01*
X819179Y238920D01*
X819238Y238874D01*
X819290Y238821D01*
X819374Y238766D01*
X819453Y238704D01*
X819542Y238658D01*
X819583Y238632D01*
X819617Y238620D01*
X819671Y238593D01*
X822307Y237501D01*
X822381Y237480D01*
X822451Y237449D01*
X822548Y237432D01*
X822642Y237405D01*
X822719Y237401D01*
X822794Y237388D01*
X822892Y237393D01*
X822990Y237388D01*
X823066Y237402D01*
X823142Y237406D01*
X823236Y237433D01*
X823333Y237451D01*
X823403Y237481D01*
X823477Y237502D01*
X823563Y237550D01*
X823653Y237589D01*
X823714Y237635D01*
X823781Y237672D01*
X823895Y237769D01*
X823933Y237797D01*
X823945Y237812D01*
X823967Y237831D01*
X832165Y246029D01*
X832244Y246128D01*
X832328Y246222D01*
X832352Y246264D01*
X832382Y246302D01*
X832436Y246416D01*
X832497Y246527D01*
X832510Y246573D01*
X832531Y246617D01*
X832557Y246740D01*
X832592Y246862D01*
X832597Y246923D01*
X832604Y246958D01*
X832603Y247006D01*
X832611Y247106D01*
X832611Y261534D01*
X832597Y261660D01*
X832590Y261786D01*
X832577Y261832D01*
X832571Y261880D01*
X832529Y261999D01*
X832494Y262121D01*
X832470Y262163D01*
X832454Y262208D01*
X832385Y262315D01*
X832324Y262425D01*
X832284Y262471D01*
X832265Y262501D01*
X832230Y262535D01*
X832165Y262611D01*
X808062Y286714D01*
X807211Y288768D01*
X807211Y438600D01*
X807211Y438602D01*
X807211Y438604D01*
X807191Y438774D01*
X807171Y438946D01*
X807171Y438948D01*
X807170Y438950D01*
X807095Y439183D01*
X806497Y440626D01*
X806497Y443134D01*
X806795Y443853D01*
X806796Y443855D01*
X806797Y443857D01*
X806844Y444024D01*
X806891Y444188D01*
X806891Y444190D01*
X806892Y444192D01*
X806911Y444436D01*
X806911Y474220D01*
X806911Y474222D01*
X806911Y474224D01*
X806892Y474388D01*
X806871Y474566D01*
X806871Y474568D01*
X806870Y474570D01*
X806795Y474803D01*
X806197Y476246D01*
X806197Y478754D01*
X807157Y481070D01*
X808930Y482843D01*
X811246Y483803D01*
X813754Y483803D01*
X816070Y482843D01*
X817843Y481070D01*
X818803Y478754D01*
X818803Y476246D01*
X818205Y474803D01*
X818204Y474801D01*
X818203Y474799D01*
X818155Y474627D01*
X818109Y474467D01*
X818109Y474465D01*
X818108Y474463D01*
X818089Y474220D01*
X818089Y445885D01*
X818089Y445883D01*
X818089Y445881D01*
X818110Y445704D01*
X818129Y445538D01*
X818129Y445537D01*
X818130Y445535D01*
X818205Y445302D01*
X819103Y443134D01*
X819103Y440626D01*
X818505Y439183D01*
X818504Y439181D01*
X818503Y439179D01*
X818456Y439012D01*
X818409Y438847D01*
X818409Y438845D01*
X818408Y438843D01*
X818389Y438600D01*
X818389Y292826D01*
X818403Y292700D01*
X818410Y292574D01*
X818423Y292528D01*
X818429Y292480D01*
X818471Y292361D01*
X818506Y292239D01*
X818530Y292197D01*
X818546Y292152D01*
X818615Y292045D01*
X818676Y291935D01*
X818716Y291889D01*
X818735Y291859D01*
X818770Y291825D01*
X818835Y291749D01*
X842938Y267646D01*
X843789Y265592D01*
X843789Y243048D01*
X842938Y240994D01*
X828531Y226587D01*
X828452Y226488D01*
X828368Y226394D01*
X828344Y226352D01*
X828314Y226314D01*
X828260Y226200D01*
X828199Y226089D01*
X828186Y226043D01*
X828165Y225999D01*
X828139Y225876D01*
X828104Y225754D01*
X828099Y225693D01*
X828092Y225658D01*
X828093Y225610D01*
X828085Y225510D01*
X828085Y224976D01*
X826306Y220681D01*
X823019Y217394D01*
X818724Y215615D01*
X814076Y215615D01*
X809781Y217394D01*
X806494Y220681D01*
X806457Y220771D01*
X806420Y220838D01*
X806392Y220909D01*
X806335Y220989D01*
X806288Y221076D01*
X806236Y221132D01*
X806193Y221195D01*
X806120Y221261D01*
X806053Y221334D01*
X805991Y221377D01*
X805934Y221428D01*
X805848Y221476D01*
X805767Y221532D01*
X805696Y221560D01*
X805629Y221597D01*
X805534Y221624D01*
X805443Y221660D01*
X805367Y221671D01*
X805293Y221692D01*
X805145Y221704D01*
X805098Y221711D01*
X805079Y221709D01*
X805050Y221711D01*
X802350Y221711D01*
X802275Y221703D01*
X802198Y221704D01*
X802102Y221683D01*
X802004Y221671D01*
X801932Y221646D01*
X801858Y221629D01*
X801769Y221587D01*
X801676Y221554D01*
X801612Y221512D01*
X801543Y221480D01*
X801466Y221418D01*
X801383Y221365D01*
X801330Y221310D01*
X801270Y221262D01*
X801209Y221185D01*
X801141Y221114D01*
X801102Y221049D01*
X801054Y220989D01*
X800986Y220855D01*
X800962Y220815D01*
X800956Y220797D01*
X800943Y220771D01*
X800906Y220681D01*
X797619Y217394D01*
X793324Y215615D01*
X788676Y215615D01*
X784381Y217394D01*
X781094Y220681D01*
X779671Y224116D01*
X779594Y224256D01*
X779518Y224397D01*
X779509Y224408D01*
X779502Y224421D01*
X779394Y224539D01*
X779289Y224660D01*
X779277Y224669D01*
X779268Y224679D01*
X779136Y224770D01*
X779006Y224864D01*
X778993Y224869D01*
X778981Y224877D01*
X778832Y224936D01*
X778685Y224998D01*
X778670Y225000D01*
X778657Y225005D01*
X778498Y225029D01*
X778341Y225055D01*
X778326Y225054D01*
X778312Y225056D01*
X778153Y225043D01*
X777993Y225033D01*
X777979Y225028D01*
X777965Y225027D01*
X777812Y224978D01*
X777659Y224932D01*
X777647Y224925D01*
X777633Y224920D01*
X777495Y224837D01*
X777357Y224758D01*
X777347Y224748D01*
X777334Y224740D01*
X777219Y224629D01*
X777103Y224520D01*
X777095Y224508D01*
X777084Y224498D01*
X776998Y224362D01*
X776909Y224230D01*
X776903Y224214D01*
X776896Y224204D01*
X776883Y224168D01*
X776815Y224004D01*
X776429Y222814D01*
X775594Y221176D01*
X774513Y219688D01*
X773212Y218387D01*
X771724Y217306D01*
X770085Y216471D01*
X768336Y215903D01*
X768139Y215872D01*
X768139Y226284D01*
X768136Y226310D01*
X768138Y226336D01*
X768116Y226483D01*
X768099Y226630D01*
X768091Y226655D01*
X768087Y226681D01*
X768032Y226818D01*
X767982Y226958D01*
X767968Y226980D01*
X767958Y227005D01*
X767873Y227126D01*
X767793Y227251D01*
X767774Y227269D01*
X767759Y227291D01*
X767649Y227390D01*
X767542Y227493D01*
X767520Y227507D01*
X767500Y227524D01*
X767370Y227596D01*
X767243Y227672D01*
X767218Y227680D01*
X767195Y227693D01*
X767052Y227733D01*
X766911Y227778D01*
X766885Y227780D01*
X766860Y227787D01*
X766616Y227807D01*
X764584Y227807D01*
X764558Y227804D01*
X764532Y227806D01*
X764385Y227784D01*
X764238Y227767D01*
X764213Y227758D01*
X764187Y227754D01*
X764049Y227700D01*
X763910Y227650D01*
X763888Y227635D01*
X763863Y227626D01*
X763742Y227541D01*
X763617Y227461D01*
X763599Y227442D01*
X763577Y227427D01*
X763478Y227317D01*
X763375Y227210D01*
X763361Y227187D01*
X763344Y227168D01*
X763272Y227038D01*
X763196Y226911D01*
X763188Y226886D01*
X763175Y226863D01*
X763135Y226720D01*
X763090Y226579D01*
X763087Y226553D01*
X763080Y226528D01*
X763061Y226284D01*
X763061Y215872D01*
X762864Y215903D01*
X761115Y216471D01*
X759476Y217306D01*
X757988Y218387D01*
X756687Y219688D01*
X755606Y221176D01*
X754771Y222814D01*
X754385Y224004D01*
X754318Y224150D01*
X754255Y224296D01*
X754246Y224308D01*
X754240Y224321D01*
X754142Y224448D01*
X754047Y224576D01*
X754036Y224585D01*
X754027Y224597D01*
X753903Y224698D01*
X753781Y224801D01*
X753768Y224808D01*
X753757Y224817D01*
X753613Y224887D01*
X753470Y224960D01*
X753456Y224963D01*
X753443Y224970D01*
X753287Y225006D01*
X753132Y225044D01*
X753118Y225044D01*
X753104Y225048D01*
X752944Y225047D01*
X752784Y225049D01*
X752770Y225046D01*
X752755Y225046D01*
X752599Y225009D01*
X752443Y224975D01*
X752430Y224969D01*
X752416Y224965D01*
X752273Y224894D01*
X752129Y224825D01*
X752117Y224816D01*
X752104Y224810D01*
X751981Y224707D01*
X751856Y224608D01*
X751847Y224596D01*
X751836Y224587D01*
X751739Y224460D01*
X751640Y224334D01*
X751632Y224319D01*
X751625Y224309D01*
X751610Y224274D01*
X751529Y224116D01*
X750106Y220681D01*
X746819Y217394D01*
X742524Y215615D01*
X737876Y215615D01*
X733581Y217394D01*
X730294Y220681D01*
X728907Y224029D01*
X728859Y224117D01*
X728819Y224209D01*
X728774Y224269D01*
X728738Y224334D01*
X728671Y224408D01*
X728611Y224489D01*
X728554Y224537D01*
X728504Y224592D01*
X728421Y224649D01*
X728345Y224714D01*
X728278Y224748D01*
X728217Y224790D01*
X728124Y224827D01*
X728034Y224873D01*
X727962Y224891D01*
X727893Y224918D01*
X727794Y224933D01*
X727696Y224957D01*
X727622Y224958D01*
X727548Y224969D01*
X727448Y224961D01*
X727348Y224962D01*
X727275Y224946D01*
X727201Y224940D01*
X727105Y224909D01*
X727007Y224888D01*
X726940Y224856D01*
X726869Y224833D01*
X726783Y224781D01*
X726692Y224738D01*
X726634Y224692D01*
X726571Y224653D01*
X726498Y224583D01*
X726420Y224521D01*
X726374Y224462D01*
X726321Y224410D01*
X726266Y224326D01*
X726204Y224247D01*
X726158Y224158D01*
X726132Y224117D01*
X726120Y224083D01*
X726093Y224029D01*
X724706Y220681D01*
X721419Y217394D01*
X717124Y215615D01*
X712476Y215615D01*
X708181Y217394D01*
X704894Y220681D01*
X703507Y224029D01*
X703459Y224117D01*
X703419Y224209D01*
X703374Y224269D01*
X703338Y224334D01*
X703271Y224408D01*
X703211Y224489D01*
X703154Y224537D01*
X703104Y224592D01*
X703021Y224649D01*
X702945Y224714D01*
X702878Y224748D01*
X702817Y224790D01*
X702724Y224827D01*
X702634Y224873D01*
X702562Y224891D01*
X702493Y224918D01*
X702394Y224933D01*
X702296Y224957D01*
X702222Y224958D01*
X702148Y224969D01*
X702048Y224961D01*
X701948Y224962D01*
X701875Y224946D01*
X701801Y224940D01*
X701705Y224909D01*
X701607Y224888D01*
X701540Y224856D01*
X701469Y224833D01*
X701383Y224781D01*
X701292Y224738D01*
X701234Y224692D01*
X701171Y224653D01*
X701098Y224583D01*
X701020Y224521D01*
X700974Y224462D01*
X700921Y224410D01*
X700866Y224326D01*
X700804Y224247D01*
X700758Y224158D01*
X700732Y224117D01*
X700720Y224083D01*
X700693Y224029D01*
X699306Y220681D01*
X696019Y217394D01*
X691724Y215615D01*
X687076Y215615D01*
X682781Y217394D01*
X679494Y220681D01*
X678071Y224116D01*
X677994Y224256D01*
X677918Y224397D01*
X677909Y224408D01*
X677902Y224421D01*
X677794Y224539D01*
X677689Y224660D01*
X677677Y224669D01*
X677668Y224679D01*
X677536Y224770D01*
X677406Y224864D01*
X677393Y224869D01*
X677381Y224877D01*
X677232Y224936D01*
X677085Y224998D01*
X677070Y225000D01*
X677057Y225005D01*
X676898Y225029D01*
X676741Y225055D01*
X676726Y225054D01*
X676712Y225056D01*
X676553Y225043D01*
X676393Y225033D01*
X676379Y225028D01*
X676365Y225027D01*
X676212Y224978D01*
X676059Y224932D01*
X676047Y224925D01*
X676033Y224920D01*
X675895Y224837D01*
X675757Y224758D01*
X675747Y224748D01*
X675734Y224740D01*
X675619Y224629D01*
X675503Y224520D01*
X675495Y224508D01*
X675484Y224498D01*
X675398Y224362D01*
X675309Y224230D01*
X675303Y224214D01*
X675296Y224204D01*
X675283Y224168D01*
X675215Y224004D01*
X674829Y222814D01*
X673994Y221176D01*
X672913Y219688D01*
X671612Y218387D01*
X670124Y217306D01*
X668485Y216471D01*
X666736Y215903D01*
X666539Y215872D01*
X666539Y226284D01*
X666536Y226310D01*
X666538Y226336D01*
X666516Y226483D01*
X666499Y226630D01*
X666491Y226655D01*
X666487Y226681D01*
X666432Y226818D01*
X666382Y226958D01*
X666368Y226980D01*
X666358Y227005D01*
X666273Y227126D01*
X666193Y227251D01*
X666174Y227269D01*
X666159Y227291D01*
X666049Y227390D01*
X665942Y227493D01*
X665920Y227507D01*
X665900Y227524D01*
X665770Y227596D01*
X665643Y227672D01*
X665618Y227680D01*
X665595Y227693D01*
X665452Y227733D01*
X665311Y227778D01*
X665285Y227780D01*
X665260Y227787D01*
X665016Y227807D01*
X662984Y227807D01*
X662958Y227804D01*
X662932Y227806D01*
X662785Y227784D01*
X662638Y227767D01*
X662613Y227758D01*
X662587Y227754D01*
X662449Y227700D01*
X662310Y227650D01*
X662288Y227635D01*
X662263Y227626D01*
X662142Y227541D01*
X662017Y227461D01*
X661999Y227442D01*
X661977Y227427D01*
X661878Y227317D01*
X661775Y227210D01*
X661761Y227187D01*
X661744Y227168D01*
X661672Y227038D01*
X661596Y226911D01*
X661588Y226886D01*
X661575Y226863D01*
X661535Y226720D01*
X661490Y226579D01*
X661487Y226553D01*
X661480Y226528D01*
X661461Y226284D01*
X661461Y215872D01*
X661264Y215903D01*
X659515Y216471D01*
X657876Y217306D01*
X656388Y218387D01*
X655087Y219688D01*
X654006Y221176D01*
X653171Y222814D01*
X652785Y224004D01*
X652718Y224150D01*
X652655Y224296D01*
X652646Y224308D01*
X652640Y224321D01*
X652542Y224448D01*
X652447Y224576D01*
X652436Y224585D01*
X652427Y224597D01*
X652303Y224698D01*
X652181Y224801D01*
X652168Y224808D01*
X652157Y224817D01*
X652013Y224887D01*
X651870Y224960D01*
X651856Y224963D01*
X651843Y224970D01*
X651687Y225006D01*
X651532Y225044D01*
X651518Y225044D01*
X651504Y225048D01*
X651344Y225047D01*
X651184Y225049D01*
X651170Y225046D01*
X651155Y225046D01*
X650999Y225009D01*
X650843Y224975D01*
X650830Y224969D01*
X650816Y224965D01*
X650673Y224894D01*
X650529Y224825D01*
X650517Y224816D01*
X650504Y224810D01*
X650381Y224707D01*
X650256Y224608D01*
X650247Y224596D01*
X650236Y224587D01*
X650139Y224460D01*
X650040Y224334D01*
X650032Y224319D01*
X650025Y224309D01*
X650010Y224274D01*
X649929Y224116D01*
X648506Y220681D01*
X645219Y217394D01*
X640924Y215615D01*
X636276Y215615D01*
X631981Y217394D01*
X628694Y220681D01*
X627307Y224029D01*
X627259Y224117D01*
X627219Y224209D01*
X627174Y224269D01*
X627138Y224334D01*
X627071Y224408D01*
X627011Y224489D01*
X626954Y224537D01*
X626904Y224592D01*
X626821Y224649D01*
X626745Y224714D01*
X626678Y224748D01*
X626617Y224790D01*
X626524Y224827D01*
X626434Y224873D01*
X626362Y224891D01*
X626293Y224918D01*
X626194Y224933D01*
X626096Y224957D01*
X626022Y224958D01*
X625948Y224969D01*
X625848Y224961D01*
X625748Y224962D01*
X625675Y224946D01*
X625601Y224940D01*
X625505Y224909D01*
X625407Y224888D01*
X625340Y224856D01*
X625269Y224833D01*
X625183Y224781D01*
X625092Y224738D01*
X625034Y224692D01*
X624971Y224653D01*
X624898Y224583D01*
X624820Y224521D01*
X624774Y224462D01*
X624721Y224410D01*
X624666Y224326D01*
X624604Y224247D01*
X624558Y224158D01*
X624532Y224117D01*
X624520Y224083D01*
X624493Y224029D01*
X623106Y220681D01*
X619819Y217394D01*
X615524Y215615D01*
X610876Y215615D01*
X606581Y217394D01*
X603294Y220681D01*
X601871Y224116D01*
X601794Y224256D01*
X601718Y224397D01*
X601709Y224408D01*
X601702Y224421D01*
X601594Y224539D01*
X601489Y224660D01*
X601477Y224669D01*
X601468Y224679D01*
X601336Y224770D01*
X601206Y224864D01*
X601193Y224869D01*
X601181Y224877D01*
X601032Y224936D01*
X600885Y224998D01*
X600870Y225000D01*
X600857Y225005D01*
X600698Y225029D01*
X600541Y225055D01*
X600526Y225054D01*
X600512Y225056D01*
X600353Y225043D01*
X600193Y225033D01*
X600179Y225028D01*
X600165Y225027D01*
X600012Y224978D01*
X599859Y224932D01*
X599847Y224925D01*
X599833Y224920D01*
X599695Y224837D01*
X599557Y224758D01*
X599547Y224748D01*
X599534Y224740D01*
X599419Y224629D01*
X599303Y224520D01*
X599295Y224508D01*
X599284Y224498D01*
X599198Y224362D01*
X599109Y224230D01*
X599103Y224214D01*
X599096Y224204D01*
X599083Y224168D01*
X599015Y224004D01*
X598629Y222814D01*
X597794Y221176D01*
X596713Y219688D01*
X595412Y218387D01*
X593924Y217306D01*
X592285Y216471D01*
X590536Y215903D01*
X590339Y215872D01*
X590339Y226284D01*
X590336Y226310D01*
X590338Y226336D01*
X590316Y226483D01*
X590299Y226630D01*
X590291Y226655D01*
X590287Y226681D01*
X590232Y226818D01*
X590182Y226958D01*
X590168Y226980D01*
X590158Y227005D01*
X590073Y227126D01*
X589993Y227251D01*
X589974Y227269D01*
X589959Y227291D01*
X589849Y227390D01*
X589742Y227493D01*
X589720Y227507D01*
X589700Y227524D01*
X589570Y227596D01*
X589443Y227672D01*
X589418Y227680D01*
X589395Y227693D01*
X589252Y227733D01*
X589111Y227778D01*
X589085Y227780D01*
X589060Y227787D01*
X588816Y227807D01*
X586784Y227807D01*
X586758Y227804D01*
X586732Y227806D01*
X586585Y227784D01*
X586438Y227767D01*
X586413Y227758D01*
X586387Y227754D01*
X586249Y227700D01*
X586110Y227650D01*
X586088Y227635D01*
X586063Y227626D01*
X585942Y227541D01*
X585817Y227461D01*
X585799Y227442D01*
X585777Y227427D01*
X585678Y227317D01*
X585575Y227210D01*
X585561Y227187D01*
X585544Y227168D01*
X585472Y227038D01*
X585396Y226911D01*
X585388Y226886D01*
X585375Y226863D01*
X585335Y226720D01*
X585290Y226579D01*
X585287Y226553D01*
X585280Y226528D01*
X585261Y226284D01*
X585261Y215872D01*
X585064Y215903D01*
X583315Y216471D01*
X581676Y217306D01*
X580188Y218387D01*
X578887Y219688D01*
X577806Y221176D01*
X576971Y222814D01*
X576585Y224004D01*
X576518Y224149D01*
X576455Y224296D01*
X576446Y224308D01*
X576440Y224321D01*
X576342Y224447D01*
X576247Y224576D01*
X576236Y224585D01*
X576227Y224597D01*
X576102Y224698D01*
X575981Y224801D01*
X575968Y224808D01*
X575957Y224817D01*
X575813Y224887D01*
X575670Y224960D01*
X575656Y224964D01*
X575643Y224970D01*
X575488Y225005D01*
X575332Y225044D01*
X575318Y225044D01*
X575304Y225048D01*
X575144Y225047D01*
X574984Y225049D01*
X574970Y225046D01*
X574955Y225046D01*
X574799Y225009D01*
X574643Y224975D01*
X574630Y224969D01*
X574616Y224965D01*
X574472Y224893D01*
X574329Y224825D01*
X574317Y224816D01*
X574304Y224810D01*
X574180Y224707D01*
X574056Y224608D01*
X574047Y224596D01*
X574036Y224587D01*
X573939Y224460D01*
X573840Y224334D01*
X573832Y224319D01*
X573825Y224310D01*
X573810Y224274D01*
X573729Y224116D01*
X572306Y220681D01*
X569019Y217394D01*
X564724Y215615D01*
X560076Y215615D01*
X555781Y217394D01*
X552494Y220681D01*
X551107Y224029D01*
X551059Y224117D01*
X551019Y224209D01*
X550974Y224269D01*
X550938Y224334D01*
X550871Y224408D01*
X550811Y224489D01*
X550754Y224537D01*
X550704Y224592D01*
X550621Y224649D01*
X550545Y224714D01*
X550478Y224748D01*
X550417Y224790D01*
X550324Y224827D01*
X550234Y224873D01*
X550162Y224891D01*
X550093Y224918D01*
X549993Y224933D01*
X549896Y224957D01*
X549822Y224958D01*
X549748Y224969D01*
X549648Y224961D01*
X549548Y224962D01*
X549475Y224946D01*
X549401Y224940D01*
X549305Y224909D01*
X549207Y224888D01*
X549140Y224856D01*
X549069Y224833D01*
X548983Y224781D01*
X548892Y224738D01*
X548834Y224692D01*
X548771Y224653D01*
X548698Y224583D01*
X548620Y224521D01*
X548574Y224462D01*
X548521Y224410D01*
X548466Y224326D01*
X548404Y224247D01*
X548358Y224158D01*
X548332Y224117D01*
X548320Y224083D01*
X548293Y224029D01*
X546906Y220681D01*
X543619Y217394D01*
X539324Y215615D01*
X534676Y215615D01*
X530381Y217394D01*
X527094Y220681D01*
X525707Y224029D01*
X525659Y224117D01*
X525619Y224209D01*
X525574Y224269D01*
X525538Y224334D01*
X525471Y224408D01*
X525411Y224489D01*
X525354Y224537D01*
X525304Y224592D01*
X525221Y224649D01*
X525145Y224714D01*
X525078Y224748D01*
X525017Y224790D01*
X524924Y224827D01*
X524834Y224873D01*
X524762Y224891D01*
X524693Y224918D01*
X524593Y224933D01*
X524496Y224957D01*
X524422Y224958D01*
X524348Y224969D01*
X524248Y224961D01*
X524148Y224962D01*
X524075Y224946D01*
X524001Y224940D01*
X523905Y224909D01*
X523807Y224888D01*
X523740Y224856D01*
X523669Y224833D01*
X523583Y224781D01*
X523492Y224738D01*
X523434Y224692D01*
X523371Y224653D01*
X523298Y224583D01*
X523220Y224521D01*
X523174Y224462D01*
X523121Y224410D01*
X523066Y224326D01*
X523004Y224247D01*
X522958Y224158D01*
X522932Y224117D01*
X522920Y224083D01*
X522893Y224029D01*
X521506Y220681D01*
X518219Y217394D01*
X513924Y215615D01*
X509276Y215615D01*
G37*
%LPD*%
%LPC*%
G36*
X329910Y200625D02*
X329910Y200625D01*
X329887Y200639D01*
X329868Y200656D01*
X329738Y200728D01*
X329611Y200804D01*
X329586Y200812D01*
X329563Y200825D01*
X329420Y200865D01*
X329279Y200910D01*
X329253Y200912D01*
X329228Y200920D01*
X328984Y200939D01*
X318315Y200939D01*
X318315Y203240D01*
X324386Y209311D01*
X324449Y209389D01*
X324518Y209462D01*
X324557Y209526D01*
X324603Y209584D01*
X324646Y209675D01*
X324697Y209761D01*
X324720Y209832D01*
X324752Y209899D01*
X324773Y209997D01*
X324804Y210093D01*
X324809Y210167D01*
X324825Y210240D01*
X324823Y210340D01*
X324831Y210440D01*
X324820Y210514D01*
X324819Y210588D01*
X324795Y210685D01*
X324780Y210785D01*
X324752Y210854D01*
X324734Y210926D01*
X324688Y211016D01*
X324651Y211109D01*
X324609Y211170D01*
X324575Y211236D01*
X324509Y211313D01*
X324452Y211395D01*
X324397Y211445D01*
X324349Y211501D01*
X324268Y211561D01*
X324193Y211628D01*
X324128Y211664D01*
X324068Y211709D01*
X323976Y211748D01*
X323888Y211797D01*
X323817Y211817D01*
X323748Y211847D01*
X323650Y211864D01*
X323553Y211892D01*
X323453Y211900D01*
X323405Y211908D01*
X323370Y211906D01*
X323309Y211911D01*
X261388Y211911D01*
X259334Y212762D01*
X257548Y214548D01*
X257548Y214549D01*
X252048Y220048D01*
X250262Y221834D01*
X249411Y223888D01*
X249411Y236720D01*
X249411Y236722D01*
X249411Y236724D01*
X249391Y236894D01*
X249371Y237066D01*
X249371Y237068D01*
X249370Y237070D01*
X249295Y237303D01*
X248697Y238746D01*
X248697Y241254D01*
X249295Y242697D01*
X249296Y242699D01*
X249297Y242701D01*
X249344Y242868D01*
X249391Y243033D01*
X249391Y243035D01*
X249392Y243037D01*
X249411Y243280D01*
X249411Y281112D01*
X250262Y283166D01*
X252048Y284952D01*
X258729Y291632D01*
X258730Y291634D01*
X258731Y291635D01*
X258839Y291771D01*
X258945Y291905D01*
X258946Y291907D01*
X258947Y291909D01*
X259059Y292126D01*
X259657Y293570D01*
X261430Y295343D01*
X263746Y296303D01*
X266254Y296303D01*
X268570Y295343D01*
X270343Y293570D01*
X271303Y291254D01*
X271303Y288746D01*
X270343Y286430D01*
X268570Y284657D01*
X267126Y284059D01*
X267125Y284058D01*
X267123Y284057D01*
X266970Y283972D01*
X266822Y283889D01*
X266820Y283888D01*
X266818Y283887D01*
X266632Y283729D01*
X261035Y278131D01*
X260956Y278032D01*
X260872Y277938D01*
X260848Y277896D01*
X260818Y277858D01*
X260764Y277744D01*
X260703Y277633D01*
X260690Y277587D01*
X260669Y277543D01*
X260643Y277420D01*
X260608Y277298D01*
X260603Y277237D01*
X260596Y277202D01*
X260597Y277154D01*
X260589Y277054D01*
X260589Y243280D01*
X260589Y243278D01*
X260589Y243276D01*
X260609Y243106D01*
X260629Y242934D01*
X260629Y242932D01*
X260630Y242930D01*
X260705Y242697D01*
X261303Y241254D01*
X261303Y238746D01*
X260705Y237303D01*
X260704Y237301D01*
X260703Y237299D01*
X260655Y237130D01*
X260609Y236967D01*
X260609Y236965D01*
X260608Y236963D01*
X260589Y236720D01*
X260589Y227946D01*
X260603Y227820D01*
X260610Y227694D01*
X260623Y227648D01*
X260629Y227600D01*
X260671Y227481D01*
X260706Y227359D01*
X260730Y227317D01*
X260746Y227272D01*
X260815Y227165D01*
X260876Y227055D01*
X260916Y227009D01*
X260935Y226979D01*
X260970Y226945D01*
X261035Y226869D01*
X264369Y223535D01*
X264468Y223456D01*
X264562Y223372D01*
X264604Y223348D01*
X264642Y223318D01*
X264756Y223264D01*
X264867Y223203D01*
X264913Y223190D01*
X264957Y223169D01*
X265080Y223143D01*
X265202Y223108D01*
X265263Y223103D01*
X265298Y223096D01*
X265346Y223097D01*
X265446Y223089D01*
X276358Y223089D01*
X276408Y223094D01*
X276458Y223092D01*
X276580Y223114D01*
X276704Y223129D01*
X276751Y223146D01*
X276801Y223155D01*
X276915Y223204D01*
X277032Y223246D01*
X277074Y223273D01*
X277120Y223294D01*
X277220Y223368D01*
X277325Y223435D01*
X277360Y223471D01*
X277400Y223501D01*
X277481Y223596D01*
X277567Y223686D01*
X277593Y223729D01*
X277625Y223767D01*
X277682Y223878D01*
X277746Y223985D01*
X277761Y224033D01*
X277784Y224078D01*
X277814Y224198D01*
X277852Y224317D01*
X277856Y224367D01*
X277868Y224416D01*
X277870Y224540D01*
X277880Y224664D01*
X277873Y224714D01*
X277873Y224764D01*
X277847Y224886D01*
X277828Y225009D01*
X277810Y225056D01*
X277799Y225105D01*
X277746Y225217D01*
X277700Y225333D01*
X277671Y225374D01*
X277649Y225420D01*
X277572Y225517D01*
X277501Y225619D01*
X277463Y225653D01*
X277432Y225692D01*
X277334Y225769D01*
X277242Y225852D01*
X277198Y225877D01*
X277158Y225908D01*
X276941Y226019D01*
X275936Y226435D01*
X271435Y230936D01*
X268999Y236817D01*
X268999Y243183D01*
X271435Y249064D01*
X275936Y253565D01*
X281817Y256001D01*
X288183Y256001D01*
X294064Y253565D01*
X298565Y249064D01*
X301001Y243183D01*
X301001Y236817D01*
X298565Y230936D01*
X294064Y226435D01*
X293059Y226019D01*
X293015Y225995D01*
X292968Y225978D01*
X292863Y225910D01*
X292755Y225850D01*
X292718Y225816D01*
X292675Y225789D01*
X292589Y225699D01*
X292497Y225616D01*
X292468Y225574D01*
X292433Y225538D01*
X292369Y225431D01*
X292298Y225329D01*
X292280Y225282D01*
X292254Y225239D01*
X292216Y225121D01*
X292171Y225005D01*
X292163Y224955D01*
X292148Y224907D01*
X292138Y224783D01*
X292120Y224660D01*
X292124Y224610D01*
X292120Y224560D01*
X292138Y224437D01*
X292149Y224313D01*
X292164Y224265D01*
X292172Y224215D01*
X292218Y224099D01*
X292256Y223981D01*
X292282Y223938D01*
X292300Y223891D01*
X292371Y223789D01*
X292435Y223683D01*
X292471Y223646D01*
X292499Y223605D01*
X292592Y223522D01*
X292678Y223433D01*
X292721Y223405D01*
X292758Y223372D01*
X292867Y223311D01*
X292972Y223244D01*
X293019Y223228D01*
X293063Y223203D01*
X293183Y223169D01*
X293300Y223128D01*
X293350Y223122D01*
X293399Y223108D01*
X293642Y223089D01*
X316792Y223089D01*
X316818Y223092D01*
X316844Y223090D01*
X316991Y223112D01*
X317138Y223129D01*
X317163Y223137D01*
X317189Y223141D01*
X317327Y223196D01*
X317466Y223246D01*
X317488Y223260D01*
X317513Y223270D01*
X317634Y223355D01*
X317759Y223435D01*
X317777Y223454D01*
X317799Y223469D01*
X317898Y223579D01*
X318001Y223686D01*
X318015Y223708D01*
X318032Y223728D01*
X318104Y223858D01*
X318180Y223985D01*
X318188Y224010D01*
X318201Y224033D01*
X318241Y224176D01*
X318286Y224317D01*
X318288Y224343D01*
X318296Y224368D01*
X318315Y224612D01*
X318315Y228640D01*
X325098Y235423D01*
X325114Y235443D01*
X325134Y235460D01*
X325223Y235580D01*
X325315Y235696D01*
X325326Y235720D01*
X325342Y235741D01*
X325400Y235877D01*
X325464Y236011D01*
X325469Y236037D01*
X325480Y236061D01*
X325506Y236207D01*
X325537Y236352D01*
X325537Y236378D01*
X325541Y236404D01*
X325534Y236552D01*
X325531Y236700D01*
X325525Y236726D01*
X325523Y236752D01*
X325482Y236894D01*
X325446Y237038D01*
X325434Y237061D01*
X325427Y237087D01*
X325355Y237216D01*
X325287Y237348D01*
X325270Y237368D01*
X325257Y237391D01*
X325098Y237577D01*
X318315Y244360D01*
X318315Y254040D01*
X325098Y260823D01*
X325114Y260843D01*
X325134Y260860D01*
X325223Y260980D01*
X325315Y261096D01*
X325326Y261120D01*
X325342Y261141D01*
X325400Y261277D01*
X325464Y261411D01*
X325469Y261437D01*
X325480Y261461D01*
X325506Y261607D01*
X325537Y261752D01*
X325537Y261778D01*
X325541Y261804D01*
X325534Y261952D01*
X325531Y262100D01*
X325525Y262126D01*
X325523Y262152D01*
X325482Y262294D01*
X325446Y262438D01*
X325434Y262461D01*
X325427Y262487D01*
X325355Y262616D01*
X325287Y262748D01*
X325270Y262768D01*
X325257Y262791D01*
X325098Y262977D01*
X318315Y269760D01*
X318315Y279440D01*
X325098Y286223D01*
X325114Y286243D01*
X325134Y286260D01*
X325223Y286380D01*
X325315Y286496D01*
X325326Y286520D01*
X325342Y286541D01*
X325400Y286677D01*
X325464Y286811D01*
X325469Y286837D01*
X325480Y286861D01*
X325506Y287007D01*
X325537Y287152D01*
X325537Y287178D01*
X325541Y287204D01*
X325534Y287352D01*
X325531Y287500D01*
X325525Y287526D01*
X325523Y287552D01*
X325482Y287694D01*
X325446Y287838D01*
X325434Y287861D01*
X325427Y287887D01*
X325355Y288016D01*
X325287Y288148D01*
X325270Y288168D01*
X325257Y288191D01*
X325098Y288377D01*
X318315Y295160D01*
X318315Y304840D01*
X325098Y311623D01*
X325114Y311643D01*
X325134Y311660D01*
X325223Y311780D01*
X325315Y311896D01*
X325326Y311920D01*
X325342Y311941D01*
X325400Y312077D01*
X325464Y312211D01*
X325469Y312237D01*
X325480Y312261D01*
X325506Y312407D01*
X325537Y312552D01*
X325537Y312578D01*
X325541Y312604D01*
X325534Y312752D01*
X325531Y312900D01*
X325525Y312926D01*
X325523Y312952D01*
X325482Y313094D01*
X325446Y313238D01*
X325434Y313261D01*
X325427Y313287D01*
X325355Y313416D01*
X325287Y313548D01*
X325270Y313568D01*
X325257Y313591D01*
X325098Y313777D01*
X318315Y320560D01*
X318315Y330240D01*
X325098Y337023D01*
X325114Y337043D01*
X325134Y337060D01*
X325223Y337180D01*
X325315Y337296D01*
X325326Y337320D01*
X325342Y337341D01*
X325400Y337477D01*
X325464Y337611D01*
X325469Y337637D01*
X325480Y337661D01*
X325506Y337807D01*
X325537Y337952D01*
X325537Y337978D01*
X325541Y338004D01*
X325534Y338152D01*
X325531Y338300D01*
X325525Y338326D01*
X325523Y338352D01*
X325482Y338494D01*
X325446Y338638D01*
X325434Y338661D01*
X325427Y338687D01*
X325355Y338816D01*
X325287Y338948D01*
X325270Y338968D01*
X325257Y338991D01*
X325098Y339177D01*
X318315Y345960D01*
X318315Y355640D01*
X325098Y362423D01*
X325114Y362443D01*
X325134Y362460D01*
X325223Y362580D01*
X325315Y362696D01*
X325326Y362720D01*
X325342Y362741D01*
X325400Y362877D01*
X325464Y363011D01*
X325469Y363037D01*
X325480Y363061D01*
X325506Y363207D01*
X325537Y363352D01*
X325537Y363378D01*
X325541Y363404D01*
X325534Y363552D01*
X325531Y363700D01*
X325525Y363726D01*
X325523Y363752D01*
X325482Y363894D01*
X325446Y364038D01*
X325434Y364061D01*
X325427Y364087D01*
X325355Y364216D01*
X325287Y364348D01*
X325270Y364368D01*
X325257Y364391D01*
X325098Y364577D01*
X318315Y371360D01*
X318315Y381040D01*
X325098Y387823D01*
X325114Y387843D01*
X325134Y387860D01*
X325223Y387980D01*
X325315Y388096D01*
X325326Y388120D01*
X325342Y388141D01*
X325400Y388277D01*
X325464Y388411D01*
X325469Y388437D01*
X325480Y388461D01*
X325506Y388607D01*
X325537Y388752D01*
X325537Y388778D01*
X325541Y388804D01*
X325534Y388952D01*
X325531Y389100D01*
X325525Y389126D01*
X325523Y389152D01*
X325482Y389294D01*
X325446Y389438D01*
X325434Y389461D01*
X325427Y389487D01*
X325355Y389616D01*
X325287Y389748D01*
X325270Y389768D01*
X325257Y389791D01*
X325098Y389977D01*
X318315Y396760D01*
X318315Y406440D01*
X325160Y413285D01*
X334840Y413285D01*
X341685Y406440D01*
X341685Y396760D01*
X334902Y389977D01*
X334886Y389957D01*
X334866Y389940D01*
X334777Y389820D01*
X334685Y389704D01*
X334674Y389680D01*
X334658Y389659D01*
X334600Y389523D01*
X334536Y389389D01*
X334531Y389363D01*
X334520Y389339D01*
X334494Y389193D01*
X334463Y389048D01*
X334463Y389022D01*
X334459Y388996D01*
X334466Y388848D01*
X334469Y388700D01*
X334475Y388674D01*
X334477Y388648D01*
X334518Y388506D01*
X334554Y388362D01*
X334566Y388338D01*
X334573Y388313D01*
X334645Y388184D01*
X334713Y388052D01*
X334730Y388032D01*
X334743Y388009D01*
X334902Y387823D01*
X341685Y381040D01*
X341685Y371360D01*
X334902Y364577D01*
X334886Y364557D01*
X334866Y364540D01*
X334777Y364420D01*
X334685Y364304D01*
X334674Y364280D01*
X334658Y364259D01*
X334600Y364123D01*
X334536Y363989D01*
X334531Y363963D01*
X334520Y363939D01*
X334494Y363793D01*
X334463Y363648D01*
X334463Y363622D01*
X334459Y363596D01*
X334466Y363448D01*
X334469Y363300D01*
X334475Y363274D01*
X334477Y363248D01*
X334518Y363106D01*
X334554Y362962D01*
X334566Y362938D01*
X334573Y362913D01*
X334645Y362784D01*
X334713Y362652D01*
X334730Y362632D01*
X334743Y362609D01*
X334902Y362423D01*
X341685Y355640D01*
X341685Y345960D01*
X334902Y339177D01*
X334886Y339157D01*
X334866Y339140D01*
X334777Y339020D01*
X334685Y338904D01*
X334674Y338880D01*
X334658Y338859D01*
X334600Y338723D01*
X334536Y338589D01*
X334531Y338563D01*
X334520Y338539D01*
X334494Y338393D01*
X334463Y338248D01*
X334463Y338222D01*
X334459Y338196D01*
X334466Y338048D01*
X334469Y337900D01*
X334475Y337874D01*
X334477Y337848D01*
X334518Y337706D01*
X334554Y337562D01*
X334566Y337538D01*
X334573Y337513D01*
X334645Y337384D01*
X334713Y337252D01*
X334730Y337232D01*
X334743Y337209D01*
X334902Y337023D01*
X341685Y330240D01*
X341685Y320560D01*
X334902Y313777D01*
X334886Y313757D01*
X334866Y313740D01*
X334777Y313620D01*
X334685Y313504D01*
X334674Y313480D01*
X334658Y313459D01*
X334600Y313323D01*
X334536Y313189D01*
X334531Y313163D01*
X334520Y313139D01*
X334494Y312993D01*
X334463Y312848D01*
X334463Y312822D01*
X334459Y312796D01*
X334466Y312648D01*
X334469Y312500D01*
X334475Y312474D01*
X334477Y312448D01*
X334518Y312306D01*
X334554Y312162D01*
X334566Y312138D01*
X334573Y312113D01*
X334645Y311984D01*
X334713Y311852D01*
X334730Y311832D01*
X334743Y311809D01*
X334902Y311623D01*
X341685Y304840D01*
X341685Y295160D01*
X334902Y288377D01*
X334886Y288357D01*
X334866Y288340D01*
X334777Y288220D01*
X334685Y288104D01*
X334674Y288080D01*
X334658Y288059D01*
X334600Y287923D01*
X334536Y287789D01*
X334531Y287763D01*
X334520Y287739D01*
X334494Y287593D01*
X334463Y287448D01*
X334463Y287422D01*
X334459Y287396D01*
X334466Y287248D01*
X334469Y287100D01*
X334475Y287074D01*
X334477Y287048D01*
X334518Y286906D01*
X334554Y286762D01*
X334566Y286738D01*
X334573Y286713D01*
X334645Y286584D01*
X334713Y286452D01*
X334730Y286432D01*
X334743Y286409D01*
X334902Y286223D01*
X341685Y279440D01*
X341685Y269760D01*
X334902Y262977D01*
X334886Y262957D01*
X334866Y262940D01*
X334777Y262820D01*
X334685Y262704D01*
X334674Y262680D01*
X334658Y262659D01*
X334599Y262523D01*
X334536Y262389D01*
X334531Y262363D01*
X334520Y262339D01*
X334494Y262193D01*
X334463Y262048D01*
X334463Y262022D01*
X334459Y261996D01*
X334466Y261848D01*
X334469Y261700D01*
X334475Y261674D01*
X334477Y261648D01*
X334518Y261506D01*
X334554Y261362D01*
X334566Y261338D01*
X334573Y261313D01*
X334645Y261184D01*
X334713Y261052D01*
X334730Y261032D01*
X334743Y261009D01*
X334902Y260823D01*
X341685Y254040D01*
X341685Y244360D01*
X334902Y237577D01*
X334886Y237557D01*
X334866Y237540D01*
X334777Y237420D01*
X334685Y237304D01*
X334674Y237280D01*
X334658Y237259D01*
X334600Y237123D01*
X334536Y236989D01*
X334531Y236963D01*
X334520Y236939D01*
X334494Y236793D01*
X334463Y236648D01*
X334463Y236622D01*
X334459Y236596D01*
X334466Y236448D01*
X334469Y236300D01*
X334475Y236274D01*
X334477Y236248D01*
X334518Y236106D01*
X334554Y235962D01*
X334566Y235938D01*
X334573Y235913D01*
X334645Y235784D01*
X334713Y235652D01*
X334730Y235632D01*
X334743Y235609D01*
X334902Y235423D01*
X341685Y228640D01*
X341685Y218960D01*
X334902Y212177D01*
X334886Y212157D01*
X334866Y212140D01*
X334777Y212020D01*
X334685Y211904D01*
X334674Y211880D01*
X334658Y211859D01*
X334599Y211723D01*
X334536Y211589D01*
X334531Y211563D01*
X334520Y211539D01*
X334494Y211393D01*
X334463Y211248D01*
X334463Y211222D01*
X334459Y211196D01*
X334466Y211048D01*
X334469Y210900D01*
X334475Y210874D01*
X334477Y210848D01*
X334518Y210706D01*
X334554Y210562D01*
X334566Y210538D01*
X334573Y210513D01*
X334645Y210384D01*
X334713Y210252D01*
X334730Y210232D01*
X334743Y210209D01*
X334902Y210023D01*
X341685Y203240D01*
X341685Y200939D01*
X331016Y200939D01*
X330990Y200936D01*
X330964Y200938D01*
X330817Y200916D01*
X330670Y200899D01*
X330645Y200891D01*
X330619Y200887D01*
X330482Y200832D01*
X330342Y200782D01*
X330320Y200768D01*
X330295Y200758D01*
X330174Y200673D01*
X330049Y200593D01*
X330031Y200574D01*
X330009Y200559D01*
X329995Y200543D01*
X329910Y200625D01*
G37*
%LPD*%
%LPC*%
G36*
X626032Y335215D02*
X626032Y335215D01*
X621737Y336994D01*
X618450Y340281D01*
X616671Y344576D01*
X616671Y349224D01*
X618450Y353519D01*
X621737Y356806D01*
X625085Y358193D01*
X625173Y358241D01*
X625265Y358281D01*
X625325Y358326D01*
X625390Y358362D01*
X625464Y358429D01*
X625545Y358489D01*
X625593Y358546D01*
X625648Y358596D01*
X625705Y358679D01*
X625770Y358755D01*
X625804Y358822D01*
X625846Y358883D01*
X625883Y358976D01*
X625929Y359066D01*
X625947Y359138D01*
X625974Y359207D01*
X625989Y359306D01*
X626013Y359404D01*
X626014Y359478D01*
X626025Y359552D01*
X626017Y359652D01*
X626018Y359752D01*
X626002Y359825D01*
X625996Y359899D01*
X625965Y359995D01*
X625944Y360093D01*
X625912Y360160D01*
X625889Y360231D01*
X625837Y360317D01*
X625794Y360408D01*
X625748Y360466D01*
X625709Y360529D01*
X625639Y360602D01*
X625577Y360680D01*
X625518Y360726D01*
X625466Y360779D01*
X625382Y360834D01*
X625303Y360896D01*
X625214Y360942D01*
X625173Y360968D01*
X625139Y360980D01*
X625085Y361007D01*
X621737Y362394D01*
X618450Y365681D01*
X616671Y369976D01*
X616671Y374624D01*
X618450Y378919D01*
X621737Y382206D01*
X625085Y383593D01*
X625173Y383641D01*
X625265Y383681D01*
X625325Y383726D01*
X625390Y383762D01*
X625464Y383829D01*
X625545Y383889D01*
X625593Y383946D01*
X625648Y383996D01*
X625705Y384079D01*
X625770Y384155D01*
X625804Y384222D01*
X625846Y384283D01*
X625883Y384376D01*
X625929Y384466D01*
X625947Y384538D01*
X625974Y384607D01*
X625989Y384706D01*
X626013Y384804D01*
X626014Y384878D01*
X626025Y384952D01*
X626017Y385052D01*
X626018Y385152D01*
X626002Y385225D01*
X625996Y385299D01*
X625965Y385395D01*
X625944Y385493D01*
X625912Y385560D01*
X625889Y385631D01*
X625837Y385717D01*
X625794Y385808D01*
X625748Y385866D01*
X625709Y385929D01*
X625639Y386002D01*
X625577Y386080D01*
X625518Y386126D01*
X625466Y386179D01*
X625382Y386234D01*
X625303Y386296D01*
X625214Y386342D01*
X625173Y386368D01*
X625139Y386380D01*
X625085Y386407D01*
X621737Y387794D01*
X618450Y391081D01*
X616671Y395376D01*
X616671Y400024D01*
X618450Y404319D01*
X621737Y407606D01*
X625172Y409029D01*
X625312Y409107D01*
X625453Y409182D01*
X625464Y409191D01*
X625477Y409198D01*
X625595Y409306D01*
X625716Y409411D01*
X625725Y409423D01*
X625735Y409432D01*
X625826Y409564D01*
X625920Y409694D01*
X625925Y409707D01*
X625933Y409719D01*
X625992Y409868D01*
X626054Y410015D01*
X626056Y410030D01*
X626061Y410043D01*
X626085Y410202D01*
X626111Y410359D01*
X626110Y410374D01*
X626112Y410388D01*
X626099Y410547D01*
X626089Y410707D01*
X626084Y410721D01*
X626083Y410735D01*
X626034Y410888D01*
X625988Y411041D01*
X625981Y411053D01*
X625976Y411067D01*
X625893Y411205D01*
X625814Y411343D01*
X625804Y411353D01*
X625796Y411366D01*
X625685Y411481D01*
X625576Y411597D01*
X625564Y411605D01*
X625554Y411616D01*
X625418Y411702D01*
X625286Y411791D01*
X625270Y411797D01*
X625260Y411804D01*
X625224Y411817D01*
X625060Y411885D01*
X623870Y412271D01*
X622232Y413106D01*
X620744Y414187D01*
X619443Y415488D01*
X618362Y416976D01*
X617527Y418615D01*
X616959Y420364D01*
X616928Y420561D01*
X636484Y420561D01*
X636510Y420564D01*
X636536Y420562D01*
X636683Y420584D01*
X636830Y420601D01*
X636855Y420609D01*
X636881Y420613D01*
X637018Y420668D01*
X637158Y420718D01*
X637180Y420732D01*
X637205Y420742D01*
X637326Y420827D01*
X637451Y420907D01*
X637469Y420926D01*
X637491Y420941D01*
X637505Y420957D01*
X637590Y420875D01*
X637613Y420861D01*
X637632Y420844D01*
X637762Y420772D01*
X637889Y420696D01*
X637914Y420688D01*
X637937Y420675D01*
X638080Y420635D01*
X638221Y420590D01*
X638247Y420587D01*
X638272Y420580D01*
X638516Y420561D01*
X659526Y420561D01*
X659652Y420575D01*
X659778Y420582D01*
X659824Y420595D01*
X659872Y420601D01*
X659991Y420643D01*
X660113Y420678D01*
X660155Y420702D01*
X660200Y420718D01*
X660307Y420787D01*
X660417Y420848D01*
X660463Y420888D01*
X660493Y420907D01*
X660527Y420942D01*
X660603Y421007D01*
X666019Y426423D01*
X666036Y426443D01*
X666056Y426460D01*
X666144Y426580D01*
X666236Y426696D01*
X666247Y426720D01*
X666263Y426741D01*
X666321Y426877D01*
X666385Y427011D01*
X666390Y427037D01*
X666401Y427061D01*
X666427Y427207D01*
X666458Y427352D01*
X666458Y427378D01*
X666462Y427404D01*
X666455Y427552D01*
X666452Y427700D01*
X666446Y427726D01*
X666444Y427752D01*
X666403Y427894D01*
X666367Y428038D01*
X666355Y428062D01*
X666348Y428087D01*
X666276Y428216D01*
X666208Y428348D01*
X666191Y428368D01*
X666178Y428391D01*
X666019Y428577D01*
X640868Y453729D01*
X640866Y453730D01*
X640865Y453731D01*
X640728Y453839D01*
X640595Y453945D01*
X640593Y453946D01*
X640591Y453947D01*
X640374Y454059D01*
X638930Y454657D01*
X637157Y456430D01*
X636197Y458746D01*
X636197Y461254D01*
X637157Y463570D01*
X638930Y465343D01*
X641246Y466303D01*
X643754Y466303D01*
X646070Y465343D01*
X647843Y463570D01*
X648441Y462126D01*
X648442Y462125D01*
X648443Y462123D01*
X648527Y461972D01*
X648611Y461822D01*
X648612Y461820D01*
X648613Y461818D01*
X648771Y461632D01*
X676869Y433535D01*
X676968Y433456D01*
X677062Y433372D01*
X677104Y433348D01*
X677142Y433318D01*
X677256Y433264D01*
X677367Y433203D01*
X677413Y433190D01*
X677457Y433169D01*
X677580Y433143D01*
X677702Y433108D01*
X677763Y433103D01*
X677798Y433096D01*
X677846Y433097D01*
X677946Y433089D01*
X681720Y433089D01*
X681722Y433089D01*
X681724Y433089D01*
X681894Y433109D01*
X682066Y433129D01*
X682068Y433129D01*
X682070Y433130D01*
X682303Y433205D01*
X683746Y433803D01*
X686254Y433803D01*
X688570Y432843D01*
X690343Y431070D01*
X691303Y428754D01*
X691303Y426246D01*
X690343Y423930D01*
X688570Y422157D01*
X686254Y421197D01*
X683746Y421197D01*
X682303Y421795D01*
X682301Y421796D01*
X682299Y421797D01*
X682132Y421844D01*
X681967Y421891D01*
X681965Y421891D01*
X681963Y421892D01*
X681720Y421911D01*
X677946Y421911D01*
X677820Y421897D01*
X677694Y421890D01*
X677648Y421877D01*
X677600Y421871D01*
X677481Y421829D01*
X677359Y421794D01*
X677317Y421770D01*
X677272Y421754D01*
X677165Y421685D01*
X677055Y421624D01*
X677009Y421584D01*
X676979Y421565D01*
X676945Y421530D01*
X676869Y421465D01*
X658199Y402795D01*
X658151Y402735D01*
X658096Y402682D01*
X658043Y402599D01*
X657982Y402522D01*
X657950Y402453D01*
X657908Y402389D01*
X657875Y402296D01*
X657833Y402207D01*
X657817Y402132D01*
X657792Y402060D01*
X657781Y401962D01*
X657760Y401866D01*
X657761Y401790D01*
X657753Y401714D01*
X657764Y401616D01*
X657766Y401518D01*
X657784Y401444D01*
X657793Y401368D01*
X657839Y401226D01*
X657851Y401180D01*
X657860Y401163D01*
X657869Y401135D01*
X658329Y400024D01*
X658329Y395376D01*
X657168Y392573D01*
X657161Y392548D01*
X657149Y392524D01*
X657113Y392381D01*
X657072Y392238D01*
X657071Y392211D01*
X657064Y392186D01*
X657062Y392038D01*
X657055Y391890D01*
X657060Y391864D01*
X657059Y391838D01*
X657091Y391693D01*
X657118Y391547D01*
X657128Y391523D01*
X657134Y391497D01*
X657197Y391364D01*
X657257Y391227D01*
X657272Y391206D01*
X657283Y391182D01*
X657376Y391067D01*
X657464Y390947D01*
X657484Y390930D01*
X657501Y390910D01*
X657617Y390818D01*
X657730Y390722D01*
X657754Y390710D01*
X657774Y390694D01*
X657992Y390583D01*
X658570Y390343D01*
X659911Y389003D01*
X660010Y388924D01*
X660103Y388840D01*
X660146Y388816D01*
X660184Y388786D01*
X660298Y388732D01*
X660408Y388671D01*
X660455Y388658D01*
X660499Y388637D01*
X660622Y388611D01*
X660744Y388576D01*
X660805Y388571D01*
X660839Y388564D01*
X660887Y388565D01*
X660988Y388557D01*
X683973Y388557D01*
X685781Y386749D01*
X685880Y386670D01*
X685974Y386586D01*
X686016Y386562D01*
X686054Y386532D01*
X686168Y386478D01*
X686279Y386417D01*
X686326Y386404D01*
X686369Y386383D01*
X686493Y386357D01*
X686614Y386322D01*
X686675Y386317D01*
X686710Y386310D01*
X686758Y386311D01*
X686858Y386303D01*
X688754Y386303D01*
X691070Y385343D01*
X692843Y383570D01*
X693803Y381254D01*
X693803Y378746D01*
X692843Y376430D01*
X691070Y374657D01*
X688754Y373697D01*
X686246Y373697D01*
X683930Y374657D01*
X682157Y376430D01*
X681197Y378746D01*
X681197Y379920D01*
X681194Y379946D01*
X681196Y379972D01*
X681174Y380119D01*
X681157Y380266D01*
X681149Y380291D01*
X681145Y380317D01*
X681090Y380455D01*
X681040Y380594D01*
X681026Y380616D01*
X681016Y380641D01*
X680931Y380762D01*
X680851Y380887D01*
X680832Y380905D01*
X680817Y380927D01*
X680707Y381026D01*
X680600Y381129D01*
X680578Y381143D01*
X680558Y381160D01*
X680428Y381232D01*
X680301Y381308D01*
X680276Y381316D01*
X680253Y381329D01*
X680110Y381369D01*
X679969Y381414D01*
X679943Y381416D01*
X679918Y381424D01*
X679674Y381443D01*
X660988Y381443D01*
X660862Y381429D01*
X660736Y381422D01*
X660689Y381409D01*
X660641Y381403D01*
X660522Y381361D01*
X660401Y381326D01*
X660359Y381302D01*
X660313Y381286D01*
X660207Y381217D01*
X660097Y381156D01*
X660051Y381116D01*
X660021Y381097D01*
X659987Y381062D01*
X659911Y380997D01*
X658570Y379657D01*
X657992Y379417D01*
X657969Y379405D01*
X657944Y379397D01*
X657817Y379320D01*
X657688Y379248D01*
X657668Y379230D01*
X657646Y379217D01*
X657539Y379113D01*
X657429Y379014D01*
X657414Y378992D01*
X657396Y378974D01*
X657316Y378849D01*
X657231Y378727D01*
X657222Y378703D01*
X657207Y378681D01*
X657158Y378541D01*
X657103Y378403D01*
X657100Y378377D01*
X657091Y378352D01*
X657074Y378205D01*
X657053Y378058D01*
X657055Y378032D01*
X657052Y378006D01*
X657069Y377859D01*
X657081Y377711D01*
X657090Y377686D01*
X657093Y377660D01*
X657168Y377427D01*
X658329Y374624D01*
X658329Y369976D01*
X656550Y365681D01*
X653263Y362394D01*
X649915Y361007D01*
X649827Y360959D01*
X649735Y360918D01*
X649675Y360874D01*
X649610Y360838D01*
X649536Y360771D01*
X649455Y360711D01*
X649407Y360654D01*
X649352Y360604D01*
X649295Y360521D01*
X649230Y360445D01*
X649196Y360378D01*
X649154Y360317D01*
X649117Y360224D01*
X649071Y360134D01*
X649053Y360062D01*
X649026Y359993D01*
X649011Y359894D01*
X648987Y359796D01*
X648986Y359722D01*
X648975Y359648D01*
X648983Y359548D01*
X648982Y359448D01*
X648998Y359375D01*
X649004Y359301D01*
X649035Y359205D01*
X649056Y359107D01*
X649088Y359040D01*
X649111Y358969D01*
X649163Y358883D01*
X649206Y358792D01*
X649252Y358734D01*
X649291Y358671D01*
X649361Y358598D01*
X649423Y358520D01*
X649482Y358474D01*
X649534Y358421D01*
X649618Y358366D01*
X649697Y358304D01*
X649786Y358258D01*
X649827Y358232D01*
X649861Y358220D01*
X649915Y358193D01*
X653263Y356806D01*
X656550Y353519D01*
X658329Y349224D01*
X658329Y344576D01*
X656550Y340281D01*
X653263Y336994D01*
X648968Y335215D01*
X626032Y335215D01*
G37*
%LPD*%
%LPC*%
G36*
X537706Y181977D02*
X537706Y181977D01*
X535390Y182937D01*
X533617Y184710D01*
X532657Y187026D01*
X532657Y189534D01*
X533617Y191850D01*
X535390Y193623D01*
X537706Y194583D01*
X540214Y194583D01*
X542530Y193623D01*
X543363Y192791D01*
X543462Y192712D01*
X543555Y192628D01*
X543598Y192604D01*
X543636Y192574D01*
X543750Y192520D01*
X543860Y192459D01*
X543907Y192446D01*
X543951Y192425D01*
X544074Y192399D01*
X544196Y192364D01*
X544257Y192359D01*
X544291Y192352D01*
X544339Y192353D01*
X544440Y192345D01*
X675858Y192345D01*
X675884Y192348D01*
X675910Y192346D01*
X676057Y192368D01*
X676204Y192385D01*
X676229Y192393D01*
X676255Y192397D01*
X676393Y192452D01*
X676532Y192502D01*
X676554Y192516D01*
X676579Y192526D01*
X676700Y192611D01*
X676825Y192691D01*
X676843Y192710D01*
X676865Y192725D01*
X676964Y192835D01*
X677067Y192942D01*
X677081Y192964D01*
X677098Y192984D01*
X677170Y193114D01*
X677246Y193241D01*
X677254Y193266D01*
X677267Y193289D01*
X677307Y193432D01*
X677352Y193573D01*
X677354Y193599D01*
X677362Y193624D01*
X677381Y193868D01*
X677381Y196383D01*
X679199Y200771D01*
X682557Y204129D01*
X686945Y205947D01*
X691695Y205947D01*
X696083Y204129D01*
X699441Y200771D01*
X700613Y197942D01*
X700661Y197855D01*
X700701Y197762D01*
X700746Y197703D01*
X700782Y197638D01*
X700849Y197563D01*
X700909Y197483D01*
X700966Y197435D01*
X701016Y197380D01*
X701099Y197323D01*
X701175Y197258D01*
X701242Y197224D01*
X701303Y197181D01*
X701396Y197145D01*
X701486Y197099D01*
X701558Y197081D01*
X701627Y197054D01*
X701727Y197039D01*
X701824Y197015D01*
X701898Y197014D01*
X701972Y197003D01*
X702072Y197011D01*
X702172Y197010D01*
X702245Y197026D01*
X702319Y197032D01*
X702415Y197063D01*
X702513Y197084D01*
X702580Y197116D01*
X702651Y197139D01*
X702737Y197191D01*
X702828Y197234D01*
X702886Y197280D01*
X702949Y197318D01*
X703022Y197389D01*
X703100Y197451D01*
X703146Y197509D01*
X703199Y197561D01*
X703254Y197646D01*
X703316Y197725D01*
X703362Y197814D01*
X703388Y197855D01*
X703400Y197888D01*
X703427Y197942D01*
X704599Y200771D01*
X707957Y204129D01*
X712345Y205947D01*
X717095Y205947D01*
X721483Y204129D01*
X724841Y200771D01*
X726013Y197942D01*
X726061Y197855D01*
X726101Y197762D01*
X726146Y197703D01*
X726182Y197638D01*
X726249Y197563D01*
X726309Y197483D01*
X726366Y197435D01*
X726416Y197380D01*
X726499Y197323D01*
X726575Y197258D01*
X726642Y197224D01*
X726703Y197181D01*
X726796Y197145D01*
X726886Y197099D01*
X726958Y197081D01*
X727027Y197054D01*
X727127Y197039D01*
X727224Y197015D01*
X727298Y197014D01*
X727372Y197003D01*
X727472Y197011D01*
X727572Y197010D01*
X727645Y197026D01*
X727719Y197032D01*
X727815Y197063D01*
X727913Y197084D01*
X727980Y197116D01*
X728051Y197139D01*
X728137Y197191D01*
X728228Y197234D01*
X728286Y197280D01*
X728349Y197318D01*
X728422Y197389D01*
X728500Y197451D01*
X728546Y197509D01*
X728599Y197561D01*
X728654Y197646D01*
X728716Y197725D01*
X728762Y197814D01*
X728788Y197855D01*
X728800Y197888D01*
X728827Y197942D01*
X729999Y200771D01*
X733357Y204129D01*
X737745Y205947D01*
X742495Y205947D01*
X746883Y204129D01*
X750241Y200771D01*
X751413Y197942D01*
X751461Y197855D01*
X751501Y197762D01*
X751546Y197703D01*
X751582Y197638D01*
X751649Y197563D01*
X751709Y197483D01*
X751766Y197435D01*
X751816Y197380D01*
X751899Y197323D01*
X751975Y197258D01*
X752042Y197224D01*
X752103Y197181D01*
X752196Y197145D01*
X752286Y197099D01*
X752358Y197081D01*
X752427Y197054D01*
X752527Y197039D01*
X752624Y197015D01*
X752698Y197014D01*
X752772Y197003D01*
X752872Y197011D01*
X752972Y197010D01*
X753045Y197026D01*
X753119Y197032D01*
X753215Y197063D01*
X753313Y197084D01*
X753380Y197116D01*
X753451Y197139D01*
X753537Y197191D01*
X753628Y197234D01*
X753686Y197280D01*
X753749Y197318D01*
X753822Y197389D01*
X753900Y197451D01*
X753946Y197509D01*
X753999Y197561D01*
X754054Y197646D01*
X754116Y197725D01*
X754162Y197814D01*
X754188Y197855D01*
X754200Y197888D01*
X754227Y197942D01*
X755399Y200771D01*
X758757Y204129D01*
X763145Y205947D01*
X767895Y205947D01*
X772283Y204129D01*
X775641Y200771D01*
X776813Y197942D01*
X776861Y197855D01*
X776901Y197762D01*
X776946Y197703D01*
X776982Y197638D01*
X777049Y197563D01*
X777109Y197483D01*
X777166Y197435D01*
X777216Y197380D01*
X777299Y197323D01*
X777375Y197258D01*
X777442Y197224D01*
X777503Y197181D01*
X777596Y197145D01*
X777686Y197099D01*
X777758Y197081D01*
X777827Y197054D01*
X777927Y197039D01*
X778024Y197015D01*
X778098Y197014D01*
X778172Y197003D01*
X778272Y197011D01*
X778372Y197010D01*
X778445Y197026D01*
X778519Y197032D01*
X778615Y197063D01*
X778713Y197084D01*
X778780Y197116D01*
X778851Y197139D01*
X778937Y197191D01*
X779028Y197234D01*
X779086Y197280D01*
X779149Y197318D01*
X779222Y197389D01*
X779300Y197451D01*
X779346Y197509D01*
X779399Y197561D01*
X779454Y197646D01*
X779516Y197725D01*
X779562Y197814D01*
X779588Y197855D01*
X779600Y197888D01*
X779627Y197942D01*
X780799Y200771D01*
X784157Y204129D01*
X788545Y205947D01*
X793295Y205947D01*
X797683Y204129D01*
X801041Y200771D01*
X802220Y197925D01*
X802298Y197785D01*
X802373Y197644D01*
X802382Y197633D01*
X802389Y197620D01*
X802497Y197502D01*
X802602Y197381D01*
X802614Y197373D01*
X802623Y197362D01*
X802755Y197271D01*
X802885Y197178D01*
X802898Y197172D01*
X802910Y197164D01*
X803059Y197105D01*
X803207Y197044D01*
X803221Y197041D01*
X803234Y197036D01*
X803392Y197013D01*
X803550Y196986D01*
X803565Y196987D01*
X803579Y196985D01*
X803739Y196999D01*
X803898Y197009D01*
X803912Y197013D01*
X803926Y197014D01*
X804079Y197064D01*
X804232Y197110D01*
X804244Y197117D01*
X804258Y197121D01*
X804396Y197204D01*
X804534Y197283D01*
X804544Y197293D01*
X804557Y197301D01*
X804672Y197413D01*
X804788Y197522D01*
X804796Y197534D01*
X804807Y197544D01*
X804893Y197679D01*
X804982Y197811D01*
X804989Y197827D01*
X804995Y197837D01*
X805008Y197873D01*
X805076Y198037D01*
X805256Y198591D01*
X806109Y200265D01*
X807214Y201786D01*
X808542Y203114D01*
X810063Y204219D01*
X811737Y205072D01*
X813524Y205653D01*
X813781Y205693D01*
X813781Y195024D01*
X813784Y194998D01*
X813782Y194972D01*
X813804Y194825D01*
X813821Y194678D01*
X813829Y194653D01*
X813833Y194627D01*
X813888Y194490D01*
X813938Y194350D01*
X813952Y194328D01*
X813962Y194303D01*
X814047Y194182D01*
X814127Y194057D01*
X814146Y194039D01*
X814161Y194017D01*
X814177Y194003D01*
X814095Y193918D01*
X814081Y193895D01*
X814064Y193876D01*
X813992Y193746D01*
X813916Y193619D01*
X813908Y193594D01*
X813895Y193571D01*
X813855Y193428D01*
X813810Y193287D01*
X813807Y193261D01*
X813800Y193236D01*
X813781Y192992D01*
X813781Y182323D01*
X813524Y182363D01*
X811737Y182944D01*
X810063Y183797D01*
X808542Y184902D01*
X807214Y186230D01*
X806109Y187751D01*
X805256Y189425D01*
X805076Y189979D01*
X805010Y190124D01*
X804946Y190271D01*
X804937Y190283D01*
X804931Y190296D01*
X804834Y190422D01*
X804738Y190551D01*
X804727Y190560D01*
X804718Y190572D01*
X804594Y190673D01*
X804472Y190776D01*
X804459Y190783D01*
X804448Y190792D01*
X804304Y190862D01*
X804162Y190935D01*
X804148Y190938D01*
X804135Y190945D01*
X803978Y190980D01*
X803823Y191019D01*
X803809Y191019D01*
X803795Y191022D01*
X803635Y191022D01*
X803475Y191024D01*
X803461Y191021D01*
X803446Y191021D01*
X803291Y190984D01*
X803134Y190950D01*
X803121Y190943D01*
X803107Y190940D01*
X802963Y190868D01*
X802820Y190800D01*
X802809Y190791D01*
X802795Y190784D01*
X802672Y190682D01*
X802547Y190583D01*
X802538Y190571D01*
X802527Y190562D01*
X802430Y190434D01*
X802331Y190309D01*
X802324Y190294D01*
X802316Y190284D01*
X802301Y190249D01*
X802220Y190091D01*
X801041Y187245D01*
X797683Y183887D01*
X793295Y182069D01*
X788545Y182069D01*
X784157Y183887D01*
X780799Y187245D01*
X779627Y190074D01*
X779579Y190161D01*
X779538Y190254D01*
X779494Y190313D01*
X779458Y190378D01*
X779391Y190453D01*
X779331Y190533D01*
X779274Y190581D01*
X779224Y190636D01*
X779141Y190694D01*
X779065Y190758D01*
X778998Y190792D01*
X778937Y190835D01*
X778844Y190871D01*
X778754Y190917D01*
X778682Y190935D01*
X778613Y190962D01*
X778514Y190977D01*
X778416Y191001D01*
X778342Y191002D01*
X778268Y191013D01*
X778168Y191005D01*
X778068Y191006D01*
X777995Y190990D01*
X777921Y190984D01*
X777825Y190953D01*
X777727Y190932D01*
X777660Y190900D01*
X777589Y190877D01*
X777503Y190825D01*
X777412Y190782D01*
X777354Y190736D01*
X777291Y190698D01*
X777218Y190627D01*
X777140Y190565D01*
X777094Y190507D01*
X777041Y190455D01*
X776986Y190370D01*
X776924Y190291D01*
X776878Y190202D01*
X776852Y190161D01*
X776840Y190128D01*
X776813Y190074D01*
X775641Y187245D01*
X772283Y183887D01*
X767895Y182069D01*
X763145Y182069D01*
X758757Y183887D01*
X755399Y187245D01*
X754227Y190074D01*
X754179Y190161D01*
X754138Y190254D01*
X754094Y190313D01*
X754058Y190378D01*
X753991Y190453D01*
X753931Y190533D01*
X753874Y190581D01*
X753824Y190636D01*
X753741Y190694D01*
X753665Y190758D01*
X753598Y190792D01*
X753537Y190835D01*
X753444Y190871D01*
X753354Y190917D01*
X753282Y190935D01*
X753213Y190962D01*
X753114Y190977D01*
X753016Y191001D01*
X752942Y191002D01*
X752868Y191013D01*
X752768Y191005D01*
X752668Y191006D01*
X752595Y190990D01*
X752521Y190984D01*
X752425Y190953D01*
X752327Y190932D01*
X752260Y190900D01*
X752189Y190877D01*
X752103Y190825D01*
X752012Y190782D01*
X751954Y190736D01*
X751891Y190698D01*
X751818Y190627D01*
X751740Y190565D01*
X751694Y190507D01*
X751641Y190455D01*
X751586Y190370D01*
X751524Y190291D01*
X751478Y190202D01*
X751452Y190161D01*
X751440Y190128D01*
X751413Y190074D01*
X750241Y187245D01*
X746883Y183887D01*
X742495Y182069D01*
X737745Y182069D01*
X733357Y183887D01*
X729999Y187245D01*
X728827Y190074D01*
X728779Y190161D01*
X728738Y190254D01*
X728694Y190313D01*
X728658Y190378D01*
X728591Y190453D01*
X728531Y190533D01*
X728474Y190581D01*
X728424Y190636D01*
X728341Y190694D01*
X728265Y190758D01*
X728198Y190792D01*
X728137Y190835D01*
X728044Y190871D01*
X727954Y190917D01*
X727882Y190935D01*
X727813Y190962D01*
X727714Y190977D01*
X727616Y191001D01*
X727542Y191002D01*
X727468Y191013D01*
X727368Y191005D01*
X727268Y191006D01*
X727195Y190990D01*
X727121Y190984D01*
X727025Y190953D01*
X726927Y190932D01*
X726860Y190900D01*
X726789Y190877D01*
X726703Y190825D01*
X726612Y190782D01*
X726554Y190736D01*
X726491Y190698D01*
X726418Y190627D01*
X726340Y190565D01*
X726294Y190507D01*
X726241Y190455D01*
X726186Y190370D01*
X726124Y190291D01*
X726078Y190202D01*
X726052Y190161D01*
X726040Y190128D01*
X726013Y190074D01*
X724841Y187245D01*
X721483Y183887D01*
X717095Y182069D01*
X712345Y182069D01*
X707957Y183887D01*
X704599Y187245D01*
X703427Y190074D01*
X703379Y190161D01*
X703338Y190254D01*
X703294Y190313D01*
X703258Y190378D01*
X703191Y190453D01*
X703131Y190533D01*
X703074Y190581D01*
X703024Y190636D01*
X702941Y190694D01*
X702865Y190758D01*
X702798Y190792D01*
X702737Y190835D01*
X702644Y190871D01*
X702554Y190917D01*
X702482Y190935D01*
X702413Y190962D01*
X702314Y190977D01*
X702216Y191001D01*
X702142Y191002D01*
X702068Y191013D01*
X701968Y191005D01*
X701868Y191006D01*
X701795Y190990D01*
X701721Y190984D01*
X701625Y190953D01*
X701527Y190932D01*
X701460Y190900D01*
X701389Y190877D01*
X701303Y190825D01*
X701212Y190782D01*
X701154Y190736D01*
X701091Y190698D01*
X701018Y190627D01*
X700940Y190565D01*
X700894Y190507D01*
X700841Y190455D01*
X700786Y190370D01*
X700724Y190291D01*
X700678Y190202D01*
X700652Y190161D01*
X700640Y190128D01*
X700613Y190074D01*
X699441Y187245D01*
X696083Y183887D01*
X691695Y182069D01*
X686945Y182069D01*
X682512Y183906D01*
X682482Y183932D01*
X682440Y183956D01*
X682402Y183986D01*
X682288Y184040D01*
X682177Y184101D01*
X682131Y184114D01*
X682087Y184135D01*
X681963Y184161D01*
X681842Y184196D01*
X681781Y184201D01*
X681746Y184208D01*
X681698Y184207D01*
X681598Y184215D01*
X544440Y184215D01*
X544314Y184201D01*
X544188Y184194D01*
X544141Y184181D01*
X544093Y184175D01*
X543974Y184133D01*
X543853Y184098D01*
X543811Y184074D01*
X543765Y184058D01*
X543659Y183989D01*
X543549Y183928D01*
X543503Y183888D01*
X543473Y183869D01*
X543439Y183834D01*
X543363Y183769D01*
X542530Y182937D01*
X540214Y181977D01*
X537706Y181977D01*
G37*
%LPD*%
%LPC*%
G36*
X771050Y558611D02*
X771050Y558611D01*
X769561Y560100D01*
X769561Y576893D01*
X769556Y576943D01*
X769558Y576993D01*
X769536Y577116D01*
X769521Y577239D01*
X769504Y577287D01*
X769495Y577336D01*
X769446Y577450D01*
X769404Y577567D01*
X769377Y577610D01*
X769357Y577656D01*
X769282Y577756D01*
X769215Y577860D01*
X769179Y577895D01*
X769149Y577936D01*
X769054Y578016D01*
X768964Y578102D01*
X768921Y578128D01*
X768883Y578161D01*
X768772Y578218D01*
X768665Y578281D01*
X768617Y578297D01*
X768572Y578320D01*
X768452Y578350D01*
X768333Y578387D01*
X768283Y578392D01*
X768234Y578404D01*
X768110Y578405D01*
X767986Y578415D01*
X767936Y578408D01*
X767886Y578409D01*
X767764Y578382D01*
X767641Y578364D01*
X767594Y578345D01*
X767545Y578334D01*
X767433Y578281D01*
X767317Y578235D01*
X767276Y578206D01*
X767230Y578185D01*
X767133Y578107D01*
X767031Y578036D01*
X766997Y577999D01*
X766958Y577967D01*
X766881Y577870D01*
X766798Y577777D01*
X766773Y577733D01*
X766742Y577694D01*
X766631Y577476D01*
X766221Y576487D01*
X762863Y573129D01*
X758475Y571311D01*
X753725Y571311D01*
X749337Y573129D01*
X745979Y576487D01*
X744161Y580875D01*
X744161Y585625D01*
X745979Y590013D01*
X749337Y593371D01*
X752166Y594543D01*
X752253Y594592D01*
X752345Y594632D01*
X752405Y594676D01*
X752470Y594712D01*
X752545Y594779D01*
X752625Y594839D01*
X752673Y594896D01*
X752728Y594946D01*
X752786Y595029D01*
X752850Y595105D01*
X752884Y595172D01*
X752927Y595233D01*
X752963Y595326D01*
X753009Y595416D01*
X753027Y595488D01*
X753054Y595557D01*
X753069Y595656D01*
X753093Y595754D01*
X753094Y595828D01*
X753105Y595902D01*
X753097Y596002D01*
X753098Y596102D01*
X753082Y596175D01*
X753076Y596249D01*
X753045Y596345D01*
X753024Y596443D01*
X752992Y596510D01*
X752969Y596581D01*
X752917Y596667D01*
X752874Y596758D01*
X752828Y596816D01*
X752789Y596879D01*
X752720Y596951D01*
X752657Y597030D01*
X752598Y597076D01*
X752547Y597129D01*
X752462Y597184D01*
X752383Y597246D01*
X752294Y597292D01*
X752253Y597318D01*
X752220Y597330D01*
X752166Y597357D01*
X749337Y598529D01*
X745979Y601887D01*
X744161Y606275D01*
X744161Y611025D01*
X745979Y615413D01*
X749337Y618771D01*
X752166Y619943D01*
X752253Y619992D01*
X752345Y620032D01*
X752405Y620076D01*
X752470Y620112D01*
X752545Y620179D01*
X752625Y620239D01*
X752673Y620296D01*
X752728Y620346D01*
X752786Y620429D01*
X752850Y620505D01*
X752884Y620572D01*
X752927Y620633D01*
X752963Y620726D01*
X753009Y620816D01*
X753027Y620888D01*
X753054Y620957D01*
X753069Y621056D01*
X753093Y621154D01*
X753094Y621228D01*
X753105Y621302D01*
X753097Y621402D01*
X753098Y621502D01*
X753082Y621575D01*
X753076Y621649D01*
X753045Y621745D01*
X753024Y621843D01*
X752992Y621910D01*
X752969Y621981D01*
X752917Y622067D01*
X752874Y622158D01*
X752828Y622216D01*
X752789Y622279D01*
X752720Y622351D01*
X752657Y622430D01*
X752598Y622476D01*
X752547Y622529D01*
X752462Y622584D01*
X752383Y622646D01*
X752294Y622692D01*
X752253Y622718D01*
X752220Y622730D01*
X752166Y622757D01*
X749337Y623929D01*
X745979Y627287D01*
X744161Y631675D01*
X744161Y636425D01*
X745979Y640813D01*
X749337Y644171D01*
X752183Y645350D01*
X752323Y645428D01*
X752464Y645503D01*
X752475Y645512D01*
X752488Y645519D01*
X752606Y645627D01*
X752727Y645732D01*
X752735Y645744D01*
X752746Y645753D01*
X752837Y645885D01*
X752930Y646015D01*
X752936Y646028D01*
X752944Y646040D01*
X753003Y646189D01*
X753064Y646337D01*
X753067Y646351D01*
X753072Y646364D01*
X753095Y646522D01*
X753122Y646680D01*
X753121Y646695D01*
X753123Y646709D01*
X753110Y646868D01*
X753099Y647028D01*
X753095Y647042D01*
X753094Y647056D01*
X753044Y647209D01*
X752998Y647362D01*
X752991Y647374D01*
X752987Y647388D01*
X752904Y647526D01*
X752825Y647664D01*
X752815Y647674D01*
X752807Y647687D01*
X752695Y647802D01*
X752586Y647918D01*
X752574Y647926D01*
X752564Y647937D01*
X752429Y648023D01*
X752297Y648112D01*
X752281Y648119D01*
X752271Y648125D01*
X752235Y648138D01*
X752071Y648206D01*
X751517Y648386D01*
X749843Y649239D01*
X748322Y650344D01*
X746994Y651672D01*
X745889Y653193D01*
X745036Y654867D01*
X744455Y656654D01*
X744408Y656951D01*
X755124Y656951D01*
X755150Y656954D01*
X755176Y656952D01*
X755323Y656974D01*
X755470Y656991D01*
X755495Y656999D01*
X755521Y657003D01*
X755658Y657058D01*
X755798Y657108D01*
X755820Y657122D01*
X755845Y657132D01*
X755966Y657217D01*
X756091Y657297D01*
X756103Y657310D01*
X756150Y657265D01*
X756173Y657251D01*
X756192Y657234D01*
X756322Y657162D01*
X756449Y657086D01*
X756474Y657078D01*
X756497Y657065D01*
X756640Y657025D01*
X756781Y656980D01*
X756807Y656977D01*
X756832Y656970D01*
X757076Y656951D01*
X767792Y656951D01*
X767745Y656654D01*
X767164Y654867D01*
X766311Y653193D01*
X765206Y651672D01*
X763878Y650344D01*
X762357Y649239D01*
X760683Y648386D01*
X760129Y648206D01*
X759984Y648140D01*
X759837Y648076D01*
X759825Y648067D01*
X759812Y648061D01*
X759686Y647964D01*
X759557Y647868D01*
X759548Y647857D01*
X759536Y647848D01*
X759435Y647724D01*
X759332Y647602D01*
X759325Y647589D01*
X759316Y647578D01*
X759246Y647434D01*
X759173Y647292D01*
X759170Y647278D01*
X759163Y647265D01*
X759128Y647108D01*
X759089Y646953D01*
X759089Y646939D01*
X759086Y646925D01*
X759086Y646765D01*
X759084Y646605D01*
X759087Y646591D01*
X759087Y646576D01*
X759124Y646421D01*
X759158Y646264D01*
X759165Y646251D01*
X759168Y646237D01*
X759240Y646093D01*
X759308Y645950D01*
X759317Y645939D01*
X759324Y645925D01*
X759426Y645802D01*
X759525Y645677D01*
X759537Y645668D01*
X759546Y645657D01*
X759674Y645560D01*
X759799Y645461D01*
X759814Y645454D01*
X759824Y645446D01*
X759859Y645431D01*
X760017Y645350D01*
X762863Y644171D01*
X766221Y640813D01*
X768039Y636425D01*
X768039Y631675D01*
X766221Y627287D01*
X762863Y623929D01*
X760034Y622757D01*
X759947Y622709D01*
X759855Y622669D01*
X759795Y622624D01*
X759730Y622588D01*
X759655Y622521D01*
X759575Y622461D01*
X759527Y622404D01*
X759472Y622354D01*
X759415Y622271D01*
X759350Y622195D01*
X759316Y622128D01*
X759273Y622067D01*
X759237Y621974D01*
X759191Y621884D01*
X759173Y621812D01*
X759146Y621743D01*
X759131Y621644D01*
X759107Y621546D01*
X759106Y621472D01*
X759095Y621398D01*
X759103Y621298D01*
X759102Y621198D01*
X759118Y621125D01*
X759124Y621051D01*
X759155Y620955D01*
X759176Y620857D01*
X759208Y620790D01*
X759231Y620719D01*
X759283Y620633D01*
X759326Y620542D01*
X759372Y620484D01*
X759410Y620421D01*
X759481Y620348D01*
X759543Y620270D01*
X759601Y620224D01*
X759653Y620171D01*
X759738Y620116D01*
X759817Y620054D01*
X759906Y620008D01*
X759947Y619982D01*
X759980Y619970D01*
X760034Y619943D01*
X762863Y618771D01*
X766221Y615413D01*
X768039Y611025D01*
X768039Y606275D01*
X766221Y601887D01*
X762863Y598529D01*
X760034Y597357D01*
X759947Y597309D01*
X759855Y597269D01*
X759795Y597224D01*
X759730Y597188D01*
X759655Y597121D01*
X759575Y597061D01*
X759527Y597004D01*
X759472Y596954D01*
X759415Y596871D01*
X759350Y596795D01*
X759316Y596728D01*
X759273Y596667D01*
X759237Y596574D01*
X759191Y596484D01*
X759173Y596412D01*
X759146Y596343D01*
X759131Y596243D01*
X759107Y596146D01*
X759106Y596072D01*
X759095Y595998D01*
X759103Y595898D01*
X759102Y595798D01*
X759118Y595725D01*
X759124Y595651D01*
X759155Y595555D01*
X759176Y595457D01*
X759208Y595390D01*
X759231Y595319D01*
X759283Y595233D01*
X759326Y595142D01*
X759372Y595084D01*
X759410Y595021D01*
X759481Y594948D01*
X759543Y594870D01*
X759601Y594824D01*
X759653Y594771D01*
X759738Y594716D01*
X759817Y594654D01*
X759906Y594608D01*
X759947Y594582D01*
X759980Y594570D01*
X760034Y594543D01*
X762863Y593371D01*
X766221Y590013D01*
X768039Y585625D01*
X768039Y583155D01*
X768041Y583132D01*
X768040Y583109D01*
X768051Y583036D01*
X768052Y582955D01*
X768070Y582883D01*
X768079Y582809D01*
X768089Y582780D01*
X768091Y582764D01*
X768115Y582705D01*
X768137Y582617D01*
X768171Y582551D01*
X768196Y582481D01*
X768217Y582449D01*
X768220Y582441D01*
X768251Y582397D01*
X768297Y582307D01*
X768345Y582251D01*
X768385Y582188D01*
X768417Y582158D01*
X768419Y582154D01*
X768436Y582139D01*
X768457Y582118D01*
X768522Y582042D01*
X768582Y581998D01*
X768636Y581946D01*
X768722Y581894D01*
X768803Y581835D01*
X768871Y581805D01*
X768935Y581767D01*
X769030Y581737D01*
X769123Y581697D01*
X769196Y581684D01*
X769267Y581661D01*
X769367Y581653D01*
X769466Y581635D01*
X769540Y581639D01*
X769614Y581633D01*
X769714Y581648D01*
X769814Y581653D01*
X769885Y581674D01*
X769913Y581678D01*
X769914Y581678D01*
X769959Y581685D01*
X770052Y581722D01*
X770149Y581750D01*
X770210Y581784D01*
X770242Y581795D01*
X770250Y581800D01*
X770283Y581813D01*
X770365Y581871D01*
X770453Y581920D01*
X770509Y581968D01*
X770535Y581984D01*
X770548Y581998D01*
X770569Y582012D01*
X770593Y582039D01*
X770639Y582078D01*
X771050Y582489D01*
X775143Y582489D01*
X775193Y582494D01*
X775243Y582492D01*
X775366Y582514D01*
X775489Y582529D01*
X775537Y582546D01*
X775586Y582555D01*
X775700Y582604D01*
X775817Y582646D01*
X775860Y582673D01*
X775906Y582693D01*
X776006Y582768D01*
X776110Y582835D01*
X776145Y582871D01*
X776186Y582901D01*
X776266Y582996D01*
X776352Y583086D01*
X776378Y583129D01*
X776411Y583167D01*
X776468Y583278D01*
X776531Y583385D01*
X776547Y583433D01*
X776570Y583478D01*
X776600Y583598D01*
X776637Y583717D01*
X776642Y583767D01*
X776654Y583816D01*
X776655Y583940D01*
X776665Y584064D01*
X776658Y584114D01*
X776659Y584164D01*
X776632Y584286D01*
X776614Y584409D01*
X776595Y584456D01*
X776584Y584505D01*
X776531Y584617D01*
X776485Y584733D01*
X776456Y584774D01*
X776435Y584820D01*
X776357Y584917D01*
X776286Y585019D01*
X776249Y585053D01*
X776217Y585092D01*
X776120Y585169D01*
X776027Y585252D01*
X775983Y585277D01*
X775944Y585308D01*
X775726Y585419D01*
X774737Y585829D01*
X771379Y589187D01*
X769561Y593575D01*
X769561Y598325D01*
X771379Y602713D01*
X774737Y606071D01*
X777566Y607243D01*
X777653Y607292D01*
X777745Y607332D01*
X777805Y607376D01*
X777870Y607412D01*
X777945Y607479D01*
X778025Y607539D01*
X778073Y607596D01*
X778128Y607646D01*
X778186Y607729D01*
X778250Y607805D01*
X778284Y607872D01*
X778327Y607933D01*
X778363Y608026D01*
X778409Y608116D01*
X778427Y608188D01*
X778454Y608257D01*
X778469Y608356D01*
X778493Y608454D01*
X778494Y608528D01*
X778505Y608602D01*
X778497Y608702D01*
X778498Y608802D01*
X778482Y608875D01*
X778476Y608949D01*
X778445Y609045D01*
X778424Y609143D01*
X778392Y609210D01*
X778369Y609281D01*
X778317Y609367D01*
X778274Y609458D01*
X778228Y609516D01*
X778189Y609579D01*
X778120Y609651D01*
X778057Y609730D01*
X777998Y609776D01*
X777947Y609829D01*
X777862Y609884D01*
X777783Y609946D01*
X777694Y609992D01*
X777653Y610018D01*
X777620Y610030D01*
X777566Y610057D01*
X774737Y611229D01*
X771379Y614587D01*
X769561Y618975D01*
X769561Y623725D01*
X771379Y628113D01*
X774737Y631471D01*
X777583Y632650D01*
X777723Y632728D01*
X777864Y632803D01*
X777875Y632812D01*
X777888Y632819D01*
X778006Y632927D01*
X778127Y633032D01*
X778135Y633044D01*
X778146Y633053D01*
X778237Y633185D01*
X778330Y633315D01*
X778336Y633328D01*
X778344Y633340D01*
X778403Y633489D01*
X778464Y633637D01*
X778467Y633651D01*
X778472Y633664D01*
X778495Y633822D01*
X778522Y633980D01*
X778521Y633995D01*
X778523Y634009D01*
X778510Y634168D01*
X778499Y634328D01*
X778495Y634342D01*
X778494Y634356D01*
X778444Y634509D01*
X778398Y634662D01*
X778391Y634674D01*
X778387Y634688D01*
X778304Y634826D01*
X778225Y634964D01*
X778215Y634974D01*
X778207Y634987D01*
X778095Y635102D01*
X777986Y635218D01*
X777974Y635226D01*
X777964Y635237D01*
X777829Y635323D01*
X777697Y635412D01*
X777681Y635419D01*
X777671Y635425D01*
X777635Y635438D01*
X777471Y635506D01*
X776917Y635686D01*
X775243Y636539D01*
X773722Y637644D01*
X772394Y638972D01*
X771289Y640493D01*
X770436Y642167D01*
X769855Y643954D01*
X769808Y644251D01*
X780524Y644251D01*
X780550Y644254D01*
X780576Y644252D01*
X780723Y644274D01*
X780870Y644291D01*
X780895Y644299D01*
X780921Y644303D01*
X781058Y644358D01*
X781198Y644408D01*
X781220Y644422D01*
X781245Y644432D01*
X781366Y644517D01*
X781491Y644597D01*
X781503Y644610D01*
X781550Y644565D01*
X781573Y644551D01*
X781592Y644534D01*
X781722Y644462D01*
X781849Y644386D01*
X781874Y644378D01*
X781897Y644365D01*
X782040Y644325D01*
X782181Y644280D01*
X782207Y644277D01*
X782232Y644270D01*
X782476Y644251D01*
X793192Y644251D01*
X793145Y643954D01*
X792564Y642167D01*
X791711Y640493D01*
X790606Y638972D01*
X789278Y637644D01*
X787757Y636539D01*
X786083Y635686D01*
X785529Y635506D01*
X785384Y635440D01*
X785237Y635376D01*
X785225Y635367D01*
X785212Y635361D01*
X785086Y635264D01*
X784957Y635168D01*
X784948Y635157D01*
X784936Y635148D01*
X784835Y635024D01*
X784732Y634902D01*
X784725Y634889D01*
X784716Y634878D01*
X784646Y634733D01*
X784573Y634592D01*
X784570Y634578D01*
X784563Y634565D01*
X784528Y634408D01*
X784489Y634253D01*
X784489Y634239D01*
X784486Y634225D01*
X784486Y634065D01*
X784484Y633905D01*
X784487Y633891D01*
X784487Y633876D01*
X784524Y633721D01*
X784558Y633564D01*
X784565Y633551D01*
X784568Y633537D01*
X784640Y633393D01*
X784708Y633250D01*
X784717Y633239D01*
X784724Y633225D01*
X784826Y633102D01*
X784925Y632977D01*
X784937Y632968D01*
X784946Y632957D01*
X785074Y632860D01*
X785199Y632761D01*
X785214Y632754D01*
X785224Y632746D01*
X785259Y632731D01*
X785417Y632650D01*
X788263Y631471D01*
X791621Y628113D01*
X791725Y627861D01*
X791760Y627799D01*
X791785Y627733D01*
X791844Y627647D01*
X791895Y627556D01*
X791942Y627504D01*
X791982Y627446D01*
X792059Y627375D01*
X792129Y627298D01*
X792187Y627258D01*
X792239Y627210D01*
X792330Y627159D01*
X792416Y627100D01*
X792481Y627074D01*
X792543Y627039D01*
X792643Y627010D01*
X792740Y626972D01*
X792810Y626962D01*
X792878Y626942D01*
X793042Y626928D01*
X793085Y626921D01*
X793099Y626922D01*
X793121Y626921D01*
X801492Y626858D01*
X801621Y626871D01*
X801751Y626878D01*
X801805Y626891D01*
X801839Y626895D01*
X801885Y626911D01*
X801894Y626913D01*
X802806Y626850D01*
X802841Y626852D01*
X802899Y626847D01*
X803826Y626840D01*
X803847Y626834D01*
X803969Y626790D01*
X804024Y626782D01*
X804056Y626773D01*
X804105Y626770D01*
X804114Y626768D01*
X804933Y626361D01*
X804966Y626350D01*
X805018Y626322D01*
X805871Y625961D01*
X805888Y625948D01*
X805984Y625861D01*
X806032Y625832D01*
X806058Y625811D01*
X806102Y625790D01*
X806110Y625785D01*
X806711Y625095D01*
X806736Y625072D01*
X806774Y625027D01*
X807424Y624367D01*
X807435Y624348D01*
X807490Y624231D01*
X807523Y624186D01*
X807539Y624157D01*
X807572Y624120D01*
X807635Y624034D01*
X814863Y615740D01*
X814903Y615703D01*
X814937Y615661D01*
X815031Y615586D01*
X815120Y615505D01*
X815168Y615479D01*
X815210Y615445D01*
X815417Y615339D01*
X815424Y615335D01*
X815426Y615335D01*
X815428Y615333D01*
X816370Y614943D01*
X818143Y613170D01*
X819103Y610854D01*
X819103Y608346D01*
X818143Y606030D01*
X816370Y604257D01*
X814054Y603297D01*
X811546Y603297D01*
X809230Y604257D01*
X807457Y606030D01*
X806609Y608078D01*
X806548Y608187D01*
X806495Y608299D01*
X806457Y608350D01*
X806439Y608382D01*
X806407Y608418D01*
X806350Y608496D01*
X800531Y615173D01*
X800404Y615289D01*
X800276Y615406D01*
X800275Y615407D01*
X800274Y615408D01*
X800122Y615493D01*
X799972Y615577D01*
X799971Y615577D01*
X799970Y615578D01*
X799804Y615626D01*
X799638Y615674D01*
X799636Y615674D01*
X799635Y615675D01*
X799628Y615675D01*
X799394Y615696D01*
X793129Y615743D01*
X793047Y615734D01*
X792965Y615735D01*
X792875Y615715D01*
X792783Y615705D01*
X792705Y615678D01*
X792625Y615661D01*
X792541Y615621D01*
X792454Y615590D01*
X792384Y615546D01*
X792310Y615511D01*
X792238Y615453D01*
X792159Y615404D01*
X792102Y615345D01*
X792038Y615294D01*
X791980Y615221D01*
X791915Y615155D01*
X791873Y615085D01*
X791822Y615020D01*
X791760Y614899D01*
X791734Y614857D01*
X791727Y614835D01*
X791710Y614802D01*
X791621Y614587D01*
X788263Y611229D01*
X785434Y610057D01*
X785347Y610009D01*
X785255Y609969D01*
X785195Y609924D01*
X785130Y609888D01*
X785055Y609821D01*
X784975Y609761D01*
X784927Y609704D01*
X784872Y609654D01*
X784815Y609571D01*
X784750Y609495D01*
X784716Y609428D01*
X784673Y609367D01*
X784637Y609274D01*
X784591Y609184D01*
X784573Y609112D01*
X784546Y609043D01*
X784531Y608944D01*
X784507Y608846D01*
X784506Y608772D01*
X784495Y608698D01*
X784503Y608598D01*
X784502Y608498D01*
X784518Y608425D01*
X784524Y608351D01*
X784555Y608255D01*
X784576Y608157D01*
X784608Y608090D01*
X784631Y608019D01*
X784683Y607933D01*
X784726Y607842D01*
X784772Y607784D01*
X784810Y607721D01*
X784881Y607648D01*
X784943Y607570D01*
X785001Y607524D01*
X785053Y607471D01*
X785138Y607416D01*
X785217Y607354D01*
X785306Y607308D01*
X785347Y607282D01*
X785380Y607270D01*
X785434Y607243D01*
X788263Y606071D01*
X791621Y602713D01*
X793439Y598325D01*
X793439Y593575D01*
X791621Y589187D01*
X788263Y585829D01*
X787274Y585419D01*
X787230Y585395D01*
X787183Y585378D01*
X787078Y585310D01*
X786969Y585250D01*
X786932Y585216D01*
X786890Y585189D01*
X786803Y585099D01*
X786711Y585016D01*
X786683Y584975D01*
X786648Y584938D01*
X786584Y584831D01*
X786513Y584729D01*
X786495Y584682D01*
X786469Y584639D01*
X786431Y584521D01*
X786385Y584405D01*
X786378Y584355D01*
X786363Y584307D01*
X786353Y584183D01*
X786334Y584060D01*
X786339Y584010D01*
X786335Y583960D01*
X786353Y583837D01*
X786363Y583713D01*
X786379Y583665D01*
X786386Y583615D01*
X786432Y583499D01*
X786470Y583381D01*
X786496Y583338D01*
X786515Y583291D01*
X786586Y583189D01*
X786650Y583083D01*
X786685Y583046D01*
X786714Y583005D01*
X786806Y582922D01*
X786893Y582833D01*
X786935Y582805D01*
X786973Y582772D01*
X787082Y582712D01*
X787186Y582644D01*
X787234Y582627D01*
X787278Y582603D01*
X787398Y582569D01*
X787515Y582528D01*
X787565Y582522D01*
X787613Y582508D01*
X787857Y582489D01*
X791950Y582489D01*
X793439Y581000D01*
X793439Y560100D01*
X791950Y558611D01*
X771050Y558611D01*
G37*
%LPD*%
%LPC*%
G36*
X571246Y408697D02*
X571246Y408697D01*
X568930Y409657D01*
X567157Y411430D01*
X566197Y413746D01*
X566197Y416254D01*
X567157Y418570D01*
X568497Y419911D01*
X568576Y420010D01*
X568660Y420103D01*
X568684Y420146D01*
X568714Y420184D01*
X568768Y420298D01*
X568829Y420408D01*
X568842Y420455D01*
X568863Y420499D01*
X568889Y420622D01*
X568924Y420744D01*
X568929Y420805D01*
X568936Y420839D01*
X568935Y420887D01*
X568943Y420988D01*
X568943Y483973D01*
X591027Y506057D01*
X594012Y506057D01*
X594138Y506071D01*
X594264Y506078D01*
X594311Y506091D01*
X594359Y506097D01*
X594478Y506139D01*
X594599Y506174D01*
X594641Y506198D01*
X594687Y506214D01*
X594793Y506283D01*
X594903Y506344D01*
X594949Y506384D01*
X594979Y506403D01*
X595013Y506438D01*
X595089Y506503D01*
X596430Y507843D01*
X598746Y508803D01*
X601254Y508803D01*
X603570Y507843D01*
X605343Y506070D01*
X606303Y503754D01*
X606303Y501246D01*
X605343Y498930D01*
X603570Y497157D01*
X601761Y496407D01*
X601673Y496359D01*
X601581Y496319D01*
X601521Y496274D01*
X601456Y496238D01*
X601382Y496171D01*
X601301Y496111D01*
X601253Y496054D01*
X601198Y496004D01*
X601141Y495921D01*
X601076Y495845D01*
X601042Y495778D01*
X601000Y495717D01*
X600963Y495624D01*
X600917Y495534D01*
X600899Y495462D01*
X600872Y495393D01*
X600857Y495294D01*
X600833Y495196D01*
X600832Y495122D01*
X600821Y495048D01*
X600830Y494948D01*
X600828Y494848D01*
X600844Y494775D01*
X600850Y494701D01*
X600881Y494605D01*
X600902Y494507D01*
X600934Y494440D01*
X600957Y494369D01*
X601009Y494283D01*
X601052Y494192D01*
X601098Y494134D01*
X601137Y494071D01*
X601207Y493998D01*
X601269Y493920D01*
X601328Y493874D01*
X601380Y493821D01*
X601464Y493766D01*
X601543Y493704D01*
X601633Y493658D01*
X601673Y493632D01*
X601707Y493620D01*
X601761Y493593D01*
X603570Y492843D01*
X605343Y491070D01*
X606303Y488754D01*
X606303Y486246D01*
X605343Y483930D01*
X603570Y482157D01*
X601761Y481407D01*
X601673Y481358D01*
X601581Y481318D01*
X601521Y481274D01*
X601456Y481238D01*
X601382Y481171D01*
X601301Y481111D01*
X601253Y481054D01*
X601198Y481004D01*
X601141Y480921D01*
X601076Y480845D01*
X601042Y480778D01*
X601000Y480717D01*
X600963Y480624D01*
X600917Y480534D01*
X600899Y480462D01*
X600872Y480393D01*
X600857Y480294D01*
X600833Y480196D01*
X600832Y480122D01*
X600821Y480048D01*
X600830Y479948D01*
X600828Y479848D01*
X600844Y479775D01*
X600850Y479701D01*
X600881Y479605D01*
X600902Y479507D01*
X600934Y479440D01*
X600957Y479369D01*
X601009Y479283D01*
X601052Y479192D01*
X601099Y479134D01*
X601137Y479071D01*
X601207Y478999D01*
X601269Y478920D01*
X601328Y478874D01*
X601380Y478821D01*
X601464Y478766D01*
X601543Y478704D01*
X601632Y478658D01*
X601673Y478632D01*
X601707Y478620D01*
X601761Y478593D01*
X603570Y477843D01*
X605343Y476070D01*
X606303Y473754D01*
X606303Y471246D01*
X605343Y468930D01*
X603570Y467157D01*
X601997Y466505D01*
X601930Y466468D01*
X601859Y466440D01*
X601778Y466384D01*
X601692Y466336D01*
X601636Y466284D01*
X601573Y466241D01*
X601507Y466168D01*
X601434Y466102D01*
X601391Y466039D01*
X601340Y465982D01*
X601292Y465896D01*
X601236Y465815D01*
X601208Y465744D01*
X601171Y465677D01*
X601144Y465582D01*
X601108Y465491D01*
X601097Y465415D01*
X601076Y465342D01*
X601064Y465193D01*
X601057Y465146D01*
X601059Y465127D01*
X601057Y465098D01*
X601057Y420988D01*
X601071Y420862D01*
X601078Y420736D01*
X601091Y420689D01*
X601097Y420641D01*
X601139Y420522D01*
X601174Y420401D01*
X601198Y420359D01*
X601214Y420313D01*
X601283Y420207D01*
X601344Y420097D01*
X601384Y420051D01*
X601403Y420021D01*
X601438Y419987D01*
X601503Y419911D01*
X602843Y418570D01*
X603803Y416254D01*
X603803Y413746D01*
X602843Y411430D01*
X601070Y409657D01*
X598754Y408697D01*
X596246Y408697D01*
X593930Y409657D01*
X592327Y411259D01*
X592307Y411276D01*
X592290Y411296D01*
X592170Y411384D01*
X592054Y411476D01*
X592030Y411487D01*
X592009Y411503D01*
X591873Y411562D01*
X591739Y411625D01*
X591713Y411631D01*
X591689Y411641D01*
X591543Y411667D01*
X591398Y411698D01*
X591372Y411698D01*
X591346Y411703D01*
X591198Y411695D01*
X591050Y411692D01*
X591024Y411686D01*
X590998Y411685D01*
X590856Y411644D01*
X590712Y411607D01*
X590689Y411595D01*
X590663Y411588D01*
X590534Y411516D01*
X590402Y411448D01*
X590382Y411431D01*
X590359Y411418D01*
X590173Y411259D01*
X588570Y409657D01*
X586254Y408697D01*
X583746Y408697D01*
X581430Y409657D01*
X579827Y411259D01*
X579807Y411276D01*
X579790Y411296D01*
X579670Y411384D01*
X579554Y411476D01*
X579530Y411487D01*
X579509Y411503D01*
X579373Y411562D01*
X579239Y411625D01*
X579213Y411631D01*
X579189Y411641D01*
X579043Y411667D01*
X578898Y411698D01*
X578872Y411698D01*
X578846Y411703D01*
X578698Y411695D01*
X578550Y411692D01*
X578524Y411686D01*
X578498Y411685D01*
X578356Y411644D01*
X578212Y411607D01*
X578189Y411595D01*
X578163Y411588D01*
X578034Y411516D01*
X577902Y411448D01*
X577882Y411431D01*
X577859Y411418D01*
X577673Y411259D01*
X576070Y409657D01*
X573754Y408697D01*
X571246Y408697D01*
G37*
%LPD*%
%LPC*%
G36*
X671246Y508697D02*
X671246Y508697D01*
X668930Y509657D01*
X667157Y511430D01*
X666197Y513746D01*
X666197Y516254D01*
X666795Y517697D01*
X666796Y517699D01*
X666797Y517701D01*
X666844Y517868D01*
X666891Y518033D01*
X666891Y518035D01*
X666892Y518037D01*
X666911Y518280D01*
X666911Y571720D01*
X666911Y571722D01*
X666911Y571724D01*
X666891Y571894D01*
X666871Y572066D01*
X666871Y572068D01*
X666870Y572070D01*
X666795Y572303D01*
X666197Y573746D01*
X666197Y576254D01*
X666795Y577697D01*
X666796Y577699D01*
X666797Y577701D01*
X666844Y577868D01*
X666891Y578033D01*
X666891Y578035D01*
X666892Y578037D01*
X666911Y578280D01*
X666911Y616720D01*
X666911Y616722D01*
X666911Y616724D01*
X666892Y616889D01*
X666871Y617066D01*
X666871Y617068D01*
X666870Y617070D01*
X666795Y617303D01*
X666197Y618746D01*
X666197Y621254D01*
X666795Y622697D01*
X666796Y622699D01*
X666797Y622701D01*
X666844Y622868D01*
X666891Y623033D01*
X666891Y623035D01*
X666892Y623037D01*
X666911Y623280D01*
X666911Y661720D01*
X666911Y661722D01*
X666911Y661724D01*
X666891Y661894D01*
X666871Y662066D01*
X666871Y662068D01*
X666870Y662070D01*
X666795Y662303D01*
X666197Y663746D01*
X666197Y666254D01*
X667157Y668570D01*
X668930Y670343D01*
X671246Y671303D01*
X673754Y671303D01*
X676070Y670343D01*
X677843Y668570D01*
X678803Y666254D01*
X678803Y663746D01*
X678205Y662303D01*
X678204Y662301D01*
X678203Y662299D01*
X678155Y662130D01*
X678109Y661967D01*
X678109Y661965D01*
X678108Y661963D01*
X678089Y661720D01*
X678089Y623280D01*
X678089Y623278D01*
X678089Y623276D01*
X678109Y623106D01*
X678129Y622934D01*
X678129Y622932D01*
X678130Y622930D01*
X678205Y622697D01*
X678803Y621254D01*
X678803Y618746D01*
X678205Y617303D01*
X678204Y617301D01*
X678203Y617299D01*
X678156Y617132D01*
X678109Y616967D01*
X678109Y616965D01*
X678108Y616963D01*
X678089Y616720D01*
X678089Y578280D01*
X678089Y578278D01*
X678089Y578276D01*
X678109Y578102D01*
X678129Y577934D01*
X678129Y577932D01*
X678130Y577930D01*
X678205Y577697D01*
X678803Y576254D01*
X678803Y573746D01*
X678205Y572303D01*
X678204Y572301D01*
X678203Y572299D01*
X678156Y572132D01*
X678109Y571967D01*
X678109Y571965D01*
X678108Y571963D01*
X678089Y571720D01*
X678089Y518280D01*
X678089Y518278D01*
X678089Y518276D01*
X678109Y518106D01*
X678129Y517934D01*
X678129Y517932D01*
X678130Y517930D01*
X678205Y517697D01*
X678803Y516254D01*
X678803Y513746D01*
X677843Y511430D01*
X676070Y509657D01*
X673754Y508697D01*
X671246Y508697D01*
G37*
%LPD*%
%LPC*%
G36*
X413746Y371197D02*
X413746Y371197D01*
X411430Y372157D01*
X409657Y373930D01*
X408697Y376246D01*
X408697Y378754D01*
X409657Y381070D01*
X410489Y381903D01*
X410568Y382002D01*
X410652Y382095D01*
X410676Y382138D01*
X410706Y382176D01*
X410760Y382290D01*
X410821Y382400D01*
X410834Y382447D01*
X410855Y382491D01*
X410881Y382614D01*
X410916Y382736D01*
X410921Y382797D01*
X410928Y382831D01*
X410927Y382879D01*
X410935Y382980D01*
X410935Y474280D01*
X410921Y474406D01*
X410914Y474532D01*
X410901Y474579D01*
X410895Y474627D01*
X410853Y474746D01*
X410818Y474867D01*
X410794Y474909D01*
X410778Y474955D01*
X410709Y475061D01*
X410648Y475171D01*
X410608Y475217D01*
X410589Y475247D01*
X410554Y475281D01*
X410489Y475357D01*
X408957Y476890D01*
X407997Y479206D01*
X407997Y481714D01*
X408957Y484030D01*
X410730Y485803D01*
X413046Y486763D01*
X414223Y486763D01*
X414349Y486777D01*
X414475Y486784D01*
X414522Y486797D01*
X414570Y486803D01*
X414689Y486845D01*
X414810Y486880D01*
X414852Y486904D01*
X414898Y486920D01*
X415004Y486989D01*
X415114Y487050D01*
X415160Y487090D01*
X415190Y487109D01*
X415224Y487144D01*
X415300Y487209D01*
X427289Y499198D01*
X427368Y499297D01*
X427452Y499390D01*
X427476Y499433D01*
X427506Y499471D01*
X427560Y499585D01*
X427621Y499695D01*
X427634Y499742D01*
X427655Y499786D01*
X427681Y499909D01*
X427716Y500031D01*
X427721Y500092D01*
X427728Y500126D01*
X427727Y500174D01*
X427735Y500275D01*
X427735Y516100D01*
X427721Y516226D01*
X427714Y516352D01*
X427701Y516399D01*
X427695Y516447D01*
X427653Y516566D01*
X427618Y516687D01*
X427594Y516729D01*
X427578Y516775D01*
X427509Y516881D01*
X427448Y516991D01*
X427408Y517037D01*
X427389Y517067D01*
X427354Y517101D01*
X427319Y517142D01*
X427317Y517145D01*
X427315Y517147D01*
X427289Y517177D01*
X426457Y518010D01*
X425497Y520326D01*
X425497Y522834D01*
X426457Y525150D01*
X428230Y526923D01*
X430546Y527883D01*
X433054Y527883D01*
X435370Y526923D01*
X437143Y525150D01*
X438103Y522834D01*
X438103Y520326D01*
X437143Y518010D01*
X436311Y517177D01*
X436243Y517092D01*
X436217Y517064D01*
X436210Y517054D01*
X436148Y516985D01*
X436124Y516942D01*
X436094Y516904D01*
X436040Y516790D01*
X435979Y516680D01*
X435966Y516633D01*
X435945Y516589D01*
X435919Y516466D01*
X435884Y516344D01*
X435879Y516283D01*
X435872Y516249D01*
X435873Y516201D01*
X435865Y516100D01*
X435865Y496276D01*
X421049Y481460D01*
X420970Y481361D01*
X420886Y481268D01*
X420862Y481225D01*
X420832Y481187D01*
X420778Y481073D01*
X420717Y480963D01*
X420704Y480916D01*
X420683Y480872D01*
X420657Y480749D01*
X420622Y480627D01*
X420617Y480566D01*
X420610Y480532D01*
X420611Y480484D01*
X420603Y480383D01*
X420603Y479206D01*
X419643Y476890D01*
X419511Y476757D01*
X419432Y476658D01*
X419348Y476565D01*
X419324Y476522D01*
X419294Y476484D01*
X419240Y476370D01*
X419179Y476260D01*
X419166Y476213D01*
X419145Y476169D01*
X419119Y476046D01*
X419084Y475924D01*
X419079Y475863D01*
X419072Y475829D01*
X419073Y475781D01*
X419065Y475680D01*
X419065Y382980D01*
X419079Y382854D01*
X419086Y382728D01*
X419099Y382681D01*
X419105Y382633D01*
X419147Y382514D01*
X419182Y382393D01*
X419206Y382351D01*
X419222Y382305D01*
X419291Y382199D01*
X419352Y382089D01*
X419392Y382043D01*
X419411Y382013D01*
X419446Y381979D01*
X419511Y381903D01*
X420343Y381070D01*
X421303Y378754D01*
X421303Y376246D01*
X420343Y373930D01*
X418570Y372157D01*
X416254Y371197D01*
X413746Y371197D01*
G37*
%LPD*%
%LPC*%
G36*
X832647Y47647D02*
X832647Y47647D01*
X832647Y61286D01*
X832912Y61251D01*
X835057Y60676D01*
X837109Y59826D01*
X839032Y58716D01*
X840223Y57802D01*
X840288Y57763D01*
X840346Y57717D01*
X840437Y57674D01*
X840522Y57623D01*
X840594Y57600D01*
X840662Y57568D01*
X840759Y57547D01*
X840854Y57516D01*
X840929Y57510D01*
X841002Y57494D01*
X841102Y57496D01*
X841201Y57488D01*
X841276Y57499D01*
X841351Y57500D01*
X841447Y57525D01*
X841546Y57539D01*
X841616Y57567D01*
X841689Y57585D01*
X841777Y57631D01*
X841870Y57668D01*
X841932Y57710D01*
X841998Y57745D01*
X842074Y57809D01*
X842156Y57866D01*
X842207Y57922D01*
X842264Y57971D01*
X842323Y58051D01*
X842390Y58125D01*
X842426Y58191D01*
X842471Y58251D01*
X842511Y58343D01*
X842559Y58430D01*
X842579Y58502D01*
X842609Y58571D01*
X842627Y58669D01*
X842654Y58765D01*
X842657Y58840D01*
X842671Y58914D01*
X842666Y59014D01*
X842670Y59113D01*
X842657Y59187D01*
X842653Y59262D01*
X842625Y59358D01*
X842607Y59456D01*
X842577Y59525D01*
X842556Y59597D01*
X842508Y59684D01*
X842468Y59775D01*
X842423Y59836D01*
X842386Y59901D01*
X842287Y60017D01*
X842259Y60055D01*
X842242Y60070D01*
X842228Y60087D01*
X841401Y60914D01*
X838959Y66809D01*
X838959Y73191D01*
X841401Y79086D01*
X842228Y79913D01*
X842274Y79971D01*
X842328Y80024D01*
X842382Y80107D01*
X842444Y80186D01*
X842476Y80254D01*
X842517Y80317D01*
X842551Y80411D01*
X842593Y80501D01*
X842609Y80574D01*
X842634Y80645D01*
X842646Y80744D01*
X842667Y80841D01*
X842665Y80916D01*
X842674Y80991D01*
X842662Y81090D01*
X842661Y81190D01*
X842642Y81263D01*
X842634Y81337D01*
X842600Y81431D01*
X842576Y81528D01*
X842541Y81595D01*
X842516Y81665D01*
X842462Y81749D01*
X842416Y81838D01*
X842367Y81895D01*
X842326Y81958D01*
X842255Y82027D01*
X842190Y82103D01*
X842130Y82148D01*
X842076Y82200D01*
X841990Y82251D01*
X841910Y82310D01*
X841841Y82340D01*
X841776Y82378D01*
X841681Y82409D01*
X841590Y82448D01*
X841516Y82462D01*
X841444Y82484D01*
X841345Y82492D01*
X841247Y82510D01*
X841172Y82506D01*
X841097Y82512D01*
X840998Y82497D01*
X840899Y82492D01*
X840826Y82471D01*
X840752Y82460D01*
X840660Y82423D01*
X840564Y82395D01*
X840498Y82359D01*
X840429Y82331D01*
X840300Y82248D01*
X840260Y82225D01*
X840242Y82211D01*
X840223Y82198D01*
X839032Y81284D01*
X837109Y80174D01*
X835057Y79324D01*
X832912Y78749D01*
X832647Y78714D01*
X832647Y92353D01*
X846286Y92353D01*
X846251Y92088D01*
X845676Y89943D01*
X844826Y87891D01*
X843716Y85968D01*
X842802Y84777D01*
X842763Y84712D01*
X842717Y84654D01*
X842674Y84563D01*
X842623Y84478D01*
X842600Y84406D01*
X842568Y84338D01*
X842547Y84241D01*
X842516Y84146D01*
X842510Y84071D01*
X842494Y83998D01*
X842496Y83898D01*
X842488Y83799D01*
X842499Y83724D01*
X842500Y83649D01*
X842525Y83553D01*
X842539Y83454D01*
X842567Y83384D01*
X842585Y83311D01*
X842631Y83223D01*
X842668Y83130D01*
X842711Y83068D01*
X842745Y83002D01*
X842810Y82926D01*
X842866Y82844D01*
X842922Y82793D01*
X842971Y82736D01*
X843051Y82677D01*
X843125Y82610D01*
X843191Y82574D01*
X843251Y82529D01*
X843342Y82490D01*
X843430Y82441D01*
X843502Y82421D01*
X843571Y82391D01*
X843669Y82373D01*
X843765Y82346D01*
X843840Y82343D01*
X843914Y82329D01*
X844014Y82334D01*
X844113Y82330D01*
X844187Y82343D01*
X844262Y82347D01*
X844358Y82375D01*
X844456Y82393D01*
X844525Y82423D01*
X844597Y82444D01*
X844684Y82492D01*
X844775Y82532D01*
X844836Y82577D01*
X844901Y82614D01*
X845018Y82713D01*
X845055Y82741D01*
X845070Y82757D01*
X845087Y82772D01*
X845914Y83599D01*
X851809Y86041D01*
X858191Y86041D01*
X864086Y83599D01*
X864913Y82772D01*
X864971Y82726D01*
X865024Y82672D01*
X865107Y82618D01*
X865186Y82556D01*
X865254Y82524D01*
X865317Y82483D01*
X865411Y82449D01*
X865501Y82407D01*
X865574Y82391D01*
X865645Y82366D01*
X865744Y82354D01*
X865841Y82333D01*
X865916Y82335D01*
X865991Y82326D01*
X866090Y82338D01*
X866190Y82339D01*
X866263Y82358D01*
X866337Y82366D01*
X866431Y82400D01*
X866528Y82424D01*
X866595Y82459D01*
X866665Y82484D01*
X866749Y82538D01*
X866838Y82584D01*
X866895Y82633D01*
X866958Y82673D01*
X867027Y82745D01*
X867103Y82810D01*
X867148Y82870D01*
X867200Y82924D01*
X867251Y83010D01*
X867310Y83090D01*
X867340Y83159D01*
X867378Y83224D01*
X867409Y83319D01*
X867448Y83410D01*
X867462Y83484D01*
X867484Y83556D01*
X867492Y83655D01*
X867510Y83753D01*
X867506Y83828D01*
X867512Y83903D01*
X867497Y84002D01*
X867492Y84101D01*
X867471Y84173D01*
X867460Y84248D01*
X867423Y84340D01*
X867395Y84436D01*
X867359Y84502D01*
X867331Y84571D01*
X867248Y84700D01*
X867225Y84740D01*
X867211Y84758D01*
X867198Y84777D01*
X866284Y85968D01*
X865174Y87891D01*
X864324Y89943D01*
X863749Y92088D01*
X863714Y92353D01*
X877353Y92353D01*
X877353Y78714D01*
X877088Y78749D01*
X874943Y79324D01*
X872891Y80174D01*
X870968Y81284D01*
X869777Y82198D01*
X869712Y82237D01*
X869654Y82283D01*
X869563Y82326D01*
X869478Y82377D01*
X869406Y82400D01*
X869338Y82432D01*
X869241Y82453D01*
X869146Y82484D01*
X869071Y82490D01*
X868998Y82506D01*
X868898Y82504D01*
X868799Y82512D01*
X868724Y82501D01*
X868649Y82500D01*
X868553Y82475D01*
X868454Y82461D01*
X868384Y82433D01*
X868311Y82415D01*
X868223Y82369D01*
X868130Y82332D01*
X868068Y82290D01*
X868001Y82255D01*
X867926Y82190D01*
X867844Y82134D01*
X867793Y82078D01*
X867736Y82029D01*
X867677Y81949D01*
X867610Y81875D01*
X867574Y81809D01*
X867529Y81749D01*
X867489Y81657D01*
X867441Y81570D01*
X867421Y81498D01*
X867391Y81429D01*
X867373Y81331D01*
X867346Y81235D01*
X867343Y81160D01*
X867329Y81086D01*
X867334Y80986D01*
X867330Y80887D01*
X867343Y80813D01*
X867347Y80738D01*
X867375Y80642D01*
X867393Y80544D01*
X867423Y80475D01*
X867444Y80403D01*
X867492Y80316D01*
X867532Y80225D01*
X867577Y80164D01*
X867614Y80099D01*
X867713Y79982D01*
X867741Y79945D01*
X867757Y79930D01*
X867772Y79913D01*
X868599Y79086D01*
X871041Y73191D01*
X871041Y66809D01*
X868599Y60914D01*
X867772Y60087D01*
X867726Y60029D01*
X867672Y59976D01*
X867618Y59893D01*
X867556Y59814D01*
X867524Y59746D01*
X867483Y59683D01*
X867449Y59589D01*
X867407Y59499D01*
X867391Y59426D01*
X867366Y59355D01*
X867354Y59256D01*
X867333Y59159D01*
X867335Y59084D01*
X867326Y59009D01*
X867338Y58910D01*
X867339Y58810D01*
X867358Y58737D01*
X867366Y58663D01*
X867400Y58569D01*
X867424Y58472D01*
X867459Y58405D01*
X867484Y58335D01*
X867538Y58251D01*
X867584Y58162D01*
X867633Y58105D01*
X867673Y58042D01*
X867745Y57973D01*
X867810Y57897D01*
X867870Y57852D01*
X867924Y57800D01*
X868010Y57749D01*
X868090Y57690D01*
X868159Y57660D01*
X868224Y57622D01*
X868319Y57591D01*
X868410Y57552D01*
X868484Y57538D01*
X868556Y57516D01*
X868655Y57508D01*
X868753Y57490D01*
X868828Y57494D01*
X868903Y57488D01*
X869002Y57503D01*
X869101Y57508D01*
X869173Y57529D01*
X869248Y57540D01*
X869340Y57577D01*
X869436Y57605D01*
X869502Y57641D01*
X869571Y57669D01*
X869700Y57752D01*
X869740Y57775D01*
X869758Y57789D01*
X869777Y57802D01*
X870968Y58716D01*
X872891Y59826D01*
X874943Y60676D01*
X877088Y61251D01*
X877353Y61286D01*
X877353Y47647D01*
X863714Y47647D01*
X863749Y47912D01*
X864324Y50057D01*
X865174Y52109D01*
X866284Y54032D01*
X867173Y55190D01*
X867173Y55191D01*
X867198Y55223D01*
X867237Y55288D01*
X867283Y55346D01*
X867326Y55437D01*
X867377Y55522D01*
X867400Y55594D01*
X867432Y55662D01*
X867453Y55759D01*
X867484Y55854D01*
X867490Y55929D01*
X867506Y56002D01*
X867504Y56102D01*
X867512Y56201D01*
X867501Y56276D01*
X867500Y56351D01*
X867475Y56447D01*
X867461Y56546D01*
X867433Y56616D01*
X867415Y56689D01*
X867369Y56777D01*
X867332Y56870D01*
X867290Y56932D01*
X867255Y56999D01*
X867190Y57074D01*
X867134Y57156D01*
X867078Y57207D01*
X867029Y57264D01*
X866949Y57323D01*
X866875Y57390D01*
X866809Y57426D01*
X866749Y57471D01*
X866657Y57511D01*
X866570Y57559D01*
X866498Y57579D01*
X866429Y57609D01*
X866331Y57627D01*
X866235Y57654D01*
X866160Y57657D01*
X866086Y57671D01*
X865986Y57666D01*
X865887Y57670D01*
X865813Y57657D01*
X865738Y57653D01*
X865642Y57625D01*
X865544Y57607D01*
X865475Y57577D01*
X865403Y57556D01*
X865316Y57508D01*
X865225Y57468D01*
X865164Y57423D01*
X865099Y57386D01*
X864994Y57297D01*
X864989Y57294D01*
X864983Y57287D01*
X864982Y57287D01*
X864945Y57259D01*
X864930Y57243D01*
X864913Y57228D01*
X864086Y56401D01*
X858191Y53959D01*
X851809Y53959D01*
X845914Y56401D01*
X845087Y57228D01*
X845029Y57274D01*
X844976Y57328D01*
X844892Y57382D01*
X844814Y57444D01*
X844747Y57476D01*
X844683Y57517D01*
X844589Y57551D01*
X844499Y57593D01*
X844426Y57609D01*
X844355Y57634D01*
X844256Y57646D01*
X844159Y57667D01*
X844084Y57665D01*
X844009Y57674D01*
X843910Y57662D01*
X843810Y57661D01*
X843737Y57642D01*
X843663Y57634D01*
X843569Y57600D01*
X843472Y57576D01*
X843405Y57541D01*
X843335Y57516D01*
X843251Y57462D01*
X843162Y57416D01*
X843105Y57367D01*
X843042Y57326D01*
X842973Y57255D01*
X842897Y57190D01*
X842852Y57130D01*
X842800Y57076D01*
X842749Y56990D01*
X842690Y56910D01*
X842660Y56841D01*
X842622Y56776D01*
X842591Y56681D01*
X842552Y56590D01*
X842538Y56516D01*
X842516Y56444D01*
X842508Y56345D01*
X842490Y56247D01*
X842494Y56172D01*
X842488Y56097D01*
X842503Y55998D01*
X842508Y55899D01*
X842529Y55827D01*
X842540Y55752D01*
X842577Y55660D01*
X842605Y55564D01*
X842641Y55498D01*
X842669Y55429D01*
X842752Y55300D01*
X842775Y55260D01*
X842789Y55242D01*
X842802Y55223D01*
X843716Y54032D01*
X844826Y52109D01*
X845676Y50057D01*
X846251Y47912D01*
X846286Y47647D01*
X832647Y47647D01*
G37*
%LPD*%
%LPC*%
G36*
X836246Y206197D02*
X836246Y206197D01*
X833930Y207157D01*
X832157Y208930D01*
X831197Y211246D01*
X831197Y213754D01*
X831858Y215350D01*
X831893Y215472D01*
X831935Y215591D01*
X831941Y215639D01*
X831954Y215685D01*
X831960Y215811D01*
X831974Y215937D01*
X831969Y215985D01*
X831971Y216033D01*
X831948Y216157D01*
X831934Y216283D01*
X831915Y216341D01*
X831911Y216361D01*
X831911Y218612D01*
X832762Y220666D01*
X855787Y243690D01*
X855834Y243750D01*
X855889Y243803D01*
X855942Y243886D01*
X856003Y243963D01*
X856036Y244032D01*
X856077Y244097D01*
X856110Y244189D01*
X856152Y244278D01*
X856168Y244353D01*
X856194Y244425D01*
X856205Y244523D01*
X856226Y244619D01*
X856224Y244695D01*
X856233Y244771D01*
X856221Y244869D01*
X856220Y244968D01*
X856201Y245042D01*
X856192Y245118D01*
X856146Y245259D01*
X856135Y245306D01*
X856126Y245323D01*
X856117Y245350D01*
X855394Y247095D01*
X855394Y252905D01*
X857618Y258274D01*
X861726Y262382D01*
X867095Y264606D01*
X872905Y264606D01*
X878274Y262382D01*
X882382Y258274D01*
X884606Y252905D01*
X884606Y247095D01*
X882382Y241726D01*
X878274Y237618D01*
X872905Y235394D01*
X867095Y235394D01*
X866246Y235746D01*
X865350Y236117D01*
X865277Y236138D01*
X865207Y236168D01*
X865110Y236185D01*
X865015Y236213D01*
X864939Y236216D01*
X864864Y236230D01*
X864765Y236225D01*
X864667Y236229D01*
X864592Y236216D01*
X864516Y236212D01*
X864421Y236185D01*
X864324Y236167D01*
X864254Y236136D01*
X864181Y236115D01*
X864095Y236067D01*
X864005Y236028D01*
X863943Y235982D01*
X863877Y235945D01*
X863763Y235848D01*
X863725Y235820D01*
X863713Y235806D01*
X863690Y235787D01*
X843894Y215990D01*
X843847Y215931D01*
X843792Y215877D01*
X843739Y215794D01*
X843677Y215717D01*
X843645Y215648D01*
X843604Y215584D01*
X843571Y215491D01*
X843529Y215402D01*
X843512Y215328D01*
X843487Y215256D01*
X843476Y215158D01*
X843455Y215062D01*
X843456Y214985D01*
X843448Y214909D01*
X843459Y214811D01*
X843461Y214713D01*
X843480Y214639D01*
X843489Y214563D01*
X843535Y214421D01*
X843546Y214375D01*
X843555Y214358D01*
X843564Y214330D01*
X843803Y213754D01*
X843803Y211246D01*
X842843Y208930D01*
X841070Y207157D01*
X838754Y206197D01*
X836246Y206197D01*
G37*
%LPD*%
%LPC*%
G36*
X428746Y391197D02*
X428746Y391197D01*
X426430Y392157D01*
X424657Y393930D01*
X423697Y396246D01*
X423697Y398754D01*
X424657Y401070D01*
X426430Y402843D01*
X428746Y403803D01*
X429666Y403803D01*
X429692Y403806D01*
X429718Y403804D01*
X429865Y403826D01*
X430012Y403843D01*
X430037Y403851D01*
X430063Y403855D01*
X430201Y403910D01*
X430340Y403960D01*
X430362Y403974D01*
X430387Y403984D01*
X430508Y404068D01*
X430633Y404149D01*
X430651Y404168D01*
X430673Y404183D01*
X430772Y404293D01*
X430875Y404400D01*
X430889Y404422D01*
X430906Y404442D01*
X430978Y404572D01*
X431054Y404699D01*
X431062Y404724D01*
X431075Y404747D01*
X431115Y404890D01*
X431160Y405031D01*
X431162Y405057D01*
X431170Y405082D01*
X431189Y405326D01*
X431189Y481578D01*
X445743Y496132D01*
X445822Y496231D01*
X445906Y496325D01*
X445930Y496368D01*
X445960Y496405D01*
X446014Y496520D01*
X446075Y496630D01*
X446088Y496677D01*
X446109Y496720D01*
X446135Y496844D01*
X446170Y496966D01*
X446175Y497026D01*
X446182Y497061D01*
X446181Y497109D01*
X446189Y497209D01*
X446189Y501766D01*
X446175Y501892D01*
X446168Y502018D01*
X446155Y502065D01*
X446149Y502113D01*
X446107Y502232D01*
X446072Y502353D01*
X446048Y502395D01*
X446032Y502441D01*
X445963Y502547D01*
X445902Y502657D01*
X445862Y502703D01*
X445843Y502733D01*
X445808Y502767D01*
X445743Y502843D01*
X444657Y503930D01*
X443697Y506246D01*
X443697Y508754D01*
X444657Y511070D01*
X446430Y512843D01*
X448746Y513803D01*
X451254Y513803D01*
X453570Y512843D01*
X455343Y511070D01*
X456303Y508754D01*
X456303Y506246D01*
X455343Y503930D01*
X454257Y502843D01*
X454178Y502744D01*
X454094Y502651D01*
X454070Y502608D01*
X454040Y502570D01*
X453986Y502456D01*
X453925Y502346D01*
X453912Y502299D01*
X453891Y502255D01*
X453865Y502132D01*
X453830Y502010D01*
X453825Y501949D01*
X453818Y501915D01*
X453819Y501867D01*
X453811Y501766D01*
X453811Y493422D01*
X439257Y478868D01*
X439178Y478769D01*
X439094Y478675D01*
X439070Y478632D01*
X439040Y478595D01*
X438986Y478480D01*
X438925Y478370D01*
X438912Y478323D01*
X438891Y478280D01*
X438865Y478156D01*
X438830Y478034D01*
X438825Y477974D01*
X438818Y477939D01*
X438819Y477891D01*
X438811Y477791D01*
X438811Y400922D01*
X436749Y398860D01*
X436670Y398761D01*
X436586Y398667D01*
X436562Y398624D01*
X436532Y398587D01*
X436478Y398472D01*
X436417Y398362D01*
X436404Y398315D01*
X436383Y398272D01*
X436357Y398148D01*
X436322Y398026D01*
X436317Y397966D01*
X436310Y397931D01*
X436311Y397883D01*
X436303Y397783D01*
X436303Y396246D01*
X435343Y393930D01*
X433570Y392157D01*
X431254Y391197D01*
X428746Y391197D01*
G37*
%LPD*%
%LPC*%
G36*
X400096Y273885D02*
X400096Y273885D01*
X395801Y275664D01*
X392514Y278951D01*
X390735Y283246D01*
X390735Y287894D01*
X392514Y292189D01*
X395801Y295476D01*
X399149Y296863D01*
X399237Y296911D01*
X399329Y296952D01*
X399389Y296996D01*
X399454Y297032D01*
X399528Y297099D01*
X399609Y297159D01*
X399657Y297216D01*
X399712Y297266D01*
X399769Y297349D01*
X399834Y297425D01*
X399868Y297492D01*
X399910Y297553D01*
X399947Y297646D01*
X399993Y297736D01*
X400011Y297808D01*
X400038Y297877D01*
X400053Y297976D01*
X400077Y298074D01*
X400078Y298148D01*
X400089Y298222D01*
X400081Y298322D01*
X400082Y298422D01*
X400066Y298495D01*
X400060Y298569D01*
X400029Y298665D01*
X400008Y298763D01*
X399976Y298830D01*
X399953Y298901D01*
X399901Y298987D01*
X399858Y299078D01*
X399812Y299136D01*
X399773Y299199D01*
X399703Y299272D01*
X399641Y299350D01*
X399582Y299396D01*
X399530Y299449D01*
X399446Y299504D01*
X399367Y299566D01*
X399278Y299612D01*
X399237Y299638D01*
X399203Y299650D01*
X399149Y299677D01*
X395801Y301064D01*
X392514Y304351D01*
X390735Y308646D01*
X390735Y313294D01*
X392514Y317589D01*
X395801Y320876D01*
X399236Y322299D01*
X399376Y322377D01*
X399517Y322452D01*
X399528Y322461D01*
X399541Y322468D01*
X399659Y322576D01*
X399780Y322681D01*
X399789Y322693D01*
X399799Y322702D01*
X399890Y322834D01*
X399984Y322964D01*
X399989Y322977D01*
X399997Y322989D01*
X400056Y323138D01*
X400118Y323285D01*
X400120Y323300D01*
X400125Y323313D01*
X400149Y323472D01*
X400175Y323629D01*
X400174Y323644D01*
X400176Y323658D01*
X400163Y323817D01*
X400153Y323977D01*
X400148Y323991D01*
X400147Y324005D01*
X400098Y324158D01*
X400052Y324311D01*
X400045Y324323D01*
X400040Y324337D01*
X399957Y324475D01*
X399878Y324613D01*
X399868Y324623D01*
X399860Y324636D01*
X399749Y324751D01*
X399640Y324867D01*
X399628Y324875D01*
X399618Y324886D01*
X399482Y324972D01*
X399350Y325061D01*
X399334Y325067D01*
X399324Y325074D01*
X399288Y325087D01*
X399124Y325155D01*
X397934Y325541D01*
X396296Y326376D01*
X394808Y327457D01*
X393507Y328758D01*
X392426Y330246D01*
X391591Y331885D01*
X391023Y333634D01*
X390992Y333831D01*
X401404Y333831D01*
X401430Y333834D01*
X401456Y333832D01*
X401603Y333854D01*
X401750Y333871D01*
X401775Y333879D01*
X401801Y333883D01*
X401938Y333938D01*
X402078Y333988D01*
X402100Y334002D01*
X402125Y334012D01*
X402246Y334097D01*
X402371Y334177D01*
X402389Y334196D01*
X402411Y334211D01*
X402425Y334227D01*
X402510Y334145D01*
X402533Y334131D01*
X402552Y334114D01*
X402682Y334042D01*
X402809Y333966D01*
X402834Y333958D01*
X402857Y333945D01*
X403000Y333905D01*
X403141Y333860D01*
X403167Y333857D01*
X403192Y333850D01*
X403436Y333831D01*
X413848Y333831D01*
X413817Y333634D01*
X413249Y331885D01*
X412414Y330246D01*
X411333Y328758D01*
X410032Y327457D01*
X408544Y326376D01*
X406906Y325541D01*
X405716Y325155D01*
X405570Y325088D01*
X405424Y325025D01*
X405412Y325016D01*
X405399Y325010D01*
X405272Y324912D01*
X405144Y324817D01*
X405135Y324806D01*
X405123Y324797D01*
X405022Y324673D01*
X404919Y324551D01*
X404912Y324538D01*
X404903Y324527D01*
X404833Y324383D01*
X404760Y324240D01*
X404757Y324226D01*
X404750Y324213D01*
X404714Y324057D01*
X404676Y323902D01*
X404676Y323888D01*
X404672Y323874D01*
X404673Y323714D01*
X404671Y323554D01*
X404674Y323540D01*
X404674Y323525D01*
X404711Y323368D01*
X404745Y323213D01*
X404751Y323200D01*
X404755Y323186D01*
X404826Y323043D01*
X404895Y322899D01*
X404904Y322887D01*
X404910Y322874D01*
X405013Y322751D01*
X405112Y322626D01*
X405124Y322617D01*
X405133Y322606D01*
X405260Y322509D01*
X405386Y322410D01*
X405401Y322402D01*
X405411Y322395D01*
X405446Y322380D01*
X405604Y322299D01*
X409039Y320876D01*
X412326Y317589D01*
X414105Y313294D01*
X414105Y308646D01*
X412326Y304351D01*
X409039Y301064D01*
X405691Y299677D01*
X405603Y299629D01*
X405511Y299589D01*
X405451Y299544D01*
X405386Y299508D01*
X405312Y299441D01*
X405231Y299381D01*
X405183Y299324D01*
X405128Y299274D01*
X405071Y299191D01*
X405006Y299115D01*
X404972Y299048D01*
X404930Y298987D01*
X404893Y298894D01*
X404847Y298804D01*
X404829Y298732D01*
X404802Y298663D01*
X404787Y298564D01*
X404763Y298466D01*
X404762Y298392D01*
X404751Y298318D01*
X404759Y298218D01*
X404758Y298118D01*
X404774Y298045D01*
X404780Y297971D01*
X404811Y297875D01*
X404832Y297777D01*
X404864Y297710D01*
X404887Y297639D01*
X404939Y297553D01*
X404982Y297462D01*
X405028Y297404D01*
X405067Y297341D01*
X405137Y297268D01*
X405199Y297190D01*
X405258Y297144D01*
X405310Y297091D01*
X405394Y297036D01*
X405473Y296974D01*
X405562Y296928D01*
X405603Y296902D01*
X405637Y296890D01*
X405691Y296863D01*
X409039Y295476D01*
X412326Y292189D01*
X414105Y287894D01*
X414105Y283246D01*
X412326Y278951D01*
X409039Y275664D01*
X404744Y273885D01*
X400096Y273885D01*
G37*
%LPD*%
%LPC*%
G36*
X841419Y654149D02*
X841419Y654149D01*
X834803Y656890D01*
X829740Y661953D01*
X826999Y668569D01*
X826999Y675731D01*
X829740Y682347D01*
X834803Y687410D01*
X841419Y690151D01*
X848581Y690151D01*
X855197Y687410D01*
X860260Y682347D01*
X863001Y675731D01*
X863001Y668569D01*
X860260Y661953D01*
X855197Y656890D01*
X848581Y654149D01*
X841419Y654149D01*
G37*
%LPD*%
%LPC*%
G36*
X841419Y539849D02*
X841419Y539849D01*
X834803Y542590D01*
X829740Y547653D01*
X826999Y554269D01*
X826999Y561431D01*
X829740Y568047D01*
X834803Y573110D01*
X841419Y575851D01*
X848581Y575851D01*
X855197Y573110D01*
X860260Y568047D01*
X863001Y561431D01*
X863001Y554269D01*
X860260Y547653D01*
X855197Y542590D01*
X848581Y539849D01*
X841419Y539849D01*
G37*
%LPD*%
%LPC*%
G36*
X81451Y332159D02*
X81451Y332159D01*
X74894Y334875D01*
X69875Y339894D01*
X67159Y346451D01*
X67159Y353549D01*
X69875Y360106D01*
X74894Y365125D01*
X81451Y367841D01*
X88549Y367841D01*
X95106Y365125D01*
X100125Y360106D01*
X102841Y353549D01*
X102841Y346451D01*
X100125Y339894D01*
X95106Y334875D01*
X88549Y332159D01*
X81451Y332159D01*
G37*
%LPD*%
%LPC*%
G36*
X151451Y472159D02*
X151451Y472159D01*
X144894Y474875D01*
X139875Y479894D01*
X137159Y486451D01*
X137159Y493549D01*
X139875Y500106D01*
X144894Y505125D01*
X151451Y507841D01*
X158549Y507841D01*
X165106Y505125D01*
X170125Y500106D01*
X172841Y493549D01*
X172841Y486451D01*
X170125Y479894D01*
X165106Y474875D01*
X158549Y472159D01*
X151451Y472159D01*
G37*
%LPD*%
%LPC*%
G36*
X81451Y472159D02*
X81451Y472159D01*
X74894Y474875D01*
X69875Y479894D01*
X67159Y486451D01*
X67159Y493549D01*
X69875Y500106D01*
X74894Y505125D01*
X81451Y507841D01*
X88549Y507841D01*
X95106Y505125D01*
X100125Y500106D01*
X102841Y493549D01*
X102841Y486451D01*
X100125Y479894D01*
X95106Y474875D01*
X88549Y472159D01*
X81451Y472159D01*
G37*
%LPD*%
%LPC*%
G36*
X81451Y202159D02*
X81451Y202159D01*
X74894Y204875D01*
X69875Y209894D01*
X67159Y216451D01*
X67159Y223549D01*
X69875Y230106D01*
X74894Y235125D01*
X81451Y237841D01*
X88549Y237841D01*
X95106Y235125D01*
X100125Y230106D01*
X102841Y223549D01*
X102841Y216451D01*
X100125Y209894D01*
X95106Y204875D01*
X88549Y202159D01*
X81451Y202159D01*
G37*
%LPD*%
%LPC*%
G36*
X151451Y202159D02*
X151451Y202159D01*
X144894Y204875D01*
X139875Y209894D01*
X137159Y216451D01*
X137159Y223549D01*
X139875Y230106D01*
X144894Y235125D01*
X151451Y237841D01*
X158549Y237841D01*
X165106Y235125D01*
X170125Y230106D01*
X172841Y223549D01*
X172841Y216451D01*
X170125Y209894D01*
X165106Y204875D01*
X158549Y202159D01*
X151451Y202159D01*
G37*
%LPD*%
%LPC*%
G36*
X151451Y602159D02*
X151451Y602159D01*
X144894Y604875D01*
X139875Y609894D01*
X137159Y616451D01*
X137159Y623549D01*
X139875Y630106D01*
X144894Y635125D01*
X151451Y637841D01*
X158549Y637841D01*
X165106Y635125D01*
X170125Y630106D01*
X172841Y623549D01*
X172841Y616451D01*
X170125Y609894D01*
X165106Y604875D01*
X158549Y602159D01*
X151451Y602159D01*
G37*
%LPD*%
%LPC*%
G36*
X81451Y602159D02*
X81451Y602159D01*
X74894Y604875D01*
X69875Y609894D01*
X67159Y616451D01*
X67159Y623549D01*
X69875Y630106D01*
X74894Y635125D01*
X81451Y637841D01*
X88549Y637841D01*
X95106Y635125D01*
X100125Y630106D01*
X102841Y623549D01*
X102841Y616451D01*
X100125Y609894D01*
X95106Y604875D01*
X88549Y602159D01*
X81451Y602159D01*
G37*
%LPD*%
%LPC*%
G36*
X151451Y732159D02*
X151451Y732159D01*
X144894Y734875D01*
X139875Y739894D01*
X137159Y746451D01*
X137159Y753549D01*
X139875Y760106D01*
X144894Y765125D01*
X151451Y767841D01*
X158549Y767841D01*
X165106Y765125D01*
X170125Y760106D01*
X172841Y753549D01*
X172841Y746451D01*
X170125Y739894D01*
X165106Y734875D01*
X158549Y732159D01*
X151451Y732159D01*
G37*
%LPD*%
%LPC*%
G36*
X81451Y72159D02*
X81451Y72159D01*
X74894Y74875D01*
X69875Y79894D01*
X67159Y86451D01*
X67159Y93549D01*
X69875Y100106D01*
X74894Y105125D01*
X81451Y107841D01*
X88549Y107841D01*
X95106Y105125D01*
X100125Y100106D01*
X102841Y93549D01*
X102841Y86451D01*
X100125Y79894D01*
X95106Y74875D01*
X88549Y72159D01*
X81451Y72159D01*
G37*
%LPD*%
%LPC*%
G36*
X81451Y732159D02*
X81451Y732159D01*
X74894Y734875D01*
X69875Y739894D01*
X67159Y746451D01*
X67159Y753549D01*
X69875Y760106D01*
X74894Y765125D01*
X81451Y767841D01*
X88549Y767841D01*
X95106Y765125D01*
X100125Y760106D01*
X102841Y753549D01*
X102841Y746451D01*
X100125Y739894D01*
X95106Y734875D01*
X88549Y732159D01*
X81451Y732159D01*
G37*
%LPD*%
%LPC*%
G36*
X151451Y72159D02*
X151451Y72159D01*
X144894Y74875D01*
X139875Y79894D01*
X137159Y86451D01*
X137159Y93549D01*
X139875Y100106D01*
X144894Y105125D01*
X151451Y107841D01*
X158549Y107841D01*
X165106Y105125D01*
X170125Y100106D01*
X172841Y93549D01*
X172841Y86451D01*
X170125Y79894D01*
X165106Y74875D01*
X158549Y72159D01*
X151451Y72159D01*
G37*
%LPD*%
%LPC*%
G36*
X151451Y332159D02*
X151451Y332159D01*
X144894Y334875D01*
X139875Y339894D01*
X137159Y346451D01*
X137159Y353549D01*
X139875Y360106D01*
X144894Y365125D01*
X151451Y367841D01*
X158549Y367841D01*
X165106Y365125D01*
X170125Y360106D01*
X172841Y353549D01*
X172841Y346451D01*
X170125Y339894D01*
X165106Y334875D01*
X158549Y332159D01*
X151451Y332159D01*
G37*
%LPD*%
%LPC*%
G36*
X506246Y511197D02*
X506246Y511197D01*
X503930Y512157D01*
X502157Y513930D01*
X501131Y516405D01*
X501115Y516452D01*
X501080Y516573D01*
X501056Y516615D01*
X501040Y516661D01*
X500971Y516767D01*
X500910Y516877D01*
X500870Y516924D01*
X500851Y516954D01*
X500816Y516987D01*
X500751Y517064D01*
X483342Y534473D01*
X483243Y534552D01*
X483149Y534636D01*
X483106Y534660D01*
X483069Y534690D01*
X482954Y534744D01*
X482844Y534805D01*
X482797Y534818D01*
X482754Y534839D01*
X482630Y534865D01*
X482508Y534900D01*
X482448Y534905D01*
X482413Y534912D01*
X482365Y534911D01*
X482265Y534919D01*
X444464Y534919D01*
X444338Y534905D01*
X444212Y534898D01*
X444165Y534885D01*
X444117Y534879D01*
X443998Y534837D01*
X443877Y534802D01*
X443835Y534778D01*
X443789Y534762D01*
X443727Y534722D01*
X441254Y533697D01*
X438746Y533697D01*
X436430Y534657D01*
X434657Y536430D01*
X433697Y538746D01*
X433697Y541254D01*
X434657Y543570D01*
X436430Y545343D01*
X438746Y546303D01*
X441254Y546303D01*
X443730Y545277D01*
X443774Y545256D01*
X443884Y545195D01*
X443931Y545182D01*
X443975Y545161D01*
X444098Y545135D01*
X444220Y545100D01*
X444281Y545095D01*
X444315Y545088D01*
X444363Y545089D01*
X444464Y545081D01*
X486011Y545081D01*
X487878Y544307D01*
X507936Y524249D01*
X508035Y524170D01*
X508129Y524086D01*
X508172Y524062D01*
X508209Y524032D01*
X508324Y523978D01*
X508434Y523917D01*
X508481Y523904D01*
X508524Y523883D01*
X508596Y523868D01*
X511070Y522843D01*
X512843Y521070D01*
X513803Y518754D01*
X513803Y516246D01*
X512843Y513930D01*
X511070Y512157D01*
X508754Y511197D01*
X506246Y511197D01*
G37*
%LPD*%
%LPC*%
G36*
X306817Y41499D02*
X306817Y41499D01*
X300936Y43935D01*
X296435Y48436D01*
X293999Y54317D01*
X293999Y60683D01*
X296435Y66564D01*
X300936Y71065D01*
X306817Y73501D01*
X313183Y73501D01*
X319064Y71065D01*
X323565Y66564D01*
X326001Y60683D01*
X326001Y54317D01*
X323565Y48436D01*
X319064Y43935D01*
X313183Y41499D01*
X306817Y41499D01*
G37*
%LPD*%
%LPC*%
G36*
X306817Y783999D02*
X306817Y783999D01*
X300936Y786435D01*
X296435Y790936D01*
X293999Y796817D01*
X293999Y803183D01*
X296435Y809064D01*
X300936Y813565D01*
X306817Y816001D01*
X313183Y816001D01*
X319064Y813565D01*
X323565Y809064D01*
X326001Y803183D01*
X326001Y796817D01*
X323565Y790936D01*
X319064Y786435D01*
X313183Y783999D01*
X306817Y783999D01*
G37*
%LPD*%
%LPC*%
G36*
X281817Y713999D02*
X281817Y713999D01*
X275936Y716435D01*
X271435Y720936D01*
X268999Y726817D01*
X268999Y733183D01*
X271435Y739064D01*
X275936Y743565D01*
X281817Y746001D01*
X288183Y746001D01*
X294064Y743565D01*
X298565Y739064D01*
X301001Y733183D01*
X301001Y726817D01*
X298565Y720936D01*
X294064Y716435D01*
X288183Y713999D01*
X281817Y713999D01*
G37*
%LPD*%
%LPC*%
G36*
X386246Y473697D02*
X386246Y473697D01*
X383930Y474657D01*
X382157Y476430D01*
X381197Y478746D01*
X381197Y481254D01*
X382157Y483570D01*
X383930Y485343D01*
X386479Y486399D01*
X386546Y486436D01*
X386617Y486464D01*
X386698Y486521D01*
X386784Y486568D01*
X386840Y486620D01*
X386903Y486663D01*
X386969Y486736D01*
X387042Y486803D01*
X387085Y486865D01*
X387136Y486922D01*
X387184Y487008D01*
X387240Y487089D01*
X387268Y487160D01*
X387305Y487227D01*
X387332Y487322D01*
X387368Y487413D01*
X387379Y487489D01*
X387400Y487563D01*
X387412Y487711D01*
X387419Y487758D01*
X387417Y487777D01*
X387419Y487806D01*
X387419Y530536D01*
X387405Y530662D01*
X387398Y530788D01*
X387385Y530835D01*
X387379Y530883D01*
X387337Y531002D01*
X387302Y531123D01*
X387278Y531165D01*
X387262Y531211D01*
X387222Y531273D01*
X386197Y533746D01*
X386197Y536254D01*
X387157Y538570D01*
X388930Y540343D01*
X391246Y541303D01*
X393754Y541303D01*
X396070Y540343D01*
X397843Y538570D01*
X398803Y536254D01*
X398803Y533746D01*
X397777Y531270D01*
X397756Y531226D01*
X397695Y531116D01*
X397682Y531069D01*
X397661Y531025D01*
X397635Y530902D01*
X397600Y530780D01*
X397595Y530719D01*
X397588Y530685D01*
X397589Y530637D01*
X397581Y530536D01*
X397581Y483989D01*
X396807Y482122D01*
X394249Y479564D01*
X394170Y479465D01*
X394086Y479371D01*
X394062Y479328D01*
X394032Y479291D01*
X393978Y479176D01*
X393917Y479066D01*
X393904Y479019D01*
X393883Y478976D01*
X393868Y478904D01*
X392843Y476430D01*
X391070Y474657D01*
X388754Y473697D01*
X386246Y473697D01*
G37*
%LPD*%
%LPC*%
G36*
X263746Y503697D02*
X263746Y503697D01*
X261430Y504657D01*
X259657Y506430D01*
X258697Y508746D01*
X258697Y511254D01*
X259295Y512697D01*
X259296Y512699D01*
X259297Y512701D01*
X259344Y512868D01*
X259391Y513033D01*
X259391Y513035D01*
X259392Y513037D01*
X259411Y513280D01*
X259411Y556720D01*
X259411Y556722D01*
X259411Y556724D01*
X259392Y556888D01*
X259371Y557066D01*
X259371Y557068D01*
X259370Y557070D01*
X259295Y557303D01*
X258697Y558746D01*
X258697Y561254D01*
X259657Y563570D01*
X261430Y565343D01*
X263746Y566303D01*
X266254Y566303D01*
X268570Y565343D01*
X270343Y563570D01*
X271303Y561254D01*
X271303Y558746D01*
X270705Y557303D01*
X270704Y557301D01*
X270703Y557299D01*
X270656Y557132D01*
X270609Y556967D01*
X270609Y556965D01*
X270608Y556963D01*
X270589Y556720D01*
X270589Y513280D01*
X270589Y513278D01*
X270589Y513276D01*
X270609Y513106D01*
X270629Y512934D01*
X270629Y512932D01*
X270630Y512930D01*
X270705Y512697D01*
X271303Y511254D01*
X271303Y508746D01*
X270343Y506430D01*
X268570Y504657D01*
X266254Y503697D01*
X263746Y503697D01*
G37*
%LPD*%
%LPC*%
G36*
X263746Y98697D02*
X263746Y98697D01*
X261430Y99657D01*
X259657Y101430D01*
X258697Y103746D01*
X258697Y106254D01*
X259295Y107697D01*
X259296Y107699D01*
X259297Y107701D01*
X259344Y107868D01*
X259391Y108033D01*
X259391Y108035D01*
X259392Y108037D01*
X259411Y108280D01*
X259411Y151720D01*
X259411Y151722D01*
X259411Y151724D01*
X259391Y151894D01*
X259371Y152066D01*
X259371Y152068D01*
X259370Y152070D01*
X259295Y152303D01*
X258697Y153746D01*
X258697Y156254D01*
X259657Y158570D01*
X261430Y160343D01*
X263746Y161303D01*
X266254Y161303D01*
X268570Y160343D01*
X270343Y158570D01*
X271303Y156254D01*
X271303Y153746D01*
X270705Y152303D01*
X270704Y152301D01*
X270703Y152299D01*
X270656Y152132D01*
X270609Y151967D01*
X270609Y151965D01*
X270608Y151963D01*
X270589Y151720D01*
X270589Y108280D01*
X270589Y108278D01*
X270589Y108276D01*
X270609Y108102D01*
X270629Y107934D01*
X270629Y107932D01*
X270630Y107930D01*
X270705Y107697D01*
X271303Y106254D01*
X271303Y103746D01*
X270343Y101430D01*
X268570Y99657D01*
X266254Y98697D01*
X263746Y98697D01*
G37*
%LPD*%
%LPC*%
G36*
X263746Y368697D02*
X263746Y368697D01*
X261430Y369657D01*
X259657Y371430D01*
X258697Y373746D01*
X258697Y376254D01*
X259295Y377697D01*
X259296Y377699D01*
X259297Y377701D01*
X259344Y377868D01*
X259391Y378033D01*
X259391Y378035D01*
X259392Y378037D01*
X259411Y378280D01*
X259411Y421720D01*
X259411Y421722D01*
X259411Y421724D01*
X259410Y421738D01*
X259410Y421749D01*
X259401Y421814D01*
X259391Y421892D01*
X259371Y422066D01*
X259371Y422068D01*
X259370Y422070D01*
X259295Y422303D01*
X258697Y423746D01*
X258697Y426254D01*
X259657Y428570D01*
X261430Y430343D01*
X263746Y431303D01*
X266254Y431303D01*
X268570Y430343D01*
X270343Y428570D01*
X271303Y426254D01*
X271303Y423746D01*
X270705Y422303D01*
X270704Y422301D01*
X270703Y422299D01*
X270656Y422130D01*
X270609Y421967D01*
X270609Y421965D01*
X270608Y421963D01*
X270589Y421720D01*
X270589Y378280D01*
X270589Y378278D01*
X270589Y378276D01*
X270610Y378097D01*
X270629Y377934D01*
X270629Y377932D01*
X270630Y377930D01*
X270705Y377697D01*
X271303Y376254D01*
X271303Y373746D01*
X270343Y371430D01*
X268570Y369657D01*
X266254Y368697D01*
X263746Y368697D01*
G37*
%LPD*%
%LPC*%
G36*
X263746Y633697D02*
X263746Y633697D01*
X261430Y634657D01*
X259657Y636430D01*
X258697Y638746D01*
X258697Y641254D01*
X259295Y642697D01*
X259296Y642699D01*
X259297Y642701D01*
X259344Y642868D01*
X259391Y643033D01*
X259391Y643035D01*
X259392Y643037D01*
X259411Y643280D01*
X259411Y686720D01*
X259411Y686722D01*
X259411Y686724D01*
X259391Y686894D01*
X259371Y687066D01*
X259371Y687068D01*
X259370Y687070D01*
X259350Y687132D01*
X259349Y687139D01*
X259343Y687155D01*
X259295Y687303D01*
X258697Y688746D01*
X258697Y691254D01*
X259657Y693570D01*
X261430Y695343D01*
X263746Y696303D01*
X266254Y696303D01*
X268570Y695343D01*
X270343Y693570D01*
X271303Y691254D01*
X271303Y688746D01*
X270705Y687303D01*
X270704Y687301D01*
X270703Y687299D01*
X270656Y687132D01*
X270646Y687097D01*
X270627Y687037D01*
X270626Y687028D01*
X270609Y686967D01*
X270609Y686965D01*
X270608Y686963D01*
X270589Y686720D01*
X270589Y643280D01*
X270589Y643278D01*
X270589Y643276D01*
X270609Y643105D01*
X270629Y642934D01*
X270629Y642932D01*
X270630Y642930D01*
X270705Y642697D01*
X271303Y641254D01*
X271303Y638746D01*
X270343Y636430D01*
X268570Y634657D01*
X266254Y633697D01*
X263746Y633697D01*
G37*
%LPD*%
%LPC*%
G36*
X541246Y306197D02*
X541246Y306197D01*
X538930Y307157D01*
X537157Y308930D01*
X536197Y311246D01*
X536197Y313754D01*
X537157Y316070D01*
X538930Y317843D01*
X541246Y318803D01*
X543142Y318803D01*
X543267Y318817D01*
X543394Y318824D01*
X543440Y318837D01*
X543488Y318843D01*
X543607Y318885D01*
X543728Y318920D01*
X543771Y318944D01*
X543816Y318960D01*
X543922Y319029D01*
X544033Y319090D01*
X544079Y319130D01*
X544109Y319149D01*
X544142Y319184D01*
X544219Y319249D01*
X556027Y331057D01*
X585396Y331057D01*
X585521Y331071D01*
X585648Y331078D01*
X585694Y331091D01*
X585742Y331097D01*
X585861Y331139D01*
X585982Y331174D01*
X586025Y331198D01*
X586070Y331214D01*
X586176Y331283D01*
X586287Y331344D01*
X586333Y331384D01*
X586363Y331403D01*
X586396Y331438D01*
X586473Y331503D01*
X595751Y340781D01*
X595830Y340880D01*
X595914Y340974D01*
X595938Y341016D01*
X595968Y341054D01*
X596022Y341168D01*
X596083Y341279D01*
X596096Y341326D01*
X596117Y341369D01*
X596143Y341493D01*
X596178Y341614D01*
X596183Y341675D01*
X596190Y341710D01*
X596189Y341758D01*
X596197Y341858D01*
X596197Y343754D01*
X597157Y346070D01*
X598930Y347843D01*
X601246Y348803D01*
X603754Y348803D01*
X606070Y347843D01*
X607843Y346070D01*
X608803Y343754D01*
X608803Y341246D01*
X607843Y338930D01*
X606070Y337157D01*
X603754Y336197D01*
X601858Y336197D01*
X601733Y336183D01*
X601606Y336176D01*
X601560Y336163D01*
X601512Y336157D01*
X601393Y336115D01*
X601272Y336080D01*
X601229Y336056D01*
X601184Y336040D01*
X601078Y335971D01*
X600967Y335910D01*
X600921Y335870D01*
X600891Y335851D01*
X600858Y335816D01*
X600781Y335751D01*
X591503Y326473D01*
X588973Y323943D01*
X559604Y323943D01*
X559479Y323929D01*
X559352Y323922D01*
X559306Y323909D01*
X559258Y323903D01*
X559139Y323861D01*
X559018Y323826D01*
X558975Y323802D01*
X558930Y323786D01*
X558824Y323717D01*
X558713Y323656D01*
X558667Y323616D01*
X558637Y323597D01*
X558604Y323562D01*
X558527Y323497D01*
X549249Y314219D01*
X549170Y314120D01*
X549086Y314026D01*
X549062Y313984D01*
X549032Y313946D01*
X548978Y313832D01*
X548917Y313721D01*
X548904Y313674D01*
X548883Y313631D01*
X548857Y313507D01*
X548822Y313386D01*
X548817Y313325D01*
X548810Y313290D01*
X548811Y313242D01*
X548803Y313142D01*
X548803Y311246D01*
X547843Y308930D01*
X546070Y307157D01*
X543754Y306197D01*
X541246Y306197D01*
G37*
%LPD*%
%LPC*%
G36*
X867095Y310394D02*
X867095Y310394D01*
X861726Y312618D01*
X857618Y316726D01*
X855394Y322095D01*
X855394Y327905D01*
X857618Y333274D01*
X861726Y337382D01*
X867095Y339606D01*
X872905Y339606D01*
X878274Y337382D01*
X882382Y333274D01*
X884606Y327905D01*
X884606Y322095D01*
X882382Y316726D01*
X878274Y312618D01*
X872905Y310394D01*
X867095Y310394D01*
G37*
%LPD*%
%LPC*%
G36*
X867095Y750394D02*
X867095Y750394D01*
X861726Y752618D01*
X857618Y756726D01*
X855394Y762095D01*
X855394Y767905D01*
X857618Y773274D01*
X861726Y777382D01*
X867095Y779606D01*
X872905Y779606D01*
X878274Y777382D01*
X882382Y773274D01*
X884606Y767905D01*
X884606Y762095D01*
X882382Y756726D01*
X878274Y752618D01*
X872905Y750394D01*
X867095Y750394D01*
G37*
%LPD*%
%LPC*%
G36*
X867095Y345394D02*
X867095Y345394D01*
X861726Y347618D01*
X857618Y351726D01*
X855394Y357095D01*
X855394Y362905D01*
X857618Y368274D01*
X861726Y372382D01*
X867095Y374606D01*
X872905Y374606D01*
X878274Y372382D01*
X882382Y368274D01*
X884606Y362905D01*
X884606Y357095D01*
X882382Y351726D01*
X878274Y347618D01*
X872905Y345394D01*
X867095Y345394D01*
G37*
%LPD*%
%LPC*%
G36*
X867095Y200394D02*
X867095Y200394D01*
X861726Y202618D01*
X857618Y206726D01*
X855394Y212095D01*
X855394Y217905D01*
X857618Y223274D01*
X861726Y227382D01*
X867095Y229606D01*
X872905Y229606D01*
X878274Y227382D01*
X882382Y223274D01*
X884606Y217905D01*
X884606Y212095D01*
X882382Y206726D01*
X878274Y202618D01*
X872905Y200394D01*
X867095Y200394D01*
G37*
%LPD*%
%LPC*%
G36*
X867095Y785394D02*
X867095Y785394D01*
X861726Y787618D01*
X857618Y791726D01*
X855394Y797095D01*
X855394Y802905D01*
X857618Y808274D01*
X861726Y812382D01*
X867095Y814606D01*
X872905Y814606D01*
X878274Y812382D01*
X882382Y808274D01*
X884606Y802905D01*
X884606Y797095D01*
X882382Y791726D01*
X878274Y787618D01*
X872905Y785394D01*
X867095Y785394D01*
G37*
%LPD*%
%LPC*%
G36*
X555006Y195947D02*
X555006Y195947D01*
X552690Y196907D01*
X550917Y198680D01*
X549957Y200996D01*
X549957Y203504D01*
X550917Y205820D01*
X552690Y207593D01*
X555006Y208553D01*
X557514Y208553D01*
X559830Y207593D01*
X560663Y206761D01*
X560762Y206682D01*
X560855Y206598D01*
X560898Y206574D01*
X560936Y206544D01*
X561050Y206490D01*
X561160Y206429D01*
X561207Y206416D01*
X561251Y206395D01*
X561374Y206369D01*
X561496Y206334D01*
X561557Y206329D01*
X561591Y206322D01*
X561639Y206323D01*
X561740Y206315D01*
X610470Y206315D01*
X610596Y206329D01*
X610722Y206336D01*
X610769Y206349D01*
X610817Y206355D01*
X610936Y206397D01*
X611057Y206432D01*
X611099Y206456D01*
X611145Y206472D01*
X611251Y206541D01*
X611361Y206602D01*
X611407Y206642D01*
X611437Y206661D01*
X611471Y206696D01*
X611547Y206761D01*
X612380Y207593D01*
X614696Y208553D01*
X617204Y208553D01*
X619520Y207593D01*
X621293Y205820D01*
X622253Y203504D01*
X622253Y200996D01*
X621293Y198680D01*
X619520Y196907D01*
X617204Y195947D01*
X614696Y195947D01*
X612380Y196907D01*
X611547Y197739D01*
X611448Y197818D01*
X611355Y197902D01*
X611312Y197926D01*
X611274Y197956D01*
X611160Y198010D01*
X611050Y198071D01*
X611003Y198084D01*
X610959Y198105D01*
X610836Y198131D01*
X610714Y198166D01*
X610653Y198171D01*
X610619Y198178D01*
X610571Y198177D01*
X610470Y198185D01*
X561740Y198185D01*
X561614Y198171D01*
X561488Y198164D01*
X561441Y198151D01*
X561393Y198145D01*
X561274Y198103D01*
X561153Y198068D01*
X561111Y198044D01*
X561065Y198028D01*
X560959Y197959D01*
X560849Y197898D01*
X560803Y197858D01*
X560773Y197839D01*
X560739Y197804D01*
X560663Y197739D01*
X559830Y196907D01*
X557514Y195947D01*
X555006Y195947D01*
G37*
%LPD*%
%LPC*%
G36*
X546246Y268697D02*
X546246Y268697D01*
X543930Y269657D01*
X542157Y271430D01*
X541197Y273746D01*
X541197Y276254D01*
X542157Y278570D01*
X543930Y280343D01*
X546246Y281303D01*
X547423Y281303D01*
X547549Y281317D01*
X547675Y281324D01*
X547722Y281337D01*
X547770Y281343D01*
X547889Y281385D01*
X548010Y281420D01*
X548052Y281444D01*
X548098Y281460D01*
X548204Y281529D01*
X548314Y281590D01*
X548360Y281630D01*
X548390Y281649D01*
X548424Y281684D01*
X548500Y281749D01*
X563316Y296565D01*
X587020Y296565D01*
X587146Y296579D01*
X587272Y296586D01*
X587319Y296599D01*
X587367Y296605D01*
X587486Y296647D01*
X587607Y296682D01*
X587649Y296706D01*
X587695Y296722D01*
X587801Y296791D01*
X587911Y296852D01*
X587957Y296892D01*
X587987Y296911D01*
X588021Y296946D01*
X588097Y297011D01*
X588930Y297843D01*
X591246Y298803D01*
X593754Y298803D01*
X596070Y297843D01*
X597843Y296070D01*
X598803Y293754D01*
X598803Y291246D01*
X597843Y288930D01*
X596070Y287157D01*
X593754Y286197D01*
X591246Y286197D01*
X588930Y287157D01*
X588097Y287989D01*
X587998Y288068D01*
X587905Y288152D01*
X587862Y288176D01*
X587824Y288206D01*
X587710Y288260D01*
X587600Y288321D01*
X587553Y288334D01*
X587509Y288355D01*
X587386Y288381D01*
X587264Y288416D01*
X587203Y288421D01*
X587169Y288428D01*
X587121Y288427D01*
X587020Y288435D01*
X567315Y288435D01*
X567189Y288421D01*
X567063Y288414D01*
X567016Y288401D01*
X566968Y288395D01*
X566849Y288353D01*
X566728Y288318D01*
X566686Y288294D01*
X566640Y288278D01*
X566534Y288209D01*
X566424Y288148D01*
X566378Y288108D01*
X566348Y288089D01*
X566314Y288054D01*
X566238Y287989D01*
X554249Y276000D01*
X554170Y275901D01*
X554086Y275808D01*
X554062Y275765D01*
X554032Y275727D01*
X553978Y275613D01*
X553917Y275503D01*
X553904Y275456D01*
X553883Y275412D01*
X553857Y275289D01*
X553822Y275167D01*
X553817Y275106D01*
X553810Y275072D01*
X553811Y275024D01*
X553803Y274923D01*
X553803Y273746D01*
X552843Y271430D01*
X551070Y269657D01*
X548754Y268697D01*
X546246Y268697D01*
G37*
%LPD*%
%LPC*%
G36*
X733746Y346197D02*
X733746Y346197D01*
X731430Y347157D01*
X729657Y348930D01*
X728697Y351246D01*
X728697Y353754D01*
X729295Y355197D01*
X729296Y355199D01*
X729297Y355201D01*
X729344Y355368D01*
X729391Y355533D01*
X729391Y355535D01*
X729392Y355537D01*
X729411Y355780D01*
X729411Y389220D01*
X729411Y389222D01*
X729411Y389224D01*
X729392Y389389D01*
X729371Y389566D01*
X729371Y389568D01*
X729370Y389570D01*
X729295Y389803D01*
X728697Y391246D01*
X728697Y393754D01*
X729657Y396070D01*
X731430Y397843D01*
X733746Y398803D01*
X736254Y398803D01*
X738570Y397843D01*
X740343Y396070D01*
X741303Y393754D01*
X741303Y391246D01*
X740705Y389803D01*
X740704Y389801D01*
X740703Y389799D01*
X740656Y389632D01*
X740609Y389467D01*
X740609Y389465D01*
X740608Y389463D01*
X740589Y389220D01*
X740589Y355780D01*
X740589Y355778D01*
X740589Y355776D01*
X740610Y355600D01*
X740629Y355434D01*
X740629Y355432D01*
X740630Y355430D01*
X740705Y355197D01*
X741303Y353754D01*
X741303Y351246D01*
X740343Y348930D01*
X738570Y347157D01*
X736254Y346197D01*
X733746Y346197D01*
G37*
%LPD*%
%LPC*%
G36*
X263746Y461197D02*
X263746Y461197D01*
X261430Y462157D01*
X259657Y463930D01*
X258697Y466246D01*
X258697Y468754D01*
X259657Y471070D01*
X261430Y472843D01*
X263746Y473803D01*
X266254Y473803D01*
X267697Y473205D01*
X267699Y473204D01*
X267701Y473203D01*
X267868Y473156D01*
X268033Y473109D01*
X268035Y473109D01*
X268037Y473108D01*
X268280Y473089D01*
X299220Y473089D01*
X299222Y473089D01*
X299224Y473089D01*
X299394Y473109D01*
X299566Y473129D01*
X299568Y473129D01*
X299570Y473130D01*
X299803Y473205D01*
X301246Y473803D01*
X303754Y473803D01*
X306070Y472843D01*
X307843Y471070D01*
X308803Y468754D01*
X308803Y466246D01*
X307843Y463930D01*
X306070Y462157D01*
X303754Y461197D01*
X301246Y461197D01*
X299803Y461795D01*
X299801Y461796D01*
X299799Y461797D01*
X299632Y461844D01*
X299467Y461891D01*
X299465Y461891D01*
X299463Y461892D01*
X299220Y461911D01*
X268280Y461911D01*
X268278Y461911D01*
X268276Y461911D01*
X268106Y461891D01*
X267934Y461871D01*
X267932Y461871D01*
X267930Y461870D01*
X267697Y461795D01*
X266254Y461197D01*
X263746Y461197D01*
G37*
%LPD*%
%LPC*%
G36*
X846005Y483899D02*
X846005Y483899D01*
X844167Y484661D01*
X842761Y486067D01*
X841999Y487905D01*
X841999Y490079D01*
X842002Y490139D01*
X842014Y490288D01*
X842011Y490312D01*
X842012Y490336D01*
X841985Y490484D01*
X841963Y490633D01*
X841954Y490655D01*
X841949Y490679D01*
X841889Y490817D01*
X841834Y490957D01*
X841820Y490977D01*
X841810Y490999D01*
X841721Y491120D01*
X841635Y491243D01*
X841617Y491259D01*
X841603Y491278D01*
X841487Y491376D01*
X841376Y491476D01*
X841355Y491488D01*
X841337Y491504D01*
X841203Y491572D01*
X841071Y491645D01*
X841048Y491651D01*
X841026Y491662D01*
X840881Y491699D01*
X840736Y491740D01*
X840707Y491742D01*
X840688Y491747D01*
X840641Y491747D01*
X840492Y491759D01*
X832092Y491759D01*
X830297Y492043D01*
X828570Y492605D01*
X826951Y493429D01*
X825482Y494497D01*
X824197Y495782D01*
X823129Y497251D01*
X822305Y498870D01*
X821743Y500597D01*
X821711Y500801D01*
X841024Y500801D01*
X841050Y500804D01*
X841076Y500802D01*
X841223Y500824D01*
X841370Y500841D01*
X841395Y500849D01*
X841421Y500853D01*
X841558Y500908D01*
X841698Y500958D01*
X841720Y500972D01*
X841745Y500982D01*
X841866Y501067D01*
X841991Y501147D01*
X842003Y501160D01*
X842050Y501115D01*
X842073Y501101D01*
X842092Y501084D01*
X842222Y501012D01*
X842349Y500936D01*
X842374Y500928D01*
X842397Y500915D01*
X842540Y500875D01*
X842681Y500830D01*
X842707Y500827D01*
X842732Y500820D01*
X842976Y500801D01*
X881301Y500801D01*
X881301Y491759D01*
X873892Y491759D01*
X872097Y492043D01*
X870370Y492605D01*
X868751Y493429D01*
X867282Y494497D01*
X865997Y495782D01*
X864929Y497251D01*
X864257Y498571D01*
X864254Y498576D01*
X864252Y498580D01*
X864229Y498613D01*
X864172Y498700D01*
X864089Y498831D01*
X864075Y498845D01*
X864065Y498861D01*
X863951Y498968D01*
X863841Y499077D01*
X863825Y499087D01*
X863811Y499100D01*
X863676Y499178D01*
X863545Y499259D01*
X863526Y499265D01*
X863510Y499275D01*
X863361Y499321D01*
X863214Y499370D01*
X863195Y499372D01*
X863176Y499377D01*
X863022Y499388D01*
X862867Y499402D01*
X862848Y499399D01*
X862829Y499401D01*
X862676Y499376D01*
X862522Y499355D01*
X862504Y499348D01*
X862485Y499345D01*
X862341Y499286D01*
X862196Y499230D01*
X862180Y499219D01*
X862162Y499212D01*
X862036Y499122D01*
X861908Y499035D01*
X861894Y499021D01*
X861879Y499009D01*
X861776Y498893D01*
X861671Y498779D01*
X861659Y498759D01*
X861649Y498748D01*
X861628Y498709D01*
X861543Y498571D01*
X860871Y497251D01*
X859803Y495782D01*
X858518Y494497D01*
X857049Y493429D01*
X855430Y492605D01*
X853703Y492043D01*
X853179Y491960D01*
X853149Y491952D01*
X853118Y491950D01*
X852981Y491905D01*
X852843Y491867D01*
X852816Y491852D01*
X852786Y491842D01*
X852663Y491768D01*
X852537Y491700D01*
X852514Y491679D01*
X852487Y491663D01*
X852385Y491563D01*
X852278Y491467D01*
X852260Y491442D01*
X852238Y491420D01*
X852160Y491299D01*
X852078Y491182D01*
X852066Y491153D01*
X852049Y491127D01*
X852001Y490992D01*
X851948Y490858D01*
X851943Y490827D01*
X851933Y490798D01*
X851917Y490656D01*
X851895Y490514D01*
X851897Y490483D01*
X851894Y490452D01*
X851911Y490309D01*
X851922Y490166D01*
X851931Y490137D01*
X851935Y490106D01*
X852001Y489901D01*
X852001Y487905D01*
X851239Y486067D01*
X849833Y484661D01*
X847995Y483899D01*
X846005Y483899D01*
G37*
%LPD*%
%LPC*%
G36*
X841950Y418985D02*
X841950Y418985D01*
X841927Y418999D01*
X841908Y419016D01*
X841778Y419088D01*
X841651Y419164D01*
X841626Y419172D01*
X841603Y419185D01*
X841460Y419225D01*
X841319Y419270D01*
X841293Y419272D01*
X841268Y419280D01*
X841024Y419299D01*
X821711Y419299D01*
X821743Y419503D01*
X822305Y421230D01*
X823129Y422849D01*
X824197Y424318D01*
X825482Y425603D01*
X826951Y426671D01*
X828570Y427495D01*
X830297Y428057D01*
X832092Y428341D01*
X840476Y428341D01*
X840502Y428344D01*
X840528Y428342D01*
X840675Y428364D01*
X840822Y428381D01*
X840847Y428389D01*
X840873Y428393D01*
X841011Y428448D01*
X841150Y428498D01*
X841172Y428512D01*
X841197Y428522D01*
X841318Y428607D01*
X841443Y428687D01*
X841461Y428706D01*
X841483Y428721D01*
X841582Y428831D01*
X841685Y428938D01*
X841699Y428960D01*
X841716Y428980D01*
X841788Y429110D01*
X841864Y429237D01*
X841872Y429262D01*
X841885Y429285D01*
X841925Y429428D01*
X841970Y429569D01*
X841972Y429595D01*
X841980Y429620D01*
X841999Y429864D01*
X841999Y432095D01*
X842761Y433933D01*
X844167Y435339D01*
X846005Y436101D01*
X847995Y436101D01*
X849833Y435339D01*
X851239Y433933D01*
X852001Y432095D01*
X852001Y430058D01*
X851992Y430024D01*
X851953Y429886D01*
X851951Y429855D01*
X851944Y429824D01*
X851943Y429681D01*
X851936Y429538D01*
X851941Y429507D01*
X851941Y429476D01*
X851973Y429336D01*
X851998Y429195D01*
X852011Y429166D01*
X852018Y429136D01*
X852080Y429007D01*
X852137Y428875D01*
X852156Y428850D01*
X852169Y428822D01*
X852260Y428710D01*
X852345Y428595D01*
X852369Y428575D01*
X852389Y428551D01*
X852502Y428463D01*
X852611Y428370D01*
X852639Y428356D01*
X852663Y428337D01*
X852794Y428277D01*
X852922Y428211D01*
X852952Y428204D01*
X852980Y428191D01*
X853218Y428133D01*
X853702Y428057D01*
X855430Y427495D01*
X857049Y426671D01*
X858518Y425603D01*
X859803Y424318D01*
X860871Y422849D01*
X861543Y421529D01*
X861629Y421400D01*
X861711Y421269D01*
X861725Y421255D01*
X861735Y421239D01*
X861849Y421132D01*
X861959Y421023D01*
X861975Y421013D01*
X861989Y421000D01*
X862123Y420922D01*
X862255Y420841D01*
X862274Y420835D01*
X862290Y420825D01*
X862438Y420780D01*
X862586Y420730D01*
X862605Y420728D01*
X862624Y420723D01*
X862778Y420712D01*
X862933Y420698D01*
X862952Y420701D01*
X862971Y420699D01*
X863124Y420724D01*
X863278Y420745D01*
X863296Y420752D01*
X863315Y420755D01*
X863459Y420814D01*
X863604Y420870D01*
X863620Y420881D01*
X863638Y420888D01*
X863764Y420978D01*
X863892Y421065D01*
X863905Y421079D01*
X863921Y421091D01*
X864024Y421207D01*
X864129Y421321D01*
X864141Y421341D01*
X864151Y421352D01*
X864172Y421391D01*
X864257Y421529D01*
X864929Y422849D01*
X865997Y424318D01*
X867282Y425603D01*
X868751Y426671D01*
X870370Y427495D01*
X872097Y428057D01*
X873892Y428341D01*
X881301Y428341D01*
X881301Y419299D01*
X842976Y419299D01*
X842950Y419296D01*
X842924Y419298D01*
X842777Y419276D01*
X842630Y419259D01*
X842605Y419251D01*
X842579Y419247D01*
X842442Y419192D01*
X842302Y419142D01*
X842280Y419128D01*
X842255Y419118D01*
X842134Y419033D01*
X842009Y418953D01*
X841997Y418940D01*
X841950Y418985D01*
G37*
%LPD*%
%LPC*%
G36*
X762622Y351049D02*
X762622Y351049D01*
X758414Y352793D01*
X755193Y356014D01*
X753449Y360222D01*
X753449Y364778D01*
X755193Y368986D01*
X758414Y372207D01*
X762622Y373951D01*
X767178Y373951D01*
X771386Y372207D01*
X774607Y368986D01*
X776351Y364778D01*
X776351Y360222D01*
X774607Y356014D01*
X771386Y352793D01*
X767178Y351049D01*
X762622Y351049D01*
G37*
%LPD*%
%LPC*%
G36*
X697622Y351049D02*
X697622Y351049D01*
X693414Y352793D01*
X690193Y356014D01*
X688449Y360222D01*
X688449Y364778D01*
X690193Y368986D01*
X693414Y372207D01*
X697622Y373951D01*
X702178Y373951D01*
X706386Y372207D01*
X709607Y368986D01*
X711351Y364778D01*
X711351Y360222D01*
X709607Y356014D01*
X706386Y352793D01*
X702178Y351049D01*
X697622Y351049D01*
G37*
%LPD*%
%LPC*%
G36*
X451246Y306197D02*
X451246Y306197D01*
X448930Y307157D01*
X447589Y308497D01*
X447490Y308576D01*
X447397Y308660D01*
X447354Y308684D01*
X447316Y308714D01*
X447202Y308768D01*
X447092Y308829D01*
X447045Y308842D01*
X447001Y308863D01*
X446878Y308889D01*
X446756Y308924D01*
X446695Y308929D01*
X446661Y308936D01*
X446613Y308935D01*
X446512Y308943D01*
X431027Y308943D01*
X424219Y315751D01*
X424120Y315830D01*
X424026Y315914D01*
X423984Y315938D01*
X423946Y315968D01*
X423832Y316022D01*
X423721Y316083D01*
X423674Y316096D01*
X423631Y316117D01*
X423507Y316143D01*
X423386Y316178D01*
X423325Y316183D01*
X423290Y316190D01*
X423242Y316189D01*
X423142Y316197D01*
X421246Y316197D01*
X418930Y317157D01*
X417157Y318930D01*
X416197Y321246D01*
X416197Y323754D01*
X417157Y326070D01*
X418930Y327843D01*
X421246Y328803D01*
X423754Y328803D01*
X426070Y327843D01*
X427843Y326070D01*
X428803Y323754D01*
X428803Y321858D01*
X428817Y321733D01*
X428824Y321606D01*
X428837Y321560D01*
X428843Y321512D01*
X428885Y321393D01*
X428920Y321272D01*
X428944Y321229D01*
X428960Y321184D01*
X429029Y321078D01*
X429090Y320967D01*
X429130Y320921D01*
X429149Y320891D01*
X429184Y320858D01*
X429249Y320781D01*
X433527Y316503D01*
X433626Y316424D01*
X433720Y316340D01*
X433762Y316316D01*
X433800Y316286D01*
X433914Y316232D01*
X434025Y316171D01*
X434072Y316158D01*
X434115Y316137D01*
X434239Y316111D01*
X434360Y316076D01*
X434421Y316071D01*
X434456Y316064D01*
X434504Y316065D01*
X434604Y316057D01*
X446512Y316057D01*
X446638Y316071D01*
X446764Y316078D01*
X446811Y316091D01*
X446859Y316097D01*
X446978Y316139D01*
X447099Y316174D01*
X447141Y316198D01*
X447187Y316214D01*
X447293Y316283D01*
X447403Y316344D01*
X447449Y316384D01*
X447479Y316403D01*
X447513Y316438D01*
X447589Y316503D01*
X448930Y317843D01*
X451246Y318803D01*
X453754Y318803D01*
X456070Y317843D01*
X457843Y316070D01*
X458803Y313754D01*
X458803Y311246D01*
X457843Y308930D01*
X456070Y307157D01*
X453754Y306197D01*
X451246Y306197D01*
G37*
%LPD*%
%LPC*%
G36*
X773746Y276197D02*
X773746Y276197D01*
X771430Y277157D01*
X769657Y278930D01*
X768697Y281246D01*
X768697Y283754D01*
X769295Y285197D01*
X769296Y285199D01*
X769297Y285201D01*
X769344Y285368D01*
X769391Y285533D01*
X769391Y285535D01*
X769392Y285537D01*
X769411Y285780D01*
X769411Y301720D01*
X769411Y301722D01*
X769411Y301724D01*
X769391Y301894D01*
X769371Y302066D01*
X769371Y302068D01*
X769370Y302070D01*
X769295Y302303D01*
X768697Y303746D01*
X768697Y306254D01*
X769657Y308570D01*
X771430Y310343D01*
X773746Y311303D01*
X776254Y311303D01*
X778570Y310343D01*
X780343Y308570D01*
X781303Y306254D01*
X781303Y303746D01*
X780705Y302303D01*
X780704Y302301D01*
X780703Y302299D01*
X780656Y302132D01*
X780609Y301967D01*
X780609Y301965D01*
X780608Y301963D01*
X780589Y301720D01*
X780589Y285780D01*
X780589Y285778D01*
X780589Y285776D01*
X780609Y285606D01*
X780629Y285434D01*
X780629Y285432D01*
X780630Y285430D01*
X780705Y285197D01*
X781303Y283754D01*
X781303Y281246D01*
X780343Y278930D01*
X778570Y277157D01*
X776254Y276197D01*
X773746Y276197D01*
G37*
%LPD*%
%LPC*%
G36*
X566246Y268697D02*
X566246Y268697D01*
X563930Y269657D01*
X562157Y271430D01*
X561197Y273746D01*
X561197Y276254D01*
X562157Y278570D01*
X563930Y280343D01*
X566246Y281303D01*
X568754Y281303D01*
X571070Y280343D01*
X571903Y279511D01*
X572002Y279432D01*
X572095Y279348D01*
X572138Y279324D01*
X572176Y279294D01*
X572290Y279240D01*
X572400Y279179D01*
X572447Y279166D01*
X572491Y279145D01*
X572614Y279119D01*
X572736Y279084D01*
X572797Y279079D01*
X572831Y279072D01*
X572879Y279073D01*
X572980Y279065D01*
X587020Y279065D01*
X587146Y279079D01*
X587272Y279086D01*
X587319Y279099D01*
X587367Y279105D01*
X587486Y279147D01*
X587607Y279182D01*
X587649Y279206D01*
X587695Y279222D01*
X587801Y279291D01*
X587911Y279352D01*
X587957Y279392D01*
X587987Y279411D01*
X588021Y279446D01*
X588097Y279511D01*
X588930Y280343D01*
X591246Y281303D01*
X593754Y281303D01*
X596070Y280343D01*
X597843Y278570D01*
X598803Y276254D01*
X598803Y273746D01*
X597843Y271430D01*
X596070Y269657D01*
X593754Y268697D01*
X591246Y268697D01*
X588930Y269657D01*
X588097Y270489D01*
X587998Y270568D01*
X587905Y270652D01*
X587862Y270676D01*
X587824Y270706D01*
X587710Y270760D01*
X587600Y270821D01*
X587553Y270834D01*
X587509Y270855D01*
X587386Y270881D01*
X587264Y270916D01*
X587203Y270921D01*
X587169Y270928D01*
X587121Y270927D01*
X587020Y270935D01*
X572980Y270935D01*
X572854Y270921D01*
X572728Y270914D01*
X572681Y270901D01*
X572633Y270895D01*
X572514Y270853D01*
X572393Y270818D01*
X572351Y270794D01*
X572305Y270778D01*
X572199Y270709D01*
X572089Y270648D01*
X572043Y270608D01*
X572013Y270589D01*
X571979Y270554D01*
X571973Y270549D01*
X571972Y270549D01*
X571971Y270548D01*
X571903Y270489D01*
X571070Y269657D01*
X568754Y268697D01*
X566246Y268697D01*
G37*
%LPD*%
%LPC*%
G36*
X633746Y298697D02*
X633746Y298697D01*
X631430Y299657D01*
X629657Y301430D01*
X628697Y303746D01*
X628697Y306254D01*
X629657Y308570D01*
X631430Y310343D01*
X633746Y311303D01*
X635642Y311303D01*
X635767Y311317D01*
X635894Y311324D01*
X635940Y311337D01*
X635988Y311343D01*
X636107Y311385D01*
X636228Y311420D01*
X636271Y311444D01*
X636316Y311460D01*
X636422Y311529D01*
X636533Y311590D01*
X636579Y311630D01*
X636609Y311649D01*
X636642Y311684D01*
X636719Y311749D01*
X643251Y318281D01*
X643330Y318380D01*
X643414Y318474D01*
X643438Y318516D01*
X643468Y318554D01*
X643522Y318668D01*
X643583Y318779D01*
X643596Y318826D01*
X643617Y318869D01*
X643643Y318993D01*
X643678Y319114D01*
X643683Y319175D01*
X643690Y319210D01*
X643689Y319258D01*
X643697Y319358D01*
X643697Y321254D01*
X644657Y323570D01*
X646430Y325343D01*
X648746Y326303D01*
X651254Y326303D01*
X653570Y325343D01*
X655343Y323570D01*
X656303Y321254D01*
X656303Y318746D01*
X655343Y316430D01*
X653570Y314657D01*
X651254Y313697D01*
X649358Y313697D01*
X649233Y313683D01*
X649106Y313676D01*
X649060Y313663D01*
X649012Y313657D01*
X648893Y313615D01*
X648772Y313580D01*
X648729Y313556D01*
X648684Y313540D01*
X648578Y313471D01*
X648467Y313410D01*
X648421Y313370D01*
X648391Y313351D01*
X648358Y313316D01*
X648281Y313251D01*
X641749Y306719D01*
X641670Y306620D01*
X641586Y306526D01*
X641562Y306484D01*
X641532Y306446D01*
X641478Y306332D01*
X641417Y306221D01*
X641404Y306174D01*
X641383Y306131D01*
X641357Y306007D01*
X641322Y305886D01*
X641317Y305825D01*
X641310Y305790D01*
X641311Y305742D01*
X641303Y305642D01*
X641303Y303746D01*
X640343Y301430D01*
X638570Y299657D01*
X636254Y298697D01*
X633746Y298697D01*
G37*
%LPD*%
%LPC*%
G36*
X844499Y505799D02*
X844499Y505799D01*
X844499Y514841D01*
X851908Y514841D01*
X853703Y514557D01*
X855430Y513995D01*
X857049Y513171D01*
X858518Y512103D01*
X859803Y510818D01*
X860871Y509349D01*
X861543Y508029D01*
X861629Y507900D01*
X861711Y507769D01*
X861725Y507755D01*
X861735Y507739D01*
X861849Y507632D01*
X861959Y507523D01*
X861975Y507513D01*
X861989Y507500D01*
X862123Y507422D01*
X862255Y507341D01*
X862274Y507335D01*
X862290Y507325D01*
X862438Y507280D01*
X862586Y507230D01*
X862605Y507228D01*
X862624Y507223D01*
X862778Y507212D01*
X862933Y507198D01*
X862952Y507201D01*
X862971Y507199D01*
X863124Y507224D01*
X863278Y507245D01*
X863296Y507252D01*
X863315Y507255D01*
X863459Y507314D01*
X863604Y507370D01*
X863620Y507381D01*
X863638Y507388D01*
X863764Y507478D01*
X863892Y507565D01*
X863905Y507579D01*
X863921Y507591D01*
X864024Y507707D01*
X864129Y507821D01*
X864141Y507841D01*
X864151Y507852D01*
X864172Y507891D01*
X864257Y508029D01*
X864929Y509349D01*
X865997Y510818D01*
X867282Y512103D01*
X868751Y513171D01*
X870370Y513995D01*
X872097Y514557D01*
X873892Y514841D01*
X881301Y514841D01*
X881301Y505799D01*
X844499Y505799D01*
G37*
%LPD*%
%LPC*%
G36*
X844499Y405259D02*
X844499Y405259D01*
X844499Y414301D01*
X881301Y414301D01*
X881301Y405259D01*
X873892Y405259D01*
X872097Y405543D01*
X870370Y406105D01*
X868751Y406929D01*
X867282Y407997D01*
X865997Y409282D01*
X864929Y410751D01*
X864257Y412071D01*
X864172Y412200D01*
X864089Y412331D01*
X864075Y412345D01*
X864065Y412361D01*
X863951Y412468D01*
X863841Y412577D01*
X863825Y412587D01*
X863811Y412600D01*
X863676Y412678D01*
X863545Y412759D01*
X863526Y412765D01*
X863510Y412775D01*
X863361Y412821D01*
X863214Y412870D01*
X863195Y412872D01*
X863176Y412877D01*
X863022Y412888D01*
X862867Y412902D01*
X862848Y412899D01*
X862829Y412901D01*
X862676Y412876D01*
X862522Y412855D01*
X862504Y412848D01*
X862485Y412845D01*
X862341Y412786D01*
X862196Y412730D01*
X862180Y412719D01*
X862162Y412712D01*
X862036Y412622D01*
X861908Y412535D01*
X861894Y412521D01*
X861879Y412509D01*
X861776Y412393D01*
X861671Y412279D01*
X861659Y412259D01*
X861649Y412248D01*
X861628Y412209D01*
X861543Y412071D01*
X860871Y410751D01*
X859803Y409282D01*
X858518Y407997D01*
X857049Y406929D01*
X855430Y406105D01*
X853703Y405543D01*
X851908Y405259D01*
X844499Y405259D01*
G37*
%LPD*%
%LPC*%
G36*
X640039Y425639D02*
X640039Y425639D01*
X640039Y434785D01*
X647564Y434785D01*
X649380Y434497D01*
X651129Y433929D01*
X652768Y433094D01*
X654256Y432013D01*
X655557Y430712D01*
X656638Y429224D01*
X657473Y427585D01*
X658041Y425836D01*
X658072Y425639D01*
X640039Y425639D01*
G37*
%LPD*%
%LPC*%
G36*
X616928Y425639D02*
X616928Y425639D01*
X616959Y425836D01*
X617527Y427585D01*
X618362Y429224D01*
X619443Y430712D01*
X620744Y432013D01*
X622232Y433094D01*
X623871Y433929D01*
X625620Y434497D01*
X627436Y434785D01*
X634961Y434785D01*
X634961Y425639D01*
X616928Y425639D01*
G37*
%LPD*%
%LPC*%
G36*
X821711Y505799D02*
X821711Y505799D01*
X821743Y506003D01*
X822305Y507730D01*
X823129Y509349D01*
X824197Y510818D01*
X825482Y512103D01*
X826951Y513171D01*
X828570Y513995D01*
X830297Y514557D01*
X832092Y514841D01*
X839501Y514841D01*
X839501Y505799D01*
X821711Y505799D01*
G37*
%LPD*%
%LPC*%
G36*
X832092Y405259D02*
X832092Y405259D01*
X830297Y405543D01*
X828570Y406105D01*
X826951Y406929D01*
X825482Y407997D01*
X824197Y409282D01*
X823129Y410751D01*
X822305Y412370D01*
X821743Y414097D01*
X821711Y414301D01*
X839501Y414301D01*
X839501Y405259D01*
X832092Y405259D01*
G37*
%LPD*%
%LPC*%
G36*
X872999Y292999D02*
X872999Y292999D01*
X872999Y304606D01*
X882400Y304606D01*
X883046Y304433D01*
X883625Y304098D01*
X884098Y303625D01*
X884433Y303046D01*
X884606Y302400D01*
X884606Y292999D01*
X872999Y292999D01*
G37*
%LPD*%
%LPC*%
G36*
X872999Y182999D02*
X872999Y182999D01*
X872999Y194606D01*
X882400Y194606D01*
X883046Y194433D01*
X883625Y194098D01*
X884098Y193625D01*
X884433Y193046D01*
X884606Y192400D01*
X884606Y182999D01*
X872999Y182999D01*
G37*
%LPD*%
%LPC*%
G36*
X872999Y732999D02*
X872999Y732999D01*
X872999Y744606D01*
X882400Y744606D01*
X883046Y744433D01*
X883625Y744098D01*
X884098Y743625D01*
X884433Y743046D01*
X884606Y742400D01*
X884606Y732999D01*
X872999Y732999D01*
G37*
%LPD*%
%LPC*%
G36*
X855394Y732999D02*
X855394Y732999D01*
X855394Y742400D01*
X855567Y743046D01*
X855902Y743625D01*
X856375Y744098D01*
X856954Y744433D01*
X857600Y744606D01*
X867001Y744606D01*
X867001Y732999D01*
X855394Y732999D01*
G37*
%LPD*%
%LPC*%
G36*
X855394Y292999D02*
X855394Y292999D01*
X855394Y302400D01*
X855567Y303046D01*
X855902Y303625D01*
X856375Y304098D01*
X856954Y304433D01*
X857600Y304606D01*
X867001Y304606D01*
X867001Y292999D01*
X855394Y292999D01*
G37*
%LPD*%
%LPC*%
G36*
X855394Y182999D02*
X855394Y182999D01*
X855394Y192400D01*
X855567Y193046D01*
X855902Y193625D01*
X856375Y194098D01*
X856954Y194433D01*
X857600Y194606D01*
X867001Y194606D01*
X867001Y182999D01*
X855394Y182999D01*
G37*
%LPD*%
%LPC*%
G36*
X872999Y165394D02*
X872999Y165394D01*
X872999Y177001D01*
X884606Y177001D01*
X884606Y167600D01*
X884433Y166954D01*
X884098Y166375D01*
X883625Y165902D01*
X883046Y165567D01*
X882400Y165394D01*
X872999Y165394D01*
G37*
%LPD*%
%LPC*%
G36*
X872999Y715394D02*
X872999Y715394D01*
X872999Y727001D01*
X884606Y727001D01*
X884606Y717600D01*
X884433Y716954D01*
X884098Y716375D01*
X883625Y715902D01*
X883046Y715567D01*
X882400Y715394D01*
X872999Y715394D01*
G37*
%LPD*%
%LPC*%
G36*
X872999Y275394D02*
X872999Y275394D01*
X872999Y287001D01*
X884606Y287001D01*
X884606Y277600D01*
X884433Y276954D01*
X884098Y276375D01*
X883625Y275902D01*
X883046Y275567D01*
X882400Y275394D01*
X872999Y275394D01*
G37*
%LPD*%
%LPC*%
G36*
X857600Y165394D02*
X857600Y165394D01*
X856954Y165567D01*
X856375Y165902D01*
X855902Y166375D01*
X855567Y166954D01*
X855394Y167600D01*
X855394Y177001D01*
X867001Y177001D01*
X867001Y165394D01*
X857600Y165394D01*
G37*
%LPD*%
%LPC*%
G36*
X857600Y275394D02*
X857600Y275394D01*
X856954Y275567D01*
X856375Y275902D01*
X855902Y276375D01*
X855567Y276954D01*
X855394Y277600D01*
X855394Y287001D01*
X867001Y287001D01*
X867001Y275394D01*
X857600Y275394D01*
G37*
%LPD*%
%LPC*%
G36*
X857600Y715394D02*
X857600Y715394D01*
X856954Y715567D01*
X856375Y715902D01*
X855902Y716375D01*
X855567Y716954D01*
X855394Y717600D01*
X855394Y727001D01*
X867001Y727001D01*
X867001Y715394D01*
X857600Y715394D01*
G37*
%LPD*%
%LPC*%
G36*
X832647Y98447D02*
X832647Y98447D01*
X832647Y112086D01*
X832912Y112051D01*
X835057Y111476D01*
X837109Y110626D01*
X839032Y109516D01*
X840794Y108164D01*
X842364Y106594D01*
X843716Y104832D01*
X844826Y102909D01*
X845676Y100857D01*
X846251Y98712D01*
X846286Y98447D01*
X832647Y98447D01*
G37*
%LPD*%
%LPC*%
G36*
X832647Y41553D02*
X832647Y41553D01*
X846286Y41553D01*
X846251Y41288D01*
X845676Y39143D01*
X844826Y37091D01*
X843716Y35168D01*
X842969Y34194D01*
X842364Y33406D01*
X840794Y31836D01*
X839032Y30484D01*
X837109Y29374D01*
X835057Y28524D01*
X832912Y27949D01*
X832647Y27914D01*
X832647Y41553D01*
G37*
%LPD*%
%LPC*%
G36*
X812914Y98447D02*
X812914Y98447D01*
X812949Y98712D01*
X813524Y100857D01*
X814374Y102909D01*
X815484Y104832D01*
X815964Y105458D01*
X816836Y106594D01*
X818406Y108164D01*
X820168Y109516D01*
X822091Y110626D01*
X824143Y111476D01*
X826288Y112051D01*
X826553Y112086D01*
X826553Y98447D01*
X812914Y98447D01*
G37*
%LPD*%
%LPC*%
G36*
X863714Y98447D02*
X863714Y98447D01*
X863749Y98712D01*
X864324Y100857D01*
X865174Y102909D01*
X866284Y104832D01*
X866764Y105458D01*
X867636Y106594D01*
X869206Y108164D01*
X870968Y109516D01*
X872891Y110626D01*
X874943Y111476D01*
X877088Y112051D01*
X877353Y112086D01*
X877353Y98447D01*
X863714Y98447D01*
G37*
%LPD*%
%LPC*%
G36*
X812914Y47647D02*
X812914Y47647D01*
X812949Y47912D01*
X813524Y50057D01*
X814374Y52109D01*
X815484Y54032D01*
X816373Y55190D01*
X816373Y55191D01*
X816836Y55794D01*
X818406Y57364D01*
X820168Y58716D01*
X822091Y59826D01*
X824143Y60676D01*
X826288Y61251D01*
X826553Y61286D01*
X826553Y47647D01*
X812914Y47647D01*
G37*
%LPD*%
%LPC*%
G36*
X877088Y27949D02*
X877088Y27949D01*
X874943Y28524D01*
X872891Y29374D01*
X870968Y30484D01*
X869206Y31836D01*
X867636Y33406D01*
X866284Y35168D01*
X865174Y37091D01*
X864324Y39143D01*
X863749Y41288D01*
X863714Y41553D01*
X877353Y41553D01*
X877353Y27914D01*
X877088Y27949D01*
G37*
%LPD*%
%LPC*%
G36*
X826288Y78749D02*
X826288Y78749D01*
X824143Y79324D01*
X822091Y80174D01*
X820168Y81284D01*
X818406Y82636D01*
X816836Y84206D01*
X815484Y85968D01*
X814374Y87891D01*
X813524Y89943D01*
X812949Y92088D01*
X812914Y92353D01*
X826553Y92353D01*
X826553Y78714D01*
X826288Y78749D01*
G37*
%LPD*%
%LPC*%
G36*
X826288Y27949D02*
X826288Y27949D01*
X824143Y28524D01*
X822091Y29374D01*
X820168Y30484D01*
X818406Y31836D01*
X816836Y33406D01*
X815484Y35168D01*
X814374Y37091D01*
X813524Y39143D01*
X812949Y41288D01*
X812914Y41553D01*
X826553Y41553D01*
X826553Y27914D01*
X826288Y27949D01*
G37*
%LPD*%
%LPC*%
G36*
X441246Y326197D02*
X441246Y326197D01*
X438930Y327157D01*
X437157Y328930D01*
X436197Y331246D01*
X436197Y333754D01*
X437157Y336070D01*
X438930Y337843D01*
X441246Y338803D01*
X443754Y338803D01*
X446070Y337843D01*
X447843Y336070D01*
X448803Y333754D01*
X448803Y331246D01*
X447843Y328930D01*
X446070Y327157D01*
X443754Y326197D01*
X441246Y326197D01*
G37*
%LPD*%
%LPC*%
G36*
X332539Y186715D02*
X332539Y186715D01*
X332539Y195861D01*
X341685Y195861D01*
X341685Y193560D01*
X334840Y186715D01*
X332539Y186715D01*
G37*
%LPD*%
%LPC*%
G36*
X325160Y186715D02*
X325160Y186715D01*
X318315Y193560D01*
X318315Y195861D01*
X327461Y195861D01*
X327461Y186715D01*
X325160Y186715D01*
G37*
%LPD*%
%LPC*%
G36*
X758599Y661949D02*
X758599Y661949D01*
X758599Y671142D01*
X758896Y671095D01*
X760683Y670514D01*
X762357Y669661D01*
X763878Y668556D01*
X765206Y667228D01*
X766311Y665707D01*
X767164Y664033D01*
X767745Y662246D01*
X767792Y661949D01*
X758599Y661949D01*
G37*
%LPD*%
%LPC*%
G36*
X783999Y649249D02*
X783999Y649249D01*
X783999Y658442D01*
X784296Y658395D01*
X786083Y657814D01*
X787757Y656961D01*
X789278Y655856D01*
X790606Y654528D01*
X791711Y653007D01*
X792564Y651333D01*
X793145Y649546D01*
X793192Y649249D01*
X783999Y649249D01*
G37*
%LPD*%
%LPC*%
G36*
X744408Y661949D02*
X744408Y661949D01*
X744455Y662246D01*
X745036Y664033D01*
X745889Y665707D01*
X746994Y667228D01*
X748322Y668556D01*
X749843Y669661D01*
X751517Y670514D01*
X753304Y671095D01*
X753601Y671142D01*
X753601Y661949D01*
X744408Y661949D01*
G37*
%LPD*%
%LPC*%
G36*
X769808Y649249D02*
X769808Y649249D01*
X769855Y649546D01*
X770436Y651333D01*
X771289Y653007D01*
X772394Y654528D01*
X773722Y655856D01*
X775243Y656961D01*
X776917Y657814D01*
X778704Y658395D01*
X779001Y658442D01*
X779001Y649249D01*
X769808Y649249D01*
G37*
%LPD*%
%LPC*%
G36*
X818859Y196547D02*
X818859Y196547D01*
X818859Y205693D01*
X819116Y205653D01*
X820903Y205072D01*
X822577Y204219D01*
X824098Y203114D01*
X825426Y201786D01*
X826531Y200265D01*
X827384Y198591D01*
X827965Y196804D01*
X828005Y196547D01*
X818859Y196547D01*
G37*
%LPD*%
%LPC*%
G36*
X818859Y191469D02*
X818859Y191469D01*
X828005Y191469D01*
X827965Y191212D01*
X827384Y189425D01*
X826531Y187751D01*
X825426Y186230D01*
X824098Y184902D01*
X822577Y183797D01*
X820903Y182944D01*
X819116Y182363D01*
X818859Y182323D01*
X818859Y191469D01*
G37*
%LPD*%
%LPC*%
G36*
X404959Y338909D02*
X404959Y338909D01*
X404959Y347798D01*
X405156Y347767D01*
X406905Y347199D01*
X408544Y346364D01*
X410032Y345283D01*
X411333Y343982D01*
X412414Y342494D01*
X413249Y340855D01*
X413817Y339106D01*
X413848Y338909D01*
X404959Y338909D01*
G37*
%LPD*%
%LPC*%
G36*
X390992Y338909D02*
X390992Y338909D01*
X391023Y339106D01*
X391591Y340855D01*
X392426Y342494D01*
X393507Y343982D01*
X394808Y345283D01*
X396296Y346364D01*
X397935Y347199D01*
X399684Y347767D01*
X399881Y347798D01*
X399881Y338909D01*
X390992Y338909D01*
G37*
%LPD*%
%LPC*%
G36*
X702374Y409974D02*
X702374Y409974D01*
X702374Y418702D01*
X702581Y418669D01*
X704296Y418112D01*
X705901Y417294D01*
X707360Y416234D01*
X708634Y414960D01*
X709694Y413501D01*
X710512Y411896D01*
X711069Y410181D01*
X711102Y409974D01*
X702374Y409974D01*
G37*
%LPD*%
%LPC*%
G36*
X767374Y409974D02*
X767374Y409974D01*
X767374Y418702D01*
X767581Y418669D01*
X769296Y418112D01*
X770901Y417294D01*
X772360Y416234D01*
X773634Y414960D01*
X774694Y413501D01*
X775512Y411896D01*
X776069Y410181D01*
X776102Y409974D01*
X767374Y409974D01*
G37*
%LPD*%
%LPC*%
G36*
X767374Y405026D02*
X767374Y405026D01*
X776102Y405026D01*
X776069Y404819D01*
X775512Y403104D01*
X774694Y401499D01*
X773634Y400040D01*
X772360Y398766D01*
X770901Y397706D01*
X769296Y396888D01*
X767581Y396331D01*
X767374Y396298D01*
X767374Y405026D01*
G37*
%LPD*%
%LPC*%
G36*
X702374Y405026D02*
X702374Y405026D01*
X711102Y405026D01*
X711069Y404819D01*
X710512Y403104D01*
X709694Y401499D01*
X708634Y400040D01*
X707360Y398766D01*
X705901Y397706D01*
X704296Y396888D01*
X702581Y396331D01*
X702374Y396298D01*
X702374Y405026D01*
G37*
%LPD*%
%LPC*%
G36*
X753698Y409974D02*
X753698Y409974D01*
X753731Y410181D01*
X754288Y411896D01*
X755106Y413501D01*
X756166Y414960D01*
X757440Y416234D01*
X758899Y417294D01*
X760504Y418112D01*
X762219Y418669D01*
X762426Y418702D01*
X762426Y409974D01*
X753698Y409974D01*
G37*
%LPD*%
%LPC*%
G36*
X688698Y409974D02*
X688698Y409974D01*
X688731Y410181D01*
X689288Y411896D01*
X690106Y413501D01*
X691166Y414960D01*
X692440Y416234D01*
X693899Y417294D01*
X695504Y418112D01*
X697219Y418669D01*
X697426Y418702D01*
X697426Y409974D01*
X688698Y409974D01*
G37*
%LPD*%
%LPC*%
G36*
X697219Y396331D02*
X697219Y396331D01*
X695504Y396888D01*
X693899Y397706D01*
X692440Y398766D01*
X691166Y400040D01*
X690106Y401499D01*
X689288Y403104D01*
X688731Y404819D01*
X688698Y405026D01*
X697426Y405026D01*
X697426Y396298D01*
X697219Y396331D01*
G37*
%LPD*%
%LPC*%
G36*
X762219Y396331D02*
X762219Y396331D01*
X760504Y396888D01*
X758899Y397706D01*
X757440Y398766D01*
X756166Y400040D01*
X755106Y401499D01*
X754288Y403104D01*
X753731Y404819D01*
X753698Y405026D01*
X762426Y405026D01*
X762426Y396298D01*
X762219Y396331D01*
G37*
%LPD*%
%LPC*%
G36*
X829599Y95399D02*
X829599Y95399D01*
X829599Y95401D01*
X829601Y95401D01*
X829601Y95399D01*
X829599Y95399D01*
G37*
%LPD*%
%LPC*%
G36*
X829599Y44599D02*
X829599Y44599D01*
X829599Y44601D01*
X829601Y44601D01*
X829601Y44599D01*
X829599Y44599D01*
G37*
%LPD*%
D10*
X756100Y659450D03*
X781500Y646750D03*
X756100Y634050D03*
X756100Y608650D03*
X756100Y583250D03*
X781500Y621350D03*
X781500Y595950D03*
D11*
X781500Y570550D03*
D12*
X85000Y750000D03*
X155000Y750000D03*
X85000Y620000D03*
X155000Y620000D03*
X85000Y490000D03*
X155000Y490000D03*
X85000Y350000D03*
X155000Y350000D03*
X85000Y220000D03*
X155000Y220000D03*
X85000Y90000D03*
X155000Y90000D03*
D13*
X870000Y290000D03*
D14*
X870000Y325000D03*
X870000Y360000D03*
D13*
X870000Y180000D03*
D14*
X870000Y215000D03*
X870000Y250000D03*
D15*
X851000Y416800D02*
X833000Y416800D01*
X833000Y503300D02*
X851000Y503300D01*
X874800Y416800D02*
X892800Y416800D01*
X892800Y503300D02*
X874800Y503300D01*
D16*
X880400Y95400D03*
X880400Y44600D03*
X829600Y44600D03*
X829600Y95400D03*
D17*
X855000Y70000D03*
D18*
X646644Y346900D02*
X628356Y346900D01*
X628356Y372300D02*
X646644Y372300D01*
X646644Y397700D02*
X628356Y397700D01*
X628356Y423100D02*
X646644Y423100D01*
D13*
X870000Y730000D03*
D14*
X870000Y765000D03*
X870000Y800000D03*
D19*
X816400Y252700D03*
X791000Y252700D03*
X765600Y252700D03*
X740200Y252700D03*
X714800Y252700D03*
X689400Y252700D03*
X664000Y252700D03*
X638600Y252700D03*
X613200Y252700D03*
X587800Y252700D03*
X562400Y252700D03*
X537000Y252700D03*
X511600Y252700D03*
X816400Y227300D03*
X791000Y227300D03*
X765600Y227300D03*
X740200Y227300D03*
X714800Y227300D03*
X689400Y227300D03*
X664000Y227300D03*
X638600Y227300D03*
X613200Y227300D03*
X587800Y227300D03*
X562400Y227300D03*
X537000Y227300D03*
X511600Y227300D03*
D10*
X689320Y194008D03*
X714720Y194008D03*
X740120Y194008D03*
X765520Y194008D03*
X790920Y194008D03*
X816320Y194008D03*
D20*
X699900Y362500D03*
X699900Y407500D03*
X764900Y362500D03*
X764900Y407500D03*
D19*
X402420Y336370D03*
X402420Y310970D03*
X402420Y285570D03*
D21*
X330000Y198400D03*
X330000Y223800D03*
X330000Y249200D03*
X330000Y274600D03*
X330000Y300000D03*
X330000Y325400D03*
X330000Y350800D03*
X330000Y376200D03*
X330000Y401600D03*
D22*
X73660Y690880D03*
X73660Y561340D03*
X73660Y429260D03*
X73660Y289560D03*
X73660Y160020D03*
X73660Y30480D03*
X510780Y307940D03*
X531180Y325720D03*
X590000Y617500D03*
X642500Y575000D03*
X642500Y620000D03*
X642500Y665000D03*
X590000Y710000D03*
X590000Y660000D03*
X490300Y643180D03*
X518240Y589840D03*
X787500Y132500D03*
X208280Y71120D03*
X205000Y200000D03*
X210000Y335000D03*
X232500Y390000D03*
X208280Y467360D03*
X235000Y525000D03*
X208280Y599440D03*
X388700Y645720D03*
X362500Y630000D03*
X208280Y731520D03*
X535820Y379140D03*
X361320Y556700D03*
X628940Y725960D03*
X365760Y30480D03*
X800000Y490000D03*
X762500Y467500D03*
X372500Y445000D03*
X460000Y327500D03*
X467500Y445000D03*
X490000Y445000D03*
X490000Y420000D03*
X467500Y420000D03*
X720000Y487500D03*
X490000Y517500D03*
X572500Y500000D03*
X580000Y30000D03*
X490760Y277980D03*
X618260Y327980D03*
X793260Y327980D03*
X795760Y365480D03*
X695760Y340480D03*
X748260Y525480D03*
X720760Y595480D03*
X288260Y507980D03*
X338260Y480480D03*
X278260Y347980D03*
X280760Y200480D03*
X288260Y265480D03*
X230760Y255480D03*
X288260Y127980D03*
X345760Y417980D03*
X310760Y447980D03*
X458820Y556700D03*
X408820Y556700D03*
X550000Y722500D03*
X663940Y780960D03*
X808940Y783460D03*
X808940Y743460D03*
X763940Y745960D03*
X507500Y725000D03*
X588260Y570480D03*
X618260Y570480D03*
X688260Y542980D03*
X570760Y530480D03*
X770760Y162980D03*
X570760Y122980D03*
X610760Y275480D03*
X485760Y30480D03*
X395760Y220480D03*
X465760Y220480D03*
X335760Y130480D03*
X535760Y130480D03*
X600760Y175480D03*
X855760Y135480D03*
X230760Y120480D03*
X315760Y25480D03*
X235760Y655480D03*
X810760Y820480D03*
X660760Y820480D03*
X155760Y820480D03*
X310760Y555480D03*
X300760Y630480D03*
X495820Y374140D03*
X772514Y132500D03*
D23*
X816400Y227300D02*
X821340Y227300D01*
X838200Y244160D01*
X838200Y264480D01*
X812800Y289880D01*
X812800Y441880D01*
X816400Y227300D02*
X791000Y227300D01*
D22*
X812800Y441880D03*
D23*
X790689Y621350D02*
X781500Y621350D01*
X790689Y621350D02*
X802640Y621260D01*
X812800Y609600D01*
D22*
X812800Y609600D03*
D23*
X812500Y442180D02*
X812800Y441880D01*
X812500Y442180D02*
X812500Y477500D01*
D22*
X812500Y477500D03*
X672500Y620000D03*
X672500Y665000D03*
X672500Y575000D03*
D23*
X672500Y620000D01*
X672500Y575000D02*
X672500Y575000D01*
X672500Y620000D02*
X672500Y665000D01*
X672500Y620000D02*
X672500Y620000D01*
D22*
X837500Y212500D03*
D23*
X837500Y217500D02*
X870000Y250000D01*
D24*
X837500Y217500D02*
X837500Y212500D01*
D22*
X265000Y155000D03*
X265000Y105000D03*
D23*
X265000Y155000D01*
D22*
X255000Y240000D03*
X265000Y690000D03*
X265000Y640000D03*
D23*
X265000Y690000D01*
D22*
X265000Y560000D03*
D23*
X265000Y510000D01*
D22*
X265000Y510000D03*
X265000Y425000D03*
D23*
X265000Y375000D01*
D22*
X265000Y375000D03*
X265000Y290000D03*
D23*
X255000Y280000D01*
X255000Y240000D01*
D22*
X302500Y467500D03*
X387500Y480000D03*
X775000Y282500D03*
D23*
X775000Y305000D01*
D22*
X775000Y305000D03*
X442500Y332500D03*
X672500Y515000D03*
D23*
X672500Y575000D01*
D22*
X507500Y517500D03*
D25*
X485000Y540000D01*
X440000Y540000D01*
D22*
X440000Y540000D03*
D25*
X392500Y535000D02*
X392500Y485000D01*
X387500Y480000D01*
D22*
X392500Y535000D03*
D23*
X302500Y467500D02*
X265000Y467500D01*
D22*
X265000Y467500D03*
X642500Y460000D03*
D23*
X637500Y397700D02*
X637700Y397500D01*
D22*
X735000Y392500D03*
D23*
X735000Y352500D01*
D22*
X735000Y352500D03*
D23*
X330000Y223800D02*
X323700Y217500D01*
X262500Y217500D02*
X255000Y225000D01*
X255000Y240000D01*
X262500Y217500D02*
X323700Y217500D01*
D22*
X685000Y427500D03*
D23*
X675000Y427500D01*
X642500Y460000D01*
X645200Y397700D02*
X637500Y397700D01*
X645200Y397700D02*
X675000Y427500D01*
D22*
X635000Y305000D03*
D26*
X650000Y320000D01*
D22*
X650000Y320000D03*
X422500Y322500D03*
X452500Y312500D03*
D26*
X432500Y312500D02*
X422500Y322500D01*
X432500Y312500D02*
X452500Y312500D01*
D22*
X572500Y415000D03*
D26*
X592500Y502500D02*
X600000Y502500D01*
X592500Y502500D02*
X572500Y482500D01*
X572500Y415000D01*
D22*
X600000Y502500D03*
X585000Y415000D03*
D26*
X585000Y472500D02*
X600000Y487500D01*
X585000Y472500D02*
X585000Y415000D01*
D22*
X600000Y487500D03*
X414300Y480460D03*
D27*
X431800Y497960D02*
X431800Y521580D01*
X431800Y497960D02*
X414300Y480460D01*
D22*
X431800Y521580D03*
X415000Y377500D03*
D27*
X415000Y479760D02*
X414300Y480460D01*
X415000Y479760D02*
X415000Y377500D01*
D22*
X687500Y380000D03*
D26*
X682500Y385000D01*
X655000Y385000D01*
D22*
X655000Y385000D03*
D28*
X707500Y307500D02*
X689400Y289400D01*
X689400Y252700D01*
D22*
X707500Y307500D03*
X567500Y275000D03*
D27*
X592500Y275000D01*
D22*
X592500Y275000D03*
X556260Y202250D03*
X615950Y202250D03*
D27*
X556260Y202250D01*
D22*
X592500Y292500D03*
D27*
X565000Y292500D01*
X547500Y275000D01*
D22*
X547500Y275000D03*
X430000Y397500D03*
D28*
X435000Y402500D01*
X435000Y480000D01*
X450000Y495000D02*
X450000Y507500D01*
X450000Y495000D02*
X435000Y480000D01*
D22*
X450000Y507500D03*
D28*
X664000Y281500D02*
X695000Y312500D01*
X695000Y315000D01*
X664000Y281500D02*
X664000Y252700D01*
D22*
X695000Y315000D03*
X682500Y322500D03*
D28*
X638600Y271100D02*
X638600Y252700D01*
X682500Y315000D02*
X682500Y322500D01*
X682500Y315000D02*
X638600Y271100D01*
D22*
X538960Y188280D03*
D27*
X683592Y188280D01*
X689320Y194008D01*
D28*
X740200Y252700D02*
X740200Y304800D01*
X740000Y305000D01*
D22*
X740000Y305000D03*
X542500Y312500D03*
D26*
X587500Y327500D02*
X602500Y342500D01*
X587500Y327500D02*
X557500Y327500D01*
X542500Y312500D01*
D22*
X602500Y342500D03*
X597500Y415000D03*
D26*
X597500Y470000D02*
X600000Y472500D01*
X597500Y470000D02*
X597500Y415000D01*
D22*
X600000Y472500D03*
M02*
