G04 EAGLE Gerber RS-274X export*
G75*
%MOMM*%
%FSLAX34Y34*%
%LPD*%
%INSilkscreen Top*%
%IPPOS*%
%AMOC8*
5,1,8,0,0,1.08239X$1,22.5*%
G01*
%ADD10C,0.330200*%
%ADD11C,0.685800*%
%ADD12C,0.152400*%
%ADD13C,0.254000*%
%ADD14C,0.203200*%
%ADD15R,0.254000X0.127000*%
%ADD16R,0.127000X0.127000*%
%ADD17R,0.381000X0.127000*%
%ADD18R,0.508000X0.127000*%
%ADD19R,1.016000X0.127000*%
%ADD20R,1.651000X0.127000*%
%ADD21R,1.905000X0.127000*%
%ADD22R,1.778000X0.127000*%
%ADD23R,1.270000X0.127000*%
%ADD24R,0.635000X0.127000*%
%ADD25R,0.889000X0.127000*%
%ADD26R,1.143000X0.127000*%
%ADD27R,0.762000X0.127000*%
%ADD28R,2.159000X0.127000*%
%ADD29R,2.032000X0.127000*%
%ADD30R,1.524000X0.127000*%
%ADD31R,1.397000X0.127000*%
%ADD32R,2.667000X0.127000*%
%ADD33R,2.794000X0.127000*%
%ADD34R,2.413000X0.127000*%
%ADD35C,0.150000*%
%ADD36C,0.127000*%
%ADD37R,0.800000X0.200000*%
%ADD38R,0.200000X0.800000*%
%ADD39C,0.100000*%
%ADD40C,0.100000*%
%ADD41C,0.200000*%
%ADD42C,0.200000*%
%ADD43C,0.076200*%
%ADD44R,0.150000X0.300000*%
%ADD45R,0.300000X0.300000*%
%ADD46C,0.228600*%

G36*
X590029Y686758D02*
X590029Y686758D01*
X590085Y686761D01*
X590098Y686771D01*
X590113Y686773D01*
X590179Y686821D01*
X592679Y689321D01*
X592700Y689359D01*
X592729Y689391D01*
X592733Y689420D01*
X592747Y689444D01*
X592744Y689488D01*
X592751Y689531D01*
X592740Y689557D01*
X592739Y689585D01*
X592713Y689620D01*
X592696Y689660D01*
X592673Y689676D01*
X592656Y689699D01*
X592616Y689716D01*
X592580Y689740D01*
X592537Y689747D01*
X592525Y689752D01*
X592517Y689750D01*
X592500Y689753D01*
X587500Y689753D01*
X587458Y689741D01*
X587415Y689739D01*
X587392Y689722D01*
X587365Y689714D01*
X587336Y689682D01*
X587301Y689656D01*
X587290Y689630D01*
X587271Y689609D01*
X587264Y689566D01*
X587248Y689525D01*
X587253Y689498D01*
X587249Y689469D01*
X587266Y689429D01*
X587273Y689387D01*
X587299Y689352D01*
X587304Y689340D01*
X587311Y689335D01*
X587321Y689321D01*
X589821Y686821D01*
X589835Y686813D01*
X589844Y686801D01*
X589896Y686780D01*
X589944Y686753D01*
X589960Y686754D01*
X589975Y686748D01*
X590029Y686758D01*
G37*
G36*
X253002Y652253D02*
X253002Y652253D01*
X253031Y652249D01*
X253071Y652266D01*
X253113Y652273D01*
X253148Y652299D01*
X253160Y652304D01*
X253165Y652311D01*
X253179Y652321D01*
X255679Y654821D01*
X255687Y654835D01*
X255699Y654844D01*
X255720Y654896D01*
X255747Y654944D01*
X255746Y654960D01*
X255752Y654975D01*
X255742Y655029D01*
X255739Y655085D01*
X255729Y655098D01*
X255727Y655113D01*
X255679Y655179D01*
X253179Y657679D01*
X253141Y657700D01*
X253109Y657729D01*
X253080Y657733D01*
X253056Y657747D01*
X253012Y657744D01*
X252969Y657751D01*
X252943Y657740D01*
X252915Y657739D01*
X252880Y657713D01*
X252840Y657696D01*
X252824Y657673D01*
X252801Y657656D01*
X252784Y657616D01*
X252760Y657580D01*
X252753Y657537D01*
X252748Y657525D01*
X252750Y657517D01*
X252747Y657500D01*
X252747Y652500D01*
X252759Y652458D01*
X252761Y652415D01*
X252778Y652392D01*
X252786Y652365D01*
X252818Y652336D01*
X252844Y652301D01*
X252870Y652290D01*
X252891Y652271D01*
X252934Y652264D01*
X252975Y652248D01*
X253002Y652253D01*
G37*
G36*
X590029Y639258D02*
X590029Y639258D01*
X590085Y639261D01*
X590098Y639271D01*
X590113Y639273D01*
X590179Y639321D01*
X592679Y641821D01*
X592700Y641859D01*
X592729Y641891D01*
X592733Y641920D01*
X592747Y641944D01*
X592744Y641988D01*
X592751Y642031D01*
X592740Y642057D01*
X592739Y642085D01*
X592713Y642120D01*
X592696Y642160D01*
X592673Y642176D01*
X592656Y642199D01*
X592616Y642216D01*
X592580Y642240D01*
X592537Y642247D01*
X592525Y642252D01*
X592517Y642250D01*
X592500Y642253D01*
X587500Y642253D01*
X587458Y642241D01*
X587415Y642239D01*
X587392Y642222D01*
X587365Y642214D01*
X587336Y642182D01*
X587301Y642156D01*
X587290Y642130D01*
X587271Y642109D01*
X587264Y642066D01*
X587248Y642025D01*
X587253Y641998D01*
X587249Y641969D01*
X587266Y641929D01*
X587273Y641887D01*
X587299Y641852D01*
X587304Y641840D01*
X587311Y641835D01*
X587321Y641821D01*
X589821Y639321D01*
X589835Y639313D01*
X589844Y639301D01*
X589896Y639280D01*
X589944Y639253D01*
X589960Y639254D01*
X589975Y639248D01*
X590029Y639258D01*
G37*
G36*
X590029Y596758D02*
X590029Y596758D01*
X590085Y596761D01*
X590098Y596771D01*
X590113Y596773D01*
X590179Y596821D01*
X592679Y599321D01*
X592700Y599359D01*
X592729Y599391D01*
X592733Y599420D01*
X592747Y599444D01*
X592744Y599488D01*
X592751Y599531D01*
X592740Y599557D01*
X592739Y599585D01*
X592713Y599620D01*
X592696Y599660D01*
X592673Y599676D01*
X592656Y599699D01*
X592616Y599716D01*
X592580Y599740D01*
X592537Y599747D01*
X592525Y599752D01*
X592517Y599750D01*
X592500Y599753D01*
X587500Y599753D01*
X587458Y599741D01*
X587415Y599739D01*
X587392Y599722D01*
X587365Y599714D01*
X587336Y599682D01*
X587301Y599656D01*
X587290Y599630D01*
X587271Y599609D01*
X587264Y599566D01*
X587248Y599525D01*
X587253Y599498D01*
X587249Y599469D01*
X587266Y599429D01*
X587273Y599387D01*
X587299Y599352D01*
X587304Y599340D01*
X587311Y599335D01*
X587321Y599321D01*
X589821Y596821D01*
X589835Y596813D01*
X589844Y596801D01*
X589896Y596780D01*
X589944Y596753D01*
X589960Y596754D01*
X589975Y596748D01*
X590029Y596758D01*
G37*
G36*
X253002Y522253D02*
X253002Y522253D01*
X253031Y522249D01*
X253071Y522266D01*
X253113Y522273D01*
X253148Y522299D01*
X253160Y522304D01*
X253165Y522311D01*
X253179Y522321D01*
X255679Y524821D01*
X255687Y524835D01*
X255699Y524844D01*
X255720Y524896D01*
X255747Y524944D01*
X255746Y524960D01*
X255752Y524975D01*
X255742Y525029D01*
X255739Y525085D01*
X255729Y525098D01*
X255727Y525113D01*
X255679Y525179D01*
X253179Y527679D01*
X253141Y527700D01*
X253109Y527729D01*
X253080Y527733D01*
X253056Y527747D01*
X253012Y527744D01*
X252969Y527751D01*
X252943Y527740D01*
X252915Y527739D01*
X252880Y527713D01*
X252840Y527696D01*
X252824Y527673D01*
X252801Y527656D01*
X252784Y527616D01*
X252760Y527580D01*
X252753Y527537D01*
X252748Y527525D01*
X252750Y527517D01*
X252747Y527500D01*
X252747Y522500D01*
X252759Y522458D01*
X252761Y522415D01*
X252778Y522392D01*
X252786Y522365D01*
X252818Y522336D01*
X252844Y522301D01*
X252870Y522290D01*
X252891Y522271D01*
X252934Y522264D01*
X252975Y522248D01*
X253002Y522253D01*
G37*
G36*
X796199Y470748D02*
X796199Y470748D01*
X796255Y470751D01*
X796268Y470761D01*
X796283Y470763D01*
X796349Y470811D01*
X798849Y473311D01*
X798870Y473349D01*
X798899Y473381D01*
X798903Y473410D01*
X798917Y473434D01*
X798914Y473478D01*
X798921Y473521D01*
X798910Y473547D01*
X798909Y473575D01*
X798883Y473610D01*
X798866Y473650D01*
X798843Y473666D01*
X798826Y473689D01*
X798786Y473706D01*
X798750Y473730D01*
X798707Y473737D01*
X798695Y473742D01*
X798687Y473740D01*
X798670Y473743D01*
X793670Y473743D01*
X793628Y473731D01*
X793585Y473729D01*
X793562Y473712D01*
X793535Y473704D01*
X793506Y473672D01*
X793471Y473646D01*
X793460Y473620D01*
X793441Y473599D01*
X793434Y473556D01*
X793418Y473515D01*
X793423Y473488D01*
X793419Y473459D01*
X793436Y473419D01*
X793443Y473377D01*
X793469Y473342D01*
X793474Y473330D01*
X793481Y473325D01*
X793491Y473311D01*
X795991Y470811D01*
X796005Y470803D01*
X796014Y470791D01*
X796066Y470770D01*
X796114Y470743D01*
X796130Y470744D01*
X796145Y470738D01*
X796199Y470748D01*
G37*
G36*
X798632Y443449D02*
X798632Y443449D01*
X798675Y443451D01*
X798698Y443468D01*
X798725Y443476D01*
X798754Y443508D01*
X798789Y443534D01*
X798800Y443560D01*
X798819Y443581D01*
X798826Y443624D01*
X798842Y443665D01*
X798837Y443692D01*
X798841Y443721D01*
X798824Y443761D01*
X798817Y443803D01*
X798791Y443838D01*
X798786Y443850D01*
X798779Y443855D01*
X798769Y443869D01*
X796269Y446369D01*
X796255Y446377D01*
X796246Y446389D01*
X796194Y446410D01*
X796146Y446437D01*
X796130Y446436D01*
X796115Y446442D01*
X796061Y446432D01*
X796005Y446429D01*
X795992Y446419D01*
X795977Y446417D01*
X795911Y446369D01*
X793411Y443869D01*
X793390Y443831D01*
X793361Y443799D01*
X793357Y443770D01*
X793343Y443746D01*
X793346Y443702D01*
X793339Y443659D01*
X793350Y443633D01*
X793351Y443605D01*
X793377Y443570D01*
X793394Y443530D01*
X793417Y443514D01*
X793434Y443491D01*
X793474Y443474D01*
X793510Y443450D01*
X793553Y443443D01*
X793565Y443438D01*
X793573Y443440D01*
X793590Y443437D01*
X798590Y443437D01*
X798632Y443449D01*
G37*
G36*
X250502Y387253D02*
X250502Y387253D01*
X250531Y387249D01*
X250571Y387266D01*
X250613Y387273D01*
X250648Y387299D01*
X250660Y387304D01*
X250665Y387311D01*
X250679Y387321D01*
X253179Y389821D01*
X253187Y389835D01*
X253199Y389844D01*
X253220Y389896D01*
X253247Y389944D01*
X253246Y389960D01*
X253252Y389975D01*
X253242Y390029D01*
X253239Y390085D01*
X253229Y390098D01*
X253227Y390113D01*
X253179Y390179D01*
X250679Y392679D01*
X250641Y392700D01*
X250609Y392729D01*
X250580Y392733D01*
X250556Y392747D01*
X250512Y392744D01*
X250469Y392751D01*
X250443Y392740D01*
X250415Y392739D01*
X250380Y392713D01*
X250340Y392696D01*
X250324Y392673D01*
X250301Y392656D01*
X250284Y392616D01*
X250260Y392580D01*
X250253Y392537D01*
X250248Y392525D01*
X250250Y392517D01*
X250247Y392500D01*
X250247Y387500D01*
X250259Y387458D01*
X250261Y387415D01*
X250278Y387392D01*
X250286Y387365D01*
X250318Y387336D01*
X250344Y387301D01*
X250370Y387290D01*
X250391Y387271D01*
X250434Y387264D01*
X250475Y387248D01*
X250502Y387253D01*
G37*
G36*
X248002Y252253D02*
X248002Y252253D01*
X248031Y252249D01*
X248071Y252266D01*
X248113Y252273D01*
X248148Y252299D01*
X248160Y252304D01*
X248165Y252311D01*
X248179Y252321D01*
X250679Y254821D01*
X250687Y254835D01*
X250699Y254844D01*
X250720Y254896D01*
X250747Y254944D01*
X250746Y254960D01*
X250752Y254975D01*
X250742Y255029D01*
X250739Y255085D01*
X250729Y255098D01*
X250727Y255113D01*
X250679Y255179D01*
X248179Y257679D01*
X248141Y257700D01*
X248109Y257729D01*
X248080Y257733D01*
X248056Y257747D01*
X248012Y257744D01*
X247969Y257751D01*
X247943Y257740D01*
X247915Y257739D01*
X247880Y257713D01*
X247840Y257696D01*
X247824Y257673D01*
X247801Y257656D01*
X247784Y257616D01*
X247760Y257580D01*
X247753Y257537D01*
X247748Y257525D01*
X247750Y257517D01*
X247747Y257500D01*
X247747Y252500D01*
X247759Y252458D01*
X247761Y252415D01*
X247778Y252392D01*
X247786Y252365D01*
X247818Y252336D01*
X247844Y252301D01*
X247870Y252290D01*
X247891Y252271D01*
X247934Y252264D01*
X247975Y252248D01*
X248002Y252253D01*
G37*
G36*
X253002Y117253D02*
X253002Y117253D01*
X253031Y117249D01*
X253071Y117266D01*
X253113Y117273D01*
X253148Y117299D01*
X253160Y117304D01*
X253165Y117311D01*
X253179Y117321D01*
X255679Y119821D01*
X255687Y119835D01*
X255699Y119844D01*
X255720Y119896D01*
X255747Y119944D01*
X255746Y119960D01*
X255752Y119975D01*
X255742Y120029D01*
X255739Y120085D01*
X255729Y120098D01*
X255727Y120113D01*
X255679Y120179D01*
X253179Y122679D01*
X253141Y122700D01*
X253109Y122729D01*
X253080Y122733D01*
X253056Y122747D01*
X253012Y122744D01*
X252969Y122751D01*
X252943Y122740D01*
X252915Y122739D01*
X252880Y122713D01*
X252840Y122696D01*
X252824Y122673D01*
X252801Y122656D01*
X252784Y122616D01*
X252760Y122580D01*
X252753Y122537D01*
X252748Y122525D01*
X252750Y122517D01*
X252747Y122500D01*
X252747Y117500D01*
X252759Y117458D01*
X252761Y117415D01*
X252778Y117392D01*
X252786Y117365D01*
X252818Y117336D01*
X252844Y117301D01*
X252870Y117290D01*
X252891Y117271D01*
X252934Y117264D01*
X252975Y117248D01*
X253002Y117253D01*
G37*
G36*
X294557Y22260D02*
X294557Y22260D01*
X294585Y22261D01*
X294620Y22287D01*
X294660Y22304D01*
X294676Y22327D01*
X294699Y22344D01*
X294716Y22384D01*
X294740Y22420D01*
X294747Y22463D01*
X294752Y22475D01*
X294750Y22483D01*
X294753Y22500D01*
X294753Y27500D01*
X294741Y27542D01*
X294739Y27585D01*
X294722Y27608D01*
X294714Y27635D01*
X294682Y27664D01*
X294656Y27699D01*
X294630Y27710D01*
X294609Y27729D01*
X294566Y27736D01*
X294525Y27752D01*
X294498Y27747D01*
X294469Y27751D01*
X294429Y27734D01*
X294387Y27727D01*
X294352Y27701D01*
X294340Y27696D01*
X294335Y27689D01*
X294321Y27679D01*
X291821Y25179D01*
X291813Y25165D01*
X291801Y25156D01*
X291780Y25104D01*
X291753Y25056D01*
X291754Y25040D01*
X291748Y25025D01*
X291758Y24971D01*
X291761Y24915D01*
X291771Y24902D01*
X291773Y24887D01*
X291821Y24821D01*
X294321Y22321D01*
X294359Y22300D01*
X294391Y22271D01*
X294420Y22267D01*
X294444Y22253D01*
X294488Y22256D01*
X294531Y22249D01*
X294557Y22260D01*
G37*
D10*
X343896Y778641D02*
X339066Y778641D01*
X336651Y776226D01*
X336651Y766566D01*
X339066Y764151D01*
X343896Y764151D01*
X346311Y766566D01*
X346311Y776226D01*
X343896Y778641D01*
X353023Y773811D02*
X353023Y759321D01*
X353023Y773811D02*
X360268Y773811D01*
X362683Y771396D01*
X362683Y766566D01*
X360268Y764151D01*
X353023Y764151D01*
X371809Y764151D02*
X376639Y764151D01*
X371809Y764151D02*
X369394Y766566D01*
X369394Y771396D01*
X371809Y773811D01*
X376639Y773811D01*
X379054Y771396D01*
X379054Y768981D01*
X369394Y768981D01*
X385766Y764151D02*
X385766Y773811D01*
X393011Y773811D01*
X395426Y771396D01*
X395426Y764151D01*
X402137Y778641D02*
X411798Y778641D01*
X402137Y778641D02*
X402137Y764151D01*
X411798Y764151D01*
X406967Y771396D02*
X402137Y771396D01*
X418509Y773811D02*
X418509Y764151D01*
X418509Y773811D02*
X425754Y773811D01*
X428169Y771396D01*
X428169Y764151D01*
X437295Y764151D02*
X442126Y764151D01*
X437295Y764151D02*
X434880Y766566D01*
X434880Y771396D01*
X437295Y773811D01*
X442126Y773811D01*
X444541Y771396D01*
X444541Y768981D01*
X434880Y768981D01*
X451252Y764151D02*
X451252Y773811D01*
X451252Y768981D02*
X456082Y773811D01*
X458497Y773811D01*
X469725Y759321D02*
X472140Y759321D01*
X474555Y761736D01*
X474555Y773811D01*
X467310Y773811D01*
X464895Y771396D01*
X464895Y766566D01*
X467310Y764151D01*
X474555Y764151D01*
X481266Y766566D02*
X481266Y773811D01*
X481266Y766566D02*
X483682Y764151D01*
X490927Y764151D01*
X490927Y761736D02*
X490927Y773811D01*
X490927Y761736D02*
X488512Y759321D01*
X486097Y759321D01*
X497638Y764151D02*
X497638Y778641D01*
X502468Y773811D01*
X507298Y778641D01*
X507298Y764151D01*
X516425Y764151D02*
X521255Y764151D01*
X523670Y766566D01*
X523670Y771396D01*
X521255Y773811D01*
X516425Y773811D01*
X514010Y771396D01*
X514010Y766566D01*
X516425Y764151D01*
X530381Y764151D02*
X530381Y773811D01*
X537626Y773811D01*
X540041Y771396D01*
X540041Y764151D01*
X546753Y773811D02*
X549168Y773811D01*
X549168Y764151D01*
X546753Y764151D02*
X551583Y764151D01*
X549168Y778641D02*
X549168Y781056D01*
X560082Y776226D02*
X560082Y766566D01*
X562497Y764151D01*
X562497Y773811D02*
X557667Y773811D01*
X570997Y764151D02*
X575827Y764151D01*
X578242Y766566D01*
X578242Y771396D01*
X575827Y773811D01*
X570997Y773811D01*
X568581Y771396D01*
X568581Y766566D01*
X570997Y764151D01*
X584953Y764151D02*
X584953Y773811D01*
X584953Y768981D02*
X589783Y773811D01*
X592198Y773811D01*
X598596Y766566D02*
X598596Y764151D01*
X598596Y766566D02*
X601011Y766566D01*
X601011Y764151D01*
X598596Y764151D01*
X609197Y764151D02*
X614027Y764151D01*
X616442Y766566D01*
X616442Y771396D01*
X614027Y773811D01*
X609197Y773811D01*
X606782Y771396D01*
X606782Y766566D01*
X609197Y764151D01*
X623153Y764151D02*
X623153Y773811D01*
X623153Y768981D02*
X627983Y773811D01*
X630399Y773811D01*
X641626Y759321D02*
X644042Y759321D01*
X646457Y761736D01*
X646457Y773811D01*
X639211Y773811D01*
X636796Y771396D01*
X636796Y766566D01*
X639211Y764151D01*
X646457Y764151D01*
D11*
X354063Y790929D02*
X343640Y790929D01*
X338429Y796140D01*
X338429Y806563D01*
X343640Y811775D01*
X354063Y811775D01*
X359275Y806563D01*
X359275Y801352D01*
X338429Y801352D01*
X373511Y790929D02*
X373511Y811775D01*
X378722Y811775D01*
X383934Y806563D01*
X383934Y790929D01*
X383934Y806563D02*
X389145Y811775D01*
X394357Y806563D01*
X394357Y790929D01*
X413804Y790929D02*
X424227Y790929D01*
X429439Y796140D01*
X429439Y806563D01*
X424227Y811775D01*
X413804Y811775D01*
X408593Y806563D01*
X408593Y796140D01*
X413804Y790929D01*
X443675Y790929D02*
X443675Y811775D01*
X459309Y811775D01*
X464521Y806563D01*
X464521Y790929D01*
X478757Y790929D02*
X478757Y822198D01*
X494391Y822198D01*
X499603Y816986D01*
X499603Y806563D01*
X494391Y801352D01*
X478757Y801352D01*
X513839Y811775D02*
X519050Y811775D01*
X519050Y790929D01*
X513839Y790929D02*
X524262Y790929D01*
X519050Y822198D02*
X519050Y827409D01*
X537227Y790929D02*
X558073Y790929D01*
X537227Y790929D02*
X558073Y811775D01*
X558073Y816986D01*
X552861Y822198D01*
X542438Y822198D01*
X537227Y816986D01*
D12*
X395402Y115496D02*
X395402Y109395D01*
X398453Y109395D01*
X399470Y110412D01*
X399470Y114480D01*
X398453Y115496D01*
X395402Y115496D01*
X403436Y109395D02*
X405469Y109395D01*
X403436Y109395D02*
X402419Y110412D01*
X402419Y112446D01*
X403436Y113463D01*
X405469Y113463D01*
X406486Y112446D01*
X406486Y111429D01*
X402419Y111429D01*
X409435Y109395D02*
X412486Y109395D01*
X413503Y110412D01*
X412486Y111429D01*
X410452Y111429D01*
X409435Y112446D01*
X410452Y113463D01*
X413503Y113463D01*
X416452Y113463D02*
X417468Y113463D01*
X417468Y109395D01*
X416452Y109395D02*
X418485Y109395D01*
X417468Y115496D02*
X417468Y116513D01*
X423163Y107362D02*
X424180Y107362D01*
X425197Y108378D01*
X425197Y113463D01*
X422146Y113463D01*
X421129Y112446D01*
X421129Y110412D01*
X422146Y109395D01*
X425197Y109395D01*
X428146Y109395D02*
X428146Y113463D01*
X431196Y113463D01*
X432213Y112446D01*
X432213Y109395D01*
X436179Y109395D02*
X438212Y109395D01*
X436179Y109395D02*
X435162Y110412D01*
X435162Y112446D01*
X436179Y113463D01*
X438212Y113463D01*
X439229Y112446D01*
X439229Y111429D01*
X435162Y111429D01*
X446246Y109395D02*
X446246Y115496D01*
X446246Y109395D02*
X443195Y109395D01*
X442178Y110412D01*
X442178Y112446D01*
X443195Y113463D01*
X446246Y113463D01*
X456211Y113463D02*
X457228Y113463D01*
X457228Y109395D01*
X456211Y109395D02*
X458245Y109395D01*
X457228Y115496D02*
X457228Y116513D01*
X460889Y113463D02*
X460889Y109395D01*
X460889Y113463D02*
X463939Y113463D01*
X464956Y112446D01*
X464956Y109395D01*
X395821Y104796D02*
X395821Y98695D01*
X399889Y98695D02*
X395821Y104796D01*
X399889Y104796D02*
X399889Y98695D01*
X403855Y98695D02*
X405888Y98695D01*
X406905Y99712D01*
X406905Y101746D01*
X405888Y102763D01*
X403855Y102763D01*
X402838Y101746D01*
X402838Y99712D01*
X403855Y98695D01*
X409854Y98695D02*
X409854Y102763D01*
X409854Y100729D02*
X411888Y102763D01*
X412905Y102763D01*
X416718Y103780D02*
X416718Y99712D01*
X417735Y98695D01*
X417735Y102763D02*
X415701Y102763D01*
X420379Y104796D02*
X420379Y98695D01*
X420379Y101746D02*
X421396Y102763D01*
X423429Y102763D01*
X424446Y101746D01*
X424446Y98695D01*
X434411Y98695D02*
X434411Y104796D01*
X436445Y100729D02*
X434411Y98695D01*
X436445Y100729D02*
X438479Y98695D01*
X438479Y104796D01*
X442445Y102763D02*
X444478Y102763D01*
X445495Y101746D01*
X445495Y98695D01*
X442445Y98695D01*
X441428Y99712D01*
X442445Y100729D01*
X445495Y100729D01*
X448444Y104796D02*
X449461Y104796D01*
X449461Y98695D01*
X448444Y98695D02*
X450478Y98695D01*
X454139Y98695D02*
X456172Y98695D01*
X454139Y98695D02*
X453122Y99712D01*
X453122Y101746D01*
X454139Y102763D01*
X456172Y102763D01*
X457189Y101746D01*
X457189Y100729D01*
X453122Y100729D01*
X460138Y98695D02*
X463189Y98695D01*
X464206Y99712D01*
X463189Y100729D01*
X461155Y100729D01*
X460138Y101746D01*
X461155Y102763D01*
X464206Y102763D01*
D13*
X336270Y741270D02*
X336270Y751439D01*
X336270Y741270D02*
X341354Y741270D01*
X343049Y742965D01*
X343049Y749744D01*
X341354Y751439D01*
X336270Y751439D01*
X349659Y741270D02*
X353048Y741270D01*
X349659Y741270D02*
X347964Y742965D01*
X347964Y746354D01*
X349659Y748049D01*
X353048Y748049D01*
X354743Y746354D01*
X354743Y744660D01*
X347964Y744660D01*
X359658Y741270D02*
X364742Y741270D01*
X366437Y742965D01*
X364742Y744660D01*
X361353Y744660D01*
X359658Y746354D01*
X361353Y748049D01*
X366437Y748049D01*
X371352Y748049D02*
X373047Y748049D01*
X373047Y741270D01*
X374741Y741270D02*
X371352Y741270D01*
X373047Y751439D02*
X373047Y753133D01*
X382537Y737880D02*
X384232Y737880D01*
X385927Y739575D01*
X385927Y748049D01*
X380843Y748049D01*
X379148Y746354D01*
X379148Y742965D01*
X380843Y741270D01*
X385927Y741270D01*
X390842Y741270D02*
X390842Y748049D01*
X395926Y748049D01*
X397621Y746354D01*
X397621Y741270D01*
X404231Y741270D02*
X407620Y741270D01*
X404231Y741270D02*
X402536Y742965D01*
X402536Y746354D01*
X404231Y748049D01*
X407620Y748049D01*
X409315Y746354D01*
X409315Y744660D01*
X402536Y744660D01*
X421009Y741270D02*
X421009Y751439D01*
X421009Y741270D02*
X415925Y741270D01*
X414230Y742965D01*
X414230Y746354D01*
X415925Y748049D01*
X421009Y748049D01*
X437618Y751439D02*
X437618Y741270D01*
X442702Y741270D01*
X444397Y742965D01*
X444397Y746354D01*
X442702Y748049D01*
X437618Y748049D01*
X449312Y748049D02*
X449312Y742965D01*
X451006Y741270D01*
X456091Y741270D01*
X456091Y739575D02*
X456091Y748049D01*
X456091Y739575D02*
X454396Y737880D01*
X452701Y737880D01*
X477784Y751439D02*
X479479Y749744D01*
X477784Y751439D02*
X474394Y751439D01*
X472700Y749744D01*
X472700Y742965D01*
X474394Y741270D01*
X477784Y741270D01*
X479479Y742965D01*
X479479Y746354D01*
X476089Y746354D01*
X484394Y751439D02*
X486088Y751439D01*
X486088Y741270D01*
X484394Y741270D02*
X487783Y741270D01*
X492190Y742965D02*
X492190Y748049D01*
X492190Y742965D02*
X493884Y741270D01*
X498969Y741270D01*
X498969Y739575D02*
X498969Y748049D01*
X498969Y739575D02*
X497274Y737880D01*
X495579Y737880D01*
X503884Y741270D02*
X503884Y748049D01*
X508968Y748049D01*
X510663Y746354D01*
X510663Y741270D01*
X527271Y741270D02*
X527271Y751439D01*
X527271Y746354D02*
X534051Y746354D01*
X534051Y741270D02*
X534051Y751439D01*
X538965Y748049D02*
X538965Y742965D01*
X540660Y741270D01*
X545745Y741270D01*
X545745Y748049D01*
X557439Y751439D02*
X557439Y741270D01*
X552354Y741270D01*
X550659Y742965D01*
X550659Y746354D01*
X552354Y748049D01*
X557439Y748049D01*
X562353Y741270D02*
X567438Y741270D01*
X569133Y742965D01*
X567438Y744660D01*
X564048Y744660D01*
X562353Y746354D01*
X564048Y748049D01*
X569133Y748049D01*
X575742Y741270D02*
X579132Y741270D01*
X580826Y742965D01*
X580826Y746354D01*
X579132Y748049D01*
X575742Y748049D01*
X574047Y746354D01*
X574047Y742965D01*
X575742Y741270D01*
X585741Y741270D02*
X585741Y748049D01*
X590826Y748049D01*
X592520Y746354D01*
X592520Y741270D01*
X612519Y741270D02*
X615908Y744660D01*
X612519Y741270D02*
X610824Y741270D01*
X609129Y742965D01*
X609129Y744660D01*
X612519Y748049D01*
X612519Y749744D01*
X610824Y751439D01*
X609129Y749744D01*
X609129Y748049D01*
X615908Y741270D01*
X635907Y741270D02*
X635907Y751439D01*
X639296Y751439D02*
X632517Y751439D01*
X644211Y748049D02*
X644211Y741270D01*
X644211Y744660D02*
X647601Y748049D01*
X649296Y748049D01*
X653956Y748049D02*
X653956Y742965D01*
X655651Y741270D01*
X660735Y741270D01*
X660735Y739575D02*
X660735Y748049D01*
X660735Y739575D02*
X659040Y737880D01*
X657346Y737880D01*
X665650Y741270D02*
X670734Y741270D01*
X672429Y742965D01*
X670734Y744660D01*
X667345Y744660D01*
X665650Y746354D01*
X667345Y748049D01*
X672429Y748049D01*
X679039Y749744D02*
X679039Y742965D01*
X680734Y741270D01*
X680734Y748049D02*
X677344Y748049D01*
X686835Y748049D02*
X690224Y748049D01*
X691919Y746354D01*
X691919Y741270D01*
X686835Y741270D01*
X685140Y742965D01*
X686835Y744660D01*
X691919Y744660D01*
X696834Y741270D02*
X696834Y748049D01*
X701918Y748049D01*
X703613Y746354D01*
X703613Y741270D01*
X720222Y741270D02*
X720222Y751439D01*
X720222Y741270D02*
X727001Y741270D01*
X733611Y741270D02*
X737000Y741270D01*
X733611Y741270D02*
X731916Y742965D01*
X731916Y746354D01*
X733611Y748049D01*
X737000Y748049D01*
X738695Y746354D01*
X738695Y744660D01*
X731916Y744660D01*
X745305Y748049D02*
X748694Y748049D01*
X750389Y746354D01*
X750389Y741270D01*
X745305Y741270D01*
X743610Y742965D01*
X745305Y744660D01*
X750389Y744660D01*
D14*
X394912Y85898D02*
X394912Y77763D01*
X400335Y77763D01*
X405623Y77763D02*
X408335Y77763D01*
X405623Y77763D02*
X404267Y79119D01*
X404267Y81830D01*
X405623Y83186D01*
X408335Y83186D01*
X409690Y81830D01*
X409690Y80475D01*
X404267Y80475D01*
X414978Y83186D02*
X417690Y83186D01*
X419046Y81830D01*
X419046Y77763D01*
X414978Y77763D01*
X413622Y79119D01*
X414978Y80475D01*
X419046Y80475D01*
X428401Y77763D02*
X428401Y85898D01*
X428401Y77763D02*
X424333Y77763D01*
X422978Y79119D01*
X422978Y81830D01*
X424333Y83186D01*
X428401Y83186D01*
X443044Y84542D02*
X443044Y77763D01*
X443044Y84542D02*
X444400Y85898D01*
X444400Y81830D02*
X441688Y81830D01*
X447925Y83186D02*
X447925Y77763D01*
X447925Y80475D02*
X450636Y83186D01*
X451992Y83186D01*
X457077Y77763D02*
X459788Y77763D01*
X457077Y77763D02*
X455721Y79119D01*
X455721Y81830D01*
X457077Y83186D01*
X459788Y83186D01*
X461144Y81830D01*
X461144Y80475D01*
X455721Y80475D01*
X466432Y77763D02*
X469143Y77763D01*
X466432Y77763D02*
X465076Y79119D01*
X465076Y81830D01*
X466432Y83186D01*
X469143Y83186D01*
X470499Y81830D01*
X470499Y80475D01*
X465076Y80475D01*
X483786Y77763D02*
X483786Y85898D01*
X487854Y85898D01*
X489210Y84542D01*
X489210Y81830D01*
X487854Y80475D01*
X483786Y80475D01*
X497209Y85898D02*
X498565Y84542D01*
X497209Y85898D02*
X494497Y85898D01*
X493141Y84542D01*
X493141Y79119D01*
X494497Y77763D01*
X497209Y77763D01*
X498565Y79119D01*
X502497Y77763D02*
X502497Y85898D01*
X506564Y85898D01*
X507920Y84542D01*
X507920Y83186D01*
X506564Y81830D01*
X507920Y80475D01*
X507920Y79119D01*
X506564Y77763D01*
X502497Y77763D01*
X502497Y81830D02*
X506564Y81830D01*
X394912Y70658D02*
X394912Y62523D01*
X394912Y70658D02*
X398979Y70658D01*
X400335Y69302D01*
X400335Y66590D01*
X398979Y65235D01*
X394912Y65235D01*
X397624Y65235D02*
X400335Y62523D01*
X405623Y62523D02*
X408335Y62523D01*
X409690Y63879D01*
X409690Y66590D01*
X408335Y67946D01*
X405623Y67946D01*
X404267Y66590D01*
X404267Y63879D01*
X405623Y62523D01*
X413622Y62523D02*
X413622Y70658D01*
X413622Y66590D02*
X419046Y66590D01*
X419046Y62523D02*
X419046Y70658D01*
X427045Y70658D02*
X428401Y69302D01*
X427045Y70658D02*
X424333Y70658D01*
X422978Y69302D01*
X422978Y67946D01*
X424333Y66590D01*
X427045Y66590D01*
X428401Y65235D01*
X428401Y63879D01*
X427045Y62523D01*
X424333Y62523D01*
X422978Y63879D01*
X443044Y67946D02*
X447111Y67946D01*
X443044Y67946D02*
X441688Y66590D01*
X441688Y63879D01*
X443044Y62523D01*
X447111Y62523D01*
X452399Y62523D02*
X455111Y62523D01*
X456466Y63879D01*
X456466Y66590D01*
X455111Y67946D01*
X452399Y67946D01*
X451043Y66590D01*
X451043Y63879D01*
X452399Y62523D01*
X460398Y62523D02*
X460398Y67946D01*
X461754Y67946D01*
X463110Y66590D01*
X463110Y62523D01*
X463110Y66590D02*
X464466Y67946D01*
X465822Y66590D01*
X465822Y62523D01*
X469754Y59811D02*
X469754Y67946D01*
X473821Y67946D01*
X475177Y66590D01*
X475177Y63879D01*
X473821Y62523D01*
X469754Y62523D01*
X480465Y62523D02*
X483176Y62523D01*
X484532Y63879D01*
X484532Y66590D01*
X483176Y67946D01*
X480465Y67946D01*
X479109Y66590D01*
X479109Y63879D01*
X480465Y62523D01*
X488464Y62523D02*
X488464Y67946D01*
X492531Y67946D01*
X493887Y66590D01*
X493887Y62523D01*
X499175Y62523D02*
X501887Y62523D01*
X499175Y62523D02*
X497819Y63879D01*
X497819Y66590D01*
X499175Y67946D01*
X501887Y67946D01*
X503242Y66590D01*
X503242Y65235D01*
X497819Y65235D01*
X507174Y67946D02*
X507174Y62523D01*
X507174Y67946D02*
X511242Y67946D01*
X512598Y66590D01*
X512598Y62523D01*
X517885Y63879D02*
X517885Y69302D01*
X517885Y63879D02*
X519241Y62523D01*
X519241Y67946D02*
X516529Y67946D01*
X522766Y62523D02*
X526834Y62523D01*
X528190Y63879D01*
X526834Y65235D01*
X524122Y65235D01*
X522766Y66590D01*
X524122Y67946D01*
X528190Y67946D01*
D15*
X397840Y118242D03*
D16*
X451815Y118242D03*
D17*
X398475Y119512D03*
D18*
X429590Y119512D03*
D19*
X453720Y119512D03*
X396570Y120782D03*
D16*
X407365Y120782D03*
X425145Y120782D03*
D20*
X435305Y120782D03*
D21*
X458165Y120782D03*
D22*
X400380Y122052D03*
X433400Y122052D03*
X458800Y122052D03*
D23*
X400380Y123322D03*
D18*
X429590Y123322D03*
X435940Y123322D03*
D17*
X453085Y123322D03*
D24*
X461975Y123322D03*
D19*
X400380Y124592D03*
D15*
X429590Y124592D03*
D17*
X436575Y124592D03*
X451815Y124592D03*
D18*
X461340Y124592D03*
D15*
X395300Y125862D03*
D18*
X402920Y125862D03*
D15*
X428320Y125862D03*
X435940Y125862D03*
X460070Y125862D03*
D24*
X404825Y127132D03*
D17*
X436575Y127132D03*
X459435Y127132D03*
D24*
X406095Y128402D03*
X436575Y128402D03*
D17*
X458165Y128402D03*
D25*
X407365Y129672D03*
X436575Y129672D03*
D19*
X454990Y129672D03*
D25*
X408635Y130942D03*
X436575Y130942D03*
D26*
X454355Y130942D03*
D19*
X409270Y132212D03*
D25*
X436575Y132212D03*
D19*
X452450Y132212D03*
D25*
X409905Y133482D03*
D26*
X437845Y133482D03*
D19*
X451180Y133482D03*
D27*
X409270Y134752D03*
D17*
X416255Y134752D03*
D15*
X421970Y134752D03*
D16*
X426415Y134752D03*
D28*
X444195Y134752D03*
D27*
X409270Y136022D03*
D18*
X416890Y136022D03*
D17*
X422605Y136022D03*
D15*
X427050Y136022D03*
D16*
X430225Y136022D03*
D29*
X444830Y136022D03*
D30*
X413080Y137292D03*
D15*
X423240Y137292D03*
X427050Y137292D03*
X430860Y137292D03*
D22*
X444830Y137292D03*
D15*
X400380Y138562D03*
D20*
X412445Y138562D03*
D17*
X423875Y138562D03*
D18*
X429590Y138562D03*
D16*
X434035Y138562D03*
D22*
X444830Y138562D03*
D17*
X399745Y139832D03*
D15*
X405460Y139832D03*
D17*
X423875Y139832D03*
D15*
X428320Y139832D03*
D16*
X431495Y139832D03*
X434035Y139832D03*
D30*
X444830Y139832D03*
D18*
X399110Y141102D03*
D15*
X406730Y141102D03*
D16*
X409905Y141102D03*
D24*
X416255Y141102D03*
D16*
X427685Y141102D03*
X431495Y141102D03*
X434035Y141102D03*
X436575Y141102D03*
D31*
X445465Y141102D03*
D18*
X397840Y142372D03*
D16*
X403555Y142372D03*
D15*
X406730Y142372D03*
X411810Y142372D03*
D19*
X423240Y142372D03*
D16*
X434035Y142372D03*
X436575Y142372D03*
D26*
X444195Y142372D03*
D18*
X397840Y143642D03*
D15*
X404190Y143642D03*
D16*
X407365Y143642D03*
D28*
X421335Y143642D03*
D16*
X436575Y143642D03*
D19*
X443560Y143642D03*
D26*
X458165Y143642D03*
D16*
X387045Y144912D03*
D24*
X397205Y144912D03*
D17*
X404825Y144912D03*
D21*
X420065Y144912D03*
D18*
X433400Y144912D03*
D17*
X440385Y144912D03*
D22*
X457530Y144912D03*
D17*
X388315Y146182D03*
D27*
X396570Y146182D03*
D17*
X404825Y146182D03*
D29*
X420700Y146182D03*
D32*
X445465Y146182D03*
D18*
X465150Y146182D03*
D19*
X391490Y147452D03*
D18*
X405460Y147452D03*
D28*
X421335Y147452D03*
D21*
X442925Y147452D03*
D16*
X454355Y147452D03*
D17*
X467055Y147452D03*
D27*
X390220Y148722D03*
D18*
X405460Y148722D03*
D29*
X421970Y148722D03*
D15*
X434670Y148722D03*
D17*
X439115Y148722D03*
D19*
X447370Y148722D03*
D17*
X467055Y148722D03*
D27*
X387680Y149992D03*
D17*
X404825Y149992D03*
D22*
X420700Y149992D03*
D17*
X434035Y149992D03*
X439115Y149992D03*
X444195Y149992D03*
D16*
X449275Y149992D03*
D15*
X467690Y149992D03*
D24*
X388315Y151262D03*
D17*
X406095Y151262D03*
D23*
X418160Y151262D03*
D16*
X428955Y151262D03*
D17*
X432765Y151262D03*
D15*
X438480Y151262D03*
D17*
X444195Y151262D03*
X468325Y151262D03*
D18*
X387680Y152532D03*
X408000Y152532D03*
D22*
X421970Y152532D03*
D24*
X459435Y152532D03*
D15*
X467690Y152532D03*
D24*
X387045Y153802D03*
D15*
X409270Y153802D03*
D22*
X421970Y153802D03*
D17*
X456895Y153802D03*
D15*
X462610Y153802D03*
X467690Y153802D03*
X387680Y155072D03*
D16*
X407365Y155072D03*
D33*
X427050Y155072D03*
D15*
X456260Y155072D03*
D16*
X464515Y155072D03*
D15*
X467690Y155072D03*
X387680Y156342D03*
X409270Y156342D03*
D33*
X427050Y156342D03*
D15*
X456260Y156342D03*
D17*
X465785Y156342D03*
D15*
X387680Y157612D03*
D17*
X411175Y157612D03*
D18*
X416890Y157612D03*
D23*
X427050Y157612D03*
D27*
X439750Y157612D03*
X460070Y157612D03*
D16*
X465785Y157612D03*
D15*
X411810Y158882D03*
D18*
X416890Y158882D03*
D24*
X425145Y158882D03*
D30*
X442290Y158882D03*
D24*
X460705Y158882D03*
D16*
X465785Y158882D03*
X403555Y160152D03*
D15*
X410540Y160152D03*
D18*
X416890Y160152D03*
D33*
X435940Y160152D03*
D16*
X467055Y160152D03*
D15*
X402920Y161422D03*
D16*
X412445Y161422D03*
D18*
X418160Y161422D03*
D24*
X426415Y161422D03*
D22*
X441020Y161422D03*
D16*
X467055Y161422D03*
X470865Y161422D03*
D27*
X406730Y162692D03*
D16*
X413715Y162692D03*
D18*
X418160Y162692D03*
D27*
X427050Y162692D03*
D18*
X448640Y162692D03*
X468960Y162692D03*
D19*
X396570Y163962D03*
D24*
X408635Y163962D03*
D16*
X413715Y163962D03*
D18*
X418160Y163962D03*
D25*
X427685Y163962D03*
D15*
X435940Y163962D03*
D25*
X446735Y163962D03*
D27*
X467690Y163962D03*
D15*
X394030Y165232D03*
D18*
X409270Y165232D03*
D16*
X413715Y165232D03*
D18*
X418160Y165232D03*
D19*
X428320Y165232D03*
D20*
X445465Y165232D03*
D27*
X467690Y165232D03*
D15*
X401650Y166502D03*
D24*
X408635Y166502D03*
D18*
X418160Y166502D03*
D26*
X428955Y166502D03*
D30*
X447370Y166502D03*
D18*
X468960Y166502D03*
D23*
X405460Y167772D03*
D17*
X417525Y167772D03*
D31*
X430225Y167772D03*
D30*
X451180Y167772D03*
D17*
X469595Y167772D03*
D25*
X403555Y169042D03*
D16*
X409905Y169042D03*
D20*
X431495Y169042D03*
D23*
X452450Y169042D03*
D17*
X470865Y169042D03*
D15*
X406730Y170312D03*
D16*
X409905Y170312D03*
D19*
X416890Y170312D03*
D21*
X434035Y170312D03*
D26*
X453085Y170312D03*
D17*
X472135Y170312D03*
D30*
X414350Y171582D03*
D28*
X435305Y171582D03*
D25*
X454355Y171582D03*
D17*
X473405Y171582D03*
D18*
X410540Y172852D03*
X420700Y172852D03*
D34*
X437845Y172852D03*
D24*
X455625Y172852D03*
D15*
X474040Y172852D03*
D17*
X416255Y174122D03*
X422605Y174122D03*
D34*
X440385Y174122D03*
D17*
X456895Y174122D03*
X417525Y175392D03*
D15*
X423240Y175392D03*
D30*
X438480Y175392D03*
D18*
X452450Y175392D03*
D15*
X458800Y175392D03*
X418160Y176662D03*
X423240Y176662D03*
D31*
X440385Y176662D03*
D17*
X455625Y176662D03*
D16*
X418795Y177932D03*
X423875Y177932D03*
D23*
X442290Y177932D03*
D15*
X458800Y177932D03*
D16*
X418795Y179202D03*
D19*
X443560Y179202D03*
D15*
X461340Y179202D03*
D27*
X443560Y180472D03*
D15*
X462610Y180472D03*
D17*
X444195Y181742D03*
D15*
X463880Y181742D03*
X446100Y183012D03*
D16*
X465785Y183012D03*
X446735Y184282D03*
X448005Y185552D03*
D35*
X50000Y835000D02*
X900000Y835000D01*
X900000Y5000D02*
X50000Y5000D01*
D10*
X341481Y716651D02*
X336651Y726311D01*
X346311Y726311D02*
X341481Y716651D01*
X353023Y716651D02*
X362683Y716651D01*
X353023Y716651D02*
X362683Y726311D01*
X362683Y728726D01*
X360268Y731141D01*
X355438Y731141D01*
X353023Y728726D01*
X369394Y719066D02*
X369394Y716651D01*
X369394Y719066D02*
X371809Y719066D01*
X371809Y716651D01*
X369394Y716651D01*
X377580Y719066D02*
X377580Y728726D01*
X379995Y731141D01*
X384825Y731141D01*
X387240Y728726D01*
X387240Y719066D01*
X384825Y716651D01*
X379995Y716651D01*
X377580Y719066D01*
X387240Y728726D01*
X393951Y719066D02*
X393951Y716651D01*
X393951Y719066D02*
X396367Y719066D01*
X396367Y716651D01*
X393951Y716651D01*
X402137Y719066D02*
X402137Y728726D01*
X404552Y731141D01*
X409382Y731141D01*
X411798Y728726D01*
X411798Y719066D01*
X409382Y716651D01*
X404552Y716651D01*
X402137Y719066D01*
X411798Y728726D01*
D12*
X800944Y302685D02*
X807045Y302685D01*
X800944Y302685D02*
X800944Y305736D01*
X801960Y306753D01*
X803994Y306753D01*
X805011Y305736D01*
X805011Y302685D01*
X802977Y309702D02*
X800944Y311736D01*
X807045Y311736D01*
X807045Y313769D02*
X807045Y309702D01*
X806537Y387949D02*
X800436Y387949D01*
X800436Y391000D01*
X801452Y392017D01*
X803486Y392017D01*
X804503Y391000D01*
X804503Y387949D01*
X806537Y394966D02*
X806537Y399033D01*
X806537Y394966D02*
X802469Y399033D01*
X801452Y399033D01*
X800436Y398016D01*
X800436Y395983D01*
X801452Y394966D01*
X801452Y328595D02*
X807553Y328595D01*
X801452Y326561D02*
X801452Y330629D01*
X801452Y333578D02*
X807553Y333578D01*
X803485Y335612D02*
X801452Y333578D01*
X803485Y335612D02*
X801452Y337645D01*
X807553Y337645D01*
X807553Y340594D02*
X801452Y340594D01*
X801452Y343645D01*
X802468Y344662D01*
X804502Y344662D01*
X805519Y343645D01*
X805519Y340594D01*
X807045Y361107D02*
X800944Y361107D01*
X800944Y359073D02*
X800944Y363141D01*
X800944Y366090D02*
X807045Y366090D01*
X802977Y368124D02*
X800944Y366090D01*
X802977Y368124D02*
X800944Y370157D01*
X807045Y370157D01*
X807045Y373106D02*
X800944Y373106D01*
X800944Y376157D01*
X801960Y377174D01*
X803994Y377174D01*
X805011Y376157D01*
X805011Y373106D01*
X786779Y288293D02*
X785762Y287276D01*
X786779Y288293D02*
X788813Y288293D01*
X789829Y287276D01*
X789829Y286259D01*
X788813Y285243D01*
X787796Y285243D01*
X788813Y285243D02*
X789829Y284226D01*
X789829Y283209D01*
X788813Y282192D01*
X786779Y282192D01*
X785762Y283209D01*
X792778Y283209D02*
X792778Y282192D01*
X792778Y283209D02*
X793795Y283209D01*
X793795Y282192D01*
X792778Y282192D01*
X796287Y287276D02*
X797303Y288293D01*
X799337Y288293D01*
X800354Y287276D01*
X800354Y286259D01*
X799337Y285243D01*
X798320Y285243D01*
X799337Y285243D02*
X800354Y284226D01*
X800354Y283209D01*
X799337Y282192D01*
X797303Y282192D01*
X796287Y283209D01*
X803303Y284226D02*
X803303Y288293D01*
X803303Y284226D02*
X805337Y282192D01*
X807370Y284226D01*
X807370Y288293D01*
X789829Y276863D02*
X785762Y276863D01*
X785762Y270762D01*
X789829Y270762D01*
X787796Y273813D02*
X785762Y273813D01*
X792778Y276863D02*
X796846Y270762D01*
X792778Y270762D02*
X796846Y276863D01*
X801828Y276863D02*
X801828Y270762D01*
X799795Y276863D02*
X803862Y276863D01*
X116589Y793246D02*
X115573Y794263D01*
X113539Y794263D01*
X112522Y793246D01*
X112522Y789179D01*
X113539Y788162D01*
X115573Y788162D01*
X116589Y789179D01*
X121572Y788162D02*
X121572Y794263D01*
X119538Y794263D02*
X123606Y794263D01*
X126555Y792229D02*
X128588Y794263D01*
X128588Y788162D01*
X126555Y788162D02*
X130622Y788162D01*
X115573Y662183D02*
X116589Y661166D01*
X115573Y662183D02*
X113539Y662183D01*
X112522Y661166D01*
X112522Y657099D01*
X113539Y656082D01*
X115573Y656082D01*
X116589Y657099D01*
X121572Y656082D02*
X121572Y662183D01*
X119538Y662183D02*
X123606Y662183D01*
X126555Y656082D02*
X130622Y656082D01*
X126555Y656082D02*
X130622Y660149D01*
X130622Y661166D01*
X129605Y662183D01*
X127572Y662183D01*
X126555Y661166D01*
X115573Y535183D02*
X116589Y534166D01*
X115573Y535183D02*
X113539Y535183D01*
X112522Y534166D01*
X112522Y530099D01*
X113539Y529082D01*
X115573Y529082D01*
X116589Y530099D01*
X121572Y529082D02*
X121572Y535183D01*
X119538Y535183D02*
X123606Y535183D01*
X126555Y534166D02*
X127572Y535183D01*
X129605Y535183D01*
X130622Y534166D01*
X130622Y533149D01*
X129605Y532133D01*
X128588Y532133D01*
X129605Y532133D02*
X130622Y531116D01*
X130622Y530099D01*
X129605Y529082D01*
X127572Y529082D01*
X126555Y530099D01*
X115573Y392943D02*
X116589Y391926D01*
X115573Y392943D02*
X113539Y392943D01*
X112522Y391926D01*
X112522Y387859D01*
X113539Y386842D01*
X115573Y386842D01*
X116589Y387859D01*
X121572Y386842D02*
X121572Y392943D01*
X119538Y392943D02*
X123606Y392943D01*
X129605Y392943D02*
X129605Y386842D01*
X126555Y389893D02*
X129605Y392943D01*
X130622Y389893D02*
X126555Y389893D01*
X115573Y265943D02*
X116589Y264926D01*
X115573Y265943D02*
X113539Y265943D01*
X112522Y264926D01*
X112522Y260859D01*
X113539Y259842D01*
X115573Y259842D01*
X116589Y260859D01*
X121572Y259842D02*
X121572Y265943D01*
X119538Y265943D02*
X123606Y265943D01*
X126555Y265943D02*
X130622Y265943D01*
X126555Y265943D02*
X126555Y262893D01*
X128588Y263909D01*
X129605Y263909D01*
X130622Y262893D01*
X130622Y260859D01*
X129605Y259842D01*
X127572Y259842D01*
X126555Y260859D01*
X115573Y133863D02*
X116589Y132846D01*
X115573Y133863D02*
X113539Y133863D01*
X112522Y132846D01*
X112522Y128779D01*
X113539Y127762D01*
X115573Y127762D01*
X116589Y128779D01*
X121572Y127762D02*
X121572Y133863D01*
X119538Y133863D02*
X123606Y133863D01*
X128588Y132846D02*
X130622Y133863D01*
X128588Y132846D02*
X126555Y130813D01*
X126555Y128779D01*
X127572Y127762D01*
X129605Y127762D01*
X130622Y128779D01*
X130622Y129796D01*
X129605Y130813D01*
X126555Y130813D01*
X745762Y700296D02*
X745762Y704363D01*
X745762Y700296D02*
X747796Y698262D01*
X749829Y700296D01*
X749829Y704363D01*
X753795Y704363D02*
X755829Y704363D01*
X753795Y704363D02*
X752778Y703346D01*
X752778Y699279D01*
X753795Y698262D01*
X755829Y698262D01*
X756846Y699279D01*
X756846Y703346D01*
X755829Y704363D01*
X759795Y704363D02*
X759795Y698262D01*
X763862Y698262D01*
X768845Y698262D02*
X768845Y704363D01*
X766811Y704363D02*
X770879Y704363D01*
X773828Y702329D02*
X773828Y698262D01*
X773828Y702329D02*
X775861Y704363D01*
X777895Y702329D01*
X777895Y698262D01*
X777895Y701313D02*
X773828Y701313D01*
X783894Y704363D02*
X784911Y703346D01*
X783894Y704363D02*
X781861Y704363D01*
X780844Y703346D01*
X780844Y699279D01*
X781861Y698262D01*
X783894Y698262D01*
X784911Y699279D01*
X784911Y701313D01*
X782878Y701313D01*
X787860Y704363D02*
X791928Y704363D01*
X787860Y704363D02*
X787860Y698262D01*
X791928Y698262D01*
X789894Y701313D02*
X787860Y701313D01*
X804944Y704363D02*
X805960Y703346D01*
X804944Y704363D02*
X802910Y704363D01*
X801893Y703346D01*
X801893Y702329D01*
X802910Y701313D01*
X804944Y701313D01*
X805960Y700296D01*
X805960Y699279D01*
X804944Y698262D01*
X802910Y698262D01*
X801893Y699279D01*
X808909Y704363D02*
X812977Y704363D01*
X808909Y704363D02*
X808909Y698262D01*
X812977Y698262D01*
X810943Y701313D02*
X808909Y701313D01*
X815926Y698262D02*
X815926Y704363D01*
X819993Y698262D01*
X819993Y704363D01*
X825993Y704363D02*
X827010Y703346D01*
X825993Y704363D02*
X823959Y704363D01*
X822942Y703346D01*
X822942Y702329D01*
X823959Y701313D01*
X825993Y701313D01*
X827010Y700296D01*
X827010Y699279D01*
X825993Y698262D01*
X823959Y698262D01*
X822942Y699279D01*
X830975Y704363D02*
X833009Y704363D01*
X830975Y704363D02*
X829959Y703346D01*
X829959Y699279D01*
X830975Y698262D01*
X833009Y698262D01*
X834026Y699279D01*
X834026Y703346D01*
X833009Y704363D01*
X836975Y704363D02*
X836975Y698262D01*
X836975Y704363D02*
X840025Y704363D01*
X841042Y703346D01*
X841042Y701313D01*
X840025Y700296D01*
X836975Y700296D01*
X839009Y700296D02*
X841042Y698262D01*
X825637Y716313D02*
X826654Y717329D01*
X825637Y716313D02*
X825637Y714279D01*
X826654Y713262D01*
X830721Y713262D01*
X831738Y714279D01*
X831738Y716313D01*
X830721Y717329D01*
X828687Y717329D01*
X828687Y715296D01*
X831738Y720278D02*
X825637Y720278D01*
X831738Y724346D01*
X825637Y724346D01*
X825637Y727295D02*
X831738Y727295D01*
X831738Y730345D01*
X830721Y731362D01*
X826654Y731362D01*
X825637Y730345D01*
X825637Y727295D01*
X827671Y743262D02*
X831738Y743262D01*
X827671Y743262D02*
X825637Y745296D01*
X827671Y747329D01*
X831738Y747329D01*
X828687Y747329D02*
X828687Y743262D01*
X831738Y750278D02*
X825637Y750278D01*
X831738Y754346D01*
X825637Y754346D01*
X827671Y757295D02*
X831738Y757295D01*
X827671Y757295D02*
X825637Y759328D01*
X827671Y761362D01*
X831738Y761362D01*
X828687Y761362D02*
X828687Y757295D01*
X825637Y764311D02*
X831738Y764311D01*
X831738Y768379D01*
X825637Y772344D02*
X825637Y774378D01*
X825637Y772344D02*
X826654Y771328D01*
X830721Y771328D01*
X831738Y772344D01*
X831738Y774378D01*
X830721Y775395D01*
X826654Y775395D01*
X825637Y774378D01*
X825637Y781394D02*
X826654Y782411D01*
X825637Y781394D02*
X825637Y779361D01*
X826654Y778344D01*
X830721Y778344D01*
X831738Y779361D01*
X831738Y781394D01*
X830721Y782411D01*
X828687Y782411D01*
X828687Y780378D01*
X826654Y793262D02*
X825637Y794279D01*
X825637Y796313D01*
X826654Y797329D01*
X827671Y797329D01*
X828687Y796313D01*
X828687Y795296D01*
X828687Y796313D02*
X829704Y797329D01*
X830721Y797329D01*
X831738Y796313D01*
X831738Y794279D01*
X830721Y793262D01*
X830721Y800278D02*
X831738Y800278D01*
X830721Y800278D02*
X830721Y801295D01*
X831738Y801295D01*
X831738Y800278D01*
X826654Y803787D02*
X825637Y804803D01*
X825637Y806837D01*
X826654Y807854D01*
X827671Y807854D01*
X828687Y806837D01*
X828687Y805820D01*
X828687Y806837D02*
X829704Y807854D01*
X830721Y807854D01*
X831738Y806837D01*
X831738Y804803D01*
X830721Y803787D01*
X829704Y810803D02*
X825637Y810803D01*
X829704Y810803D02*
X831738Y812837D01*
X829704Y814870D01*
X825637Y814870D01*
X846462Y525023D02*
X846462Y519939D01*
X847479Y518922D01*
X849513Y518922D01*
X850529Y519939D01*
X850529Y525023D01*
X856529Y525023D02*
X857546Y524006D01*
X856529Y525023D02*
X854495Y525023D01*
X853478Y524006D01*
X853478Y522989D01*
X854495Y521973D01*
X856529Y521973D01*
X857546Y520956D01*
X857546Y519939D01*
X856529Y518922D01*
X854495Y518922D01*
X853478Y519939D01*
X860495Y518922D02*
X860495Y525023D01*
X863545Y525023D01*
X864562Y524006D01*
X864562Y522989D01*
X863545Y521973D01*
X864562Y520956D01*
X864562Y519939D01*
X863545Y518922D01*
X860495Y518922D01*
X860495Y521973D02*
X863545Y521973D01*
X874528Y518922D02*
X874528Y525023D01*
X877578Y525023D01*
X878595Y524006D01*
X878595Y521973D01*
X877578Y520956D01*
X874528Y520956D01*
X881544Y518922D02*
X881544Y525023D01*
X883578Y520956D02*
X881544Y518922D01*
X883578Y520956D02*
X885611Y518922D01*
X885611Y525023D01*
X888560Y525023D02*
X888560Y518922D01*
X888560Y525023D02*
X891611Y525023D01*
X892628Y524006D01*
X892628Y521973D01*
X891611Y520956D01*
X888560Y520956D01*
X890594Y520956D02*
X892628Y518922D01*
X811533Y177043D02*
X812549Y176026D01*
X811533Y177043D02*
X809499Y177043D01*
X808482Y176026D01*
X808482Y171959D01*
X809499Y170942D01*
X811533Y170942D01*
X812549Y171959D01*
X812549Y173993D01*
X810516Y173993D01*
X815498Y170942D02*
X815498Y177043D01*
X819566Y170942D01*
X819566Y177043D01*
X822515Y177043D02*
X822515Y170942D01*
X825565Y170942D01*
X826582Y171959D01*
X826582Y176026D01*
X825565Y177043D01*
X822515Y177043D01*
X764289Y177043D02*
X760222Y177043D01*
X760222Y173993D01*
X762256Y175009D01*
X763273Y175009D01*
X764289Y173993D01*
X764289Y171959D01*
X763273Y170942D01*
X761239Y170942D01*
X760222Y171959D01*
X767238Y172976D02*
X767238Y177043D01*
X767238Y172976D02*
X769272Y170942D01*
X771306Y172976D01*
X771306Y177043D01*
X736856Y177043D02*
X736856Y170942D01*
X738889Y177043D02*
X734822Y177043D01*
X741838Y177043D02*
X745906Y170942D01*
X741838Y170942D02*
X745906Y177043D01*
X709422Y177043D02*
X709422Y170942D01*
X709422Y177043D02*
X712473Y177043D01*
X713489Y176026D01*
X713489Y173993D01*
X712473Y172976D01*
X709422Y172976D01*
X711456Y172976D02*
X713489Y170942D01*
X716438Y177043D02*
X720506Y170942D01*
X716438Y170942D02*
X720506Y177043D01*
X671321Y183642D02*
X666237Y183642D01*
X671321Y183642D02*
X672338Y184659D01*
X672338Y186693D01*
X671321Y187709D01*
X666237Y187709D01*
X668271Y190658D02*
X672338Y190658D01*
X668271Y190658D02*
X666237Y192692D01*
X668271Y194726D01*
X672338Y194726D01*
X669287Y194726D02*
X669287Y190658D01*
X672338Y197675D02*
X666237Y197675D01*
X666237Y200725D01*
X667254Y201742D01*
X669287Y201742D01*
X670304Y200725D01*
X670304Y197675D01*
X670304Y199708D02*
X672338Y201742D01*
X672338Y206725D02*
X666237Y206725D01*
X666237Y204691D02*
X666237Y208759D01*
X719207Y666313D02*
X720224Y667329D01*
X719207Y666313D02*
X719207Y664279D01*
X720224Y663262D01*
X724291Y663262D01*
X725308Y664279D01*
X725308Y666313D01*
X724291Y667329D01*
X722257Y667329D01*
X722257Y665296D01*
X725308Y670278D02*
X719207Y670278D01*
X725308Y674346D01*
X719207Y674346D01*
X719207Y677295D02*
X725308Y677295D01*
X725308Y680345D01*
X724291Y681362D01*
X720224Y681362D01*
X719207Y680345D01*
X719207Y677295D01*
X730637Y663262D02*
X736738Y663262D01*
X736738Y667329D01*
X736738Y670278D02*
X736738Y672312D01*
X736738Y671295D02*
X730637Y671295D01*
X730637Y670278D02*
X730637Y672312D01*
X730637Y674956D02*
X736738Y674956D01*
X736738Y679023D02*
X730637Y674956D01*
X730637Y679023D02*
X736738Y679023D01*
X736738Y681972D02*
X730637Y681972D01*
X734704Y681972D02*
X730637Y686040D01*
X733687Y682989D02*
X736738Y686040D01*
X393966Y269564D02*
X392949Y268548D01*
X393966Y269564D02*
X396000Y269564D01*
X397017Y268548D01*
X397017Y267531D01*
X396000Y266514D01*
X394983Y266514D01*
X396000Y266514D02*
X397017Y265497D01*
X397017Y264480D01*
X396000Y263463D01*
X393966Y263463D01*
X392949Y264480D01*
X399966Y264480D02*
X399966Y263463D01*
X399966Y264480D02*
X400983Y264480D01*
X400983Y263463D01*
X399966Y263463D01*
X403474Y268548D02*
X404491Y269564D01*
X406525Y269564D01*
X407541Y268548D01*
X407541Y267531D01*
X406525Y266514D01*
X405508Y266514D01*
X406525Y266514D02*
X407541Y265497D01*
X407541Y264480D01*
X406525Y263463D01*
X404491Y263463D01*
X403474Y264480D01*
X410490Y265497D02*
X410490Y269564D01*
X410490Y265497D02*
X412524Y263463D01*
X414558Y265497D01*
X414558Y269564D01*
X397017Y358548D02*
X396000Y359564D01*
X393966Y359564D01*
X392949Y358548D01*
X392949Y354480D01*
X393966Y353463D01*
X396000Y353463D01*
X397017Y354480D01*
X397017Y356514D01*
X394983Y356514D01*
X399966Y353463D02*
X399966Y359564D01*
X404033Y353463D01*
X404033Y359564D01*
X406982Y359564D02*
X406982Y353463D01*
X410033Y353463D01*
X411050Y354480D01*
X411050Y358548D01*
X410033Y359564D01*
X406982Y359564D01*
D14*
X745000Y538800D02*
X745000Y691200D01*
X745000Y538800D02*
X875000Y538800D01*
X875000Y691200D01*
X745000Y691200D01*
D12*
X720000Y655500D02*
X720000Y639500D01*
X737500Y636500D02*
X737603Y636512D01*
X737705Y636527D01*
X737806Y636546D01*
X737907Y636568D01*
X738007Y636595D01*
X738106Y636625D01*
X738203Y636659D01*
X738299Y636696D01*
X738394Y636737D01*
X738487Y636782D01*
X738579Y636830D01*
X738668Y636881D01*
X738756Y636936D01*
X738841Y636994D01*
X738925Y637055D01*
X739005Y637119D01*
X739084Y637186D01*
X739160Y637256D01*
X739233Y637329D01*
X739303Y637404D01*
X739371Y637482D01*
X739436Y637563D01*
X739497Y637646D01*
X739556Y637731D01*
X739611Y637818D01*
X739663Y637908D01*
X739711Y637999D01*
X739756Y638092D01*
X739798Y638186D01*
X739836Y638282D01*
X739870Y638380D01*
X739901Y638478D01*
X739928Y638578D01*
X739951Y638678D01*
X739971Y638780D01*
X739986Y638882D01*
X739998Y638984D01*
X740006Y639087D01*
X740010Y639191D01*
X740011Y639294D01*
X740007Y639397D01*
X740000Y639500D01*
X740000Y655500D02*
X740007Y655603D01*
X740011Y655706D01*
X740010Y655809D01*
X740006Y655913D01*
X739998Y656016D01*
X739986Y656118D01*
X739971Y656220D01*
X739951Y656322D01*
X739928Y656422D01*
X739901Y656522D01*
X739870Y656620D01*
X739836Y656718D01*
X739798Y656814D01*
X739756Y656908D01*
X739711Y657001D01*
X739663Y657092D01*
X739611Y657182D01*
X739556Y657269D01*
X739497Y657354D01*
X739436Y657437D01*
X739371Y657518D01*
X739303Y657596D01*
X739233Y657671D01*
X739160Y657744D01*
X739084Y657814D01*
X739005Y657881D01*
X738925Y657945D01*
X738841Y658006D01*
X738756Y658064D01*
X738668Y658119D01*
X738579Y658170D01*
X738487Y658218D01*
X738394Y658263D01*
X738299Y658304D01*
X738203Y658341D01*
X738106Y658375D01*
X738007Y658405D01*
X737907Y658432D01*
X737806Y658454D01*
X737705Y658473D01*
X737603Y658488D01*
X737500Y658500D01*
X722500Y658500D02*
X722397Y658489D01*
X722295Y658474D01*
X722193Y658455D01*
X722093Y658432D01*
X721993Y658406D01*
X721894Y658376D01*
X721796Y658342D01*
X721700Y658305D01*
X721605Y658264D01*
X721512Y658219D01*
X721420Y658171D01*
X721331Y658120D01*
X721243Y658065D01*
X721158Y658007D01*
X721074Y657946D01*
X720993Y657882D01*
X720915Y657815D01*
X720839Y657745D01*
X720766Y657672D01*
X720695Y657596D01*
X720627Y657518D01*
X720563Y657438D01*
X720501Y657355D01*
X720443Y657270D01*
X720388Y657182D01*
X720336Y657093D01*
X720287Y657002D01*
X720242Y656909D01*
X720201Y656814D01*
X720163Y656718D01*
X720128Y656621D01*
X720098Y656522D01*
X720071Y656422D01*
X720047Y656322D01*
X720028Y656220D01*
X720012Y656118D01*
X720001Y656015D01*
X719993Y655912D01*
X719989Y655809D01*
X719988Y655706D01*
X719992Y655602D01*
X720000Y655499D01*
X720000Y639500D02*
X719993Y639397D01*
X719989Y639294D01*
X719990Y639191D01*
X719994Y639087D01*
X720002Y638984D01*
X720014Y638882D01*
X720029Y638780D01*
X720049Y638678D01*
X720072Y638578D01*
X720099Y638478D01*
X720130Y638380D01*
X720164Y638282D01*
X720202Y638186D01*
X720244Y638092D01*
X720289Y637999D01*
X720337Y637908D01*
X720389Y637818D01*
X720444Y637731D01*
X720503Y637646D01*
X720564Y637563D01*
X720629Y637482D01*
X720697Y637404D01*
X720767Y637329D01*
X720840Y637256D01*
X720916Y637186D01*
X720995Y637119D01*
X721075Y637055D01*
X721159Y636994D01*
X721244Y636936D01*
X721332Y636881D01*
X721421Y636830D01*
X721513Y636782D01*
X721606Y636737D01*
X721701Y636696D01*
X721797Y636659D01*
X721894Y636625D01*
X721993Y636595D01*
X722093Y636568D01*
X722194Y636546D01*
X722295Y636527D01*
X722397Y636512D01*
X722500Y636500D01*
X737500Y636500D01*
X737500Y658500D02*
X722500Y658500D01*
X740000Y655500D02*
X740000Y639500D01*
X627366Y588310D02*
X620756Y588310D01*
X620756Y591614D01*
X621858Y592716D01*
X624061Y592716D01*
X625163Y591614D01*
X625163Y588310D01*
X625163Y590513D02*
X627366Y592716D01*
X621858Y595794D02*
X620756Y596895D01*
X620756Y599099D01*
X621858Y600200D01*
X622960Y600200D01*
X624061Y599099D01*
X624061Y597997D01*
X624061Y599099D02*
X625163Y600200D01*
X626264Y600200D01*
X627366Y599099D01*
X627366Y596895D01*
X626264Y595794D01*
X622960Y603278D02*
X620756Y605481D01*
X627366Y605481D01*
X627366Y603278D02*
X627366Y607684D01*
D36*
X585746Y603500D02*
X585746Y591500D01*
X594254Y591500D02*
X594254Y603500D01*
X590000Y597000D02*
X587500Y599500D01*
X592500Y599500D01*
X590000Y597000D01*
D37*
X590000Y595754D03*
D12*
X581618Y594442D02*
X575008Y594442D01*
X581618Y594442D02*
X581618Y597747D01*
X580516Y598848D01*
X576110Y598848D01*
X575008Y597747D01*
X575008Y594442D01*
X575008Y601926D02*
X575008Y606333D01*
X576110Y606333D01*
X580516Y601926D01*
X581618Y601926D01*
X680756Y588310D02*
X687366Y588310D01*
X680756Y588310D02*
X680756Y591614D01*
X681858Y592716D01*
X684061Y592716D01*
X685163Y591614D01*
X685163Y588310D01*
X685163Y590513D02*
X687366Y592716D01*
X682960Y595794D02*
X680756Y597997D01*
X687366Y597997D01*
X687366Y595794D02*
X687366Y600200D01*
X681858Y603278D02*
X680756Y604379D01*
X680756Y606583D01*
X681858Y607684D01*
X682960Y607684D01*
X684061Y606583D01*
X684061Y605481D01*
X684061Y606583D02*
X685163Y607684D01*
X686264Y607684D01*
X687366Y606583D01*
X687366Y604379D01*
X686264Y603278D01*
X657366Y588310D02*
X650756Y588310D01*
X650756Y591614D01*
X651858Y592716D01*
X654061Y592716D01*
X655163Y591614D01*
X655163Y588310D01*
X655163Y590513D02*
X657366Y592716D01*
X657366Y595794D02*
X657366Y600200D01*
X657366Y595794D02*
X652960Y600200D01*
X651858Y600200D01*
X650756Y599099D01*
X650756Y596895D01*
X651858Y595794D01*
X657366Y603278D02*
X657366Y607684D01*
X657366Y603278D02*
X652960Y607684D01*
X651858Y607684D01*
X650756Y606583D01*
X650756Y604379D01*
X651858Y603278D01*
X701567Y622372D02*
X702668Y621270D01*
X701567Y622372D02*
X699364Y622372D01*
X698262Y621270D01*
X698262Y616864D01*
X699364Y615762D01*
X701567Y615762D01*
X702668Y616864D01*
X705746Y622372D02*
X710153Y622372D01*
X710153Y621270D01*
X705746Y616864D01*
X705746Y615762D01*
X627366Y633310D02*
X620756Y633310D01*
X620756Y636614D01*
X621858Y637716D01*
X624061Y637716D01*
X625163Y636614D01*
X625163Y633310D01*
X625163Y635513D02*
X627366Y637716D01*
X621858Y640794D02*
X620756Y641895D01*
X620756Y644099D01*
X621858Y645200D01*
X622960Y645200D01*
X624061Y644099D01*
X624061Y642997D01*
X624061Y644099D02*
X625163Y645200D01*
X626264Y645200D01*
X627366Y644099D01*
X627366Y641895D01*
X626264Y640794D01*
X627366Y648278D02*
X627366Y652684D01*
X627366Y648278D02*
X622960Y652684D01*
X621858Y652684D01*
X620756Y651583D01*
X620756Y649379D01*
X621858Y648278D01*
D36*
X585746Y646000D02*
X585746Y634000D01*
X594254Y634000D02*
X594254Y646000D01*
X590000Y639500D02*
X587500Y642000D01*
X592500Y642000D01*
X590000Y639500D01*
D37*
X590000Y638254D03*
D12*
X581738Y635762D02*
X575128Y635762D01*
X581738Y635762D02*
X581738Y639067D01*
X580636Y640168D01*
X576230Y640168D01*
X575128Y639067D01*
X575128Y635762D01*
X576230Y643246D02*
X575128Y644348D01*
X575128Y646551D01*
X576230Y647653D01*
X577332Y647653D01*
X578433Y646551D01*
X579535Y647653D01*
X580636Y647653D01*
X581738Y646551D01*
X581738Y644348D01*
X580636Y643246D01*
X579535Y643246D01*
X578433Y644348D01*
X577332Y643246D01*
X576230Y643246D01*
X578433Y644348D02*
X578433Y646551D01*
X680756Y633310D02*
X687366Y633310D01*
X680756Y633310D02*
X680756Y636614D01*
X681858Y637716D01*
X684061Y637716D01*
X685163Y636614D01*
X685163Y633310D01*
X685163Y635513D02*
X687366Y637716D01*
X682960Y640794D02*
X680756Y642997D01*
X687366Y642997D01*
X687366Y640794D02*
X687366Y645200D01*
X687366Y651583D02*
X680756Y651583D01*
X684061Y648278D01*
X684061Y652684D01*
X657366Y633310D02*
X650756Y633310D01*
X650756Y636614D01*
X651858Y637716D01*
X654061Y637716D01*
X655163Y636614D01*
X655163Y633310D01*
X655163Y635513D02*
X657366Y637716D01*
X657366Y640794D02*
X657366Y645200D01*
X657366Y640794D02*
X652960Y645200D01*
X651858Y645200D01*
X650756Y644099D01*
X650756Y641895D01*
X651858Y640794D01*
X651858Y648278D02*
X650756Y649379D01*
X650756Y651583D01*
X651858Y652684D01*
X652960Y652684D01*
X654061Y651583D01*
X654061Y650481D01*
X654061Y651583D02*
X655163Y652684D01*
X656264Y652684D01*
X657366Y651583D01*
X657366Y649379D01*
X656264Y648278D01*
X699067Y667372D02*
X700168Y666270D01*
X699067Y667372D02*
X696864Y667372D01*
X695762Y666270D01*
X695762Y661864D01*
X696864Y660762D01*
X699067Y660762D01*
X700168Y661864D01*
X703246Y666270D02*
X704348Y667372D01*
X706551Y667372D01*
X707653Y666270D01*
X707653Y665168D01*
X706551Y664067D01*
X707653Y662965D01*
X707653Y661864D01*
X706551Y660762D01*
X704348Y660762D01*
X703246Y661864D01*
X703246Y662965D01*
X704348Y664067D01*
X703246Y665168D01*
X703246Y666270D01*
X704348Y664067D02*
X706551Y664067D01*
X627366Y678310D02*
X620756Y678310D01*
X620756Y681614D01*
X621858Y682716D01*
X624061Y682716D01*
X625163Y681614D01*
X625163Y678310D01*
X625163Y680513D02*
X627366Y682716D01*
X621858Y685794D02*
X620756Y686895D01*
X620756Y689099D01*
X621858Y690200D01*
X622960Y690200D01*
X624061Y689099D01*
X624061Y687997D01*
X624061Y689099D02*
X625163Y690200D01*
X626264Y690200D01*
X627366Y689099D01*
X627366Y686895D01*
X626264Y685794D01*
X621858Y693278D02*
X620756Y694379D01*
X620756Y696583D01*
X621858Y697684D01*
X622960Y697684D01*
X624061Y696583D01*
X624061Y695481D01*
X624061Y696583D02*
X625163Y697684D01*
X626264Y697684D01*
X627366Y696583D01*
X627366Y694379D01*
X626264Y693278D01*
D36*
X585746Y693500D02*
X585746Y681500D01*
X594254Y681500D02*
X594254Y693500D01*
X590000Y687000D02*
X587500Y689500D01*
X592500Y689500D01*
X590000Y687000D01*
D37*
X590000Y685754D03*
D12*
X581738Y683262D02*
X575128Y683262D01*
X581738Y683262D02*
X581738Y686567D01*
X580636Y687668D01*
X576230Y687668D01*
X575128Y686567D01*
X575128Y683262D01*
X580636Y690746D02*
X581738Y691848D01*
X581738Y694051D01*
X580636Y695153D01*
X576230Y695153D01*
X575128Y694051D01*
X575128Y691848D01*
X576230Y690746D01*
X577332Y690746D01*
X578433Y691848D01*
X578433Y695153D01*
X680756Y678310D02*
X687366Y678310D01*
X680756Y678310D02*
X680756Y681614D01*
X681858Y682716D01*
X684061Y682716D01*
X685163Y681614D01*
X685163Y678310D01*
X685163Y680513D02*
X687366Y682716D01*
X682960Y685794D02*
X680756Y687997D01*
X687366Y687997D01*
X687366Y685794D02*
X687366Y690200D01*
X680756Y693278D02*
X680756Y697684D01*
X680756Y693278D02*
X684061Y693278D01*
X682960Y695481D01*
X682960Y696583D01*
X684061Y697684D01*
X686264Y697684D01*
X687366Y696583D01*
X687366Y694379D01*
X686264Y693278D01*
X657366Y678310D02*
X650756Y678310D01*
X650756Y681614D01*
X651858Y682716D01*
X654061Y682716D01*
X655163Y681614D01*
X655163Y678310D01*
X655163Y680513D02*
X657366Y682716D01*
X657366Y685794D02*
X657366Y690200D01*
X657366Y685794D02*
X652960Y690200D01*
X651858Y690200D01*
X650756Y689099D01*
X650756Y686895D01*
X651858Y685794D01*
X650756Y696583D02*
X657366Y696583D01*
X654061Y693278D02*
X650756Y696583D01*
X654061Y697684D02*
X654061Y693278D01*
X701567Y712372D02*
X702668Y711270D01*
X701567Y712372D02*
X699364Y712372D01*
X698262Y711270D01*
X698262Y706864D01*
X699364Y705762D01*
X701567Y705762D01*
X702668Y706864D01*
X705746Y706864D02*
X706848Y705762D01*
X709051Y705762D01*
X710153Y706864D01*
X710153Y711270D01*
X709051Y712372D01*
X706848Y712372D01*
X705746Y711270D01*
X705746Y710168D01*
X706848Y709067D01*
X710153Y709067D01*
X129182Y690012D02*
X129182Y683402D01*
X129182Y690012D02*
X132487Y690012D01*
X133588Y688910D01*
X133588Y686707D01*
X132487Y685605D01*
X129182Y685605D01*
X131385Y685605D02*
X133588Y683402D01*
X136666Y687808D02*
X138869Y690012D01*
X138869Y683402D01*
X136666Y683402D02*
X141073Y683402D01*
X240762Y683262D02*
X240762Y689872D01*
X244067Y689872D01*
X245168Y688770D01*
X245168Y686567D01*
X244067Y685465D01*
X240762Y685465D01*
X242965Y685465D02*
X245168Y683262D01*
X248246Y683262D02*
X252653Y683262D01*
X252653Y687668D02*
X248246Y683262D01*
X252653Y687668D02*
X252653Y688770D01*
X251551Y689872D01*
X249348Y689872D01*
X248246Y688770D01*
X255730Y689872D02*
X260137Y689872D01*
X255730Y689872D02*
X255730Y686567D01*
X257934Y687668D01*
X259035Y687668D01*
X260137Y686567D01*
X260137Y684364D01*
X259035Y683262D01*
X256832Y683262D01*
X255730Y684364D01*
D36*
X261000Y650746D02*
X249000Y650746D01*
X249000Y659254D02*
X261000Y659254D01*
X255500Y655000D02*
X253000Y652500D01*
X253000Y657500D01*
X255500Y655000D01*
D38*
X256746Y655000D03*
D12*
X270128Y650762D02*
X276738Y650762D01*
X276738Y654067D01*
X275636Y655168D01*
X271230Y655168D01*
X270128Y654067D01*
X270128Y650762D01*
X272332Y658246D02*
X270128Y660449D01*
X276738Y660449D01*
X276738Y658246D02*
X276738Y662653D01*
D13*
X50000Y768000D02*
X25000Y768000D01*
X25000Y732000D01*
X50000Y732000D01*
X50000Y768000D01*
X50000Y780000D01*
X50000Y732000D02*
X50000Y720000D01*
X107500Y780000D02*
X195000Y780000D01*
X195000Y741200D02*
X195000Y720000D01*
X184390Y720000D01*
X151680Y720000D02*
X87250Y720000D01*
X80600Y780000D02*
X50000Y780000D01*
X54386Y702400D02*
X54388Y702453D01*
X54394Y702507D01*
X54404Y702559D01*
X54417Y702611D01*
X54435Y702662D01*
X54456Y702711D01*
X54481Y702758D01*
X54509Y702804D01*
X54540Y702847D01*
X54575Y702888D01*
X54612Y702926D01*
X54653Y702961D01*
X54695Y702993D01*
X54740Y703022D01*
X54787Y703048D01*
X54836Y703070D01*
X54886Y703089D01*
X54938Y703103D01*
X54990Y703114D01*
X55043Y703121D01*
X55097Y703124D01*
X55150Y703123D01*
X55203Y703118D01*
X55256Y703109D01*
X55308Y703096D01*
X55359Y703080D01*
X55409Y703060D01*
X55456Y703036D01*
X55502Y703008D01*
X55546Y702978D01*
X55588Y702944D01*
X55627Y702907D01*
X55663Y702868D01*
X55696Y702826D01*
X55726Y702781D01*
X55752Y702735D01*
X55775Y702686D01*
X55794Y702636D01*
X55810Y702585D01*
X55822Y702533D01*
X55830Y702480D01*
X55834Y702427D01*
X55834Y702373D01*
X55830Y702320D01*
X55822Y702267D01*
X55810Y702215D01*
X55794Y702164D01*
X55775Y702114D01*
X55752Y702065D01*
X55726Y702019D01*
X55696Y701974D01*
X55663Y701932D01*
X55627Y701893D01*
X55588Y701856D01*
X55546Y701822D01*
X55502Y701792D01*
X55456Y701764D01*
X55409Y701740D01*
X55359Y701720D01*
X55308Y701704D01*
X55256Y701691D01*
X55203Y701682D01*
X55150Y701677D01*
X55097Y701676D01*
X55043Y701679D01*
X54990Y701686D01*
X54938Y701697D01*
X54886Y701711D01*
X54836Y701730D01*
X54787Y701752D01*
X54740Y701778D01*
X54695Y701807D01*
X54653Y701839D01*
X54612Y701874D01*
X54575Y701912D01*
X54540Y701953D01*
X54509Y701996D01*
X54481Y702042D01*
X54456Y702089D01*
X54435Y702138D01*
X54417Y702189D01*
X54404Y702241D01*
X54394Y702293D01*
X54388Y702347D01*
X54386Y702400D01*
X50000Y720000D02*
X60630Y720000D01*
D12*
X113808Y748490D02*
X114909Y747388D01*
X116011Y747388D01*
X117113Y748490D01*
X117113Y753998D01*
X118214Y753998D02*
X116011Y753998D01*
X121292Y751794D02*
X123495Y753998D01*
X123495Y747388D01*
X121292Y747388D02*
X125698Y747388D01*
X200762Y719872D02*
X200762Y713262D01*
X200762Y719872D02*
X204067Y719872D01*
X205168Y718770D01*
X205168Y716567D01*
X204067Y715465D01*
X200762Y715465D01*
X202965Y715465D02*
X205168Y713262D01*
X208246Y717668D02*
X210449Y719872D01*
X210449Y713262D01*
X208246Y713262D02*
X212653Y713262D01*
X217934Y718770D02*
X220137Y719872D01*
X217934Y718770D02*
X215730Y716567D01*
X215730Y714364D01*
X216832Y713262D01*
X219035Y713262D01*
X220137Y714364D01*
X220137Y715465D01*
X219035Y716567D01*
X215730Y716567D01*
X240762Y713262D02*
X240762Y719872D01*
X244067Y719872D01*
X245168Y718770D01*
X245168Y716567D01*
X244067Y715465D01*
X240762Y715465D01*
X242965Y715465D02*
X245168Y713262D01*
X248246Y719872D02*
X252653Y719872D01*
X252653Y718770D01*
X248246Y714364D01*
X248246Y713262D01*
X205168Y688770D02*
X204067Y689872D01*
X201864Y689872D01*
X200762Y688770D01*
X200762Y684364D01*
X201864Y683262D01*
X204067Y683262D01*
X205168Y684364D01*
X208246Y687668D02*
X210449Y689872D01*
X210449Y683262D01*
X208246Y683262D02*
X212653Y683262D01*
X127142Y559972D02*
X127142Y553362D01*
X127142Y559972D02*
X130447Y559972D01*
X131548Y558870D01*
X131548Y556667D01*
X130447Y555565D01*
X127142Y555565D01*
X129345Y555565D02*
X131548Y553362D01*
X134626Y553362D02*
X139033Y553362D01*
X139033Y557768D02*
X134626Y553362D01*
X139033Y557768D02*
X139033Y558870D01*
X137931Y559972D01*
X135728Y559972D01*
X134626Y558870D01*
X240762Y559872D02*
X240762Y553262D01*
X240762Y559872D02*
X244067Y559872D01*
X245168Y558770D01*
X245168Y556567D01*
X244067Y555465D01*
X240762Y555465D01*
X242965Y555465D02*
X245168Y553262D01*
X248246Y553262D02*
X252653Y553262D01*
X252653Y557668D02*
X248246Y553262D01*
X252653Y557668D02*
X252653Y558770D01*
X251551Y559872D01*
X249348Y559872D01*
X248246Y558770D01*
X257934Y558770D02*
X260137Y559872D01*
X257934Y558770D02*
X255730Y556567D01*
X255730Y554364D01*
X256832Y553262D01*
X259035Y553262D01*
X260137Y554364D01*
X260137Y555465D01*
X259035Y556567D01*
X255730Y556567D01*
D36*
X261000Y520746D02*
X249000Y520746D01*
X249000Y529254D02*
X261000Y529254D01*
X255500Y525000D02*
X253000Y522500D01*
X253000Y527500D01*
X255500Y525000D01*
D38*
X256746Y525000D03*
D12*
X270128Y520762D02*
X276738Y520762D01*
X276738Y524067D01*
X275636Y525168D01*
X271230Y525168D01*
X270128Y524067D01*
X270128Y520762D01*
X276738Y528246D02*
X276738Y532653D01*
X272332Y532653D02*
X276738Y528246D01*
X272332Y532653D02*
X271230Y532653D01*
X270128Y531551D01*
X270128Y529348D01*
X271230Y528246D01*
D13*
X50000Y638000D02*
X25000Y638000D01*
X25000Y602000D01*
X50000Y602000D01*
X50000Y638000D01*
X50000Y650000D01*
X50000Y602000D02*
X50000Y590000D01*
X107500Y650000D02*
X195000Y650000D01*
X195000Y611200D02*
X195000Y590000D01*
X184390Y590000D01*
X151680Y590000D02*
X87250Y590000D01*
X80600Y650000D02*
X50000Y650000D01*
X54386Y572400D02*
X54388Y572453D01*
X54394Y572507D01*
X54404Y572559D01*
X54417Y572611D01*
X54435Y572662D01*
X54456Y572711D01*
X54481Y572758D01*
X54509Y572804D01*
X54540Y572847D01*
X54575Y572888D01*
X54612Y572926D01*
X54653Y572961D01*
X54695Y572993D01*
X54740Y573022D01*
X54787Y573048D01*
X54836Y573070D01*
X54886Y573089D01*
X54938Y573103D01*
X54990Y573114D01*
X55043Y573121D01*
X55097Y573124D01*
X55150Y573123D01*
X55203Y573118D01*
X55256Y573109D01*
X55308Y573096D01*
X55359Y573080D01*
X55409Y573060D01*
X55456Y573036D01*
X55502Y573008D01*
X55546Y572978D01*
X55588Y572944D01*
X55627Y572907D01*
X55663Y572868D01*
X55696Y572826D01*
X55726Y572781D01*
X55752Y572735D01*
X55775Y572686D01*
X55794Y572636D01*
X55810Y572585D01*
X55822Y572533D01*
X55830Y572480D01*
X55834Y572427D01*
X55834Y572373D01*
X55830Y572320D01*
X55822Y572267D01*
X55810Y572215D01*
X55794Y572164D01*
X55775Y572114D01*
X55752Y572065D01*
X55726Y572019D01*
X55696Y571974D01*
X55663Y571932D01*
X55627Y571893D01*
X55588Y571856D01*
X55546Y571822D01*
X55502Y571792D01*
X55456Y571764D01*
X55409Y571740D01*
X55359Y571720D01*
X55308Y571704D01*
X55256Y571691D01*
X55203Y571682D01*
X55150Y571677D01*
X55097Y571676D01*
X55043Y571679D01*
X54990Y571686D01*
X54938Y571697D01*
X54886Y571711D01*
X54836Y571730D01*
X54787Y571752D01*
X54740Y571778D01*
X54695Y571807D01*
X54653Y571839D01*
X54612Y571874D01*
X54575Y571912D01*
X54540Y571953D01*
X54509Y571996D01*
X54481Y572042D01*
X54456Y572089D01*
X54435Y572138D01*
X54417Y572189D01*
X54404Y572241D01*
X54394Y572293D01*
X54388Y572347D01*
X54386Y572400D01*
X50000Y590000D02*
X60630Y590000D01*
D12*
X113808Y618490D02*
X114909Y617388D01*
X116011Y617388D01*
X117113Y618490D01*
X117113Y623998D01*
X118214Y623998D02*
X116011Y623998D01*
X121292Y617388D02*
X125698Y617388D01*
X121292Y617388D02*
X125698Y621794D01*
X125698Y622896D01*
X124597Y623998D01*
X122394Y623998D01*
X121292Y622896D01*
X200762Y592372D02*
X200762Y585762D01*
X200762Y592372D02*
X204067Y592372D01*
X205168Y591270D01*
X205168Y589067D01*
X204067Y587965D01*
X200762Y587965D01*
X202965Y587965D02*
X205168Y585762D01*
X208246Y590168D02*
X210449Y592372D01*
X210449Y585762D01*
X208246Y585762D02*
X212653Y585762D01*
X215730Y592372D02*
X220137Y592372D01*
X220137Y591270D01*
X215730Y586864D01*
X215730Y585762D01*
X240762Y585762D02*
X240762Y592372D01*
X244067Y592372D01*
X245168Y591270D01*
X245168Y589067D01*
X244067Y587965D01*
X240762Y587965D01*
X242965Y587965D02*
X245168Y585762D01*
X248246Y591270D02*
X249348Y592372D01*
X251551Y592372D01*
X252653Y591270D01*
X252653Y590168D01*
X251551Y589067D01*
X252653Y587965D01*
X252653Y586864D01*
X251551Y585762D01*
X249348Y585762D01*
X248246Y586864D01*
X248246Y587965D01*
X249348Y589067D01*
X248246Y590168D01*
X248246Y591270D01*
X249348Y589067D02*
X251551Y589067D01*
X205168Y558770D02*
X204067Y559872D01*
X201864Y559872D01*
X200762Y558770D01*
X200762Y554364D01*
X201864Y553262D01*
X204067Y553262D01*
X205168Y554364D01*
X208246Y553262D02*
X212653Y553262D01*
X212653Y557668D02*
X208246Y553262D01*
X212653Y557668D02*
X212653Y558770D01*
X211551Y559872D01*
X209348Y559872D01*
X208246Y558770D01*
X125022Y428872D02*
X125022Y422262D01*
X125022Y428872D02*
X128327Y428872D01*
X129428Y427770D01*
X129428Y425567D01*
X128327Y424465D01*
X125022Y424465D01*
X127225Y424465D02*
X129428Y422262D01*
X132506Y427770D02*
X133608Y428872D01*
X135811Y428872D01*
X136913Y427770D01*
X136913Y426668D01*
X135811Y425567D01*
X134709Y425567D01*
X135811Y425567D02*
X136913Y424465D01*
X136913Y423364D01*
X135811Y422262D01*
X133608Y422262D01*
X132506Y423364D01*
X240762Y424872D02*
X240762Y418262D01*
X240762Y424872D02*
X244067Y424872D01*
X245168Y423770D01*
X245168Y421567D01*
X244067Y420465D01*
X240762Y420465D01*
X242965Y420465D02*
X245168Y418262D01*
X248246Y418262D02*
X252653Y418262D01*
X252653Y422668D02*
X248246Y418262D01*
X252653Y422668D02*
X252653Y423770D01*
X251551Y424872D01*
X249348Y424872D01*
X248246Y423770D01*
X255730Y424872D02*
X260137Y424872D01*
X260137Y423770D01*
X255730Y419364D01*
X255730Y418262D01*
D36*
X258500Y385746D02*
X246500Y385746D01*
X246500Y394254D02*
X258500Y394254D01*
X253000Y390000D02*
X250500Y387500D01*
X250500Y392500D01*
X253000Y390000D01*
D38*
X254246Y390000D03*
D12*
X267628Y385762D02*
X274238Y385762D01*
X274238Y389067D01*
X273136Y390168D01*
X268730Y390168D01*
X267628Y389067D01*
X267628Y385762D01*
X268730Y393246D02*
X267628Y394348D01*
X267628Y396551D01*
X268730Y397653D01*
X269832Y397653D01*
X270933Y396551D01*
X270933Y395449D01*
X270933Y396551D02*
X272035Y397653D01*
X273136Y397653D01*
X274238Y396551D01*
X274238Y394348D01*
X273136Y393246D01*
D13*
X50000Y508000D02*
X25000Y508000D01*
X25000Y472000D01*
X50000Y472000D01*
X50000Y508000D01*
X50000Y520000D01*
X50000Y472000D02*
X50000Y460000D01*
X107500Y520000D02*
X195000Y520000D01*
X195000Y481200D02*
X195000Y460000D01*
X184390Y460000D01*
X151680Y460000D02*
X87250Y460000D01*
X80600Y520000D02*
X50000Y520000D01*
X54386Y442400D02*
X54388Y442453D01*
X54394Y442507D01*
X54404Y442559D01*
X54417Y442611D01*
X54435Y442662D01*
X54456Y442711D01*
X54481Y442758D01*
X54509Y442804D01*
X54540Y442847D01*
X54575Y442888D01*
X54612Y442926D01*
X54653Y442961D01*
X54695Y442993D01*
X54740Y443022D01*
X54787Y443048D01*
X54836Y443070D01*
X54886Y443089D01*
X54938Y443103D01*
X54990Y443114D01*
X55043Y443121D01*
X55097Y443124D01*
X55150Y443123D01*
X55203Y443118D01*
X55256Y443109D01*
X55308Y443096D01*
X55359Y443080D01*
X55409Y443060D01*
X55456Y443036D01*
X55502Y443008D01*
X55546Y442978D01*
X55588Y442944D01*
X55627Y442907D01*
X55663Y442868D01*
X55696Y442826D01*
X55726Y442781D01*
X55752Y442735D01*
X55775Y442686D01*
X55794Y442636D01*
X55810Y442585D01*
X55822Y442533D01*
X55830Y442480D01*
X55834Y442427D01*
X55834Y442373D01*
X55830Y442320D01*
X55822Y442267D01*
X55810Y442215D01*
X55794Y442164D01*
X55775Y442114D01*
X55752Y442065D01*
X55726Y442019D01*
X55696Y441974D01*
X55663Y441932D01*
X55627Y441893D01*
X55588Y441856D01*
X55546Y441822D01*
X55502Y441792D01*
X55456Y441764D01*
X55409Y441740D01*
X55359Y441720D01*
X55308Y441704D01*
X55256Y441691D01*
X55203Y441682D01*
X55150Y441677D01*
X55097Y441676D01*
X55043Y441679D01*
X54990Y441686D01*
X54938Y441697D01*
X54886Y441711D01*
X54836Y441730D01*
X54787Y441752D01*
X54740Y441778D01*
X54695Y441807D01*
X54653Y441839D01*
X54612Y441874D01*
X54575Y441912D01*
X54540Y441953D01*
X54509Y441996D01*
X54481Y442042D01*
X54456Y442089D01*
X54435Y442138D01*
X54417Y442189D01*
X54404Y442241D01*
X54394Y442293D01*
X54388Y442347D01*
X54386Y442400D01*
X50000Y460000D02*
X60630Y460000D01*
D12*
X113808Y488490D02*
X114909Y487388D01*
X116011Y487388D01*
X117113Y488490D01*
X117113Y493998D01*
X118214Y493998D02*
X116011Y493998D01*
X121292Y492896D02*
X122394Y493998D01*
X124597Y493998D01*
X125698Y492896D01*
X125698Y491794D01*
X124597Y490693D01*
X123495Y490693D01*
X124597Y490693D02*
X125698Y489591D01*
X125698Y488490D01*
X124597Y487388D01*
X122394Y487388D01*
X121292Y488490D01*
X200762Y457372D02*
X200762Y450762D01*
X200762Y457372D02*
X204067Y457372D01*
X205168Y456270D01*
X205168Y454067D01*
X204067Y452965D01*
X200762Y452965D01*
X202965Y452965D02*
X205168Y450762D01*
X208246Y455168D02*
X210449Y457372D01*
X210449Y450762D01*
X208246Y450762D02*
X212653Y450762D01*
X215730Y456270D02*
X216832Y457372D01*
X219035Y457372D01*
X220137Y456270D01*
X220137Y455168D01*
X219035Y454067D01*
X220137Y452965D01*
X220137Y451864D01*
X219035Y450762D01*
X216832Y450762D01*
X215730Y451864D01*
X215730Y452965D01*
X216832Y454067D01*
X215730Y455168D01*
X215730Y456270D01*
X216832Y454067D02*
X219035Y454067D01*
X240762Y450762D02*
X240762Y457372D01*
X244067Y457372D01*
X245168Y456270D01*
X245168Y454067D01*
X244067Y452965D01*
X240762Y452965D01*
X242965Y452965D02*
X245168Y450762D01*
X248246Y451864D02*
X249348Y450762D01*
X251551Y450762D01*
X252653Y451864D01*
X252653Y456270D01*
X251551Y457372D01*
X249348Y457372D01*
X248246Y456270D01*
X248246Y455168D01*
X249348Y454067D01*
X252653Y454067D01*
X205168Y423770D02*
X204067Y424872D01*
X201864Y424872D01*
X200762Y423770D01*
X200762Y419364D01*
X201864Y418262D01*
X204067Y418262D01*
X205168Y419364D01*
X208246Y423770D02*
X209348Y424872D01*
X211551Y424872D01*
X212653Y423770D01*
X212653Y422668D01*
X211551Y421567D01*
X210449Y421567D01*
X211551Y421567D02*
X212653Y420465D01*
X212653Y419364D01*
X211551Y418262D01*
X209348Y418262D01*
X208246Y419364D01*
X125362Y290012D02*
X125362Y283402D01*
X125362Y290012D02*
X128667Y290012D01*
X129768Y288910D01*
X129768Y286707D01*
X128667Y285605D01*
X125362Y285605D01*
X127565Y285605D02*
X129768Y283402D01*
X136151Y283402D02*
X136151Y290012D01*
X132846Y286707D01*
X137253Y286707D01*
X240762Y289872D02*
X240762Y283262D01*
X240762Y289872D02*
X244067Y289872D01*
X245168Y288770D01*
X245168Y286567D01*
X244067Y285465D01*
X240762Y285465D01*
X242965Y285465D02*
X245168Y283262D01*
X248246Y283262D02*
X252653Y283262D01*
X252653Y287668D02*
X248246Y283262D01*
X252653Y287668D02*
X252653Y288770D01*
X251551Y289872D01*
X249348Y289872D01*
X248246Y288770D01*
X255730Y288770D02*
X256832Y289872D01*
X259035Y289872D01*
X260137Y288770D01*
X260137Y287668D01*
X259035Y286567D01*
X260137Y285465D01*
X260137Y284364D01*
X259035Y283262D01*
X256832Y283262D01*
X255730Y284364D01*
X255730Y285465D01*
X256832Y286567D01*
X255730Y287668D01*
X255730Y288770D01*
X256832Y286567D02*
X259035Y286567D01*
D36*
X256000Y250746D02*
X244000Y250746D01*
X244000Y259254D02*
X256000Y259254D01*
X250500Y255000D02*
X248000Y252500D01*
X248000Y257500D01*
X250500Y255000D01*
D38*
X251746Y255000D03*
D12*
X233262Y247372D02*
X233262Y240762D01*
X236567Y240762D01*
X237668Y241864D01*
X237668Y246270D01*
X236567Y247372D01*
X233262Y247372D01*
X244051Y247372D02*
X244051Y240762D01*
X240746Y244067D02*
X244051Y247372D01*
X245153Y244067D02*
X240746Y244067D01*
D13*
X50000Y368000D02*
X25000Y368000D01*
X25000Y332000D01*
X50000Y332000D01*
X50000Y368000D01*
X50000Y380000D01*
X50000Y332000D02*
X50000Y320000D01*
X107500Y380000D02*
X195000Y380000D01*
X195000Y341200D02*
X195000Y320000D01*
X184390Y320000D01*
X151680Y320000D02*
X87250Y320000D01*
X80600Y380000D02*
X50000Y380000D01*
X54386Y302400D02*
X54388Y302453D01*
X54394Y302507D01*
X54404Y302559D01*
X54417Y302611D01*
X54435Y302662D01*
X54456Y302711D01*
X54481Y302758D01*
X54509Y302804D01*
X54540Y302847D01*
X54575Y302888D01*
X54612Y302926D01*
X54653Y302961D01*
X54695Y302993D01*
X54740Y303022D01*
X54787Y303048D01*
X54836Y303070D01*
X54886Y303089D01*
X54938Y303103D01*
X54990Y303114D01*
X55043Y303121D01*
X55097Y303124D01*
X55150Y303123D01*
X55203Y303118D01*
X55256Y303109D01*
X55308Y303096D01*
X55359Y303080D01*
X55409Y303060D01*
X55456Y303036D01*
X55502Y303008D01*
X55546Y302978D01*
X55588Y302944D01*
X55627Y302907D01*
X55663Y302868D01*
X55696Y302826D01*
X55726Y302781D01*
X55752Y302735D01*
X55775Y302686D01*
X55794Y302636D01*
X55810Y302585D01*
X55822Y302533D01*
X55830Y302480D01*
X55834Y302427D01*
X55834Y302373D01*
X55830Y302320D01*
X55822Y302267D01*
X55810Y302215D01*
X55794Y302164D01*
X55775Y302114D01*
X55752Y302065D01*
X55726Y302019D01*
X55696Y301974D01*
X55663Y301932D01*
X55627Y301893D01*
X55588Y301856D01*
X55546Y301822D01*
X55502Y301792D01*
X55456Y301764D01*
X55409Y301740D01*
X55359Y301720D01*
X55308Y301704D01*
X55256Y301691D01*
X55203Y301682D01*
X55150Y301677D01*
X55097Y301676D01*
X55043Y301679D01*
X54990Y301686D01*
X54938Y301697D01*
X54886Y301711D01*
X54836Y301730D01*
X54787Y301752D01*
X54740Y301778D01*
X54695Y301807D01*
X54653Y301839D01*
X54612Y301874D01*
X54575Y301912D01*
X54540Y301953D01*
X54509Y301996D01*
X54481Y302042D01*
X54456Y302089D01*
X54435Y302138D01*
X54417Y302189D01*
X54404Y302241D01*
X54394Y302293D01*
X54388Y302347D01*
X54386Y302400D01*
X50000Y320000D02*
X60630Y320000D01*
D12*
X113808Y348490D02*
X114909Y347388D01*
X116011Y347388D01*
X117113Y348490D01*
X117113Y353998D01*
X118214Y353998D02*
X116011Y353998D01*
X124597Y353998D02*
X124597Y347388D01*
X121292Y350693D02*
X124597Y353998D01*
X125698Y350693D02*
X121292Y350693D01*
X200762Y319872D02*
X200762Y313262D01*
X200762Y319872D02*
X204067Y319872D01*
X205168Y318770D01*
X205168Y316567D01*
X204067Y315465D01*
X200762Y315465D01*
X202965Y315465D02*
X205168Y313262D01*
X208246Y317668D02*
X210449Y319872D01*
X210449Y313262D01*
X208246Y313262D02*
X212653Y313262D01*
X215730Y314364D02*
X216832Y313262D01*
X219035Y313262D01*
X220137Y314364D01*
X220137Y318770D01*
X219035Y319872D01*
X216832Y319872D01*
X215730Y318770D01*
X215730Y317668D01*
X216832Y316567D01*
X220137Y316567D01*
X240762Y313262D02*
X240762Y319872D01*
X244067Y319872D01*
X245168Y318770D01*
X245168Y316567D01*
X244067Y315465D01*
X240762Y315465D01*
X242965Y315465D02*
X245168Y313262D01*
X248246Y317668D02*
X250449Y319872D01*
X250449Y313262D01*
X248246Y313262D02*
X252653Y313262D01*
X255730Y314364D02*
X255730Y318770D01*
X256832Y319872D01*
X259035Y319872D01*
X260137Y318770D01*
X260137Y314364D01*
X259035Y313262D01*
X256832Y313262D01*
X255730Y314364D01*
X260137Y318770D01*
X205168Y288770D02*
X204067Y289872D01*
X201864Y289872D01*
X200762Y288770D01*
X200762Y284364D01*
X201864Y283262D01*
X204067Y283262D01*
X205168Y284364D01*
X211551Y283262D02*
X211551Y289872D01*
X208246Y286567D01*
X212653Y286567D01*
X125822Y160012D02*
X125822Y153402D01*
X125822Y160012D02*
X129127Y160012D01*
X130228Y158910D01*
X130228Y156707D01*
X129127Y155605D01*
X125822Y155605D01*
X128025Y155605D02*
X130228Y153402D01*
X133306Y160012D02*
X137713Y160012D01*
X133306Y160012D02*
X133306Y156707D01*
X135509Y157808D01*
X136611Y157808D01*
X137713Y156707D01*
X137713Y154504D01*
X136611Y153402D01*
X134408Y153402D01*
X133306Y154504D01*
X240762Y154872D02*
X240762Y148262D01*
X240762Y154872D02*
X244067Y154872D01*
X245168Y153770D01*
X245168Y151567D01*
X244067Y150465D01*
X240762Y150465D01*
X242965Y150465D02*
X245168Y148262D01*
X248246Y148262D02*
X252653Y148262D01*
X252653Y152668D02*
X248246Y148262D01*
X252653Y152668D02*
X252653Y153770D01*
X251551Y154872D01*
X249348Y154872D01*
X248246Y153770D01*
X255730Y149364D02*
X256832Y148262D01*
X259035Y148262D01*
X260137Y149364D01*
X260137Y153770D01*
X259035Y154872D01*
X256832Y154872D01*
X255730Y153770D01*
X255730Y152668D01*
X256832Y151567D01*
X260137Y151567D01*
D36*
X261000Y115746D02*
X249000Y115746D01*
X249000Y124254D02*
X261000Y124254D01*
X255500Y120000D02*
X253000Y117500D01*
X253000Y122500D01*
X255500Y120000D01*
D38*
X256746Y120000D03*
D12*
X243262Y109872D02*
X243262Y103262D01*
X246567Y103262D01*
X247668Y104364D01*
X247668Y108770D01*
X246567Y109872D01*
X243262Y109872D01*
X250746Y109872D02*
X255153Y109872D01*
X250746Y109872D02*
X250746Y106567D01*
X252949Y107668D01*
X254051Y107668D01*
X255153Y106567D01*
X255153Y104364D01*
X254051Y103262D01*
X251848Y103262D01*
X250746Y104364D01*
D13*
X50000Y238000D02*
X25000Y238000D01*
X25000Y202000D01*
X50000Y202000D01*
X50000Y238000D01*
X50000Y250000D01*
X50000Y202000D02*
X50000Y190000D01*
X107500Y250000D02*
X195000Y250000D01*
X195000Y211200D02*
X195000Y190000D01*
X184390Y190000D01*
X151680Y190000D02*
X87250Y190000D01*
X80600Y250000D02*
X50000Y250000D01*
X54386Y172400D02*
X54388Y172453D01*
X54394Y172507D01*
X54404Y172559D01*
X54417Y172611D01*
X54435Y172662D01*
X54456Y172711D01*
X54481Y172758D01*
X54509Y172804D01*
X54540Y172847D01*
X54575Y172888D01*
X54612Y172926D01*
X54653Y172961D01*
X54695Y172993D01*
X54740Y173022D01*
X54787Y173048D01*
X54836Y173070D01*
X54886Y173089D01*
X54938Y173103D01*
X54990Y173114D01*
X55043Y173121D01*
X55097Y173124D01*
X55150Y173123D01*
X55203Y173118D01*
X55256Y173109D01*
X55308Y173096D01*
X55359Y173080D01*
X55409Y173060D01*
X55456Y173036D01*
X55502Y173008D01*
X55546Y172978D01*
X55588Y172944D01*
X55627Y172907D01*
X55663Y172868D01*
X55696Y172826D01*
X55726Y172781D01*
X55752Y172735D01*
X55775Y172686D01*
X55794Y172636D01*
X55810Y172585D01*
X55822Y172533D01*
X55830Y172480D01*
X55834Y172427D01*
X55834Y172373D01*
X55830Y172320D01*
X55822Y172267D01*
X55810Y172215D01*
X55794Y172164D01*
X55775Y172114D01*
X55752Y172065D01*
X55726Y172019D01*
X55696Y171974D01*
X55663Y171932D01*
X55627Y171893D01*
X55588Y171856D01*
X55546Y171822D01*
X55502Y171792D01*
X55456Y171764D01*
X55409Y171740D01*
X55359Y171720D01*
X55308Y171704D01*
X55256Y171691D01*
X55203Y171682D01*
X55150Y171677D01*
X55097Y171676D01*
X55043Y171679D01*
X54990Y171686D01*
X54938Y171697D01*
X54886Y171711D01*
X54836Y171730D01*
X54787Y171752D01*
X54740Y171778D01*
X54695Y171807D01*
X54653Y171839D01*
X54612Y171874D01*
X54575Y171912D01*
X54540Y171953D01*
X54509Y171996D01*
X54481Y172042D01*
X54456Y172089D01*
X54435Y172138D01*
X54417Y172189D01*
X54404Y172241D01*
X54394Y172293D01*
X54388Y172347D01*
X54386Y172400D01*
X50000Y190000D02*
X60630Y190000D01*
D12*
X113808Y218490D02*
X114909Y217388D01*
X116011Y217388D01*
X117113Y218490D01*
X117113Y223998D01*
X118214Y223998D02*
X116011Y223998D01*
X121292Y223998D02*
X125698Y223998D01*
X121292Y223998D02*
X121292Y220693D01*
X123495Y221794D01*
X124597Y221794D01*
X125698Y220693D01*
X125698Y218490D01*
X124597Y217388D01*
X122394Y217388D01*
X121292Y218490D01*
X200762Y184872D02*
X200762Y178262D01*
X200762Y184872D02*
X204067Y184872D01*
X205168Y183770D01*
X205168Y181567D01*
X204067Y180465D01*
X200762Y180465D01*
X202965Y180465D02*
X205168Y178262D01*
X208246Y178262D02*
X212653Y178262D01*
X212653Y182668D02*
X208246Y178262D01*
X212653Y182668D02*
X212653Y183770D01*
X211551Y184872D01*
X209348Y184872D01*
X208246Y183770D01*
X215730Y183770D02*
X215730Y179364D01*
X215730Y183770D02*
X216832Y184872D01*
X219035Y184872D01*
X220137Y183770D01*
X220137Y179364D01*
X219035Y178262D01*
X216832Y178262D01*
X215730Y179364D01*
X220137Y183770D01*
X240762Y184872D02*
X240762Y178262D01*
X240762Y184872D02*
X244067Y184872D01*
X245168Y183770D01*
X245168Y181567D01*
X244067Y180465D01*
X240762Y180465D01*
X242965Y180465D02*
X245168Y178262D01*
X248246Y182668D02*
X250449Y184872D01*
X250449Y178262D01*
X248246Y178262D02*
X252653Y178262D01*
X255730Y182668D02*
X257934Y184872D01*
X257934Y178262D01*
X260137Y178262D02*
X255730Y178262D01*
X205168Y153770D02*
X204067Y154872D01*
X201864Y154872D01*
X200762Y153770D01*
X200762Y149364D01*
X201864Y148262D01*
X204067Y148262D01*
X205168Y149364D01*
X208246Y154872D02*
X212653Y154872D01*
X208246Y154872D02*
X208246Y151567D01*
X210449Y152668D01*
X211551Y152668D01*
X212653Y151567D01*
X212653Y149364D01*
X211551Y148262D01*
X209348Y148262D01*
X208246Y149364D01*
X126282Y30012D02*
X126282Y23402D01*
X126282Y30012D02*
X129587Y30012D01*
X130688Y28910D01*
X130688Y26707D01*
X129587Y25605D01*
X126282Y25605D01*
X128485Y25605D02*
X130688Y23402D01*
X135969Y28910D02*
X138173Y30012D01*
X135969Y28910D02*
X133766Y26707D01*
X133766Y24504D01*
X134868Y23402D01*
X137071Y23402D01*
X138173Y24504D01*
X138173Y25605D01*
X137071Y26707D01*
X133766Y26707D01*
X240762Y33262D02*
X240762Y39872D01*
X244067Y39872D01*
X245168Y38770D01*
X245168Y36567D01*
X244067Y35465D01*
X240762Y35465D01*
X242965Y35465D02*
X245168Y33262D01*
X248246Y38770D02*
X249348Y39872D01*
X251551Y39872D01*
X252653Y38770D01*
X252653Y37668D01*
X251551Y36567D01*
X250449Y36567D01*
X251551Y36567D02*
X252653Y35465D01*
X252653Y34364D01*
X251551Y33262D01*
X249348Y33262D01*
X248246Y34364D01*
X255730Y34364D02*
X255730Y38770D01*
X256832Y39872D01*
X259035Y39872D01*
X260137Y38770D01*
X260137Y34364D01*
X259035Y33262D01*
X256832Y33262D01*
X255730Y34364D01*
X260137Y38770D01*
D36*
X286500Y29254D02*
X298500Y29254D01*
X298500Y20746D02*
X286500Y20746D01*
X292000Y25000D02*
X294500Y27500D01*
X294500Y22500D01*
X292000Y25000D01*
D38*
X290754Y25000D03*
D12*
X285602Y17132D02*
X285602Y10522D01*
X288907Y10522D01*
X290008Y11624D01*
X290008Y16030D01*
X288907Y17132D01*
X285602Y17132D01*
X295289Y16030D02*
X297493Y17132D01*
X295289Y16030D02*
X293086Y13827D01*
X293086Y11624D01*
X294188Y10522D01*
X296391Y10522D01*
X297493Y11624D01*
X297493Y12725D01*
X296391Y13827D01*
X293086Y13827D01*
D13*
X50000Y108000D02*
X25000Y108000D01*
X25000Y72000D01*
X50000Y72000D01*
X50000Y108000D01*
X50000Y120000D01*
X50000Y72000D02*
X50000Y60000D01*
X107500Y120000D02*
X195000Y120000D01*
X195000Y81200D02*
X195000Y60000D01*
X184390Y60000D01*
X151680Y60000D02*
X87250Y60000D01*
X80600Y120000D02*
X50000Y120000D01*
X54386Y42400D02*
X54388Y42453D01*
X54394Y42507D01*
X54404Y42559D01*
X54417Y42611D01*
X54435Y42662D01*
X54456Y42711D01*
X54481Y42758D01*
X54509Y42804D01*
X54540Y42847D01*
X54575Y42888D01*
X54612Y42926D01*
X54653Y42961D01*
X54695Y42993D01*
X54740Y43022D01*
X54787Y43048D01*
X54836Y43070D01*
X54886Y43089D01*
X54938Y43103D01*
X54990Y43114D01*
X55043Y43121D01*
X55097Y43124D01*
X55150Y43123D01*
X55203Y43118D01*
X55256Y43109D01*
X55308Y43096D01*
X55359Y43080D01*
X55409Y43060D01*
X55456Y43036D01*
X55502Y43008D01*
X55546Y42978D01*
X55588Y42944D01*
X55627Y42907D01*
X55663Y42868D01*
X55696Y42826D01*
X55726Y42781D01*
X55752Y42735D01*
X55775Y42686D01*
X55794Y42636D01*
X55810Y42585D01*
X55822Y42533D01*
X55830Y42480D01*
X55834Y42427D01*
X55834Y42373D01*
X55830Y42320D01*
X55822Y42267D01*
X55810Y42215D01*
X55794Y42164D01*
X55775Y42114D01*
X55752Y42065D01*
X55726Y42019D01*
X55696Y41974D01*
X55663Y41932D01*
X55627Y41893D01*
X55588Y41856D01*
X55546Y41822D01*
X55502Y41792D01*
X55456Y41764D01*
X55409Y41740D01*
X55359Y41720D01*
X55308Y41704D01*
X55256Y41691D01*
X55203Y41682D01*
X55150Y41677D01*
X55097Y41676D01*
X55043Y41679D01*
X54990Y41686D01*
X54938Y41697D01*
X54886Y41711D01*
X54836Y41730D01*
X54787Y41752D01*
X54740Y41778D01*
X54695Y41807D01*
X54653Y41839D01*
X54612Y41874D01*
X54575Y41912D01*
X54540Y41953D01*
X54509Y41996D01*
X54481Y42042D01*
X54456Y42089D01*
X54435Y42138D01*
X54417Y42189D01*
X54404Y42241D01*
X54394Y42293D01*
X54388Y42347D01*
X54386Y42400D01*
X50000Y60000D02*
X60630Y60000D01*
D12*
X113808Y88490D02*
X114909Y87388D01*
X116011Y87388D01*
X117113Y88490D01*
X117113Y93998D01*
X118214Y93998D02*
X116011Y93998D01*
X123495Y92896D02*
X125698Y93998D01*
X123495Y92896D02*
X121292Y90693D01*
X121292Y88490D01*
X122394Y87388D01*
X124597Y87388D01*
X125698Y88490D01*
X125698Y89591D01*
X124597Y90693D01*
X121292Y90693D01*
X215762Y74872D02*
X215762Y68262D01*
X215762Y74872D02*
X219067Y74872D01*
X220168Y73770D01*
X220168Y71567D01*
X219067Y70465D01*
X215762Y70465D01*
X217965Y70465D02*
X220168Y68262D01*
X223246Y68262D02*
X227653Y68262D01*
X227653Y72668D02*
X223246Y68262D01*
X227653Y72668D02*
X227653Y73770D01*
X226551Y74872D01*
X224348Y74872D01*
X223246Y73770D01*
X230730Y72668D02*
X232934Y74872D01*
X232934Y68262D01*
X235137Y68262D02*
X230730Y68262D01*
X240762Y69872D02*
X240762Y63262D01*
X240762Y69872D02*
X244067Y69872D01*
X245168Y68770D01*
X245168Y66567D01*
X244067Y65465D01*
X240762Y65465D01*
X242965Y65465D02*
X245168Y63262D01*
X248246Y67668D02*
X250449Y69872D01*
X250449Y63262D01*
X248246Y63262D02*
X252653Y63262D01*
X255730Y63262D02*
X260137Y63262D01*
X260137Y67668D02*
X255730Y63262D01*
X260137Y67668D02*
X260137Y68770D01*
X259035Y69872D01*
X256832Y69872D01*
X255730Y68770D01*
X205168Y38770D02*
X204067Y39872D01*
X201864Y39872D01*
X200762Y38770D01*
X200762Y34364D01*
X201864Y33262D01*
X204067Y33262D01*
X205168Y34364D01*
X210449Y38770D02*
X212653Y39872D01*
X210449Y38770D02*
X208246Y36567D01*
X208246Y34364D01*
X209348Y33262D01*
X211551Y33262D01*
X212653Y34364D01*
X212653Y35465D01*
X211551Y36567D01*
X208246Y36567D01*
D14*
X836000Y272500D02*
X836000Y377500D01*
X898000Y377500D01*
X906000Y377500D01*
X906000Y272500D01*
X898000Y272500D01*
X836000Y272500D01*
X898000Y272500D02*
X898000Y377500D01*
X836000Y267500D02*
X836000Y162500D01*
X836000Y267500D02*
X898000Y267500D01*
X906000Y267500D01*
X906000Y162500D01*
X898000Y162500D01*
X836000Y162500D01*
X898000Y162500D02*
X898000Y267500D01*
D12*
X830960Y302420D02*
X814960Y302420D01*
X830960Y322420D02*
X831063Y322427D01*
X831166Y322431D01*
X831269Y322430D01*
X831373Y322426D01*
X831476Y322418D01*
X831578Y322406D01*
X831680Y322391D01*
X831782Y322371D01*
X831882Y322348D01*
X831982Y322321D01*
X832080Y322290D01*
X832178Y322256D01*
X832274Y322218D01*
X832368Y322176D01*
X832461Y322131D01*
X832552Y322083D01*
X832642Y322031D01*
X832729Y321976D01*
X832814Y321917D01*
X832897Y321856D01*
X832978Y321791D01*
X833056Y321723D01*
X833131Y321653D01*
X833204Y321580D01*
X833274Y321504D01*
X833341Y321425D01*
X833405Y321345D01*
X833466Y321261D01*
X833524Y321176D01*
X833579Y321088D01*
X833630Y320999D01*
X833678Y320907D01*
X833723Y320814D01*
X833764Y320719D01*
X833801Y320623D01*
X833835Y320526D01*
X833865Y320427D01*
X833892Y320327D01*
X833914Y320226D01*
X833933Y320125D01*
X833948Y320023D01*
X833960Y319920D01*
X814960Y322420D02*
X814857Y322427D01*
X814754Y322431D01*
X814651Y322430D01*
X814547Y322426D01*
X814444Y322418D01*
X814342Y322406D01*
X814240Y322391D01*
X814138Y322371D01*
X814038Y322348D01*
X813938Y322321D01*
X813840Y322290D01*
X813742Y322256D01*
X813646Y322218D01*
X813552Y322176D01*
X813459Y322131D01*
X813368Y322083D01*
X813278Y322031D01*
X813191Y321976D01*
X813106Y321917D01*
X813023Y321856D01*
X812942Y321791D01*
X812864Y321723D01*
X812789Y321653D01*
X812716Y321580D01*
X812646Y321504D01*
X812579Y321425D01*
X812515Y321345D01*
X812454Y321261D01*
X812396Y321176D01*
X812341Y321088D01*
X812290Y320999D01*
X812242Y320907D01*
X812197Y320814D01*
X812156Y320719D01*
X812119Y320623D01*
X812085Y320526D01*
X812055Y320427D01*
X812028Y320327D01*
X812006Y320226D01*
X811987Y320125D01*
X811972Y320023D01*
X811960Y319920D01*
X811960Y304920D02*
X811971Y304817D01*
X811986Y304715D01*
X812005Y304613D01*
X812028Y304513D01*
X812054Y304413D01*
X812084Y304314D01*
X812118Y304216D01*
X812155Y304120D01*
X812196Y304025D01*
X812241Y303932D01*
X812289Y303840D01*
X812340Y303751D01*
X812395Y303663D01*
X812453Y303578D01*
X812514Y303494D01*
X812578Y303413D01*
X812645Y303335D01*
X812715Y303259D01*
X812788Y303186D01*
X812864Y303115D01*
X812942Y303047D01*
X813022Y302983D01*
X813105Y302921D01*
X813190Y302863D01*
X813278Y302808D01*
X813367Y302756D01*
X813458Y302707D01*
X813551Y302662D01*
X813646Y302621D01*
X813742Y302583D01*
X813839Y302548D01*
X813938Y302518D01*
X814038Y302491D01*
X814138Y302467D01*
X814240Y302448D01*
X814342Y302432D01*
X814445Y302421D01*
X814548Y302413D01*
X814651Y302409D01*
X814754Y302408D01*
X814858Y302412D01*
X814961Y302420D01*
X830960Y302420D02*
X831063Y302413D01*
X831166Y302409D01*
X831269Y302410D01*
X831373Y302414D01*
X831476Y302422D01*
X831578Y302434D01*
X831680Y302449D01*
X831782Y302469D01*
X831882Y302492D01*
X831982Y302519D01*
X832080Y302550D01*
X832178Y302584D01*
X832274Y302622D01*
X832368Y302664D01*
X832461Y302709D01*
X832552Y302757D01*
X832642Y302809D01*
X832729Y302864D01*
X832814Y302923D01*
X832897Y302984D01*
X832978Y303049D01*
X833056Y303117D01*
X833131Y303187D01*
X833204Y303260D01*
X833274Y303336D01*
X833341Y303415D01*
X833405Y303495D01*
X833466Y303579D01*
X833524Y303664D01*
X833579Y303752D01*
X833630Y303841D01*
X833678Y303933D01*
X833723Y304026D01*
X833764Y304121D01*
X833801Y304217D01*
X833835Y304314D01*
X833865Y304413D01*
X833892Y304513D01*
X833914Y304614D01*
X833933Y304715D01*
X833948Y304817D01*
X833960Y304920D01*
X833960Y319920D01*
X811960Y319920D02*
X811960Y304920D01*
X814960Y322420D02*
X830960Y322420D01*
X830960Y381160D02*
X814960Y381160D01*
X830960Y401160D02*
X831063Y401167D01*
X831166Y401171D01*
X831269Y401170D01*
X831373Y401166D01*
X831476Y401158D01*
X831578Y401146D01*
X831680Y401131D01*
X831782Y401111D01*
X831882Y401088D01*
X831982Y401061D01*
X832080Y401030D01*
X832178Y400996D01*
X832274Y400958D01*
X832368Y400916D01*
X832461Y400871D01*
X832552Y400823D01*
X832642Y400771D01*
X832729Y400716D01*
X832814Y400657D01*
X832897Y400596D01*
X832978Y400531D01*
X833056Y400463D01*
X833131Y400393D01*
X833204Y400320D01*
X833274Y400244D01*
X833341Y400165D01*
X833405Y400085D01*
X833466Y400001D01*
X833524Y399916D01*
X833579Y399828D01*
X833630Y399739D01*
X833678Y399647D01*
X833723Y399554D01*
X833764Y399459D01*
X833801Y399363D01*
X833835Y399266D01*
X833865Y399167D01*
X833892Y399067D01*
X833914Y398966D01*
X833933Y398865D01*
X833948Y398763D01*
X833960Y398660D01*
X814960Y401160D02*
X814857Y401167D01*
X814754Y401171D01*
X814651Y401170D01*
X814547Y401166D01*
X814444Y401158D01*
X814342Y401146D01*
X814240Y401131D01*
X814138Y401111D01*
X814038Y401088D01*
X813938Y401061D01*
X813840Y401030D01*
X813742Y400996D01*
X813646Y400958D01*
X813552Y400916D01*
X813459Y400871D01*
X813368Y400823D01*
X813278Y400771D01*
X813191Y400716D01*
X813106Y400657D01*
X813023Y400596D01*
X812942Y400531D01*
X812864Y400463D01*
X812789Y400393D01*
X812716Y400320D01*
X812646Y400244D01*
X812579Y400165D01*
X812515Y400085D01*
X812454Y400001D01*
X812396Y399916D01*
X812341Y399828D01*
X812290Y399739D01*
X812242Y399647D01*
X812197Y399554D01*
X812156Y399459D01*
X812119Y399363D01*
X812085Y399266D01*
X812055Y399167D01*
X812028Y399067D01*
X812006Y398966D01*
X811987Y398865D01*
X811972Y398763D01*
X811960Y398660D01*
X811960Y383660D02*
X811971Y383557D01*
X811986Y383455D01*
X812005Y383353D01*
X812028Y383253D01*
X812054Y383153D01*
X812084Y383054D01*
X812118Y382956D01*
X812155Y382860D01*
X812196Y382765D01*
X812241Y382672D01*
X812289Y382580D01*
X812340Y382491D01*
X812395Y382403D01*
X812453Y382318D01*
X812514Y382234D01*
X812578Y382153D01*
X812645Y382075D01*
X812715Y381999D01*
X812788Y381926D01*
X812864Y381855D01*
X812942Y381787D01*
X813022Y381723D01*
X813105Y381661D01*
X813190Y381603D01*
X813278Y381548D01*
X813367Y381496D01*
X813458Y381447D01*
X813551Y381402D01*
X813646Y381361D01*
X813742Y381323D01*
X813839Y381288D01*
X813938Y381258D01*
X814038Y381231D01*
X814138Y381207D01*
X814240Y381188D01*
X814342Y381172D01*
X814445Y381161D01*
X814548Y381153D01*
X814651Y381149D01*
X814754Y381148D01*
X814858Y381152D01*
X814961Y381160D01*
X830960Y381160D02*
X831063Y381153D01*
X831166Y381149D01*
X831269Y381150D01*
X831373Y381154D01*
X831476Y381162D01*
X831578Y381174D01*
X831680Y381189D01*
X831782Y381209D01*
X831882Y381232D01*
X831982Y381259D01*
X832080Y381290D01*
X832178Y381324D01*
X832274Y381362D01*
X832368Y381404D01*
X832461Y381449D01*
X832552Y381497D01*
X832642Y381549D01*
X832729Y381604D01*
X832814Y381663D01*
X832897Y381724D01*
X832978Y381789D01*
X833056Y381857D01*
X833131Y381927D01*
X833204Y382000D01*
X833274Y382076D01*
X833341Y382155D01*
X833405Y382235D01*
X833466Y382319D01*
X833524Y382404D01*
X833579Y382492D01*
X833630Y382581D01*
X833678Y382673D01*
X833723Y382766D01*
X833764Y382861D01*
X833801Y382957D01*
X833835Y383054D01*
X833865Y383153D01*
X833892Y383253D01*
X833914Y383354D01*
X833933Y383455D01*
X833948Y383557D01*
X833960Y383660D01*
X833960Y398660D01*
X811960Y398660D02*
X811960Y383660D01*
X814960Y401160D02*
X830960Y401160D01*
D39*
X909600Y415000D02*
X909600Y505000D01*
X909600Y415000D02*
X837000Y415000D01*
X837000Y505000D01*
X909600Y505000D01*
D12*
X788907Y107492D02*
X790008Y106390D01*
X788907Y107492D02*
X786704Y107492D01*
X785602Y106390D01*
X785602Y101984D01*
X786704Y100882D01*
X788907Y100882D01*
X790008Y101984D01*
X793086Y100882D02*
X797493Y100882D01*
X797493Y105288D02*
X793086Y100882D01*
X797493Y105288D02*
X797493Y106390D01*
X796391Y107492D01*
X794188Y107492D01*
X793086Y106390D01*
X800570Y106390D02*
X801672Y107492D01*
X803875Y107492D01*
X804977Y106390D01*
X804977Y105288D01*
X803875Y104187D01*
X802774Y104187D01*
X803875Y104187D02*
X804977Y103085D01*
X804977Y101984D01*
X803875Y100882D01*
X801672Y100882D01*
X800570Y101984D01*
X785602Y155882D02*
X785602Y162492D01*
X788907Y162492D01*
X790008Y161390D01*
X790008Y159187D01*
X788907Y158085D01*
X785602Y158085D01*
X787805Y158085D02*
X790008Y155882D01*
X796391Y155882D02*
X796391Y162492D01*
X793086Y159187D01*
X797493Y159187D01*
X800570Y160288D02*
X802774Y162492D01*
X802774Y155882D01*
X804977Y155882D02*
X800570Y155882D01*
X797797Y136302D02*
X798898Y135200D01*
X797797Y136302D02*
X795594Y136302D01*
X794492Y135200D01*
X794492Y130794D01*
X795594Y129692D01*
X797797Y129692D01*
X798898Y130794D01*
X801976Y134098D02*
X804179Y136302D01*
X804179Y129692D01*
X801976Y129692D02*
X806383Y129692D01*
X809460Y130794D02*
X809460Y135200D01*
X810562Y136302D01*
X812765Y136302D01*
X813867Y135200D01*
X813867Y130794D01*
X812765Y129692D01*
X810562Y129692D01*
X809460Y130794D01*
X813867Y135200D01*
X624800Y340550D02*
X624800Y353250D01*
X631150Y359600D01*
X643850Y359600D02*
X650200Y353250D01*
X631150Y359600D02*
X624800Y365950D01*
X624800Y378650D01*
X631150Y385000D01*
X643850Y385000D02*
X650200Y378650D01*
X650200Y365950D01*
X643850Y359600D01*
X643850Y334200D02*
X631150Y334200D01*
X624800Y340550D01*
X643850Y334200D02*
X650200Y340550D01*
X650200Y353250D01*
X631150Y385000D02*
X624800Y391350D01*
X624800Y404050D01*
X631150Y410400D01*
X643850Y410400D02*
X650200Y404050D01*
X650200Y391350D01*
X643850Y385000D01*
X624800Y416750D02*
X624800Y429450D01*
X631150Y435800D01*
X643850Y435800D01*
X650200Y429450D01*
X631150Y410400D02*
X624800Y416750D01*
X643850Y410400D02*
X650200Y416750D01*
X650200Y429450D01*
X612628Y376567D02*
X612628Y374364D01*
X613730Y373262D01*
X618136Y373262D01*
X619238Y374364D01*
X619238Y376567D01*
X618136Y377668D01*
X613730Y377668D01*
X612628Y376567D01*
X612628Y380746D02*
X619238Y380746D01*
X619238Y385153D01*
X612628Y388230D02*
X612628Y392637D01*
X612628Y388230D02*
X619238Y388230D01*
X619238Y392637D01*
X615933Y390434D02*
X615933Y388230D01*
X612628Y395714D02*
X619238Y395714D01*
X619238Y399019D01*
X618136Y400121D01*
X613730Y400121D01*
X612628Y399019D01*
X612628Y395714D01*
D14*
X836000Y712500D02*
X836000Y817500D01*
X898000Y817500D01*
X906000Y817500D01*
X906000Y712500D01*
X898000Y712500D01*
X836000Y712500D01*
X898000Y712500D02*
X898000Y817500D01*
D12*
X549700Y246350D02*
X543350Y240000D01*
X530650Y240000D01*
X524300Y246350D01*
X524300Y259050D01*
X530650Y265400D01*
X543350Y265400D01*
X549700Y259050D01*
X581450Y240000D02*
X594150Y240000D01*
X581450Y240000D02*
X575100Y246350D01*
X575100Y259050D01*
X581450Y265400D01*
X575100Y246350D02*
X568750Y240000D01*
X556050Y240000D01*
X549700Y246350D01*
X549700Y259050D01*
X556050Y265400D01*
X568750Y265400D01*
X575100Y259050D01*
X619550Y240000D02*
X625900Y246350D01*
X619550Y240000D02*
X606850Y240000D01*
X600500Y246350D01*
X600500Y259050D01*
X606850Y265400D01*
X619550Y265400D01*
X625900Y259050D01*
X600500Y246350D02*
X594150Y240000D01*
X600500Y259050D02*
X594150Y265400D01*
X581450Y265400D01*
X657650Y240000D02*
X670350Y240000D01*
X657650Y240000D02*
X651300Y246350D01*
X651300Y259050D01*
X657650Y265400D01*
X651300Y246350D02*
X644950Y240000D01*
X632250Y240000D01*
X625900Y246350D01*
X625900Y259050D01*
X632250Y265400D01*
X644950Y265400D01*
X651300Y259050D01*
X695750Y240000D02*
X702100Y246350D01*
X695750Y240000D02*
X683050Y240000D01*
X676700Y246350D01*
X676700Y259050D01*
X683050Y265400D01*
X695750Y265400D01*
X702100Y259050D01*
X676700Y246350D02*
X670350Y240000D01*
X676700Y259050D02*
X670350Y265400D01*
X657650Y265400D01*
X733850Y240000D02*
X746550Y240000D01*
X733850Y240000D02*
X727500Y246350D01*
X727500Y259050D01*
X733850Y265400D01*
X727500Y246350D02*
X721150Y240000D01*
X708450Y240000D01*
X702100Y246350D01*
X702100Y259050D01*
X708450Y265400D01*
X721150Y265400D01*
X727500Y259050D01*
X771950Y240000D02*
X778300Y246350D01*
X771950Y240000D02*
X759250Y240000D01*
X752900Y246350D01*
X752900Y259050D01*
X759250Y265400D01*
X771950Y265400D01*
X778300Y259050D01*
X752900Y246350D02*
X746550Y240000D01*
X752900Y259050D02*
X746550Y265400D01*
X733850Y265400D01*
X810050Y240000D02*
X822750Y240000D01*
X810050Y240000D02*
X803700Y246350D01*
X803700Y259050D01*
X810050Y265400D01*
X803700Y246350D02*
X797350Y240000D01*
X784650Y240000D01*
X778300Y246350D01*
X778300Y259050D01*
X784650Y265400D01*
X797350Y265400D01*
X803700Y259050D01*
X829100Y259050D02*
X829100Y246350D01*
X822750Y240000D01*
X829100Y259050D02*
X822750Y265400D01*
X810050Y265400D01*
X524300Y246350D02*
X517950Y240000D01*
X505250Y240000D01*
X498900Y246350D01*
X498900Y259050D01*
X505250Y265400D01*
X517950Y265400D01*
X524300Y259050D01*
X549700Y220950D02*
X543350Y214600D01*
X530650Y214600D01*
X524300Y220950D01*
X524300Y233650D01*
X530650Y240000D01*
X543350Y240000D01*
X549700Y233650D01*
X581450Y214600D02*
X594150Y214600D01*
X581450Y214600D02*
X575100Y220950D01*
X575100Y233650D01*
X581450Y240000D01*
X575100Y220950D02*
X568750Y214600D01*
X556050Y214600D01*
X549700Y220950D01*
X549700Y233650D01*
X556050Y240000D01*
X568750Y240000D01*
X575100Y233650D01*
X619550Y214600D02*
X625900Y220950D01*
X619550Y214600D02*
X606850Y214600D01*
X600500Y220950D01*
X600500Y233650D01*
X606850Y240000D01*
X619550Y240000D01*
X625900Y233650D01*
X600500Y220950D02*
X594150Y214600D01*
X600500Y233650D02*
X594150Y240000D01*
X581450Y240000D01*
X657650Y214600D02*
X670350Y214600D01*
X657650Y214600D02*
X651300Y220950D01*
X651300Y233650D01*
X657650Y240000D01*
X651300Y220950D02*
X644950Y214600D01*
X632250Y214600D01*
X625900Y220950D01*
X625900Y233650D01*
X632250Y240000D01*
X644950Y240000D01*
X651300Y233650D01*
X695750Y214600D02*
X702100Y220950D01*
X695750Y214600D02*
X683050Y214600D01*
X676700Y220950D01*
X676700Y233650D01*
X683050Y240000D01*
X695750Y240000D01*
X702100Y233650D01*
X676700Y220950D02*
X670350Y214600D01*
X676700Y233650D02*
X670350Y240000D01*
X657650Y240000D01*
X733850Y214600D02*
X746550Y214600D01*
X733850Y214600D02*
X727500Y220950D01*
X727500Y233650D01*
X733850Y240000D01*
X727500Y220950D02*
X721150Y214600D01*
X708450Y214600D01*
X702100Y220950D01*
X702100Y233650D01*
X708450Y240000D01*
X721150Y240000D01*
X727500Y233650D01*
X771950Y214600D02*
X778300Y220950D01*
X771950Y214600D02*
X759250Y214600D01*
X752900Y220950D01*
X752900Y233650D01*
X759250Y240000D01*
X771950Y240000D01*
X778300Y233650D01*
X752900Y220950D02*
X746550Y214600D01*
X752900Y233650D02*
X746550Y240000D01*
X733850Y240000D01*
X810050Y214600D02*
X822750Y214600D01*
X810050Y214600D02*
X803700Y220950D01*
X803700Y233650D01*
X810050Y240000D01*
X803700Y220950D02*
X797350Y214600D01*
X784650Y214600D01*
X778300Y220950D01*
X778300Y233650D01*
X784650Y240000D01*
X797350Y240000D01*
X803700Y233650D01*
X829100Y233650D02*
X829100Y220950D01*
X822750Y214600D01*
X829100Y233650D02*
X822750Y240000D01*
X810050Y240000D01*
X524300Y220950D02*
X517950Y214600D01*
X505250Y214600D01*
X498900Y220950D01*
X498900Y233650D01*
X505250Y240000D01*
X517950Y240000D01*
X524300Y233650D01*
X487668Y311270D02*
X486567Y312372D01*
X484364Y312372D01*
X483262Y311270D01*
X483262Y306864D01*
X484364Y305762D01*
X486567Y305762D01*
X487668Y306864D01*
X490746Y310168D02*
X492949Y312372D01*
X492949Y305762D01*
X490746Y305762D02*
X495153Y305762D01*
X500434Y311270D02*
X502637Y312372D01*
X500434Y311270D02*
X498230Y309067D01*
X498230Y306864D01*
X499332Y305762D01*
X501535Y305762D01*
X502637Y306864D01*
X502637Y307965D01*
X501535Y309067D01*
X498230Y309067D01*
X538256Y341614D02*
X539358Y342716D01*
X538256Y341614D02*
X538256Y339411D01*
X539358Y338310D01*
X543764Y338310D01*
X544866Y339411D01*
X544866Y341614D01*
X543764Y342716D01*
X540460Y345794D02*
X538256Y347997D01*
X544866Y347997D01*
X544866Y345794D02*
X544866Y350200D01*
X538256Y353278D02*
X538256Y357684D01*
X539358Y357684D01*
X543764Y353278D01*
X544866Y353278D01*
D40*
X473500Y338500D03*
D39*
X473502Y338456D01*
X473508Y338413D01*
X473517Y338371D01*
X473530Y338329D01*
X473547Y338289D01*
X473567Y338250D01*
X473590Y338213D01*
X473617Y338179D01*
X473646Y338146D01*
X473679Y338117D01*
X473713Y338090D01*
X473750Y338067D01*
X473789Y338047D01*
X473829Y338030D01*
X473871Y338017D01*
X473913Y338008D01*
X473956Y338002D01*
X474000Y338000D01*
X474044Y338002D01*
X474087Y338008D01*
X474129Y338017D01*
X474171Y338030D01*
X474211Y338047D01*
X474250Y338067D01*
X474287Y338090D01*
X474321Y338117D01*
X474354Y338146D01*
X474383Y338179D01*
X474410Y338213D01*
X474433Y338250D01*
X474453Y338289D01*
X474470Y338329D01*
X474483Y338371D01*
X474492Y338413D01*
X474498Y338456D01*
X474500Y338500D01*
D40*
X474500Y338500D03*
D39*
X474498Y338544D01*
X474492Y338587D01*
X474483Y338629D01*
X474470Y338671D01*
X474453Y338711D01*
X474433Y338750D01*
X474410Y338787D01*
X474383Y338821D01*
X474354Y338854D01*
X474321Y338883D01*
X474287Y338910D01*
X474250Y338933D01*
X474211Y338953D01*
X474171Y338970D01*
X474129Y338983D01*
X474087Y338992D01*
X474044Y338998D01*
X474000Y339000D01*
X473956Y338998D01*
X473913Y338992D01*
X473871Y338983D01*
X473829Y338970D01*
X473789Y338953D01*
X473750Y338933D01*
X473713Y338910D01*
X473679Y338883D01*
X473646Y338854D01*
X473617Y338821D01*
X473590Y338787D01*
X473567Y338750D01*
X473547Y338711D01*
X473530Y338671D01*
X473517Y338629D01*
X473508Y338587D01*
X473502Y338544D01*
X473500Y338500D01*
D12*
X811457Y519032D02*
X812558Y517930D01*
X811457Y519032D02*
X809254Y519032D01*
X808152Y517930D01*
X808152Y513524D01*
X809254Y512422D01*
X811457Y512422D01*
X812558Y513524D01*
X815636Y516828D02*
X817839Y519032D01*
X817839Y512422D01*
X815636Y512422D02*
X820043Y512422D01*
X826425Y512422D02*
X826425Y519032D01*
X823120Y515727D01*
X827527Y515727D01*
X596110Y533778D02*
X595008Y532677D01*
X595008Y530474D01*
X596110Y529372D01*
X600516Y529372D01*
X601618Y530474D01*
X601618Y532677D01*
X600516Y533778D01*
X597212Y536856D02*
X595008Y539059D01*
X601618Y539059D01*
X601618Y536856D02*
X601618Y541263D01*
X595008Y544340D02*
X595008Y548747D01*
X595008Y544340D02*
X598313Y544340D01*
X597212Y546544D01*
X597212Y547645D01*
X598313Y548747D01*
X600516Y548747D01*
X601618Y547645D01*
X601618Y545442D01*
X600516Y544340D01*
X625008Y532677D02*
X626110Y533778D01*
X625008Y532677D02*
X625008Y530474D01*
X626110Y529372D01*
X630516Y529372D01*
X631618Y530474D01*
X631618Y532677D01*
X630516Y533778D01*
X631618Y536856D02*
X631618Y541263D01*
X627212Y541263D02*
X631618Y536856D01*
X627212Y541263D02*
X626110Y541263D01*
X625008Y540161D01*
X625008Y537958D01*
X626110Y536856D01*
X627212Y544340D02*
X625008Y546544D01*
X631618Y546544D01*
X631618Y548747D02*
X631618Y544340D01*
D41*
X657000Y525200D02*
X663000Y525200D01*
X657000Y525200D02*
X657000Y554800D01*
X663000Y554800D01*
X663000Y525200D01*
X666500Y525000D02*
X678500Y525000D01*
D12*
X638310Y561698D02*
X638310Y566104D01*
X640513Y568308D01*
X642716Y566104D01*
X642716Y561698D01*
X642716Y565003D02*
X638310Y565003D01*
X645794Y561698D02*
X645794Y568308D01*
X649099Y568308D01*
X650200Y567206D01*
X650200Y565003D01*
X649099Y563901D01*
X645794Y563901D01*
X653278Y561698D02*
X657684Y561698D01*
X653278Y561698D02*
X657684Y566104D01*
X657684Y567206D01*
X656583Y568308D01*
X654379Y568308D01*
X653278Y567206D01*
X660762Y566104D02*
X662965Y568308D01*
X662965Y561698D01*
X660762Y561698D02*
X665168Y561698D01*
X668246Y566104D02*
X670449Y568308D01*
X670449Y561698D01*
X668246Y561698D02*
X672653Y561698D01*
X675730Y561698D02*
X680137Y561698D01*
X680137Y566104D02*
X675730Y561698D01*
X680137Y566104D02*
X680137Y567206D01*
X679035Y568308D01*
X676832Y568308D01*
X675730Y567206D01*
X714098Y534412D02*
X720708Y534412D01*
X714098Y534412D02*
X714098Y537717D01*
X715200Y538818D01*
X717403Y538818D01*
X718505Y537717D01*
X718505Y534412D01*
X718505Y536615D02*
X720708Y538818D01*
X720708Y545201D02*
X714098Y545201D01*
X717403Y541896D01*
X717403Y546303D01*
X719606Y549380D02*
X715200Y549380D01*
X714098Y550482D01*
X714098Y552685D01*
X715200Y553787D01*
X719606Y553787D01*
X720708Y552685D01*
X720708Y550482D01*
X719606Y549380D01*
X715200Y553787D01*
D14*
X809970Y206708D02*
X803620Y200358D01*
X809970Y206708D02*
X822670Y206708D01*
X829020Y200358D01*
X829020Y187658D02*
X822670Y181308D01*
X809970Y181308D01*
X803620Y187658D01*
X771870Y206708D02*
X759170Y206708D01*
X771870Y206708D02*
X778220Y200358D01*
X778220Y187658D02*
X771870Y181308D01*
X778220Y200358D02*
X784570Y206708D01*
X797270Y206708D01*
X803620Y200358D01*
X803620Y187658D02*
X797270Y181308D01*
X784570Y181308D01*
X778220Y187658D01*
X733770Y206708D02*
X727420Y200358D01*
X733770Y206708D02*
X746470Y206708D01*
X752820Y200358D01*
X752820Y187658D02*
X746470Y181308D01*
X733770Y181308D01*
X727420Y187658D01*
X752820Y200358D02*
X759170Y206708D01*
X752820Y187658D02*
X759170Y181308D01*
X771870Y181308D01*
X695670Y206708D02*
X682970Y206708D01*
X695670Y206708D02*
X702020Y200358D01*
X702020Y187658D02*
X695670Y181308D01*
X702020Y200358D02*
X708370Y206708D01*
X721070Y206708D01*
X727420Y200358D01*
X727420Y187658D02*
X721070Y181308D01*
X708370Y181308D01*
X702020Y187658D01*
X676620Y187658D02*
X676620Y200358D01*
X682970Y206708D01*
X676620Y187658D02*
X682970Y181308D01*
X695670Y181308D01*
X829020Y187658D02*
X829020Y200358D01*
D12*
X455168Y288770D02*
X454067Y289872D01*
X451864Y289872D01*
X450762Y288770D01*
X450762Y284364D01*
X451864Y283262D01*
X454067Y283262D01*
X455168Y284364D01*
X458246Y283262D02*
X462653Y283262D01*
X462653Y287668D02*
X458246Y283262D01*
X462653Y287668D02*
X462653Y288770D01*
X461551Y289872D01*
X459348Y289872D01*
X458246Y288770D01*
X465730Y283262D02*
X470137Y283262D01*
X470137Y287668D02*
X465730Y283262D01*
X470137Y287668D02*
X470137Y288770D01*
X469035Y289872D01*
X466832Y289872D01*
X465730Y288770D01*
D41*
X435500Y599000D02*
X435500Y631000D01*
X484500Y631000D01*
X484500Y599000D01*
X435500Y599000D01*
X434200Y595500D02*
X434200Y580500D01*
D12*
X493447Y619018D02*
X493447Y625628D01*
X495651Y623424D01*
X497854Y625628D01*
X497854Y619018D01*
X504236Y625628D02*
X505338Y624526D01*
X504236Y625628D02*
X502033Y625628D01*
X500932Y624526D01*
X500932Y620120D01*
X502033Y619018D01*
X504236Y619018D01*
X505338Y620120D01*
X508416Y619018D02*
X508416Y625628D01*
X511721Y625628D01*
X512822Y624526D01*
X512822Y622323D01*
X511721Y621221D01*
X508416Y621221D01*
X515900Y623424D02*
X518103Y625628D01*
X518103Y619018D01*
X515900Y619018D02*
X520306Y619018D01*
X523384Y625628D02*
X527790Y625628D01*
X523384Y625628D02*
X523384Y622323D01*
X525587Y623424D01*
X526689Y623424D01*
X527790Y622323D01*
X527790Y620120D01*
X526689Y619018D01*
X524486Y619018D01*
X523384Y620120D01*
X530868Y620120D02*
X530868Y624526D01*
X531970Y625628D01*
X534173Y625628D01*
X535275Y624526D01*
X535275Y620120D01*
X534173Y619018D01*
X531970Y619018D01*
X530868Y620120D01*
X535275Y624526D01*
X538352Y623424D02*
X540556Y625628D01*
X540556Y619018D01*
X542759Y619018D02*
X538352Y619018D01*
X499768Y603190D02*
X498667Y604292D01*
X496464Y604292D01*
X495362Y603190D01*
X495362Y598784D01*
X496464Y597682D01*
X498667Y597682D01*
X499768Y598784D01*
X502846Y597682D02*
X507253Y597682D01*
X507253Y602088D02*
X502846Y597682D01*
X507253Y602088D02*
X507253Y603190D01*
X506151Y604292D01*
X503948Y604292D01*
X502846Y603190D01*
X510330Y604292D02*
X514737Y604292D01*
X514737Y603190D01*
X510330Y598784D01*
X510330Y597682D01*
X396302Y653562D02*
X396302Y660172D01*
X399607Y660172D01*
X400708Y659070D01*
X400708Y656867D01*
X399607Y655765D01*
X396302Y655765D01*
X398505Y655765D02*
X400708Y653562D01*
X403786Y659070D02*
X404888Y660172D01*
X407091Y660172D01*
X408193Y659070D01*
X408193Y657968D01*
X407091Y656867D01*
X405989Y656867D01*
X407091Y656867D02*
X408193Y655765D01*
X408193Y654664D01*
X407091Y653562D01*
X404888Y653562D01*
X403786Y654664D01*
X413474Y659070D02*
X415677Y660172D01*
X413474Y659070D02*
X411270Y656867D01*
X411270Y654664D01*
X412372Y653562D01*
X414575Y653562D01*
X415677Y654664D01*
X415677Y655765D01*
X414575Y656867D01*
X411270Y656867D01*
X396302Y629692D02*
X396302Y623082D01*
X396302Y629692D02*
X399607Y629692D01*
X400708Y628590D01*
X400708Y626387D01*
X399607Y625285D01*
X396302Y625285D01*
X398505Y625285D02*
X400708Y623082D01*
X407091Y623082D02*
X407091Y629692D01*
X403786Y626387D01*
X408193Y626387D01*
X411270Y623082D02*
X415677Y623082D01*
X415677Y627488D02*
X411270Y623082D01*
X415677Y627488D02*
X415677Y628590D01*
X414575Y629692D01*
X412372Y629692D01*
X411270Y628590D01*
X341410Y615068D02*
X340308Y613967D01*
X340308Y611764D01*
X341410Y610662D01*
X345816Y610662D01*
X346918Y611764D01*
X346918Y613967D01*
X345816Y615068D01*
X346918Y618146D02*
X346918Y622553D01*
X342512Y622553D02*
X346918Y618146D01*
X342512Y622553D02*
X341410Y622553D01*
X340308Y621451D01*
X340308Y619248D01*
X341410Y618146D01*
X341410Y625630D02*
X340308Y626732D01*
X340308Y628935D01*
X341410Y630037D01*
X342512Y630037D01*
X343613Y628935D01*
X344715Y630037D01*
X345816Y630037D01*
X346918Y628935D01*
X346918Y626732D01*
X345816Y625630D01*
X344715Y625630D01*
X343613Y626732D01*
X342512Y625630D01*
X341410Y625630D01*
X343613Y626732D02*
X343613Y628935D01*
X396302Y599212D02*
X396302Y592602D01*
X396302Y599212D02*
X399607Y599212D01*
X400708Y598110D01*
X400708Y595907D01*
X399607Y594805D01*
X396302Y594805D01*
X398505Y594805D02*
X400708Y592602D01*
X403786Y598110D02*
X404888Y599212D01*
X407091Y599212D01*
X408193Y598110D01*
X408193Y597008D01*
X407091Y595907D01*
X405989Y595907D01*
X407091Y595907D02*
X408193Y594805D01*
X408193Y593704D01*
X407091Y592602D01*
X404888Y592602D01*
X403786Y593704D01*
X411270Y599212D02*
X415677Y599212D01*
X415677Y598110D01*
X411270Y593704D01*
X411270Y592602D01*
X355662Y592602D02*
X355662Y599212D01*
X358967Y599212D01*
X360068Y598110D01*
X360068Y595907D01*
X358967Y594805D01*
X355662Y594805D01*
X357865Y594805D02*
X360068Y592602D01*
X363146Y598110D02*
X364248Y599212D01*
X366451Y599212D01*
X367553Y598110D01*
X367553Y597008D01*
X366451Y595907D01*
X365349Y595907D01*
X366451Y595907D02*
X367553Y594805D01*
X367553Y593704D01*
X366451Y592602D01*
X364248Y592602D01*
X363146Y593704D01*
X370630Y598110D02*
X371732Y599212D01*
X373935Y599212D01*
X375037Y598110D01*
X375037Y597008D01*
X373935Y595907D01*
X375037Y594805D01*
X375037Y593704D01*
X373935Y592602D01*
X371732Y592602D01*
X370630Y593704D01*
X370630Y594805D01*
X371732Y595907D01*
X370630Y597008D01*
X370630Y598110D01*
X371732Y595907D02*
X373935Y595907D01*
X715762Y324872D02*
X715762Y318262D01*
X715762Y324872D02*
X719067Y324872D01*
X720168Y323770D01*
X720168Y321567D01*
X719067Y320465D01*
X715762Y320465D01*
X717965Y320465D02*
X720168Y318262D01*
X723246Y323770D02*
X724348Y324872D01*
X726551Y324872D01*
X727653Y323770D01*
X727653Y322668D01*
X726551Y321567D01*
X725449Y321567D01*
X726551Y321567D02*
X727653Y320465D01*
X727653Y319364D01*
X726551Y318262D01*
X724348Y318262D01*
X723246Y319364D01*
X730730Y319364D02*
X731832Y318262D01*
X734035Y318262D01*
X735137Y319364D01*
X735137Y323770D01*
X734035Y324872D01*
X731832Y324872D01*
X730730Y323770D01*
X730730Y322668D01*
X731832Y321567D01*
X735137Y321567D01*
D39*
X762350Y375000D02*
X762350Y395000D01*
X702400Y395000D02*
X702450Y375000D01*
X712400Y355050D02*
X757400Y355000D01*
X712400Y355050D02*
X707400Y355000D01*
X707400Y414950D02*
X757400Y414950D01*
D42*
X683400Y362000D03*
D41*
X683462Y361998D01*
X683523Y361992D01*
X683584Y361983D01*
X683644Y361970D01*
X683703Y361953D01*
X683761Y361932D01*
X683818Y361908D01*
X683873Y361881D01*
X683926Y361850D01*
X683978Y361816D01*
X684027Y361779D01*
X684074Y361739D01*
X684118Y361696D01*
X684159Y361651D01*
X684198Y361603D01*
X684234Y361552D01*
X684266Y361500D01*
X684295Y361446D01*
X684321Y361390D01*
X684343Y361332D01*
X684362Y361274D01*
X684377Y361214D01*
X684388Y361153D01*
X684396Y361092D01*
X684400Y361031D01*
X684400Y360969D01*
X684396Y360908D01*
X684388Y360847D01*
X684377Y360786D01*
X684362Y360726D01*
X684343Y360668D01*
X684321Y360610D01*
X684295Y360554D01*
X684266Y360500D01*
X684234Y360448D01*
X684198Y360397D01*
X684159Y360349D01*
X684118Y360304D01*
X684074Y360261D01*
X684027Y360221D01*
X683978Y360184D01*
X683926Y360150D01*
X683873Y360119D01*
X683818Y360092D01*
X683761Y360068D01*
X683703Y360047D01*
X683644Y360030D01*
X683584Y360017D01*
X683523Y360008D01*
X683462Y360002D01*
X683400Y360000D01*
D42*
X683400Y360000D03*
D41*
X683338Y360002D01*
X683277Y360008D01*
X683216Y360017D01*
X683156Y360030D01*
X683097Y360047D01*
X683039Y360068D01*
X682982Y360092D01*
X682927Y360119D01*
X682874Y360150D01*
X682822Y360184D01*
X682773Y360221D01*
X682726Y360261D01*
X682682Y360304D01*
X682641Y360349D01*
X682602Y360397D01*
X682566Y360448D01*
X682534Y360500D01*
X682505Y360554D01*
X682479Y360610D01*
X682457Y360668D01*
X682438Y360726D01*
X682423Y360786D01*
X682412Y360847D01*
X682404Y360908D01*
X682400Y360969D01*
X682400Y361031D01*
X682404Y361092D01*
X682412Y361153D01*
X682423Y361214D01*
X682438Y361274D01*
X682457Y361332D01*
X682479Y361390D01*
X682505Y361446D01*
X682534Y361500D01*
X682566Y361552D01*
X682602Y361603D01*
X682641Y361651D01*
X682682Y361696D01*
X682726Y361739D01*
X682773Y361779D01*
X682822Y361816D01*
X682874Y361850D01*
X682927Y361881D01*
X682982Y361908D01*
X683039Y361932D01*
X683097Y361953D01*
X683156Y361970D01*
X683216Y361983D01*
X683277Y361992D01*
X683338Y361998D01*
X683400Y362000D01*
D12*
X732684Y424706D02*
X731583Y425808D01*
X729379Y425808D01*
X728278Y424706D01*
X728278Y423604D01*
X729379Y422503D01*
X731583Y422503D01*
X732684Y421401D01*
X732684Y420300D01*
X731583Y419198D01*
X729379Y419198D01*
X728278Y420300D01*
X735762Y423604D02*
X737965Y425808D01*
X737965Y419198D01*
X735762Y419198D02*
X740168Y419198D01*
X415120Y342720D02*
X415120Y330020D01*
X408770Y323670D01*
X396070Y323670D01*
X389720Y330020D01*
X408770Y323670D02*
X415120Y317320D01*
X415120Y304620D01*
X408770Y298270D01*
X396070Y298270D01*
X389720Y304620D01*
X389720Y317320D01*
X396070Y323670D01*
X396070Y349070D02*
X408770Y349070D01*
X415120Y342720D01*
X396070Y349070D02*
X389720Y342720D01*
X389720Y330020D01*
X408770Y298270D02*
X415120Y291920D01*
X415120Y279220D01*
X408770Y272870D01*
X396070Y272870D01*
X389720Y279220D01*
X389720Y291920D01*
X396070Y298270D01*
X385636Y298262D02*
X380128Y298262D01*
X385636Y298262D02*
X386738Y299364D01*
X386738Y301567D01*
X385636Y302668D01*
X380128Y302668D01*
X380128Y305746D02*
X386738Y305746D01*
X386738Y309051D01*
X385636Y310153D01*
X381230Y310153D01*
X380128Y309051D01*
X380128Y305746D01*
X380128Y313230D02*
X386738Y313230D01*
X380128Y313230D02*
X380128Y316535D01*
X381230Y317637D01*
X383433Y317637D01*
X384535Y316535D01*
X384535Y313230D01*
X386738Y320714D02*
X386738Y322918D01*
X386738Y321816D02*
X380128Y321816D01*
X380128Y320714D02*
X380128Y322918D01*
X520762Y500762D02*
X520762Y507372D01*
X524067Y507372D01*
X525168Y506270D01*
X525168Y504067D01*
X524067Y502965D01*
X520762Y502965D01*
X522965Y502965D02*
X525168Y500762D01*
X528246Y506270D02*
X529348Y507372D01*
X531551Y507372D01*
X532653Y506270D01*
X532653Y505168D01*
X531551Y504067D01*
X530449Y504067D01*
X531551Y504067D02*
X532653Y502965D01*
X532653Y501864D01*
X531551Y500762D01*
X529348Y500762D01*
X528246Y501864D01*
X539035Y500762D02*
X539035Y507372D01*
X535730Y504067D01*
X540137Y504067D01*
D43*
X556786Y502844D02*
X563057Y502844D01*
X559921Y505979D02*
X559921Y499709D01*
D44*
X559060Y481020D03*
X547060Y481020D03*
D45*
X553060Y481020D03*
D12*
X562628Y473262D02*
X569238Y473262D01*
X569238Y477668D01*
X562628Y480746D02*
X562628Y485153D01*
X562628Y480746D02*
X569238Y480746D01*
X569238Y485153D01*
X565933Y482949D02*
X565933Y480746D01*
X562628Y488230D02*
X569238Y488230D01*
X569238Y491535D01*
X568136Y492637D01*
X563730Y492637D01*
X562628Y491535D01*
X562628Y488230D01*
X812480Y287440D02*
X812480Y271440D01*
X829980Y268440D02*
X830083Y268452D01*
X830185Y268467D01*
X830286Y268486D01*
X830387Y268508D01*
X830487Y268535D01*
X830586Y268565D01*
X830683Y268599D01*
X830779Y268636D01*
X830874Y268677D01*
X830967Y268722D01*
X831059Y268770D01*
X831148Y268821D01*
X831236Y268876D01*
X831321Y268934D01*
X831405Y268995D01*
X831485Y269059D01*
X831564Y269126D01*
X831640Y269196D01*
X831713Y269269D01*
X831783Y269344D01*
X831851Y269422D01*
X831916Y269503D01*
X831977Y269586D01*
X832036Y269671D01*
X832091Y269758D01*
X832143Y269848D01*
X832191Y269939D01*
X832236Y270032D01*
X832278Y270126D01*
X832316Y270222D01*
X832350Y270320D01*
X832381Y270418D01*
X832408Y270518D01*
X832431Y270618D01*
X832451Y270720D01*
X832466Y270822D01*
X832478Y270924D01*
X832486Y271027D01*
X832490Y271131D01*
X832491Y271234D01*
X832487Y271337D01*
X832480Y271440D01*
X832480Y287440D02*
X832487Y287543D01*
X832491Y287646D01*
X832490Y287749D01*
X832486Y287853D01*
X832478Y287956D01*
X832466Y288058D01*
X832451Y288160D01*
X832431Y288262D01*
X832408Y288362D01*
X832381Y288462D01*
X832350Y288560D01*
X832316Y288658D01*
X832278Y288754D01*
X832236Y288848D01*
X832191Y288941D01*
X832143Y289032D01*
X832091Y289122D01*
X832036Y289209D01*
X831977Y289294D01*
X831916Y289377D01*
X831851Y289458D01*
X831783Y289536D01*
X831713Y289611D01*
X831640Y289684D01*
X831564Y289754D01*
X831485Y289821D01*
X831405Y289885D01*
X831321Y289946D01*
X831236Y290004D01*
X831148Y290059D01*
X831059Y290110D01*
X830967Y290158D01*
X830874Y290203D01*
X830779Y290244D01*
X830683Y290281D01*
X830586Y290315D01*
X830487Y290345D01*
X830387Y290372D01*
X830286Y290394D01*
X830185Y290413D01*
X830083Y290428D01*
X829980Y290440D01*
X814980Y290440D02*
X814877Y290429D01*
X814775Y290414D01*
X814673Y290395D01*
X814573Y290372D01*
X814473Y290346D01*
X814374Y290316D01*
X814276Y290282D01*
X814180Y290245D01*
X814085Y290204D01*
X813992Y290159D01*
X813900Y290111D01*
X813811Y290060D01*
X813723Y290005D01*
X813638Y289947D01*
X813554Y289886D01*
X813473Y289822D01*
X813395Y289755D01*
X813319Y289685D01*
X813246Y289612D01*
X813175Y289536D01*
X813107Y289458D01*
X813043Y289378D01*
X812981Y289295D01*
X812923Y289210D01*
X812868Y289122D01*
X812816Y289033D01*
X812767Y288942D01*
X812722Y288849D01*
X812681Y288754D01*
X812643Y288658D01*
X812608Y288561D01*
X812578Y288462D01*
X812551Y288362D01*
X812527Y288262D01*
X812508Y288160D01*
X812492Y288058D01*
X812481Y287955D01*
X812473Y287852D01*
X812469Y287749D01*
X812468Y287646D01*
X812472Y287542D01*
X812480Y287439D01*
X812480Y271440D02*
X812473Y271337D01*
X812469Y271234D01*
X812470Y271131D01*
X812474Y271027D01*
X812482Y270924D01*
X812494Y270822D01*
X812509Y270720D01*
X812529Y270618D01*
X812552Y270518D01*
X812579Y270418D01*
X812610Y270320D01*
X812644Y270222D01*
X812682Y270126D01*
X812724Y270032D01*
X812769Y269939D01*
X812817Y269848D01*
X812869Y269758D01*
X812924Y269671D01*
X812983Y269586D01*
X813044Y269503D01*
X813109Y269422D01*
X813177Y269344D01*
X813247Y269269D01*
X813320Y269196D01*
X813396Y269126D01*
X813475Y269059D01*
X813555Y268995D01*
X813639Y268934D01*
X813724Y268876D01*
X813812Y268821D01*
X813901Y268770D01*
X813993Y268722D01*
X814086Y268677D01*
X814181Y268636D01*
X814277Y268599D01*
X814374Y268565D01*
X814473Y268535D01*
X814573Y268508D01*
X814674Y268486D01*
X814775Y268467D01*
X814877Y268452D01*
X814980Y268440D01*
X829980Y268440D01*
X829980Y290440D02*
X814980Y290440D01*
X832480Y287440D02*
X832480Y271440D01*
D41*
X510250Y404500D02*
X510252Y404563D01*
X510258Y404625D01*
X510268Y404687D01*
X510281Y404749D01*
X510299Y404809D01*
X510320Y404868D01*
X510345Y404926D01*
X510374Y404982D01*
X510406Y405036D01*
X510441Y405088D01*
X510479Y405137D01*
X510521Y405185D01*
X510565Y405229D01*
X510613Y405271D01*
X510662Y405309D01*
X510714Y405344D01*
X510768Y405376D01*
X510824Y405405D01*
X510882Y405430D01*
X510941Y405451D01*
X511001Y405469D01*
X511063Y405482D01*
X511125Y405492D01*
X511187Y405498D01*
X511250Y405500D01*
X511313Y405498D01*
X511375Y405492D01*
X511437Y405482D01*
X511499Y405469D01*
X511559Y405451D01*
X511618Y405430D01*
X511676Y405405D01*
X511732Y405376D01*
X511786Y405344D01*
X511838Y405309D01*
X511887Y405271D01*
X511935Y405229D01*
X511979Y405185D01*
X512021Y405137D01*
X512059Y405088D01*
X512094Y405036D01*
X512126Y404982D01*
X512155Y404926D01*
X512180Y404868D01*
X512201Y404809D01*
X512219Y404749D01*
X512232Y404687D01*
X512242Y404625D01*
X512248Y404563D01*
X512250Y404500D01*
X512248Y404437D01*
X512242Y404375D01*
X512232Y404313D01*
X512219Y404251D01*
X512201Y404191D01*
X512180Y404132D01*
X512155Y404074D01*
X512126Y404018D01*
X512094Y403964D01*
X512059Y403912D01*
X512021Y403863D01*
X511979Y403815D01*
X511935Y403771D01*
X511887Y403729D01*
X511838Y403691D01*
X511786Y403656D01*
X511732Y403624D01*
X511676Y403595D01*
X511618Y403570D01*
X511559Y403549D01*
X511499Y403531D01*
X511437Y403518D01*
X511375Y403508D01*
X511313Y403502D01*
X511250Y403500D01*
X511187Y403502D01*
X511125Y403508D01*
X511063Y403518D01*
X511001Y403531D01*
X510941Y403549D01*
X510882Y403570D01*
X510824Y403595D01*
X510768Y403624D01*
X510714Y403656D01*
X510662Y403691D01*
X510613Y403729D01*
X510565Y403771D01*
X510521Y403815D01*
X510479Y403863D01*
X510441Y403912D01*
X510406Y403964D01*
X510374Y404018D01*
X510345Y404074D01*
X510320Y404132D01*
X510299Y404191D01*
X510281Y404251D01*
X510268Y404313D01*
X510258Y404375D01*
X510252Y404437D01*
X510250Y404500D01*
D12*
X504552Y391104D02*
X504552Y386698D01*
X504552Y391104D02*
X506755Y393308D01*
X508958Y391104D01*
X508958Y386698D01*
X508958Y390003D02*
X504552Y390003D01*
X512036Y388901D02*
X512036Y393308D01*
X512036Y388901D02*
X514239Y386698D01*
X516442Y388901D01*
X516442Y393308D01*
X519520Y393308D02*
X519520Y386698D01*
X519520Y393308D02*
X522825Y393308D01*
X523926Y392206D01*
X523926Y390003D01*
X522825Y388901D01*
X519520Y388901D01*
X521723Y388901D02*
X523926Y386698D01*
X527004Y386698D02*
X527004Y393308D01*
X527004Y386698D02*
X530309Y386698D01*
X531410Y387800D01*
X531410Y392206D01*
X530309Y393308D01*
X527004Y393308D01*
X534488Y393308D02*
X534488Y386698D01*
X534488Y393308D02*
X537793Y393308D01*
X538895Y392206D01*
X538895Y391104D01*
X537793Y390003D01*
X538895Y388901D01*
X538895Y387800D01*
X537793Y386698D01*
X534488Y386698D01*
X534488Y390003D02*
X537793Y390003D01*
X424478Y446606D02*
X423376Y445504D01*
X423376Y443301D01*
X424478Y442200D01*
X428884Y442200D01*
X429986Y443301D01*
X429986Y445504D01*
X428884Y446606D01*
X425580Y449684D02*
X423376Y451887D01*
X429986Y451887D01*
X429986Y449684D02*
X429986Y454090D01*
X428884Y457168D02*
X429986Y458269D01*
X429986Y460473D01*
X428884Y461574D01*
X424478Y461574D01*
X423376Y460473D01*
X423376Y458269D01*
X424478Y457168D01*
X425580Y457168D01*
X426681Y458269D01*
X426681Y461574D01*
X396978Y446606D02*
X395876Y445504D01*
X395876Y443301D01*
X396978Y442200D01*
X401384Y442200D01*
X402486Y443301D01*
X402486Y445504D01*
X401384Y446606D01*
X398080Y449684D02*
X395876Y451887D01*
X402486Y451887D01*
X402486Y449684D02*
X402486Y454090D01*
X402486Y457168D02*
X402486Y461574D01*
X402486Y457168D02*
X398080Y461574D01*
X396978Y461574D01*
X395876Y460473D01*
X395876Y458269D01*
X396978Y457168D01*
X446567Y359872D02*
X447668Y358770D01*
X446567Y359872D02*
X444364Y359872D01*
X443262Y358770D01*
X443262Y354364D01*
X444364Y353262D01*
X446567Y353262D01*
X447668Y354364D01*
X450746Y357668D02*
X452949Y359872D01*
X452949Y353262D01*
X450746Y353262D02*
X455153Y353262D01*
X458230Y358770D02*
X459332Y359872D01*
X461535Y359872D01*
X462637Y358770D01*
X462637Y357668D01*
X461535Y356567D01*
X462637Y355465D01*
X462637Y354364D01*
X461535Y353262D01*
X459332Y353262D01*
X458230Y354364D01*
X458230Y355465D01*
X459332Y356567D01*
X458230Y357668D01*
X458230Y358770D01*
X459332Y356567D02*
X461535Y356567D01*
X447668Y383770D02*
X446567Y384872D01*
X444364Y384872D01*
X443262Y383770D01*
X443262Y379364D01*
X444364Y378262D01*
X446567Y378262D01*
X447668Y379364D01*
X450746Y382668D02*
X452949Y384872D01*
X452949Y378262D01*
X450746Y378262D02*
X455153Y378262D01*
X458230Y382668D02*
X460434Y384872D01*
X460434Y378262D01*
X462637Y378262D02*
X458230Y378262D01*
X487668Y496270D02*
X486567Y497372D01*
X484364Y497372D01*
X483262Y496270D01*
X483262Y491864D01*
X484364Y490762D01*
X486567Y490762D01*
X487668Y491864D01*
X490746Y490762D02*
X495153Y490762D01*
X495153Y495168D02*
X490746Y490762D01*
X495153Y495168D02*
X495153Y496270D01*
X494051Y497372D01*
X491848Y497372D01*
X490746Y496270D01*
X498230Y496270D02*
X498230Y491864D01*
X498230Y496270D02*
X499332Y497372D01*
X501535Y497372D01*
X502637Y496270D01*
X502637Y491864D01*
X501535Y490762D01*
X499332Y490762D01*
X498230Y491864D01*
X502637Y496270D01*
X516277Y507712D02*
X517378Y506610D01*
X516277Y507712D02*
X514074Y507712D01*
X512972Y506610D01*
X512972Y502204D01*
X514074Y501102D01*
X516277Y501102D01*
X517378Y502204D01*
X520456Y505508D02*
X522659Y507712D01*
X522659Y501102D01*
X520456Y501102D02*
X524863Y501102D01*
X527940Y506610D02*
X529042Y507712D01*
X531245Y507712D01*
X532347Y506610D01*
X532347Y505508D01*
X531245Y504407D01*
X530144Y504407D01*
X531245Y504407D02*
X532347Y503305D01*
X532347Y502204D01*
X531245Y501102D01*
X529042Y501102D01*
X527940Y502204D01*
D36*
X317300Y414300D02*
X317300Y185700D01*
X317300Y414300D02*
X342700Y414300D01*
X342700Y185700D01*
X317300Y185700D01*
D12*
X310950Y198400D02*
X306544Y198400D01*
X304340Y200603D01*
X306544Y202806D01*
X310950Y202806D01*
X307645Y202806D02*
X307645Y198400D01*
X310950Y205884D02*
X304340Y205884D01*
X310950Y210291D01*
X304340Y210291D01*
X306544Y213368D02*
X310950Y213368D01*
X306544Y213368D02*
X304340Y215572D01*
X306544Y217775D01*
X310950Y217775D01*
X307645Y217775D02*
X307645Y213368D01*
X304340Y220852D02*
X310950Y220852D01*
X310950Y225259D01*
X304340Y229438D02*
X304340Y231641D01*
X304340Y229438D02*
X305442Y228337D01*
X309848Y228337D01*
X310950Y229438D01*
X310950Y231641D01*
X309848Y232743D01*
X305442Y232743D01*
X304340Y231641D01*
X304340Y239126D02*
X305442Y240227D01*
X304340Y239126D02*
X304340Y236922D01*
X305442Y235821D01*
X309848Y235821D01*
X310950Y236922D01*
X310950Y239126D01*
X309848Y240227D01*
X307645Y240227D01*
X307645Y238024D01*
X312052Y243305D02*
X312052Y247711D01*
X304340Y250789D02*
X304340Y255196D01*
X304340Y250789D02*
X310950Y250789D01*
X310950Y255196D01*
X307645Y252992D02*
X307645Y250789D01*
X304340Y258273D02*
X310950Y262680D01*
X310950Y258273D02*
X304340Y262680D01*
X304340Y265757D02*
X310950Y265757D01*
X304340Y265757D02*
X304340Y269062D01*
X305442Y270164D01*
X307645Y270164D01*
X308747Y269062D01*
X308747Y265757D01*
X310950Y273242D02*
X306544Y273242D01*
X304340Y275445D01*
X306544Y277648D01*
X310950Y277648D01*
X307645Y277648D02*
X307645Y273242D01*
X310950Y280726D02*
X304340Y280726D01*
X310950Y285132D01*
X304340Y285132D01*
X304340Y288210D02*
X310950Y288210D01*
X310950Y291515D01*
X309848Y292616D01*
X305442Y292616D01*
X304340Y291515D01*
X304340Y288210D01*
X304340Y295694D02*
X304340Y300100D01*
X304340Y295694D02*
X310950Y295694D01*
X310950Y300100D01*
X307645Y297897D02*
X307645Y295694D01*
X310950Y303178D02*
X304340Y303178D01*
X304340Y306483D01*
X305442Y307585D01*
X307645Y307585D01*
X308747Y306483D01*
X308747Y303178D01*
X308747Y305381D02*
X310950Y307585D01*
X755762Y318262D02*
X755762Y324872D01*
X759067Y324872D01*
X760168Y323770D01*
X760168Y321567D01*
X759067Y320465D01*
X755762Y320465D01*
X757965Y320465D02*
X760168Y318262D01*
X766551Y318262D02*
X766551Y324872D01*
X763246Y321567D01*
X767653Y321567D01*
X770730Y323770D02*
X771832Y324872D01*
X774035Y324872D01*
X775137Y323770D01*
X775137Y322668D01*
X774035Y321567D01*
X772934Y321567D01*
X774035Y321567D02*
X775137Y320465D01*
X775137Y319364D01*
X774035Y318262D01*
X771832Y318262D01*
X770730Y319364D01*
D14*
X703870Y460540D02*
X698870Y460540D01*
X698870Y465540D01*
X698870Y508540D02*
X704870Y508540D01*
X698870Y508540D02*
X698870Y503540D01*
X741870Y508540D02*
X746870Y508540D01*
X746870Y503540D01*
D12*
X704598Y525980D02*
X703497Y527082D01*
X701294Y527082D01*
X700192Y525980D01*
X700192Y521574D01*
X701294Y520472D01*
X703497Y520472D01*
X704598Y521574D01*
X707676Y520472D02*
X707676Y527082D01*
X710981Y527082D01*
X712083Y525980D01*
X712083Y523777D01*
X710981Y522675D01*
X707676Y522675D01*
X715160Y520472D02*
X719567Y520472D01*
X719567Y524878D02*
X715160Y520472D01*
X719567Y524878D02*
X719567Y525980D01*
X718465Y527082D01*
X716262Y527082D01*
X715160Y525980D01*
X722644Y524878D02*
X724848Y527082D01*
X724848Y520472D01*
X727051Y520472D02*
X722644Y520472D01*
X730129Y521574D02*
X730129Y525980D01*
X731230Y527082D01*
X733433Y527082D01*
X734535Y525980D01*
X734535Y521574D01*
X733433Y520472D01*
X731230Y520472D01*
X730129Y521574D01*
X734535Y525980D01*
X737613Y520472D02*
X742019Y520472D01*
X737613Y520472D02*
X742019Y524878D01*
X742019Y525980D01*
X740918Y527082D01*
X738714Y527082D01*
X737613Y525980D01*
X460168Y313770D02*
X459067Y314872D01*
X456864Y314872D01*
X455762Y313770D01*
X455762Y309364D01*
X456864Y308262D01*
X459067Y308262D01*
X460168Y309364D01*
X463246Y308262D02*
X467653Y308262D01*
X467653Y312668D02*
X463246Y308262D01*
X467653Y312668D02*
X467653Y313770D01*
X466551Y314872D01*
X464348Y314872D01*
X463246Y313770D01*
X472934Y313770D02*
X475137Y314872D01*
X472934Y313770D02*
X470730Y311567D01*
X470730Y309364D01*
X471832Y308262D01*
X474035Y308262D01*
X475137Y309364D01*
X475137Y310465D01*
X474035Y311567D01*
X470730Y311567D01*
D36*
X800344Y439690D02*
X800344Y451690D01*
X791836Y451690D02*
X791836Y439690D01*
X796090Y446190D02*
X798590Y443690D01*
X793590Y443690D01*
X796090Y446190D01*
D37*
X796090Y447436D03*
D12*
X788388Y431512D02*
X781778Y431512D01*
X788388Y431512D02*
X788388Y434817D01*
X787286Y435918D01*
X782880Y435918D01*
X781778Y434817D01*
X781778Y431512D01*
X783982Y438996D02*
X781778Y441199D01*
X788388Y441199D01*
X788388Y438996D02*
X788388Y443403D01*
X783982Y446480D02*
X781778Y448684D01*
X788388Y448684D01*
X788388Y450887D02*
X788388Y446480D01*
D36*
X791916Y465490D02*
X791916Y477490D01*
X800424Y477490D02*
X800424Y465490D01*
X796170Y470990D02*
X793670Y473490D01*
X798670Y473490D01*
X796170Y470990D01*
D37*
X796170Y469744D03*
D12*
X788068Y466752D02*
X781458Y466752D01*
X788068Y466752D02*
X788068Y470057D01*
X786966Y471158D01*
X782560Y471158D01*
X781458Y470057D01*
X781458Y466752D01*
X783662Y474236D02*
X781458Y476439D01*
X788068Y476439D01*
X788068Y474236D02*
X788068Y478643D01*
X786966Y481720D02*
X782560Y481720D01*
X781458Y482822D01*
X781458Y485025D01*
X782560Y486127D01*
X786966Y486127D01*
X788068Y485025D01*
X788068Y482822D01*
X786966Y481720D01*
X782560Y486127D01*
X423262Y269872D02*
X423262Y263262D01*
X423262Y269872D02*
X426567Y269872D01*
X427668Y268770D01*
X427668Y266567D01*
X426567Y265465D01*
X423262Y265465D01*
X425465Y265465D02*
X427668Y263262D01*
X430746Y268770D02*
X431848Y269872D01*
X434051Y269872D01*
X435153Y268770D01*
X435153Y267668D01*
X434051Y266567D01*
X432949Y266567D01*
X434051Y266567D02*
X435153Y265465D01*
X435153Y264364D01*
X434051Y263262D01*
X431848Y263262D01*
X430746Y264364D01*
X438230Y269872D02*
X442637Y269872D01*
X438230Y269872D02*
X438230Y266567D01*
X440434Y267668D01*
X441535Y267668D01*
X442637Y266567D01*
X442637Y264364D01*
X441535Y263262D01*
X439332Y263262D01*
X438230Y264364D01*
X613310Y477306D02*
X613310Y482814D01*
X613310Y477306D02*
X614411Y476204D01*
X616614Y476204D01*
X617716Y477306D01*
X617716Y482814D01*
X624099Y482814D02*
X625200Y481712D01*
X624099Y482814D02*
X621895Y482814D01*
X620794Y481712D01*
X620794Y480610D01*
X621895Y479509D01*
X624099Y479509D01*
X625200Y478407D01*
X625200Y477306D01*
X624099Y476204D01*
X621895Y476204D01*
X620794Y477306D01*
X628278Y476204D02*
X628278Y482814D01*
X631583Y482814D01*
X632684Y481712D01*
X632684Y480610D01*
X631583Y479509D01*
X632684Y478407D01*
X632684Y477306D01*
X631583Y476204D01*
X628278Y476204D01*
X628278Y479509D02*
X631583Y479509D01*
X635762Y475102D02*
X640168Y475102D01*
X645449Y476204D02*
X645449Y482814D01*
X643246Y482814D02*
X647653Y482814D01*
X650730Y482814D02*
X655137Y476204D01*
X650730Y476204D02*
X655137Y482814D01*
X613550Y500834D02*
X613550Y506342D01*
X613550Y500834D02*
X614651Y499732D01*
X616854Y499732D01*
X617956Y500834D01*
X617956Y506342D01*
X624339Y506342D02*
X625440Y505240D01*
X624339Y506342D02*
X622135Y506342D01*
X621034Y505240D01*
X621034Y504138D01*
X622135Y503037D01*
X624339Y503037D01*
X625440Y501935D01*
X625440Y500834D01*
X624339Y499732D01*
X622135Y499732D01*
X621034Y500834D01*
X628518Y499732D02*
X628518Y506342D01*
X631823Y506342D01*
X632924Y505240D01*
X632924Y504138D01*
X631823Y503037D01*
X632924Y501935D01*
X632924Y500834D01*
X631823Y499732D01*
X628518Y499732D01*
X628518Y503037D02*
X631823Y503037D01*
X636002Y498630D02*
X640408Y498630D01*
X643486Y499732D02*
X643486Y506342D01*
X646791Y506342D01*
X647893Y505240D01*
X647893Y503037D01*
X646791Y501935D01*
X643486Y501935D01*
X645689Y501935D02*
X647893Y499732D01*
X650970Y506342D02*
X655377Y499732D01*
X650970Y499732D02*
X655377Y506342D01*
X764067Y537372D02*
X765168Y536270D01*
X764067Y537372D02*
X761864Y537372D01*
X760762Y536270D01*
X760762Y531864D01*
X761864Y530762D01*
X764067Y530762D01*
X765168Y531864D01*
X768246Y530762D02*
X772653Y530762D01*
X772653Y535168D02*
X768246Y530762D01*
X772653Y535168D02*
X772653Y536270D01*
X771551Y537372D01*
X769348Y537372D01*
X768246Y536270D01*
X779035Y537372D02*
X779035Y530762D01*
X775730Y534067D02*
X779035Y537372D01*
X780137Y534067D02*
X775730Y534067D01*
X764067Y512372D02*
X765168Y511270D01*
X764067Y512372D02*
X761864Y512372D01*
X760762Y511270D01*
X760762Y506864D01*
X761864Y505762D01*
X764067Y505762D01*
X765168Y506864D01*
X768246Y505762D02*
X772653Y505762D01*
X772653Y510168D02*
X768246Y505762D01*
X772653Y510168D02*
X772653Y511270D01*
X771551Y512372D01*
X769348Y512372D01*
X768246Y511270D01*
X775730Y512372D02*
X780137Y512372D01*
X775730Y512372D02*
X775730Y509067D01*
X777934Y510168D01*
X779035Y510168D01*
X780137Y509067D01*
X780137Y506864D01*
X779035Y505762D01*
X776832Y505762D01*
X775730Y506864D01*
D36*
X741000Y10000D02*
X599000Y10000D01*
D12*
X718362Y25762D02*
X718362Y31524D01*
X721243Y34405D01*
X724124Y31524D01*
X724124Y25762D01*
X724124Y30084D02*
X718362Y30084D01*
X727717Y31524D02*
X727717Y25762D01*
X727717Y31524D02*
X732039Y31524D01*
X733479Y30084D01*
X733479Y25762D01*
X738513Y27203D02*
X738513Y32965D01*
X738513Y27203D02*
X739954Y25762D01*
X739954Y31524D02*
X737072Y31524D01*
X743309Y27203D02*
X743309Y25762D01*
X743309Y27203D02*
X744750Y27203D01*
X744750Y25762D01*
X743309Y25762D01*
X719362Y48693D02*
X719362Y54455D01*
X719362Y48693D02*
X722243Y45812D01*
X725124Y48693D01*
X725124Y54455D01*
X733039Y54455D02*
X734479Y53015D01*
X733039Y54455D02*
X730158Y54455D01*
X728717Y53015D01*
X728717Y47253D01*
X730158Y45812D01*
X733039Y45812D01*
X734479Y47253D01*
X742394Y54455D02*
X743835Y53015D01*
X742394Y54455D02*
X739513Y54455D01*
X738072Y53015D01*
X738072Y47253D01*
X739513Y45812D01*
X742394Y45812D01*
X743835Y47253D01*
X725124Y73065D02*
X723684Y74505D01*
X720803Y74505D01*
X719362Y73065D01*
X719362Y67303D01*
X720803Y65862D01*
X723684Y65862D01*
X725124Y67303D01*
X725124Y70184D01*
X722243Y70184D01*
X728717Y74505D02*
X728717Y65862D01*
X734479Y65862D02*
X728717Y74505D01*
X734479Y74505D02*
X734479Y65862D01*
X738072Y65862D02*
X738072Y74505D01*
X738072Y65862D02*
X742394Y65862D01*
X743835Y67303D01*
X743835Y73065D01*
X742394Y74505D01*
X738072Y74505D01*
X607690Y87206D02*
X607690Y59266D01*
X634106Y59266D01*
X634106Y87206D01*
X607690Y87206D01*
X623296Y83446D02*
X629905Y83446D01*
X629905Y80141D01*
X628804Y79040D01*
X626601Y79040D01*
X625499Y80141D01*
X625499Y83446D01*
X625499Y81243D02*
X623296Y79040D01*
X623296Y75962D02*
X629905Y75962D01*
X629905Y71556D01*
X626601Y73759D02*
X626601Y75962D01*
X629905Y68478D02*
X623296Y68478D01*
X627702Y66275D02*
X629905Y68478D01*
X627702Y66275D02*
X629905Y64072D01*
X623296Y64072D01*
X618364Y81243D02*
X616160Y83446D01*
X618364Y81243D02*
X611754Y81243D01*
X611754Y83446D02*
X611754Y79040D01*
X611754Y75962D02*
X611754Y71556D01*
X611754Y75962D02*
X616160Y71556D01*
X617262Y71556D01*
X618364Y72657D01*
X618364Y74860D01*
X617262Y75962D01*
X618364Y68478D02*
X611754Y68478D01*
X618364Y68478D02*
X618364Y65173D01*
X617262Y64072D01*
X616160Y64072D01*
X615059Y65173D01*
X613957Y64072D01*
X612856Y64072D01*
X611754Y65173D01*
X611754Y68478D01*
X615059Y68478D02*
X615059Y65173D01*
X716750Y85428D02*
X716750Y119718D01*
X716750Y85428D02*
X742150Y85428D01*
X742150Y119718D01*
X716750Y119718D01*
X731848Y112148D02*
X738457Y112148D01*
X738457Y108843D01*
X737356Y107742D01*
X735153Y107742D01*
X734051Y108843D01*
X734051Y112148D01*
X734051Y109945D02*
X731848Y107742D01*
X731848Y104664D02*
X738457Y104664D01*
X738457Y100258D01*
X735153Y102461D02*
X735153Y104664D01*
X738457Y97180D02*
X731848Y97180D01*
X736254Y94977D02*
X738457Y97180D01*
X736254Y94977D02*
X738457Y92774D01*
X731848Y92774D01*
X726916Y111484D02*
X725814Y113687D01*
X723611Y115890D01*
X721408Y115890D01*
X720306Y114789D01*
X720306Y112586D01*
X721408Y111484D01*
X722509Y111484D01*
X723611Y112586D01*
X723611Y115890D01*
X721408Y108406D02*
X720306Y107305D01*
X720306Y105101D01*
X721408Y104000D01*
X725814Y104000D01*
X726916Y105101D01*
X726916Y107305D01*
X725814Y108406D01*
X724712Y108406D01*
X723611Y107305D01*
X723611Y104000D01*
X726916Y97617D02*
X725814Y96516D01*
X726916Y97617D02*
X726916Y99820D01*
X725814Y100922D01*
X721408Y100922D01*
X720306Y99820D01*
X720306Y97617D01*
X721408Y96516D01*
X720306Y93438D02*
X726916Y93438D01*
X722509Y91235D02*
X720306Y93438D01*
X722509Y91235D02*
X720306Y89031D01*
X726916Y89031D01*
X659252Y64600D02*
X659252Y119210D01*
X659252Y64600D02*
X688462Y64600D01*
X688462Y119210D01*
X659252Y119210D01*
D46*
X668523Y98255D02*
X668523Y94781D01*
X668523Y96518D02*
X678946Y96518D01*
X678946Y98255D02*
X678946Y94781D01*
X678946Y85248D02*
X677209Y83510D01*
X678946Y85248D02*
X678946Y88722D01*
X677209Y90459D01*
X670260Y90459D01*
X668523Y88722D01*
X668523Y85248D01*
X670260Y83510D01*
D36*
X599000Y170000D02*
X753000Y170000D01*
D12*
X613410Y34335D02*
X611970Y35775D01*
X609089Y35775D01*
X607648Y34335D01*
X607648Y28573D01*
X609089Y27132D01*
X611970Y27132D01*
X613410Y28573D01*
X613410Y31454D01*
X610529Y31454D01*
X617003Y35775D02*
X617003Y27132D01*
X622765Y27132D02*
X617003Y35775D01*
X622765Y35775D02*
X622765Y27132D01*
X626358Y27132D02*
X626358Y35775D01*
X626358Y27132D02*
X630680Y27132D01*
X632121Y28573D01*
X632121Y34335D01*
X630680Y35775D01*
X626358Y35775D01*
X579046Y73862D02*
X572436Y73862D01*
X572436Y77167D01*
X573538Y78268D01*
X575741Y78268D01*
X576843Y77167D01*
X576843Y73862D01*
X576843Y76065D02*
X579046Y78268D01*
X579046Y81346D02*
X572436Y81346D01*
X572436Y85753D01*
X575741Y83549D02*
X575741Y81346D01*
X579046Y88830D02*
X572436Y88830D01*
X574640Y91034D01*
X572436Y93237D01*
X579046Y93237D01*
X573538Y98518D02*
X572436Y100721D01*
X573538Y98518D02*
X575741Y96314D01*
X577944Y96314D01*
X579046Y97416D01*
X579046Y99619D01*
X577944Y100721D01*
X576843Y100721D01*
X575741Y99619D01*
X575741Y96314D01*
X577944Y103799D02*
X579046Y104900D01*
X579046Y107103D01*
X577944Y108205D01*
X573538Y108205D01*
X572436Y107103D01*
X572436Y104900D01*
X573538Y103799D01*
X574640Y103799D01*
X575741Y104900D01*
X575741Y108205D01*
M02*
