G04 EAGLE Gerber RS-274X export*
G75*
%MOMM*%
%FSLAX34Y34*%
%LPD*%
%IN*%
%IPPOS*%
%AMOC8*
5,1,8,0,0,1.08239X$1,22.5*%
G01*
%ADD10C,0.254000*%


D10*
X50000Y-20000D02*
X900000Y-20000D01*
X900000Y860000D01*
X50000Y860000D01*
X50000Y-20000D01*
X299000Y239500D02*
X298929Y238503D01*
X298786Y237513D01*
X298574Y236536D01*
X298292Y235576D01*
X297943Y234639D01*
X297527Y233729D01*
X297048Y232852D01*
X296507Y232010D01*
X295908Y231210D01*
X295253Y230454D01*
X294546Y229747D01*
X293790Y229092D01*
X292990Y228493D01*
X292148Y227952D01*
X291271Y227473D01*
X290361Y227057D01*
X289424Y226708D01*
X288465Y226426D01*
X287487Y226214D01*
X286498Y226071D01*
X285500Y226000D01*
X284500Y226000D01*
X283503Y226071D01*
X282513Y226214D01*
X281536Y226426D01*
X280576Y226708D01*
X279639Y227057D01*
X278729Y227473D01*
X277852Y227952D01*
X277010Y228493D01*
X276210Y229092D01*
X275454Y229747D01*
X274747Y230454D01*
X274092Y231210D01*
X273493Y232010D01*
X272952Y232852D01*
X272473Y233729D01*
X272057Y234639D01*
X271708Y235576D01*
X271426Y236536D01*
X271214Y237513D01*
X271071Y238503D01*
X271000Y239500D01*
X271000Y240500D01*
X271071Y241498D01*
X271214Y242487D01*
X271426Y243465D01*
X271708Y244424D01*
X272057Y245361D01*
X272473Y246271D01*
X272952Y247148D01*
X273493Y247990D01*
X274092Y248790D01*
X274747Y249546D01*
X275454Y250253D01*
X276210Y250908D01*
X277010Y251507D01*
X277852Y252048D01*
X278729Y252527D01*
X279639Y252943D01*
X280576Y253292D01*
X281536Y253574D01*
X282513Y253786D01*
X283503Y253929D01*
X284500Y254000D01*
X285500Y254000D01*
X286498Y253929D01*
X287487Y253786D01*
X288465Y253574D01*
X289424Y253292D01*
X290361Y252943D01*
X291271Y252527D01*
X292148Y252048D01*
X292990Y251507D01*
X293790Y250908D01*
X294546Y250253D01*
X295253Y249546D01*
X295908Y248790D01*
X296507Y247990D01*
X297048Y247148D01*
X297527Y246271D01*
X297943Y245361D01*
X298292Y244424D01*
X298574Y243465D01*
X298786Y242487D01*
X298929Y241498D01*
X299000Y240500D01*
X299000Y239500D01*
X299000Y729500D02*
X298929Y728503D01*
X298786Y727513D01*
X298574Y726536D01*
X298292Y725576D01*
X297943Y724639D01*
X297527Y723729D01*
X297048Y722852D01*
X296507Y722010D01*
X295908Y721210D01*
X295253Y720454D01*
X294546Y719747D01*
X293790Y719092D01*
X292990Y718493D01*
X292148Y717952D01*
X291271Y717473D01*
X290361Y717057D01*
X289424Y716708D01*
X288465Y716426D01*
X287487Y716214D01*
X286498Y716071D01*
X285500Y716000D01*
X284500Y716000D01*
X283503Y716071D01*
X282513Y716214D01*
X281536Y716426D01*
X280576Y716708D01*
X279639Y717057D01*
X278729Y717473D01*
X277852Y717952D01*
X277010Y718493D01*
X276210Y719092D01*
X275454Y719747D01*
X274747Y720454D01*
X274092Y721210D01*
X273493Y722010D01*
X272952Y722852D01*
X272473Y723729D01*
X272057Y724639D01*
X271708Y725576D01*
X271426Y726536D01*
X271214Y727513D01*
X271071Y728503D01*
X271000Y729500D01*
X271000Y730500D01*
X271071Y731498D01*
X271214Y732487D01*
X271426Y733465D01*
X271708Y734424D01*
X272057Y735361D01*
X272473Y736271D01*
X272952Y737148D01*
X273493Y737990D01*
X274092Y738790D01*
X274747Y739546D01*
X275454Y740253D01*
X276210Y740908D01*
X277010Y741507D01*
X277852Y742048D01*
X278729Y742527D01*
X279639Y742943D01*
X280576Y743292D01*
X281536Y743574D01*
X282513Y743786D01*
X283503Y743929D01*
X284500Y744000D01*
X285500Y744000D01*
X286498Y743929D01*
X287487Y743786D01*
X288465Y743574D01*
X289424Y743292D01*
X290361Y742943D01*
X291271Y742527D01*
X292148Y742048D01*
X292990Y741507D01*
X293790Y740908D01*
X294546Y740253D01*
X295253Y739546D01*
X295908Y738790D01*
X296507Y737990D01*
X297048Y737148D01*
X297527Y736271D01*
X297943Y735361D01*
X298292Y734424D01*
X298574Y733465D01*
X298786Y732487D01*
X298929Y731498D01*
X299000Y730500D01*
X299000Y729500D01*
X324000Y57000D02*
X323929Y56003D01*
X323786Y55013D01*
X323574Y54036D01*
X323292Y53076D01*
X322943Y52139D01*
X322527Y51229D01*
X322048Y50352D01*
X321507Y49510D01*
X320908Y48710D01*
X320253Y47954D01*
X319546Y47247D01*
X318790Y46592D01*
X317990Y45993D01*
X317148Y45452D01*
X316271Y44973D01*
X315361Y44557D01*
X314424Y44208D01*
X313465Y43926D01*
X312487Y43714D01*
X311498Y43571D01*
X310500Y43500D01*
X309500Y43500D01*
X308503Y43571D01*
X307513Y43714D01*
X306536Y43926D01*
X305576Y44208D01*
X304639Y44557D01*
X303729Y44973D01*
X302852Y45452D01*
X302010Y45993D01*
X301210Y46592D01*
X300454Y47247D01*
X299747Y47954D01*
X299092Y48710D01*
X298493Y49510D01*
X297952Y50352D01*
X297473Y51229D01*
X297057Y52139D01*
X296708Y53076D01*
X296426Y54036D01*
X296214Y55013D01*
X296071Y56003D01*
X296000Y57000D01*
X296000Y58000D01*
X296071Y58998D01*
X296214Y59987D01*
X296426Y60965D01*
X296708Y61924D01*
X297057Y62861D01*
X297473Y63771D01*
X297952Y64648D01*
X298493Y65490D01*
X299092Y66290D01*
X299747Y67046D01*
X300454Y67753D01*
X301210Y68408D01*
X302010Y69007D01*
X302852Y69548D01*
X303729Y70027D01*
X304639Y70443D01*
X305576Y70792D01*
X306536Y71074D01*
X307513Y71286D01*
X308503Y71429D01*
X309500Y71500D01*
X310500Y71500D01*
X311498Y71429D01*
X312487Y71286D01*
X313465Y71074D01*
X314424Y70792D01*
X315361Y70443D01*
X316271Y70027D01*
X317148Y69548D01*
X317990Y69007D01*
X318790Y68408D01*
X319546Y67753D01*
X320253Y67046D01*
X320908Y66290D01*
X321507Y65490D01*
X322048Y64648D01*
X322527Y63771D01*
X322943Y62861D01*
X323292Y61924D01*
X323574Y60965D01*
X323786Y59987D01*
X323929Y58998D01*
X324000Y58000D01*
X324000Y57000D01*
X324000Y799500D02*
X323929Y798503D01*
X323786Y797513D01*
X323574Y796536D01*
X323292Y795576D01*
X322943Y794639D01*
X322527Y793729D01*
X322048Y792852D01*
X321507Y792010D01*
X320908Y791210D01*
X320253Y790454D01*
X319546Y789747D01*
X318790Y789092D01*
X317990Y788493D01*
X317148Y787952D01*
X316271Y787473D01*
X315361Y787057D01*
X314424Y786708D01*
X313465Y786426D01*
X312487Y786214D01*
X311498Y786071D01*
X310500Y786000D01*
X309500Y786000D01*
X308503Y786071D01*
X307513Y786214D01*
X306536Y786426D01*
X305576Y786708D01*
X304639Y787057D01*
X303729Y787473D01*
X302852Y787952D01*
X302010Y788493D01*
X301210Y789092D01*
X300454Y789747D01*
X299747Y790454D01*
X299092Y791210D01*
X298493Y792010D01*
X297952Y792852D01*
X297473Y793729D01*
X297057Y794639D01*
X296708Y795576D01*
X296426Y796536D01*
X296214Y797513D01*
X296071Y798503D01*
X296000Y799500D01*
X296000Y800500D01*
X296071Y801498D01*
X296214Y802487D01*
X296426Y803465D01*
X296708Y804424D01*
X297057Y805361D01*
X297473Y806271D01*
X297952Y807148D01*
X298493Y807990D01*
X299092Y808790D01*
X299747Y809546D01*
X300454Y810253D01*
X301210Y810908D01*
X302010Y811507D01*
X302852Y812048D01*
X303729Y812527D01*
X304639Y812943D01*
X305576Y813292D01*
X306536Y813574D01*
X307513Y813786D01*
X308503Y813929D01*
X309500Y814000D01*
X310500Y814000D01*
X311498Y813929D01*
X312487Y813786D01*
X313465Y813574D01*
X314424Y813292D01*
X315361Y812943D01*
X316271Y812527D01*
X317148Y812048D01*
X317990Y811507D01*
X318790Y810908D01*
X319546Y810253D01*
X320253Y809546D01*
X320908Y808790D01*
X321507Y807990D01*
X322048Y807148D01*
X322527Y806271D01*
X322943Y805361D01*
X323292Y804424D01*
X323574Y803465D01*
X323786Y802487D01*
X323929Y801498D01*
X324000Y800500D01*
X324000Y799500D01*
X845524Y573850D02*
X846569Y573782D01*
X847608Y573645D01*
X848635Y573440D01*
X849647Y573169D01*
X850639Y572833D01*
X851607Y572432D01*
X852546Y571968D01*
X853454Y571445D01*
X854325Y570863D01*
X855156Y570225D01*
X855943Y569534D01*
X856684Y568793D01*
X857375Y568006D01*
X858013Y567175D01*
X858595Y566304D01*
X859118Y565396D01*
X859582Y564457D01*
X859983Y563489D01*
X860319Y562497D01*
X860590Y561485D01*
X860795Y560458D01*
X860932Y559419D01*
X861000Y558374D01*
X861000Y557326D01*
X860932Y556281D01*
X860795Y555242D01*
X860590Y554215D01*
X860319Y553203D01*
X859983Y552211D01*
X859582Y551243D01*
X859118Y550304D01*
X858595Y549396D01*
X858013Y548525D01*
X857375Y547694D01*
X856684Y546907D01*
X855943Y546166D01*
X855156Y545475D01*
X854325Y544838D01*
X853454Y544256D01*
X852546Y543732D01*
X851607Y543268D01*
X850639Y542867D01*
X849647Y542531D01*
X848635Y542260D01*
X847608Y542055D01*
X846569Y541919D01*
X845524Y541850D01*
X844476Y541850D01*
X843431Y541919D01*
X842392Y542055D01*
X841365Y542260D01*
X840353Y542531D01*
X839361Y542867D01*
X838393Y543268D01*
X837454Y543732D01*
X836546Y544256D01*
X835675Y544838D01*
X834844Y545475D01*
X834057Y546166D01*
X833316Y546907D01*
X832625Y547694D01*
X831988Y548525D01*
X831406Y549396D01*
X830882Y550304D01*
X830418Y551243D01*
X830017Y552211D01*
X829681Y553203D01*
X829410Y554215D01*
X829205Y555242D01*
X829069Y556281D01*
X829000Y557326D01*
X829000Y558374D01*
X829069Y559419D01*
X829205Y560458D01*
X829410Y561485D01*
X829681Y562497D01*
X830017Y563489D01*
X830418Y564457D01*
X830882Y565396D01*
X831406Y566304D01*
X831988Y567175D01*
X832625Y568006D01*
X833316Y568793D01*
X834057Y569534D01*
X834844Y570225D01*
X835675Y570863D01*
X836546Y571445D01*
X837454Y571968D01*
X838393Y572432D01*
X839361Y572833D01*
X840353Y573169D01*
X841365Y573440D01*
X842392Y573645D01*
X843431Y573782D01*
X844476Y573850D01*
X845524Y573850D01*
X845524Y688150D02*
X846569Y688082D01*
X847608Y687945D01*
X848635Y687740D01*
X849647Y687469D01*
X850639Y687133D01*
X851607Y686732D01*
X852546Y686268D01*
X853454Y685745D01*
X854325Y685163D01*
X855156Y684525D01*
X855943Y683834D01*
X856684Y683093D01*
X857375Y682306D01*
X858013Y681475D01*
X858595Y680604D01*
X859118Y679696D01*
X859582Y678757D01*
X859983Y677789D01*
X860319Y676797D01*
X860590Y675785D01*
X860795Y674758D01*
X860932Y673719D01*
X861000Y672674D01*
X861000Y671626D01*
X860932Y670581D01*
X860795Y669542D01*
X860590Y668515D01*
X860319Y667503D01*
X859983Y666511D01*
X859582Y665543D01*
X859118Y664604D01*
X858595Y663696D01*
X858013Y662825D01*
X857375Y661994D01*
X856684Y661207D01*
X855943Y660466D01*
X855156Y659775D01*
X854325Y659138D01*
X853454Y658556D01*
X852546Y658032D01*
X851607Y657568D01*
X850639Y657167D01*
X849647Y656831D01*
X848635Y656560D01*
X847608Y656355D01*
X846569Y656219D01*
X845524Y656150D01*
X844476Y656150D01*
X843431Y656219D01*
X842392Y656355D01*
X841365Y656560D01*
X840353Y656831D01*
X839361Y657167D01*
X838393Y657568D01*
X837454Y658032D01*
X836546Y658556D01*
X835675Y659138D01*
X834844Y659775D01*
X834057Y660466D01*
X833316Y661207D01*
X832625Y661994D01*
X831988Y662825D01*
X831406Y663696D01*
X830882Y664604D01*
X830418Y665543D01*
X830017Y666511D01*
X829681Y667503D01*
X829410Y668515D01*
X829205Y669542D01*
X829069Y670581D01*
X829000Y671626D01*
X829000Y672674D01*
X829069Y673719D01*
X829205Y674758D01*
X829410Y675785D01*
X829681Y676797D01*
X830017Y677789D01*
X830418Y678757D01*
X830882Y679696D01*
X831406Y680604D01*
X831988Y681475D01*
X832625Y682306D01*
X833316Y683093D01*
X834057Y683834D01*
X834844Y684525D01*
X835675Y685163D01*
X836546Y685745D01*
X837454Y686268D01*
X838393Y686732D01*
X839361Y687133D01*
X840353Y687469D01*
X841365Y687740D01*
X842392Y687945D01*
X843431Y688082D01*
X844476Y688150D01*
X845524Y688150D01*
X847236Y434100D02*
X847703Y434026D01*
X848152Y433880D01*
X848572Y433666D01*
X848954Y433388D01*
X849288Y433054D01*
X849566Y432672D01*
X849780Y432252D01*
X849926Y431803D01*
X850000Y431336D01*
X850000Y430864D01*
X849926Y430398D01*
X849780Y429948D01*
X849566Y429528D01*
X849288Y429146D01*
X848954Y428812D01*
X848572Y428534D01*
X848152Y428320D01*
X847703Y428174D01*
X847236Y428100D01*
X846764Y428100D01*
X846298Y428174D01*
X845848Y428320D01*
X845428Y428534D01*
X845046Y428812D01*
X844712Y429146D01*
X844434Y429528D01*
X844220Y429948D01*
X844074Y430398D01*
X844000Y430864D01*
X844000Y431336D01*
X844074Y431803D01*
X844220Y432252D01*
X844434Y432672D01*
X844712Y433054D01*
X845046Y433388D01*
X845428Y433666D01*
X845848Y433880D01*
X846298Y434026D01*
X846764Y434100D01*
X847236Y434100D01*
X847236Y491900D02*
X847703Y491826D01*
X848152Y491680D01*
X848572Y491466D01*
X848954Y491188D01*
X849288Y490854D01*
X849566Y490472D01*
X849780Y490052D01*
X849926Y489603D01*
X850000Y489136D01*
X850000Y488664D01*
X849926Y488198D01*
X849780Y487748D01*
X849566Y487328D01*
X849288Y486946D01*
X848954Y486612D01*
X848572Y486334D01*
X848152Y486120D01*
X847703Y485974D01*
X847236Y485900D01*
X846764Y485900D01*
X846298Y485974D01*
X845848Y486120D01*
X845428Y486334D01*
X845046Y486612D01*
X844712Y486946D01*
X844434Y487328D01*
X844220Y487748D01*
X844074Y488198D01*
X844000Y488664D01*
X844000Y489136D01*
X844074Y489603D01*
X844220Y490052D01*
X844434Y490472D01*
X844712Y490854D01*
X845046Y491188D01*
X845428Y491466D01*
X845848Y491680D01*
X846298Y491826D01*
X846764Y491900D01*
X847236Y491900D01*
M02*
