G04 EAGLE Gerber RS-274X export*
G75*
%MOMM*%
%FSLAX34Y34*%
%LPD*%
%INSoldermask Top*%
%IPPOS*%
%AMOC8*
5,1,8,0,0,1.08239X$1,22.5*%
G01*
%ADD10C,3.003200*%
%ADD11R,85.000000X1.500000*%
%ADD12C,2.082800*%
%ADD13R,2.082800X2.082800*%
%ADD14C,3.403200*%
%ADD15R,1.473200X0.838200*%
%ADD16R,1.303200X1.203200*%
%ADD17R,1.003200X0.803200*%
%ADD18R,1.203200X1.303200*%
%ADD19R,1.803200X2.006200*%
%ADD20R,0.803200X1.003200*%
%ADD21R,2.403200X3.003200*%
%ADD22R,3.003200X3.003200*%
%ADD23C,3.263200*%
%ADD24R,2.616200X2.616200*%
%ADD25C,2.616200*%
%ADD26R,0.838200X1.473200*%
%ADD27C,2.003200*%
%ADD28R,1.603200X0.803200*%
%ADD29R,1.603200X0.503200*%
%ADD30C,0.803200*%
%ADD31C,3.083200*%
%ADD32C,2.903200*%
%ADD33C,2.032000*%
%ADD34C,2.032000*%
%ADD35R,1.603200X1.403200*%
%ADD36R,1.403200X0.803200*%
%ADD37R,0.853200X1.703200*%
%ADD38C,1.985200*%
%ADD39R,1.403200X1.403200*%
%ADD40R,1.053200X0.403200*%
%ADD41R,0.403200X1.053200*%
%ADD42R,4.403200X4.403200*%
%ADD43P,2.199416X8X202.500000*%
%ADD44R,1.050000X0.400000*%
%ADD45R,0.500000X0.500000*%
%ADD46R,3.000000X3.000000*%
%ADD47R,0.400000X1.050000*%
%ADD48R,1.473200X1.473200*%
%ADD49R,2.616200X1.473200*%
%ADD50C,1.203200*%
%ADD51C,0.955600*%


D10*
X285000Y240000D03*
D11*
X475000Y852500D03*
X475000Y-12500D03*
D10*
X285000Y730000D03*
X310000Y57500D03*
X310000Y800000D03*
D12*
X756100Y659450D03*
X781500Y646750D03*
X756100Y634050D03*
X756100Y608650D03*
X756100Y583250D03*
X781500Y621350D03*
X781500Y595950D03*
D13*
X781500Y570550D03*
D14*
X845000Y557850D03*
X845000Y672150D03*
D15*
X730000Y651619D03*
X730000Y643381D03*
D16*
X612500Y589000D03*
X612500Y606000D03*
D17*
X590000Y590000D03*
X590000Y605000D03*
D16*
X672500Y606000D03*
X672500Y589000D03*
X642500Y606000D03*
X642500Y589000D03*
D18*
X702500Y589000D03*
X702500Y606000D03*
D16*
X612500Y634000D03*
X612500Y651000D03*
D17*
X590000Y632500D03*
X590000Y647500D03*
D16*
X672500Y651000D03*
X672500Y634000D03*
X642500Y634000D03*
X642500Y651000D03*
D18*
X702500Y634000D03*
X702500Y651000D03*
D16*
X612500Y679000D03*
X612500Y696000D03*
D17*
X590000Y680000D03*
X590000Y695000D03*
D16*
X672500Y696000D03*
X672500Y679000D03*
X642500Y679000D03*
X642500Y696000D03*
D18*
X702500Y679000D03*
X702500Y696000D03*
D19*
X131060Y703580D03*
X102620Y703580D03*
D18*
X246500Y675000D03*
X263500Y675000D03*
D20*
X262500Y655000D03*
X247500Y655000D03*
D21*
X74000Y713000D03*
D22*
X168000Y713000D03*
D21*
X94000Y787000D03*
D22*
X207000Y757500D03*
D23*
X85000Y750000D03*
X155000Y750000D03*
D18*
X223500Y705000D03*
X206500Y705000D03*
X246500Y705000D03*
X263500Y705000D03*
D16*
X206500Y675000D03*
X223500Y675000D03*
D19*
X131060Y574040D03*
X102620Y574040D03*
D18*
X246500Y545000D03*
X263500Y545000D03*
D20*
X262500Y525000D03*
X247500Y525000D03*
D21*
X74000Y583000D03*
D22*
X168000Y583000D03*
D21*
X94000Y657000D03*
D22*
X207000Y627500D03*
D23*
X85000Y620000D03*
X155000Y620000D03*
D18*
X223500Y575000D03*
X206500Y575000D03*
X246500Y575000D03*
X263500Y575000D03*
D16*
X206500Y545000D03*
X223500Y545000D03*
D19*
X131060Y441960D03*
X102620Y441960D03*
D18*
X263500Y410000D03*
X246500Y410000D03*
D20*
X260000Y390000D03*
X245000Y390000D03*
D21*
X74000Y453000D03*
D22*
X168000Y453000D03*
D21*
X94000Y527000D03*
D22*
X207000Y497500D03*
D23*
X85000Y490000D03*
X155000Y490000D03*
D18*
X223500Y440000D03*
X206500Y440000D03*
X246500Y440000D03*
X263500Y440000D03*
D16*
X206500Y410000D03*
X223500Y410000D03*
D19*
X131060Y302260D03*
X102620Y302260D03*
D18*
X263500Y275000D03*
X246500Y275000D03*
D20*
X257500Y255000D03*
X242500Y255000D03*
D21*
X74000Y313000D03*
D22*
X168000Y313000D03*
D21*
X94000Y387000D03*
D22*
X207000Y357500D03*
D23*
X85000Y350000D03*
X155000Y350000D03*
D18*
X223500Y305000D03*
X206500Y305000D03*
X246500Y305000D03*
X263500Y305000D03*
D16*
X206500Y275000D03*
X223500Y275000D03*
D19*
X131060Y172720D03*
X102620Y172720D03*
D18*
X263500Y140000D03*
X246500Y140000D03*
D20*
X262500Y120000D03*
X247500Y120000D03*
D21*
X74000Y183000D03*
D22*
X168000Y183000D03*
D21*
X94000Y257000D03*
D22*
X207000Y227500D03*
D23*
X85000Y220000D03*
X155000Y220000D03*
D18*
X223500Y170000D03*
X206500Y170000D03*
X246500Y170000D03*
X263500Y170000D03*
D16*
X206500Y140000D03*
X223500Y140000D03*
D19*
X131060Y43180D03*
X102620Y43180D03*
D18*
X263500Y25000D03*
X246500Y25000D03*
D20*
X285000Y25000D03*
X300000Y25000D03*
D21*
X74000Y53000D03*
D22*
X168000Y53000D03*
D21*
X94000Y127000D03*
D22*
X207000Y97500D03*
D23*
X85000Y90000D03*
X155000Y90000D03*
D18*
X223500Y55000D03*
X206500Y55000D03*
X246500Y55000D03*
X263500Y55000D03*
D16*
X206500Y25000D03*
X223500Y25000D03*
D24*
X870000Y290000D03*
D25*
X870000Y325000D03*
X870000Y360000D03*
D24*
X870000Y180000D03*
D25*
X870000Y215000D03*
X870000Y250000D03*
D26*
X818841Y312420D03*
X827079Y312420D03*
X818841Y391160D03*
X827079Y391160D03*
X818896Y368300D03*
X827024Y368300D03*
X818896Y335280D03*
X827024Y335280D03*
D27*
X833000Y416800D02*
X851000Y416800D01*
D28*
X835000Y428000D03*
X835000Y436000D03*
X835000Y484000D03*
X835000Y492000D03*
D29*
X835000Y442500D03*
D30*
X847000Y431100D03*
X847000Y488900D03*
D29*
X835000Y447500D03*
X835000Y452500D03*
X835000Y457500D03*
X835000Y462500D03*
X835000Y467500D03*
X835000Y472500D03*
X835000Y477500D03*
D27*
X833000Y503300D02*
X851000Y503300D01*
X874800Y416800D02*
X892800Y416800D01*
X892800Y503300D02*
X874800Y503300D01*
D16*
X803500Y92500D03*
X786500Y92500D03*
D18*
X786500Y147500D03*
X803500Y147500D03*
D16*
X803500Y117500D03*
X786500Y117500D03*
D31*
X880400Y95400D03*
X880400Y44600D03*
X829600Y44600D03*
X829600Y95400D03*
D32*
X855000Y70000D03*
D33*
X646644Y346900D02*
X628356Y346900D01*
X628356Y372300D02*
X646644Y372300D01*
X646644Y397700D02*
X628356Y397700D01*
X628356Y423100D02*
X646644Y423100D01*
D24*
X870000Y730000D03*
D25*
X870000Y765000D03*
X870000Y800000D03*
D34*
X816400Y252700D03*
X791000Y252700D03*
X765600Y252700D03*
X740200Y252700D03*
X714800Y252700D03*
X689400Y252700D03*
X664000Y252700D03*
X638600Y252700D03*
X613200Y252700D03*
X587800Y252700D03*
X562400Y252700D03*
X537000Y252700D03*
X511600Y252700D03*
X816400Y227300D03*
X791000Y227300D03*
X765600Y227300D03*
X740200Y227300D03*
X714800Y227300D03*
X689400Y227300D03*
X664000Y227300D03*
X638600Y227300D03*
X613200Y227300D03*
X587800Y227300D03*
X562400Y227300D03*
X537000Y227300D03*
X511600Y227300D03*
D16*
X506000Y320000D03*
X489000Y320000D03*
D18*
X530000Y356000D03*
X530000Y339000D03*
D35*
X486500Y339000D03*
X508500Y339000D03*
X508500Y356000D03*
X486500Y356000D03*
D16*
X829720Y528140D03*
X812720Y528140D03*
D18*
X587500Y551000D03*
X587500Y534000D03*
X617500Y551000D03*
X617500Y534000D03*
D36*
X672500Y530500D03*
X672500Y540000D03*
X672500Y549500D03*
X647500Y549500D03*
X647500Y530500D03*
D16*
X705000Y539000D03*
X705000Y556000D03*
D12*
X689320Y194008D03*
X714720Y194008D03*
X740120Y194008D03*
X765520Y194008D03*
X790920Y194008D03*
X816320Y194008D03*
D16*
X471000Y275000D03*
X454000Y275000D03*
D37*
X440950Y588000D03*
X453650Y588000D03*
X466350Y588000D03*
X479050Y588000D03*
X479050Y642000D03*
X466350Y642000D03*
X453650Y642000D03*
X440950Y642000D03*
D18*
X505000Y571500D03*
X505000Y588500D03*
X401500Y645000D03*
X418500Y645000D03*
X401500Y615000D03*
X418500Y615000D03*
D16*
X378500Y615000D03*
X361500Y615000D03*
D18*
X401500Y585000D03*
X418500Y585000D03*
X361500Y585000D03*
X378500Y585000D03*
X733500Y332500D03*
X716500Y332500D03*
D38*
X699900Y362500D03*
X699900Y407500D03*
X764900Y362500D03*
X764900Y407500D03*
D34*
X402420Y336370D03*
X402420Y310970D03*
X402420Y285570D03*
D16*
X529440Y492920D03*
X529440Y475920D03*
D39*
X553060Y472020D03*
X553060Y493020D03*
D15*
X822480Y283559D03*
X822480Y275321D03*
D40*
X507000Y410500D03*
X507000Y414500D03*
X507000Y418500D03*
X507000Y422500D03*
X507000Y426500D03*
X507000Y430500D03*
X507000Y434500D03*
X507000Y438500D03*
X507000Y442500D03*
X507000Y446500D03*
X507000Y450500D03*
X507000Y454500D03*
D41*
X499500Y462000D03*
X495500Y462000D03*
X491500Y462000D03*
X487500Y462000D03*
X483500Y462000D03*
X479500Y462000D03*
X475500Y462000D03*
X471500Y462000D03*
X467500Y462000D03*
X463500Y462000D03*
X459500Y462000D03*
X455500Y462000D03*
D40*
X448000Y454500D03*
X448000Y450500D03*
X448000Y446500D03*
X448000Y442500D03*
X448000Y438500D03*
X448000Y434500D03*
X448000Y430500D03*
X448000Y426500D03*
X448000Y422500D03*
X448000Y418500D03*
X448000Y414500D03*
X448000Y410500D03*
D41*
X455500Y403000D03*
X459500Y403000D03*
X463500Y403000D03*
X467500Y403000D03*
X471500Y403000D03*
X475500Y403000D03*
X479500Y403000D03*
X483500Y403000D03*
X487500Y403000D03*
X491500Y403000D03*
X495500Y403000D03*
X499500Y403000D03*
D42*
X477500Y432500D03*
D18*
X415000Y463500D03*
X415000Y446500D03*
X387500Y463500D03*
X387500Y446500D03*
D16*
X444000Y345000D03*
X461000Y345000D03*
X444000Y370000D03*
X461000Y370000D03*
X503500Y482500D03*
X486500Y482500D03*
X503500Y505000D03*
X486500Y505000D03*
D43*
X330000Y198400D03*
X330000Y223800D03*
X330000Y249200D03*
X330000Y274600D03*
X330000Y300000D03*
X330000Y325400D03*
X330000Y350800D03*
X330000Y376200D03*
X330000Y401600D03*
D18*
X756500Y332500D03*
X773500Y332500D03*
D44*
X748120Y469540D03*
D45*
X743895Y463515D03*
D44*
X748120Y474540D03*
D46*
X722870Y484540D03*
D44*
X748120Y479540D03*
X748120Y484540D03*
X748120Y489540D03*
X748120Y494540D03*
X748120Y499540D03*
D47*
X707870Y459290D03*
X712870Y459290D03*
X717870Y459290D03*
X722870Y459290D03*
X727870Y459290D03*
X732870Y459290D03*
X737870Y459290D03*
X737870Y509790D03*
X732870Y509790D03*
X727870Y509790D03*
X722870Y509790D03*
X717870Y509790D03*
X712870Y509790D03*
X707870Y509790D03*
D44*
X697620Y499540D03*
X697620Y494540D03*
X697620Y489540D03*
X697620Y484540D03*
X697620Y479540D03*
X697620Y474540D03*
X697620Y469540D03*
D16*
X471000Y300000D03*
X454000Y300000D03*
D17*
X796090Y453190D03*
X796090Y438190D03*
X796170Y463990D03*
X796170Y478990D03*
D16*
X430000Y279000D03*
X430000Y296000D03*
D26*
X674064Y472500D03*
X665936Y472500D03*
X674064Y497500D03*
X665936Y497500D03*
D16*
X783500Y522500D03*
X766500Y522500D03*
X783800Y498750D03*
X766800Y498750D03*
D48*
X595000Y150000D03*
X595000Y130000D03*
X595000Y110000D03*
X595000Y90000D03*
X595000Y70000D03*
X595000Y50000D03*
X595000Y30000D03*
X755000Y150000D03*
X755000Y130000D03*
X755000Y110000D03*
X755000Y90000D03*
D49*
X760596Y70000D03*
D48*
X755000Y50000D03*
D49*
X760596Y30000D03*
D26*
X796564Y170000D03*
X788436Y170000D03*
D50*
X60000Y15000D03*
X890000Y15000D03*
X885000Y825000D03*
D51*
X73660Y690880D03*
X73660Y561340D03*
X73660Y429260D03*
X73660Y289560D03*
X73660Y160020D03*
X73660Y30480D03*
X510780Y307940D03*
X531180Y325720D03*
X590000Y617500D03*
X642500Y575000D03*
X642500Y620000D03*
X642500Y665000D03*
X590000Y710000D03*
X590000Y660000D03*
X490300Y643180D03*
X518240Y589840D03*
X787500Y132500D03*
X208280Y71120D03*
X205000Y200000D03*
X210000Y335000D03*
X232500Y390000D03*
X208280Y467360D03*
X235000Y525000D03*
X208280Y599440D03*
X388700Y645720D03*
X362500Y630000D03*
X208280Y731520D03*
X535820Y379140D03*
X361320Y556700D03*
X628940Y725960D03*
X365760Y30480D03*
X800000Y490000D03*
X762500Y467500D03*
X372500Y445000D03*
X460000Y327500D03*
X467500Y445000D03*
X490000Y445000D03*
X490000Y420000D03*
X467500Y420000D03*
X720000Y487500D03*
X490000Y517500D03*
X572500Y500000D03*
X580000Y30000D03*
X490760Y277980D03*
X618260Y327980D03*
X793260Y327980D03*
X795760Y365480D03*
X695760Y340480D03*
X748260Y525480D03*
X720760Y595480D03*
X288260Y507980D03*
X338260Y480480D03*
X278260Y347980D03*
X280760Y200480D03*
X288260Y265480D03*
X230760Y255480D03*
X288260Y127980D03*
X345760Y417980D03*
X310760Y447980D03*
X458820Y556700D03*
X408820Y556700D03*
X550000Y722500D03*
X663940Y780960D03*
X808940Y783460D03*
X808940Y743460D03*
X763940Y745960D03*
X507500Y725000D03*
X588260Y570480D03*
X618260Y570480D03*
X688260Y542980D03*
X570760Y530480D03*
X770760Y162980D03*
X570760Y122980D03*
X610760Y275480D03*
X485760Y30480D03*
X395760Y220480D03*
X465760Y220480D03*
X335760Y130480D03*
X535760Y130480D03*
X600760Y175480D03*
X855760Y135480D03*
X230760Y120480D03*
X315760Y25480D03*
X235760Y655480D03*
X810760Y820480D03*
X660760Y820480D03*
X155760Y820480D03*
X310760Y555480D03*
X300760Y630480D03*
X495820Y374140D03*
X772514Y132500D03*
X812800Y441880D03*
X812800Y609600D03*
X812500Y477500D03*
X672500Y620000D03*
X672500Y665000D03*
X672500Y575000D03*
X837500Y212500D03*
X265000Y155000D03*
X265000Y105000D03*
X255000Y240000D03*
X265000Y690000D03*
X265000Y640000D03*
X265000Y560000D03*
X265000Y510000D03*
X265000Y425000D03*
X265000Y375000D03*
X265000Y290000D03*
X302500Y467500D03*
X387500Y480000D03*
X775000Y282500D03*
X775000Y305000D03*
X442500Y332500D03*
X672500Y515000D03*
X507500Y517500D03*
X440000Y540000D03*
X392500Y535000D03*
X265000Y467500D03*
X642500Y460000D03*
X735000Y392500D03*
X735000Y352500D03*
X685000Y427500D03*
X635000Y305000D03*
X650000Y320000D03*
X422500Y322500D03*
X452500Y312500D03*
X572500Y415000D03*
X600000Y502500D03*
X585000Y415000D03*
X600000Y487500D03*
X414300Y480460D03*
X431800Y521580D03*
X415000Y377500D03*
X687500Y380000D03*
X655000Y385000D03*
X707500Y307500D03*
X567500Y275000D03*
X592500Y275000D03*
X556260Y202250D03*
X615950Y202250D03*
X592500Y292500D03*
X547500Y275000D03*
X430000Y397500D03*
X450000Y507500D03*
X695000Y315000D03*
X682500Y322500D03*
X538960Y188280D03*
X740000Y305000D03*
X542500Y312500D03*
X602500Y342500D03*
X597500Y415000D03*
X600000Y472500D03*
M02*
