G04 EAGLE Gerber RS-274X export*
G75*
%MOMM*%
%FSLAX34Y34*%
%LPD*%
%INSolderpaste Top*%
%IPPOS*%
%AMOC8*
5,1,8,0,0,1.08239X$1,22.5*%
G01*
%ADD10R,1.270000X0.635000*%
%ADD11R,2.286000X2.438400*%
%ADD12R,1.100000X1.000000*%
%ADD13R,0.800000X0.600000*%
%ADD14R,1.000000X1.100000*%
%ADD15R,1.600000X1.803000*%
%ADD16R,0.600000X0.800000*%
%ADD17R,2.200000X2.800000*%
%ADD18R,2.800000X2.800000*%
%ADD19R,0.635000X1.270000*%
%ADD20R,2.438400X2.286000*%
%ADD21R,2.489200X2.235200*%
%ADD22R,1.400000X0.600000*%
%ADD23R,1.400000X0.300000*%
%ADD24R,1.400000X1.200000*%
%ADD25R,1.200000X0.600000*%
%ADD26R,0.650000X1.500000*%
%ADD27R,1.200000X1.200000*%
%ADD28R,0.850000X0.200000*%
%ADD29R,0.200000X0.850000*%
%ADD30R,4.200000X4.200000*%
%ADD31R,0.560000X0.260000*%
%ADD32R,1.000000X1.000000*%
%ADD33R,0.300000X0.300000*%
%ADD34R,0.260000X0.560000*%
%ADD35R,1.270000X1.270000*%
%ADD36R,1.207000X1.271000*%
%ADD37R,1.232000X1.270000*%


D10*
X730000Y651619D03*
X730000Y643381D03*
D11*
X730000Y647500D03*
D12*
X612500Y589000D03*
X612500Y606000D03*
D13*
X590000Y590000D03*
X590000Y605000D03*
D12*
X672500Y606000D03*
X672500Y589000D03*
X642500Y606000D03*
X642500Y589000D03*
D14*
X702500Y589000D03*
X702500Y606000D03*
D12*
X612500Y634000D03*
X612500Y651000D03*
D13*
X590000Y632500D03*
X590000Y647500D03*
D12*
X672500Y651000D03*
X672500Y634000D03*
X642500Y634000D03*
X642500Y651000D03*
D14*
X702500Y634000D03*
X702500Y651000D03*
D12*
X612500Y679000D03*
X612500Y696000D03*
D13*
X590000Y680000D03*
X590000Y695000D03*
D12*
X672500Y696000D03*
X672500Y679000D03*
X642500Y679000D03*
X642500Y696000D03*
D14*
X702500Y679000D03*
X702500Y696000D03*
D15*
X131060Y703580D03*
X102620Y703580D03*
D14*
X246500Y675000D03*
X263500Y675000D03*
D16*
X262500Y655000D03*
X247500Y655000D03*
D17*
X74000Y713000D03*
D18*
X168000Y713000D03*
D17*
X94000Y787000D03*
D18*
X207000Y757500D03*
D14*
X223500Y705000D03*
X206500Y705000D03*
X246500Y705000D03*
X263500Y705000D03*
D12*
X206500Y675000D03*
X223500Y675000D03*
D15*
X131060Y574040D03*
X102620Y574040D03*
D14*
X246500Y545000D03*
X263500Y545000D03*
D16*
X262500Y525000D03*
X247500Y525000D03*
D17*
X74000Y583000D03*
D18*
X168000Y583000D03*
D17*
X94000Y657000D03*
D18*
X207000Y627500D03*
D14*
X223500Y575000D03*
X206500Y575000D03*
X246500Y575000D03*
X263500Y575000D03*
D12*
X206500Y545000D03*
X223500Y545000D03*
D15*
X131060Y441960D03*
X102620Y441960D03*
D14*
X263500Y410000D03*
X246500Y410000D03*
D16*
X260000Y390000D03*
X245000Y390000D03*
D17*
X74000Y453000D03*
D18*
X168000Y453000D03*
D17*
X94000Y527000D03*
D18*
X207000Y497500D03*
D14*
X223500Y440000D03*
X206500Y440000D03*
X246500Y440000D03*
X263500Y440000D03*
D12*
X206500Y410000D03*
X223500Y410000D03*
D15*
X131060Y302260D03*
X102620Y302260D03*
D14*
X263500Y275000D03*
X246500Y275000D03*
D16*
X257500Y255000D03*
X242500Y255000D03*
D17*
X74000Y313000D03*
D18*
X168000Y313000D03*
D17*
X94000Y387000D03*
D18*
X207000Y357500D03*
D14*
X223500Y305000D03*
X206500Y305000D03*
X246500Y305000D03*
X263500Y305000D03*
D12*
X206500Y275000D03*
X223500Y275000D03*
D15*
X131060Y172720D03*
X102620Y172720D03*
D14*
X263500Y140000D03*
X246500Y140000D03*
D16*
X262500Y120000D03*
X247500Y120000D03*
D17*
X74000Y183000D03*
D18*
X168000Y183000D03*
D17*
X94000Y257000D03*
D18*
X207000Y227500D03*
D14*
X223500Y170000D03*
X206500Y170000D03*
X246500Y170000D03*
X263500Y170000D03*
D12*
X206500Y140000D03*
X223500Y140000D03*
D15*
X131060Y43180D03*
X102620Y43180D03*
D14*
X263500Y25000D03*
X246500Y25000D03*
D16*
X285000Y25000D03*
X300000Y25000D03*
D17*
X74000Y53000D03*
D18*
X168000Y53000D03*
D17*
X94000Y127000D03*
D18*
X207000Y97500D03*
D14*
X223500Y55000D03*
X206500Y55000D03*
X246500Y55000D03*
X263500Y55000D03*
D12*
X206500Y25000D03*
X223500Y25000D03*
D19*
X818841Y312420D03*
X827079Y312420D03*
D20*
X822960Y312420D03*
D19*
X818841Y391160D03*
X827079Y391160D03*
D20*
X822960Y391160D03*
D21*
X822960Y368300D03*
X822960Y335280D03*
D22*
X835000Y428000D03*
X835000Y436000D03*
X835000Y484000D03*
X835000Y492000D03*
D23*
X835000Y442500D03*
X835000Y447500D03*
X835000Y452500D03*
X835000Y457500D03*
X835000Y462500D03*
X835000Y467500D03*
X835000Y472500D03*
X835000Y477500D03*
D12*
X803500Y92500D03*
X786500Y92500D03*
D14*
X786500Y147500D03*
X803500Y147500D03*
D12*
X803500Y117500D03*
X786500Y117500D03*
X506000Y320000D03*
X489000Y320000D03*
D14*
X530000Y356000D03*
X530000Y339000D03*
D24*
X486500Y339000D03*
X508500Y339000D03*
X508500Y356000D03*
X486500Y356000D03*
D12*
X829720Y528140D03*
X812720Y528140D03*
D14*
X587500Y551000D03*
X587500Y534000D03*
X617500Y551000D03*
X617500Y534000D03*
D25*
X672500Y530500D03*
X672500Y540000D03*
X672500Y549500D03*
X647500Y549500D03*
X647500Y530500D03*
D12*
X705000Y539000D03*
X705000Y556000D03*
X471000Y275000D03*
X454000Y275000D03*
D26*
X440950Y588000D03*
X453650Y588000D03*
X466350Y588000D03*
X479050Y588000D03*
X479050Y642000D03*
X466350Y642000D03*
X453650Y642000D03*
X440950Y642000D03*
D14*
X505000Y571500D03*
X505000Y588500D03*
X401500Y645000D03*
X418500Y645000D03*
X401500Y615000D03*
X418500Y615000D03*
D12*
X378500Y615000D03*
X361500Y615000D03*
D14*
X401500Y585000D03*
X418500Y585000D03*
X361500Y585000D03*
X378500Y585000D03*
X733500Y332500D03*
X716500Y332500D03*
D12*
X529440Y492920D03*
X529440Y475920D03*
D27*
X553060Y472020D03*
X553060Y493020D03*
D10*
X822480Y283559D03*
X822480Y275321D03*
D11*
X822480Y279440D03*
D28*
X507000Y410500D03*
X507000Y414500D03*
X507000Y418500D03*
X507000Y422500D03*
X507000Y426500D03*
X507000Y430500D03*
X507000Y434500D03*
X507000Y438500D03*
X507000Y442500D03*
X507000Y446500D03*
X507000Y450500D03*
X507000Y454500D03*
D29*
X499500Y462000D03*
X495500Y462000D03*
X491500Y462000D03*
X487500Y462000D03*
X483500Y462000D03*
X479500Y462000D03*
X475500Y462000D03*
X471500Y462000D03*
X467500Y462000D03*
X463500Y462000D03*
X459500Y462000D03*
X455500Y462000D03*
D28*
X448000Y454500D03*
X448000Y450500D03*
X448000Y446500D03*
X448000Y442500D03*
X448000Y438500D03*
X448000Y434500D03*
X448000Y430500D03*
X448000Y426500D03*
X448000Y422500D03*
X448000Y418500D03*
X448000Y414500D03*
X448000Y410500D03*
D29*
X455500Y403000D03*
X459500Y403000D03*
X463500Y403000D03*
X467500Y403000D03*
X471500Y403000D03*
X475500Y403000D03*
X479500Y403000D03*
X483500Y403000D03*
X487500Y403000D03*
X491500Y403000D03*
X495500Y403000D03*
X499500Y403000D03*
D30*
X477500Y432500D03*
D14*
X415000Y463500D03*
X415000Y446500D03*
X387500Y463500D03*
X387500Y446500D03*
D12*
X444000Y345000D03*
X461000Y345000D03*
X444000Y370000D03*
X461000Y370000D03*
X503500Y482500D03*
X486500Y482500D03*
X503500Y505000D03*
X486500Y505000D03*
D14*
X756500Y332500D03*
X773500Y332500D03*
D31*
X745870Y469540D03*
D32*
X722870Y484540D03*
D33*
X743870Y463540D03*
D31*
X745870Y474540D03*
X745870Y479540D03*
X745870Y484540D03*
X745870Y489540D03*
X745870Y494540D03*
X745870Y499540D03*
D34*
X707870Y461540D03*
X712870Y461540D03*
X717870Y461540D03*
X722870Y461540D03*
X727870Y461540D03*
X732870Y461540D03*
X737870Y461540D03*
X737870Y507540D03*
X732870Y507540D03*
X727870Y507540D03*
X722870Y507540D03*
X717870Y507540D03*
X712870Y507540D03*
X707870Y507540D03*
D31*
X699870Y499540D03*
X699870Y494540D03*
X699870Y489540D03*
X699870Y484540D03*
X699870Y479540D03*
X699870Y474540D03*
X699870Y469540D03*
D12*
X471000Y300000D03*
X454000Y300000D03*
D13*
X796090Y453190D03*
X796090Y438190D03*
X796170Y463990D03*
X796170Y478990D03*
D12*
X430000Y279000D03*
X430000Y296000D03*
D21*
X670000Y472500D03*
X670000Y497500D03*
D12*
X783500Y522500D03*
X766500Y522500D03*
X783800Y498750D03*
X766800Y498750D03*
D35*
X595000Y150000D03*
X595000Y130000D03*
X595000Y110000D03*
X595000Y90000D03*
X595000Y70000D03*
X595000Y50000D03*
X595000Y30000D03*
X755000Y150000D03*
X755000Y130000D03*
X755000Y110000D03*
X755000Y90000D03*
X755000Y50000D03*
D36*
X754395Y70035D03*
D37*
X754720Y30050D03*
D21*
X792500Y170000D03*
M02*
