G04 EAGLE Gerber RS-274X export*
G75*
%MOMM*%
%FSLAX34Y34*%
%LPD*%
%INVias*%
%IPPOS*%
%AMOC8*
5,1,8,0,0,1.08239X$1,22.5*%
G01*
%ADD10C,0.752400*%


D10*
X73660Y690880D03*
X73660Y561340D03*
X73660Y429260D03*
X73660Y289560D03*
X73660Y160020D03*
X73660Y30480D03*
X510780Y307940D03*
X531180Y325720D03*
X590000Y617500D03*
X642500Y575000D03*
X642500Y620000D03*
X642500Y665000D03*
X590000Y710000D03*
X590000Y660000D03*
X490300Y643180D03*
X518240Y589840D03*
X787500Y132500D03*
X208280Y71120D03*
X205000Y200000D03*
X210000Y335000D03*
X232500Y390000D03*
X208280Y467360D03*
X235000Y525000D03*
X208280Y599440D03*
X388700Y645720D03*
X362500Y630000D03*
X208280Y731520D03*
X535820Y379140D03*
X361320Y556700D03*
X628940Y725960D03*
X365760Y30480D03*
X800000Y490000D03*
X762500Y467500D03*
X372500Y445000D03*
X460000Y327500D03*
X467500Y445000D03*
X490000Y445000D03*
X490000Y420000D03*
X467500Y420000D03*
X720000Y487500D03*
X490000Y517500D03*
X572500Y500000D03*
X580000Y30000D03*
X490760Y277980D03*
X618260Y327980D03*
X793260Y327980D03*
X795760Y365480D03*
X695760Y340480D03*
X748260Y525480D03*
X720760Y595480D03*
X288260Y507980D03*
X338260Y480480D03*
X278260Y347980D03*
X280760Y200480D03*
X288260Y265480D03*
X230760Y255480D03*
X288260Y127980D03*
X345760Y417980D03*
X310760Y447980D03*
X458820Y556700D03*
X408820Y556700D03*
X550000Y722500D03*
X663940Y780960D03*
X808940Y783460D03*
X808940Y743460D03*
X763940Y745960D03*
X507500Y725000D03*
X588260Y570480D03*
X618260Y570480D03*
X688260Y542980D03*
X570760Y530480D03*
X770760Y162980D03*
X570760Y122980D03*
X610760Y275480D03*
X485760Y30480D03*
X395760Y220480D03*
X465760Y220480D03*
X335760Y130480D03*
X535760Y130480D03*
X600760Y175480D03*
X855760Y135480D03*
X230760Y120480D03*
X315760Y25480D03*
X235760Y655480D03*
X810760Y820480D03*
X660760Y820480D03*
X155760Y820480D03*
X310760Y555480D03*
X300760Y630480D03*
X495820Y374140D03*
X772514Y132500D03*
X812800Y441880D03*
X812800Y609600D03*
X812500Y477500D03*
X672500Y620000D03*
X672500Y665000D03*
X672500Y575000D03*
X837500Y212500D03*
X265000Y155000D03*
X265000Y105000D03*
X255000Y240000D03*
X265000Y690000D03*
X265000Y640000D03*
X265000Y560000D03*
X265000Y510000D03*
X265000Y425000D03*
X265000Y375000D03*
X265000Y290000D03*
X302500Y467500D03*
X387500Y480000D03*
X775000Y282500D03*
X775000Y305000D03*
X442500Y332500D03*
X672500Y515000D03*
X507500Y517500D03*
X440000Y540000D03*
X392500Y535000D03*
X265000Y467500D03*
X642500Y460000D03*
X735000Y392500D03*
X735000Y352500D03*
X685000Y427500D03*
X635000Y305000D03*
X650000Y320000D03*
X422500Y322500D03*
X452500Y312500D03*
X572500Y415000D03*
X600000Y502500D03*
X585000Y415000D03*
X600000Y487500D03*
X414300Y480460D03*
X431800Y521580D03*
X415000Y377500D03*
X687500Y380000D03*
X655000Y385000D03*
X707500Y307500D03*
X567500Y275000D03*
X592500Y275000D03*
X556260Y202250D03*
X615950Y202250D03*
X592500Y292500D03*
X547500Y275000D03*
X430000Y397500D03*
X450000Y507500D03*
X695000Y315000D03*
X682500Y322500D03*
X538960Y188280D03*
X740000Y305000D03*
X542500Y312500D03*
X602500Y342500D03*
X597500Y415000D03*
X600000Y472500D03*
M02*
