  0
SECTION
  2
HEADER
  9
$ACADVER
  1
AC1009
  9
$FILLMODE
 70
0
  9
$EXTMIN
 10
0.0250
 20
0.0050
 30
0.0000
  9
$EXTMAX
 10
74.1750
 20
85.1550
 30
0.0000
  0
ENDSEC
  0
SECTION
  2
TABLES
  0
TABLE
  2
LTYPE
 70
1
  0
LTYPE
  2
CONTINUOUS
 70
64
  3
Solid line
 72
65
 73
0
 40
0
  0
ENDTAB
  0
TABLE
  2
LAYER
 70
255
  0
LAYER
  2
1
 70
64
 62
12
  6
CONTINUOUS
  0
LAYER
  2
16
 70
64
 62
132
  6
CONTINUOUS
  0
LAYER
  2
17
 70
64
 62
110
  6
CONTINUOUS
  0
LAYER
  2
18
 70
64
 62
110
  6
CONTINUOUS
  0
LAYER
  2
19
 70
64
 62
53
  6
CONTINUOUS
  0
LAYER
  2
20
 70
64
 62
31
  6
CONTINUOUS
  0
LAYER
  2
21
 70
64
 62
133
  6
CONTINUOUS
  0
LAYER
  2
22
 70
64
 62
133
  6
CONTINUOUS
  0
LAYER
  2
23
 70
64
 62
7
  6
CONTINUOUS
  0
LAYER
  2
24
 70
64
 62
7
  6
CONTINUOUS
  0
LAYER
  2
25
 70
64
 62
133
  6
CONTINUOUS
  0
LAYER
  2
26
 70
64
 62
133
  6
CONTINUOUS
  0
LAYER
  2
27
 70
64
 62
133
  6
CONTINUOUS
  0
LAYER
  2
28
 70
64
 62
133
  6
CONTINUOUS
  0
LAYER
  2
39
 70
64
 62
12
  6
CONTINUOUS
  0
LAYER
  2
40
 70
64
 62
132
  6
CONTINUOUS
  0
LAYER
  2
41
 70
64
 62
12
  6
CONTINUOUS
  0
LAYER
  2
42
 70
64
 62
132
  6
CONTINUOUS
  0
LAYER
  2
43
 70
64
 62
110
  6
CONTINUOUS
  0
LAYER
  2
48
 70
64
 62
133
  6
CONTINUOUS
  0
LAYER
  2
49
 70
64
 62
133
  6
CONTINUOUS
  0
LAYER
  2
50
 70
64
 62
1
  6
CONTINUOUS
  0
LAYER
  2
51
 70
64
 62
133
  6
CONTINUOUS
  0
LAYER
  2
52
 70
64
 62
133
  6
CONTINUOUS
  0
LAYER
  2
108
 70
64
 62
133
  6
CONTINUOUS
  0
LAYER
  2
109
 70
64
 62
133
  6
CONTINUOUS
  0
LAYER
  2
110
 70
64
 62
133
  6
CONTINUOUS
  0
LAYER
  2
111
 70
64
 62
133
  6
CONTINUOUS
  0
LAYER
  2
118
 70
64
 62
12
  6
CONTINUOUS
  0
LAYER
  2
120
 70
64
 62
133
  6
CONTINUOUS
  0
LAYER
  2
123
 70
64
 62
133
  6
CONTINUOUS
  0
LAYER
  2
124
 70
64
 62
133
  6
CONTINUOUS
  0
LAYER
  2
125
 70
64
 62
133
  6
CONTINUOUS
  0
LAYER
  2
126
 70
64
 62
133
  6
CONTINUOUS
  0
LAYER
  2
127
 70
64
 62
133
  6
CONTINUOUS
  0
LAYER
  2
128
 70
64
 62
133
  6
CONTINUOUS
  0
LAYER
  2
129
 70
64
 62
133
  6
CONTINUOUS
  0
LAYER
  2
130
 70
64
 62
133
  6
CONTINUOUS
  0
LAYER
  2
131
 70
64
 62
133
  6
CONTINUOUS
  0
LAYER
  2
132
 70
64
 62
133
  6
CONTINUOUS
  0
LAYER
  2
150
 70
64
 62
133
  6
CONTINUOUS
  0
LAYER
  2
152
 70
64
 62
133
  6
CONTINUOUS
  0
LAYER
  2
156
 70
64
 62
190
  6
CONTINUOUS
  0
LAYER
  2
157
 70
64
 62
155
  6
CONTINUOUS
  0
LAYER
  2
158
 70
64
 62
133
  6
CONTINUOUS
  0
LAYER
  2
159
 70
64
 62
7
  6
CONTINUOUS
  0
LAYER
  2
199
 70
64
 62
133
  6
CONTINUOUS
  0
LAYER
  2
225
 70
64
 62
133
  6
CONTINUOUS
  0
LAYER
  2
226
 70
64
 62
133
  6
CONTINUOUS
  0
LAYER
  2
227
 70
64
 62
133
  6
CONTINUOUS
  0
LAYER
  2
228
 70
64
 62
133
  6
CONTINUOUS
  0
LAYER
  2
229
 70
64
 62
133
  6
CONTINUOUS
  0
LAYER
  2
230
 70
64
 62
133
  6
CONTINUOUS
  0
LAYER
  2
248
 70
64
 62
133
  6
CONTINUOUS
  0
LAYER
  2
249
 70
64
 62
133
  6
CONTINUOUS
  0
LAYER
  2
255
 70
64
 62
133
  6
CONTINUOUS
  0
ENDTAB
  0
ENDSEC
  0
SECTION
  2
BLOCKS
  0
BLOCK
  8
0
  2
RECT
 70
64
 10
0.0000
 20
0.0000
 30
0.0000
  3
RECT
  0
SOLID
  8
0
 10
-0.5000
 20
-0.5000
 30
0.0000
 11
0.5000
 21
-0.5000
 31
0.0000
 12
-0.5000
 22
0.5000
 32
0.0000
 13
0.5000
 23
0.5000
 33
0.0000
  0
ENDBLK
  8
0
  0
BLOCK
  8
0
  2
PIE
 70
64
 10
0.0000
 20
0.0000
 30
0.0000
  3
PIE
  0
CIRCLE
  8
0
 10
0.0000
 20
0.0000
 30
0.0000
 40
0.5000
  0
ENDBLK
  8
0
  0
BLOCK
  8
0
  2
OCTAGONP
 70
64
 10
0.0000
 20
0.0000
 30
0.0000
  3
OCTAGONP
  0
POLYLINE
  8
0
 66
1
 10
0.0000
 20
0.0000
 30
0.0000
 40
0.0000
 41
0.0000
 70
1
  0
VERTEX
  8
0
 10
-0.5000
 20
-0.2071
 30
0.0000
  0
VERTEX
  8
0
 10
-0.5000
 20
0.2071
 30
0.0000
  0
VERTEX
  8
0
 10
-0.2071
 20
0.5000
 30
0.0000
  0
VERTEX
  8
0
 10
0.2071
 20
0.5000
 30
0.0000
  0
VERTEX
  8
0
 10
0.5000
 20
0.2071
 30
0.0000
  0
VERTEX
  8
0
 10
0.5000
 20
-0.2071
 30
0.0000
  0
VERTEX
  8
0
 10
0.2071
 20
-0.5000
 30
0.0000
  0
VERTEX
  8
0
 10
-0.2071
 20
-0.5000
 30
0.0000
  0
SEQEND
  8
0
  0
ENDBLK
  8
0
  0
BLOCK
  8
0
  2
SQUAREP
 70
64
 10
0.0000
 20
0.0000
 30
0.0000
  3
SQUAREP
  0
SOLID
  8
0
 10
-0.5000
 20
-0.5000
 30
0.0000
 11
0.5000
 21
-0.5000
 31
0.0000
 12
-0.5000
 22
0.5000
 32
0.0000
 13
0.5000
 23
0.5000
 33
0.0000
  0
ENDBLK
  8
0
  0
BLOCK
  8
0
  2
ROUNDP
 70
64
 10
0.0000
 20
0.0000
 30
0.0000
  3
ROUNDP
  0
CIRCLE
  8
0
 10
0.0000
 20
0.0000
 30
0.0000
 40
0.5000
  0
ENDBLK
  8
0
  0
BLOCK
  8
0
  2
ANNULUSP
 70
64
 10
0.0000
 20
0.0000
 30
0.0000
  3
ANNULUSP
  0
CIRCLE
  8
0
 10
0.0000
 20
0.0000
 30
0.0000
 40
0.5000
  0
ENDBLK
  8
0
  0
BLOCK
  8
0
  2
THERMALP
 70
64
 10
0.0000
 20
0.0000
 30
0.0000
  3
THERMALP
  0
LINE
  8
0
 10
-0.2379
 20
0.4500
 30
0.0000
 11
0.2379
 21
0.4500
 31
0.0000
  0
LINE
  8
0
 10
0.4500
 20
0.2379
 30
0.0000
 11
0.4500
 21
-0.2379
 31
0.0000
  0
LINE
  8
0
 10
0.2379
 20
-0.4500
 30
0.0000
 11
-0.2379
 21
-0.4500
 31
0.0000
  0
LINE
  8
0
 10
-0.4500
 20
-0.2379
 30
0.0000
 11
-0.4500
 21
0.2379
 31
0.0000
  0
ENDBLK
  8
0
  0
BLOCK
  8
0
  2
OCTAGONV
 70
64
 10
0.0000
 20
0.0000
 30
0.0000
  3
OCTAGONV
  0
POLYLINE
  8
0
 66
1
 10
0.0000
 20
0.0000
 30
0.0000
 40
0.0000
 41
0.0000
 70
1
  0
VERTEX
  8
0
 10
-0.5000
 20
-0.2071
 30
0.0000
  0
VERTEX
  8
0
 10
-0.5000
 20
0.2071
 30
0.0000
  0
VERTEX
  8
0
 10
-0.2071
 20
0.5000
 30
0.0000
  0
VERTEX
  8
0
 10
0.2071
 20
0.5000
 30
0.0000
  0
VERTEX
  8
0
 10
0.5000
 20
0.2071
 30
0.0000
  0
VERTEX
  8
0
 10
0.5000
 20
-0.2071
 30
0.0000
  0
VERTEX
  8
0
 10
0.2071
 20
-0.5000
 30
0.0000
  0
VERTEX
  8
0
 10
-0.2071
 20
-0.5000
 30
0.0000
  0
SEQEND
  8
0
  0
ENDBLK
  8
0
  0
BLOCK
  8
0
  2
SQUAREV
 70
64
 10
0.0000
 20
0.0000
 30
0.0000
  3
SQUAREV
  0
SOLID
  8
0
 10
-0.5000
 20
-0.5000
 30
0.0000
 11
0.5000
 21
-0.5000
 31
0.0000
 12
-0.5000
 22
0.5000
 32
0.0000
 13
0.5000
 23
0.5000
 33
0.0000
  0
ENDBLK
  8
0
  0
BLOCK
  8
0
  2
ROUNDV
 70
64
 10
0.0000
 20
0.0000
 30
0.0000
  3
ROUNDV
  0
CIRCLE
  8
0
 10
0.0000
 20
0.0000
 30
0.0000
 40
0.5000
  0
ENDBLK
  8
0
  0
BLOCK
  8
0
  2
ANNULUSV
 70
64
 10
0.0000
 20
0.0000
 30
0.0000
  3
ANNULUSV
  0
CIRCLE
  8
0
 10
0.0000
 20
0.0000
 30
0.0000
 40
0.5000
  0
ENDBLK
  8
0
  0
BLOCK
  8
0
  2
THERMALV
 70
64
 10
0.0000
 20
0.0000
 30
0.0000
  3
THERMALV
  0
LINE
  8
0
 10
-0.2379
 20
0.4500
 30
0.0000
 11
0.2379
 21
0.4500
 31
0.0000
  0
LINE
  8
0
 10
0.4500
 20
0.2379
 30
0.0000
 11
0.4500
 21
-0.2379
 31
0.0000
  0
LINE
  8
0
 10
0.2379
 20
-0.4500
 30
0.0000
 11
-0.2379
 21
-0.4500
 31
0.0000
  0
LINE
  8
0
 10
-0.4500
 20
-0.2379
 30
0.0000
 11
-0.4500
 21
0.2379
 31
0.0000
  0
ENDBLK
  8
0
  0
ENDSEC
  0
SECTION
  2
ENTITIES
  0
LINE
  8
20
 10
74.1000
 20
85.0800
 30
0.0000
 11
0.1000
 21
85.0800
 31
0.0000
  0
LINE
  8
20
 10
74.1000
 20
85.0800
 30
0.0000
 11
74.1000
 21
0.0800
 31
0.0000
  0
LINE
  8
20
 10
74.1000
 20
0.0800
 30
0.0000
 11
0.1000
 21
0.0800
 31
0.0000
  0
LINE
  8
20
 10
0.1000
 20
85.0800
 30
0.0000
 11
0.1000
 21
0.0800
 31
0.0000
  0
LINE
  8
20
 10
27.2000
 20
56.0000
 30
0.0000
 11
27.2000
 21
42.7000
 31
0.0000
  0
LINE
  8
20
 10
27.2000
 20
42.7000
 30
0.0000
 11
27.2000
 21
39.2000
 31
0.0000
  0
LINE
  8
20
 10
27.2000
 20
39.2000
 30
0.0000
 11
54.0000
 21
39.2000
 31
0.0000
  0
LINE
  8
20
 10
54.0000
 20
39.2000
 30
0.0000
 11
54.0000
 21
45.5000
 31
0.0000
  0
LINE
  8
20
 10
54.0000
 20
45.5000
 30
0.0000
 11
54.0000
 21
56.0000
 31
0.0000
  0
LINE
  8
20
 10
54.0000
 20
56.0000
 30
0.0000
 11
27.3000
 21
56.0000
 31
0.0000
  0
LINE
  8
20
 10
59.5000
 20
42.5000
 30
0.0000
 11
54.0000
 21
45.5000
 31
0.0000
  0
LINE
  8
20
 10
59.5000
 20
42.5000
 30
0.0000
 11
73.5000
 21
49.5000
 31
0.0000
  0
LINE
  8
20
 10
73.5000
 20
66.5000
 30
0.0000
 11
62.0000
 21
59.0000
 31
0.0000
  0
LINE
  8
20
 10
62.0000
 20
59.0000
 30
0.0000
 11
52.5000
 21
65.0000
 31
0.0000
  0
LINE
  8
20
 10
52.5000
 20
65.0000
 30
0.0000
 11
36.0000
 21
56.0000
 31
0.0000
  0
LINE
  8
20
 10
21.0000
 20
48.0000
 30
0.0000
 11
15.5000
 21
54.5000
 31
0.0000
  0
LINE
  8
20
 10
15.5000
 20
54.5000
 30
0.0000
 11
0.5000
 21
45.5000
 31
0.0000
  0
LINE
  8
20
 10
0.5000
 20
41.5000
 30
0.0000
 11
14.4000
 21
45.1000
 31
0.0000
  0
LINE
  8
20
 10
14.4000
 20
45.1000
 30
0.0000
 11
18.2000
 21
39.8000
 31
0.0000
  0
LINE
  8
20
 10
18.2000
 20
39.8000
 30
0.0000
 11
27.2000
 21
42.7000
 31
0.0000
  0
LINE
  8
20
 10
21.0000
 20
48.0000
 30
0.0000
 11
27.0000
 21
51.5000
 31
0.0000
  0
LINE
  8
20
 10
8.3286
 20
9.0149
 30
0.0000
 11
8.3286
 21
10.1451
 31
0.0000
  0
ARC
  8
20
 10
9.0349
 20
10.1451
 30
0.0000
 40
0.7063
 50
0.0000
 51
180.0000
  0
LINE
  8
20
 10
9.7413
 20
10.1451
 30
0.0000
 11
9.7413
 21
9.0149
 31
0.0000
  0
ARC
  8
20
 10
9.0349
 20
9.0149
 30
0.0000
 40
0.7063
 50
180.0000
 51
0.0000
  0
LINE
  8
20
 10
10.7626
 20
7.4610
 30
0.0000
 11
10.7626
 21
10.0038
 31
0.0000
  0
LINE
  8
20
 10
10.7626
 20
10.0038
 30
0.0000
 11
11.4690
 21
10.0038
 31
0.0000
  0
ARC
  8
20
 10
11.4690
 20
9.5800
 30
0.0000
 40
0.4238
 50
0.0000
 51
90.0000
  0
LINE
  8
20
 10
11.8928
 20
9.5800
 30
0.0000
 11
11.8928
 21
8.7324
 31
0.0000
  0
ARC
  8
20
 10
11.4690
 20
8.7324
 30
0.0000
 40
0.4238
 50
270.0000
 51
0.0000
  0
LINE
  8
20
 10
11.4690
 20
8.3086
 30
0.0000
 11
10.7626
 21
8.3086
 31
0.0000
  0
LINE
  8
20
 10
13.9312
 20
8.3086
 30
0.0000
 11
13.2249
 21
8.3086
 31
0.0000
  0
ARC
  8
20
 10
13.2249
 20
8.7324
 30
0.0000
 40
0.4238
 50
180.0000
 51
270.0000
  0
LINE
  8
20
 10
12.8011
 20
8.7324
 30
0.0000
 11
12.8011
 21
9.4387
 31
0.0000
  0
ARC
  8
20
 10
13.3662
 20
9.4387
 30
0.0000
 40
0.5651
 50
0.0000
 51
180.0000
  0
LINE
  8
20
 10
13.9312
 20
9.4387
 30
0.0000
 11
13.9312
 21
9.1562
 31
0.0000
  0
LINE
  8
20
 10
13.9312
 20
9.1562
 30
0.0000
 11
12.8011
 21
9.1562
 31
0.0000
  0
LINE
  8
20
 10
14.9274
 20
8.3086
 30
0.0000
 11
14.9274
 21
10.0038
 31
0.0000
  0
LINE
  8
20
 10
14.9274
 20
10.0038
 30
0.0000
 11
15.6337
 21
10.0038
 31
0.0000
  0
ARC
  8
20
 10
15.6337
 20
9.5800
 30
0.0000
 40
0.4238
 50
0.0000
 51
90.0000
  0
LINE
  8
20
 10
16.0575
 20
9.5800
 30
0.0000
 11
16.0575
 21
8.3086
 31
0.0000
  0
LINE
  8
20
 10
18.2835
 20
8.3086
 30
0.0000
 11
17.1533
 21
8.3086
 31
0.0000
  0
LINE
  8
20
 10
17.1533
 20
8.3086
 30
0.0000
 11
17.1533
 21
10.8514
 31
0.0000
  0
LINE
  8
20
 10
17.1533
 20
10.8514
 30
0.0000
 11
18.2835
 21
10.8514
 31
0.0000
  0
LINE
  8
20
 10
17.1533
 20
9.7213
 30
0.0000
 11
18.0009
 21
9.7213
 31
0.0000
  0
LINE
  8
20
 10
19.1798
 20
8.3086
 30
0.0000
 11
19.1798
 21
10.0038
 31
0.0000
  0
LINE
  8
20
 10
19.1798
 20
10.0038
 30
0.0000
 11
19.8862
 21
10.0038
 31
0.0000
  0
ARC
  8
20
 10
19.8862
 20
9.5800
 30
0.0000
 40
0.4238
 50
0.0000
 51
90.0000
  0
LINE
  8
20
 10
20.3100
 20
9.5800
 30
0.0000
 11
20.3100
 21
8.3086
 31
0.0000
  0
LINE
  8
20
 10
22.4362
 20
8.3086
 30
0.0000
 11
21.7299
 21
8.3086
 31
0.0000
  0
ARC
  8
20
 10
21.7299
 20
8.7324
 30
0.0000
 40
0.4238
 50
180.0000
 51
270.0000
  0
LINE
  8
20
 10
21.3061
 20
8.7324
 30
0.0000
 11
21.3061
 21
9.4387
 31
0.0000
  0
ARC
  8
20
 10
21.8711
 20
9.4387
 30
0.0000
 40
0.5651
 50
0.0000
 51
180.0000
  0
LINE
  8
20
 10
22.4362
 20
9.4387
 30
0.0000
 11
22.4362
 21
9.1562
 31
0.0000
  0
LINE
  8
20
 10
22.4362
 20
9.1562
 30
0.0000
 11
21.3061
 21
9.1562
 31
0.0000
  0
LINE
  8
20
 10
23.4442
 20
8.3086
 30
0.0000
 11
23.4442
 21
10.0038
 31
0.0000
  0
LINE
  8
20
 10
23.4442
 20
10.0038
 30
0.0000
 11
24.2918
 21
10.0038
 31
0.0000
  0
LINE
  8
20
 10
24.2918
 20
10.0038
 30
0.0000
 11
24.2918
 21
9.7213
 31
0.0000
  0
LINE
  8
20
 10
26.1284
 20
8.3086
 30
0.0000
 11
25.4221
 21
8.3086
 31
0.0000
  0
ARC
  8
20
 10
25.4221
 20
8.7324
 30
0.0000
 40
0.4238
 50
180.0000
 51
270.0000
  0
LINE
  8
20
 10
24.9983
 20
8.7324
 30
0.0000
 11
24.9983
 21
9.5800
 31
0.0000
  0
ARC
  8
20
 10
25.4221
 20
9.5800
 30
0.0000
 40
0.4238
 50
90.0000
 51
180.0000
  0
LINE
  8
20
 10
25.4221
 20
10.0038
 30
0.0000
 11
26.1284
 21
10.0038
 31
0.0000
  0
LINE
  8
20
 10
26.1284
 20
10.0038
 30
0.0000
 11
26.1284
 21
7.8848
 31
0.0000
  0
ARC
  8
20
 10
25.7046
 20
7.8848
 30
0.0000
 40
0.4238
 50
270.0000
 51
0.0000
  0
LINE
  8
20
 10
25.7046
 20
7.4610
 30
0.0000
 11
25.1396
 21
7.4610
 31
0.0000
  0
LINE
  8
20
 10
27.0548
 20
7.4610
 30
0.0000
 11
27.3373
 21
7.4610
 31
0.0000
  0
LINE
  8
20
 10
27.3373
 20
7.4610
 30
0.0000
 11
28.1849
 21
10.0038
 31
0.0000
  0
LINE
  8
20
 10
27.0548
 20
10.0038
 30
0.0000
 11
27.6199
 21
8.3086
 31
0.0000
  0
LINE
  8
20
 10
29.1348
 20
8.3086
 30
0.0000
 11
29.1348
 21
10.8514
 31
0.0000
  0
LINE
  8
20
 10
29.1348
 20
10.8514
 30
0.0000
 11
29.9824
 21
9.4387
 31
0.0000
  0
LINE
  8
20
 10
29.9824
 20
9.4387
 30
0.0000
 11
30.8300
 21
10.8514
 31
0.0000
  0
LINE
  8
20
 10
30.8300
 20
10.8514
 30
0.0000
 11
30.8300
 21
8.3086
 31
0.0000
  0
LINE
  8
20
 10
31.8586
 20
8.8737
 30
0.0000
 11
31.8586
 21
9.4387
 31
0.0000
  0
ARC
  8
20
 10
32.4236
 20
9.4387
 30
0.0000
 40
0.5651
 50
0.0000
 51
180.0000
  0
LINE
  8
20
 10
32.9887
 20
9.4387
 30
0.0000
 11
32.9887
 21
8.8737
 31
0.0000
  0
ARC
  8
20
 10
32.4236
 20
8.8737
 30
0.0000
 40
0.5651
 50
180.0000
 51
0.0000
  0
LINE
  8
20
 10
33.9848
 20
8.3086
 30
0.0000
 11
33.9848
 21
10.0038
 31
0.0000
  0
LINE
  8
20
 10
33.9848
 20
10.0038
 30
0.0000
 11
34.6911
 21
10.0038
 31
0.0000
  0
ARC
  8
20
 10
34.6911
 20
9.5800
 30
0.0000
 40
0.4238
 50
0.0000
 51
90.0000
  0
LINE
  8
20
 10
35.1149
 20
9.5800
 30
0.0000
 11
35.1149
 21
8.3086
 31
0.0000
  0
LINE
  8
20
 10
36.1249
 20
8.3086
 30
0.0000
 11
36.1249
 21
10.0038
 31
0.0000
  0
LINE
  8
20
 10
36.0542
 20
10.7101
 30
0.0000
 11
36.0542
 21
10.8514
 31
0.0000
  0
LINE
  8
20
 10
36.0542
 20
10.8514
 30
0.0000
 11
36.1955
 21
10.8514
 31
0.0000
  0
LINE
  8
20
 10
36.1955
 20
10.8514
 30
0.0000
 11
36.1955
 21
10.7101
 31
0.0000
  0
LINE
  8
20
 10
36.1955
 20
10.7101
 30
0.0000
 11
36.0542
 21
10.7101
 31
0.0000
  0
LINE
  8
20
 10
36.8670
 20
10.0038
 30
0.0000
 11
37.7146
 21
10.0038
 31
0.0000
  0
LINE
  8
20
 10
37.1496
 20
10.8514
 30
0.0000
 11
37.1496
 21
8.7324
 31
0.0000
  0
ARC
  8
20
 10
37.5734
 20
8.7324
 30
0.0000
 40
0.4238
 50
180.0000
 51
270.0000
  0
LINE
  8
20
 10
37.5734
 20
8.3086
 30
0.0000
 11
37.7146
 21
8.3086
 31
0.0000
  0
LINE
  8
20
 10
38.5523
 20
8.8737
 30
0.0000
 11
38.5523
 21
9.4387
 31
0.0000
  0
ARC
  8
20
 10
39.1173
 20
9.4387
 30
0.0000
 40
0.5651
 50
0.0000
 51
180.0000
  0
LINE
  8
20
 10
39.6824
 20
9.4387
 30
0.0000
 11
39.6824
 21
8.8737
 31
0.0000
  0
ARC
  8
20
 10
39.1173
 20
8.8737
 30
0.0000
 40
0.5651
 50
180.0000
 51
0.0000
  0
LINE
  8
20
 10
40.6904
 20
8.3086
 30
0.0000
 11
40.6904
 21
10.0038
 31
0.0000
  0
LINE
  8
20
 10
40.6904
 20
10.0038
 30
0.0000
 11
41.5380
 21
10.0038
 31
0.0000
  0
LINE
  8
20
 10
41.5380
 20
10.0038
 30
0.0000
 11
41.5380
 21
9.7213
 31
0.0000
  0
LINE
  8
20
 10
42.1967
 20
8.3086
 30
0.0000
 11
42.1967
 21
8.4499
 31
0.0000
  0
LINE
  8
20
 10
42.1967
 20
8.4499
 30
0.0000
 11
42.3380
 21
8.4499
 31
0.0000
  0
LINE
  8
20
 10
42.3380
 20
8.4499
 30
0.0000
 11
42.3380
 21
8.3086
 31
0.0000
  0
LINE
  8
20
 10
42.3380
 20
8.3086
 30
0.0000
 11
42.1967
 21
8.3086
 31
0.0000
  0
LINE
  8
20
 10
43.1985
 20
8.8737
 30
0.0000
 11
43.1985
 21
9.4387
 31
0.0000
  0
ARC
  8
20
 10
43.7636
 20
9.4387
 30
0.0000
 40
0.5651
 50
0.0000
 51
180.0000
  0
LINE
  8
20
 10
44.3286
 20
9.4387
 30
0.0000
 11
44.3286
 21
8.8737
 31
0.0000
  0
ARC
  8
20
 10
43.7636
 20
8.8737
 30
0.0000
 40
0.5651
 50
180.0000
 51
0.0000
  0
LINE
  8
20
 10
45.3367
 20
8.3086
 30
0.0000
 11
45.3367
 21
10.0038
 31
0.0000
  0
LINE
  8
20
 10
45.3367
 20
10.0038
 30
0.0000
 11
46.1843
 21
10.0038
 31
0.0000
  0
LINE
  8
20
 10
46.1843
 20
10.0038
 30
0.0000
 11
46.1843
 21
9.7213
 31
0.0000
  0
LINE
  8
20
 10
48.0208
 20
8.3086
 30
0.0000
 11
47.3145
 21
8.3086
 31
0.0000
  0
ARC
  8
20
 10
47.3145
 20
8.7324
 30
0.0000
 40
0.4238
 50
180.0000
 51
270.0000
  0
LINE
  8
20
 10
46.8907
 20
8.7324
 30
0.0000
 11
46.8907
 21
9.5800
 31
0.0000
  0
ARC
  8
20
 10
47.3145
 20
9.5800
 30
0.0000
 40
0.4238
 50
90.0000
 51
180.0000
  0
LINE
  8
20
 10
47.3145
 20
10.0038
 30
0.0000
 11
48.0208
 21
10.0038
 31
0.0000
  0
LINE
  8
20
 10
48.0208
 20
10.0038
 30
0.0000
 11
48.0208
 21
7.8848
 31
0.0000
  0
ARC
  8
20
 10
47.5970
 20
7.8848
 30
0.0000
 40
0.4238
 50
270.0000
 51
0.0000
  0
LINE
  8
20
 10
47.5970
 20
7.4610
 30
0.0000
 11
47.0320
 21
7.4610
 31
0.0000
  0
LINE
  8
20
 10
10.4001
 20
13.4610
 30
0.0000
 11
9.2007
 21
13.4610
 31
0.0000
  0
ARC
  8
20
 10
9.2007
 20
14.1807
 30
0.0000
 40
0.7197
 50
180.0000
 51
270.0000
  0
LINE
  8
20
 10
8.4810
 20
14.1807
 30
0.0000
 11
8.4810
 21
15.3801
 31
0.0000
  0
ARC
  8
20
 10
9.4406
 20
15.3801
 30
0.0000
 40
0.9596
 50
0.0000
 51
180.0000
  0
LINE
  8
20
 10
10.4001
 20
15.3801
 30
0.0000
 11
10.4001
 21
14.9003
 31
0.0000
  0
LINE
  8
20
 10
10.4001
 20
14.9003
 30
0.0000
 11
8.4810
 21
14.9003
 31
0.0000
  0
LINE
  8
20
 10
11.9382
 20
13.4610
 30
0.0000
 11
11.9382
 21
16.3397
 31
0.0000
  0
LINE
  8
20
 10
11.9382
 20
16.3397
 30
0.0000
 11
14.0972
 21
16.3397
 31
0.0000
  0
ARC
  8
20
 10
14.0972
 20
15.6200
 30
0.0000
 40
0.7197
 50
0.0000
 51
90.0000
  0
LINE
  8
20
 10
14.8169
 20
15.6200
 30
0.0000
 11
14.8169
 21
13.4610
 31
0.0000
  0
LINE
  8
20
 10
13.3776
 20
13.4610
 30
0.0000
 11
13.3776
 21
16.3397
 31
0.0000
  0
LINE
  8
20
 10
16.3550
 20
14.4206
 30
0.0000
 11
16.3550
 21
15.3801
 31
0.0000
  0
ARC
  8
20
 10
17.3145
 20
15.3801
 30
0.0000
 40
0.9596
 50
0.0000
 51
180.0000
  0
LINE
  8
20
 10
18.2741
 20
15.3801
 30
0.0000
 11
18.2741
 21
14.4206
 31
0.0000
  0
ARC
  8
20
 10
17.3145
 20
14.4206
 30
0.0000
 40
0.9596
 50
180.0000
 51
0.0000
  0
LINE
  8
20
 10
19.7840
 20
13.4610
 30
0.0000
 11
19.7840
 21
16.3397
 31
0.0000
  0
LINE
  8
20
 10
19.7840
 20
16.3397
 30
0.0000
 11
20.9834
 21
16.3397
 31
0.0000
  0
ARC
  8
20
 10
20.9834
 20
15.6200
 30
0.0000
 40
0.7197
 50
0.0000
 51
90.0000
  0
LINE
  8
20
 10
21.7031
 20
15.6200
 30
0.0000
 11
21.7031
 21
13.4610
 31
0.0000
  0
LINE
  8
20
 10
23.3776
 20
13.4610
 30
0.0000
 11
23.3776
 21
17.7790
 31
0.0000
  0
LINE
  8
20
 10
23.3776
 20
17.7790
 30
0.0000
 11
24.5771
 21
17.7790
 31
0.0000
  0
ARC
  8
20
 10
24.5771
 20
16.5796
 30
0.0000
 40
1.1994
 50
270.0000
 51
90.0000
  0
LINE
  8
20
 10
24.5771
 20
15.3801
 30
0.0000
 11
23.3776
 21
15.3801
 31
0.0000
  0
LINE
  8
20
 10
27.0935
 20
13.4610
 30
0.0000
 11
27.0935
 21
16.3397
 31
0.0000
  0
LINE
  8
20
 10
26.9736
 20
17.5391
 30
0.0000
 11
26.9736
 21
17.7790
 31
0.0000
  0
LINE
  8
20
 10
26.9736
 20
17.7790
 30
0.0000
 11
27.2135
 21
17.7790
 31
0.0000
  0
LINE
  8
20
 10
27.2135
 20
17.7790
 30
0.0000
 11
27.2135
 21
17.5391
 31
0.0000
  0
LINE
  8
20
 10
27.2135
 20
17.5391
 30
0.0000
 11
26.9736
 21
17.5391
 31
0.0000
  0
ARC
  8
20
 10
29.8805
 20
16.6995
 30
0.0000
 40
1.0795
 50
0.0000
 51
90.0000
  0
ARC
  8
20
 10
29.8805
 20
16.3921
 30
0.0000
 40
1.3869
 50
90.0000
 51
162.0548
  0
ARC
  8
20
 10
29.8005
 20
16.6995
 30
0.0000
 40
1.1595
 50
313.6027
 51
359.9999
  0
LINE
  8
20
 10
30.6002
 20
15.8599
 30
0.0000
 11
28.5611
 21
13.4610
 31
0.0000
  0
LINE
  8
20
 10
28.5611
 20
13.4610
 30
0.0000
 11
30.9600
 21
13.4610
 31
0.0000
  0
CIRCLE
  8
20
 10
40.6000
 20
68.5800
 30
0.0000
 40
3.0000
  0
CIRCLE
  8
20
 10
40.6000
 20
68.5800
 30
0.0000
 40
1.6300
  0
CIRCLE
  8
20
 10
40.6000
 20
68.5800
 30
0.0000
 40
5.0000
  0
ENDSEC
  0
EOF
