  0
SECTION
  2
HEADER
  9
$ACADVER
  1
AC1009
  9
$FILLMODE
 70
0
  9
$EXTMIN
 10
-0.0975
 20
-0.0975
 30
0.0000
  9
$EXTMAX
 10
91.4975
 20
44.3975
 30
0.0000
  0
ENDSEC
  0
SECTION
  2
TABLES
  0
TABLE
  2
LTYPE
 70
1
  0
LTYPE
  2
CONTINUOUS
 70
64
  3
Solid line
 72
65
 73
0
 40
0
  0
ENDTAB
  0
TABLE
  2
LAYER
 70
255
  0
LAYER
  2
1
 70
64
 62
12
  6
CONTINUOUS
  0
LAYER
  2
16
 70
64
 62
132
  6
CONTINUOUS
  0
LAYER
  2
17
 70
64
 62
110
  6
CONTINUOUS
  0
LAYER
  2
18
 70
64
 62
110
  6
CONTINUOUS
  0
LAYER
  2
19
 70
64
 62
53
  6
CONTINUOUS
  0
LAYER
  2
20
 70
64
 62
31
  6
CONTINUOUS
  0
LAYER
  2
21
 70
64
 62
7
  6
CONTINUOUS
  0
LAYER
  2
22
 70
64
 62
7
  6
CONTINUOUS
  0
LAYER
  2
23
 70
64
 62
53
  6
CONTINUOUS
  0
LAYER
  2
24
 70
64
 62
53
  6
CONTINUOUS
  0
LAYER
  2
25
 70
64
 62
7
  6
CONTINUOUS
  0
LAYER
  2
26
 70
64
 62
7
  6
CONTINUOUS
  0
LAYER
  2
27
 70
64
 62
7
  6
CONTINUOUS
  0
LAYER
  2
28
 70
64
 62
7
  6
CONTINUOUS
  0
LAYER
  2
39
 70
64
 62
12
  6
CONTINUOUS
  0
LAYER
  2
40
 70
64
 62
132
  6
CONTINUOUS
  0
LAYER
  2
41
 70
64
 62
12
  6
CONTINUOUS
  0
LAYER
  2
42
 70
64
 62
132
  6
CONTINUOUS
  0
LAYER
  2
43
 70
64
 62
110
  6
CONTINUOUS
  0
LAYER
  2
48
 70
64
 62
7
  6
CONTINUOUS
  0
LAYER
  2
49
 70
64
 62
7
  6
CONTINUOUS
  0
LAYER
  2
50
 70
64
 62
1
  6
CONTINUOUS
  0
LAYER
  2
51
 70
64
 62
7
  6
CONTINUOUS
  0
LAYER
  2
52
 70
64
 62
7
  6
CONTINUOUS
  0
LAYER
  2
108
 70
64
 62
7
  6
CONTINUOUS
  0
LAYER
  2
109
 70
64
 62
7
  6
CONTINUOUS
  0
LAYER
  2
110
 70
64
 62
7
  6
CONTINUOUS
  0
LAYER
  2
111
 70
64
 62
7
  6
CONTINUOUS
  0
LAYER
  2
118
 70
64
 62
12
  6
CONTINUOUS
  0
LAYER
  2
120
 70
64
 62
7
  6
CONTINUOUS
  0
LAYER
  2
123
 70
64
 62
7
  6
CONTINUOUS
  0
LAYER
  2
124
 70
64
 62
7
  6
CONTINUOUS
  0
LAYER
  2
125
 70
64
 62
7
  6
CONTINUOUS
  0
LAYER
  2
126
 70
64
 62
7
  6
CONTINUOUS
  0
LAYER
  2
127
 70
64
 62
7
  6
CONTINUOUS
  0
LAYER
  2
128
 70
64
 62
7
  6
CONTINUOUS
  0
LAYER
  2
129
 70
64
 62
7
  6
CONTINUOUS
  0
LAYER
  2
130
 70
64
 62
7
  6
CONTINUOUS
  0
LAYER
  2
131
 70
64
 62
7
  6
CONTINUOUS
  0
LAYER
  2
132
 70
64
 62
7
  6
CONTINUOUS
  0
LAYER
  2
150
 70
64
 62
7
  6
CONTINUOUS
  0
LAYER
  2
152
 70
64
 62
7
  6
CONTINUOUS
  0
LAYER
  2
156
 70
64
 62
190
  6
CONTINUOUS
  0
LAYER
  2
157
 70
64
 62
155
  6
CONTINUOUS
  0
LAYER
  2
158
 70
64
 62
7
  6
CONTINUOUS
  0
LAYER
  2
159
 70
64
 62
53
  6
CONTINUOUS
  0
LAYER
  2
199
 70
64
 62
7
  6
CONTINUOUS
  0
LAYER
  2
225
 70
64
 62
7
  6
CONTINUOUS
  0
LAYER
  2
226
 70
64
 62
7
  6
CONTINUOUS
  0
LAYER
  2
227
 70
64
 62
7
  6
CONTINUOUS
  0
LAYER
  2
228
 70
64
 62
7
  6
CONTINUOUS
  0
LAYER
  2
229
 70
64
 62
7
  6
CONTINUOUS
  0
LAYER
  2
230
 70
64
 62
7
  6
CONTINUOUS
  0
LAYER
  2
248
 70
64
 62
7
  6
CONTINUOUS
  0
LAYER
  2
249
 70
64
 62
7
  6
CONTINUOUS
  0
LAYER
  2
255
 70
64
 62
7
  6
CONTINUOUS
  0
ENDTAB
  0
ENDSEC
  0
SECTION
  2
BLOCKS
  0
BLOCK
  8
0
  2
RECT
 70
64
 10
0.0000
 20
0.0000
 30
0.0000
  3
RECT
  0
SOLID
  8
0
 10
-0.5000
 20
-0.5000
 30
0.0000
 11
0.5000
 21
-0.5000
 31
0.0000
 12
-0.5000
 22
0.5000
 32
0.0000
 13
0.5000
 23
0.5000
 33
0.0000
  0
ENDBLK
  8
0
  0
BLOCK
  8
0
  2
PIE
 70
64
 10
0.0000
 20
0.0000
 30
0.0000
  3
PIE
  0
CIRCLE
  8
0
 10
0.0000
 20
0.0000
 30
0.0000
 40
0.5000
  0
ENDBLK
  8
0
  0
BLOCK
  8
0
  2
OCTAGONP
 70
64
 10
0.0000
 20
0.0000
 30
0.0000
  3
OCTAGONP
  0
POLYLINE
  8
0
 66
1
 10
0.0000
 20
0.0000
 30
0.0000
 40
0.0000
 41
0.0000
 70
1
  0
VERTEX
  8
0
 10
-0.5000
 20
-0.2071
 30
0.0000
  0
VERTEX
  8
0
 10
-0.5000
 20
0.2071
 30
0.0000
  0
VERTEX
  8
0
 10
-0.2071
 20
0.5000
 30
0.0000
  0
VERTEX
  8
0
 10
0.2071
 20
0.5000
 30
0.0000
  0
VERTEX
  8
0
 10
0.5000
 20
0.2071
 30
0.0000
  0
VERTEX
  8
0
 10
0.5000
 20
-0.2071
 30
0.0000
  0
VERTEX
  8
0
 10
0.2071
 20
-0.5000
 30
0.0000
  0
VERTEX
  8
0
 10
-0.2071
 20
-0.5000
 30
0.0000
  0
SEQEND
  8
0
  0
ENDBLK
  8
0
  0
BLOCK
  8
0
  2
SQUAREP
 70
64
 10
0.0000
 20
0.0000
 30
0.0000
  3
SQUAREP
  0
SOLID
  8
0
 10
-0.5000
 20
-0.5000
 30
0.0000
 11
0.5000
 21
-0.5000
 31
0.0000
 12
-0.5000
 22
0.5000
 32
0.0000
 13
0.5000
 23
0.5000
 33
0.0000
  0
ENDBLK
  8
0
  0
BLOCK
  8
0
  2
ROUNDP
 70
64
 10
0.0000
 20
0.0000
 30
0.0000
  3
ROUNDP
  0
CIRCLE
  8
0
 10
0.0000
 20
0.0000
 30
0.0000
 40
0.5000
  0
ENDBLK
  8
0
  0
BLOCK
  8
0
  2
ANNULUSP
 70
64
 10
0.0000
 20
0.0000
 30
0.0000
  3
ANNULUSP
  0
CIRCLE
  8
0
 10
0.0000
 20
0.0000
 30
0.0000
 40
0.5000
  0
ENDBLK
  8
0
  0
BLOCK
  8
0
  2
THERMALP
 70
64
 10
0.0000
 20
0.0000
 30
0.0000
  3
THERMALP
  0
POLYLINE
  8
0
 66
1
 10
0.0000
 20
0.0000
 30
0.0000
 40
0.0000
 41
0.0000
 70
1
  0
VERTEX
  8
0
 10
-0.2379
 20
0.4000
 30
0.0000
  0
VERTEX
  8
0
 10
0.2379
 20
0.4000
 30
0.0000
 42
1.0000
  0
VERTEX
  8
0
 10
0.2379
 20
0.5000
 30
0.0000
  0
VERTEX
  8
0
 10
-0.2379
 20
0.5000
 30
0.0000
 42
1.0000
  0
SEQEND
  8
0
  0
POLYLINE
  8
0
 66
1
 10
0.0000
 20
0.0000
 30
0.0000
 40
0.0000
 41
0.0000
 70
1
  0
VERTEX
  8
0
 10
0.4000
 20
0.2379
 30
0.0000
  0
VERTEX
  8
0
 10
0.4000
 20
-0.2379
 30
0.0000
 42
1.0000
  0
VERTEX
  8
0
 10
0.5000
 20
-0.2379
 30
0.0000
  0
VERTEX
  8
0
 10
0.5000
 20
0.2379
 30
0.0000
 42
1.0000
  0
SEQEND
  8
0
  0
POLYLINE
  8
0
 66
1
 10
0.0000
 20
0.0000
 30
0.0000
 40
0.0000
 41
0.0000
 70
1
  0
VERTEX
  8
0
 10
0.2379
 20
-0.4000
 30
0.0000
  0
VERTEX
  8
0
 10
-0.2379
 20
-0.4000
 30
0.0000
 42
1.0000
  0
VERTEX
  8
0
 10
-0.2379
 20
-0.5000
 30
0.0000
  0
VERTEX
  8
0
 10
0.2379
 20
-0.5000
 30
0.0000
 42
1.0000
  0
SEQEND
  8
0
  0
POLYLINE
  8
0
 66
1
 10
0.0000
 20
0.0000
 30
0.0000
 40
0.0000
 41
0.0000
 70
1
  0
VERTEX
  8
0
 10
-0.4000
 20
-0.2379
 30
0.0000
  0
VERTEX
  8
0
 10
-0.4000
 20
0.2379
 30
0.0000
 42
1.0000
  0
VERTEX
  8
0
 10
-0.5000
 20
0.2379
 30
0.0000
  0
VERTEX
  8
0
 10
-0.5000
 20
-0.2379
 30
0.0000
 42
1.0000
  0
SEQEND
  8
0
  0
ENDBLK
  8
0
  0
BLOCK
  8
0
  2
OCTAGONV
 70
64
 10
0.0000
 20
0.0000
 30
0.0000
  3
OCTAGONV
  0
POLYLINE
  8
0
 66
1
 10
0.0000
 20
0.0000
 30
0.0000
 40
0.0000
 41
0.0000
 70
1
  0
VERTEX
  8
0
 10
-0.5000
 20
-0.2071
 30
0.0000
  0
VERTEX
  8
0
 10
-0.5000
 20
0.2071
 30
0.0000
  0
VERTEX
  8
0
 10
-0.2071
 20
0.5000
 30
0.0000
  0
VERTEX
  8
0
 10
0.2071
 20
0.5000
 30
0.0000
  0
VERTEX
  8
0
 10
0.5000
 20
0.2071
 30
0.0000
  0
VERTEX
  8
0
 10
0.5000
 20
-0.2071
 30
0.0000
  0
VERTEX
  8
0
 10
0.2071
 20
-0.5000
 30
0.0000
  0
VERTEX
  8
0
 10
-0.2071
 20
-0.5000
 30
0.0000
  0
SEQEND
  8
0
  0
ENDBLK
  8
0
  0
BLOCK
  8
0
  2
SQUAREV
 70
64
 10
0.0000
 20
0.0000
 30
0.0000
  3
SQUAREV
  0
SOLID
  8
0
 10
-0.5000
 20
-0.5000
 30
0.0000
 11
0.5000
 21
-0.5000
 31
0.0000
 12
-0.5000
 22
0.5000
 32
0.0000
 13
0.5000
 23
0.5000
 33
0.0000
  0
ENDBLK
  8
0
  0
BLOCK
  8
0
  2
ROUNDV
 70
64
 10
0.0000
 20
0.0000
 30
0.0000
  3
ROUNDV
  0
CIRCLE
  8
0
 10
0.0000
 20
0.0000
 30
0.0000
 40
0.5000
  0
ENDBLK
  8
0
  0
BLOCK
  8
0
  2
ANNULUSV
 70
64
 10
0.0000
 20
0.0000
 30
0.0000
  3
ANNULUSV
  0
CIRCLE
  8
0
 10
0.0000
 20
0.0000
 30
0.0000
 40
0.5000
  0
ENDBLK
  8
0
  0
BLOCK
  8
0
  2
THERMALV
 70
64
 10
0.0000
 20
0.0000
 30
0.0000
  3
THERMALV
  0
POLYLINE
  8
0
 66
1
 10
0.0000
 20
0.0000
 30
0.0000
 40
0.0000
 41
0.0000
 70
1
  0
VERTEX
  8
0
 10
-0.2379
 20
0.4000
 30
0.0000
  0
VERTEX
  8
0
 10
0.2379
 20
0.4000
 30
0.0000
 42
1.0000
  0
VERTEX
  8
0
 10
0.2379
 20
0.5000
 30
0.0000
  0
VERTEX
  8
0
 10
-0.2379
 20
0.5000
 30
0.0000
 42
1.0000
  0
SEQEND
  8
0
  0
POLYLINE
  8
0
 66
1
 10
0.0000
 20
0.0000
 30
0.0000
 40
0.0000
 41
0.0000
 70
1
  0
VERTEX
  8
0
 10
0.4000
 20
0.2379
 30
0.0000
  0
VERTEX
  8
0
 10
0.4000
 20
-0.2379
 30
0.0000
 42
1.0000
  0
VERTEX
  8
0
 10
0.5000
 20
-0.2379
 30
0.0000
  0
VERTEX
  8
0
 10
0.5000
 20
0.2379
 30
0.0000
 42
1.0000
  0
SEQEND
  8
0
  0
POLYLINE
  8
0
 66
1
 10
0.0000
 20
0.0000
 30
0.0000
 40
0.0000
 41
0.0000
 70
1
  0
VERTEX
  8
0
 10
0.2379
 20
-0.4000
 30
0.0000
  0
VERTEX
  8
0
 10
-0.2379
 20
-0.4000
 30
0.0000
 42
1.0000
  0
VERTEX
  8
0
 10
-0.2379
 20
-0.5000
 30
0.0000
  0
VERTEX
  8
0
 10
0.2379
 20
-0.5000
 30
0.0000
 42
1.0000
  0
SEQEND
  8
0
  0
POLYLINE
  8
0
 66
1
 10
0.0000
 20
0.0000
 30
0.0000
 40
0.0000
 41
0.0000
 70
1
  0
VERTEX
  8
0
 10
-0.4000
 20
-0.2379
 30
0.0000
  0
VERTEX
  8
0
 10
-0.4000
 20
0.2379
 30
0.0000
 42
1.0000
  0
VERTEX
  8
0
 10
-0.5000
 20
0.2379
 30
0.0000
  0
VERTEX
  8
0
 10
-0.5000
 20
-0.2379
 30
0.0000
 42
1.0000
  0
SEQEND
  8
0
  0
ENDBLK
  8
0
  0
ENDSEC
  0
SECTION
  2
ENTITIES
  0
POLYLINE
  8
20
 66
1
 10
0.0000
 20
0.0000
 30
0.0000
 40
0.0000
 41
0.0000
 70
1
  0
VERTEX
  8
20
 10
91.3250
 20
40.7989
 30
0.0000
 42
1.0000
  0
VERTEX
  8
20
 10
91.4750
 20
40.8011
 30
0.0000
 42
0.4142
  0
VERTEX
  8
20
 10
87.7989
 20
44.3750
 30
0.0000
 42
1.0000
  0
VERTEX
  8
20
 10
87.8011
 20
44.2250
 30
0.0000
 42
-0.4142
  0
SEQEND
  8
0
  0
POLYLINE
  8
20
 66
1
 10
0.0000
 20
0.0000
 30
0.0000
 40
0.0000
 41
0.0000
 70
1
  0
VERTEX
  8
20
 10
87.8000
 20
0.0750
 30
0.0000
 42
1.0000
  0
VERTEX
  8
20
 10
87.8000
 20
-0.0750
 30
0.0000
 42
0.4142
  0
VERTEX
  8
20
 10
91.4750
 20
3.6000
 30
0.0000
 42
1.0000
  0
VERTEX
  8
20
 10
91.3250
 20
3.6000
 30
0.0000
 42
-0.4142
  0
SEQEND
  8
0
  0
POLYLINE
  8
20
 66
1
 10
0.0000
 20
0.0000
 30
0.0000
 40
0.0000
 41
0.0000
 70
1
  0
VERTEX
  8
20
 10
91.4750
 20
3.6000
 30
0.0000
  0
VERTEX
  8
20
 10
91.4750
 20
40.8000
 30
0.0000
 42
1.0000
  0
VERTEX
  8
20
 10
91.3250
 20
40.8000
 30
0.0000
  0
VERTEX
  8
20
 10
91.3250
 20
3.6000
 30
0.0000
 42
1.0000
  0
SEQEND
  8
0
  0
POLYLINE
  8
20
 66
1
 10
0.0000
 20
0.0000
 30
0.0000
 40
0.0000
 41
0.0000
 70
1
  0
VERTEX
  8
20
 10
87.8000
 20
44.3750
 30
0.0000
  0
VERTEX
  8
20
 10
3.5000
 20
44.3750
 30
0.0000
 42
1.0000
  0
VERTEX
  8
20
 10
3.5000
 20
44.2250
 30
0.0000
  0
VERTEX
  8
20
 10
87.8000
 20
44.2250
 30
0.0000
 42
1.0000
  0
SEQEND
  8
0
  0
POLYLINE
  8
20
 66
1
 10
0.0000
 20
0.0000
 30
0.0000
 40
0.0000
 41
0.0000
 70
1
  0
VERTEX
  8
20
 10
87.8000
 20
0.0750
 30
0.0000
  0
VERTEX
  8
20
 10
3.6000
 20
0.0750
 30
0.0000
 42
1.0000
  0
VERTEX
  8
20
 10
3.6000
 20
-0.0750
 30
0.0000
  0
VERTEX
  8
20
 10
87.8000
 20
-0.0750
 30
0.0000
 42
1.0000
  0
SEQEND
  8
0
  0
POLYLINE
  8
20
 66
1
 10
0.0000
 20
0.0000
 30
0.0000
 40
0.0000
 41
0.0000
 70
1
  0
VERTEX
  8
20
 10
3.5011
 20
44.2250
 30
0.0000
 42
1.0000
  0
VERTEX
  8
20
 10
3.4989
 20
44.3750
 30
0.0000
 42
0.4142
  0
VERTEX
  8
20
 10
-0.0750
 20
40.6989
 30
0.0000
 42
1.0000
  0
VERTEX
  8
20
 10
0.0750
 20
40.7011
 30
0.0000
 42
-0.4142
  0
SEQEND
  8
0
  0
POLYLINE
  8
20
 66
1
 10
0.0000
 20
0.0000
 30
0.0000
 40
0.0000
 41
0.0000
 70
1
  0
VERTEX
  8
20
 10
0.0750
 20
3.5011
 30
0.0000
 42
1.0000
  0
VERTEX
  8
20
 10
-0.0750
 20
3.4989
 30
0.0000
 42
0.4142
  0
VERTEX
  8
20
 10
3.6011
 20
-0.0750
 30
0.0000
 42
1.0000
  0
VERTEX
  8
20
 10
3.5989
 20
0.0750
 30
0.0000
 42
-0.4142
  0
SEQEND
  8
0
  0
POLYLINE
  8
20
 66
1
 10
0.0000
 20
0.0000
 30
0.0000
 40
0.0000
 41
0.0000
 70
1
  0
VERTEX
  8
20
 10
0.0750
 20
3.5000
 30
0.0000
  0
VERTEX
  8
20
 10
0.0750
 20
40.7000
 30
0.0000
 42
1.0000
  0
VERTEX
  8
20
 10
-0.0750
 20
40.7000
 30
0.0000
  0
VERTEX
  8
20
 10
-0.0750
 20
3.5000
 30
0.0000
 42
1.0000
  0
SEQEND
  8
0
  0
POLYLINE
  8
20
 66
1
 10
0.0000
 20
0.0000
 30
0.0000
 40
0.0000
 41
0.0000
 70
1
  0
VERTEX
  8
20
 10
12.7000
 20
26.1238
 30
0.0000
  0
VERTEX
  8
20
 10
47.5000
 20
26.1238
 30
0.0000
 42
1.0000
  0
VERTEX
  8
20
 10
47.5000
 20
26.2762
 30
0.0000
  0
VERTEX
  8
20
 10
12.7000
 20
26.2762
 30
0.0000
 42
1.0000
  0
SEQEND
  8
0
  0
POLYLINE
  8
20
 66
1
 10
0.0000
 20
0.0000
 30
0.0000
 40
0.0000
 41
0.0000
 70
1
  0
VERTEX
  8
20
 10
48.5000
 20
26.1238
 30
0.0000
  0
VERTEX
  8
20
 10
65.7000
 20
26.1238
 30
0.0000
 42
1.0000
  0
VERTEX
  8
20
 10
65.7000
 20
26.2762
 30
0.0000
  0
VERTEX
  8
20
 10
48.5000
 20
26.2762
 30
0.0000
 42
1.0000
  0
SEQEND
  8
0
  0
POLYLINE
  8
20
 66
1
 10
0.0000
 20
0.0000
 30
0.0000
 40
0.0000
 41
0.0000
 70
1
  0
VERTEX
  8
20
 10
65.6238
 20
26.2000
 30
0.0000
  0
VERTEX
  8
20
 10
65.6238
 20
9.2000
 30
0.0000
 42
1.0000
  0
VERTEX
  8
20
 10
65.7762
 20
9.2000
 30
0.0000
  0
VERTEX
  8
20
 10
65.7762
 20
26.2000
 30
0.0000
 42
1.0000
  0
SEQEND
  8
0
  0
POLYLINE
  8
20
 66
1
 10
0.0000
 20
0.0000
 30
0.0000
 40
0.0000
 41
0.0000
 70
1
  0
VERTEX
  8
20
 10
65.7000
 20
9.2762
 30
0.0000
  0
VERTEX
  8
20
 10
48.5000
 20
9.2762
 30
0.0000
 42
1.0000
  0
VERTEX
  8
20
 10
48.5000
 20
9.1238
 30
0.0000
  0
VERTEX
  8
20
 10
65.7000
 20
9.1238
 30
0.0000
 42
1.0000
  0
SEQEND
  8
0
  0
POLYLINE
  8
20
 66
1
 10
0.0000
 20
0.0000
 30
0.0000
 40
0.0000
 41
0.0000
 70
1
  0
VERTEX
  8
20
 10
47.5000
 20
9.2762
 30
0.0000
  0
VERTEX
  8
20
 10
12.7000
 20
9.2762
 30
0.0000
 42
1.0000
  0
VERTEX
  8
20
 10
12.7000
 20
9.1238
 30
0.0000
  0
VERTEX
  8
20
 10
47.5000
 20
9.1238
 30
0.0000
 42
1.0000
  0
SEQEND
  8
0
  0
POLYLINE
  8
20
 66
1
 10
0.0000
 20
0.0000
 30
0.0000
 40
0.0000
 41
0.0000
 70
1
  0
VERTEX
  8
20
 10
12.7762
 20
9.2000
 30
0.0000
  0
VERTEX
  8
20
 10
12.7762
 20
26.2000
 30
0.0000
 42
1.0000
  0
VERTEX
  8
20
 10
12.6238
 20
26.2000
 30
0.0000
  0
VERTEX
  8
20
 10
12.6238
 20
9.2000
 30
0.0000
 42
1.0000
  0
SEQEND
  8
0
  0
POLYLINE
  8
20
 66
1
 10
0.0000
 20
0.0000
 30
0.0000
 40
0.0000
 41
0.0000
 70
1
  0
VERTEX
  8
20
 10
47.5000
 20
25.5762
 30
0.0000
  0
VERTEX
  8
20
 10
13.5000
 20
25.5762
 30
0.0000
 42
1.0000
  0
VERTEX
  8
20
 10
13.5000
 20
25.4238
 30
0.0000
  0
VERTEX
  8
20
 10
47.5000
 20
25.4238
 30
0.0000
 42
1.0000
  0
SEQEND
  8
0
  0
POLYLINE
  8
20
 66
1
 10
0.0000
 20
0.0000
 30
0.0000
 40
0.0000
 41
0.0000
 70
1
  0
VERTEX
  8
20
 10
13.4238
 20
25.5000
 30
0.0000
  0
VERTEX
  8
20
 10
13.4238
 20
10.0000
 30
0.0000
 42
1.0000
  0
VERTEX
  8
20
 10
13.5762
 20
10.0000
 30
0.0000
  0
VERTEX
  8
20
 10
13.5762
 20
25.5000
 30
0.0000
 42
1.0000
  0
SEQEND
  8
0
  0
POLYLINE
  8
20
 66
1
 10
0.0000
 20
0.0000
 30
0.0000
 40
0.0000
 41
0.0000
 70
1
  0
VERTEX
  8
20
 10
13.5000
 20
9.9238
 30
0.0000
  0
VERTEX
  8
20
 10
47.5000
 20
9.9238
 30
0.0000
 42
1.0000
  0
VERTEX
  8
20
 10
47.5000
 20
10.0762
 30
0.0000
  0
VERTEX
  8
20
 10
13.5000
 20
10.0762
 30
0.0000
 42
1.0000
  0
SEQEND
  8
0
  0
POLYLINE
  8
20
 66
1
 10
0.0000
 20
0.0000
 30
0.0000
 40
0.0000
 41
0.0000
 70
1
  0
VERTEX
  8
20
 10
47.4238
 20
10.0000
 30
0.0000
  0
VERTEX
  8
20
 10
47.4238
 20
9.2000
 30
0.0000
 42
1.0000
  0
VERTEX
  8
20
 10
47.5762
 20
9.2000
 30
0.0000
  0
VERTEX
  8
20
 10
47.5762
 20
10.0000
 30
0.0000
 42
1.0000
  0
SEQEND
  8
0
  0
POLYLINE
  8
20
 66
1
 10
0.0000
 20
0.0000
 30
0.0000
 40
0.0000
 41
0.0000
 70
1
  0
VERTEX
  8
20
 10
48.5762
 20
9.2000
 30
0.0000
  0
VERTEX
  8
20
 10
48.5762
 20
10.0000
 30
0.0000
 42
1.0000
  0
VERTEX
  8
20
 10
48.4238
 20
10.0000
 30
0.0000
  0
VERTEX
  8
20
 10
48.4238
 20
9.2000
 30
0.0000
 42
1.0000
  0
SEQEND
  8
0
  0
POLYLINE
  8
20
 66
1
 10
0.0000
 20
0.0000
 30
0.0000
 40
0.0000
 41
0.0000
 70
1
  0
VERTEX
  8
20
 10
48.5000
 20
9.9238
 30
0.0000
  0
VERTEX
  8
20
 10
65.0000
 20
9.9238
 30
0.0000
 42
1.0000
  0
VERTEX
  8
20
 10
65.0000
 20
10.0762
 30
0.0000
  0
VERTEX
  8
20
 10
48.5000
 20
10.0762
 30
0.0000
 42
1.0000
  0
SEQEND
  8
0
  0
POLYLINE
  8
20
 66
1
 10
0.0000
 20
0.0000
 30
0.0000
 40
0.0000
 41
0.0000
 70
1
  0
VERTEX
  8
20
 10
65.0762
 20
10.0000
 30
0.0000
  0
VERTEX
  8
20
 10
65.0762
 20
25.5000
 30
0.0000
 42
1.0000
  0
VERTEX
  8
20
 10
64.9238
 20
25.5000
 30
0.0000
  0
VERTEX
  8
20
 10
64.9238
 20
10.0000
 30
0.0000
 42
1.0000
  0
SEQEND
  8
0
  0
POLYLINE
  8
20
 66
1
 10
0.0000
 20
0.0000
 30
0.0000
 40
0.0000
 41
0.0000
 70
1
  0
VERTEX
  8
20
 10
65.0000
 20
25.5762
 30
0.0000
  0
VERTEX
  8
20
 10
48.5000
 20
25.5762
 30
0.0000
 42
1.0000
  0
VERTEX
  8
20
 10
48.5000
 20
25.4238
 30
0.0000
  0
VERTEX
  8
20
 10
65.0000
 20
25.4238
 30
0.0000
 42
1.0000
  0
SEQEND
  8
0
  0
POLYLINE
  8
20
 66
1
 10
0.0000
 20
0.0000
 30
0.0000
 40
0.0000
 41
0.0000
 70
1
  0
VERTEX
  8
20
 10
48.5762
 20
25.5000
 30
0.0000
  0
VERTEX
  8
20
 10
48.5762
 20
26.2000
 30
0.0000
 42
1.0000
  0
VERTEX
  8
20
 10
48.4238
 20
26.2000
 30
0.0000
  0
VERTEX
  8
20
 10
48.4238
 20
25.5000
 30
0.0000
 42
1.0000
  0
SEQEND
  8
0
  0
POLYLINE
  8
20
 66
1
 10
0.0000
 20
0.0000
 30
0.0000
 40
0.0000
 41
0.0000
 70
1
  0
VERTEX
  8
20
 10
47.4238
 20
26.2000
 30
0.0000
  0
VERTEX
  8
20
 10
47.4238
 20
25.5000
 30
0.0000
 42
1.0000
  0
VERTEX
  8
20
 10
47.5762
 20
25.5000
 30
0.0000
  0
VERTEX
  8
20
 10
47.5762
 20
26.2000
 30
0.0000
 42
1.0000
  0
SEQEND
  8
0
  0
POLYLINE
  8
158
 66
1
 10
0.0000
 20
0.0000
 30
0.0000
 40
0.0000
 41
0.0000
 70
1
  0
VERTEX
  8
158
 10
28.5460
 20
3.9286
 30
0.0000
  0
VERTEX
  8
158
 10
27.3143
 20
3.9286
 30
0.0000
 42
1.0000
  0
VERTEX
  8
158
 10
27.3143
 20
3.7000
 30
0.0000
  0
VERTEX
  8
158
 10
28.5460
 20
3.7000
 30
0.0000
 42
1.0000
  0
SEQEND
  8
0
  0
POLYLINE
  8
158
 66
1
 10
0.0000
 20
0.0000
 30
0.0000
 40
0.0000
 41
0.0000
 70
1
  0
VERTEX
  8
158
 10
27.4286
 20
3.8143
 30
0.0000
  0
VERTEX
  8
158
 10
27.4286
 20
6.5857
 30
0.0000
 42
1.0000
  0
VERTEX
  8
158
 10
27.2000
 20
6.5857
 30
0.0000
  0
VERTEX
  8
158
 10
27.2000
 20
3.8143
 30
0.0000
 42
1.0000
  0
SEQEND
  8
0
  0
POLYLINE
  8
158
 66
1
 10
0.0000
 20
0.0000
 30
0.0000
 40
0.0000
 41
0.0000
 70
1
  0
VERTEX
  8
158
 10
27.3143
 20
6.4714
 30
0.0000
  0
VERTEX
  8
158
 10
28.5460
 20
6.4714
 30
0.0000
 42
1.0000
  0
VERTEX
  8
158
 10
28.5460
 20
6.7000
 30
0.0000
  0
VERTEX
  8
158
 10
27.3143
 20
6.7000
 30
0.0000
 42
1.0000
  0
SEQEND
  8
0
  0
POLYLINE
  8
158
 66
1
 10
0.0000
 20
0.0000
 30
0.0000
 40
0.0000
 41
0.0000
 70
1
  0
VERTEX
  8
158
 10
27.3143
 20
5.2397
 30
0.0000
  0
VERTEX
  8
158
 10
28.2381
 20
5.2397
 30
0.0000
 42
1.0000
  0
VERTEX
  8
158
 10
28.2381
 20
5.4683
 30
0.0000
  0
VERTEX
  8
158
 10
27.3143
 20
5.4683
 30
0.0000
 42
1.0000
  0
SEQEND
  8
0
  0
POLYLINE
  8
158
 66
1
 10
0.0000
 20
0.0000
 30
0.0000
 40
0.0000
 41
0.0000
 70
1
  0
VERTEX
  8
158
 10
29.4715
 20
3.8143
 30
0.0000
  0
VERTEX
  8
158
 10
29.4715
 20
5.6619
 30
0.0000
 42
1.0000
  0
VERTEX
  8
158
 10
29.2429
 20
5.6619
 30
0.0000
  0
VERTEX
  8
158
 10
29.2429
 20
3.8143
 30
0.0000
 42
1.0000
  0
SEQEND
  8
0
  0
POLYLINE
  8
158
 66
1
 10
0.0000
 20
0.0000
 30
0.0000
 40
0.0000
 41
0.0000
 70
1
  0
VERTEX
  8
158
 10
29.3572
 20
5.5476
 30
0.0000
  0
VERTEX
  8
158
 10
30.1271
 20
5.5476
 30
0.0000
 42
1.0000
  0
VERTEX
  8
158
 10
30.1271
 20
5.7762
 30
0.0000
  0
VERTEX
  8
158
 10
29.3572
 20
5.7762
 30
0.0000
 42
1.0000
  0
SEQEND
  8
0
  0
POLYLINE
  8
158
 66
1
 10
0.0000
 20
0.0000
 30
0.0000
 40
0.0000
 41
0.0000
 70
1
  0
VERTEX
  8
158
 10
30.4747
 20
5.2000
 30
0.0000
 42
1.0000
  0
VERTEX
  8
158
 10
30.7033
 20
5.2000
 30
0.0000
 42
0.4142
  0
VERTEX
  8
158
 10
30.1271
 20
5.7762
 30
0.0000
 42
1.0000
  0
VERTEX
  8
158
 10
30.1271
 20
5.5476
 30
0.0000
 42
-0.4142
  0
SEQEND
  8
0
  0
POLYLINE
  8
158
 66
1
 10
0.0000
 20
0.0000
 30
0.0000
 40
0.0000
 41
0.0000
 70
1
  0
VERTEX
  8
158
 10
30.4747
 20
5.2000
 30
0.0000
  0
VERTEX
  8
158
 10
30.4747
 20
3.8143
 30
0.0000
 42
1.0000
  0
VERTEX
  8
158
 10
30.7033
 20
3.8143
 30
0.0000
  0
VERTEX
  8
158
 10
30.7033
 20
5.2000
 30
0.0000
 42
1.0000
  0
SEQEND
  8
0
  0
POLYLINE
  8
158
 66
1
 10
0.0000
 20
0.0000
 30
0.0000
 40
0.0000
 41
0.0000
 70
1
  0
VERTEX
  8
158
 10
32.7152
 20
3.9286
 30
0.0000
  0
VERTEX
  8
158
 10
31.9454
 20
3.9286
 30
0.0000
 42
1.0000
  0
VERTEX
  8
158
 10
31.9454
 20
3.7000
 30
0.0000
  0
VERTEX
  8
158
 10
32.7152
 20
3.7000
 30
0.0000
 42
1.0000
  0
SEQEND
  8
0
  0
POLYLINE
  8
158
 66
1
 10
0.0000
 20
0.0000
 30
0.0000
 40
0.0000
 41
0.0000
 70
1
  0
VERTEX
  8
158
 10
31.5978
 20
4.2762
 30
0.0000
 42
1.0000
  0
VERTEX
  8
158
 10
31.3692
 20
4.2762
 30
0.0000
 42
0.4142
  0
VERTEX
  8
158
 10
31.9454
 20
3.7000
 30
0.0000
 42
1.0000
  0
VERTEX
  8
158
 10
31.9454
 20
3.9286
 30
0.0000
 42
-0.4142
  0
SEQEND
  8
0
  0
POLYLINE
  8
158
 66
1
 10
0.0000
 20
0.0000
 30
0.0000
 40
0.0000
 41
0.0000
 70
1
  0
VERTEX
  8
158
 10
31.5978
 20
4.2762
 30
0.0000
  0
VERTEX
  8
158
 10
31.5978
 20
5.0460
 30
0.0000
 42
1.0000
  0
VERTEX
  8
158
 10
31.3692
 20
5.0460
 30
0.0000
  0
VERTEX
  8
158
 10
31.3692
 20
4.2762
 30
0.0000
 42
1.0000
  0
SEQEND
  8
0
  0
POLYLINE
  8
158
 66
1
 10
0.0000
 20
0.0000
 30
0.0000
 40
0.0000
 41
0.0000
 70
1
  0
VERTEX
  8
158
 10
32.6009
 20
5.0460
 30
0.0000
 42
1.0000
  0
VERTEX
  8
158
 10
32.8295
 20
5.0460
 30
0.0000
 42
1.0000
  0
VERTEX
  8
158
 10
31.3692
 20
5.0460
 30
0.0000
 42
1.0000
  0
VERTEX
  8
158
 10
31.5978
 20
5.0460
 30
0.0000
 42
-1.0000
  0
SEQEND
  8
0
  0
POLYLINE
  8
158
 66
1
 10
0.0000
 20
0.0000
 30
0.0000
 40
0.0000
 41
0.0000
 70
1
  0
VERTEX
  8
158
 10
32.6009
 20
5.0460
 30
0.0000
  0
VERTEX
  8
158
 10
32.6009
 20
4.7381
 30
0.0000
 42
1.0000
  0
VERTEX
  8
158
 10
32.8295
 20
4.7381
 30
0.0000
  0
VERTEX
  8
158
 10
32.8295
 20
5.0460
 30
0.0000
 42
1.0000
  0
SEQEND
  8
0
  0
POLYLINE
  8
158
 66
1
 10
0.0000
 20
0.0000
 30
0.0000
 40
0.0000
 41
0.0000
 70
1
  0
VERTEX
  8
158
 10
32.7152
 20
4.8524
 30
0.0000
  0
VERTEX
  8
158
 10
31.4835
 20
4.8524
 30
0.0000
 42
1.0000
  0
VERTEX
  8
158
 10
31.4835
 20
4.6238
 30
0.0000
  0
VERTEX
  8
158
 10
32.7152
 20
4.6238
 30
0.0000
 42
1.0000
  0
SEQEND
  8
0
  0
POLYLINE
  8
158
 66
1
 10
0.0000
 20
0.0000
 30
0.0000
 40
0.0000
 41
0.0000
 70
1
  0
VERTEX
  8
158
 10
33.7266
 20
3.8143
 30
0.0000
  0
VERTEX
  8
158
 10
33.7266
 20
5.6619
 30
0.0000
 42
1.0000
  0
VERTEX
  8
158
 10
33.4980
 20
5.6619
 30
0.0000
  0
VERTEX
  8
158
 10
33.4980
 20
3.8143
 30
0.0000
 42
1.0000
  0
SEQEND
  8
0
  0
POLYLINE
  8
158
 66
1
 10
0.0000
 20
0.0000
 30
0.0000
 40
0.0000
 41
0.0000
 70
1
  0
VERTEX
  8
158
 10
33.6123
 20
5.5476
 30
0.0000
  0
VERTEX
  8
158
 10
34.5361
 20
5.5476
 30
0.0000
 42
1.0000
  0
VERTEX
  8
158
 10
34.5361
 20
5.7762
 30
0.0000
  0
VERTEX
  8
158
 10
33.6123
 20
5.7762
 30
0.0000
 42
1.0000
  0
SEQEND
  8
0
  0
POLYLINE
  8
158
 66
1
 10
0.0000
 20
0.0000
 30
0.0000
 40
0.0000
 41
0.0000
 70
1
  0
VERTEX
  8
158
 10
34.4218
 20
5.6619
 30
0.0000
  0
VERTEX
  8
158
 10
34.4218
 20
5.3540
 30
0.0000
 42
1.0000
  0
VERTEX
  8
158
 10
34.6504
 20
5.3540
 30
0.0000
  0
VERTEX
  8
158
 10
34.6504
 20
5.6619
 30
0.0000
 42
1.0000
  0
SEQEND
  8
0
  0
POLYLINE
  8
158
 66
1
 10
0.0000
 20
0.0000
 30
0.0000
 40
0.0000
 41
0.0000
 70
1
  0
VERTEX
  8
158
 10
36.4145
 20
3.9286
 30
0.0000
  0
VERTEX
  8
158
 10
35.6446
 20
3.9286
 30
0.0000
 42
1.0000
  0
VERTEX
  8
158
 10
35.6446
 20
3.7000
 30
0.0000
  0
VERTEX
  8
158
 10
36.4145
 20
3.7000
 30
0.0000
 42
1.0000
  0
SEQEND
  8
0
  0
POLYLINE
  8
158
 66
1
 10
0.0000
 20
0.0000
 30
0.0000
 40
0.0000
 41
0.0000
 70
1
  0
VERTEX
  8
158
 10
35.2970
 20
4.2762
 30
0.0000
 42
1.0000
  0
VERTEX
  8
158
 10
35.0684
 20
4.2762
 30
0.0000
 42
0.4142
  0
VERTEX
  8
158
 10
35.6446
 20
3.7000
 30
0.0000
 42
1.0000
  0
VERTEX
  8
158
 10
35.6446
 20
3.9286
 30
0.0000
 42
-0.4142
  0
SEQEND
  8
0
  0
POLYLINE
  8
158
 66
1
 10
0.0000
 20
0.0000
 30
0.0000
 40
0.0000
 41
0.0000
 70
1
  0
VERTEX
  8
158
 10
35.2970
 20
4.2762
 30
0.0000
  0
VERTEX
  8
158
 10
35.2970
 20
5.2000
 30
0.0000
 42
1.0000
  0
VERTEX
  8
158
 10
35.0684
 20
5.2000
 30
0.0000
  0
VERTEX
  8
158
 10
35.0684
 20
4.2762
 30
0.0000
 42
1.0000
  0
SEQEND
  8
0
  0
POLYLINE
  8
158
 66
1
 10
0.0000
 20
0.0000
 30
0.0000
 40
0.0000
 41
0.0000
 70
1
  0
VERTEX
  8
158
 10
35.6446
 20
5.5476
 30
0.0000
 42
1.0000
  0
VERTEX
  8
158
 10
35.6446
 20
5.7762
 30
0.0000
 42
0.4142
  0
VERTEX
  8
158
 10
35.0684
 20
5.2000
 30
0.0000
 42
1.0000
  0
VERTEX
  8
158
 10
35.2970
 20
5.2000
 30
0.0000
 42
-0.4142
  0
SEQEND
  8
0
  0
POLYLINE
  8
158
 66
1
 10
0.0000
 20
0.0000
 30
0.0000
 40
0.0000
 41
0.0000
 70
1
  0
VERTEX
  8
158
 10
35.6446
 20
5.5476
 30
0.0000
  0
VERTEX
  8
158
 10
36.4145
 20
5.5476
 30
0.0000
 42
1.0000
  0
VERTEX
  8
158
 10
36.4145
 20
5.7762
 30
0.0000
  0
VERTEX
  8
158
 10
35.6446
 20
5.7762
 30
0.0000
 42
1.0000
  0
SEQEND
  8
0
  0
POLYLINE
  8
158
 66
1
 10
0.0000
 20
0.0000
 30
0.0000
 40
0.0000
 41
0.0000
 70
1
  0
VERTEX
  8
158
 10
36.3002
 20
5.6619
 30
0.0000
  0
VERTEX
  8
158
 10
36.3002
 20
3.3524
 30
0.0000
 42
1.0000
  0
VERTEX
  8
158
 10
36.5288
 20
3.3524
 30
0.0000
  0
VERTEX
  8
158
 10
36.5288
 20
5.6619
 30
0.0000
 42
1.0000
  0
SEQEND
  8
0
  0
POLYLINE
  8
158
 66
1
 10
0.0000
 20
0.0000
 30
0.0000
 40
0.0000
 41
0.0000
 70
1
  0
VERTEX
  8
158
 10
35.9526
 20
3.0048
 30
0.0000
 42
1.0000
  0
VERTEX
  8
158
 10
35.9526
 20
2.7762
 30
0.0000
 42
0.4142
  0
VERTEX
  8
158
 10
36.5288
 20
3.3524
 30
0.0000
 42
1.0000
  0
VERTEX
  8
158
 10
36.3002
 20
3.3524
 30
0.0000
 42
-0.4142
  0
SEQEND
  8
0
  0
POLYLINE
  8
158
 66
1
 10
0.0000
 20
0.0000
 30
0.0000
 40
0.0000
 41
0.0000
 70
1
  0
VERTEX
  8
158
 10
35.9526
 20
3.0048
 30
0.0000
  0
VERTEX
  8
158
 10
35.3367
 20
3.0048
 30
0.0000
 42
1.0000
  0
VERTEX
  8
158
 10
35.3367
 20
2.7762
 30
0.0000
  0
VERTEX
  8
158
 10
35.9526
 20
2.7762
 30
0.0000
 42
1.0000
  0
SEQEND
  8
0
  0
POLYLINE
  8
158
 66
1
 10
0.0000
 20
0.0000
 30
0.0000
 40
0.0000
 41
0.0000
 70
1
  0
VERTEX
  8
158
 10
37.2322
 20
2.7762
 30
0.0000
  0
VERTEX
  8
158
 10
37.5401
 20
2.7762
 30
0.0000
 42
1.0000
  0
VERTEX
  8
158
 10
37.5401
 20
3.0048
 30
0.0000
  0
VERTEX
  8
158
 10
37.2322
 20
3.0048
 30
0.0000
 42
1.0000
  0
SEQEND
  8
0
  0
POLYLINE
  8
158
 66
1
 10
0.0000
 20
0.0000
 30
0.0000
 40
0.0000
 41
0.0000
 70
1
  0
VERTEX
  8
158
 10
37.6486
 20
2.8544
 30
0.0000
  0
VERTEX
  8
158
 10
38.5724
 20
5.6258
 30
0.0000
 42
1.0000
  0
VERTEX
  8
158
 10
38.3555
 20
5.6980
 30
0.0000
  0
VERTEX
  8
158
 10
37.4317
 20
2.9266
 30
0.0000
 42
1.0000
  0
SEQEND
  8
0
  0
POLYLINE
  8
158
 66
1
 10
0.0000
 20
0.0000
 30
0.0000
 40
0.0000
 41
0.0000
 70
1
  0
VERTEX
  8
158
 10
37.1238
 20
5.6258
 30
0.0000
  0
VERTEX
  8
158
 10
37.7396
 20
3.7782
 30
0.0000
 42
1.0000
  0
VERTEX
  8
158
 10
37.9565
 20
3.8504
 30
0.0000
  0
VERTEX
  8
158
 10
37.3406
 20
5.6980
 30
0.0000
 42
1.0000
  0
SEQEND
  8
0
  0
POLYLINE
  8
158
 66
1
 10
0.0000
 20
0.0000
 30
0.0000
 40
0.0000
 41
0.0000
 70
1
  0
VERTEX
  8
158
 10
39.4011
 20
3.8143
 30
0.0000
  0
VERTEX
  8
158
 10
39.4011
 20
6.5857
 30
0.0000
 42
1.0000
  0
VERTEX
  8
158
 10
39.1725
 20
6.5857
 30
0.0000
  0
VERTEX
  8
158
 10
39.1725
 20
3.8143
 30
0.0000
 42
1.0000
  0
SEQEND
  8
0
  0
POLYLINE
  8
158
 66
1
 10
0.0000
 20
0.0000
 30
0.0000
 40
0.0000
 41
0.0000
 70
1
  0
VERTEX
  8
158
 10
39.1888
 20
6.5269
 30
0.0000
  0
VERTEX
  8
158
 10
40.1126
 20
4.9872
 30
0.0000
 42
1.0000
  0
VERTEX
  8
158
 10
40.3086
 20
5.1048
 30
0.0000
  0
VERTEX
  8
158
 10
39.3848
 20
6.6445
 30
0.0000
 42
1.0000
  0
SEQEND
  8
0
  0
POLYLINE
  8
158
 66
1
 10
0.0000
 20
0.0000
 30
0.0000
 40
0.0000
 41
0.0000
 70
1
  0
VERTEX
  8
158
 10
40.3086
 20
4.9872
 30
0.0000
  0
VERTEX
  8
158
 10
41.2324
 20
6.5269
 30
0.0000
 42
1.0000
  0
VERTEX
  8
158
 10
41.0364
 20
6.6445
 30
0.0000
  0
VERTEX
  8
158
 10
40.1126
 20
5.1048
 30
0.0000
 42
1.0000
  0
SEQEND
  8
0
  0
POLYLINE
  8
158
 66
1
 10
0.0000
 20
0.0000
 30
0.0000
 40
0.0000
 41
0.0000
 70
1
  0
VERTEX
  8
158
 10
41.0201
 20
6.5857
 30
0.0000
  0
VERTEX
  8
158
 10
41.0201
 20
3.8143
 30
0.0000
 42
1.0000
  0
VERTEX
  8
158
 10
41.2487
 20
3.8143
 30
0.0000
  0
VERTEX
  8
158
 10
41.2487
 20
6.5857
 30
0.0000
 42
1.0000
  0
SEQEND
  8
0
  0
POLYLINE
  8
158
 66
1
 10
0.0000
 20
0.0000
 30
0.0000
 40
0.0000
 41
0.0000
 70
1
  0
VERTEX
  8
158
 10
42.1502
 20
4.4302
 30
0.0000
  0
VERTEX
  8
158
 10
42.1502
 20
5.0460
 30
0.0000
 42
1.0000
  0
VERTEX
  8
158
 10
41.9216
 20
5.0460
 30
0.0000
  0
VERTEX
  8
158
 10
41.9216
 20
4.4302
 30
0.0000
 42
1.0000
  0
SEQEND
  8
0
  0
POLYLINE
  8
158
 66
1
 10
0.0000
 20
0.0000
 30
0.0000
 40
0.0000
 41
0.0000
 70
1
  0
VERTEX
  8
158
 10
43.1534
 20
5.0460
 30
0.0000
 42
1.0000
  0
VERTEX
  8
158
 10
43.3820
 20
5.0460
 30
0.0000
 42
1.0000
  0
VERTEX
  8
158
 10
41.9216
 20
5.0460
 30
0.0000
 42
1.0000
  0
VERTEX
  8
158
 10
42.1502
 20
5.0460
 30
0.0000
 42
-1.0000
  0
SEQEND
  8
0
  0
POLYLINE
  8
158
 66
1
 10
0.0000
 20
0.0000
 30
0.0000
 40
0.0000
 41
0.0000
 70
1
  0
VERTEX
  8
158
 10
43.1534
 20
5.0460
 30
0.0000
  0
VERTEX
  8
158
 10
43.1534
 20
4.4302
 30
0.0000
 42
1.0000
  0
VERTEX
  8
158
 10
43.3820
 20
4.4302
 30
0.0000
  0
VERTEX
  8
158
 10
43.3820
 20
5.0460
 30
0.0000
 42
1.0000
  0
SEQEND
  8
0
  0
POLYLINE
  8
158
 66
1
 10
0.0000
 20
0.0000
 30
0.0000
 40
0.0000
 41
0.0000
 70
1
  0
VERTEX
  8
158
 10
42.1502
 20
4.4302
 30
0.0000
 42
1.0000
  0
VERTEX
  8
158
 10
41.9216
 20
4.4302
 30
0.0000
 42
1.0000
  0
VERTEX
  8
158
 10
43.3820
 20
4.4302
 30
0.0000
 42
1.0000
  0
VERTEX
  8
158
 10
43.1534
 20
4.4302
 30
0.0000
 42
-1.0000
  0
SEQEND
  8
0
  0
POLYLINE
  8
158
 66
1
 10
0.0000
 20
0.0000
 30
0.0000
 40
0.0000
 41
0.0000
 70
1
  0
VERTEX
  8
158
 10
44.2765
 20
3.8143
 30
0.0000
  0
VERTEX
  8
158
 10
44.2765
 20
5.6619
 30
0.0000
 42
1.0000
  0
VERTEX
  8
158
 10
44.0479
 20
5.6619
 30
0.0000
  0
VERTEX
  8
158
 10
44.0479
 20
3.8143
 30
0.0000
 42
1.0000
  0
SEQEND
  8
0
  0
POLYLINE
  8
158
 66
1
 10
0.0000
 20
0.0000
 30
0.0000
 40
0.0000
 41
0.0000
 70
1
  0
VERTEX
  8
158
 10
44.1622
 20
5.5476
 30
0.0000
  0
VERTEX
  8
158
 10
44.9320
 20
5.5476
 30
0.0000
 42
1.0000
  0
VERTEX
  8
158
 10
44.9320
 20
5.7762
 30
0.0000
  0
VERTEX
  8
158
 10
44.1622
 20
5.7762
 30
0.0000
 42
1.0000
  0
SEQEND
  8
0
  0
POLYLINE
  8
158
 66
1
 10
0.0000
 20
0.0000
 30
0.0000
 40
0.0000
 41
0.0000
 70
1
  0
VERTEX
  8
158
 10
45.2796
 20
5.2000
 30
0.0000
 42
1.0000
  0
VERTEX
  8
158
 10
45.5082
 20
5.2000
 30
0.0000
 42
0.4142
  0
VERTEX
  8
158
 10
44.9320
 20
5.7762
 30
0.0000
 42
1.0000
  0
VERTEX
  8
158
 10
44.9320
 20
5.5476
 30
0.0000
 42
-0.4142
  0
SEQEND
  8
0
  0
POLYLINE
  8
158
 66
1
 10
0.0000
 20
0.0000
 30
0.0000
 40
0.0000
 41
0.0000
 70
1
  0
VERTEX
  8
158
 10
45.2796
 20
5.2000
 30
0.0000
  0
VERTEX
  8
158
 10
45.2796
 20
3.8143
 30
0.0000
 42
1.0000
  0
VERTEX
  8
158
 10
45.5082
 20
3.8143
 30
0.0000
  0
VERTEX
  8
158
 10
45.5082
 20
5.2000
 30
0.0000
 42
1.0000
  0
SEQEND
  8
0
  0
POLYLINE
  8
158
 66
1
 10
0.0000
 20
0.0000
 30
0.0000
 40
0.0000
 41
0.0000
 70
1
  0
VERTEX
  8
158
 10
46.4673
 20
3.8143
 30
0.0000
  0
VERTEX
  8
158
 10
46.4673
 20
5.6619
 30
0.0000
 42
1.0000
  0
VERTEX
  8
158
 10
46.2387
 20
5.6619
 30
0.0000
  0
VERTEX
  8
158
 10
46.2387
 20
3.8143
 30
0.0000
 42
1.0000
  0
SEQEND
  8
0
  0
POLYLINE
  8
158
 66
1
 10
0.0000
 20
0.0000
 30
0.0000
 40
0.0000
 41
0.0000
 70
1
  0
VERTEX
  8
158
 10
46.3904
 20
6.4317
 30
0.0000
  0
VERTEX
  8
158
 10
46.3904
 20
6.5857
 30
0.0000
 42
1.0000
  0
VERTEX
  8
158
 10
46.1618
 20
6.5857
 30
0.0000
  0
VERTEX
  8
158
 10
46.1618
 20
6.4317
 30
0.0000
 42
1.0000
  0
SEQEND
  8
0
  0
POLYLINE
  8
158
 66
1
 10
0.0000
 20
0.0000
 30
0.0000
 40
0.0000
 41
0.0000
 70
1
  0
VERTEX
  8
158
 10
46.2761
 20
6.4714
 30
0.0000
  0
VERTEX
  8
158
 10
46.4300
 20
6.4714
 30
0.0000
 42
1.0000
  0
VERTEX
  8
158
 10
46.4300
 20
6.7000
 30
0.0000
  0
VERTEX
  8
158
 10
46.2761
 20
6.7000
 30
0.0000
 42
1.0000
  0
SEQEND
  8
0
  0
POLYLINE
  8
158
 66
1
 10
0.0000
 20
0.0000
 30
0.0000
 40
0.0000
 41
0.0000
 70
1
  0
VERTEX
  8
158
 10
46.3157
 20
6.5857
 30
0.0000
  0
VERTEX
  8
158
 10
46.3157
 20
6.4317
 30
0.0000
 42
1.0000
  0
VERTEX
  8
158
 10
46.5443
 20
6.4317
 30
0.0000
  0
VERTEX
  8
158
 10
46.5443
 20
6.5857
 30
0.0000
 42
1.0000
  0
SEQEND
  8
0
  0
POLYLINE
  8
158
 66
1
 10
0.0000
 20
0.0000
 30
0.0000
 40
0.0000
 41
0.0000
 70
1
  0
VERTEX
  8
158
 10
46.4300
 20
6.5460
 30
0.0000
  0
VERTEX
  8
158
 10
46.2761
 20
6.5460
 30
0.0000
 42
1.0000
  0
VERTEX
  8
158
 10
46.2761
 20
6.3174
 30
0.0000
  0
VERTEX
  8
158
 10
46.4300
 20
6.3174
 30
0.0000
 42
1.0000
  0
SEQEND
  8
0
  0
POLYLINE
  8
158
 66
1
 10
0.0000
 20
0.0000
 30
0.0000
 40
0.0000
 41
0.0000
 70
1
  0
VERTEX
  8
158
 10
47.0691
 20
5.5476
 30
0.0000
  0
VERTEX
  8
158
 10
47.9929
 20
5.5476
 30
0.0000
 42
1.0000
  0
VERTEX
  8
158
 10
47.9929
 20
5.7762
 30
0.0000
  0
VERTEX
  8
158
 10
47.0691
 20
5.7762
 30
0.0000
 42
1.0000
  0
SEQEND
  8
0
  0
POLYLINE
  8
158
 66
1
 10
0.0000
 20
0.0000
 30
0.0000
 40
0.0000
 41
0.0000
 70
1
  0
VERTEX
  8
158
 10
47.2627
 20
6.5857
 30
0.0000
  0
VERTEX
  8
158
 10
47.2627
 20
4.2762
 30
0.0000
 42
1.0000
  0
VERTEX
  8
158
 10
47.4913
 20
4.2762
 30
0.0000
  0
VERTEX
  8
158
 10
47.4913
 20
6.5857
 30
0.0000
 42
1.0000
  0
SEQEND
  8
0
  0
POLYLINE
  8
158
 66
1
 10
0.0000
 20
0.0000
 30
0.0000
 40
0.0000
 41
0.0000
 70
1
  0
VERTEX
  8
158
 10
47.4913
 20
4.2762
 30
0.0000
 42
1.0000
  0
VERTEX
  8
158
 10
47.2627
 20
4.2762
 30
0.0000
 42
0.4142
  0
VERTEX
  8
158
 10
47.8389
 20
3.7000
 30
0.0000
 42
1.0000
  0
VERTEX
  8
158
 10
47.8389
 20
3.9286
 30
0.0000
 42
-0.4142
  0
SEQEND
  8
0
  0
POLYLINE
  8
158
 66
1
 10
0.0000
 20
0.0000
 30
0.0000
 40
0.0000
 41
0.0000
 70
1
  0
VERTEX
  8
158
 10
47.8389
 20
3.7000
 30
0.0000
  0
VERTEX
  8
158
 10
47.9929
 20
3.7000
 30
0.0000
 42
1.0000
  0
VERTEX
  8
158
 10
47.9929
 20
3.9286
 30
0.0000
  0
VERTEX
  8
158
 10
47.8389
 20
3.9286
 30
0.0000
 42
1.0000
  0
SEQEND
  8
0
  0
POLYLINE
  8
158
 66
1
 10
0.0000
 20
0.0000
 30
0.0000
 40
0.0000
 41
0.0000
 70
1
  0
VERTEX
  8
158
 10
48.8440
 20
4.4302
 30
0.0000
  0
VERTEX
  8
158
 10
48.8440
 20
5.0460
 30
0.0000
 42
1.0000
  0
VERTEX
  8
158
 10
48.6154
 20
5.0460
 30
0.0000
  0
VERTEX
  8
158
 10
48.6154
 20
4.4302
 30
0.0000
 42
1.0000
  0
SEQEND
  8
0
  0
POLYLINE
  8
158
 66
1
 10
0.0000
 20
0.0000
 30
0.0000
 40
0.0000
 41
0.0000
 70
1
  0
VERTEX
  8
158
 10
49.8471
 20
5.0460
 30
0.0000
 42
1.0000
  0
VERTEX
  8
158
 10
50.0757
 20
5.0460
 30
0.0000
 42
1.0000
  0
VERTEX
  8
158
 10
48.6154
 20
5.0460
 30
0.0000
 42
1.0000
  0
VERTEX
  8
158
 10
48.8440
 20
5.0460
 30
0.0000
 42
-1.0000
  0
SEQEND
  8
0
  0
POLYLINE
  8
158
 66
1
 10
0.0000
 20
0.0000
 30
0.0000
 40
0.0000
 41
0.0000
 70
1
  0
VERTEX
  8
158
 10
49.8471
 20
5.0460
 30
0.0000
  0
VERTEX
  8
158
 10
49.8471
 20
4.4302
 30
0.0000
 42
1.0000
  0
VERTEX
  8
158
 10
50.0757
 20
4.4302
 30
0.0000
  0
VERTEX
  8
158
 10
50.0757
 20
5.0460
 30
0.0000
 42
1.0000
  0
SEQEND
  8
0
  0
POLYLINE
  8
158
 66
1
 10
0.0000
 20
0.0000
 30
0.0000
 40
0.0000
 41
0.0000
 70
1
  0
VERTEX
  8
158
 10
48.8440
 20
4.4302
 30
0.0000
 42
1.0000
  0
VERTEX
  8
158
 10
48.6154
 20
4.4302
 30
0.0000
 42
1.0000
  0
VERTEX
  8
158
 10
50.0757
 20
4.4302
 30
0.0000
 42
1.0000
  0
VERTEX
  8
158
 10
49.8471
 20
4.4302
 30
0.0000
 42
-1.0000
  0
SEQEND
  8
0
  0
POLYLINE
  8
158
 66
1
 10
0.0000
 20
0.0000
 30
0.0000
 40
0.0000
 41
0.0000
 70
1
  0
VERTEX
  8
158
 10
50.9728
 20
3.8143
 30
0.0000
  0
VERTEX
  8
158
 10
50.9728
 20
5.6619
 30
0.0000
 42
1.0000
  0
VERTEX
  8
158
 10
50.7442
 20
5.6619
 30
0.0000
  0
VERTEX
  8
158
 10
50.7442
 20
3.8143
 30
0.0000
 42
1.0000
  0
SEQEND
  8
0
  0
POLYLINE
  8
158
 66
1
 10
0.0000
 20
0.0000
 30
0.0000
 40
0.0000
 41
0.0000
 70
1
  0
VERTEX
  8
158
 10
50.8585
 20
5.5476
 30
0.0000
  0
VERTEX
  8
158
 10
51.7823
 20
5.5476
 30
0.0000
 42
1.0000
  0
VERTEX
  8
158
 10
51.7823
 20
5.7762
 30
0.0000
  0
VERTEX
  8
158
 10
50.8585
 20
5.7762
 30
0.0000
 42
1.0000
  0
SEQEND
  8
0
  0
POLYLINE
  8
158
 66
1
 10
0.0000
 20
0.0000
 30
0.0000
 40
0.0000
 41
0.0000
 70
1
  0
VERTEX
  8
158
 10
51.6680
 20
5.6619
 30
0.0000
  0
VERTEX
  8
158
 10
51.6680
 20
5.3540
 30
0.0000
 42
1.0000
  0
VERTEX
  8
158
 10
51.8966
 20
5.3540
 30
0.0000
  0
VERTEX
  8
158
 10
51.8966
 20
5.6619
 30
0.0000
 42
1.0000
  0
SEQEND
  8
0
  0
POLYLINE
  8
20
 66
1
 10
0.0000
 20
0.0000
 30
0.0000
 40
0.0000
 41
0.0000
 70
1
  0
VERTEX
  8
20
 10
10.7568
 20
36.6332
 30
0.0000
  0
VERTEX
  8
20
 10
10.2375
 20
36.6332
 30
0.0000
 42
1.0000
  0
VERTEX
  8
20
 10
10.2375
 20
36.4300
 30
0.0000
  0
VERTEX
  8
20
 10
10.7568
 20
36.4300
 30
0.0000
 42
1.0000
  0
SEQEND
  8
0
  0
POLYLINE
  8
20
 66
1
 10
0.0000
 20
0.0000
 30
0.0000
 40
0.0000
 41
0.0000
 70
1
  0
VERTEX
  8
20
 10
9.8199
 20
37.0509
 30
0.0000
 42
1.0000
  0
VERTEX
  8
20
 10
9.6167
 20
37.0509
 30
0.0000
 42
0.4142
  0
VERTEX
  8
20
 10
10.2375
 20
36.4300
 30
0.0000
 42
1.0000
  0
VERTEX
  8
20
 10
10.2375
 20
36.6332
 30
0.0000
 42
-0.4142
  0
SEQEND
  8
0
  0
POLYLINE
  8
20
 66
1
 10
0.0000
 20
0.0000
 30
0.0000
 40
0.0000
 41
0.0000
 70
1
  0
VERTEX
  8
20
 10
9.8199
 20
37.0509
 30
0.0000
  0
VERTEX
  8
20
 10
9.8199
 20
38.3491
 30
0.0000
 42
1.0000
  0
VERTEX
  8
20
 10
9.6167
 20
38.3491
 30
0.0000
  0
VERTEX
  8
20
 10
9.6167
 20
37.0509
 30
0.0000
 42
1.0000
  0
SEQEND
  8
0
  0
POLYLINE
  8
20
 66
1
 10
0.0000
 20
0.0000
 30
0.0000
 40
0.0000
 41
0.0000
 70
1
  0
VERTEX
  8
20
 10
10.2375
 20
38.7668
 30
0.0000
 42
1.0000
  0
VERTEX
  8
20
 10
10.2375
 20
38.9700
 30
0.0000
 42
0.4142
  0
VERTEX
  8
20
 10
9.6167
 20
38.3491
 30
0.0000
 42
1.0000
  0
VERTEX
  8
20
 10
9.8199
 20
38.3491
 30
0.0000
 42
-0.4142
  0
SEQEND
  8
0
  0
POLYLINE
  8
20
 66
1
 10
0.0000
 20
0.0000
 30
0.0000
 40
0.0000
 41
0.0000
 70
1
  0
VERTEX
  8
20
 10
10.2375
 20
38.7668
 30
0.0000
  0
VERTEX
  8
20
 10
10.7568
 20
38.7668
 30
0.0000
 42
1.0000
  0
VERTEX
  8
20
 10
10.7568
 20
38.9700
 30
0.0000
  0
VERTEX
  8
20
 10
10.2375
 20
38.9700
 30
0.0000
 42
1.0000
  0
SEQEND
  8
0
  0
POLYLINE
  8
20
 66
1
 10
0.0000
 20
0.0000
 30
0.0000
 40
0.0000
 41
0.0000
 70
1
  0
VERTEX
  8
20
 10
12.0720
 20
36.5316
 30
0.0000
  0
VERTEX
  8
20
 10
12.0720
 20
38.8684
 30
0.0000
 42
1.0000
  0
VERTEX
  8
20
 10
11.8688
 20
38.8684
 30
0.0000
  0
VERTEX
  8
20
 10
11.8688
 20
36.5316
 30
0.0000
 42
1.0000
  0
SEQEND
  8
0
  0
POLYLINE
  8
20
 66
1
 10
0.0000
 20
0.0000
 30
0.0000
 40
0.0000
 41
0.0000
 70
1
  0
VERTEX
  8
20
 10
11.3213
 20
38.7668
 30
0.0000
  0
VERTEX
  8
20
 10
12.6195
 20
38.7668
 30
0.0000
 42
1.0000
  0
VERTEX
  8
20
 10
12.6195
 20
38.9700
 30
0.0000
  0
VERTEX
  8
20
 10
11.3213
 20
38.9700
 30
0.0000
 42
1.0000
  0
SEQEND
  8
0
  0
POLYLINE
  8
20
 66
1
 10
0.0000
 20
0.0000
 30
0.0000
 40
0.0000
 41
0.0000
 70
1
  0
VERTEX
  8
20
 10
14.4470
 20
38.2698
 30
0.0000
  0
VERTEX
  8
20
 10
15.0961
 20
38.7891
 30
0.0000
 42
1.0000
  0
VERTEX
  8
20
 10
14.9692
 20
38.9477
 30
0.0000
  0
VERTEX
  8
20
 10
14.3201
 20
38.4284
 30
0.0000
 42
1.0000
  0
SEQEND
  8
0
  0
POLYLINE
  8
20
 66
1
 10
0.0000
 20
0.0000
 30
0.0000
 40
0.0000
 41
0.0000
 70
1
  0
VERTEX
  8
20
 10
14.9310
 20
38.8684
 30
0.0000
  0
VERTEX
  8
20
 10
14.9310
 20
36.5316
 30
0.0000
 42
1.0000
  0
VERTEX
  8
20
 10
15.1342
 20
36.5316
 30
0.0000
  0
VERTEX
  8
20
 10
15.1342
 20
38.8684
 30
0.0000
 42
1.0000
  0
SEQEND
  8
0
  0
POLYLINE
  8
20
 66
1
 10
0.0000
 20
0.0000
 30
0.0000
 40
0.0000
 41
0.0000
 70
1
  0
VERTEX
  8
20
 10
14.3835
 20
36.4300
 30
0.0000
  0
VERTEX
  8
20
 10
15.6818
 20
36.4300
 30
0.0000
 42
1.0000
  0
VERTEX
  8
20
 10
15.6818
 20
36.6332
 30
0.0000
  0
VERTEX
  8
20
 10
14.3835
 20
36.6332
 30
0.0000
 42
1.0000
  0
SEQEND
  8
0
  0
POLYLINE
  8
20
 66
1
 10
0.0000
 20
0.0000
 30
0.0000
 40
0.0000
 41
0.0000
 70
1
  0
VERTEX
  8
20
 10
16.9286
 20
4.5841
 30
0.0000
  0
VERTEX
  8
20
 10
16.9286
 20
5.8159
 30
0.0000
 42
1.0000
  0
VERTEX
  8
20
 10
16.7000
 20
5.8159
 30
0.0000
  0
VERTEX
  8
20
 10
16.7000
 20
4.5841
 30
0.0000
 42
1.0000
  0
SEQEND
  8
0
  0
POLYLINE
  8
20
 66
1
 10
0.0000
 20
0.0000
 30
0.0000
 40
0.0000
 41
0.0000
 70
1
  0
VERTEX
  8
20
 10
18.2397
 20
5.8159
 30
0.0000
 42
1.0000
  0
VERTEX
  8
20
 10
18.4683
 20
5.8159
 30
0.0000
 42
1.0000
  0
VERTEX
  8
20
 10
16.7000
 20
5.8159
 30
0.0000
 42
1.0000
  0
VERTEX
  8
20
 10
16.9286
 20
5.8159
 30
0.0000
 42
-1.0000
  0
SEQEND
  8
0
  0
POLYLINE
  8
20
 66
1
 10
0.0000
 20
0.0000
 30
0.0000
 40
0.0000
 41
0.0000
 70
1
  0
VERTEX
  8
20
 10
18.2397
 20
5.8159
 30
0.0000
  0
VERTEX
  8
20
 10
18.2397
 20
4.5841
 30
0.0000
 42
1.0000
  0
VERTEX
  8
20
 10
18.4683
 20
4.5841
 30
0.0000
  0
VERTEX
  8
20
 10
18.4683
 20
5.8159
 30
0.0000
 42
1.0000
  0
SEQEND
  8
0
  0
POLYLINE
  8
20
 66
1
 10
0.0000
 20
0.0000
 30
0.0000
 40
0.0000
 41
0.0000
 70
1
  0
VERTEX
  8
20
 10
16.9286
 20
4.5841
 30
0.0000
 42
1.0000
  0
VERTEX
  8
20
 10
16.7000
 20
4.5841
 30
0.0000
 42
1.0000
  0
VERTEX
  8
20
 10
18.4683
 20
4.5841
 30
0.0000
 42
1.0000
  0
VERTEX
  8
20
 10
18.2397
 20
4.5841
 30
0.0000
 42
-1.0000
  0
SEQEND
  8
0
  0
POLYLINE
  8
20
 66
1
 10
0.0000
 20
0.0000
 30
0.0000
 40
0.0000
 41
0.0000
 70
1
  0
VERTEX
  8
20
 10
19.3683
 20
2.8905
 30
0.0000
  0
VERTEX
  8
20
 10
19.3683
 20
5.6619
 30
0.0000
 42
1.0000
  0
VERTEX
  8
20
 10
19.1397
 20
5.6619
 30
0.0000
  0
VERTEX
  8
20
 10
19.1397
 20
2.8905
 30
0.0000
 42
1.0000
  0
SEQEND
  8
0
  0
POLYLINE
  8
20
 66
1
 10
0.0000
 20
0.0000
 30
0.0000
 40
0.0000
 41
0.0000
 70
1
  0
VERTEX
  8
20
 10
19.2540
 20
5.5476
 30
0.0000
  0
VERTEX
  8
20
 10
20.0238
 20
5.5476
 30
0.0000
 42
1.0000
  0
VERTEX
  8
20
 10
20.0238
 20
5.7762
 30
0.0000
  0
VERTEX
  8
20
 10
19.2540
 20
5.7762
 30
0.0000
 42
1.0000
  0
SEQEND
  8
0
  0
POLYLINE
  8
20
 66
1
 10
0.0000
 20
0.0000
 30
0.0000
 40
0.0000
 41
0.0000
 70
1
  0
VERTEX
  8
20
 10
20.3714
 20
5.2000
 30
0.0000
 42
1.0000
  0
VERTEX
  8
20
 10
20.6000
 20
5.2000
 30
0.0000
 42
0.4142
  0
VERTEX
  8
20
 10
20.0238
 20
5.7762
 30
0.0000
 42
1.0000
  0
VERTEX
  8
20
 10
20.0238
 20
5.5476
 30
0.0000
 42
-0.4142
  0
SEQEND
  8
0
  0
POLYLINE
  8
20
 66
1
 10
0.0000
 20
0.0000
 30
0.0000
 40
0.0000
 41
0.0000
 70
1
  0
VERTEX
  8
20
 10
20.3714
 20
5.2000
 30
0.0000
  0
VERTEX
  8
20
 10
20.3714
 20
4.2762
 30
0.0000
 42
1.0000
  0
VERTEX
  8
20
 10
20.6000
 20
4.2762
 30
0.0000
  0
VERTEX
  8
20
 10
20.6000
 20
5.2000
 30
0.0000
 42
1.0000
  0
SEQEND
  8
0
  0
POLYLINE
  8
20
 66
1
 10
0.0000
 20
0.0000
 30
0.0000
 40
0.0000
 41
0.0000
 70
1
  0
VERTEX
  8
20
 10
20.0238
 20
3.9286
 30
0.0000
 42
1.0000
  0
VERTEX
  8
20
 10
20.0238
 20
3.7000
 30
0.0000
 42
0.4142
  0
VERTEX
  8
20
 10
20.6000
 20
4.2762
 30
0.0000
 42
1.0000
  0
VERTEX
  8
20
 10
20.3714
 20
4.2762
 30
0.0000
 42
-0.4142
  0
SEQEND
  8
0
  0
POLYLINE
  8
20
 66
1
 10
0.0000
 20
0.0000
 30
0.0000
 40
0.0000
 41
0.0000
 70
1
  0
VERTEX
  8
20
 10
20.0238
 20
3.9286
 30
0.0000
  0
VERTEX
  8
20
 10
19.2540
 20
3.9286
 30
0.0000
 42
1.0000
  0
VERTEX
  8
20
 10
19.2540
 20
3.7000
 30
0.0000
  0
VERTEX
  8
20
 10
20.0238
 20
3.7000
 30
0.0000
 42
1.0000
  0
SEQEND
  8
0
  0
POLYLINE
  8
20
 66
1
 10
0.0000
 20
0.0000
 30
0.0000
 40
0.0000
 41
0.0000
 70
1
  0
VERTEX
  8
20
 10
22.5312
 20
3.9286
 30
0.0000
  0
VERTEX
  8
20
 10
21.7614
 20
3.9286
 30
0.0000
 42
1.0000
  0
VERTEX
  8
20
 10
21.7614
 20
3.7000
 30
0.0000
  0
VERTEX
  8
20
 10
22.5312
 20
3.7000
 30
0.0000
 42
1.0000
  0
SEQEND
  8
0
  0
POLYLINE
  8
20
 66
1
 10
0.0000
 20
0.0000
 30
0.0000
 40
0.0000
 41
0.0000
 70
1
  0
VERTEX
  8
20
 10
21.4138
 20
4.2762
 30
0.0000
 42
1.0000
  0
VERTEX
  8
20
 10
21.1852
 20
4.2762
 30
0.0000
 42
0.4142
  0
VERTEX
  8
20
 10
21.7614
 20
3.7000
 30
0.0000
 42
1.0000
  0
VERTEX
  8
20
 10
21.7614
 20
3.9286
 30
0.0000
 42
-0.4142
  0
SEQEND
  8
0
  0
POLYLINE
  8
20
 66
1
 10
0.0000
 20
0.0000
 30
0.0000
 40
0.0000
 41
0.0000
 70
1
  0
VERTEX
  8
20
 10
21.4138
 20
4.2762
 30
0.0000
  0
VERTEX
  8
20
 10
21.4138
 20
5.0460
 30
0.0000
 42
1.0000
  0
VERTEX
  8
20
 10
21.1852
 20
5.0460
 30
0.0000
  0
VERTEX
  8
20
 10
21.1852
 20
4.2762
 30
0.0000
 42
1.0000
  0
SEQEND
  8
0
  0
POLYLINE
  8
20
 66
1
 10
0.0000
 20
0.0000
 30
0.0000
 40
0.0000
 41
0.0000
 70
1
  0
VERTEX
  8
20
 10
22.4169
 20
5.0460
 30
0.0000
 42
1.0000
  0
VERTEX
  8
20
 10
22.6455
 20
5.0460
 30
0.0000
 42
1.0000
  0
VERTEX
  8
20
 10
21.1852
 20
5.0460
 30
0.0000
 42
1.0000
  0
VERTEX
  8
20
 10
21.4138
 20
5.0460
 30
0.0000
 42
-1.0000
  0
SEQEND
  8
0
  0
POLYLINE
  8
20
 66
1
 10
0.0000
 20
0.0000
 30
0.0000
 40
0.0000
 41
0.0000
 70
1
  0
VERTEX
  8
20
 10
22.4169
 20
5.0460
 30
0.0000
  0
VERTEX
  8
20
 10
22.4169
 20
4.7381
 30
0.0000
 42
1.0000
  0
VERTEX
  8
20
 10
22.6455
 20
4.7381
 30
0.0000
  0
VERTEX
  8
20
 10
22.6455
 20
5.0460
 30
0.0000
 42
1.0000
  0
SEQEND
  8
0
  0
POLYLINE
  8
20
 66
1
 10
0.0000
 20
0.0000
 30
0.0000
 40
0.0000
 41
0.0000
 70
1
  0
VERTEX
  8
20
 10
22.5312
 20
4.8524
 30
0.0000
  0
VERTEX
  8
20
 10
21.2995
 20
4.8524
 30
0.0000
 42
1.0000
  0
VERTEX
  8
20
 10
21.2995
 20
4.6238
 30
0.0000
  0
VERTEX
  8
20
 10
22.5312
 20
4.6238
 30
0.0000
 42
1.0000
  0
SEQEND
  8
0
  0
POLYLINE
  8
20
 66
1
 10
0.0000
 20
0.0000
 30
0.0000
 40
0.0000
 41
0.0000
 70
1
  0
VERTEX
  8
20
 10
23.5401
 20
3.8143
 30
0.0000
  0
VERTEX
  8
20
 10
23.5401
 20
5.6619
 30
0.0000
 42
1.0000
  0
VERTEX
  8
20
 10
23.3115
 20
5.6619
 30
0.0000
  0
VERTEX
  8
20
 10
23.3115
 20
3.8143
 30
0.0000
 42
1.0000
  0
SEQEND
  8
0
  0
POLYLINE
  8
20
 66
1
 10
0.0000
 20
0.0000
 30
0.0000
 40
0.0000
 41
0.0000
 70
1
  0
VERTEX
  8
20
 10
23.4258
 20
5.5476
 30
0.0000
  0
VERTEX
  8
20
 10
24.1956
 20
5.5476
 30
0.0000
 42
1.0000
  0
VERTEX
  8
20
 10
24.1956
 20
5.7762
 30
0.0000
  0
VERTEX
  8
20
 10
23.4258
 20
5.7762
 30
0.0000
 42
1.0000
  0
SEQEND
  8
0
  0
POLYLINE
  8
20
 66
1
 10
0.0000
 20
0.0000
 30
0.0000
 40
0.0000
 41
0.0000
 70
1
  0
VERTEX
  8
20
 10
24.5432
 20
5.2000
 30
0.0000
 42
1.0000
  0
VERTEX
  8
20
 10
24.7718
 20
5.2000
 30
0.0000
 42
0.4142
  0
VERTEX
  8
20
 10
24.1956
 20
5.7762
 30
0.0000
 42
1.0000
  0
VERTEX
  8
20
 10
24.1956
 20
5.5476
 30
0.0000
 42
-0.4142
  0
SEQEND
  8
0
  0
POLYLINE
  8
20
 66
1
 10
0.0000
 20
0.0000
 30
0.0000
 40
0.0000
 41
0.0000
 70
1
  0
VERTEX
  8
20
 10
24.5432
 20
5.2000
 30
0.0000
  0
VERTEX
  8
20
 10
24.5432
 20
3.8143
 30
0.0000
 42
1.0000
  0
VERTEX
  8
20
 10
24.7718
 20
3.8143
 30
0.0000
  0
VERTEX
  8
20
 10
24.7718
 20
5.2000
 30
0.0000
 42
1.0000
  0
SEQEND
  8
0
  0
POLYLINE
  8
20
 66
1
 10
0.0000
 20
0.0000
 30
0.0000
 40
0.0000
 41
0.0000
 70
1
  0
VERTEX
  8
20
 10
54.9286
 20
3.8143
 30
0.0000
  0
VERTEX
  8
20
 10
54.9286
 20
3.9683
 30
0.0000
 42
1.0000
  0
VERTEX
  8
20
 10
54.7000
 20
3.9683
 30
0.0000
  0
VERTEX
  8
20
 10
54.7000
 20
3.8143
 30
0.0000
 42
1.0000
  0
SEQEND
  8
0
  0
POLYLINE
  8
20
 66
1
 10
0.0000
 20
0.0000
 30
0.0000
 40
0.0000
 41
0.0000
 70
1
  0
VERTEX
  8
20
 10
54.8143
 20
3.8540
 30
0.0000
  0
VERTEX
  8
20
 10
54.9683
 20
3.8540
 30
0.0000
 42
1.0000
  0
VERTEX
  8
20
 10
54.9683
 20
4.0826
 30
0.0000
  0
VERTEX
  8
20
 10
54.8143
 20
4.0826
 30
0.0000
 42
1.0000
  0
SEQEND
  8
0
  0
POLYLINE
  8
20
 66
1
 10
0.0000
 20
0.0000
 30
0.0000
 40
0.0000
 41
0.0000
 70
1
  0
VERTEX
  8
20
 10
54.8540
 20
3.9683
 30
0.0000
  0
VERTEX
  8
20
 10
54.8540
 20
3.8143
 30
0.0000
 42
1.0000
  0
VERTEX
  8
20
 10
55.0826
 20
3.8143
 30
0.0000
  0
VERTEX
  8
20
 10
55.0826
 20
3.9683
 30
0.0000
 42
1.0000
  0
SEQEND
  8
0
  0
POLYLINE
  8
20
 66
1
 10
0.0000
 20
0.0000
 30
0.0000
 40
0.0000
 41
0.0000
 70
1
  0
VERTEX
  8
20
 10
54.9683
 20
3.9286
 30
0.0000
  0
VERTEX
  8
20
 10
54.8143
 20
3.9286
 30
0.0000
 42
1.0000
  0
VERTEX
  8
20
 10
54.8143
 20
3.7000
 30
0.0000
  0
VERTEX
  8
20
 10
54.9683
 20
3.7000
 30
0.0000
 42
1.0000
  0
SEQEND
  8
0
  0
POLYLINE
  8
20
 66
1
 10
0.0000
 20
0.0000
 30
0.0000
 40
0.0000
 41
0.0000
 70
1
  0
VERTEX
  8
20
 10
55.8860
 20
4.4302
 30
0.0000
  0
VERTEX
  8
20
 10
55.8860
 20
5.0460
 30
0.0000
 42
1.0000
  0
VERTEX
  8
20
 10
55.6574
 20
5.0460
 30
0.0000
  0
VERTEX
  8
20
 10
55.6574
 20
4.4302
 30
0.0000
 42
1.0000
  0
SEQEND
  8
0
  0
POLYLINE
  8
20
 66
1
 10
0.0000
 20
0.0000
 30
0.0000
 40
0.0000
 41
0.0000
 70
1
  0
VERTEX
  8
20
 10
56.8891
 20
5.0460
 30
0.0000
 42
1.0000
  0
VERTEX
  8
20
 10
57.1177
 20
5.0460
 30
0.0000
 42
1.0000
  0
VERTEX
  8
20
 10
55.6574
 20
5.0460
 30
0.0000
 42
1.0000
  0
VERTEX
  8
20
 10
55.8860
 20
5.0460
 30
0.0000
 42
-1.0000
  0
SEQEND
  8
0
  0
POLYLINE
  8
20
 66
1
 10
0.0000
 20
0.0000
 30
0.0000
 40
0.0000
 41
0.0000
 70
1
  0
VERTEX
  8
20
 10
56.8891
 20
5.0460
 30
0.0000
  0
VERTEX
  8
20
 10
56.8891
 20
4.4302
 30
0.0000
 42
1.0000
  0
VERTEX
  8
20
 10
57.1177
 20
4.4302
 30
0.0000
  0
VERTEX
  8
20
 10
57.1177
 20
5.0460
 30
0.0000
 42
1.0000
  0
SEQEND
  8
0
  0
POLYLINE
  8
20
 66
1
 10
0.0000
 20
0.0000
 30
0.0000
 40
0.0000
 41
0.0000
 70
1
  0
VERTEX
  8
20
 10
55.8860
 20
4.4302
 30
0.0000
 42
1.0000
  0
VERTEX
  8
20
 10
55.6574
 20
4.4302
 30
0.0000
 42
1.0000
  0
VERTEX
  8
20
 10
57.1177
 20
4.4302
 30
0.0000
 42
1.0000
  0
VERTEX
  8
20
 10
56.8891
 20
4.4302
 30
0.0000
 42
-1.0000
  0
SEQEND
  8
0
  0
POLYLINE
  8
20
 66
1
 10
0.0000
 20
0.0000
 30
0.0000
 40
0.0000
 41
0.0000
 70
1
  0
VERTEX
  8
20
 10
58.0148
 20
3.8143
 30
0.0000
  0
VERTEX
  8
20
 10
58.0148
 20
5.6619
 30
0.0000
 42
1.0000
  0
VERTEX
  8
20
 10
57.7862
 20
5.6619
 30
0.0000
  0
VERTEX
  8
20
 10
57.7862
 20
3.8143
 30
0.0000
 42
1.0000
  0
SEQEND
  8
0
  0
POLYLINE
  8
20
 66
1
 10
0.0000
 20
0.0000
 30
0.0000
 40
0.0000
 41
0.0000
 70
1
  0
VERTEX
  8
20
 10
57.9005
 20
5.5476
 30
0.0000
  0
VERTEX
  8
20
 10
58.8243
 20
5.5476
 30
0.0000
 42
1.0000
  0
VERTEX
  8
20
 10
58.8243
 20
5.7762
 30
0.0000
  0
VERTEX
  8
20
 10
57.9005
 20
5.7762
 30
0.0000
 42
1.0000
  0
SEQEND
  8
0
  0
POLYLINE
  8
20
 66
1
 10
0.0000
 20
0.0000
 30
0.0000
 40
0.0000
 41
0.0000
 70
1
  0
VERTEX
  8
20
 10
58.7100
 20
5.6619
 30
0.0000
  0
VERTEX
  8
20
 10
58.7100
 20
5.3540
 30
0.0000
 42
1.0000
  0
VERTEX
  8
20
 10
58.9386
 20
5.3540
 30
0.0000
  0
VERTEX
  8
20
 10
58.9386
 20
5.6619
 30
0.0000
 42
1.0000
  0
SEQEND
  8
0
  0
POLYLINE
  8
20
 66
1
 10
0.0000
 20
0.0000
 30
0.0000
 40
0.0000
 41
0.0000
 70
1
  0
VERTEX
  8
20
 10
60.7027
 20
3.9286
 30
0.0000
  0
VERTEX
  8
20
 10
59.9328
 20
3.9286
 30
0.0000
 42
1.0000
  0
VERTEX
  8
20
 10
59.9328
 20
3.7000
 30
0.0000
  0
VERTEX
  8
20
 10
60.7027
 20
3.7000
 30
0.0000
 42
1.0000
  0
SEQEND
  8
0
  0
POLYLINE
  8
20
 66
1
 10
0.0000
 20
0.0000
 30
0.0000
 40
0.0000
 41
0.0000
 70
1
  0
VERTEX
  8
20
 10
59.5852
 20
4.2762
 30
0.0000
 42
1.0000
  0
VERTEX
  8
20
 10
59.3566
 20
4.2762
 30
0.0000
 42
0.4142
  0
VERTEX
  8
20
 10
59.9328
 20
3.7000
 30
0.0000
 42
1.0000
  0
VERTEX
  8
20
 10
59.9328
 20
3.9286
 30
0.0000
 42
-0.4142
  0
SEQEND
  8
0
  0
POLYLINE
  8
20
 66
1
 10
0.0000
 20
0.0000
 30
0.0000
 40
0.0000
 41
0.0000
 70
1
  0
VERTEX
  8
20
 10
59.5852
 20
4.2762
 30
0.0000
  0
VERTEX
  8
20
 10
59.5852
 20
5.2000
 30
0.0000
 42
1.0000
  0
VERTEX
  8
20
 10
59.3566
 20
5.2000
 30
0.0000
  0
VERTEX
  8
20
 10
59.3566
 20
4.2762
 30
0.0000
 42
1.0000
  0
SEQEND
  8
0
  0
POLYLINE
  8
20
 66
1
 10
0.0000
 20
0.0000
 30
0.0000
 40
0.0000
 41
0.0000
 70
1
  0
VERTEX
  8
20
 10
59.9328
 20
5.5476
 30
0.0000
 42
1.0000
  0
VERTEX
  8
20
 10
59.9328
 20
5.7762
 30
0.0000
 42
0.4142
  0
VERTEX
  8
20
 10
59.3566
 20
5.2000
 30
0.0000
 42
1.0000
  0
VERTEX
  8
20
 10
59.5852
 20
5.2000
 30
0.0000
 42
-0.4142
  0
SEQEND
  8
0
  0
POLYLINE
  8
20
 66
1
 10
0.0000
 20
0.0000
 30
0.0000
 40
0.0000
 41
0.0000
 70
1
  0
VERTEX
  8
20
 10
59.9328
 20
5.5476
 30
0.0000
  0
VERTEX
  8
20
 10
60.7027
 20
5.5476
 30
0.0000
 42
1.0000
  0
VERTEX
  8
20
 10
60.7027
 20
5.7762
 30
0.0000
  0
VERTEX
  8
20
 10
59.9328
 20
5.7762
 30
0.0000
 42
1.0000
  0
SEQEND
  8
0
  0
POLYLINE
  8
20
 66
1
 10
0.0000
 20
0.0000
 30
0.0000
 40
0.0000
 41
0.0000
 70
1
  0
VERTEX
  8
20
 10
60.5884
 20
5.6619
 30
0.0000
  0
VERTEX
  8
20
 10
60.5884
 20
3.3524
 30
0.0000
 42
1.0000
  0
VERTEX
  8
20
 10
60.8170
 20
3.3524
 30
0.0000
  0
VERTEX
  8
20
 10
60.8170
 20
5.6619
 30
0.0000
 42
1.0000
  0
SEQEND
  8
0
  0
POLYLINE
  8
20
 66
1
 10
0.0000
 20
0.0000
 30
0.0000
 40
0.0000
 41
0.0000
 70
1
  0
VERTEX
  8
20
 10
60.2408
 20
3.0048
 30
0.0000
 42
1.0000
  0
VERTEX
  8
20
 10
60.2408
 20
2.7762
 30
0.0000
 42
0.4142
  0
VERTEX
  8
20
 10
60.8170
 20
3.3524
 30
0.0000
 42
1.0000
  0
VERTEX
  8
20
 10
60.5884
 20
3.3524
 30
0.0000
 42
-0.4142
  0
SEQEND
  8
0
  0
POLYLINE
  8
20
 66
1
 10
0.0000
 20
0.0000
 30
0.0000
 40
0.0000
 41
0.0000
 70
1
  0
VERTEX
  8
20
 10
60.2408
 20
3.0048
 30
0.0000
  0
VERTEX
  8
20
 10
59.6249
 20
3.0048
 30
0.0000
 42
1.0000
  0
VERTEX
  8
20
 10
59.6249
 20
2.7762
 30
0.0000
  0
VERTEX
  8
20
 10
60.2408
 20
2.7762
 30
0.0000
 42
1.0000
  0
SEQEND
  8
0
  0
POLYLINE
  8
20
 66
1
 10
0.0000
 20
0.0000
 30
0.0000
 40
0.0000
 41
0.0000
 70
1
  0
VERTEX
  8
20
 10
23.7568
 20
36.6332
 30
0.0000
  0
VERTEX
  8
20
 10
23.2375
 20
36.6332
 30
0.0000
 42
1.0000
  0
VERTEX
  8
20
 10
23.2375
 20
36.4300
 30
0.0000
  0
VERTEX
  8
20
 10
23.7568
 20
36.4300
 30
0.0000
 42
1.0000
  0
SEQEND
  8
0
  0
POLYLINE
  8
20
 66
1
 10
0.0000
 20
0.0000
 30
0.0000
 40
0.0000
 41
0.0000
 70
1
  0
VERTEX
  8
20
 10
22.8199
 20
37.0509
 30
0.0000
 42
1.0000
  0
VERTEX
  8
20
 10
22.6166
 20
37.0509
 30
0.0000
 42
0.4142
  0
VERTEX
  8
20
 10
23.2375
 20
36.4300
 30
0.0000
 42
1.0000
  0
VERTEX
  8
20
 10
23.2375
 20
36.6332
 30
0.0000
 42
-0.4142
  0
SEQEND
  8
0
  0
POLYLINE
  8
20
 66
1
 10
0.0000
 20
0.0000
 30
0.0000
 40
0.0000
 41
0.0000
 70
1
  0
VERTEX
  8
20
 10
22.8199
 20
37.0509
 30
0.0000
  0
VERTEX
  8
20
 10
22.8199
 20
38.3491
 30
0.0000
 42
1.0000
  0
VERTEX
  8
20
 10
22.6166
 20
38.3491
 30
0.0000
  0
VERTEX
  8
20
 10
22.6166
 20
37.0509
 30
0.0000
 42
1.0000
  0
SEQEND
  8
0
  0
POLYLINE
  8
20
 66
1
 10
0.0000
 20
0.0000
 30
0.0000
 40
0.0000
 41
0.0000
 70
1
  0
VERTEX
  8
20
 10
23.2375
 20
38.7668
 30
0.0000
 42
1.0000
  0
VERTEX
  8
20
 10
23.2375
 20
38.9700
 30
0.0000
 42
0.4142
  0
VERTEX
  8
20
 10
22.6166
 20
38.3491
 30
0.0000
 42
1.0000
  0
VERTEX
  8
20
 10
22.8199
 20
38.3491
 30
0.0000
 42
-0.4142
  0
SEQEND
  8
0
  0
POLYLINE
  8
20
 66
1
 10
0.0000
 20
0.0000
 30
0.0000
 40
0.0000
 41
0.0000
 70
1
  0
VERTEX
  8
20
 10
23.2375
 20
38.7668
 30
0.0000
  0
VERTEX
  8
20
 10
23.7568
 20
38.7668
 30
0.0000
 42
1.0000
  0
VERTEX
  8
20
 10
23.7568
 20
38.9700
 30
0.0000
  0
VERTEX
  8
20
 10
23.2375
 20
38.9700
 30
0.0000
 42
1.0000
  0
SEQEND
  8
0
  0
POLYLINE
  8
20
 66
1
 10
0.0000
 20
0.0000
 30
0.0000
 40
0.0000
 41
0.0000
 70
1
  0
VERTEX
  8
20
 10
25.0720
 20
36.5316
 30
0.0000
  0
VERTEX
  8
20
 10
25.0720
 20
38.8684
 30
0.0000
 42
1.0000
  0
VERTEX
  8
20
 10
24.8688
 20
38.8684
 30
0.0000
  0
VERTEX
  8
20
 10
24.8688
 20
36.5316
 30
0.0000
 42
1.0000
  0
SEQEND
  8
0
  0
POLYLINE
  8
20
 66
1
 10
0.0000
 20
0.0000
 30
0.0000
 40
0.0000
 41
0.0000
 70
1
  0
VERTEX
  8
20
 10
24.3213
 20
38.7668
 30
0.0000
  0
VERTEX
  8
20
 10
25.6195
 20
38.7668
 30
0.0000
 42
1.0000
  0
VERTEX
  8
20
 10
25.6195
 20
38.9700
 30
0.0000
  0
VERTEX
  8
20
 10
24.3213
 20
38.9700
 30
0.0000
 42
1.0000
  0
SEQEND
  8
0
  0
POLYLINE
  8
20
 66
1
 10
0.0000
 20
0.0000
 30
0.0000
 40
0.0000
 41
0.0000
 70
1
  0
VERTEX
  8
20
 10
28.5802
 20
38.2842
 30
0.0000
 42
1.0000
  0
VERTEX
  8
20
 10
28.7834
 20
38.2842
 30
0.0000
 42
0.4142
  0
VERTEX
  8
20
 10
28.0976
 20
38.9700
 30
0.0000
 42
1.0000
  0
VERTEX
  8
20
 10
28.0976
 20
38.7668
 30
0.0000
 42
-0.4142
  0
SEQEND
  8
0
  0
POLYLINE
  8
20
 66
1
 10
0.0000
 20
0.0000
 30
0.0000
 40
0.0000
 41
0.0000
 70
1
  0
VERTEX
  8
20
 10
28.0976
 20
38.7668
 30
0.0000
 42
1.0000
  0
VERTEX
  8
20
 10
28.0976
 20
38.9700
 30
0.0000
 42
0.3252
  0
VERTEX
  8
20
 10
27.2869
 20
38.3804
 30
0.0000
 42
1.0000
  0
VERTEX
  8
20
 10
27.4802
 20
38.3178
 30
0.0000
 42
-0.3252
  0
SEQEND
  8
0
  0
POLYLINE
  8
20
 66
1
 10
0.0000
 20
0.0000
 30
0.0000
 40
0.0000
 41
0.0000
 70
1
  0
VERTEX
  8
20
 10
28.4169
 20
37.9034
 30
0.0000
 42
1.0000
  0
VERTEX
  8
20
 10
28.5571
 20
37.7562
 30
0.0000
 42
0.2053
  0
VERTEX
  8
20
 10
28.7834
 20
38.2842
 30
0.0000
 42
1.0000
  0
VERTEX
  8
20
 10
28.5802
 20
38.2842
 30
0.0000
 42
-0.2053
  0
SEQEND
  8
0
  0
POLYLINE
  8
20
 66
1
 10
0.0000
 20
0.0000
 30
0.0000
 40
0.0000
 41
0.0000
 70
1
  0
VERTEX
  8
20
 10
28.4096
 20
37.8956
 30
0.0000
  0
VERTEX
  8
20
 10
27.3061
 20
36.5974
 30
0.0000
 42
1.0000
  0
VERTEX
  8
20
 10
27.4609
 20
36.4658
 30
0.0000
  0
VERTEX
  8
20
 10
28.5644
 20
37.7640
 30
0.0000
 42
1.0000
  0
SEQEND
  8
0
  0
POLYLINE
  8
20
 66
1
 10
0.0000
 20
0.0000
 30
0.0000
 40
0.0000
 41
0.0000
 70
1
  0
VERTEX
  8
20
 10
27.3835
 20
36.4300
 30
0.0000
  0
VERTEX
  8
20
 10
28.6818
 20
36.4300
 30
0.0000
 42
1.0000
  0
VERTEX
  8
20
 10
28.6818
 20
36.6332
 30
0.0000
  0
VERTEX
  8
20
 10
27.3835
 20
36.6332
 30
0.0000
 42
1.0000
  0
SEQEND
  8
0
  0
POLYLINE
  8
20
 66
1
 10
0.0000
 20
0.0000
 30
0.0000
 40
0.0000
 41
0.0000
 70
1
  0
VERTEX
  8
20
 10
36.7568
 20
36.6332
 30
0.0000
  0
VERTEX
  8
20
 10
36.2375
 20
36.6332
 30
0.0000
 42
1.0000
  0
VERTEX
  8
20
 10
36.2375
 20
36.4300
 30
0.0000
  0
VERTEX
  8
20
 10
36.7568
 20
36.4300
 30
0.0000
 42
1.0000
  0
SEQEND
  8
0
  0
POLYLINE
  8
20
 66
1
 10
0.0000
 20
0.0000
 30
0.0000
 40
0.0000
 41
0.0000
 70
1
  0
VERTEX
  8
20
 10
35.8199
 20
37.0509
 30
0.0000
 42
1.0000
  0
VERTEX
  8
20
 10
35.6167
 20
37.0509
 30
0.0000
 42
0.4142
  0
VERTEX
  8
20
 10
36.2375
 20
36.4300
 30
0.0000
 42
1.0000
  0
VERTEX
  8
20
 10
36.2375
 20
36.6332
 30
0.0000
 42
-0.4142
  0
SEQEND
  8
0
  0
POLYLINE
  8
20
 66
1
 10
0.0000
 20
0.0000
 30
0.0000
 40
0.0000
 41
0.0000
 70
1
  0
VERTEX
  8
20
 10
35.8199
 20
37.0509
 30
0.0000
  0
VERTEX
  8
20
 10
35.8199
 20
38.3491
 30
0.0000
 42
1.0000
  0
VERTEX
  8
20
 10
35.6167
 20
38.3491
 30
0.0000
  0
VERTEX
  8
20
 10
35.6167
 20
37.0509
 30
0.0000
 42
1.0000
  0
SEQEND
  8
0
  0
POLYLINE
  8
20
 66
1
 10
0.0000
 20
0.0000
 30
0.0000
 40
0.0000
 41
0.0000
 70
1
  0
VERTEX
  8
20
 10
36.2375
 20
38.7668
 30
0.0000
 42
1.0000
  0
VERTEX
  8
20
 10
36.2375
 20
38.9700
 30
0.0000
 42
0.4142
  0
VERTEX
  8
20
 10
35.6167
 20
38.3491
 30
0.0000
 42
1.0000
  0
VERTEX
  8
20
 10
35.8199
 20
38.3491
 30
0.0000
 42
-0.4142
  0
SEQEND
  8
0
  0
POLYLINE
  8
20
 66
1
 10
0.0000
 20
0.0000
 30
0.0000
 40
0.0000
 41
0.0000
 70
1
  0
VERTEX
  8
20
 10
36.2375
 20
38.7668
 30
0.0000
  0
VERTEX
  8
20
 10
36.7568
 20
38.7668
 30
0.0000
 42
1.0000
  0
VERTEX
  8
20
 10
36.7568
 20
38.9700
 30
0.0000
  0
VERTEX
  8
20
 10
36.2375
 20
38.9700
 30
0.0000
 42
1.0000
  0
SEQEND
  8
0
  0
POLYLINE
  8
20
 66
1
 10
0.0000
 20
0.0000
 30
0.0000
 40
0.0000
 41
0.0000
 70
1
  0
VERTEX
  8
20
 10
38.0720
 20
36.5316
 30
0.0000
  0
VERTEX
  8
20
 10
38.0720
 20
38.8684
 30
0.0000
 42
1.0000
  0
VERTEX
  8
20
 10
37.8688
 20
38.8684
 30
0.0000
  0
VERTEX
  8
20
 10
37.8688
 20
36.5316
 30
0.0000
 42
1.0000
  0
SEQEND
  8
0
  0
POLYLINE
  8
20
 66
1
 10
0.0000
 20
0.0000
 30
0.0000
 40
0.0000
 41
0.0000
 70
1
  0
VERTEX
  8
20
 10
37.3213
 20
38.7668
 30
0.0000
  0
VERTEX
  8
20
 10
38.6195
 20
38.7668
 30
0.0000
 42
1.0000
  0
VERTEX
  8
20
 10
38.6195
 20
38.9700
 30
0.0000
  0
VERTEX
  8
20
 10
37.3213
 20
38.9700
 30
0.0000
 42
1.0000
  0
SEQEND
  8
0
  0
POLYLINE
  8
20
 66
1
 10
0.0000
 20
0.0000
 30
0.0000
 40
0.0000
 41
0.0000
 70
1
  0
VERTEX
  8
20
 10
40.3835
 20
36.4300
 30
0.0000
  0
VERTEX
  8
20
 10
41.0326
 20
36.4300
 30
0.0000
 42
1.0000
  0
VERTEX
  8
20
 10
41.0326
 20
36.6332
 30
0.0000
  0
VERTEX
  8
20
 10
40.3835
 20
36.6332
 30
0.0000
 42
1.0000
  0
SEQEND
  8
0
  0
POLYLINE
  8
20
 66
1
 10
0.0000
 20
0.0000
 30
0.0000
 40
0.0000
 41
0.0000
 70
1
  0
VERTEX
  8
20
 10
41.0326
 20
36.6332
 30
0.0000
 42
1.0000
  0
VERTEX
  8
20
 10
41.0326
 20
36.4300
 30
0.0000
 42
1.0000
  0
VERTEX
  8
20
 10
41.0326
 20
37.9314
 30
0.0000
 42
1.0000
  0
VERTEX
  8
20
 10
41.0326
 20
37.7282
 30
0.0000
 42
-1.0000
  0
SEQEND
  8
0
  0
POLYLINE
  8
20
 66
1
 10
0.0000
 20
0.0000
 30
0.0000
 40
0.0000
 41
0.0000
 70
1
  0
VERTEX
  8
20
 10
40.3835
 20
38.7668
 30
0.0000
  0
VERTEX
  8
20
 10
41.1625
 20
38.7668
 30
0.0000
 42
1.0000
  0
VERTEX
  8
20
 10
41.1625
 20
38.9700
 30
0.0000
  0
VERTEX
  8
20
 10
40.3835
 20
38.9700
 30
0.0000
 42
1.0000
  0
SEQEND
  8
0
  0
POLYLINE
  8
20
 66
1
 10
0.0000
 20
0.0000
 30
0.0000
 40
0.0000
 41
0.0000
 70
1
  0
VERTEX
  8
20
 10
41.1625
 20
37.9314
 30
0.0000
 42
1.0000
  0
VERTEX
  8
20
 10
41.1625
 20
37.7282
 30
0.0000
 42
1.0000
  0
VERTEX
  8
20
 10
41.1625
 20
38.9700
 30
0.0000
 42
1.0000
  0
VERTEX
  8
20
 10
41.1625
 20
38.7668
 30
0.0000
 42
-1.0000
  0
SEQEND
  8
0
  0
POLYLINE
  8
20
 66
1
 10
0.0000
 20
0.0000
 30
0.0000
 40
0.0000
 41
0.0000
 70
1
  0
VERTEX
  8
20
 10
41.1625
 20
37.9314
 30
0.0000
  0
VERTEX
  8
20
 10
40.6432
 20
37.9314
 30
0.0000
 42
1.0000
  0
VERTEX
  8
20
 10
40.6432
 20
37.7282
 30
0.0000
  0
VERTEX
  8
20
 10
41.1625
 20
37.7282
 30
0.0000
 42
1.0000
  0
SEQEND
  8
0
  0
POLYLINE
  8
20
 66
1
 10
0.0000
 20
0.0000
 30
0.0000
 40
0.0000
 41
0.0000
 70
1
  0
VERTEX
  8
20
 10
50.7568
 20
36.6332
 30
0.0000
  0
VERTEX
  8
20
 10
50.2375
 20
36.6332
 30
0.0000
 42
1.0000
  0
VERTEX
  8
20
 10
50.2375
 20
36.4300
 30
0.0000
  0
VERTEX
  8
20
 10
50.7568
 20
36.4300
 30
0.0000
 42
1.0000
  0
SEQEND
  8
0
  0
POLYLINE
  8
20
 66
1
 10
0.0000
 20
0.0000
 30
0.0000
 40
0.0000
 41
0.0000
 70
1
  0
VERTEX
  8
20
 10
49.8199
 20
37.0509
 30
0.0000
 42
1.0000
  0
VERTEX
  8
20
 10
49.6167
 20
37.0509
 30
0.0000
 42
0.4142
  0
VERTEX
  8
20
 10
50.2375
 20
36.4300
 30
0.0000
 42
1.0000
  0
VERTEX
  8
20
 10
50.2375
 20
36.6332
 30
0.0000
 42
-0.4142
  0
SEQEND
  8
0
  0
POLYLINE
  8
20
 66
1
 10
0.0000
 20
0.0000
 30
0.0000
 40
0.0000
 41
0.0000
 70
1
  0
VERTEX
  8
20
 10
49.8199
 20
37.0509
 30
0.0000
  0
VERTEX
  8
20
 10
49.8199
 20
38.3491
 30
0.0000
 42
1.0000
  0
VERTEX
  8
20
 10
49.6167
 20
38.3491
 30
0.0000
  0
VERTEX
  8
20
 10
49.6167
 20
37.0509
 30
0.0000
 42
1.0000
  0
SEQEND
  8
0
  0
POLYLINE
  8
20
 66
1
 10
0.0000
 20
0.0000
 30
0.0000
 40
0.0000
 41
0.0000
 70
1
  0
VERTEX
  8
20
 10
50.2375
 20
38.7668
 30
0.0000
 42
1.0000
  0
VERTEX
  8
20
 10
50.2375
 20
38.9700
 30
0.0000
 42
0.4142
  0
VERTEX
  8
20
 10
49.6167
 20
38.3491
 30
0.0000
 42
1.0000
  0
VERTEX
  8
20
 10
49.8199
 20
38.3491
 30
0.0000
 42
-0.4142
  0
SEQEND
  8
0
  0
POLYLINE
  8
20
 66
1
 10
0.0000
 20
0.0000
 30
0.0000
 40
0.0000
 41
0.0000
 70
1
  0
VERTEX
  8
20
 10
50.2375
 20
38.7668
 30
0.0000
  0
VERTEX
  8
20
 10
50.7568
 20
38.7668
 30
0.0000
 42
1.0000
  0
VERTEX
  8
20
 10
50.7568
 20
38.9700
 30
0.0000
  0
VERTEX
  8
20
 10
50.2375
 20
38.9700
 30
0.0000
 42
1.0000
  0
SEQEND
  8
0
  0
POLYLINE
  8
20
 66
1
 10
0.0000
 20
0.0000
 30
0.0000
 40
0.0000
 41
0.0000
 70
1
  0
VERTEX
  8
20
 10
52.0720
 20
36.5316
 30
0.0000
  0
VERTEX
  8
20
 10
52.0720
 20
38.8684
 30
0.0000
 42
1.0000
  0
VERTEX
  8
20
 10
51.8688
 20
38.8684
 30
0.0000
  0
VERTEX
  8
20
 10
51.8688
 20
36.5316
 30
0.0000
 42
1.0000
  0
SEQEND
  8
0
  0
POLYLINE
  8
20
 66
1
 10
0.0000
 20
0.0000
 30
0.0000
 40
0.0000
 41
0.0000
 70
1
  0
VERTEX
  8
20
 10
51.3213
 20
38.7668
 30
0.0000
  0
VERTEX
  8
20
 10
52.6195
 20
38.7668
 30
0.0000
 42
1.0000
  0
VERTEX
  8
20
 10
52.6195
 20
38.9700
 30
0.0000
  0
VERTEX
  8
20
 10
51.3213
 20
38.9700
 30
0.0000
 42
1.0000
  0
SEQEND
  8
0
  0
POLYLINE
  8
20
 66
1
 10
0.0000
 20
0.0000
 30
0.0000
 40
0.0000
 41
0.0000
 70
1
  0
VERTEX
  8
20
 10
54.8051
 20
38.8963
 30
0.0000
  0
VERTEX
  8
20
 10
54.2858
 20
37.0788
 30
0.0000
 42
1.0000
  0
VERTEX
  8
20
 10
54.4812
 20
37.0230
 30
0.0000
  0
VERTEX
  8
20
 10
55.0005
 20
38.8405
 30
0.0000
 42
1.0000
  0
SEQEND
  8
0
  0
POLYLINE
  8
20
 66
1
 10
0.0000
 20
0.0000
 30
0.0000
 40
0.0000
 41
0.0000
 70
1
  0
VERTEX
  8
20
 10
54.3835
 20
36.9493
 30
0.0000
  0
VERTEX
  8
20
 10
55.6818
 20
36.9493
 30
0.0000
 42
1.0000
  0
VERTEX
  8
20
 10
55.6818
 20
37.1525
 30
0.0000
  0
VERTEX
  8
20
 10
54.3835
 20
37.1525
 30
0.0000
 42
1.0000
  0
SEQEND
  8
0
  0
POLYLINE
  8
20
 66
1
 10
0.0000
 20
0.0000
 30
0.0000
 40
0.0000
 41
0.0000
 70
1
  0
VERTEX
  8
20
 10
55.1907
 20
37.5702
 30
0.0000
  0
VERTEX
  8
20
 10
55.1907
 20
36.5316
 30
0.0000
 42
1.0000
  0
VERTEX
  8
20
 10
55.3939
 20
36.5316
 30
0.0000
  0
VERTEX
  8
20
 10
55.3939
 20
37.5702
 30
0.0000
 42
1.0000
  0
SEQEND
  8
0
  0
POLYLINE
  8
20
 66
1
 10
0.0000
 20
0.0000
 30
0.0000
 40
0.0000
 41
0.0000
 70
1
  0
VERTEX
  8
20
 10
63.7568
 20
36.6332
 30
0.0000
  0
VERTEX
  8
20
 10
63.2375
 20
36.6332
 30
0.0000
 42
1.0000
  0
VERTEX
  8
20
 10
63.2375
 20
36.4300
 30
0.0000
  0
VERTEX
  8
20
 10
63.7568
 20
36.4300
 30
0.0000
 42
1.0000
  0
SEQEND
  8
0
  0
POLYLINE
  8
20
 66
1
 10
0.0000
 20
0.0000
 30
0.0000
 40
0.0000
 41
0.0000
 70
1
  0
VERTEX
  8
20
 10
62.8199
 20
37.0509
 30
0.0000
 42
1.0000
  0
VERTEX
  8
20
 10
62.6167
 20
37.0509
 30
0.0000
 42
0.4142
  0
VERTEX
  8
20
 10
63.2375
 20
36.4300
 30
0.0000
 42
1.0000
  0
VERTEX
  8
20
 10
63.2375
 20
36.6332
 30
0.0000
 42
-0.4142
  0
SEQEND
  8
0
  0
POLYLINE
  8
20
 66
1
 10
0.0000
 20
0.0000
 30
0.0000
 40
0.0000
 41
0.0000
 70
1
  0
VERTEX
  8
20
 10
62.8199
 20
37.0509
 30
0.0000
  0
VERTEX
  8
20
 10
62.8199
 20
38.3491
 30
0.0000
 42
1.0000
  0
VERTEX
  8
20
 10
62.6167
 20
38.3491
 30
0.0000
  0
VERTEX
  8
20
 10
62.6167
 20
37.0509
 30
0.0000
 42
1.0000
  0
SEQEND
  8
0
  0
POLYLINE
  8
20
 66
1
 10
0.0000
 20
0.0000
 30
0.0000
 40
0.0000
 41
0.0000
 70
1
  0
VERTEX
  8
20
 10
63.2375
 20
38.7668
 30
0.0000
 42
1.0000
  0
VERTEX
  8
20
 10
63.2375
 20
38.9700
 30
0.0000
 42
0.4142
  0
VERTEX
  8
20
 10
62.6167
 20
38.3491
 30
0.0000
 42
1.0000
  0
VERTEX
  8
20
 10
62.8199
 20
38.3491
 30
0.0000
 42
-0.4142
  0
SEQEND
  8
0
  0
POLYLINE
  8
20
 66
1
 10
0.0000
 20
0.0000
 30
0.0000
 40
0.0000
 41
0.0000
 70
1
  0
VERTEX
  8
20
 10
63.2375
 20
38.7668
 30
0.0000
  0
VERTEX
  8
20
 10
63.7568
 20
38.7668
 30
0.0000
 42
1.0000
  0
VERTEX
  8
20
 10
63.7568
 20
38.9700
 30
0.0000
  0
VERTEX
  8
20
 10
63.2375
 20
38.9700
 30
0.0000
 42
1.0000
  0
SEQEND
  8
0
  0
POLYLINE
  8
20
 66
1
 10
0.0000
 20
0.0000
 30
0.0000
 40
0.0000
 41
0.0000
 70
1
  0
VERTEX
  8
20
 10
65.0720
 20
36.5316
 30
0.0000
  0
VERTEX
  8
20
 10
65.0720
 20
38.8684
 30
0.0000
 42
1.0000
  0
VERTEX
  8
20
 10
64.8688
 20
38.8684
 30
0.0000
  0
VERTEX
  8
20
 10
64.8688
 20
36.5316
 30
0.0000
 42
1.0000
  0
SEQEND
  8
0
  0
POLYLINE
  8
20
 66
1
 10
0.0000
 20
0.0000
 30
0.0000
 40
0.0000
 41
0.0000
 70
1
  0
VERTEX
  8
20
 10
64.3213
 20
38.7668
 30
0.0000
  0
VERTEX
  8
20
 10
65.6195
 20
38.7668
 30
0.0000
 42
1.0000
  0
VERTEX
  8
20
 10
65.6195
 20
38.9700
 30
0.0000
  0
VERTEX
  8
20
 10
64.3213
 20
38.9700
 30
0.0000
 42
1.0000
  0
SEQEND
  8
0
  0
POLYLINE
  8
20
 66
1
 10
0.0000
 20
0.0000
 30
0.0000
 40
0.0000
 41
0.0000
 70
1
  0
VERTEX
  8
20
 10
67.3835
 20
36.4300
 30
0.0000
  0
VERTEX
  8
20
 10
68.1625
 20
36.4300
 30
0.0000
 42
1.0000
  0
VERTEX
  8
20
 10
68.1625
 20
36.6332
 30
0.0000
  0
VERTEX
  8
20
 10
67.3835
 20
36.6332
 30
0.0000
 42
1.0000
  0
SEQEND
  8
0
  0
POLYLINE
  8
20
 66
1
 10
0.0000
 20
0.0000
 30
0.0000
 40
0.0000
 41
0.0000
 70
1
  0
VERTEX
  8
20
 10
68.1625
 20
36.6332
 30
0.0000
 42
1.0000
  0
VERTEX
  8
20
 10
68.1625
 20
36.4300
 30
0.0000
 42
0.4142
  0
VERTEX
  8
20
 10
68.7834
 20
37.0509
 30
0.0000
 42
1.0000
  0
VERTEX
  8
20
 10
68.5802
 20
37.0509
 30
0.0000
 42
-0.4142
  0
SEQEND
  8
0
  0
POLYLINE
  8
20
 66
1
 10
0.0000
 20
0.0000
 30
0.0000
 40
0.0000
 41
0.0000
 70
1
  0
VERTEX
  8
20
 10
68.7834
 20
37.0509
 30
0.0000
  0
VERTEX
  8
20
 10
68.7834
 20
37.3105
 30
0.0000
 42
1.0000
  0
VERTEX
  8
20
 10
68.5802
 20
37.3105
 30
0.0000
  0
VERTEX
  8
20
 10
68.5802
 20
37.0509
 30
0.0000
 42
1.0000
  0
SEQEND
  8
0
  0
POLYLINE
  8
20
 66
1
 10
0.0000
 20
0.0000
 30
0.0000
 40
0.0000
 41
0.0000
 70
1
  0
VERTEX
  8
20
 10
68.5802
 20
37.3105
 30
0.0000
 42
1.0000
  0
VERTEX
  8
20
 10
68.7834
 20
37.3105
 30
0.0000
 42
0.4142
  0
VERTEX
  8
20
 10
68.1625
 20
37.9314
 30
0.0000
 42
1.0000
  0
VERTEX
  8
20
 10
68.1625
 20
37.7282
 30
0.0000
 42
-0.4142
  0
SEQEND
  8
0
  0
POLYLINE
  8
20
 66
1
 10
0.0000
 20
0.0000
 30
0.0000
 40
0.0000
 41
0.0000
 70
1
  0
VERTEX
  8
20
 10
68.1625
 20
37.9314
 30
0.0000
  0
VERTEX
  8
20
 10
67.3835
 20
37.9314
 30
0.0000
 42
1.0000
  0
VERTEX
  8
20
 10
67.3835
 20
37.7282
 30
0.0000
  0
VERTEX
  8
20
 10
68.1625
 20
37.7282
 30
0.0000
 42
1.0000
  0
SEQEND
  8
0
  0
POLYLINE
  8
20
 66
1
 10
0.0000
 20
0.0000
 30
0.0000
 40
0.0000
 41
0.0000
 70
1
  0
VERTEX
  8
20
 10
67.4851
 20
37.8298
 30
0.0000
  0
VERTEX
  8
20
 10
67.4851
 20
38.8684
 30
0.0000
 42
1.0000
  0
VERTEX
  8
20
 10
67.2819
 20
38.8684
 30
0.0000
  0
VERTEX
  8
20
 10
67.2819
 20
37.8298
 30
0.0000
 42
1.0000
  0
SEQEND
  8
0
  0
POLYLINE
  8
20
 66
1
 10
0.0000
 20
0.0000
 30
0.0000
 40
0.0000
 41
0.0000
 70
1
  0
VERTEX
  8
20
 10
67.3835
 20
38.7668
 30
0.0000
  0
VERTEX
  8
20
 10
68.6818
 20
38.7668
 30
0.0000
 42
1.0000
  0
VERTEX
  8
20
 10
68.6818
 20
38.9700
 30
0.0000
  0
VERTEX
  8
20
 10
67.3835
 20
38.9700
 30
0.0000
 42
1.0000
  0
SEQEND
  8
0
  0
POLYLINE
  8
20
 66
1
 10
0.0000
 20
0.0000
 30
0.0000
 40
0.0000
 41
0.0000
 70
1
  0
VERTEX
  8
20
 10
76.7568
 20
36.6332
 30
0.0000
  0
VERTEX
  8
20
 10
76.2375
 20
36.6332
 30
0.0000
 42
1.0000
  0
VERTEX
  8
20
 10
76.2375
 20
36.4300
 30
0.0000
  0
VERTEX
  8
20
 10
76.7568
 20
36.4300
 30
0.0000
 42
1.0000
  0
SEQEND
  8
0
  0
POLYLINE
  8
20
 66
1
 10
0.0000
 20
0.0000
 30
0.0000
 40
0.0000
 41
0.0000
 70
1
  0
VERTEX
  8
20
 10
75.8199
 20
37.0509
 30
0.0000
 42
1.0000
  0
VERTEX
  8
20
 10
75.6166
 20
37.0509
 30
0.0000
 42
0.4142
  0
VERTEX
  8
20
 10
76.2375
 20
36.4300
 30
0.0000
 42
1.0000
  0
VERTEX
  8
20
 10
76.2375
 20
36.6332
 30
0.0000
 42
-0.4142
  0
SEQEND
  8
0
  0
POLYLINE
  8
20
 66
1
 10
0.0000
 20
0.0000
 30
0.0000
 40
0.0000
 41
0.0000
 70
1
  0
VERTEX
  8
20
 10
75.8199
 20
37.0509
 30
0.0000
  0
VERTEX
  8
20
 10
75.8199
 20
38.3491
 30
0.0000
 42
1.0000
  0
VERTEX
  8
20
 10
75.6166
 20
38.3491
 30
0.0000
  0
VERTEX
  8
20
 10
75.6166
 20
37.0509
 30
0.0000
 42
1.0000
  0
SEQEND
  8
0
  0
POLYLINE
  8
20
 66
1
 10
0.0000
 20
0.0000
 30
0.0000
 40
0.0000
 41
0.0000
 70
1
  0
VERTEX
  8
20
 10
76.2375
 20
38.7668
 30
0.0000
 42
1.0000
  0
VERTEX
  8
20
 10
76.2375
 20
38.9700
 30
0.0000
 42
0.4142
  0
VERTEX
  8
20
 10
75.6166
 20
38.3491
 30
0.0000
 42
1.0000
  0
VERTEX
  8
20
 10
75.8199
 20
38.3491
 30
0.0000
 42
-0.4142
  0
SEQEND
  8
0
  0
POLYLINE
  8
20
 66
1
 10
0.0000
 20
0.0000
 30
0.0000
 40
0.0000
 41
0.0000
 70
1
  0
VERTEX
  8
20
 10
76.2375
 20
38.7668
 30
0.0000
  0
VERTEX
  8
20
 10
76.7568
 20
38.7668
 30
0.0000
 42
1.0000
  0
VERTEX
  8
20
 10
76.7568
 20
38.9700
 30
0.0000
  0
VERTEX
  8
20
 10
76.2375
 20
38.9700
 30
0.0000
 42
1.0000
  0
SEQEND
  8
0
  0
POLYLINE
  8
20
 66
1
 10
0.0000
 20
0.0000
 30
0.0000
 40
0.0000
 41
0.0000
 70
1
  0
VERTEX
  8
20
 10
78.0720
 20
36.5316
 30
0.0000
  0
VERTEX
  8
20
 10
78.0720
 20
38.8684
 30
0.0000
 42
1.0000
  0
VERTEX
  8
20
 10
77.8688
 20
38.8684
 30
0.0000
  0
VERTEX
  8
20
 10
77.8688
 20
36.5316
 30
0.0000
 42
1.0000
  0
SEQEND
  8
0
  0
POLYLINE
  8
20
 66
1
 10
0.0000
 20
0.0000
 30
0.0000
 40
0.0000
 41
0.0000
 70
1
  0
VERTEX
  8
20
 10
77.3213
 20
38.7668
 30
0.0000
  0
VERTEX
  8
20
 10
78.6195
 20
38.7668
 30
0.0000
 42
1.0000
  0
VERTEX
  8
20
 10
78.6195
 20
38.9700
 30
0.0000
  0
VERTEX
  8
20
 10
77.3213
 20
38.9700
 30
0.0000
 42
1.0000
  0
SEQEND
  8
0
  0
POLYLINE
  8
20
 66
1
 10
0.0000
 20
0.0000
 30
0.0000
 40
0.0000
 41
0.0000
 70
1
  0
VERTEX
  8
20
 10
80.3835
 20
37.7282
 30
0.0000
  0
VERTEX
  8
20
 10
81.1625
 20
37.7282
 30
0.0000
 42
1.0000
  0
VERTEX
  8
20
 10
81.1625
 20
37.9314
 30
0.0000
  0
VERTEX
  8
20
 10
80.3835
 20
37.9314
 30
0.0000
 42
1.0000
  0
SEQEND
  8
0
  0
POLYLINE
  8
20
 66
1
 10
0.0000
 20
0.0000
 30
0.0000
 40
0.0000
 41
0.0000
 70
1
  0
VERTEX
  8
20
 10
81.5802
 20
37.3105
 30
0.0000
 42
1.0000
  0
VERTEX
  8
20
 10
81.7834
 20
37.3105
 30
0.0000
 42
0.4142
  0
VERTEX
  8
20
 10
81.1625
 20
37.9314
 30
0.0000
 42
1.0000
  0
VERTEX
  8
20
 10
81.1625
 20
37.7282
 30
0.0000
 42
-0.4142
  0
SEQEND
  8
0
  0
POLYLINE
  8
20
 66
1
 10
0.0000
 20
0.0000
 30
0.0000
 40
0.0000
 41
0.0000
 70
1
  0
VERTEX
  8
20
 10
81.5802
 20
37.3105
 30
0.0000
  0
VERTEX
  8
20
 10
81.5802
 20
37.1807
 30
0.0000
 42
1.0000
  0
VERTEX
  8
20
 10
81.7834
 20
37.1807
 30
0.0000
  0
VERTEX
  8
20
 10
81.7834
 20
37.3105
 30
0.0000
 42
1.0000
  0
SEQEND
  8
0
  0
POLYLINE
  8
20
 66
1
 10
0.0000
 20
0.0000
 30
0.0000
 40
0.0000
 41
0.0000
 70
1
  0
VERTEX
  8
20
 10
80.4851
 20
37.1807
 30
0.0000
 42
1.0000
  0
VERTEX
  8
20
 10
80.2819
 20
37.1807
 30
0.0000
 42
1.0000
  0
VERTEX
  8
20
 10
81.7834
 20
37.1807
 30
0.0000
 42
1.0000
  0
VERTEX
  8
20
 10
81.5802
 20
37.1807
 30
0.0000
 42
-1.0000
  0
SEQEND
  8
0
  0
POLYLINE
  8
20
 66
1
 10
0.0000
 20
0.0000
 30
0.0000
 40
0.0000
 41
0.0000
 70
1
  0
VERTEX
  8
20
 10
80.4851
 20
37.1807
 30
0.0000
  0
VERTEX
  8
20
 10
80.4851
 20
37.8298
 30
0.0000
 42
1.0000
  0
VERTEX
  8
20
 10
80.2819
 20
37.8298
 30
0.0000
  0
VERTEX
  8
20
 10
80.2819
 20
37.1807
 30
0.0000
 42
1.0000
  0
SEQEND
  8
0
  0
POLYLINE
  8
20
 66
1
 10
0.0000
 20
0.0000
 30
0.0000
 40
0.0000
 41
0.0000
 70
1
  0
VERTEX
  8
20
 10
81.4221
 20
38.7668
 30
0.0000
 42
1.0000
  0
VERTEX
  8
20
 10
81.4221
 20
38.9700
 30
0.0000
 42
0.4142
  0
VERTEX
  8
20
 10
80.2819
 20
37.8298
 30
0.0000
 42
1.0000
  0
VERTEX
  8
20
 10
80.4851
 20
37.8298
 30
0.0000
 42
-0.4142
  0
SEQEND
  8
0
  0
POLYLINE
  8
20
 66
1
 10
0.0000
 20
0.0000
 30
0.0000
 40
0.0000
 41
0.0000
 70
1
  0
VERTEX
  8
20
 10
76.7689
 20
14.3929
 30
0.0000
  0
VERTEX
  8
20
 10
76.7689
 20
14.9121
 30
0.0000
 42
1.0000
  0
VERTEX
  8
20
 10
76.6673
 20
14.9121
 30
0.0000
  0
VERTEX
  8
20
 10
76.6673
 20
14.3929
 30
0.0000
 42
1.0000
  0
SEQEND
  8
0
  0
POLYLINE
  8
20
 66
1
 10
0.0000
 20
0.0000
 30
0.0000
 40
0.0000
 41
0.0000
 70
1
  0
VERTEX
  8
20
 10
77.3164
 20
14.9121
 30
0.0000
 42
1.0000
  0
VERTEX
  8
20
 10
77.4180
 20
14.9121
 30
0.0000
 42
1.0000
  0
VERTEX
  8
20
 10
76.6673
 20
14.9121
 30
0.0000
 42
1.0000
  0
VERTEX
  8
20
 10
76.7689
 20
14.9121
 30
0.0000
 42
-1.0000
  0
SEQEND
  8
0
  0
POLYLINE
  8
20
 66
1
 10
0.0000
 20
0.0000
 30
0.0000
 40
0.0000
 41
0.0000
 70
1
  0
VERTEX
  8
20
 10
77.3164
 20
14.9121
 30
0.0000
  0
VERTEX
  8
20
 10
77.3164
 20
14.3929
 30
0.0000
 42
1.0000
  0
VERTEX
  8
20
 10
77.4180
 20
14.3929
 30
0.0000
  0
VERTEX
  8
20
 10
77.4180
 20
14.9121
 30
0.0000
 42
1.0000
  0
SEQEND
  8
0
  0
POLYLINE
  8
20
 66
1
 10
0.0000
 20
0.0000
 30
0.0000
 40
0.0000
 41
0.0000
 70
1
  0
VERTEX
  8
20
 10
76.7689
 20
14.3929
 30
0.0000
 42
1.0000
  0
VERTEX
  8
20
 10
76.6673
 20
14.3929
 30
0.0000
 42
1.0000
  0
VERTEX
  8
20
 10
77.4180
 20
14.3929
 30
0.0000
 42
1.0000
  0
VERTEX
  8
20
 10
77.3164
 20
14.3929
 30
0.0000
 42
-1.0000
  0
SEQEND
  8
0
  0
POLYLINE
  8
20
 66
1
 10
0.0000
 20
0.0000
 30
0.0000
 40
0.0000
 41
0.0000
 70
1
  0
VERTEX
  8
20
 10
77.9669
 20
14.0683
 30
0.0000
  0
VERTEX
  8
20
 10
77.9669
 20
15.2367
 30
0.0000
 42
1.0000
  0
VERTEX
  8
20
 10
77.8653
 20
15.2367
 30
0.0000
  0
VERTEX
  8
20
 10
77.8653
 20
14.0683
 30
0.0000
 42
1.0000
  0
SEQEND
  8
0
  0
POLYLINE
  8
20
 66
1
 10
0.0000
 20
0.0000
 30
0.0000
 40
0.0000
 41
0.0000
 70
1
  0
VERTEX
  8
20
 10
77.9161
 20
15.1859
 30
0.0000
  0
VERTEX
  8
20
 10
78.2407
 20
15.1859
 30
0.0000
 42
1.0000
  0
VERTEX
  8
20
 10
78.2407
 20
15.2875
 30
0.0000
  0
VERTEX
  8
20
 10
77.9161
 20
15.2875
 30
0.0000
 42
1.0000
  0
SEQEND
  8
0
  0
POLYLINE
  8
20
 66
1
 10
0.0000
 20
0.0000
 30
0.0000
 40
0.0000
 41
0.0000
 70
1
  0
VERTEX
  8
20
 10
78.2407
 20
14.6384
 30
0.0000
 42
1.0000
  0
VERTEX
  8
20
 10
78.2407
 20
14.5368
 30
0.0000
 42
1.0000
  0
VERTEX
  8
20
 10
78.2407
 20
15.2875
 30
0.0000
 42
1.0000
  0
VERTEX
  8
20
 10
78.2407
 20
15.1859
 30
0.0000
 42
-1.0000
  0
SEQEND
  8
0
  0
POLYLINE
  8
20
 66
1
 10
0.0000
 20
0.0000
 30
0.0000
 40
0.0000
 41
0.0000
 70
1
  0
VERTEX
  8
20
 10
78.2407
 20
14.6384
 30
0.0000
  0
VERTEX
  8
20
 10
77.9161
 20
14.6384
 30
0.0000
 42
1.0000
  0
VERTEX
  8
20
 10
77.9161
 20
14.5368
 30
0.0000
  0
VERTEX
  8
20
 10
78.2407
 20
14.5368
 30
0.0000
 42
1.0000
  0
SEQEND
  8
0
  0
POLYLINE
  8
20
 66
1
 10
0.0000
 20
0.0000
 30
0.0000
 40
0.0000
 41
0.0000
 70
1
  0
VERTEX
  8
20
 10
79.5637
 20
14.1191
 30
0.0000
  0
VERTEX
  8
20
 10
79.0444
 20
14.1191
 30
0.0000
 42
1.0000
  0
VERTEX
  8
20
 10
79.0444
 20
14.0175
 30
0.0000
  0
VERTEX
  8
20
 10
79.5637
 20
14.0175
 30
0.0000
 42
1.0000
  0
SEQEND
  8
0
  0
POLYLINE
  8
20
 66
1
 10
0.0000
 20
0.0000
 30
0.0000
 40
0.0000
 41
0.0000
 70
1
  0
VERTEX
  8
20
 10
79.0952
 20
14.0683
 30
0.0000
  0
VERTEX
  8
20
 10
79.0952
 20
15.2367
 30
0.0000
 42
1.0000
  0
VERTEX
  8
20
 10
78.9937
 20
15.2367
 30
0.0000
  0
VERTEX
  8
20
 10
78.9937
 20
14.0683
 30
0.0000
 42
1.0000
  0
SEQEND
  8
0
  0
POLYLINE
  8
20
 66
1
 10
0.0000
 20
0.0000
 30
0.0000
 40
0.0000
 41
0.0000
 70
1
  0
VERTEX
  8
20
 10
79.0444
 20
15.1859
 30
0.0000
  0
VERTEX
  8
20
 10
79.5637
 20
15.1859
 30
0.0000
 42
1.0000
  0
VERTEX
  8
20
 10
79.5637
 20
15.2875
 30
0.0000
  0
VERTEX
  8
20
 10
79.0444
 20
15.2875
 30
0.0000
 42
1.0000
  0
SEQEND
  8
0
  0
POLYLINE
  8
20
 66
1
 10
0.0000
 20
0.0000
 30
0.0000
 40
0.0000
 41
0.0000
 70
1
  0
VERTEX
  8
20
 10
79.0444
 20
14.6666
 30
0.0000
  0
VERTEX
  8
20
 10
79.4339
 20
14.6666
 30
0.0000
 42
1.0000
  0
VERTEX
  8
20
 10
79.4339
 20
14.7682
 30
0.0000
  0
VERTEX
  8
20
 10
79.0444
 20
14.7682
 30
0.0000
 42
1.0000
  0
SEQEND
  8
0
  0
POLYLINE
  8
20
 66
1
 10
0.0000
 20
0.0000
 30
0.0000
 40
0.0000
 41
0.0000
 70
1
  0
VERTEX
  8
20
 10
80.0836
 20
14.0683
 30
0.0000
  0
VERTEX
  8
20
 10
80.0836
 20
15.2367
 30
0.0000
 42
1.0000
  0
VERTEX
  8
20
 10
79.9820
 20
15.2367
 30
0.0000
  0
VERTEX
  8
20
 10
79.9820
 20
14.0683
 30
0.0000
 42
1.0000
  0
SEQEND
  8
0
  0
POLYLINE
  8
20
 66
1
 10
0.0000
 20
0.0000
 30
0.0000
 40
0.0000
 41
0.0000
 70
1
  0
VERTEX
  8
20
 10
79.9884
 20
15.2120
 30
0.0000
  0
VERTEX
  8
20
 10
80.6375
 20
14.0436
 30
0.0000
 42
1.0000
  0
VERTEX
  8
20
 10
80.7263
 20
14.0930
 30
0.0000
  0
VERTEX
  8
20
 10
80.0772
 20
15.2614
 30
0.0000
 42
1.0000
  0
SEQEND
  8
0
  0
POLYLINE
  8
20
 66
1
 10
0.0000
 20
0.0000
 30
0.0000
 40
0.0000
 41
0.0000
 70
1
  0
VERTEX
  8
20
 10
80.7327
 20
14.0683
 30
0.0000
  0
VERTEX
  8
20
 10
80.7327
 20
15.2367
 30
0.0000
 42
1.0000
  0
VERTEX
  8
20
 10
80.6311
 20
15.2367
 30
0.0000
  0
VERTEX
  8
20
 10
80.6311
 20
14.0683
 30
0.0000
 42
1.0000
  0
SEQEND
  8
0
  0
POLYLINE
  8
20
 66
1
 10
0.0000
 20
0.0000
 30
0.0000
 40
0.0000
 41
0.0000
 70
1
  0
VERTEX
  8
20
 10
74.2228
 20
12.1633
 30
0.0000
  0
VERTEX
  8
20
 10
74.2228
 20
13.3317
 30
0.0000
 42
1.0000
  0
VERTEX
  8
20
 10
74.1212
 20
13.3317
 30
0.0000
  0
VERTEX
  8
20
 10
74.1212
 20
12.1633
 30
0.0000
 42
1.0000
  0
SEQEND
  8
0
  0
POLYLINE
  8
20
 66
1
 10
0.0000
 20
0.0000
 30
0.0000
 40
0.0000
 41
0.0000
 70
1
  0
VERTEX
  8
20
 10
74.1720
 20
12.7616
 30
0.0000
  0
VERTEX
  8
20
 10
74.8211
 20
12.7616
 30
0.0000
 42
1.0000
  0
VERTEX
  8
20
 10
74.8211
 20
12.8632
 30
0.0000
  0
VERTEX
  8
20
 10
74.1720
 20
12.8632
 30
0.0000
 42
1.0000
  0
SEQEND
  8
0
  0
POLYLINE
  8
20
 66
1
 10
0.0000
 20
0.0000
 30
0.0000
 40
0.0000
 41
0.0000
 70
1
  0
VERTEX
  8
20
 10
74.7703
 20
13.3317
 30
0.0000
  0
VERTEX
  8
20
 10
74.7703
 20
12.1633
 30
0.0000
 42
1.0000
  0
VERTEX
  8
20
 10
74.8719
 20
12.1633
 30
0.0000
  0
VERTEX
  8
20
 10
74.8719
 20
13.3317
 30
0.0000
 42
1.0000
  0
SEQEND
  8
0
  0
POLYLINE
  8
20
 66
1
 10
0.0000
 20
0.0000
 30
0.0000
 40
0.0000
 41
0.0000
 70
1
  0
VERTEX
  8
20
 10
75.3364
 20
12.1472
 30
0.0000
  0
VERTEX
  8
20
 10
75.7259
 20
13.3156
 30
0.0000
 42
1.0000
  0
VERTEX
  8
20
 10
75.6295
 20
13.3478
 30
0.0000
  0
VERTEX
  8
20
 10
75.2400
 20
12.1794
 30
0.0000
 42
1.0000
  0
SEQEND
  8
0
  0
POLYLINE
  8
20
 66
1
 10
0.0000
 20
0.0000
 30
0.0000
 40
0.0000
 41
0.0000
 70
1
  0
VERTEX
  8
20
 10
75.6295
 20
13.3156
 30
0.0000
  0
VERTEX
  8
20
 10
76.0190
 20
12.1472
 30
0.0000
 42
1.0000
  0
VERTEX
  8
20
 10
76.1153
 20
12.1794
 30
0.0000
  0
VERTEX
  8
20
 10
75.7259
 20
13.3478
 30
0.0000
 42
1.0000
  0
SEQEND
  8
0
  0
POLYLINE
  8
20
 66
1
 10
0.0000
 20
0.0000
 30
0.0000
 40
0.0000
 41
0.0000
 70
1
  0
VERTEX
  8
20
 10
75.9698
 20
12.5062
 30
0.0000
  0
VERTEX
  8
20
 10
75.3856
 20
12.5062
 30
0.0000
 42
1.0000
  0
VERTEX
  8
20
 10
75.3856
 20
12.4046
 30
0.0000
  0
VERTEX
  8
20
 10
75.9698
 20
12.4046
 30
0.0000
 42
1.0000
  0
SEQEND
  8
0
  0
POLYLINE
  8
20
 66
1
 10
0.0000
 20
0.0000
 30
0.0000
 40
0.0000
 41
0.0000
 70
1
  0
VERTEX
  8
20
 10
76.5924
 20
12.1633
 30
0.0000
  0
VERTEX
  8
20
 10
76.5924
 20
13.3317
 30
0.0000
 42
1.0000
  0
VERTEX
  8
20
 10
76.4908
 20
13.3317
 30
0.0000
  0
VERTEX
  8
20
 10
76.4908
 20
12.1633
 30
0.0000
 42
1.0000
  0
SEQEND
  8
0
  0
POLYLINE
  8
20
 66
1
 10
0.0000
 20
0.0000
 30
0.0000
 40
0.0000
 41
0.0000
 70
1
  0
VERTEX
  8
20
 10
76.5416
 20
13.2809
 30
0.0000
  0
VERTEX
  8
20
 10
76.8661
 20
13.2809
 30
0.0000
 42
1.0000
  0
VERTEX
  8
20
 10
76.8661
 20
13.3825
 30
0.0000
  0
VERTEX
  8
20
 10
76.5416
 20
13.3825
 30
0.0000
 42
1.0000
  0
SEQEND
  8
0
  0
POLYLINE
  8
20
 66
1
 10
0.0000
 20
0.0000
 30
0.0000
 40
0.0000
 41
0.0000
 70
1
  0
VERTEX
  8
20
 10
76.8661
 20
12.7334
 30
0.0000
 42
1.0000
  0
VERTEX
  8
20
 10
76.8661
 20
12.6318
 30
0.0000
 42
1.0000
  0
VERTEX
  8
20
 10
76.8661
 20
13.3825
 30
0.0000
 42
1.0000
  0
VERTEX
  8
20
 10
76.8661
 20
13.2809
 30
0.0000
 42
-1.0000
  0
SEQEND
  8
0
  0
POLYLINE
  8
20
 66
1
 10
0.0000
 20
0.0000
 30
0.0000
 40
0.0000
 41
0.0000
 70
1
  0
VERTEX
  8
20
 10
76.8661
 20
12.7334
 30
0.0000
  0
VERTEX
  8
20
 10
76.5416
 20
12.7334
 30
0.0000
 42
1.0000
  0
VERTEX
  8
20
 10
76.5416
 20
12.6318
 30
0.0000
  0
VERTEX
  8
20
 10
76.8661
 20
12.6318
 30
0.0000
 42
1.0000
  0
SEQEND
  8
0
  0
POLYLINE
  8
20
 66
1
 10
0.0000
 20
0.0000
 30
0.0000
 40
0.0000
 41
0.0000
 70
1
  0
VERTEX
  8
20
 10
77.2361
 20
12.1860
 30
0.0000
  0
VERTEX
  8
20
 10
76.9765
 20
12.7053
 30
0.0000
 42
1.0000
  0
VERTEX
  8
20
 10
76.8856
 20
12.6599
 30
0.0000
  0
VERTEX
  8
20
 10
77.1453
 20
12.1406
 30
0.0000
 42
1.0000
  0
SEQEND
  8
0
  0
POLYLINE
  8
20
 66
1
 10
0.0000
 20
0.0000
 30
0.0000
 40
0.0000
 41
0.0000
 70
1
  0
VERTEX
  8
20
 10
77.7661
 20
12.1633
 30
0.0000
  0
VERTEX
  8
20
 10
77.7661
 20
13.3317
 30
0.0000
 42
1.0000
  0
VERTEX
  8
20
 10
77.6645
 20
13.3317
 30
0.0000
  0
VERTEX
  8
20
 10
77.6645
 20
12.1633
 30
0.0000
 42
1.0000
  0
SEQEND
  8
0
  0
POLYLINE
  8
20
 66
1
 10
0.0000
 20
0.0000
 30
0.0000
 40
0.0000
 41
0.0000
 70
1
  0
VERTEX
  8
20
 10
77.7153
 20
13.2809
 30
0.0000
  0
VERTEX
  8
20
 10
78.0399
 20
13.2809
 30
0.0000
 42
1.0000
  0
VERTEX
  8
20
 10
78.0399
 20
13.3825
 30
0.0000
  0
VERTEX
  8
20
 10
77.7153
 20
13.3825
 30
0.0000
 42
1.0000
  0
SEQEND
  8
0
  0
POLYLINE
  8
20
 66
1
 10
0.0000
 20
0.0000
 30
0.0000
 40
0.0000
 41
0.0000
 70
1
  0
VERTEX
  8
20
 10
78.3136
 20
13.0071
 30
0.0000
 42
1.0000
  0
VERTEX
  8
20
 10
78.4152
 20
13.0071
 30
0.0000
 42
0.4142
  0
VERTEX
  8
20
 10
78.0399
 20
13.3825
 30
0.0000
 42
1.0000
  0
VERTEX
  8
20
 10
78.0399
 20
13.2809
 30
0.0000
 42
-0.4142
  0
SEQEND
  8
0
  0
POLYLINE
  8
20
 66
1
 10
0.0000
 20
0.0000
 30
0.0000
 40
0.0000
 41
0.0000
 70
1
  0
VERTEX
  8
20
 10
78.3136
 20
13.0071
 30
0.0000
  0
VERTEX
  8
20
 10
78.3136
 20
12.4879
 30
0.0000
 42
1.0000
  0
VERTEX
  8
20
 10
78.4152
 20
12.4879
 30
0.0000
  0
VERTEX
  8
20
 10
78.4152
 20
13.0071
 30
0.0000
 42
1.0000
  0
SEQEND
  8
0
  0
POLYLINE
  8
20
 66
1
 10
0.0000
 20
0.0000
 30
0.0000
 40
0.0000
 41
0.0000
 70
1
  0
VERTEX
  8
20
 10
78.0399
 20
12.2141
 30
0.0000
 42
1.0000
  0
VERTEX
  8
20
 10
78.0399
 20
12.1125
 30
0.0000
 42
0.4142
  0
VERTEX
  8
20
 10
78.4152
 20
12.4879
 30
0.0000
 42
1.0000
  0
VERTEX
  8
20
 10
78.3136
 20
12.4879
 30
0.0000
 42
-0.4142
  0
SEQEND
  8
0
  0
POLYLINE
  8
20
 66
1
 10
0.0000
 20
0.0000
 30
0.0000
 40
0.0000
 41
0.0000
 70
1
  0
VERTEX
  8
20
 10
78.0399
 20
12.2141
 30
0.0000
  0
VERTEX
  8
20
 10
77.7153
 20
12.2141
 30
0.0000
 42
1.0000
  0
VERTEX
  8
20
 10
77.7153
 20
12.1125
 30
0.0000
  0
VERTEX
  8
20
 10
78.0399
 20
12.1125
 30
0.0000
 42
1.0000
  0
SEQEND
  8
0
  0
POLYLINE
  8
20
 66
1
 10
0.0000
 20
0.0000
 30
0.0000
 40
0.0000
 41
0.0000
 70
1
  0
VERTEX
  8
20
 10
78.8045
 20
13.3207
 30
0.0000
  0
VERTEX
  8
20
 10
79.0641
 20
12.1523
 30
0.0000
 42
1.0000
  0
VERTEX
  8
20
 10
79.1633
 20
12.1743
 30
0.0000
  0
VERTEX
  8
20
 10
78.9037
 20
13.3427
 30
0.0000
 42
1.0000
  0
SEQEND
  8
0
  0
POLYLINE
  8
20
 66
1
 10
0.0000
 20
0.0000
 30
0.0000
 40
0.0000
 41
0.0000
 70
1
  0
VERTEX
  8
20
 10
79.1619
 20
12.1472
 30
0.0000
  0
VERTEX
  8
20
 10
79.4216
 20
12.9262
 30
0.0000
 42
1.0000
  0
VERTEX
  8
20
 10
79.3252
 20
12.9583
 30
0.0000
  0
VERTEX
  8
20
 10
79.0655
 20
12.1794
 30
0.0000
 42
1.0000
  0
SEQEND
  8
0
  0
POLYLINE
  8
20
 66
1
 10
0.0000
 20
0.0000
 30
0.0000
 40
0.0000
 41
0.0000
 70
1
  0
VERTEX
  8
20
 10
79.3252
 20
12.9262
 30
0.0000
  0
VERTEX
  8
20
 10
79.5848
 20
12.1472
 30
0.0000
 42
1.0000
  0
VERTEX
  8
20
 10
79.6812
 20
12.1794
 30
0.0000
  0
VERTEX
  8
20
 10
79.4216
 20
12.9583
 30
0.0000
 42
1.0000
  0
SEQEND
  8
0
  0
POLYLINE
  8
20
 66
1
 10
0.0000
 20
0.0000
 30
0.0000
 40
0.0000
 41
0.0000
 70
1
  0
VERTEX
  8
20
 10
79.6826
 20
12.1523
 30
0.0000
  0
VERTEX
  8
20
 10
79.9423
 20
13.3207
 30
0.0000
 42
1.0000
  0
VERTEX
  8
20
 10
79.8431
 20
13.3427
 30
0.0000
  0
VERTEX
  8
20
 10
79.5834
 20
12.1743
 30
0.0000
 42
1.0000
  0
SEQEND
  8
0
  0
POLYLINE
  8
20
 66
1
 10
0.0000
 20
0.0000
 30
0.0000
 40
0.0000
 41
0.0000
 70
1
  0
VERTEX
  8
20
 10
80.3275
 20
12.1472
 30
0.0000
  0
VERTEX
  8
20
 10
80.7170
 20
13.3156
 30
0.0000
 42
1.0000
  0
VERTEX
  8
20
 10
80.6206
 20
13.3478
 30
0.0000
  0
VERTEX
  8
20
 10
80.2311
 20
12.1794
 30
0.0000
 42
1.0000
  0
SEQEND
  8
0
  0
POLYLINE
  8
20
 66
1
 10
0.0000
 20
0.0000
 30
0.0000
 40
0.0000
 41
0.0000
 70
1
  0
VERTEX
  8
20
 10
80.6206
 20
13.3156
 30
0.0000
  0
VERTEX
  8
20
 10
81.0101
 20
12.1472
 30
0.0000
 42
1.0000
  0
VERTEX
  8
20
 10
81.1064
 20
12.1794
 30
0.0000
  0
VERTEX
  8
20
 10
80.7170
 20
13.3478
 30
0.0000
 42
1.0000
  0
SEQEND
  8
0
  0
POLYLINE
  8
20
 66
1
 10
0.0000
 20
0.0000
 30
0.0000
 40
0.0000
 41
0.0000
 70
1
  0
VERTEX
  8
20
 10
80.9609
 20
12.5062
 30
0.0000
  0
VERTEX
  8
20
 10
80.3767
 20
12.5062
 30
0.0000
 42
1.0000
  0
VERTEX
  8
20
 10
80.3767
 20
12.4046
 30
0.0000
  0
VERTEX
  8
20
 10
80.9609
 20
12.4046
 30
0.0000
 42
1.0000
  0
SEQEND
  8
0
  0
POLYLINE
  8
20
 66
1
 10
0.0000
 20
0.0000
 30
0.0000
 40
0.0000
 41
0.0000
 70
1
  0
VERTEX
  8
20
 10
81.5835
 20
12.1633
 30
0.0000
  0
VERTEX
  8
20
 10
81.5835
 20
13.3317
 30
0.0000
 42
1.0000
  0
VERTEX
  8
20
 10
81.4819
 20
13.3317
 30
0.0000
  0
VERTEX
  8
20
 10
81.4819
 20
12.1633
 30
0.0000
 42
1.0000
  0
SEQEND
  8
0
  0
POLYLINE
  8
20
 66
1
 10
0.0000
 20
0.0000
 30
0.0000
 40
0.0000
 41
0.0000
 70
1
  0
VERTEX
  8
20
 10
81.5327
 20
13.2809
 30
0.0000
  0
VERTEX
  8
20
 10
81.8572
 20
13.2809
 30
0.0000
 42
1.0000
  0
VERTEX
  8
20
 10
81.8572
 20
13.3825
 30
0.0000
  0
VERTEX
  8
20
 10
81.5327
 20
13.3825
 30
0.0000
 42
1.0000
  0
SEQEND
  8
0
  0
POLYLINE
  8
20
 66
1
 10
0.0000
 20
0.0000
 30
0.0000
 40
0.0000
 41
0.0000
 70
1
  0
VERTEX
  8
20
 10
81.8572
 20
12.7334
 30
0.0000
 42
1.0000
  0
VERTEX
  8
20
 10
81.8572
 20
12.6318
 30
0.0000
 42
1.0000
  0
VERTEX
  8
20
 10
81.8572
 20
13.3825
 30
0.0000
 42
1.0000
  0
VERTEX
  8
20
 10
81.8572
 20
13.2809
 30
0.0000
 42
-1.0000
  0
SEQEND
  8
0
  0
POLYLINE
  8
20
 66
1
 10
0.0000
 20
0.0000
 30
0.0000
 40
0.0000
 41
0.0000
 70
1
  0
VERTEX
  8
20
 10
81.8572
 20
12.7334
 30
0.0000
  0
VERTEX
  8
20
 10
81.5327
 20
12.7334
 30
0.0000
 42
1.0000
  0
VERTEX
  8
20
 10
81.5327
 20
12.6318
 30
0.0000
  0
VERTEX
  8
20
 10
81.8572
 20
12.6318
 30
0.0000
 42
1.0000
  0
SEQEND
  8
0
  0
POLYLINE
  8
20
 66
1
 10
0.0000
 20
0.0000
 30
0.0000
 40
0.0000
 41
0.0000
 70
1
  0
VERTEX
  8
20
 10
82.2272
 20
12.1860
 30
0.0000
  0
VERTEX
  8
20
 10
81.9676
 20
12.7053
 30
0.0000
 42
1.0000
  0
VERTEX
  8
20
 10
81.8767
 20
12.6599
 30
0.0000
  0
VERTEX
  8
20
 10
82.1364
 20
12.1406
 30
0.0000
 42
1.0000
  0
SEQEND
  8
0
  0
POLYLINE
  8
20
 66
1
 10
0.0000
 20
0.0000
 30
0.0000
 40
0.0000
 41
0.0000
 70
1
  0
VERTEX
  8
20
 10
83.2280
 20
12.2141
 30
0.0000
  0
VERTEX
  8
20
 10
82.7087
 20
12.2141
 30
0.0000
 42
1.0000
  0
VERTEX
  8
20
 10
82.7087
 20
12.1125
 30
0.0000
  0
VERTEX
  8
20
 10
83.2280
 20
12.1125
 30
0.0000
 42
1.0000
  0
SEQEND
  8
0
  0
POLYLINE
  8
20
 66
1
 10
0.0000
 20
0.0000
 30
0.0000
 40
0.0000
 41
0.0000
 70
1
  0
VERTEX
  8
20
 10
82.7595
 20
12.1633
 30
0.0000
  0
VERTEX
  8
20
 10
82.7595
 20
13.3317
 30
0.0000
 42
1.0000
  0
VERTEX
  8
20
 10
82.6579
 20
13.3317
 30
0.0000
  0
VERTEX
  8
20
 10
82.6579
 20
12.1633
 30
0.0000
 42
1.0000
  0
SEQEND
  8
0
  0
POLYLINE
  8
20
 66
1
 10
0.0000
 20
0.0000
 30
0.0000
 40
0.0000
 41
0.0000
 70
1
  0
VERTEX
  8
20
 10
82.7087
 20
13.2809
 30
0.0000
  0
VERTEX
  8
20
 10
83.2280
 20
13.2809
 30
0.0000
 42
1.0000
  0
VERTEX
  8
20
 10
83.2280
 20
13.3825
 30
0.0000
  0
VERTEX
  8
20
 10
82.7087
 20
13.3825
 30
0.0000
 42
1.0000
  0
SEQEND
  8
0
  0
POLYLINE
  8
20
 66
1
 10
0.0000
 20
0.0000
 30
0.0000
 40
0.0000
 41
0.0000
 70
1
  0
VERTEX
  8
20
 10
82.7087
 20
12.7616
 30
0.0000
  0
VERTEX
  8
20
 10
83.0981
 20
12.7616
 30
0.0000
 42
1.0000
  0
VERTEX
  8
20
 10
83.0981
 20
12.8632
 30
0.0000
  0
VERTEX
  8
20
 10
82.7087
 20
12.8632
 30
0.0000
 42
1.0000
  0
SEQEND
  8
0
  0
POLYLINE
  8
20
 66
1
 10
0.0000
 20
0.0000
 30
0.0000
 40
0.0000
 41
0.0000
 70
1
  0
VERTEX
  8
20
 10
31.8858
 20
40.4300
 30
0.0000
  0
VERTEX
  8
20
 10
32.5349
 20
40.4300
 30
0.0000
 42
1.0000
  0
VERTEX
  8
20
 10
32.5349
 20
40.6332
 30
0.0000
  0
VERTEX
  8
20
 10
31.8858
 20
40.6332
 30
0.0000
 42
1.0000
  0
SEQEND
  8
0
  0
POLYLINE
  8
20
 66
1
 10
0.0000
 20
0.0000
 30
0.0000
 40
0.0000
 41
0.0000
 70
1
  0
VERTEX
  8
20
 10
32.5349
 20
40.6332
 30
0.0000
 42
1.0000
  0
VERTEX
  8
20
 10
32.5349
 20
40.4300
 30
0.0000
 42
1.0000
  0
VERTEX
  8
20
 10
32.5349
 20
41.9314
 30
0.0000
 42
1.0000
  0
VERTEX
  8
20
 10
32.5349
 20
41.7282
 30
0.0000
 42
-1.0000
  0
SEQEND
  8
0
  0
POLYLINE
  8
20
 66
1
 10
0.0000
 20
0.0000
 30
0.0000
 40
0.0000
 41
0.0000
 70
1
  0
VERTEX
  8
20
 10
31.8858
 20
42.7668
 30
0.0000
  0
VERTEX
  8
20
 10
32.6647
 20
42.7668
 30
0.0000
 42
1.0000
  0
VERTEX
  8
20
 10
32.6647
 20
42.9700
 30
0.0000
  0
VERTEX
  8
20
 10
31.8858
 20
42.9700
 30
0.0000
 42
1.0000
  0
SEQEND
  8
0
  0
POLYLINE
  8
20
 66
1
 10
0.0000
 20
0.0000
 30
0.0000
 40
0.0000
 41
0.0000
 70
1
  0
VERTEX
  8
20
 10
32.6647
 20
41.9314
 30
0.0000
 42
1.0000
  0
VERTEX
  8
20
 10
32.6647
 20
41.7282
 30
0.0000
 42
1.0000
  0
VERTEX
  8
20
 10
32.6647
 20
42.9700
 30
0.0000
 42
1.0000
  0
VERTEX
  8
20
 10
32.6647
 20
42.7668
 30
0.0000
 42
-1.0000
  0
SEQEND
  8
0
  0
POLYLINE
  8
20
 66
1
 10
0.0000
 20
0.0000
 30
0.0000
 40
0.0000
 41
0.0000
 70
1
  0
VERTEX
  8
20
 10
32.6647
 20
41.9314
 30
0.0000
  0
VERTEX
  8
20
 10
32.1454
 20
41.9314
 30
0.0000
 42
1.0000
  0
VERTEX
  8
20
 10
32.1454
 20
41.7282
 30
0.0000
  0
VERTEX
  8
20
 10
32.6647
 20
41.7282
 30
0.0000
 42
1.0000
  0
SEQEND
  8
0
  0
POLYLINE
  8
20
 66
1
 10
0.0000
 20
0.0000
 30
0.0000
 40
0.0000
 41
0.0000
 70
1
  0
VERTEX
  8
20
 10
33.9737
 20
40.4300
 30
0.0000
  0
VERTEX
  8
20
 10
34.6228
 20
40.4300
 30
0.0000
 42
1.0000
  0
VERTEX
  8
20
 10
34.6228
 20
40.6332
 30
0.0000
  0
VERTEX
  8
20
 10
33.9737
 20
40.6332
 30
0.0000
 42
1.0000
  0
SEQEND
  8
0
  0
POLYLINE
  8
20
 66
1
 10
0.0000
 20
0.0000
 30
0.0000
 40
0.0000
 41
0.0000
 70
1
  0
VERTEX
  8
20
 10
34.6228
 20
40.6332
 30
0.0000
 42
1.0000
  0
VERTEX
  8
20
 10
34.6228
 20
40.4300
 30
0.0000
 42
1.0000
  0
VERTEX
  8
20
 10
34.6228
 20
41.9314
 30
0.0000
 42
1.0000
  0
VERTEX
  8
20
 10
34.6228
 20
41.7282
 30
0.0000
 42
-1.0000
  0
SEQEND
  8
0
  0
POLYLINE
  8
20
 66
1
 10
0.0000
 20
0.0000
 30
0.0000
 40
0.0000
 41
0.0000
 70
1
  0
VERTEX
  8
20
 10
33.9737
 20
42.7668
 30
0.0000
  0
VERTEX
  8
20
 10
34.7526
 20
42.7668
 30
0.0000
 42
1.0000
  0
VERTEX
  8
20
 10
34.7526
 20
42.9700
 30
0.0000
  0
VERTEX
  8
20
 10
33.9737
 20
42.9700
 30
0.0000
 42
1.0000
  0
SEQEND
  8
0
  0
POLYLINE
  8
20
 66
1
 10
0.0000
 20
0.0000
 30
0.0000
 40
0.0000
 41
0.0000
 70
1
  0
VERTEX
  8
20
 10
34.7526
 20
41.9314
 30
0.0000
 42
1.0000
  0
VERTEX
  8
20
 10
34.7526
 20
41.7282
 30
0.0000
 42
1.0000
  0
VERTEX
  8
20
 10
34.7526
 20
42.9700
 30
0.0000
 42
1.0000
  0
VERTEX
  8
20
 10
34.7526
 20
42.7668
 30
0.0000
 42
-1.0000
  0
SEQEND
  8
0
  0
POLYLINE
  8
20
 66
1
 10
0.0000
 20
0.0000
 30
0.0000
 40
0.0000
 41
0.0000
 70
1
  0
VERTEX
  8
20
 10
34.7526
 20
41.9314
 30
0.0000
  0
VERTEX
  8
20
 10
34.2333
 20
41.9314
 30
0.0000
 42
1.0000
  0
VERTEX
  8
20
 10
34.2333
 20
41.7282
 30
0.0000
  0
VERTEX
  8
20
 10
34.7526
 20
41.7282
 30
0.0000
 42
1.0000
  0
SEQEND
  8
0
  0
POLYLINE
  8
20
 66
1
 10
0.0000
 20
0.0000
 30
0.0000
 40
0.0000
 41
0.0000
 70
1
  0
VERTEX
  8
20
 10
36.0616
 20
40.4300
 30
0.0000
  0
VERTEX
  8
20
 10
36.7107
 20
40.4300
 30
0.0000
 42
1.0000
  0
VERTEX
  8
20
 10
36.7107
 20
40.6332
 30
0.0000
  0
VERTEX
  8
20
 10
36.0616
 20
40.6332
 30
0.0000
 42
1.0000
  0
SEQEND
  8
0
  0
POLYLINE
  8
20
 66
1
 10
0.0000
 20
0.0000
 30
0.0000
 40
0.0000
 41
0.0000
 70
1
  0
VERTEX
  8
20
 10
36.7107
 20
40.6332
 30
0.0000
 42
1.0000
  0
VERTEX
  8
20
 10
36.7107
 20
40.4300
 30
0.0000
 42
1.0000
  0
VERTEX
  8
20
 10
36.7107
 20
41.9314
 30
0.0000
 42
1.0000
  0
VERTEX
  8
20
 10
36.7107
 20
41.7282
 30
0.0000
 42
-1.0000
  0
SEQEND
  8
0
  0
POLYLINE
  8
20
 66
1
 10
0.0000
 20
0.0000
 30
0.0000
 40
0.0000
 41
0.0000
 70
1
  0
VERTEX
  8
20
 10
36.0616
 20
42.7668
 30
0.0000
  0
VERTEX
  8
20
 10
36.8405
 20
42.7668
 30
0.0000
 42
1.0000
  0
VERTEX
  8
20
 10
36.8405
 20
42.9700
 30
0.0000
  0
VERTEX
  8
20
 10
36.0616
 20
42.9700
 30
0.0000
 42
1.0000
  0
SEQEND
  8
0
  0
POLYLINE
  8
20
 66
1
 10
0.0000
 20
0.0000
 30
0.0000
 40
0.0000
 41
0.0000
 70
1
  0
VERTEX
  8
20
 10
36.8405
 20
41.9314
 30
0.0000
 42
1.0000
  0
VERTEX
  8
20
 10
36.8405
 20
41.7282
 30
0.0000
 42
1.0000
  0
VERTEX
  8
20
 10
36.8405
 20
42.9700
 30
0.0000
 42
1.0000
  0
VERTEX
  8
20
 10
36.8405
 20
42.7668
 30
0.0000
 42
-1.0000
  0
SEQEND
  8
0
  0
POLYLINE
  8
20
 66
1
 10
0.0000
 20
0.0000
 30
0.0000
 40
0.0000
 41
0.0000
 70
1
  0
VERTEX
  8
20
 10
36.8405
 20
41.9314
 30
0.0000
  0
VERTEX
  8
20
 10
36.3212
 20
41.9314
 30
0.0000
 42
1.0000
  0
VERTEX
  8
20
 10
36.3212
 20
41.7282
 30
0.0000
  0
VERTEX
  8
20
 10
36.8405
 20
41.7282
 30
0.0000
 42
1.0000
  0
SEQEND
  8
0
  0
POLYLINE
  8
20
 66
1
 10
0.0000
 20
0.0000
 30
0.0000
 40
0.0000
 41
0.0000
 70
1
  0
VERTEX
  8
20
 10
39.4435
 20
40.5316
 30
0.0000
  0
VERTEX
  8
20
 10
39.4435
 20
42.0895
 30
0.0000
 42
1.0000
  0
VERTEX
  8
20
 10
39.2403
 20
42.0895
 30
0.0000
  0
VERTEX
  8
20
 10
39.2403
 20
40.5316
 30
0.0000
 42
1.0000
  0
SEQEND
  8
0
  0
POLYLINE
  8
20
 66
1
 10
0.0000
 20
0.0000
 30
0.0000
 40
0.0000
 41
0.0000
 70
1
  0
VERTEX
  8
20
 10
39.3419
 20
41.9879
 30
0.0000
  0
VERTEX
  8
20
 10
40.5103
 20
41.9879
 30
0.0000
 42
1.0000
  0
VERTEX
  8
20
 10
40.5103
 20
42.1911
 30
0.0000
  0
VERTEX
  8
20
 10
39.3419
 20
42.1911
 30
0.0000
 42
1.0000
  0
SEQEND
  8
0
  0
POLYLINE
  8
20
 66
1
 10
0.0000
 20
0.0000
 30
0.0000
 40
0.0000
 41
0.0000
 70
1
  0
VERTEX
  8
20
 10
40.7982
 20
41.7000
 30
0.0000
 42
1.0000
  0
VERTEX
  8
20
 10
41.0014
 20
41.7000
 30
0.0000
 42
0.4142
  0
VERTEX
  8
20
 10
40.5103
 20
42.1911
 30
0.0000
 42
1.0000
  0
VERTEX
  8
20
 10
40.5103
 20
41.9879
 30
0.0000
 42
-0.4142
  0
SEQEND
  8
0
  0
POLYLINE
  8
20
 66
1
 10
0.0000
 20
0.0000
 30
0.0000
 40
0.0000
 41
0.0000
 70
1
  0
VERTEX
  8
20
 10
40.7982
 20
41.7000
 30
0.0000
  0
VERTEX
  8
20
 10
40.7982
 20
40.5316
 30
0.0000
 42
1.0000
  0
VERTEX
  8
20
 10
41.0014
 20
40.5316
 30
0.0000
  0
VERTEX
  8
20
 10
41.0014
 20
41.7000
 30
0.0000
 42
1.0000
  0
SEQEND
  8
0
  0
POLYLINE
  8
20
 66
1
 10
0.0000
 20
0.0000
 30
0.0000
 40
0.0000
 41
0.0000
 70
1
  0
VERTEX
  8
20
 10
40.2225
 20
40.5316
 30
0.0000
  0
VERTEX
  8
20
 10
40.2225
 20
42.0895
 30
0.0000
 42
1.0000
  0
VERTEX
  8
20
 10
40.0193
 20
42.0895
 30
0.0000
  0
VERTEX
  8
20
 10
40.0193
 20
40.5316
 30
0.0000
 42
1.0000
  0
SEQEND
  8
0
  0
POLYLINE
  8
20
 66
1
 10
0.0000
 20
0.0000
 30
0.0000
 40
0.0000
 41
0.0000
 70
1
  0
VERTEX
  8
20
 10
41.5422
 20
42.8363
 30
0.0000
  0
VERTEX
  8
20
 10
42.3211
 20
40.4995
 30
0.0000
 42
1.0000
  0
VERTEX
  8
20
 10
42.5139
 20
40.5637
 30
0.0000
  0
VERTEX
  8
20
 10
41.7350
 20
42.9005
 30
0.0000
 42
1.0000
  0
SEQEND
  8
0
  0
POLYLINE
  8
20
 66
1
 10
0.0000
 20
0.0000
 30
0.0000
 40
0.0000
 41
0.0000
 70
1
  0
VERTEX
  8
20
 10
42.5139
 20
40.4995
 30
0.0000
  0
VERTEX
  8
20
 10
43.2928
 20
42.8363
 30
0.0000
 42
1.0000
  0
VERTEX
  8
20
 10
43.1001
 20
42.9005
 30
0.0000
  0
VERTEX
  8
20
 10
42.3211
 20
40.5637
 30
0.0000
 42
1.0000
  0
SEQEND
  8
0
  0
POLYLINE
  8
20
 66
1
 10
0.0000
 20
0.0000
 30
0.0000
 40
0.0000
 41
0.0000
 70
1
  0
VERTEX
  8
20
 10
46.0060
 20
40.6332
 30
0.0000
  0
VERTEX
  8
20
 10
45.4867
 20
40.6332
 30
0.0000
 42
1.0000
  0
VERTEX
  8
20
 10
45.4867
 20
40.4300
 30
0.0000
  0
VERTEX
  8
20
 10
46.0060
 20
40.4300
 30
0.0000
 42
1.0000
  0
SEQEND
  8
0
  0
POLYLINE
  8
20
 66
1
 10
0.0000
 20
0.0000
 30
0.0000
 40
0.0000
 41
0.0000
 70
1
  0
VERTEX
  8
20
 10
45.0691
 20
41.0509
 30
0.0000
 42
1.0000
  0
VERTEX
  8
20
 10
44.8659
 20
41.0509
 30
0.0000
 42
0.4142
  0
VERTEX
  8
20
 10
45.4867
 20
40.4300
 30
0.0000
 42
1.0000
  0
VERTEX
  8
20
 10
45.4867
 20
40.6332
 30
0.0000
 42
-0.4142
  0
SEQEND
  8
0
  0
POLYLINE
  8
20
 66
1
 10
0.0000
 20
0.0000
 30
0.0000
 40
0.0000
 41
0.0000
 70
1
  0
VERTEX
  8
20
 10
45.0691
 20
41.0509
 30
0.0000
  0
VERTEX
  8
20
 10
45.0691
 20
42.3491
 30
0.0000
 42
1.0000
  0
VERTEX
  8
20
 10
44.8659
 20
42.3491
 30
0.0000
  0
VERTEX
  8
20
 10
44.8659
 20
41.0509
 30
0.0000
 42
1.0000
  0
SEQEND
  8
0
  0
POLYLINE
  8
20
 66
1
 10
0.0000
 20
0.0000
 30
0.0000
 40
0.0000
 41
0.0000
 70
1
  0
VERTEX
  8
20
 10
45.4867
 20
42.7668
 30
0.0000
 42
1.0000
  0
VERTEX
  8
20
 10
45.4867
 20
42.9700
 30
0.0000
 42
0.4142
  0
VERTEX
  8
20
 10
44.8659
 20
42.3491
 30
0.0000
 42
1.0000
  0
VERTEX
  8
20
 10
45.0691
 20
42.3491
 30
0.0000
 42
-0.4142
  0
SEQEND
  8
0
  0
POLYLINE
  8
20
 66
1
 10
0.0000
 20
0.0000
 30
0.0000
 40
0.0000
 41
0.0000
 70
1
  0
VERTEX
  8
20
 10
45.4867
 20
42.7668
 30
0.0000
  0
VERTEX
  8
20
 10
46.0060
 20
42.7668
 30
0.0000
 42
1.0000
  0
VERTEX
  8
20
 10
46.0060
 20
42.9700
 30
0.0000
  0
VERTEX
  8
20
 10
45.4867
 20
42.9700
 30
0.0000
 42
1.0000
  0
SEQEND
  8
0
  0
POLYLINE
  8
20
 66
1
 10
0.0000
 20
0.0000
 30
0.0000
 40
0.0000
 41
0.0000
 70
1
  0
VERTEX
  8
20
 10
47.3212
 20
40.5316
 30
0.0000
  0
VERTEX
  8
20
 10
47.3212
 20
42.8684
 30
0.0000
 42
1.0000
  0
VERTEX
  8
20
 10
47.1180
 20
42.8684
 30
0.0000
  0
VERTEX
  8
20
 10
47.1180
 20
40.5316
 30
0.0000
 42
1.0000
  0
SEQEND
  8
0
  0
POLYLINE
  8
20
 66
1
 10
0.0000
 20
0.0000
 30
0.0000
 40
0.0000
 41
0.0000
 70
1
  0
VERTEX
  8
20
 10
46.5705
 20
42.7668
 30
0.0000
  0
VERTEX
  8
20
 10
47.8687
 20
42.7668
 30
0.0000
 42
1.0000
  0
VERTEX
  8
20
 10
47.8687
 20
42.9700
 30
0.0000
  0
VERTEX
  8
20
 10
46.5705
 20
42.9700
 30
0.0000
 42
1.0000
  0
SEQEND
  8
0
  0
POLYLINE
  8
20
 66
1
 10
0.0000
 20
0.0000
 30
0.0000
 40
0.0000
 41
0.0000
 70
1
  0
VERTEX
  8
20
 10
50.3421
 20
40.6332
 30
0.0000
 42
1.0000
  0
VERTEX
  8
20
 10
50.3421
 20
40.4300
 30
0.0000
 42
0.4142
  0
VERTEX
  8
20
 10
50.9630
 20
41.0509
 30
0.0000
 42
1.0000
  0
VERTEX
  8
20
 10
50.7598
 20
41.0509
 30
0.0000
 42
-0.4142
  0
SEQEND
  8
0
  0
POLYLINE
  8
20
 66
1
 10
0.0000
 20
0.0000
 30
0.0000
 40
0.0000
 41
0.0000
 70
1
  0
VERTEX
  8
20
 10
49.6353
 20
40.9277
 30
0.0000
 42
1.0000
  0
VERTEX
  8
20
 10
49.4910
 20
40.7846
 30
0.0000
 42
0.2000
  0
VERTEX
  8
20
 10
50.3421
 20
40.4300
 30
0.0000
 42
1.0000
  0
VERTEX
  8
20
 10
50.3421
 20
40.6332
 30
0.0000
 42
-0.2000
  0
SEQEND
  8
0
  0
POLYLINE
  8
20
 66
1
 10
0.0000
 20
0.0000
 30
0.0000
 40
0.0000
 41
0.0000
 70
1
  0
VERTEX
  8
20
 10
50.1473
 20
42.7668
 30
0.0000
 42
1.0000
  0
VERTEX
  8
20
 10
50.1473
 20
42.9700
 30
0.0000
 42
0.4142
  0
VERTEX
  8
20
 10
49.5265
 20
42.3491
 30
0.0000
 42
1.0000
  0
VERTEX
  8
20
 10
49.7297
 20
42.3491
 30
0.0000
 42
-0.4142
  0
SEQEND
  8
0
  0
POLYLINE
  8
20
 66
1
 10
0.0000
 20
0.0000
 30
0.0000
 40
0.0000
 41
0.0000
 70
1
  0
VERTEX
  8
20
 10
50.6706
 20
42.5924
 30
0.0000
 42
1.0000
  0
VERTEX
  8
20
 10
50.7925
 20
42.7549
 30
0.0000
 42
0.1623
  0
VERTEX
  8
20
 10
50.1473
 20
42.9700
 30
0.0000
 42
1.0000
  0
VERTEX
  8
20
 10
50.1473
 20
42.7668
 30
0.0000
 42
-0.1623
  0
SEQEND
  8
0
  0
POLYLINE
  8
20
 66
1
 10
0.0000
 20
0.0000
 30
0.0000
 40
0.0000
 41
0.0000
 70
1
  0
VERTEX
  8
20
 10
49.7297
 20
42.3491
 30
0.0000
 42
1.0000
  0
VERTEX
  8
20
 10
49.5265
 20
42.3491
 30
0.0000
 42
0.2656
  0
VERTEX
  8
20
 10
49.8361
 20
41.8072
 30
0.0000
 42
1.0000
  0
VERTEX
  8
20
 10
49.9393
 20
41.9823
 30
0.0000
 42
-0.2656
  0
SEQEND
  8
0
  0
POLYLINE
  8
20
 66
1
 10
0.0000
 20
0.0000
 30
0.0000
 40
0.0000
 41
0.0000
 70
1
  0
VERTEX
  8
20
 10
50.7598
 20
41.0509
 30
0.0000
 42
1.0000
  0
VERTEX
  8
20
 10
50.9630
 20
41.0509
 30
0.0000
 42
0.2656
  0
VERTEX
  8
20
 10
50.6533
 20
41.5928
 30
0.0000
 42
1.0000
  0
VERTEX
  8
20
 10
50.5501
 20
41.4177
 30
0.0000
 42
-0.2656
  0
SEQEND
  8
0
  0
POLYLINE
  8
20
 66
1
 10
0.0000
 20
0.0000
 30
0.0000
 40
0.0000
 41
0.0000
 70
1
  0
VERTEX
  8
20
 10
50.6504
 20
41.5945
 30
0.0000
  0
VERTEX
  8
20
 10
49.9363
 20
41.9839
 30
0.0000
 42
1.0000
  0
VERTEX
  8
20
 10
49.8390
 20
41.8055
 30
0.0000
  0
VERTEX
  8
20
 10
50.5531
 20
41.4161
 30
0.0000
 42
1.0000
  0
SEQEND
  8
0
  0
POLYLINE
  8
20
 66
1
 10
0.0000
 20
0.0000
 30
0.0000
 40
0.0000
 41
0.0000
 70
1
  0
VERTEX
  8
20
 10
52.6106
 20
40.6332
 30
0.0000
  0
VERTEX
  8
20
 10
51.9615
 20
40.6332
 30
0.0000
 42
1.0000
  0
VERTEX
  8
20
 10
51.9615
 20
40.4300
 30
0.0000
  0
VERTEX
  8
20
 10
52.6106
 20
40.4300
 30
0.0000
 42
1.0000
  0
SEQEND
  8
0
  0
POLYLINE
  8
20
 66
1
 10
0.0000
 20
0.0000
 30
0.0000
 40
0.0000
 41
0.0000
 70
1
  0
VERTEX
  8
20
 10
51.6737
 20
40.9211
 30
0.0000
 42
1.0000
  0
VERTEX
  8
20
 10
51.4705
 20
40.9211
 30
0.0000
 42
0.4142
  0
VERTEX
  8
20
 10
51.9615
 20
40.4300
 30
0.0000
 42
1.0000
  0
VERTEX
  8
20
 10
51.9615
 20
40.6332
 30
0.0000
 42
-0.4142
  0
SEQEND
  8
0
  0
POLYLINE
  8
20
 66
1
 10
0.0000
 20
0.0000
 30
0.0000
 40
0.0000
 41
0.0000
 70
1
  0
VERTEX
  8
20
 10
51.6737
 20
40.9211
 30
0.0000
  0
VERTEX
  8
20
 10
51.6737
 20
41.5702
 30
0.0000
 42
1.0000
  0
VERTEX
  8
20
 10
51.4705
 20
41.5702
 30
0.0000
  0
VERTEX
  8
20
 10
51.4705
 20
40.9211
 30
0.0000
 42
1.0000
  0
SEQEND
  8
0
  0
POLYLINE
  8
20
 66
1
 10
0.0000
 20
0.0000
 30
0.0000
 40
0.0000
 41
0.0000
 70
1
  0
VERTEX
  8
20
 10
52.5090
 20
41.5702
 30
0.0000
 42
1.0000
  0
VERTEX
  8
20
 10
52.7122
 20
41.5702
 30
0.0000
 42
1.0000
  0
VERTEX
  8
20
 10
51.4705
 20
41.5702
 30
0.0000
 42
1.0000
  0
VERTEX
  8
20
 10
51.6737
 20
41.5702
 30
0.0000
 42
-1.0000
  0
SEQEND
  8
0
  0
POLYLINE
  8
20
 66
1
 10
0.0000
 20
0.0000
 30
0.0000
 40
0.0000
 41
0.0000
 70
1
  0
VERTEX
  8
20
 10
52.5090
 20
41.5702
 30
0.0000
  0
VERTEX
  8
20
 10
52.5090
 20
41.3105
 30
0.0000
 42
1.0000
  0
VERTEX
  8
20
 10
52.7122
 20
41.3105
 30
0.0000
  0
VERTEX
  8
20
 10
52.7122
 20
41.5702
 30
0.0000
 42
1.0000
  0
SEQEND
  8
0
  0
POLYLINE
  8
20
 66
1
 10
0.0000
 20
0.0000
 30
0.0000
 40
0.0000
 41
0.0000
 70
1
  0
VERTEX
  8
20
 10
52.6106
 20
41.4121
 30
0.0000
  0
VERTEX
  8
20
 10
51.5721
 20
41.4121
 30
0.0000
 42
1.0000
  0
VERTEX
  8
20
 10
51.5721
 20
41.2089
 30
0.0000
  0
VERTEX
  8
20
 10
52.6106
 20
41.2089
 30
0.0000
 42
1.0000
  0
SEQEND
  8
0
  0
POLYLINE
  8
20
 66
1
 10
0.0000
 20
0.0000
 30
0.0000
 40
0.0000
 41
0.0000
 70
1
  0
VERTEX
  8
20
 10
53.5527
 20
40.5316
 30
0.0000
  0
VERTEX
  8
20
 10
53.5527
 20
42.0895
 30
0.0000
 42
1.0000
  0
VERTEX
  8
20
 10
53.3495
 20
42.0895
 30
0.0000
  0
VERTEX
  8
20
 10
53.3495
 20
40.5316
 30
0.0000
 42
1.0000
  0
SEQEND
  8
0
  0
POLYLINE
  8
20
 66
1
 10
0.0000
 20
0.0000
 30
0.0000
 40
0.0000
 41
0.0000
 70
1
  0
VERTEX
  8
20
 10
53.4511
 20
41.9879
 30
0.0000
  0
VERTEX
  8
20
 10
54.1003
 20
41.9879
 30
0.0000
 42
1.0000
  0
VERTEX
  8
20
 10
54.1003
 20
42.1911
 30
0.0000
  0
VERTEX
  8
20
 10
53.4511
 20
42.1911
 30
0.0000
 42
1.0000
  0
SEQEND
  8
0
  0
POLYLINE
  8
20
 66
1
 10
0.0000
 20
0.0000
 30
0.0000
 40
0.0000
 41
0.0000
 70
1
  0
VERTEX
  8
20
 10
54.3881
 20
41.7000
 30
0.0000
 42
1.0000
  0
VERTEX
  8
20
 10
54.5913
 20
41.7000
 30
0.0000
 42
0.4142
  0
VERTEX
  8
20
 10
54.1003
 20
42.1911
 30
0.0000
 42
1.0000
  0
VERTEX
  8
20
 10
54.1003
 20
41.9879
 30
0.0000
 42
-0.4142
  0
SEQEND
  8
0
  0
POLYLINE
  8
20
 66
1
 10
0.0000
 20
0.0000
 30
0.0000
 40
0.0000
 41
0.0000
 70
1
  0
VERTEX
  8
20
 10
54.3881
 20
41.7000
 30
0.0000
  0
VERTEX
  8
20
 10
54.3881
 20
40.5316
 30
0.0000
 42
1.0000
  0
VERTEX
  8
20
 10
54.5913
 20
40.5316
 30
0.0000
  0
VERTEX
  8
20
 10
54.5913
 20
41.7000
 30
0.0000
 42
1.0000
  0
SEQEND
  8
0
  0
POLYLINE
  8
20
 66
1
 10
0.0000
 20
0.0000
 30
0.0000
 40
0.0000
 41
0.0000
 70
1
  0
VERTEX
  8
20
 10
56.2118
 20
41.2750
 30
0.0000
  0
VERTEX
  8
20
 10
55.5627
 20
41.5347
 30
0.0000
 42
1.0000
  0
VERTEX
  8
20
 10
55.4872
 20
41.3460
 30
0.0000
  0
VERTEX
  8
20
 10
56.1363
 20
41.0864
 30
0.0000
 42
1.0000
  0
SEQEND
  8
0
  0
POLYLINE
  8
20
 66
1
 10
0.0000
 20
0.0000
 30
0.0000
 40
0.0000
 41
0.0000
 70
1
  0
VERTEX
  8
20
 10
55.6533
 20
41.9879
 30
0.0000
 42
1.0000
  0
VERTEX
  8
20
 10
55.6562
 20
42.1911
 30
0.0000
 42
0.8318
  0
VERTEX
  8
20
 10
55.4872
 20
41.3460
 30
0.0000
 42
1.0000
  0
VERTEX
  8
20
 10
55.5627
 20
41.5347
 30
0.0000
 42
-0.8318
  0
SEQEND
  8
0
  0
POLYLINE
  8
20
 66
1
 10
0.0000
 20
0.0000
 30
0.0000
 40
0.0000
 41
0.0000
 70
1
  0
VERTEX
  8
20
 10
56.1973
 20
41.8670
 30
0.0000
 42
1.0000
  0
VERTEX
  8
20
 10
56.2807
 20
42.0523
 30
0.0000
 42
0.1026
  0
VERTEX
  8
20
 10
55.6562
 20
42.1911
 30
0.0000
 42
1.0000
  0
VERTEX
  8
20
 10
55.6533
 20
41.9879
 30
0.0000
 42
-0.1026
  0
SEQEND
  8
0
  0
POLYLINE
  8
20
 66
1
 10
0.0000
 20
0.0000
 30
0.0000
 40
0.0000
 41
0.0000
 70
1
  0
VERTEX
  8
20
 10
56.0457
 20
40.6332
 30
0.0000
 42
1.0000
  0
VERTEX
  8
20
 10
56.0428
 20
40.4300
 30
0.0000
 42
0.8318
  0
VERTEX
  8
20
 10
56.2118
 20
41.2750
 30
0.0000
 42
1.0000
  0
VERTEX
  8
20
 10
56.1363
 20
41.0864
 30
0.0000
 42
-0.8318
  0
SEQEND
  8
0
  0
POLYLINE
  8
20
 66
1
 10
0.0000
 20
0.0000
 30
0.0000
 40
0.0000
 41
0.0000
 70
1
  0
VERTEX
  8
20
 10
55.3646
 20
40.7570
 30
0.0000
 42
1.0000
  0
VERTEX
  8
20
 10
55.2958
 20
40.5658
 30
0.0000
 42
0.0830
  0
VERTEX
  8
20
 10
56.0428
 20
40.4300
 30
0.0000
 42
1.0000
  0
VERTEX
  8
20
 10
56.0457
 20
40.6332
 30
0.0000
 42
-0.0830
  0
SEQEND
  8
0
  0
POLYLINE
  8
20
 66
1
 10
0.0000
 20
0.0000
 30
0.0000
 40
0.0000
 41
0.0000
 70
1
  0
VERTEX
  8
20
 10
57.2413
 20
41.0509
 30
0.0000
  0
VERTEX
  8
20
 10
57.2413
 20
41.5702
 30
0.0000
 42
1.0000
  0
VERTEX
  8
20
 10
57.0381
 20
41.5702
 30
0.0000
  0
VERTEX
  8
20
 10
57.0381
 20
41.0509
 30
0.0000
 42
1.0000
  0
SEQEND
  8
0
  0
POLYLINE
  8
20
 66
1
 10
0.0000
 20
0.0000
 30
0.0000
 40
0.0000
 41
0.0000
 70
1
  0
VERTEX
  8
20
 10
58.0767
 20
41.5702
 30
0.0000
 42
1.0000
  0
VERTEX
  8
20
 10
58.2799
 20
41.5702
 30
0.0000
 42
1.0000
  0
VERTEX
  8
20
 10
57.0381
 20
41.5702
 30
0.0000
 42
1.0000
  0
VERTEX
  8
20
 10
57.2413
 20
41.5702
 30
0.0000
 42
-1.0000
  0
SEQEND
  8
0
  0
POLYLINE
  8
20
 66
1
 10
0.0000
 20
0.0000
 30
0.0000
 40
0.0000
 41
0.0000
 70
1
  0
VERTEX
  8
20
 10
58.0767
 20
41.5702
 30
0.0000
  0
VERTEX
  8
20
 10
58.0767
 20
41.0509
 30
0.0000
 42
1.0000
  0
VERTEX
  8
20
 10
58.2799
 20
41.0509
 30
0.0000
  0
VERTEX
  8
20
 10
58.2799
 20
41.5702
 30
0.0000
 42
1.0000
  0
SEQEND
  8
0
  0
POLYLINE
  8
20
 66
1
 10
0.0000
 20
0.0000
 30
0.0000
 40
0.0000
 41
0.0000
 70
1
  0
VERTEX
  8
20
 10
57.2413
 20
41.0509
 30
0.0000
 42
1.0000
  0
VERTEX
  8
20
 10
57.0381
 20
41.0509
 30
0.0000
 42
1.0000
  0
VERTEX
  8
20
 10
58.2799
 20
41.0509
 30
0.0000
 42
1.0000
  0
VERTEX
  8
20
 10
58.0767
 20
41.0509
 30
0.0000
 42
-1.0000
  0
SEQEND
  8
0
  0
POLYLINE
  8
20
 66
1
 10
0.0000
 20
0.0000
 30
0.0000
 40
0.0000
 41
0.0000
 70
1
  0
VERTEX
  8
20
 10
59.1268
 20
40.5316
 30
0.0000
  0
VERTEX
  8
20
 10
59.1268
 20
42.0895
 30
0.0000
 42
1.0000
  0
VERTEX
  8
20
 10
58.9236
 20
42.0895
 30
0.0000
  0
VERTEX
  8
20
 10
58.9236
 20
40.5316
 30
0.0000
 42
1.0000
  0
SEQEND
  8
0
  0
POLYLINE
  8
20
 66
1
 10
0.0000
 20
0.0000
 30
0.0000
 40
0.0000
 41
0.0000
 70
1
  0
VERTEX
  8
20
 10
59.0252
 20
41.9879
 30
0.0000
  0
VERTEX
  8
20
 10
59.8041
 20
41.9879
 30
0.0000
 42
1.0000
  0
VERTEX
  8
20
 10
59.8041
 20
42.1911
 30
0.0000
  0
VERTEX
  8
20
 10
59.0252
 20
42.1911
 30
0.0000
 42
1.0000
  0
SEQEND
  8
0
  0
POLYLINE
  8
20
 66
1
 10
0.0000
 20
0.0000
 30
0.0000
 40
0.0000
 41
0.0000
 70
1
  0
VERTEX
  8
20
 10
59.7025
 20
42.0895
 30
0.0000
  0
VERTEX
  8
20
 10
59.7025
 20
41.8298
 30
0.0000
 42
1.0000
  0
VERTEX
  8
20
 10
59.9057
 20
41.8298
 30
0.0000
  0
VERTEX
  8
20
 10
59.9057
 20
42.0895
 30
0.0000
 42
1.0000
  0
SEQEND
  8
0
  0
POLYLINE
  8
20
 66
1
 10
0.0000
 20
0.0000
 30
0.0000
 40
0.0000
 41
0.0000
 70
1
  0
VERTEX
  8
20
 10
61.2923
 20
41.2750
 30
0.0000
  0
VERTEX
  8
20
 10
60.6432
 20
41.5347
 30
0.0000
 42
1.0000
  0
VERTEX
  8
20
 10
60.5677
 20
41.3460
 30
0.0000
  0
VERTEX
  8
20
 10
61.2168
 20
41.0864
 30
0.0000
 42
1.0000
  0
SEQEND
  8
0
  0
POLYLINE
  8
20
 66
1
 10
0.0000
 20
0.0000
 30
0.0000
 40
0.0000
 41
0.0000
 70
1
  0
VERTEX
  8
20
 10
60.7338
 20
41.9879
 30
0.0000
 42
1.0000
  0
VERTEX
  8
20
 10
60.7367
 20
42.1911
 30
0.0000
 42
0.8318
  0
VERTEX
  8
20
 10
60.5677
 20
41.3460
 30
0.0000
 42
1.0000
  0
VERTEX
  8
20
 10
60.6432
 20
41.5347
 30
0.0000
 42
-0.8318
  0
SEQEND
  8
0
  0
POLYLINE
  8
20
 66
1
 10
0.0000
 20
0.0000
 30
0.0000
 40
0.0000
 41
0.0000
 70
1
  0
VERTEX
  8
20
 10
61.2778
 20
41.8670
 30
0.0000
 42
1.0000
  0
VERTEX
  8
20
 10
61.3612
 20
42.0523
 30
0.0000
 42
0.1026
  0
VERTEX
  8
20
 10
60.7367
 20
42.1911
 30
0.0000
 42
1.0000
  0
VERTEX
  8
20
 10
60.7338
 20
41.9879
 30
0.0000
 42
-0.1026
  0
SEQEND
  8
0
  0
POLYLINE
  8
20
 66
1
 10
0.0000
 20
0.0000
 30
0.0000
 40
0.0000
 41
0.0000
 70
1
  0
VERTEX
  8
20
 10
61.1262
 20
40.6332
 30
0.0000
 42
1.0000
  0
VERTEX
  8
20
 10
61.1233
 20
40.4300
 30
0.0000
 42
0.8318
  0
VERTEX
  8
20
 10
61.2923
 20
41.2750
 30
0.0000
 42
1.0000
  0
VERTEX
  8
20
 10
61.2168
 20
41.0864
 30
0.0000
 42
-0.8318
  0
SEQEND
  8
0
  0
POLYLINE
  8
20
 66
1
 10
0.0000
 20
0.0000
 30
0.0000
 40
0.0000
 41
0.0000
 70
1
  0
VERTEX
  8
20
 10
60.4451
 20
40.7570
 30
0.0000
 42
1.0000
  0
VERTEX
  8
20
 10
60.3763
 20
40.5658
 30
0.0000
 42
0.0830
  0
VERTEX
  8
20
 10
61.1233
 20
40.4300
 30
0.0000
 42
1.0000
  0
VERTEX
  8
20
 10
61.1262
 20
40.6332
 30
0.0000
 42
-0.0830
  0
SEQEND
  8
0
  0
CIRCLE
  8
20
 10
12.7000
 20
31.7000
 30
0.0000
 40
2.9664
  0
CIRCLE
  8
20
 10
12.7000
 20
31.7000
 30
0.0000
 40
3.1164
  0
CIRCLE
  8
20
 10
25.7000
 20
31.7000
 30
0.0000
 40
2.9664
  0
CIRCLE
  8
20
 10
25.7000
 20
31.7000
 30
0.0000
 40
3.1164
  0
CIRCLE
  8
20
 10
38.7000
 20
31.7000
 30
0.0000
 40
2.9664
  0
CIRCLE
  8
20
 10
38.7000
 20
31.7000
 30
0.0000
 40
3.1164
  0
CIRCLE
  8
20
 10
52.7000
 20
31.7000
 30
0.0000
 40
2.9664
  0
CIRCLE
  8
20
 10
52.7000
 20
31.7000
 30
0.0000
 40
3.1164
  0
CIRCLE
  8
20
 10
65.7000
 20
31.7000
 30
0.0000
 40
2.9664
  0
CIRCLE
  8
20
 10
65.7000
 20
31.7000
 30
0.0000
 40
3.1164
  0
CIRCLE
  8
20
 10
78.7000
 20
31.7000
 30
0.0000
 40
2.9664
  0
CIRCLE
  8
20
 10
78.7000
 20
31.7000
 30
0.0000
 40
3.1164
  0
CIRCLE
  8
20
 10
3.5700
 20
40.7700
 30
0.0000
 40
1.6250
  0
CIRCLE
  8
20
 10
3.5700
 20
40.7700
 30
0.0000
 40
1.7750
  0
CIRCLE
  8
20
 10
3.5600
 20
3.5500
 30
0.0000
 40
1.6250
  0
CIRCLE
  8
20
 10
3.5600
 20
3.5500
 30
0.0000
 40
1.7750
  0
CIRCLE
  8
20
 10
87.8900
 20
3.5600
 30
0.0000
 40
1.6250
  0
CIRCLE
  8
20
 10
87.8900
 20
3.5600
 30
0.0000
 40
1.7750
  0
CIRCLE
  8
20
 10
87.8900
 20
40.7700
 30
0.0000
 40
1.6250
  0
CIRCLE
  8
20
 10
87.8900
 20
40.7700
 30
0.0000
 40
1.7750
  0
POINT
  8
23
 10
75.8596
 20
16.1270
 30
0.0000
  0
POLYLINE
  8
21
 66
1
 10
0.0000
 20
0.0000
 30
0.0000
 40
0.0000
 41
0.0000
 70
1
  0
VERTEX
  8
21
 10
78.1819
 20
17.6010
 30
0.0000
  0
VERTEX
  8
21
 10
77.6739
 20
16.4580
 30
0.0000
 42
1.0000
  0
VERTEX
  8
21
 10
77.9061
 20
16.3548
 30
0.0000
  0
VERTEX
  8
21
 10
78.4141
 20
17.4978
 30
0.0000
 42
1.0000
  0
SEQEND
  8
0
  0
POLYLINE
  8
21
 66
1
 10
0.0000
 20
0.0000
 30
0.0000
 40
0.0000
 41
0.0000
 70
1
  0
VERTEX
  8
21
 10
77.8553
 20
16.5153
 30
0.0000
  0
VERTEX
  8
21
 10
77.6013
 20
16.6677
 30
0.0000
 42
1.0000
  0
VERTEX
  8
21
 10
77.4707
 20
16.4499
 30
0.0000
  0
VERTEX
  8
21
 10
77.7247
 20
16.2975
 30
0.0000
 42
1.0000
  0
SEQEND
  8
0
  0
POLYLINE
  8
21
 66
1
 10
0.0000
 20
0.0000
 30
0.0000
 40
0.0000
 41
0.0000
 70
1
  0
VERTEX
  8
21
 10
77.4626
 20
16.6624
 30
0.0000
  0
VERTEX
  8
21
 10
76.8530
 20
16.2306
 30
0.0000
 42
1.0000
  0
VERTEX
  8
21
 10
76.9998
 20
16.0234
 30
0.0000
  0
VERTEX
  8
21
 10
77.6094
 20
16.4552
 30
0.0000
 42
1.0000
  0
SEQEND
  8
0
  0
POLYLINE
  8
21
 66
1
 10
0.0000
 20
0.0000
 30
0.0000
 40
0.0000
 41
0.0000
 70
1
  0
VERTEX
  8
21
 10
77.0186
 20
16.2143
 30
0.0000
  0
VERTEX
  8
21
 10
76.5614
 20
16.6969
 30
0.0000
 42
1.0000
  0
VERTEX
  8
21
 10
76.3770
 20
16.5223
 30
0.0000
  0
VERTEX
  8
21
 10
76.8342
 20
16.0397
 30
0.0000
 42
1.0000
  0
SEQEND
  8
0
  0
POLYLINE
  8
21
 66
1
 10
0.0000
 20
0.0000
 30
0.0000
 40
0.0000
 41
0.0000
 70
1
  0
VERTEX
  8
21
 10
76.5749
 20
16.5392
 30
0.0000
  0
VERTEX
  8
21
 10
76.9813
 20
17.1488
 30
0.0000
 42
1.0000
  0
VERTEX
  8
21
 10
76.7699
 20
17.2896
 30
0.0000
  0
VERTEX
  8
21
 10
76.3635
 20
16.6800
 30
0.0000
 42
1.0000
  0
SEQEND
  8
0
  0
POLYLINE
  8
21
 66
1
 10
0.0000
 20
0.0000
 30
0.0000
 40
0.0000
 41
0.0000
 70
1
  0
VERTEX
  8
21
 10
76.6425
 20
18.0303
 30
0.0000
  0
VERTEX
  8
21
 10
75.8805
 20
18.1573
 30
0.0000
 42
1.0000
  0
VERTEX
  8
21
 10
75.8387
 20
17.9067
 30
0.0000
  0
VERTEX
  8
21
 10
76.6007
 20
17.7797
 30
0.0000
 42
1.0000
  0
SEQEND
  8
0
  0
POLYLINE
  8
21
 66
1
 10
0.0000
 20
0.0000
 30
0.0000
 40
0.0000
 41
0.0000
 70
1
  0
VERTEX
  8
21
 10
75.9866
 20
18.0320
 30
0.0000
  0
VERTEX
  8
21
 10
75.9866
 20
18.6924
 30
0.0000
 42
1.0000
  0
VERTEX
  8
21
 10
75.7326
 20
18.6924
 30
0.0000
  0
VERTEX
  8
21
 10
75.7326
 20
18.0320
 30
0.0000
 42
1.0000
  0
SEQEND
  8
0
  0
POLYLINE
  8
21
 66
1
 10
0.0000
 20
0.0000
 30
0.0000
 40
0.0000
 41
0.0000
 70
1
  0
VERTEX
  8
21
 10
75.8845
 20
18.5679
 30
0.0000
  0
VERTEX
  8
21
 10
76.6465
 20
18.7203
 30
0.0000
 42
1.0000
  0
VERTEX
  8
21
 10
76.5967
 20
18.9693
 30
0.0000
  0
VERTEX
  8
21
 10
75.8347
 20
18.8169
 30
0.0000
 42
1.0000
  0
SEQEND
  8
0
  0
POLYLINE
  8
21
 66
1
 10
0.0000
 20
0.0000
 30
0.0000
 40
0.0000
 41
0.0000
 70
1
  0
VERTEX
  8
21
 10
77.0054
 20
19.5521
 30
0.0000
  0
VERTEX
  8
21
 10
76.5482
 20
20.2125
 30
0.0000
 42
1.0000
  0
VERTEX
  8
21
 10
76.3394
 20
20.0679
 30
0.0000
  0
VERTEX
  8
21
 10
76.7966
 20
19.4075
 30
0.0000
 42
1.0000
  0
SEQEND
  8
0
  0
POLYLINE
  8
21
 66
1
 10
0.0000
 20
0.0000
 30
0.0000
 40
0.0000
 41
0.0000
 70
1
  0
VERTEX
  8
21
 10
76.5311
 20
20.0480
 30
0.0000
  0
VERTEX
  8
21
 10
77.0137
 20
20.5052
 30
0.0000
 42
1.0000
  0
VERTEX
  8
21
 10
76.8391
 20
20.6896
 30
0.0000
  0
VERTEX
  8
21
 10
76.3565
 20
20.2324
 30
0.0000
 42
1.0000
  0
SEQEND
  8
0
  0
POLYLINE
  8
21
 66
1
 10
0.0000
 20
0.0000
 30
0.0000
 40
0.0000
 41
0.0000
 70
1
  0
VERTEX
  8
21
 10
76.8541
 20
20.4930
 30
0.0000
  0
VERTEX
  8
21
 10
77.5145
 20
20.0358
 30
0.0000
 42
1.0000
  0
VERTEX
  8
21
 10
77.6591
 20
20.2446
 30
0.0000
  0
VERTEX
  8
21
 10
76.9987
 20
20.7018
 30
0.0000
 42
1.0000
  0
SEQEND
  8
0
  0
POLYLINE
  8
21
 66
1
 10
0.0000
 20
0.0000
 30
0.0000
 40
0.0000
 41
0.0000
 70
1
  0
VERTEX
  8
21
 10
78.3473
 20
20.3746
 30
0.0000
  0
VERTEX
  8
21
 10
78.4743
 20
21.1874
 30
0.0000
 42
1.0000
  0
VERTEX
  8
21
 10
78.2233
 20
21.2266
 30
0.0000
  0
VERTEX
  8
21
 10
78.0963
 20
20.4138
 30
0.0000
 42
1.0000
  0
SEQEND
  8
0
  0
POLYLINE
  8
21
 66
1
 10
0.0000
 20
0.0000
 30
0.0000
 40
0.0000
 41
0.0000
 70
1
  0
VERTEX
  8
21
 10
78.3488
 20
21.0800
 30
0.0000
  0
VERTEX
  8
21
 10
79.0346
 20
21.0800
 30
0.0000
 42
1.0000
  0
VERTEX
  8
21
 10
79.0346
 20
21.3340
 30
0.0000
  0
VERTEX
  8
21
 10
78.3488
 20
21.3340
 30
0.0000
 42
1.0000
  0
SEQEND
  8
0
  0
POLYLINE
  8
21
 66
1
 10
0.0000
 20
0.0000
 30
0.0000
 40
0.0000
 41
0.0000
 70
1
  0
VERTEX
  8
21
 10
78.9091
 20
21.1874
 30
0.0000
  0
VERTEX
  8
21
 10
79.0361
 20
20.3746
 30
0.0000
 42
1.0000
  0
VERTEX
  8
21
 10
79.2871
 20
20.4138
 30
0.0000
  0
VERTEX
  8
21
 10
79.1601
 20
21.2266
 30
0.0000
 42
1.0000
  0
SEQEND
  8
0
  0
POLYLINE
  8
21
 66
1
 10
0.0000
 20
0.0000
 30
0.0000
 40
0.0000
 41
0.0000
 70
1
  0
VERTEX
  8
21
 10
79.8689
 20
20.0358
 30
0.0000
  0
VERTEX
  8
21
 10
80.5293
 20
20.4930
 30
0.0000
 42
1.0000
  0
VERTEX
  8
21
 10
80.3847
 20
20.7018
 30
0.0000
  0
VERTEX
  8
21
 10
79.7243
 20
20.2446
 30
0.0000
 42
1.0000
  0
SEQEND
  8
0
  0
POLYLINE
  8
21
 66
1
 10
0.0000
 20
0.0000
 30
0.0000
 40
0.0000
 41
0.0000
 70
1
  0
VERTEX
  8
21
 10
80.3697
 20
20.5052
 30
0.0000
  0
VERTEX
  8
21
 10
80.8523
 20
20.0480
 30
0.0000
 42
1.0000
  0
VERTEX
  8
21
 10
81.0269
 20
20.2324
 30
0.0000
  0
VERTEX
  8
21
 10
80.5443
 20
20.6896
 30
0.0000
 42
1.0000
  0
SEQEND
  8
0
  0
POLYLINE
  8
21
 66
1
 10
0.0000
 20
0.0000
 30
0.0000
 40
0.0000
 41
0.0000
 70
1
  0
VERTEX
  8
21
 10
80.8352
 20
20.2125
 30
0.0000
  0
VERTEX
  8
21
 10
80.3780
 20
19.5521
 30
0.0000
 42
1.0000
  0
VERTEX
  8
21
 10
80.5868
 20
19.4075
 30
0.0000
  0
VERTEX
  8
21
 10
81.0440
 20
20.0679
 30
0.0000
 42
1.0000
  0
SEQEND
  8
0
  0
POLYLINE
  8
21
 66
1
 10
0.0000
 20
0.0000
 30
0.0000
 40
0.0000
 41
0.0000
 70
1
  0
VERTEX
  8
21
 10
80.7369
 20
18.7203
 30
0.0000
  0
VERTEX
  8
21
 10
81.4989
 20
18.5679
 30
0.0000
 42
1.0000
  0
VERTEX
  8
21
 10
81.5487
 20
18.8169
 30
0.0000
  0
VERTEX
  8
21
 10
80.7867
 20
18.9693
 30
0.0000
 42
1.0000
  0
SEQEND
  8
0
  0
POLYLINE
  8
21
 66
1
 10
0.0000
 20
0.0000
 30
0.0000
 40
0.0000
 41
0.0000
 70
1
  0
VERTEX
  8
21
 10
81.3968
 20
18.6924
 30
0.0000
  0
VERTEX
  8
21
 10
81.3968
 20
18.0320
 30
0.0000
 42
1.0000
  0
VERTEX
  8
21
 10
81.6508
 20
18.0320
 30
0.0000
  0
VERTEX
  8
21
 10
81.6508
 20
18.6924
 30
0.0000
 42
1.0000
  0
SEQEND
  8
0
  0
POLYLINE
  8
21
 66
1
 10
0.0000
 20
0.0000
 30
0.0000
 40
0.0000
 41
0.0000
 70
1
  0
VERTEX
  8
21
 10
81.5029
 20
18.1573
 30
0.0000
  0
VERTEX
  8
21
 10
80.7409
 20
18.0303
 30
0.0000
 42
1.0000
  0
VERTEX
  8
21
 10
80.7827
 20
17.7797
 30
0.0000
  0
VERTEX
  8
21
 10
81.5447
 20
17.9067
 30
0.0000
 42
1.0000
  0
SEQEND
  8
0
  0
POLYLINE
  8
21
 66
1
 10
0.0000
 20
0.0000
 30
0.0000
 40
0.0000
 41
0.0000
 70
1
  0
VERTEX
  8
21
 10
80.4042
 20
17.1458
 30
0.0000
  0
VERTEX
  8
21
 10
80.8360
 20
16.5362
 30
0.0000
 42
1.0000
  0
VERTEX
  8
21
 10
81.0432
 20
16.6830
 30
0.0000
  0
VERTEX
  8
21
 10
80.6114
 20
17.2926
 30
0.0000
 42
1.0000
  0
SEQEND
  8
0
  0
POLYLINE
  8
21
 66
1
 10
0.0000
 20
0.0000
 30
0.0000
 40
0.0000
 41
0.0000
 70
1
  0
VERTEX
  8
21
 10
80.8498
 20
16.6994
 30
0.0000
  0
VERTEX
  8
21
 10
80.3672
 20
16.2168
 30
0.0000
 42
1.0000
  0
VERTEX
  8
21
 10
80.5468
 20
16.0372
 30
0.0000
  0
VERTEX
  8
21
 10
81.0294
 20
16.5198
 30
0.0000
 42
1.0000
  0
SEQEND
  8
0
  0
POLYLINE
  8
21
 66
1
 10
0.0000
 20
0.0000
 30
0.0000
 40
0.0000
 41
0.0000
 70
1
  0
VERTEX
  8
21
 10
80.5304
 20
16.2306
 30
0.0000
  0
VERTEX
  8
21
 10
79.9208
 20
16.6624
 30
0.0000
 42
1.0000
  0
VERTEX
  8
21
 10
79.7740
 20
16.4552
 30
0.0000
  0
VERTEX
  8
21
 10
80.3836
 20
16.0234
 30
0.0000
 42
1.0000
  0
SEQEND
  8
0
  0
POLYLINE
  8
21
 66
1
 10
0.0000
 20
0.0000
 30
0.0000
 40
0.0000
 41
0.0000
 70
1
  0
VERTEX
  8
21
 10
79.7821
 20
16.6677
 30
0.0000
  0
VERTEX
  8
21
 10
79.5281
 20
16.5153
 30
0.0000
 42
1.0000
  0
VERTEX
  8
21
 10
79.6587
 20
16.2975
 30
0.0000
  0
VERTEX
  8
21
 10
79.9127
 20
16.4499
 30
0.0000
 42
1.0000
  0
SEQEND
  8
0
  0
POLYLINE
  8
21
 66
1
 10
0.0000
 20
0.0000
 30
0.0000
 40
0.0000
 41
0.0000
 70
1
  0
VERTEX
  8
21
 10
79.7104
 20
16.4558
 30
0.0000
  0
VERTEX
  8
21
 10
79.2278
 20
17.5988
 30
0.0000
 42
1.0000
  0
VERTEX
  8
21
 10
78.9938
 20
17.5000
 30
0.0000
  0
VERTEX
  8
21
 10
79.4764
 20
16.3570
 30
0.0000
 42
1.0000
  0
SEQEND
  8
0
  0
POLYLINE
  8
21
 66
1
 10
0.0000
 20
0.0000
 30
0.0000
 40
0.0000
 41
0.0000
 70
1
  0
VERTEX
  8
21
 10
79.0554
 20
17.6891
 30
0.0000
 42
1.0000
  0
VERTEX
  8
21
 10
79.1662
 20
17.4605
 30
0.0000
 42
4.3546
  0
VERTEX
  8
21
 10
78.2426
 20
17.4605
 30
0.0000
 42
1.0000
  0
VERTEX
  8
21
 10
78.3534
 20
17.6891
 30
0.0000
 42
-4.3546
  0
SEQEND
  8
0
  0
POLYLINE
  8
21
 66
1
 10
0.0000
 20
0.0000
 30
0.0000
 40
0.0000
 41
0.0000
 70
1
  0
VERTEX
  8
21
 10
76.7478
 20
17.9259
 30
0.0000
 42
1.0000
  0
VERTEX
  8
21
 10
76.4988
 20
17.8761
 30
0.0000
 42
0.0861
  0
VERTEX
  8
21
 10
76.7752
 20
17.1620
 30
0.0000
 42
1.0000
  0
VERTEX
  8
21
 10
76.9930
 20
17.2928
 30
0.0000
 42
-0.0861
  0
SEQEND
  8
0
  0
POLYLINE
  8
21
 66
1
 10
0.0000
 20
0.0000
 30
0.0000
 40
0.0000
 41
0.0000
 70
1
  0
VERTEX
  8
21
 10
77.0104
 20
19.3983
 30
0.0000
 42
1.0000
  0
VERTEX
  8
21
 10
76.7958
 20
19.5341
 30
0.0000
 42
0.0803
  0
VERTEX
  8
21
 10
76.5143
 20
18.8755
 30
0.0000
 42
1.0000
  0
VERTEX
  8
21
 10
76.7607
 20
18.8143
 30
0.0000
 42
-0.0803
  0
SEQEND
  8
0
  0
POLYLINE
  8
21
 66
1
 10
0.0000
 20
0.0000
 30
0.0000
 40
0.0000
 41
0.0000
 70
1
  0
VERTEX
  8
21
 10
78.2318
 20
20.2722
 30
0.0000
 42
1.0000
  0
VERTEX
  8
21
 10
78.1738
 20
20.5196
 30
0.0000
 42
0.0780
  0
VERTEX
  8
21
 10
77.5302
 20
20.2581
 30
0.0000
 42
1.0000
  0
VERTEX
  8
21
 10
77.6610
 20
20.0405
 30
0.0000
 42
-0.0780
  0
SEQEND
  8
0
  0
POLYLINE
  8
21
 66
1
 10
0.0000
 20
0.0000
 30
0.0000
 40
0.0000
 41
0.0000
 70
1
  0
VERTEX
  8
21
 10
79.7400
 20
20.0360
 30
0.0000
 42
1.0000
  0
VERTEX
  8
21
 10
79.8720
 20
20.2530
 30
0.0000
 42
0.0807
  0
VERTEX
  8
21
 10
79.2034
 20
20.5244
 30
0.0000
 42
1.0000
  0
VERTEX
  8
21
 10
79.1468
 20
20.2768
 30
0.0000
 42
-0.0807
  0
SEQEND
  8
0
  0
POLYLINE
  8
21
 66
1
 10
0.0000
 20
0.0000
 30
0.0000
 40
0.0000
 41
0.0000
 70
1
  0
VERTEX
  8
21
 10
80.6362
 20
18.8136
 30
0.0000
 42
1.0000
  0
VERTEX
  8
21
 10
80.8824
 20
18.8762
 30
0.0000
 42
0.0844
  0
VERTEX
  8
21
 10
80.5853
 20
19.5459
 30
0.0000
 42
1.0000
  0
VERTEX
  8
21
 10
80.3737
 20
19.4055
 30
0.0000
 42
-0.0844
  0
SEQEND
  8
0
  0
POLYLINE
  8
21
 66
1
 10
0.0000
 20
0.0000
 30
0.0000
 40
0.0000
 41
0.0000
 70
1
  0
VERTEX
  8
21
 10
80.3990
 20
17.2830
 30
0.0000
 42
1.0000
  0
VERTEX
  8
21
 10
80.6170
 20
17.1528
 30
0.0000
 42
0.0890
  0
VERTEX
  8
21
 10
80.8890
 20
17.8730
 30
0.0000
 42
1.0000
  0
VERTEX
  8
21
 10
80.6392
 20
17.9194
 30
0.0000
 42
-0.0890
  0
SEQEND
  8
0
  0
ENDSEC
  0
EOF
